G04 (created by PCBNEW (2012-11-15 BZR 3804)-stable) date Wed 13 Mar 2013 22:39:21 CDT*
%MOIN*%
G04 Gerber Fmt 3.4, Leading zero omitted, Abs format*
%FSLAX34Y34*%
G01*
G70*
G90*
G04 APERTURE LIST*
%ADD10C,0.005*%
%ADD11C,0.006*%
%ADD12C,0.00590551*%
%ADD13C,0.00787402*%
%ADD14C,0.011811*%
G04 APERTURE END LIST*
G54D10*
G54D11*
X-1250Y6750D02*
X-1250Y-250D01*
X38750Y16250D02*
X38500Y16500D01*
X38500Y-4500D02*
X38750Y-4250D01*
X-5250Y-4500D02*
X-5500Y-4250D01*
X-5500Y16250D02*
X-5250Y16500D01*
X-5500Y10850D02*
X-5500Y-4250D01*
X-5500Y16250D02*
X-5500Y11800D01*
X-1250Y10850D02*
X-5500Y10850D01*
X-1250Y11800D02*
X-1250Y10850D01*
X-5500Y11800D02*
X-1250Y11800D01*
X38500Y16500D02*
X-5250Y16500D01*
X38750Y-4250D02*
X38750Y16250D01*
G54D12*
X-5250Y-4500D02*
X38500Y-4500D01*
G54D13*
X-4484Y6934D02*
X-2515Y4965D01*
X-2515Y6934D02*
X-4484Y4965D01*
X34515Y14984D02*
X36484Y13015D01*
X36484Y14984D02*
X34515Y13015D01*
G54D14*
X-4461Y-6307D02*
X-4461Y-5126D01*
X-4180Y-5126D01*
X-4011Y-5182D01*
X-3898Y-5294D01*
X-3842Y-5407D01*
X-3786Y-5632D01*
X-3786Y-5801D01*
X-3842Y-6026D01*
X-3898Y-6138D01*
X-4011Y-6251D01*
X-4180Y-6307D01*
X-4461Y-6307D01*
X-3280Y-6307D02*
X-3280Y-5519D01*
X-3280Y-5744D02*
X-3224Y-5632D01*
X-3167Y-5576D01*
X-3055Y-5519D01*
X-2942Y-5519D01*
X-2549Y-6307D02*
X-2549Y-5519D01*
X-2549Y-5126D02*
X-2605Y-5182D01*
X-2549Y-5238D01*
X-2492Y-5182D01*
X-2549Y-5126D01*
X-2549Y-5238D01*
X-1817Y-6307D02*
X-1930Y-6251D01*
X-1986Y-6138D01*
X-1986Y-5126D01*
X-1199Y-6307D02*
X-1311Y-6251D01*
X-1368Y-6138D01*
X-1368Y-5126D01*
X150Y-6307D02*
X150Y-5126D01*
X544Y-5969D01*
X937Y-5126D01*
X937Y-6307D01*
X2006Y-6307D02*
X2006Y-5688D01*
X1950Y-5576D01*
X1837Y-5519D01*
X1612Y-5519D01*
X1500Y-5576D01*
X2006Y-6251D02*
X1894Y-6307D01*
X1612Y-6307D01*
X1500Y-6251D01*
X1444Y-6138D01*
X1444Y-6026D01*
X1500Y-5913D01*
X1612Y-5857D01*
X1894Y-5857D01*
X2006Y-5801D01*
X2568Y-5519D02*
X2568Y-6700D01*
X2568Y-5576D02*
X2681Y-5519D01*
X2906Y-5519D01*
X3018Y-5576D01*
X3075Y-5632D01*
X3131Y-5744D01*
X3131Y-6082D01*
X3075Y-6194D01*
X3018Y-6251D01*
X2906Y-6307D01*
X2681Y-6307D01*
X2568Y-6251D01*
X3637Y-6194D02*
X3693Y-6251D01*
X3637Y-6307D01*
X3581Y-6251D01*
X3637Y-6194D01*
X3637Y-6307D01*
X3637Y-5576D02*
X3693Y-5632D01*
X3637Y-5688D01*
X3581Y-5632D01*
X3637Y-5576D01*
X3637Y-5688D01*
X-7499Y-7325D02*
X-5530Y-9294D01*
X-5530Y-7325D02*
X-7499Y-9294D01*
X-3898Y-7606D02*
X-4461Y-7606D01*
X-4517Y-8168D01*
X-4461Y-8112D01*
X-4348Y-8056D01*
X-4067Y-8056D01*
X-3955Y-8112D01*
X-3898Y-8168D01*
X-3842Y-8281D01*
X-3842Y-8562D01*
X-3898Y-8675D01*
X-3955Y-8731D01*
X-4067Y-8787D01*
X-4348Y-8787D01*
X-4461Y-8731D01*
X-4517Y-8675D01*
X-3336Y-8675D02*
X-3280Y-8731D01*
X-3336Y-8787D01*
X-3392Y-8731D01*
X-3336Y-8675D01*
X-3336Y-8787D01*
X-2549Y-7606D02*
X-2436Y-7606D01*
X-2324Y-7662D01*
X-2267Y-7718D01*
X-2211Y-7831D01*
X-2155Y-8056D01*
X-2155Y-8337D01*
X-2211Y-8562D01*
X-2267Y-8675D01*
X-2324Y-8731D01*
X-2436Y-8787D01*
X-2549Y-8787D01*
X-2661Y-8731D01*
X-2717Y-8675D01*
X-2774Y-8562D01*
X-2830Y-8337D01*
X-2830Y-8056D01*
X-2774Y-7831D01*
X-2717Y-7718D01*
X-2661Y-7662D01*
X-2549Y-7606D01*
X-1424Y-7606D02*
X-1311Y-7606D01*
X-1199Y-7662D01*
X-1143Y-7718D01*
X-1086Y-7831D01*
X-1030Y-8056D01*
X-1030Y-8337D01*
X-1086Y-8562D01*
X-1143Y-8675D01*
X-1199Y-8731D01*
X-1311Y-8787D01*
X-1424Y-8787D01*
X-1536Y-8731D01*
X-1592Y-8675D01*
X-1649Y-8562D01*
X-1705Y-8337D01*
X-1705Y-8056D01*
X-1649Y-7831D01*
X-1592Y-7718D01*
X-1536Y-7662D01*
X-1424Y-7606D01*
X-524Y-8787D02*
X-524Y-8000D01*
X-524Y-8112D02*
X-468Y-8056D01*
X-355Y-8000D01*
X-186Y-8000D01*
X-74Y-8056D01*
X-18Y-8168D01*
X-18Y-8787D01*
X-18Y-8168D02*
X38Y-8056D01*
X150Y-8000D01*
X319Y-8000D01*
X431Y-8056D01*
X487Y-8168D01*
X487Y-8787D01*
X1050Y-8787D02*
X1050Y-8000D01*
X1050Y-8112D02*
X1106Y-8056D01*
X1219Y-8000D01*
X1387Y-8000D01*
X1500Y-8056D01*
X1556Y-8168D01*
X1556Y-8787D01*
X1556Y-8168D02*
X1612Y-8056D01*
X1725Y-8000D01*
X1894Y-8000D01*
X2006Y-8056D01*
X2062Y-8168D01*
X2062Y-8787D01*
X4368Y-7550D02*
X3356Y-9068D01*
X5887Y-7606D02*
X5999Y-7606D01*
X6112Y-7662D01*
X6168Y-7718D01*
X6224Y-7831D01*
X6281Y-8056D01*
X6281Y-8337D01*
X6224Y-8562D01*
X6168Y-8675D01*
X6112Y-8731D01*
X5999Y-8787D01*
X5887Y-8787D01*
X5774Y-8731D01*
X5718Y-8675D01*
X5662Y-8562D01*
X5606Y-8337D01*
X5606Y-8056D01*
X5662Y-7831D01*
X5718Y-7718D01*
X5774Y-7662D01*
X5887Y-7606D01*
X6787Y-8675D02*
X6843Y-8731D01*
X6787Y-8787D01*
X6730Y-8731D01*
X6787Y-8675D01*
X6787Y-8787D01*
X7968Y-8787D02*
X7293Y-8787D01*
X7630Y-8787D02*
X7630Y-7606D01*
X7518Y-7775D01*
X7405Y-7887D01*
X7293Y-7943D01*
X8530Y-8787D02*
X8755Y-8787D01*
X8868Y-8731D01*
X8924Y-8675D01*
X9036Y-8506D01*
X9093Y-8281D01*
X9093Y-7831D01*
X9036Y-7718D01*
X8980Y-7662D01*
X8868Y-7606D01*
X8643Y-7606D01*
X8530Y-7662D01*
X8474Y-7718D01*
X8418Y-7831D01*
X8418Y-8112D01*
X8474Y-8225D01*
X8530Y-8281D01*
X8643Y-8337D01*
X8868Y-8337D01*
X8980Y-8281D01*
X9036Y-8225D01*
X9093Y-8112D01*
X9486Y-7606D02*
X10274Y-7606D01*
X9768Y-8787D01*
X10667Y-7606D02*
X10667Y-7831D01*
X11117Y-7606D02*
X11117Y-7831D01*
X12861Y-9237D02*
X12805Y-9181D01*
X12692Y-9012D01*
X12636Y-8900D01*
X12580Y-8731D01*
X12523Y-8450D01*
X12523Y-8225D01*
X12580Y-7943D01*
X12636Y-7775D01*
X12692Y-7662D01*
X12805Y-7494D01*
X12861Y-7437D01*
X13255Y-7718D02*
X13311Y-7662D01*
X13423Y-7606D01*
X13705Y-7606D01*
X13817Y-7662D01*
X13873Y-7718D01*
X13930Y-7831D01*
X13930Y-7943D01*
X13873Y-8112D01*
X13198Y-8787D01*
X13930Y-8787D01*
X15336Y-8787D02*
X15336Y-7606D01*
X15842Y-8787D02*
X15842Y-8168D01*
X15786Y-8056D01*
X15673Y-8000D01*
X15504Y-8000D01*
X15392Y-8056D01*
X15336Y-8112D01*
X16573Y-8787D02*
X16461Y-8731D01*
X16404Y-8675D01*
X16348Y-8562D01*
X16348Y-8225D01*
X16404Y-8112D01*
X16461Y-8056D01*
X16573Y-8000D01*
X16742Y-8000D01*
X16854Y-8056D01*
X16910Y-8112D01*
X16967Y-8225D01*
X16967Y-8562D01*
X16910Y-8675D01*
X16854Y-8731D01*
X16742Y-8787D01*
X16573Y-8787D01*
X17642Y-8787D02*
X17529Y-8731D01*
X17473Y-8618D01*
X17473Y-7606D01*
X18541Y-8731D02*
X18429Y-8787D01*
X18204Y-8787D01*
X18092Y-8731D01*
X18035Y-8618D01*
X18035Y-8168D01*
X18092Y-8056D01*
X18204Y-8000D01*
X18429Y-8000D01*
X18541Y-8056D01*
X18598Y-8168D01*
X18598Y-8281D01*
X18035Y-8393D01*
X19048Y-8731D02*
X19160Y-8787D01*
X19385Y-8787D01*
X19498Y-8731D01*
X19554Y-8618D01*
X19554Y-8562D01*
X19498Y-8450D01*
X19385Y-8393D01*
X19216Y-8393D01*
X19104Y-8337D01*
X19048Y-8225D01*
X19048Y-8168D01*
X19104Y-8056D01*
X19216Y-8000D01*
X19385Y-8000D01*
X19498Y-8056D01*
X19948Y-9237D02*
X20004Y-9181D01*
X20116Y-9012D01*
X20173Y-8900D01*
X20229Y-8731D01*
X20285Y-8450D01*
X20285Y-8225D01*
X20229Y-7943D01*
X20173Y-7775D01*
X20116Y-7662D01*
X20004Y-7494D01*
X19948Y-7437D01*
M02*
