G04 (created by PCBNEW (2012-11-15 BZR 3804)-stable) date Wed 13 Mar 2013 22:39:17 CDT*
%MOIN*%
G04 Gerber Fmt 3.4, Leading zero omitted, Abs format*
%FSLAX34Y34*%
G01*
G70*
G90*
G04 APERTURE LIST*
%ADD10C,0.006*%
%ADD11C,0.008*%
%ADD12C,0.01*%
%ADD13C,0.007*%
%ADD14C,0.005*%
%ADD15C,0.015*%
%ADD16C,0.009*%
%ADD17C,0.00590551*%
%ADD18C,0.02*%
%ADD19C,0.03*%
%ADD20C,0.0001*%
%ADD21C,0.012*%
G04 APERTURE END LIST*
G54D10*
X-41000Y34000D02*
X61000Y34000D01*
X61000Y-43000D01*
X-41000Y-43000D01*
X-41000Y34000D01*
X-40300Y33300D02*
X60300Y33300D01*
X60300Y-42300D01*
X-40300Y-42300D01*
X-40300Y33300D01*
X-20600Y34000D02*
X-20600Y33300D01*
X-30657Y33447D02*
X-30942Y33447D01*
X-30800Y33447D02*
X-30800Y33947D01*
X-30847Y33876D01*
X-30895Y33828D01*
X-30942Y33804D01*
X-20600Y-43000D02*
X-20600Y-42300D01*
X-30657Y-42852D02*
X-30942Y-42852D01*
X-30800Y-42852D02*
X-30800Y-42352D01*
X-30847Y-42423D01*
X-30895Y-42471D01*
X-30942Y-42495D01*
X-200Y34000D02*
X-200Y33300D01*
X-10542Y33900D02*
X-10519Y33923D01*
X-10471Y33947D01*
X-10352Y33947D01*
X-10304Y33923D01*
X-10280Y33900D01*
X-10257Y33852D01*
X-10257Y33804D01*
X-10280Y33733D01*
X-10566Y33447D01*
X-10257Y33447D01*
X-200Y-43000D02*
X-200Y-42300D01*
X-10542Y-42400D02*
X-10519Y-42376D01*
X-10471Y-42352D01*
X-10352Y-42352D01*
X-10304Y-42376D01*
X-10280Y-42400D01*
X-10257Y-42447D01*
X-10257Y-42495D01*
X-10280Y-42566D01*
X-10566Y-42852D01*
X-10257Y-42852D01*
X20200Y34000D02*
X20200Y33300D01*
X9833Y33947D02*
X10142Y33947D01*
X9976Y33757D01*
X10047Y33757D01*
X10095Y33733D01*
X10119Y33709D01*
X10142Y33661D01*
X10142Y33542D01*
X10119Y33495D01*
X10095Y33471D01*
X10047Y33447D01*
X9904Y33447D01*
X9857Y33471D01*
X9833Y33495D01*
X20200Y-43000D02*
X20200Y-42300D01*
X9833Y-42352D02*
X10142Y-42352D01*
X9976Y-42542D01*
X10047Y-42542D01*
X10095Y-42566D01*
X10119Y-42590D01*
X10142Y-42638D01*
X10142Y-42757D01*
X10119Y-42804D01*
X10095Y-42828D01*
X10047Y-42852D01*
X9904Y-42852D01*
X9857Y-42828D01*
X9833Y-42804D01*
X40600Y34000D02*
X40600Y33300D01*
X30495Y33780D02*
X30495Y33447D01*
X30376Y33971D02*
X30257Y33614D01*
X30566Y33614D01*
X40600Y-43000D02*
X40600Y-42300D01*
X30495Y-42519D02*
X30495Y-42852D01*
X30376Y-42328D02*
X30257Y-42685D01*
X30566Y-42685D01*
X50919Y33947D02*
X50680Y33947D01*
X50657Y33709D01*
X50680Y33733D01*
X50728Y33757D01*
X50847Y33757D01*
X50895Y33733D01*
X50919Y33709D01*
X50942Y33661D01*
X50942Y33542D01*
X50919Y33495D01*
X50895Y33471D01*
X50847Y33447D01*
X50728Y33447D01*
X50680Y33471D01*
X50657Y33495D01*
X50919Y-42352D02*
X50680Y-42352D01*
X50657Y-42590D01*
X50680Y-42566D01*
X50728Y-42542D01*
X50847Y-42542D01*
X50895Y-42566D01*
X50919Y-42590D01*
X50942Y-42638D01*
X50942Y-42757D01*
X50919Y-42804D01*
X50895Y-42828D01*
X50847Y-42852D01*
X50728Y-42852D01*
X50680Y-42828D01*
X50657Y-42804D01*
X-41000Y8340D02*
X-40300Y8340D01*
X-40769Y21110D02*
X-40530Y21110D01*
X-40816Y20967D02*
X-40649Y21467D01*
X-40483Y20967D01*
X61000Y8340D02*
X60300Y8340D01*
X60530Y21110D02*
X60769Y21110D01*
X60483Y20967D02*
X60650Y21467D01*
X60816Y20967D01*
X-41000Y-17320D02*
X-40300Y-17320D01*
X-40614Y-4430D02*
X-40542Y-4454D01*
X-40519Y-4478D01*
X-40495Y-4525D01*
X-40495Y-4597D01*
X-40519Y-4644D01*
X-40542Y-4668D01*
X-40590Y-4692D01*
X-40780Y-4692D01*
X-40780Y-4192D01*
X-40614Y-4192D01*
X-40566Y-4216D01*
X-40542Y-4240D01*
X-40519Y-4287D01*
X-40519Y-4335D01*
X-40542Y-4382D01*
X-40566Y-4406D01*
X-40614Y-4430D01*
X-40780Y-4430D01*
X61000Y-17320D02*
X60300Y-17320D01*
X60685Y-4430D02*
X60757Y-4454D01*
X60780Y-4478D01*
X60804Y-4525D01*
X60804Y-4597D01*
X60780Y-4644D01*
X60757Y-4668D01*
X60709Y-4692D01*
X60519Y-4692D01*
X60519Y-4192D01*
X60685Y-4192D01*
X60733Y-4216D01*
X60757Y-4240D01*
X60780Y-4287D01*
X60780Y-4335D01*
X60757Y-4382D01*
X60733Y-4406D01*
X60685Y-4430D01*
X60519Y-4430D01*
X-40495Y-30304D02*
X-40519Y-30328D01*
X-40590Y-30352D01*
X-40638Y-30352D01*
X-40709Y-30328D01*
X-40757Y-30280D01*
X-40780Y-30233D01*
X-40804Y-30138D01*
X-40804Y-30066D01*
X-40780Y-29971D01*
X-40757Y-29923D01*
X-40709Y-29876D01*
X-40638Y-29852D01*
X-40590Y-29852D01*
X-40519Y-29876D01*
X-40495Y-29900D01*
X60804Y-30304D02*
X60780Y-30328D01*
X60709Y-30352D01*
X60661Y-30352D01*
X60590Y-30328D01*
X60542Y-30280D01*
X60519Y-30233D01*
X60495Y-30138D01*
X60495Y-30066D01*
X60519Y-29971D01*
X60542Y-29923D01*
X60590Y-29876D01*
X60661Y-29852D01*
X60709Y-29852D01*
X60780Y-29876D01*
X60804Y-29900D01*
X27450Y-40742D02*
X27525Y-40142D01*
X27667Y-40142D01*
X27750Y-40171D01*
X27800Y-40228D01*
X27821Y-40285D01*
X27835Y-40400D01*
X27825Y-40485D01*
X27782Y-40600D01*
X27746Y-40657D01*
X27682Y-40714D01*
X27592Y-40742D01*
X27450Y-40742D01*
X28307Y-40742D02*
X28346Y-40428D01*
X28325Y-40371D01*
X28271Y-40342D01*
X28157Y-40342D01*
X28096Y-40371D01*
X28310Y-40714D02*
X28250Y-40742D01*
X28107Y-40742D01*
X28053Y-40714D01*
X28032Y-40657D01*
X28039Y-40600D01*
X28075Y-40542D01*
X28135Y-40514D01*
X28278Y-40514D01*
X28339Y-40485D01*
X28557Y-40342D02*
X28785Y-40342D01*
X28667Y-40142D02*
X28603Y-40657D01*
X28625Y-40714D01*
X28678Y-40742D01*
X28735Y-40742D01*
X29167Y-40714D02*
X29107Y-40742D01*
X28992Y-40742D01*
X28939Y-40714D01*
X28917Y-40657D01*
X28946Y-40428D01*
X28982Y-40371D01*
X29042Y-40342D01*
X29157Y-40342D01*
X29210Y-40371D01*
X29232Y-40428D01*
X29225Y-40485D01*
X28932Y-40542D01*
X29457Y-40685D02*
X29482Y-40714D01*
X29450Y-40742D01*
X29425Y-40714D01*
X29457Y-40685D01*
X29450Y-40742D01*
X29496Y-40371D02*
X29521Y-40400D01*
X29489Y-40428D01*
X29464Y-40400D01*
X29496Y-40371D01*
X29489Y-40428D01*
X30507Y-40742D02*
X30164Y-40742D01*
X30335Y-40742D02*
X30410Y-40142D01*
X30342Y-40228D01*
X30278Y-40285D01*
X30217Y-40314D01*
X31071Y-40342D02*
X31021Y-40742D01*
X30957Y-40114D02*
X30760Y-40542D01*
X31132Y-40542D01*
X31792Y-40742D02*
X31842Y-40342D01*
X31835Y-40400D02*
X31867Y-40371D01*
X31928Y-40342D01*
X32014Y-40342D01*
X32067Y-40371D01*
X32089Y-40428D01*
X32050Y-40742D01*
X32089Y-40428D02*
X32125Y-40371D01*
X32185Y-40342D01*
X32271Y-40342D01*
X32325Y-40371D01*
X32346Y-40428D01*
X32307Y-40742D01*
X32850Y-40742D02*
X32889Y-40428D01*
X32867Y-40371D01*
X32814Y-40342D01*
X32700Y-40342D01*
X32639Y-40371D01*
X32853Y-40714D02*
X32792Y-40742D01*
X32650Y-40742D01*
X32596Y-40714D01*
X32575Y-40657D01*
X32582Y-40600D01*
X32617Y-40542D01*
X32678Y-40514D01*
X32821Y-40514D01*
X32882Y-40485D01*
X33135Y-40742D02*
X33185Y-40342D01*
X33171Y-40457D02*
X33207Y-40400D01*
X33239Y-40371D01*
X33300Y-40342D01*
X33357Y-40342D01*
X34003Y-40200D02*
X34035Y-40171D01*
X34096Y-40142D01*
X34239Y-40142D01*
X34292Y-40171D01*
X34317Y-40200D01*
X34339Y-40257D01*
X34332Y-40314D01*
X34292Y-40400D01*
X33907Y-40742D01*
X34278Y-40742D01*
X34725Y-40142D02*
X34782Y-40142D01*
X34835Y-40171D01*
X34860Y-40200D01*
X34882Y-40257D01*
X34896Y-40371D01*
X34878Y-40514D01*
X34835Y-40628D01*
X34800Y-40685D01*
X34767Y-40714D01*
X34707Y-40742D01*
X34650Y-40742D01*
X34596Y-40714D01*
X34571Y-40685D01*
X34550Y-40628D01*
X34535Y-40514D01*
X34553Y-40371D01*
X34596Y-40257D01*
X34632Y-40200D01*
X34664Y-40171D01*
X34725Y-40142D01*
X35421Y-40742D02*
X35078Y-40742D01*
X35250Y-40742D02*
X35325Y-40142D01*
X35257Y-40228D01*
X35192Y-40285D01*
X35132Y-40314D01*
X35696Y-40142D02*
X36067Y-40142D01*
X35839Y-40371D01*
X35925Y-40371D01*
X35978Y-40400D01*
X36003Y-40428D01*
X36025Y-40485D01*
X36007Y-40628D01*
X35971Y-40685D01*
X35939Y-40714D01*
X35878Y-40742D01*
X35707Y-40742D01*
X35653Y-40714D01*
X35628Y-40685D01*
X19042Y-41942D02*
X19042Y-41342D01*
X19385Y-41942D02*
X19128Y-41600D01*
X19385Y-41342D02*
X19042Y-41685D01*
X19642Y-41942D02*
X19642Y-41542D01*
X19642Y-41342D02*
X19614Y-41371D01*
X19642Y-41400D01*
X19671Y-41371D01*
X19642Y-41342D01*
X19642Y-41400D01*
X20271Y-41885D02*
X20242Y-41914D01*
X20157Y-41942D01*
X20100Y-41942D01*
X20014Y-41914D01*
X19957Y-41857D01*
X19928Y-41800D01*
X19900Y-41685D01*
X19900Y-41600D01*
X19928Y-41485D01*
X19957Y-41428D01*
X20014Y-41371D01*
X20100Y-41342D01*
X20157Y-41342D01*
X20242Y-41371D01*
X20271Y-41400D01*
X20785Y-41942D02*
X20785Y-41628D01*
X20757Y-41571D01*
X20700Y-41542D01*
X20585Y-41542D01*
X20528Y-41571D01*
X20785Y-41914D02*
X20728Y-41942D01*
X20585Y-41942D01*
X20528Y-41914D01*
X20500Y-41857D01*
X20500Y-41800D01*
X20528Y-41742D01*
X20585Y-41714D01*
X20728Y-41714D01*
X20785Y-41685D01*
X21328Y-41942D02*
X21328Y-41342D01*
X21328Y-41914D02*
X21271Y-41942D01*
X21157Y-41942D01*
X21100Y-41914D01*
X21071Y-41885D01*
X21042Y-41828D01*
X21042Y-41657D01*
X21071Y-41600D01*
X21100Y-41571D01*
X21157Y-41542D01*
X21271Y-41542D01*
X21328Y-41571D01*
X22071Y-41628D02*
X22271Y-41628D01*
X22357Y-41942D02*
X22071Y-41942D01*
X22071Y-41342D01*
X22357Y-41342D01*
X22614Y-41885D02*
X22642Y-41914D01*
X22614Y-41942D01*
X22585Y-41914D01*
X22614Y-41885D01*
X22614Y-41942D01*
X22899Y-41942D02*
X22899Y-41342D01*
X23042Y-41342D01*
X23128Y-41371D01*
X23185Y-41428D01*
X23214Y-41485D01*
X23242Y-41600D01*
X23242Y-41685D01*
X23214Y-41800D01*
X23185Y-41857D01*
X23128Y-41914D01*
X23042Y-41942D01*
X22899Y-41942D01*
X23499Y-41885D02*
X23528Y-41914D01*
X23499Y-41942D01*
X23471Y-41914D01*
X23499Y-41885D01*
X23499Y-41942D01*
X23757Y-41771D02*
X24042Y-41771D01*
X23699Y-41942D02*
X23899Y-41342D01*
X24099Y-41942D01*
X24299Y-41885D02*
X24328Y-41914D01*
X24299Y-41942D01*
X24271Y-41914D01*
X24299Y-41885D01*
X24299Y-41942D01*
X52592Y-40742D02*
X52428Y-40457D01*
X52250Y-40742D02*
X52325Y-40142D01*
X52553Y-40142D01*
X52607Y-40171D01*
X52632Y-40200D01*
X52653Y-40257D01*
X52642Y-40342D01*
X52607Y-40400D01*
X52575Y-40428D01*
X52514Y-40457D01*
X52285Y-40457D01*
X53082Y-40714D02*
X53021Y-40742D01*
X52907Y-40742D01*
X52853Y-40714D01*
X52832Y-40657D01*
X52860Y-40428D01*
X52896Y-40371D01*
X52957Y-40342D01*
X53071Y-40342D01*
X53125Y-40371D01*
X53146Y-40428D01*
X53139Y-40485D01*
X52846Y-40542D01*
X53357Y-40342D02*
X53450Y-40742D01*
X53642Y-40342D01*
X53828Y-40685D02*
X53853Y-40714D01*
X53821Y-40742D01*
X53796Y-40714D01*
X53828Y-40685D01*
X53821Y-40742D01*
X53867Y-40371D02*
X53892Y-40400D01*
X53860Y-40428D01*
X53835Y-40400D01*
X53867Y-40371D01*
X53860Y-40428D01*
X54564Y-40742D02*
X54639Y-40142D01*
X54867Y-40142D01*
X54921Y-40171D01*
X54946Y-40200D01*
X54967Y-40257D01*
X54957Y-40342D01*
X54921Y-40400D01*
X54889Y-40428D01*
X54828Y-40457D01*
X54600Y-40457D01*
X55182Y-40142D02*
X55553Y-40142D01*
X55325Y-40371D01*
X55410Y-40371D01*
X55464Y-40400D01*
X55489Y-40428D01*
X55510Y-40485D01*
X55492Y-40628D01*
X55457Y-40685D01*
X55425Y-40714D01*
X55364Y-40742D01*
X55192Y-40742D01*
X55139Y-40714D01*
X55114Y-40685D01*
X19014Y-40714D02*
X19100Y-40742D01*
X19242Y-40742D01*
X19300Y-40714D01*
X19328Y-40685D01*
X19357Y-40628D01*
X19357Y-40571D01*
X19328Y-40514D01*
X19300Y-40485D01*
X19242Y-40457D01*
X19128Y-40428D01*
X19071Y-40400D01*
X19042Y-40371D01*
X19014Y-40314D01*
X19014Y-40257D01*
X19042Y-40200D01*
X19071Y-40171D01*
X19128Y-40142D01*
X19271Y-40142D01*
X19357Y-40171D01*
X19614Y-40742D02*
X19614Y-40342D01*
X19614Y-40142D02*
X19585Y-40171D01*
X19614Y-40200D01*
X19642Y-40171D01*
X19614Y-40142D01*
X19614Y-40200D01*
X19842Y-40342D02*
X20157Y-40342D01*
X19842Y-40742D01*
X20157Y-40742D01*
X20614Y-40714D02*
X20557Y-40742D01*
X20442Y-40742D01*
X20385Y-40714D01*
X20357Y-40657D01*
X20357Y-40428D01*
X20385Y-40371D01*
X20442Y-40342D01*
X20557Y-40342D01*
X20614Y-40371D01*
X20642Y-40428D01*
X20642Y-40485D01*
X20357Y-40542D01*
X20900Y-40685D02*
X20928Y-40714D01*
X20900Y-40742D01*
X20871Y-40714D01*
X20900Y-40685D01*
X20900Y-40742D01*
X20900Y-40371D02*
X20928Y-40400D01*
X20900Y-40428D01*
X20871Y-40400D01*
X20900Y-40371D01*
X20900Y-40428D01*
X21614Y-40571D02*
X21900Y-40571D01*
X21557Y-40742D02*
X21757Y-40142D01*
X21957Y-40742D01*
X52242Y-41942D02*
X52242Y-41342D01*
X52785Y-41942D02*
X52785Y-41342D01*
X52785Y-41914D02*
X52728Y-41942D01*
X52614Y-41942D01*
X52557Y-41914D01*
X52528Y-41885D01*
X52500Y-41828D01*
X52500Y-41657D01*
X52528Y-41600D01*
X52557Y-41571D01*
X52614Y-41542D01*
X52728Y-41542D01*
X52785Y-41571D01*
X53071Y-41885D02*
X53100Y-41914D01*
X53071Y-41942D01*
X53042Y-41914D01*
X53071Y-41885D01*
X53071Y-41942D01*
X53071Y-41571D02*
X53100Y-41600D01*
X53071Y-41628D01*
X53042Y-41600D01*
X53071Y-41571D01*
X53071Y-41628D01*
X54128Y-41942D02*
X53785Y-41942D01*
X53957Y-41942D02*
X53957Y-41342D01*
X53899Y-41428D01*
X53842Y-41485D01*
X53785Y-41514D01*
X54814Y-41314D02*
X54300Y-42085D01*
X55328Y-41942D02*
X54985Y-41942D01*
X55157Y-41942D02*
X55157Y-41342D01*
X55099Y-41428D01*
X55042Y-41485D01*
X54985Y-41514D01*
X19039Y-38942D02*
X19382Y-38942D01*
X19135Y-39542D02*
X19210Y-38942D01*
X19507Y-39542D02*
X19557Y-39142D01*
X19582Y-38942D02*
X19550Y-38971D01*
X19575Y-39000D01*
X19607Y-38971D01*
X19582Y-38942D01*
X19575Y-39000D01*
X19757Y-39142D02*
X19985Y-39142D01*
X19867Y-38942D02*
X19803Y-39457D01*
X19825Y-39514D01*
X19878Y-39542D01*
X19935Y-39542D01*
X20221Y-39542D02*
X20167Y-39514D01*
X20146Y-39457D01*
X20210Y-38942D01*
X20682Y-39514D02*
X20621Y-39542D01*
X20507Y-39542D01*
X20453Y-39514D01*
X20432Y-39457D01*
X20460Y-39228D01*
X20496Y-39171D01*
X20557Y-39142D01*
X20671Y-39142D01*
X20725Y-39171D01*
X20746Y-39228D01*
X20739Y-39285D01*
X20446Y-39342D01*
X20971Y-39485D02*
X20996Y-39514D01*
X20964Y-39542D01*
X20939Y-39514D01*
X20971Y-39485D01*
X20964Y-39542D01*
X21010Y-39171D02*
X21035Y-39200D01*
X21003Y-39228D01*
X20978Y-39200D01*
X21010Y-39171D01*
X21003Y-39228D01*
X21946Y-39228D02*
X22028Y-39257D01*
X22053Y-39285D01*
X22075Y-39342D01*
X22064Y-39428D01*
X22028Y-39485D01*
X21996Y-39514D01*
X21935Y-39542D01*
X21707Y-39542D01*
X21782Y-38942D01*
X21982Y-38942D01*
X22035Y-38971D01*
X22060Y-39000D01*
X22082Y-39057D01*
X22075Y-39114D01*
X22039Y-39171D01*
X22007Y-39200D01*
X21946Y-39228D01*
X21746Y-39228D01*
X22496Y-38942D02*
X22610Y-38942D01*
X22664Y-38971D01*
X22714Y-39028D01*
X22728Y-39142D01*
X22703Y-39342D01*
X22660Y-39457D01*
X22596Y-39514D01*
X22535Y-39542D01*
X22421Y-39542D01*
X22367Y-39514D01*
X22317Y-39457D01*
X22303Y-39342D01*
X22328Y-39142D01*
X22371Y-39028D01*
X22435Y-38971D01*
X22496Y-38942D01*
X22928Y-39371D02*
X23214Y-39371D01*
X22850Y-39542D02*
X23125Y-38942D01*
X23250Y-39542D01*
X23792Y-39542D02*
X23628Y-39257D01*
X23450Y-39542D02*
X23525Y-38942D01*
X23753Y-38942D01*
X23807Y-38971D01*
X23832Y-39000D01*
X23853Y-39057D01*
X23842Y-39142D01*
X23807Y-39200D01*
X23775Y-39228D01*
X23714Y-39257D01*
X23485Y-39257D01*
X24050Y-39542D02*
X24125Y-38942D01*
X24267Y-38942D01*
X24350Y-38971D01*
X24400Y-39028D01*
X24421Y-39085D01*
X24435Y-39200D01*
X24425Y-39285D01*
X24382Y-39400D01*
X24346Y-39457D01*
X24282Y-39514D01*
X24192Y-39542D01*
X24050Y-39542D01*
X24682Y-39514D02*
X24678Y-39542D01*
X24642Y-39600D01*
X24610Y-39628D01*
X25392Y-39542D02*
X25467Y-38942D01*
X25696Y-38942D01*
X25749Y-38971D01*
X25775Y-39000D01*
X25796Y-39057D01*
X25785Y-39142D01*
X25750Y-39200D01*
X25717Y-39228D01*
X25657Y-39257D01*
X25428Y-39257D01*
X26342Y-39485D02*
X26310Y-39514D01*
X26221Y-39542D01*
X26164Y-39542D01*
X26082Y-39514D01*
X26032Y-39457D01*
X26010Y-39400D01*
X25996Y-39285D01*
X26007Y-39200D01*
X26050Y-39085D01*
X26085Y-39028D01*
X26149Y-38971D01*
X26239Y-38942D01*
X26296Y-38942D01*
X26378Y-38971D01*
X26403Y-39000D01*
X26625Y-39514D02*
X26621Y-39542D01*
X26585Y-39600D01*
X26553Y-39628D01*
X27325Y-38942D02*
X27667Y-38942D01*
X27421Y-39542D02*
X27496Y-38942D01*
X27792Y-39542D02*
X27867Y-38942D01*
X27832Y-39228D02*
X28175Y-39228D01*
X28135Y-39542D02*
X28210Y-38942D01*
X28610Y-38942D02*
X28725Y-38942D01*
X28778Y-38971D01*
X28828Y-39028D01*
X28842Y-39142D01*
X28817Y-39342D01*
X28774Y-39457D01*
X28710Y-39514D01*
X28650Y-39542D01*
X28535Y-39542D01*
X28482Y-39514D01*
X28432Y-39457D01*
X28417Y-39342D01*
X28442Y-39142D01*
X28485Y-39028D01*
X28549Y-38971D01*
X28610Y-38942D01*
X29039Y-38942D02*
X29382Y-38942D01*
X29135Y-39542D02*
X29210Y-38942D01*
X29507Y-39542D02*
X29582Y-38942D01*
X29849Y-39542D02*
X29635Y-39200D01*
X29924Y-38942D02*
X29539Y-39285D01*
X30296Y-38942D02*
X30410Y-38942D01*
X30464Y-38971D01*
X30514Y-39028D01*
X30528Y-39142D01*
X30503Y-39342D01*
X30460Y-39457D01*
X30396Y-39514D01*
X30335Y-39542D01*
X30221Y-39542D01*
X30167Y-39514D01*
X30117Y-39457D01*
X30103Y-39342D01*
X30128Y-39142D01*
X30171Y-39028D01*
X30235Y-38971D01*
X30296Y-38942D01*
X30735Y-39542D02*
X30810Y-38942D01*
X31078Y-39542D01*
X31153Y-38942D01*
X32010Y-38942D02*
X32124Y-38942D01*
X32178Y-38971D01*
X32228Y-39028D01*
X32242Y-39142D01*
X32217Y-39342D01*
X32174Y-39457D01*
X32110Y-39514D01*
X32049Y-39542D01*
X31935Y-39542D01*
X31882Y-39514D01*
X31832Y-39457D01*
X31817Y-39342D01*
X31842Y-39142D01*
X31885Y-39028D01*
X31949Y-38971D01*
X32010Y-38942D01*
X32467Y-38942D02*
X32792Y-39542D01*
X32867Y-38942D02*
X32392Y-39542D01*
X33328Y-39142D02*
X33278Y-39542D01*
X33214Y-38914D02*
X33017Y-39342D01*
X33389Y-39342D01*
X19242Y-36828D02*
X19042Y-36828D01*
X19042Y-37142D02*
X19042Y-36542D01*
X19328Y-36542D01*
X19557Y-37142D02*
X19557Y-36742D01*
X19557Y-36542D02*
X19528Y-36571D01*
X19557Y-36600D01*
X19585Y-36571D01*
X19557Y-36542D01*
X19557Y-36600D01*
X19928Y-37142D02*
X19871Y-37114D01*
X19842Y-37057D01*
X19842Y-36542D01*
X20385Y-37114D02*
X20328Y-37142D01*
X20214Y-37142D01*
X20157Y-37114D01*
X20128Y-37057D01*
X20128Y-36828D01*
X20157Y-36771D01*
X20214Y-36742D01*
X20328Y-36742D01*
X20385Y-36771D01*
X20414Y-36828D01*
X20414Y-36885D01*
X20128Y-36942D01*
X20671Y-37085D02*
X20700Y-37114D01*
X20671Y-37142D01*
X20642Y-37114D01*
X20671Y-37085D01*
X20671Y-37142D01*
X20671Y-36771D02*
X20700Y-36800D01*
X20671Y-36828D01*
X20642Y-36800D01*
X20671Y-36771D01*
X20671Y-36828D01*
X21328Y-36742D02*
X21557Y-36742D01*
X21414Y-36542D02*
X21414Y-37057D01*
X21442Y-37114D01*
X21500Y-37142D01*
X21557Y-37142D01*
X21757Y-37142D02*
X21757Y-36542D01*
X22014Y-37142D02*
X22014Y-36828D01*
X21985Y-36771D01*
X21928Y-36742D01*
X21842Y-36742D01*
X21785Y-36771D01*
X21757Y-36800D01*
X22385Y-37142D02*
X22328Y-37114D01*
X22300Y-37085D01*
X22271Y-37028D01*
X22271Y-36857D01*
X22300Y-36800D01*
X22328Y-36771D01*
X22385Y-36742D01*
X22471Y-36742D01*
X22528Y-36771D01*
X22557Y-36800D01*
X22585Y-36857D01*
X22585Y-37028D01*
X22557Y-37085D01*
X22528Y-37114D01*
X22471Y-37142D01*
X22385Y-37142D01*
X22757Y-36742D02*
X22985Y-36742D01*
X22842Y-36542D02*
X22842Y-37057D01*
X22871Y-37114D01*
X22928Y-37142D01*
X22985Y-37142D01*
X23442Y-37114D02*
X23385Y-37142D01*
X23271Y-37142D01*
X23214Y-37114D01*
X23185Y-37085D01*
X23157Y-37028D01*
X23157Y-36857D01*
X23185Y-36800D01*
X23214Y-36771D01*
X23271Y-36742D01*
X23385Y-36742D01*
X23442Y-36771D01*
X23785Y-37142D02*
X23728Y-37114D01*
X23700Y-37085D01*
X23671Y-37028D01*
X23671Y-36857D01*
X23700Y-36800D01*
X23728Y-36771D01*
X23785Y-36742D01*
X23871Y-36742D01*
X23928Y-36771D01*
X23957Y-36800D01*
X23985Y-36857D01*
X23985Y-37028D01*
X23957Y-37085D01*
X23928Y-37114D01*
X23871Y-37142D01*
X23785Y-37142D01*
X24242Y-36742D02*
X24242Y-37142D01*
X24242Y-36800D02*
X24271Y-36771D01*
X24328Y-36742D01*
X24414Y-36742D01*
X24471Y-36771D01*
X24500Y-36828D01*
X24500Y-37142D01*
X24642Y-37200D02*
X25100Y-37200D01*
X25242Y-37142D02*
X25242Y-36542D01*
X25242Y-36771D02*
X25300Y-36742D01*
X25414Y-36742D01*
X25471Y-36771D01*
X25500Y-36800D01*
X25528Y-36857D01*
X25528Y-37028D01*
X25500Y-37085D01*
X25471Y-37114D01*
X25414Y-37142D01*
X25300Y-37142D01*
X25242Y-37114D01*
X26042Y-37142D02*
X26042Y-36828D01*
X26014Y-36771D01*
X25957Y-36742D01*
X25842Y-36742D01*
X25785Y-36771D01*
X26042Y-37114D02*
X25985Y-37142D01*
X25842Y-37142D01*
X25785Y-37114D01*
X25757Y-37057D01*
X25757Y-37000D01*
X25785Y-36942D01*
X25842Y-36914D01*
X25985Y-36914D01*
X26042Y-36885D01*
X26585Y-37142D02*
X26585Y-36542D01*
X26585Y-37114D02*
X26528Y-37142D01*
X26414Y-37142D01*
X26357Y-37114D01*
X26328Y-37085D01*
X26300Y-37028D01*
X26300Y-36857D01*
X26328Y-36800D01*
X26357Y-36771D01*
X26414Y-36742D01*
X26528Y-36742D01*
X26585Y-36771D01*
X27128Y-36742D02*
X27128Y-37228D01*
X27100Y-37285D01*
X27071Y-37314D01*
X27014Y-37342D01*
X26928Y-37342D01*
X26871Y-37314D01*
X27128Y-37114D02*
X27071Y-37142D01*
X26957Y-37142D01*
X26900Y-37114D01*
X26871Y-37085D01*
X26842Y-37028D01*
X26842Y-36857D01*
X26871Y-36800D01*
X26900Y-36771D01*
X26957Y-36742D01*
X27071Y-36742D01*
X27128Y-36771D01*
X27642Y-37114D02*
X27585Y-37142D01*
X27471Y-37142D01*
X27414Y-37114D01*
X27385Y-37057D01*
X27385Y-36828D01*
X27414Y-36771D01*
X27471Y-36742D01*
X27585Y-36742D01*
X27642Y-36771D01*
X27671Y-36828D01*
X27671Y-36885D01*
X27385Y-36942D01*
X27785Y-37200D02*
X28242Y-37200D01*
X28328Y-36742D02*
X28642Y-36742D01*
X28328Y-37142D01*
X28642Y-37142D01*
X28871Y-37142D02*
X28871Y-36742D01*
X28871Y-36542D02*
X28842Y-36571D01*
X28871Y-36600D01*
X28900Y-36571D01*
X28871Y-36542D01*
X28871Y-36600D01*
X29414Y-36742D02*
X29414Y-37228D01*
X29385Y-37285D01*
X29357Y-37314D01*
X29299Y-37342D01*
X29214Y-37342D01*
X29157Y-37314D01*
X29414Y-37114D02*
X29357Y-37142D01*
X29242Y-37142D01*
X29185Y-37114D01*
X29157Y-37085D01*
X29128Y-37028D01*
X29128Y-36857D01*
X29157Y-36800D01*
X29185Y-36771D01*
X29242Y-36742D01*
X29357Y-36742D01*
X29414Y-36771D01*
X29699Y-37085D02*
X29728Y-37114D01*
X29699Y-37142D01*
X29671Y-37114D01*
X29699Y-37085D01*
X29699Y-37142D01*
X29985Y-37142D02*
X29985Y-36542D01*
X29985Y-36771D02*
X30042Y-36742D01*
X30157Y-36742D01*
X30214Y-36771D01*
X30242Y-36800D01*
X30271Y-36857D01*
X30271Y-37028D01*
X30242Y-37085D01*
X30214Y-37114D01*
X30157Y-37142D01*
X30042Y-37142D01*
X29985Y-37114D01*
X30528Y-37142D02*
X30528Y-36742D01*
X30528Y-36857D02*
X30557Y-36800D01*
X30585Y-36771D01*
X30642Y-36742D01*
X30699Y-36742D01*
X31157Y-37142D02*
X31157Y-36542D01*
X31157Y-37114D02*
X31099Y-37142D01*
X30985Y-37142D01*
X30928Y-37114D01*
X30899Y-37085D01*
X30871Y-37028D01*
X30871Y-36857D01*
X30899Y-36800D01*
X30928Y-36771D01*
X30985Y-36742D01*
X31099Y-36742D01*
X31157Y-36771D01*
X19014Y-38314D02*
X19100Y-38342D01*
X19242Y-38342D01*
X19300Y-38314D01*
X19328Y-38285D01*
X19357Y-38228D01*
X19357Y-38171D01*
X19328Y-38114D01*
X19300Y-38085D01*
X19242Y-38057D01*
X19128Y-38028D01*
X19071Y-38000D01*
X19042Y-37971D01*
X19014Y-37914D01*
X19014Y-37857D01*
X19042Y-37800D01*
X19071Y-37771D01*
X19128Y-37742D01*
X19271Y-37742D01*
X19357Y-37771D01*
X19614Y-38342D02*
X19614Y-37742D01*
X19871Y-38342D02*
X19871Y-38028D01*
X19842Y-37971D01*
X19785Y-37942D01*
X19700Y-37942D01*
X19642Y-37971D01*
X19614Y-38000D01*
X20385Y-38314D02*
X20328Y-38342D01*
X20214Y-38342D01*
X20157Y-38314D01*
X20128Y-38257D01*
X20128Y-38028D01*
X20157Y-37971D01*
X20214Y-37942D01*
X20328Y-37942D01*
X20385Y-37971D01*
X20414Y-38028D01*
X20414Y-38085D01*
X20128Y-38142D01*
X20900Y-38314D02*
X20842Y-38342D01*
X20728Y-38342D01*
X20671Y-38314D01*
X20642Y-38257D01*
X20642Y-38028D01*
X20671Y-37971D01*
X20728Y-37942D01*
X20842Y-37942D01*
X20900Y-37971D01*
X20928Y-38028D01*
X20928Y-38085D01*
X20642Y-38142D01*
X21100Y-37942D02*
X21328Y-37942D01*
X21185Y-37742D02*
X21185Y-38257D01*
X21214Y-38314D01*
X21271Y-38342D01*
X21328Y-38342D01*
X21528Y-38285D02*
X21557Y-38314D01*
X21528Y-38342D01*
X21500Y-38314D01*
X21528Y-38285D01*
X21528Y-38342D01*
X21528Y-37971D02*
X21557Y-38000D01*
X21528Y-38028D01*
X21500Y-38000D01*
X21528Y-37971D01*
X21528Y-38028D01*
X19067Y-35342D02*
X19135Y-35942D01*
X19303Y-35514D01*
X19364Y-35942D01*
X19582Y-35342D01*
X19821Y-35942D02*
X19767Y-35914D01*
X19742Y-35885D01*
X19721Y-35828D01*
X19742Y-35657D01*
X19778Y-35600D01*
X19810Y-35571D01*
X19871Y-35542D01*
X19957Y-35542D01*
X20010Y-35571D01*
X20035Y-35600D01*
X20057Y-35657D01*
X20035Y-35828D01*
X20000Y-35885D01*
X19967Y-35914D01*
X19907Y-35942D01*
X19821Y-35942D01*
X20278Y-35942D02*
X20328Y-35542D01*
X20314Y-35657D02*
X20350Y-35600D01*
X20382Y-35571D01*
X20442Y-35542D01*
X20500Y-35542D01*
X20650Y-35942D02*
X20725Y-35342D01*
X20735Y-35714D02*
X20878Y-35942D01*
X20928Y-35542D02*
X20671Y-35771D01*
X21110Y-35914D02*
X21164Y-35942D01*
X21278Y-35942D01*
X21339Y-35914D01*
X21375Y-35857D01*
X21378Y-35828D01*
X21357Y-35771D01*
X21303Y-35742D01*
X21217Y-35742D01*
X21164Y-35714D01*
X21142Y-35657D01*
X21146Y-35628D01*
X21182Y-35571D01*
X21242Y-35542D01*
X21328Y-35542D01*
X21382Y-35571D01*
X21621Y-35942D02*
X21696Y-35342D01*
X21878Y-35942D02*
X21917Y-35628D01*
X21896Y-35571D01*
X21842Y-35542D01*
X21757Y-35542D01*
X21696Y-35571D01*
X21664Y-35600D01*
X22249Y-35942D02*
X22196Y-35914D01*
X22171Y-35885D01*
X22150Y-35828D01*
X22171Y-35657D01*
X22207Y-35600D01*
X22239Y-35571D01*
X22299Y-35542D01*
X22385Y-35542D01*
X22439Y-35571D01*
X22464Y-35600D01*
X22485Y-35657D01*
X22464Y-35828D01*
X22428Y-35885D01*
X22396Y-35914D01*
X22335Y-35942D01*
X22249Y-35942D01*
X22757Y-35542D02*
X22682Y-36142D01*
X22753Y-35571D02*
X22814Y-35542D01*
X22928Y-35542D01*
X22982Y-35571D01*
X23007Y-35600D01*
X23028Y-35657D01*
X23007Y-35828D01*
X22971Y-35885D01*
X22939Y-35914D01*
X22878Y-35942D01*
X22764Y-35942D01*
X22710Y-35914D01*
X23835Y-35600D02*
X23782Y-35571D01*
X23757Y-35542D01*
X23735Y-35485D01*
X23739Y-35457D01*
X23774Y-35400D01*
X23807Y-35371D01*
X23867Y-35342D01*
X23982Y-35342D01*
X24035Y-35371D01*
X24060Y-35400D01*
X24082Y-35457D01*
X24078Y-35485D01*
X24042Y-35542D01*
X24010Y-35571D01*
X23949Y-35600D01*
X23835Y-35600D01*
X23775Y-35628D01*
X23742Y-35657D01*
X23707Y-35714D01*
X23692Y-35828D01*
X23714Y-35885D01*
X23739Y-35914D01*
X23792Y-35942D01*
X23907Y-35942D01*
X23967Y-35914D01*
X23999Y-35885D01*
X24035Y-35828D01*
X24049Y-35714D01*
X24028Y-35657D01*
X24003Y-35628D01*
X23949Y-35600D01*
X24407Y-35600D02*
X24353Y-35571D01*
X24328Y-35542D01*
X24307Y-35485D01*
X24310Y-35457D01*
X24346Y-35400D01*
X24378Y-35371D01*
X24439Y-35342D01*
X24553Y-35342D01*
X24607Y-35371D01*
X24632Y-35400D01*
X24653Y-35457D01*
X24650Y-35485D01*
X24614Y-35542D01*
X24582Y-35571D01*
X24521Y-35600D01*
X24407Y-35600D01*
X24346Y-35628D01*
X24314Y-35657D01*
X24278Y-35714D01*
X24264Y-35828D01*
X24285Y-35885D01*
X24310Y-35914D01*
X24364Y-35942D01*
X24478Y-35942D01*
X24539Y-35914D01*
X24571Y-35885D01*
X24607Y-35828D01*
X24621Y-35714D01*
X24599Y-35657D01*
X24575Y-35628D01*
X24521Y-35600D01*
X19042Y-34742D02*
X19042Y-34142D01*
X19185Y-34142D01*
X19271Y-34171D01*
X19328Y-34228D01*
X19357Y-34285D01*
X19385Y-34400D01*
X19385Y-34485D01*
X19357Y-34600D01*
X19328Y-34657D01*
X19271Y-34714D01*
X19185Y-34742D01*
X19042Y-34742D01*
X19642Y-34742D02*
X19642Y-34342D01*
X19642Y-34457D02*
X19671Y-34400D01*
X19700Y-34371D01*
X19757Y-34342D01*
X19814Y-34342D01*
X20271Y-34742D02*
X20271Y-34428D01*
X20242Y-34371D01*
X20185Y-34342D01*
X20071Y-34342D01*
X20014Y-34371D01*
X20271Y-34714D02*
X20214Y-34742D01*
X20071Y-34742D01*
X20014Y-34714D01*
X19985Y-34657D01*
X19985Y-34600D01*
X20014Y-34542D01*
X20071Y-34514D01*
X20214Y-34514D01*
X20271Y-34485D01*
X20500Y-34342D02*
X20614Y-34742D01*
X20728Y-34457D01*
X20842Y-34742D01*
X20957Y-34342D01*
X21185Y-34342D02*
X21185Y-34742D01*
X21185Y-34400D02*
X21214Y-34371D01*
X21271Y-34342D01*
X21357Y-34342D01*
X21414Y-34371D01*
X21442Y-34428D01*
X21442Y-34742D01*
X21728Y-34685D02*
X21757Y-34714D01*
X21728Y-34742D01*
X21700Y-34714D01*
X21728Y-34685D01*
X21728Y-34742D01*
X21728Y-34371D02*
X21757Y-34400D01*
X21728Y-34428D01*
X21700Y-34400D01*
X21728Y-34371D01*
X21728Y-34428D01*
X22471Y-34742D02*
X22471Y-34142D01*
X22700Y-34142D01*
X22757Y-34171D01*
X22785Y-34200D01*
X22814Y-34257D01*
X22814Y-34342D01*
X22785Y-34400D01*
X22757Y-34428D01*
X22700Y-34457D01*
X22471Y-34457D01*
X23328Y-34742D02*
X23328Y-34428D01*
X23300Y-34371D01*
X23242Y-34342D01*
X23128Y-34342D01*
X23071Y-34371D01*
X23328Y-34714D02*
X23271Y-34742D01*
X23128Y-34742D01*
X23071Y-34714D01*
X23042Y-34657D01*
X23042Y-34600D01*
X23071Y-34542D01*
X23128Y-34514D01*
X23271Y-34514D01*
X23328Y-34485D01*
X23871Y-34342D02*
X23871Y-34742D01*
X23614Y-34342D02*
X23614Y-34657D01*
X23642Y-34714D01*
X23699Y-34742D01*
X23785Y-34742D01*
X23842Y-34714D01*
X23871Y-34685D01*
X24242Y-34742D02*
X24185Y-34714D01*
X24157Y-34657D01*
X24157Y-34142D01*
X25271Y-34742D02*
X25071Y-34457D01*
X24928Y-34742D02*
X24928Y-34142D01*
X25157Y-34142D01*
X25214Y-34171D01*
X25242Y-34200D01*
X25271Y-34257D01*
X25271Y-34342D01*
X25242Y-34400D01*
X25214Y-34428D01*
X25157Y-34457D01*
X24928Y-34457D01*
X25757Y-34714D02*
X25700Y-34742D01*
X25585Y-34742D01*
X25528Y-34714D01*
X25500Y-34657D01*
X25500Y-34428D01*
X25528Y-34371D01*
X25585Y-34342D01*
X25700Y-34342D01*
X25757Y-34371D01*
X25785Y-34428D01*
X25785Y-34485D01*
X25500Y-34542D01*
X26042Y-34742D02*
X26042Y-34342D01*
X26042Y-34142D02*
X26014Y-34171D01*
X26042Y-34200D01*
X26071Y-34171D01*
X26042Y-34142D01*
X26042Y-34200D01*
X26585Y-34714D02*
X26528Y-34742D01*
X26414Y-34742D01*
X26357Y-34714D01*
X26328Y-34685D01*
X26300Y-34628D01*
X26300Y-34457D01*
X26328Y-34400D01*
X26357Y-34371D01*
X26414Y-34342D01*
X26528Y-34342D01*
X26585Y-34371D01*
X26842Y-34742D02*
X26842Y-34142D01*
X27100Y-34742D02*
X27100Y-34428D01*
X27071Y-34371D01*
X27014Y-34342D01*
X26928Y-34342D01*
X26871Y-34371D01*
X26842Y-34400D01*
X19042Y-33542D02*
X19042Y-32942D01*
X19185Y-32942D01*
X19271Y-32971D01*
X19328Y-33028D01*
X19357Y-33085D01*
X19385Y-33200D01*
X19385Y-33285D01*
X19357Y-33400D01*
X19328Y-33457D01*
X19271Y-33514D01*
X19185Y-33542D01*
X19042Y-33542D01*
X19871Y-33514D02*
X19814Y-33542D01*
X19700Y-33542D01*
X19642Y-33514D01*
X19614Y-33457D01*
X19614Y-33228D01*
X19642Y-33171D01*
X19700Y-33142D01*
X19814Y-33142D01*
X19871Y-33171D01*
X19900Y-33228D01*
X19900Y-33285D01*
X19614Y-33342D01*
X20128Y-33514D02*
X20185Y-33542D01*
X20300Y-33542D01*
X20357Y-33514D01*
X20385Y-33457D01*
X20385Y-33428D01*
X20357Y-33371D01*
X20300Y-33342D01*
X20214Y-33342D01*
X20157Y-33314D01*
X20128Y-33257D01*
X20128Y-33228D01*
X20157Y-33171D01*
X20214Y-33142D01*
X20300Y-33142D01*
X20357Y-33171D01*
X20642Y-33542D02*
X20642Y-33142D01*
X20642Y-32942D02*
X20614Y-32971D01*
X20642Y-33000D01*
X20671Y-32971D01*
X20642Y-32942D01*
X20642Y-33000D01*
X21185Y-33142D02*
X21185Y-33628D01*
X21157Y-33685D01*
X21128Y-33714D01*
X21071Y-33742D01*
X20985Y-33742D01*
X20928Y-33714D01*
X21185Y-33514D02*
X21128Y-33542D01*
X21014Y-33542D01*
X20957Y-33514D01*
X20928Y-33485D01*
X20900Y-33428D01*
X20900Y-33257D01*
X20928Y-33200D01*
X20957Y-33171D01*
X21014Y-33142D01*
X21128Y-33142D01*
X21185Y-33171D01*
X21471Y-33142D02*
X21471Y-33542D01*
X21471Y-33200D02*
X21500Y-33171D01*
X21557Y-33142D01*
X21642Y-33142D01*
X21700Y-33171D01*
X21728Y-33228D01*
X21728Y-33542D01*
X22242Y-33514D02*
X22185Y-33542D01*
X22071Y-33542D01*
X22014Y-33514D01*
X21985Y-33457D01*
X21985Y-33228D01*
X22014Y-33171D01*
X22071Y-33142D01*
X22185Y-33142D01*
X22242Y-33171D01*
X22271Y-33228D01*
X22271Y-33285D01*
X21985Y-33342D01*
X22785Y-33542D02*
X22785Y-32942D01*
X22785Y-33514D02*
X22728Y-33542D01*
X22614Y-33542D01*
X22557Y-33514D01*
X22528Y-33485D01*
X22500Y-33428D01*
X22500Y-33257D01*
X22528Y-33200D01*
X22557Y-33171D01*
X22614Y-33142D01*
X22728Y-33142D01*
X22785Y-33171D01*
X23071Y-33485D02*
X23100Y-33514D01*
X23071Y-33542D01*
X23042Y-33514D01*
X23071Y-33485D01*
X23071Y-33542D01*
X23071Y-33171D02*
X23100Y-33200D01*
X23071Y-33228D01*
X23042Y-33200D01*
X23071Y-33171D01*
X23071Y-33228D01*
X23814Y-33542D02*
X23814Y-32942D01*
X24042Y-32942D01*
X24099Y-32971D01*
X24128Y-33000D01*
X24157Y-33057D01*
X24157Y-33142D01*
X24128Y-33200D01*
X24099Y-33228D01*
X24042Y-33257D01*
X23814Y-33257D01*
X24671Y-33542D02*
X24671Y-33228D01*
X24642Y-33171D01*
X24585Y-33142D01*
X24471Y-33142D01*
X24414Y-33171D01*
X24671Y-33514D02*
X24614Y-33542D01*
X24471Y-33542D01*
X24414Y-33514D01*
X24385Y-33457D01*
X24385Y-33400D01*
X24414Y-33342D01*
X24471Y-33314D01*
X24614Y-33314D01*
X24671Y-33285D01*
X25214Y-33142D02*
X25214Y-33542D01*
X24957Y-33142D02*
X24957Y-33457D01*
X24985Y-33514D01*
X25042Y-33542D01*
X25128Y-33542D01*
X25185Y-33514D01*
X25214Y-33485D01*
X25585Y-33542D02*
X25528Y-33514D01*
X25499Y-33457D01*
X25499Y-32942D01*
X26614Y-33542D02*
X26414Y-33257D01*
X26271Y-33542D02*
X26271Y-32942D01*
X26500Y-32942D01*
X26557Y-32971D01*
X26585Y-33000D01*
X26614Y-33057D01*
X26614Y-33142D01*
X26585Y-33200D01*
X26557Y-33228D01*
X26500Y-33257D01*
X26271Y-33257D01*
X27100Y-33514D02*
X27042Y-33542D01*
X26928Y-33542D01*
X26871Y-33514D01*
X26842Y-33457D01*
X26842Y-33228D01*
X26871Y-33171D01*
X26928Y-33142D01*
X27042Y-33142D01*
X27100Y-33171D01*
X27128Y-33228D01*
X27128Y-33285D01*
X26842Y-33342D01*
X27385Y-33542D02*
X27385Y-33142D01*
X27385Y-32942D02*
X27357Y-32971D01*
X27385Y-33000D01*
X27414Y-32971D01*
X27385Y-32942D01*
X27385Y-33000D01*
X27928Y-33514D02*
X27871Y-33542D01*
X27757Y-33542D01*
X27700Y-33514D01*
X27671Y-33485D01*
X27642Y-33428D01*
X27642Y-33257D01*
X27671Y-33200D01*
X27700Y-33171D01*
X27757Y-33142D01*
X27871Y-33142D01*
X27928Y-33171D01*
X28185Y-33542D02*
X28185Y-32942D01*
X28442Y-33542D02*
X28442Y-33228D01*
X28414Y-33171D01*
X28357Y-33142D01*
X28271Y-33142D01*
X28214Y-33171D01*
X28185Y-33200D01*
X19042Y-32342D02*
X19042Y-31742D01*
X19271Y-31742D01*
X19328Y-31771D01*
X19357Y-31800D01*
X19385Y-31857D01*
X19385Y-31942D01*
X19357Y-32000D01*
X19328Y-32028D01*
X19271Y-32057D01*
X19042Y-32057D01*
X19642Y-32342D02*
X19642Y-31942D01*
X19642Y-32057D02*
X19671Y-32000D01*
X19700Y-31971D01*
X19757Y-31942D01*
X19814Y-31942D01*
X20100Y-32342D02*
X20042Y-32314D01*
X20014Y-32285D01*
X19985Y-32228D01*
X19985Y-32057D01*
X20014Y-32000D01*
X20042Y-31971D01*
X20100Y-31942D01*
X20185Y-31942D01*
X20242Y-31971D01*
X20271Y-32000D01*
X20300Y-32057D01*
X20300Y-32228D01*
X20271Y-32285D01*
X20242Y-32314D01*
X20185Y-32342D01*
X20100Y-32342D01*
X20557Y-31942D02*
X20557Y-32457D01*
X20528Y-32514D01*
X20471Y-32542D01*
X20442Y-32542D01*
X20557Y-31742D02*
X20528Y-31771D01*
X20557Y-31800D01*
X20585Y-31771D01*
X20557Y-31742D01*
X20557Y-31800D01*
X21071Y-32314D02*
X21014Y-32342D01*
X20900Y-32342D01*
X20842Y-32314D01*
X20814Y-32257D01*
X20814Y-32028D01*
X20842Y-31971D01*
X20900Y-31942D01*
X21014Y-31942D01*
X21071Y-31971D01*
X21100Y-32028D01*
X21100Y-32085D01*
X20814Y-32142D01*
X21614Y-32314D02*
X21557Y-32342D01*
X21442Y-32342D01*
X21385Y-32314D01*
X21357Y-32285D01*
X21328Y-32228D01*
X21328Y-32057D01*
X21357Y-32000D01*
X21385Y-31971D01*
X21442Y-31942D01*
X21557Y-31942D01*
X21614Y-31971D01*
X21785Y-31942D02*
X22014Y-31942D01*
X21871Y-31742D02*
X21871Y-32257D01*
X21900Y-32314D01*
X21957Y-32342D01*
X22014Y-32342D01*
X22671Y-32342D02*
X22671Y-31742D01*
X22871Y-32171D01*
X23071Y-31742D01*
X23071Y-32342D01*
X23614Y-31942D02*
X23614Y-32428D01*
X23585Y-32485D01*
X23557Y-32514D01*
X23500Y-32542D01*
X23414Y-32542D01*
X23357Y-32514D01*
X23614Y-32314D02*
X23557Y-32342D01*
X23442Y-32342D01*
X23385Y-32314D01*
X23357Y-32285D01*
X23328Y-32228D01*
X23328Y-32057D01*
X23357Y-32000D01*
X23385Y-31971D01*
X23442Y-31942D01*
X23557Y-31942D01*
X23614Y-31971D01*
X23900Y-32342D02*
X23900Y-31942D01*
X23900Y-32057D02*
X23928Y-32000D01*
X23957Y-31971D01*
X24014Y-31942D01*
X24071Y-31942D01*
X24271Y-32285D02*
X24300Y-32314D01*
X24271Y-32342D01*
X24242Y-32314D01*
X24271Y-32285D01*
X24271Y-32342D01*
X24271Y-31971D02*
X24300Y-32000D01*
X24271Y-32028D01*
X24242Y-32000D01*
X24271Y-31971D01*
X24271Y-32028D01*
X25357Y-32342D02*
X25157Y-32057D01*
X25014Y-32342D02*
X25014Y-31742D01*
X25242Y-31742D01*
X25300Y-31771D01*
X25328Y-31800D01*
X25357Y-31857D01*
X25357Y-31942D01*
X25328Y-32000D01*
X25300Y-32028D01*
X25242Y-32057D01*
X25014Y-32057D01*
X25614Y-32285D02*
X25642Y-32314D01*
X25614Y-32342D01*
X25585Y-32314D01*
X25614Y-32285D01*
X25614Y-32342D01*
X26700Y-32342D02*
X26500Y-32057D01*
X26357Y-32342D02*
X26357Y-31742D01*
X26585Y-31742D01*
X26642Y-31771D01*
X26671Y-31800D01*
X26700Y-31857D01*
X26700Y-31942D01*
X26671Y-32000D01*
X26642Y-32028D01*
X26585Y-32057D01*
X26357Y-32057D01*
X26957Y-32342D02*
X26957Y-31942D01*
X26957Y-31742D02*
X26928Y-31771D01*
X26957Y-31800D01*
X26985Y-31771D01*
X26957Y-31742D01*
X26957Y-31800D01*
X27214Y-32314D02*
X27271Y-32342D01*
X27385Y-32342D01*
X27442Y-32314D01*
X27471Y-32257D01*
X27471Y-32228D01*
X27442Y-32171D01*
X27385Y-32142D01*
X27300Y-32142D01*
X27242Y-32114D01*
X27214Y-32057D01*
X27214Y-32028D01*
X27242Y-31971D01*
X27300Y-31942D01*
X27385Y-31942D01*
X27442Y-31971D01*
X27642Y-31942D02*
X27871Y-31942D01*
X27728Y-31742D02*
X27728Y-32257D01*
X27757Y-32314D01*
X27814Y-32342D01*
X27871Y-32342D01*
X28071Y-32342D02*
X28071Y-31942D01*
X28071Y-31742D02*
X28042Y-31771D01*
X28071Y-31800D01*
X28100Y-31771D01*
X28071Y-31742D01*
X28071Y-31800D01*
X28614Y-32314D02*
X28557Y-32342D01*
X28442Y-32342D01*
X28385Y-32314D01*
X28357Y-32285D01*
X28328Y-32228D01*
X28328Y-32057D01*
X28357Y-32000D01*
X28385Y-31971D01*
X28442Y-31942D01*
X28557Y-31942D01*
X28614Y-31971D01*
X28871Y-32342D02*
X28871Y-31742D01*
X29128Y-32342D02*
X29128Y-32028D01*
X29100Y-31971D01*
X29042Y-31942D01*
X28957Y-31942D01*
X28900Y-31971D01*
X28871Y-32000D01*
X19328Y-31142D02*
X19042Y-31142D01*
X19042Y-30542D01*
X19528Y-31142D02*
X19528Y-30542D01*
X20157Y-31085D02*
X20128Y-31114D01*
X20042Y-31142D01*
X19985Y-31142D01*
X19899Y-31114D01*
X19842Y-31057D01*
X19814Y-31000D01*
X19785Y-30885D01*
X19785Y-30800D01*
X19814Y-30685D01*
X19842Y-30628D01*
X19899Y-30571D01*
X19985Y-30542D01*
X20042Y-30542D01*
X20128Y-30571D01*
X20157Y-30600D01*
X20414Y-30828D02*
X20614Y-30828D01*
X20699Y-31142D02*
X20414Y-31142D01*
X20414Y-30542D01*
X20699Y-30542D01*
X20957Y-31142D02*
X20957Y-30542D01*
X21299Y-31142D01*
X21299Y-30542D01*
X21557Y-31114D02*
X21642Y-31142D01*
X21785Y-31142D01*
X21842Y-31114D01*
X21871Y-31085D01*
X21899Y-31028D01*
X21899Y-30971D01*
X21871Y-30914D01*
X21842Y-30885D01*
X21785Y-30857D01*
X21671Y-30828D01*
X21614Y-30800D01*
X21585Y-30771D01*
X21557Y-30714D01*
X21557Y-30657D01*
X21585Y-30600D01*
X21614Y-30571D01*
X21671Y-30542D01*
X21814Y-30542D01*
X21899Y-30571D01*
X22157Y-30828D02*
X22357Y-30828D01*
X22442Y-31142D02*
X22157Y-31142D01*
X22157Y-30542D01*
X22442Y-30542D01*
X22699Y-31085D02*
X22728Y-31114D01*
X22699Y-31142D01*
X22671Y-31114D01*
X22699Y-31085D01*
X22699Y-31142D01*
X22699Y-30771D02*
X22728Y-30800D01*
X22699Y-30828D01*
X22671Y-30800D01*
X22699Y-30771D01*
X22699Y-30828D01*
X23785Y-31085D02*
X23757Y-31114D01*
X23671Y-31142D01*
X23614Y-31142D01*
X23528Y-31114D01*
X23471Y-31057D01*
X23442Y-31000D01*
X23414Y-30885D01*
X23414Y-30800D01*
X23442Y-30685D01*
X23471Y-30628D01*
X23528Y-30571D01*
X23614Y-30542D01*
X23671Y-30542D01*
X23757Y-30571D01*
X23785Y-30600D01*
X24385Y-31085D02*
X24357Y-31114D01*
X24271Y-31142D01*
X24214Y-31142D01*
X24128Y-31114D01*
X24071Y-31057D01*
X24042Y-31000D01*
X24014Y-30885D01*
X24014Y-30800D01*
X24042Y-30685D01*
X24071Y-30628D01*
X24128Y-30571D01*
X24214Y-30542D01*
X24271Y-30542D01*
X24357Y-30571D01*
X24385Y-30600D01*
X24642Y-30914D02*
X25099Y-30914D01*
X25585Y-30828D02*
X25671Y-30857D01*
X25699Y-30885D01*
X25728Y-30942D01*
X25728Y-31028D01*
X25699Y-31085D01*
X25671Y-31114D01*
X25614Y-31142D01*
X25385Y-31142D01*
X25385Y-30542D01*
X25585Y-30542D01*
X25642Y-30571D01*
X25671Y-30600D01*
X25699Y-30657D01*
X25699Y-30714D01*
X25671Y-30771D01*
X25642Y-30800D01*
X25585Y-30828D01*
X25385Y-30828D01*
X26099Y-30857D02*
X26099Y-31142D01*
X25899Y-30542D02*
X26099Y-30857D01*
X26299Y-30542D01*
X26499Y-30914D02*
X26957Y-30914D01*
X27214Y-31114D02*
X27299Y-31142D01*
X27442Y-31142D01*
X27499Y-31114D01*
X27528Y-31085D01*
X27557Y-31028D01*
X27557Y-30971D01*
X27528Y-30914D01*
X27499Y-30885D01*
X27442Y-30857D01*
X27328Y-30828D01*
X27271Y-30800D01*
X27242Y-30771D01*
X27214Y-30714D01*
X27214Y-30657D01*
X27242Y-30600D01*
X27271Y-30571D01*
X27328Y-30542D01*
X27471Y-30542D01*
X27557Y-30571D01*
X27785Y-30971D02*
X28071Y-30971D01*
X27728Y-31142D02*
X27928Y-30542D01*
X28128Y-31142D01*
X28328Y-30914D02*
X28785Y-30914D01*
X29014Y-30542D02*
X29385Y-30542D01*
X29185Y-30771D01*
X29271Y-30771D01*
X29328Y-30800D01*
X29357Y-30828D01*
X29385Y-30885D01*
X29385Y-31028D01*
X29357Y-31085D01*
X29328Y-31114D01*
X29271Y-31142D01*
X29100Y-31142D01*
X29042Y-31114D01*
X29014Y-31085D01*
X29642Y-31085D02*
X29671Y-31114D01*
X29642Y-31142D01*
X29614Y-31114D01*
X29642Y-31085D01*
X29642Y-31142D01*
X30042Y-30542D02*
X30100Y-30542D01*
X30157Y-30571D01*
X30185Y-30600D01*
X30214Y-30657D01*
X30242Y-30771D01*
X30242Y-30914D01*
X30214Y-31028D01*
X30185Y-31085D01*
X30157Y-31114D01*
X30100Y-31142D01*
X30042Y-31142D01*
X29985Y-31114D01*
X29957Y-31085D01*
X29928Y-31028D01*
X29900Y-30914D01*
X29900Y-30771D01*
X29928Y-30657D01*
X29957Y-30600D01*
X29985Y-30571D01*
X30042Y-30542D01*
X18300Y-30300D02*
X18300Y-42300D01*
X18300Y-36300D02*
X60300Y-36300D01*
X18300Y-30300D02*
X60300Y-30300D01*
X18300Y-38700D02*
X60300Y-38700D01*
X51500Y-39900D02*
X51500Y-42300D01*
X18300Y-41100D02*
X60300Y-41100D01*
X18300Y-39900D02*
X60300Y-39900D01*
X24900Y-39900D02*
X24900Y-41100D01*
G54D11*
X0Y11250D02*
X0Y13000D01*
X2500Y11250D02*
X0Y11250D01*
X2500Y13000D02*
X2500Y11250D01*
X0Y13000D02*
X2500Y13000D01*
G54D12*
X15100Y-800D02*
X13800Y-800D01*
X15100Y-1950D02*
X15100Y-800D01*
X13800Y-1950D02*
X15100Y-1950D01*
X13800Y-800D02*
X13800Y-1950D01*
G54D13*
X908Y12808D02*
X908Y12525D01*
X925Y12491D01*
X941Y12475D01*
X975Y12458D01*
X1041Y12458D01*
X1075Y12475D01*
X1091Y12491D01*
X1108Y12525D01*
X1108Y12808D01*
X1258Y12475D02*
X1308Y12458D01*
X1391Y12458D01*
X1425Y12475D01*
X1441Y12491D01*
X1458Y12525D01*
X1458Y12558D01*
X1441Y12591D01*
X1425Y12608D01*
X1391Y12625D01*
X1325Y12641D01*
X1291Y12658D01*
X1275Y12675D01*
X1258Y12708D01*
X1258Y12741D01*
X1275Y12775D01*
X1291Y12791D01*
X1325Y12808D01*
X1408Y12808D01*
X1458Y12791D01*
X1725Y12641D02*
X1775Y12625D01*
X1791Y12608D01*
X1808Y12575D01*
X1808Y12525D01*
X1791Y12491D01*
X1775Y12475D01*
X1741Y12458D01*
X1608Y12458D01*
X1608Y12808D01*
X1725Y12808D01*
X1758Y12791D01*
X1775Y12775D01*
X1791Y12741D01*
X1791Y12708D01*
X1775Y12675D01*
X1758Y12658D01*
X1725Y12641D01*
X1608Y12641D01*
G54D10*
X-1250Y6750D02*
X-1250Y-250D01*
G54D13*
X21541Y-2733D02*
X21541Y-2566D01*
X21641Y-2766D02*
X21291Y-2650D01*
X21641Y-2533D01*
X21291Y-2450D02*
X21291Y-2233D01*
X21425Y-2350D01*
X21425Y-2300D01*
X21441Y-2266D01*
X21458Y-2250D01*
X21491Y-2233D01*
X21575Y-2233D01*
X21608Y-2250D01*
X21625Y-2266D01*
X21641Y-2300D01*
X21641Y-2400D01*
X21625Y-2433D01*
X21608Y-2450D01*
X22541Y-2733D02*
X22541Y-2566D01*
X22641Y-2766D02*
X22291Y-2650D01*
X22641Y-2533D01*
X22408Y-2266D02*
X22641Y-2266D01*
X22275Y-2350D02*
X22525Y-2433D01*
X22525Y-2216D01*
G54D14*
X23000Y12200D02*
X21600Y12200D01*
X23000Y2600D02*
X23000Y12200D01*
X21600Y2600D02*
X23000Y2600D01*
X21600Y12200D02*
X21600Y2600D01*
G54D13*
X27250Y200D02*
X25650Y200D01*
X27250Y-2000D02*
X27250Y200D01*
X25650Y-2000D02*
X27250Y-2000D01*
X25650Y200D02*
X25650Y-2000D01*
G54D11*
X16200Y14700D02*
X13400Y14700D01*
X16200Y13500D02*
X16200Y14700D01*
X13400Y13500D02*
X16200Y13500D01*
X13400Y14700D02*
X13400Y13500D01*
G54D13*
X13783Y13658D02*
X13666Y13825D01*
X13583Y13658D02*
X13583Y14008D01*
X13716Y14008D01*
X13750Y13991D01*
X13766Y13975D01*
X13783Y13941D01*
X13783Y13891D01*
X13766Y13858D01*
X13750Y13841D01*
X13716Y13825D01*
X13583Y13825D01*
X14116Y13658D02*
X13916Y13658D01*
X14016Y13658D02*
X14016Y14008D01*
X13983Y13958D01*
X13950Y13925D01*
X13916Y13908D01*
X14450Y13658D02*
X14250Y13658D01*
X14350Y13658D02*
X14350Y14008D01*
X14316Y13958D01*
X14283Y13925D01*
X14250Y13908D01*
X14600Y13841D02*
X14866Y13841D01*
X14866Y13741D02*
X14600Y13741D01*
X15016Y13675D02*
X15066Y13658D01*
X15150Y13658D01*
X15183Y13675D01*
X15200Y13691D01*
X15216Y13725D01*
X15216Y13758D01*
X15200Y13791D01*
X15183Y13808D01*
X15150Y13825D01*
X15083Y13841D01*
X15050Y13858D01*
X15033Y13875D01*
X15016Y13908D01*
X15016Y13941D01*
X15033Y13975D01*
X15050Y13991D01*
X15083Y14008D01*
X15166Y14008D01*
X15216Y13991D01*
X15366Y13658D02*
X15366Y14008D01*
X15500Y14008D01*
X15533Y13991D01*
X15550Y13975D01*
X15566Y13941D01*
X15566Y13891D01*
X15550Y13858D01*
X15533Y13841D01*
X15500Y13825D01*
X15366Y13825D01*
X15716Y13658D02*
X15716Y14008D01*
X8958Y11625D02*
X8958Y11741D01*
X9141Y11791D02*
X9141Y11625D01*
X8791Y11625D01*
X8791Y11791D01*
X8791Y11908D02*
X9141Y12141D01*
X8791Y12141D02*
X9141Y11908D01*
X8791Y12225D02*
X8791Y12425D01*
X9141Y12325D02*
X8791Y12325D01*
G54D10*
X4250Y17750D02*
G75*
G03X4250Y17750I-1000J0D01*
G74*
G01*
X1750Y17750D02*
X4750Y17750D01*
X3250Y19250D02*
X3250Y16250D01*
X39750Y-6000D02*
G75*
G03X39750Y-6000I-1000J0D01*
G74*
G01*
X37250Y-6000D02*
X40250Y-6000D01*
X38750Y-4500D02*
X38750Y-7500D01*
G54D14*
X14700Y13050D02*
X14750Y13100D01*
G54D15*
X21883Y2900D02*
X21883Y3333D01*
X22150Y3100D01*
X22150Y3200D01*
X22183Y3266D01*
X22216Y3300D01*
X22283Y3333D01*
X22450Y3333D01*
X22516Y3300D01*
X22550Y3266D01*
X22583Y3200D01*
X22583Y3000D01*
X22550Y2933D01*
X22516Y2900D01*
X21883Y3533D02*
X22583Y3766D01*
X21883Y4000D01*
X22550Y4733D02*
X22583Y4833D01*
X22583Y5000D01*
X22550Y5066D01*
X22516Y5100D01*
X22450Y5133D01*
X22383Y5133D01*
X22316Y5100D01*
X22283Y5066D01*
X22250Y5000D01*
X22216Y4866D01*
X22183Y4800D01*
X22150Y4766D01*
X22083Y4733D01*
X22016Y4733D01*
X21950Y4766D01*
X21916Y4800D01*
X21883Y4866D01*
X21883Y5033D01*
X21916Y5133D01*
X22583Y5433D02*
X21883Y5433D01*
X22216Y5433D02*
X22216Y5833D01*
X22583Y5833D02*
X21883Y5833D01*
X22583Y6166D02*
X21883Y6166D01*
X22216Y6500D02*
X22216Y6733D01*
X22583Y6833D02*
X22583Y6500D01*
X21883Y6500D01*
X21883Y6833D01*
X22583Y7466D02*
X22583Y7133D01*
X21883Y7133D01*
X22583Y7700D02*
X21883Y7700D01*
X21883Y7866D01*
X21916Y7966D01*
X21983Y8033D01*
X22050Y8066D01*
X22183Y8100D01*
X22283Y8100D01*
X22416Y8066D01*
X22483Y8033D01*
X22550Y7966D01*
X22583Y7866D01*
X22583Y7700D01*
X22550Y8366D02*
X22583Y8466D01*
X22583Y8633D01*
X22550Y8700D01*
X22516Y8733D01*
X22450Y8766D01*
X22383Y8766D01*
X22316Y8733D01*
X22283Y8700D01*
X22250Y8633D01*
X22216Y8500D01*
X22183Y8433D01*
X22150Y8400D01*
X22083Y8366D01*
X22016Y8366D01*
X21950Y8400D01*
X21916Y8433D01*
X21883Y8500D01*
X21883Y8666D01*
X21916Y8766D01*
X21883Y9733D02*
X21883Y9866D01*
X21916Y9933D01*
X21983Y10000D01*
X22116Y10033D01*
X22350Y10033D01*
X22483Y10000D01*
X22550Y9933D01*
X22583Y9866D01*
X22583Y9733D01*
X22550Y9666D01*
X22483Y9600D01*
X22350Y9566D01*
X22116Y9566D01*
X21983Y9600D01*
X21916Y9666D01*
X21883Y9733D01*
X22583Y10333D02*
X21883Y10333D01*
X22583Y10733D01*
X21883Y10733D01*
X22583Y11400D02*
X22583Y11066D01*
X21883Y11066D01*
X22250Y11766D02*
X22583Y11766D01*
X21883Y11533D02*
X22250Y11766D01*
X21883Y12000D01*
G54D13*
X13783Y14158D02*
X13666Y14325D01*
X13583Y14158D02*
X13583Y14508D01*
X13716Y14508D01*
X13750Y14491D01*
X13766Y14475D01*
X13783Y14441D01*
X13783Y14391D01*
X13766Y14358D01*
X13750Y14341D01*
X13716Y14325D01*
X13583Y14325D01*
X14116Y14158D02*
X13916Y14158D01*
X14016Y14158D02*
X14016Y14508D01*
X13983Y14458D01*
X13950Y14425D01*
X13916Y14408D01*
X14333Y14508D02*
X14366Y14508D01*
X14400Y14491D01*
X14416Y14475D01*
X14433Y14441D01*
X14450Y14375D01*
X14450Y14291D01*
X14433Y14225D01*
X14416Y14191D01*
X14400Y14175D01*
X14366Y14158D01*
X14333Y14158D01*
X14300Y14175D01*
X14283Y14191D01*
X14266Y14225D01*
X14250Y14291D01*
X14250Y14375D01*
X14266Y14441D01*
X14283Y14475D01*
X14300Y14491D01*
X14333Y14508D01*
X14600Y14341D02*
X14866Y14341D01*
X14866Y14241D02*
X14600Y14241D01*
X15033Y14158D02*
X15033Y14508D01*
X15166Y14508D01*
X15200Y14491D01*
X15216Y14475D01*
X15233Y14441D01*
X15233Y14391D01*
X15216Y14358D01*
X15200Y14341D01*
X15166Y14325D01*
X15033Y14325D01*
X15350Y14508D02*
X15433Y14158D01*
X15500Y14408D01*
X15566Y14158D01*
X15650Y14508D01*
X15783Y14158D02*
X15783Y14508D01*
X15900Y14258D01*
X16016Y14508D01*
X16016Y14158D01*
X20641Y14283D02*
X20291Y14283D01*
X20291Y14366D01*
X20308Y14416D01*
X20341Y14450D01*
X20375Y14466D01*
X20441Y14483D01*
X20491Y14483D01*
X20558Y14466D01*
X20591Y14450D01*
X20625Y14416D01*
X20641Y14366D01*
X20641Y14283D01*
X20291Y14600D02*
X20291Y14816D01*
X20425Y14700D01*
X20425Y14750D01*
X20441Y14783D01*
X20458Y14800D01*
X20491Y14816D01*
X20575Y14816D01*
X20608Y14800D01*
X20625Y14783D01*
X20641Y14750D01*
X20641Y14650D01*
X20625Y14616D01*
X20608Y14600D01*
X19641Y14283D02*
X19291Y14283D01*
X19291Y14366D01*
X19308Y14416D01*
X19341Y14450D01*
X19375Y14466D01*
X19441Y14483D01*
X19491Y14483D01*
X19558Y14466D01*
X19591Y14450D01*
X19625Y14416D01*
X19641Y14366D01*
X19641Y14283D01*
X19408Y14783D02*
X19641Y14783D01*
X19275Y14700D02*
X19525Y14616D01*
X19525Y14833D01*
X18641Y14283D02*
X18291Y14283D01*
X18291Y14366D01*
X18308Y14416D01*
X18341Y14450D01*
X18375Y14466D01*
X18441Y14483D01*
X18491Y14483D01*
X18558Y14466D01*
X18591Y14450D01*
X18625Y14416D01*
X18641Y14366D01*
X18641Y14283D01*
X18291Y14800D02*
X18291Y14633D01*
X18458Y14616D01*
X18441Y14633D01*
X18425Y14666D01*
X18425Y14750D01*
X18441Y14783D01*
X18458Y14800D01*
X18491Y14816D01*
X18575Y14816D01*
X18608Y14800D01*
X18625Y14783D01*
X18641Y14750D01*
X18641Y14666D01*
X18625Y14633D01*
X18608Y14616D01*
X14980Y12840D02*
X14980Y13320D01*
X14980Y13320D02*
X14690Y13030D01*
X14690Y13030D02*
X14960Y12760D01*
X14980Y12740D02*
X14980Y12840D01*
X14650Y12740D02*
X14650Y13310D01*
X14630Y13030D02*
X14450Y13030D01*
X14980Y13030D02*
X15250Y13030D01*
X23641Y-2733D02*
X23641Y-2566D01*
X23741Y-2766D02*
X23391Y-2650D01*
X23741Y-2533D01*
X23391Y-2250D02*
X23391Y-2416D01*
X23558Y-2433D01*
X23541Y-2416D01*
X23525Y-2383D01*
X23525Y-2300D01*
X23541Y-2266D01*
X23558Y-2250D01*
X23591Y-2233D01*
X23675Y-2233D01*
X23708Y-2250D01*
X23725Y-2266D01*
X23741Y-2300D01*
X23741Y-2383D01*
X23725Y-2416D01*
X23708Y-2433D01*
X19541Y-2733D02*
X19541Y-2566D01*
X19641Y-2766D02*
X19291Y-2650D01*
X19641Y-2533D01*
X19641Y-2233D02*
X19641Y-2433D01*
X19641Y-2333D02*
X19291Y-2333D01*
X19341Y-2366D01*
X19375Y-2400D01*
X19391Y-2433D01*
X18541Y-2733D02*
X18541Y-2566D01*
X18641Y-2766D02*
X18291Y-2650D01*
X18641Y-2533D01*
X18291Y-2350D02*
X18291Y-2316D01*
X18308Y-2283D01*
X18325Y-2266D01*
X18358Y-2250D01*
X18425Y-2233D01*
X18508Y-2233D01*
X18575Y-2250D01*
X18608Y-2266D01*
X18625Y-2283D01*
X18641Y-2316D01*
X18641Y-2350D01*
X18625Y-2383D01*
X18608Y-2400D01*
X18575Y-2416D01*
X18508Y-2433D01*
X18425Y-2433D01*
X18358Y-2416D01*
X18325Y-2400D01*
X18308Y-2383D01*
X18291Y-2350D01*
X14591Y-1708D02*
X14941Y-1591D01*
X14591Y-1475D01*
X14941Y-1358D02*
X14708Y-1358D01*
X14591Y-1358D02*
X14608Y-1375D01*
X14625Y-1358D01*
X14608Y-1341D01*
X14591Y-1358D01*
X14625Y-1358D01*
X14708Y-1191D02*
X14941Y-1191D01*
X14741Y-1191D02*
X14725Y-1175D01*
X14708Y-1141D01*
X14708Y-1091D01*
X14725Y-1058D01*
X14758Y-1041D01*
X14941Y-1041D01*
X15408Y-2533D02*
X15391Y-2566D01*
X15391Y-2616D01*
X15408Y-2666D01*
X15441Y-2700D01*
X15475Y-2716D01*
X15541Y-2733D01*
X15591Y-2733D01*
X15658Y-2716D01*
X15691Y-2700D01*
X15725Y-2666D01*
X15741Y-2616D01*
X15741Y-2583D01*
X15725Y-2533D01*
X15708Y-2516D01*
X15591Y-2516D01*
X15591Y-2583D01*
X15741Y-2366D02*
X15391Y-2366D01*
X15741Y-2166D01*
X15391Y-2166D01*
X15741Y-2000D02*
X15391Y-2000D01*
X15391Y-1916D01*
X15408Y-1866D01*
X15441Y-1833D01*
X15475Y-1816D01*
X15541Y-1800D01*
X15591Y-1800D01*
X15658Y-1816D01*
X15691Y-1833D01*
X15725Y-1866D01*
X15741Y-1916D01*
X15741Y-2000D01*
G54D11*
X20682Y11085D02*
X20232Y11085D01*
X20639Y11557D02*
X20660Y11535D01*
X20682Y11471D01*
X20682Y11428D01*
X20660Y11364D01*
X20617Y11321D01*
X20575Y11300D01*
X20489Y11278D01*
X20425Y11278D01*
X20339Y11300D01*
X20296Y11321D01*
X20253Y11364D01*
X20232Y11428D01*
X20232Y11471D01*
X20253Y11535D01*
X20275Y11557D01*
X20660Y11728D02*
X20682Y11792D01*
X20682Y11900D01*
X20660Y11942D01*
X20639Y11964D01*
X20596Y11985D01*
X20553Y11985D01*
X20510Y11964D01*
X20489Y11942D01*
X20467Y11900D01*
X20446Y11814D01*
X20425Y11771D01*
X20403Y11750D01*
X20360Y11728D01*
X20317Y11728D01*
X20275Y11750D01*
X20253Y11771D01*
X20232Y11814D01*
X20232Y11921D01*
X20253Y11985D01*
X20682Y12178D02*
X20232Y12178D01*
X20232Y12350D01*
X20253Y12392D01*
X20275Y12414D01*
X20317Y12435D01*
X20382Y12435D01*
X20425Y12414D01*
X20446Y12392D01*
X20467Y12350D01*
X20467Y12178D01*
G54D10*
X38750Y16250D02*
X38500Y16500D01*
X38500Y-4500D02*
X38750Y-4250D01*
X-5250Y-4500D02*
X-5500Y-4250D01*
X-5500Y16250D02*
X-5250Y16500D01*
X-5500Y10850D02*
X-5500Y-4250D01*
X-5500Y16250D02*
X-5500Y11800D01*
X-1250Y10850D02*
X-5500Y10850D01*
X-1250Y11800D02*
X-1250Y10850D01*
X-5500Y11800D02*
X-1250Y11800D01*
G54D13*
X13391Y-2550D02*
X13391Y-2716D01*
X13558Y-2733D01*
X13541Y-2716D01*
X13525Y-2683D01*
X13525Y-2600D01*
X13541Y-2566D01*
X13558Y-2550D01*
X13591Y-2533D01*
X13675Y-2533D01*
X13708Y-2550D01*
X13725Y-2566D01*
X13741Y-2600D01*
X13741Y-2683D01*
X13725Y-2716D01*
X13708Y-2733D01*
X13391Y-2433D02*
X13741Y-2316D01*
X13391Y-2200D01*
X11741Y-2516D02*
X11575Y-2633D01*
X11741Y-2716D02*
X11391Y-2716D01*
X11391Y-2583D01*
X11408Y-2550D01*
X11425Y-2533D01*
X11458Y-2516D01*
X11508Y-2516D01*
X11541Y-2533D01*
X11558Y-2550D01*
X11575Y-2583D01*
X11575Y-2716D01*
X11725Y-2383D02*
X11741Y-2333D01*
X11741Y-2250D01*
X11725Y-2216D01*
X11708Y-2200D01*
X11675Y-2183D01*
X11641Y-2183D01*
X11608Y-2200D01*
X11591Y-2216D01*
X11575Y-2250D01*
X11558Y-2316D01*
X11541Y-2350D01*
X11525Y-2366D01*
X11491Y-2383D01*
X11458Y-2383D01*
X11425Y-2366D01*
X11408Y-2350D01*
X11391Y-2316D01*
X11391Y-2233D01*
X11408Y-2183D01*
X11391Y-2083D02*
X11391Y-1883D01*
X11741Y-1983D02*
X11391Y-1983D01*
X12391Y-2750D02*
X12391Y-2533D01*
X12525Y-2650D01*
X12525Y-2600D01*
X12541Y-2566D01*
X12558Y-2550D01*
X12591Y-2533D01*
X12675Y-2533D01*
X12708Y-2550D01*
X12725Y-2566D01*
X12741Y-2600D01*
X12741Y-2700D01*
X12725Y-2733D01*
X12708Y-2750D01*
X12708Y-2383D02*
X12725Y-2366D01*
X12741Y-2383D01*
X12725Y-2400D01*
X12708Y-2383D01*
X12741Y-2383D01*
X12391Y-2250D02*
X12391Y-2033D01*
X12525Y-2150D01*
X12525Y-2100D01*
X12541Y-2066D01*
X12558Y-2050D01*
X12591Y-2033D01*
X12675Y-2033D01*
X12708Y-2050D01*
X12725Y-2066D01*
X12741Y-2100D01*
X12741Y-2200D01*
X12725Y-2233D01*
X12708Y-2250D01*
X12391Y-1933D02*
X12741Y-1816D01*
X12391Y-1700D01*
X16391Y-2766D02*
X16741Y-2650D01*
X16391Y-2533D01*
X16741Y-2416D02*
X16508Y-2416D01*
X16391Y-2416D02*
X16408Y-2433D01*
X16425Y-2416D01*
X16408Y-2400D01*
X16391Y-2416D01*
X16425Y-2416D01*
X16508Y-2250D02*
X16741Y-2250D01*
X16541Y-2250D02*
X16525Y-2233D01*
X16508Y-2200D01*
X16508Y-2150D01*
X16525Y-2116D01*
X16558Y-2100D01*
X16741Y-2100D01*
G54D16*
X26852Y-1652D02*
X26871Y-1595D01*
X26890Y-1576D01*
X26928Y-1557D01*
X26985Y-1557D01*
X27023Y-1576D01*
X27042Y-1595D01*
X27061Y-1633D01*
X27061Y-1785D01*
X26661Y-1785D01*
X26661Y-1652D01*
X26680Y-1614D01*
X26700Y-1595D01*
X26738Y-1576D01*
X26776Y-1576D01*
X26814Y-1595D01*
X26833Y-1614D01*
X26852Y-1652D01*
X26852Y-1785D01*
X26947Y-1404D02*
X26947Y-1214D01*
X27061Y-1442D02*
X26661Y-1309D01*
X27061Y-1176D01*
X26661Y-1100D02*
X26661Y-871D01*
X27061Y-985D02*
X26661Y-985D01*
X27100Y-833D02*
X27100Y-528D01*
X27061Y-433D02*
X26661Y-433D01*
X27061Y-242D02*
X26661Y-242D01*
X27061Y-14D01*
X26661Y-14D01*
G54D10*
X38500Y16500D02*
X-5250Y16500D01*
X38750Y-4250D02*
X38750Y16250D01*
G54D17*
X-5250Y-4500D02*
X38500Y-4500D01*
G54D12*
X29350Y3900D02*
X29750Y4300D01*
X29750Y4300D02*
X29750Y7900D01*
X25750Y7900D02*
X29750Y7900D01*
X25750Y3900D02*
X25750Y7900D01*
X25750Y3900D02*
X29350Y3900D01*
G54D18*
X29865Y3872D02*
G75*
G03X29865Y3872I-87J0D01*
G74*
G01*
G54D12*
X4500Y14250D02*
X4500Y15750D01*
X4500Y15750D02*
X5700Y15750D01*
X5700Y14250D02*
X5700Y15750D01*
X5700Y14250D02*
X4500Y14250D01*
X29425Y1600D02*
X31375Y1600D01*
X29425Y-1200D02*
X31375Y-1200D01*
G54D19*
X31700Y-1456D02*
G75*
G03X31700Y-1456I-55J0D01*
G74*
G01*
G54D12*
X31375Y1600D02*
X31375Y-1200D01*
X29423Y-1200D02*
X29423Y1600D01*
X28275Y11500D02*
X28275Y9400D01*
X28500Y9400D02*
X28500Y11500D01*
X31325Y9400D02*
X31325Y11500D01*
X28300Y9375D02*
X31300Y9375D01*
X31300Y11525D02*
X28300Y11525D01*
G54D19*
X28408Y9051D02*
G75*
G03X28408Y9051I-55J0D01*
G74*
G01*
G54D20*
G36*
X21470Y1548D02*
X21893Y1534D01*
X22306Y1499D01*
X22541Y1450D01*
X21618Y1450D01*
X21554Y1436D01*
X21494Y1390D01*
X21431Y1301D01*
X21357Y1160D01*
X21336Y1118D01*
X21210Y776D01*
X21147Y422D01*
X21146Y64D01*
X21206Y-289D01*
X21328Y-627D01*
X21405Y-775D01*
X21467Y-876D01*
X21518Y-930D01*
X21572Y-949D01*
X21599Y-950D01*
X21639Y-948D01*
X21669Y-935D01*
X21694Y-899D01*
X21719Y-832D01*
X21750Y-721D01*
X21790Y-557D01*
X21794Y-542D01*
X21832Y-386D01*
X21864Y-255D01*
X21886Y-161D01*
X21896Y-118D01*
X21896Y-117D01*
X21882Y-81D01*
X21845Y-7D01*
X21816Y45D01*
X21760Y149D01*
X21739Y228D01*
X21751Y306D01*
X21797Y410D01*
X21813Y443D01*
X21893Y602D01*
X21793Y1026D01*
X21752Y1199D01*
X21720Y1318D01*
X21694Y1392D01*
X21669Y1432D01*
X21641Y1447D01*
X21618Y1450D01*
X22541Y1450D01*
X22555Y1447D01*
X21874Y1447D01*
X21811Y1443D01*
X21800Y1436D01*
X21807Y1396D01*
X21827Y1305D01*
X21857Y1175D01*
X21894Y1019D01*
X21899Y996D01*
X21999Y579D01*
X21911Y407D01*
X21824Y235D01*
X21913Y77D01*
X22001Y-80D01*
X21900Y-490D01*
X21862Y-648D01*
X21831Y-783D01*
X21809Y-880D01*
X21800Y-928D01*
X21800Y-930D01*
X21830Y-944D01*
X21912Y-947D01*
X22031Y-941D01*
X22173Y-927D01*
X22324Y-906D01*
X22470Y-880D01*
X22597Y-851D01*
X22616Y-846D01*
X22945Y-720D01*
X23236Y-547D01*
X23483Y-331D01*
X23679Y-77D01*
X23724Y1D01*
X23787Y129D01*
X23813Y231D01*
X23799Y329D01*
X23747Y446D01*
X23708Y516D01*
X23534Y755D01*
X23309Y971D01*
X23047Y1153D01*
X22763Y1291D01*
X22529Y1364D01*
X22401Y1389D01*
X22258Y1412D01*
X22112Y1429D01*
X21979Y1442D01*
X21874Y1447D01*
X22555Y1447D01*
X22671Y1423D01*
X22990Y1305D01*
X23270Y1142D01*
X23515Y933D01*
X23516Y932D01*
X23619Y815D01*
X23720Y676D01*
X23812Y532D01*
X23883Y398D01*
X23925Y290D01*
X23933Y243D01*
X23919Y190D01*
X23882Y97D01*
X23829Y-15D01*
X23827Y-20D01*
X23684Y-247D01*
X23491Y-463D01*
X23267Y-650D01*
X23033Y-790D01*
X22828Y-880D01*
X22624Y-945D01*
X22404Y-991D01*
X22151Y-1022D01*
X21898Y-1038D01*
X21450Y-1058D01*
X21343Y-877D01*
X21189Y-554D01*
X21089Y-206D01*
X21044Y153D01*
X21058Y508D01*
X21081Y648D01*
X21140Y878D01*
X21222Y1108D01*
X21317Y1313D01*
X21399Y1449D01*
X21470Y1548D01*
X21470Y1548D01*
X21470Y1548D01*
G37*
G36*
X22890Y112D02*
X23007Y104D01*
X23107Y46D01*
X23130Y12D01*
X22963Y12D01*
X22879Y7D01*
X22833Y-21D01*
X22507Y-21D01*
X22430Y-41D01*
X22369Y-96D01*
X22338Y-170D01*
X22353Y-248D01*
X22367Y-268D01*
X22439Y-310D01*
X22529Y-311D01*
X22593Y-277D01*
X22629Y-201D01*
X22622Y-111D01*
X22583Y-51D01*
X22507Y-21D01*
X22833Y-21D01*
X22806Y-38D01*
X22760Y-112D01*
X22754Y-202D01*
X22783Y-272D01*
X22855Y-331D01*
X22950Y-351D01*
X23038Y-328D01*
X23060Y-310D01*
X23094Y-236D01*
X23094Y-139D01*
X23061Y-52D01*
X23047Y-36D01*
X22963Y12D01*
X23130Y12D01*
X23176Y-53D01*
X23200Y-177D01*
X23180Y-297D01*
X23122Y-378D01*
X23024Y-434D01*
X22907Y-449D01*
X22799Y-423D01*
X22763Y-398D01*
X22700Y-364D01*
X22638Y-381D01*
X22512Y-418D01*
X22393Y-399D01*
X22302Y-329D01*
X22242Y-212D01*
X22248Y-99D01*
X22315Y1D01*
X22413Y69D01*
X22520Y76D01*
X22612Y46D01*
X22689Y26D01*
X22761Y56D01*
X22771Y62D01*
X22890Y112D01*
X22890Y112D01*
X22890Y112D01*
G37*
G36*
X22923Y903D02*
X23036Y884D01*
X23127Y822D01*
X23134Y810D01*
X22941Y810D01*
X22861Y789D01*
X22849Y779D01*
X22516Y779D01*
X22426Y772D01*
X22367Y733D01*
X22342Y662D01*
X22346Y600D01*
X22393Y528D01*
X22472Y491D01*
X22556Y499D01*
X22583Y517D01*
X22626Y589D01*
X22626Y679D01*
X22593Y743D01*
X22516Y779D01*
X22849Y779D01*
X22793Y732D01*
X22754Y654D01*
X22758Y568D01*
X22766Y550D01*
X22834Y482D01*
X22925Y457D01*
X23016Y475D01*
X23085Y535D01*
X23098Y561D01*
X23104Y662D01*
X23044Y758D01*
X23018Y781D01*
X22941Y810D01*
X23134Y810D01*
X23186Y732D01*
X23206Y624D01*
X23177Y511D01*
X23118Y431D01*
X23007Y363D01*
X22883Y356D01*
X22769Y405D01*
X22698Y440D01*
X22639Y427D01*
X22629Y421D01*
X22513Y385D01*
X22394Y409D01*
X22315Y465D01*
X22246Y571D01*
X22243Y684D01*
X22302Y795D01*
X22396Y865D01*
X22515Y884D01*
X22631Y850D01*
X22707Y838D01*
X22796Y870D01*
X22923Y903D01*
X22923Y903D01*
X22923Y903D01*
G37*
G54D17*
X-1200Y11800D02*
X-5400Y11800D01*
X-1200Y11800D02*
X-1200Y16500D01*
X-5400Y16500D02*
X-1200Y16500D01*
G54D11*
X1375Y15625D02*
X1375Y14775D01*
X1375Y14775D02*
X-575Y14775D01*
X-575Y14775D02*
X-575Y15625D01*
X-575Y15625D02*
X1375Y15625D01*
X27525Y2475D02*
X27525Y1625D01*
X27525Y1625D02*
X25575Y1625D01*
X25575Y1625D02*
X25575Y2475D01*
X25575Y2475D02*
X27525Y2475D01*
X26075Y9075D02*
X26075Y9925D01*
X26075Y9925D02*
X28025Y9925D01*
X28025Y9925D02*
X28025Y9075D01*
X28025Y9075D02*
X26075Y9075D01*
X4925Y13175D02*
X4925Y14025D01*
X4925Y14025D02*
X6875Y14025D01*
X6875Y14025D02*
X6875Y13175D01*
X6875Y13175D02*
X4925Y13175D01*
X28725Y1775D02*
X28725Y2625D01*
X28725Y2625D02*
X30675Y2625D01*
X30675Y2625D02*
X30675Y1775D01*
X30675Y1775D02*
X28725Y1775D01*
G54D13*
X700Y14250D02*
X700Y13250D01*
X700Y13250D02*
X100Y13250D01*
X100Y13250D02*
X100Y14250D01*
X100Y14250D02*
X700Y14250D01*
X-100Y14250D02*
X-100Y13250D01*
X-100Y13250D02*
X-700Y13250D01*
X-700Y13250D02*
X-700Y14250D01*
X-700Y14250D02*
X-100Y14250D01*
X12800Y10050D02*
X12800Y9050D01*
X12800Y9050D02*
X12200Y9050D01*
X12200Y9050D02*
X12200Y10050D01*
X12200Y10050D02*
X12800Y10050D01*
X25650Y13450D02*
X26650Y13450D01*
X26650Y13450D02*
X26650Y12850D01*
X26650Y12850D02*
X25650Y12850D01*
X25650Y12850D02*
X25650Y13450D01*
X25650Y12450D02*
X26650Y12450D01*
X26650Y12450D02*
X26650Y11850D01*
X26650Y11850D02*
X25650Y11850D01*
X25650Y11850D02*
X25650Y12450D01*
X12800Y6050D02*
X12800Y5050D01*
X12800Y5050D02*
X12200Y5050D01*
X12200Y5050D02*
X12200Y6050D01*
X12200Y6050D02*
X12800Y6050D01*
X15000Y-2700D02*
X14000Y-2700D01*
X14000Y-2700D02*
X14000Y-2100D01*
X14000Y-2100D02*
X15000Y-2100D01*
X15000Y-2100D02*
X15000Y-2700D01*
X12800Y4050D02*
X12800Y3050D01*
X12800Y3050D02*
X12200Y3050D01*
X12200Y3050D02*
X12200Y4050D01*
X12200Y4050D02*
X12800Y4050D01*
X12700Y12850D02*
X11700Y12850D01*
X11700Y12850D02*
X11700Y13450D01*
X11700Y13450D02*
X12700Y13450D01*
X12700Y13450D02*
X12700Y12850D01*
X12700Y14050D02*
X11700Y14050D01*
X11700Y14050D02*
X11700Y14650D01*
X11700Y14650D02*
X12700Y14650D01*
X12700Y14650D02*
X12700Y14050D01*
X12800Y8050D02*
X12800Y7050D01*
X12800Y7050D02*
X12200Y7050D01*
X12200Y7050D02*
X12200Y8050D01*
X12200Y8050D02*
X12800Y8050D01*
X24950Y8100D02*
X24950Y9100D01*
X24950Y9100D02*
X25550Y9100D01*
X25550Y9100D02*
X25550Y8100D01*
X25550Y8100D02*
X24950Y8100D01*
X14000Y11450D02*
X15000Y11450D01*
X15000Y11450D02*
X15000Y10850D01*
X15000Y10850D02*
X14000Y10850D01*
X14000Y10850D02*
X14000Y11450D01*
X19200Y8050D02*
X20200Y8050D01*
X20200Y8050D02*
X20200Y7450D01*
X20200Y7450D02*
X19200Y7450D01*
X19200Y7450D02*
X19200Y8050D01*
X7300Y14100D02*
X8300Y14100D01*
X8300Y14100D02*
X8300Y13500D01*
X8300Y13500D02*
X7300Y13500D01*
X7300Y13500D02*
X7300Y14100D01*
X12800Y2050D02*
X12800Y1050D01*
X12800Y1050D02*
X12200Y1050D01*
X12200Y1050D02*
X12200Y2050D01*
X12200Y2050D02*
X12800Y2050D01*
X5550Y12300D02*
X6550Y12300D01*
X6550Y12300D02*
X6550Y11700D01*
X6550Y11700D02*
X5550Y11700D01*
X5550Y11700D02*
X5550Y12300D01*
X19200Y9900D02*
X20200Y9900D01*
X20200Y9900D02*
X20200Y9300D01*
X20200Y9300D02*
X19200Y9300D01*
X19200Y9300D02*
X19200Y9900D01*
X26850Y600D02*
X25850Y600D01*
X25850Y600D02*
X25850Y1200D01*
X25850Y1200D02*
X26850Y1200D01*
X26850Y1200D02*
X26850Y600D01*
X25650Y14450D02*
X26650Y14450D01*
X26650Y14450D02*
X26650Y13850D01*
X26650Y13850D02*
X25650Y13850D01*
X25650Y13850D02*
X25650Y14450D01*
X24950Y7000D02*
X24950Y8000D01*
X24950Y8000D02*
X25550Y8000D01*
X25550Y8000D02*
X25550Y7000D01*
X25550Y7000D02*
X24950Y7000D01*
G54D11*
X28750Y575D02*
X28750Y1525D01*
X28750Y1550D02*
X29350Y1550D01*
X29350Y1525D02*
X29350Y575D01*
X29350Y550D02*
X28750Y550D01*
X28975Y3500D02*
X29925Y3500D01*
X29950Y3500D02*
X29950Y2900D01*
X29925Y2900D02*
X28975Y2900D01*
X28950Y2900D02*
X28950Y3500D01*
X6200Y14525D02*
X6200Y15475D01*
X6200Y15500D02*
X6800Y15500D01*
X6800Y15475D02*
X6800Y14525D01*
X6800Y14500D02*
X6200Y14500D01*
X29525Y8650D02*
X28575Y8650D01*
X28550Y8650D02*
X28550Y9250D01*
X28575Y9250D02*
X29525Y9250D01*
X29550Y9250D02*
X29550Y8650D01*
X28050Y575D02*
X28050Y1525D01*
X28050Y1550D02*
X28650Y1550D01*
X28650Y1525D02*
X28650Y575D01*
X28650Y550D02*
X28050Y550D01*
X29525Y8000D02*
X28575Y8000D01*
X28550Y8000D02*
X28550Y8600D01*
X28575Y8600D02*
X29525Y8600D01*
X29550Y8600D02*
X29550Y8000D01*
G54D15*
X18750Y13050D02*
X18750Y13550D01*
X18750Y12950D02*
X18950Y13550D01*
X18950Y13550D02*
X18600Y13550D01*
G54D14*
X18600Y13550D02*
X18550Y13550D01*
G54D15*
X18550Y13550D02*
X18750Y12950D01*
G54D21*
X16250Y12750D02*
X19250Y12750D01*
X19250Y10750D02*
X16250Y10750D01*
X16250Y10750D02*
X16250Y12750D01*
X19250Y12750D02*
X19250Y10750D01*
G54D13*
X30050Y6425D02*
X30750Y6425D01*
X30050Y6425D02*
X30050Y6025D01*
X30050Y6025D02*
X30750Y6025D01*
X30750Y6425D02*
X30750Y6025D01*
X28900Y3100D02*
X28200Y3100D01*
X28900Y3100D02*
X28900Y3500D01*
X28900Y3500D02*
X28200Y3500D01*
X28200Y3100D02*
X28200Y3500D01*
X30050Y5975D02*
X30750Y5975D01*
X30050Y5975D02*
X30050Y5575D01*
X30050Y5575D02*
X30750Y5575D01*
X30750Y5975D02*
X30750Y5575D01*
G54D12*
X2700Y12650D02*
X2700Y13050D01*
X2700Y15750D02*
X2700Y16150D01*
X2500Y15950D02*
X2900Y15950D01*
X4200Y13250D02*
X4200Y15200D01*
X2750Y15550D02*
X3850Y15550D01*
X4200Y15200D02*
X3850Y15550D01*
X2400Y13250D02*
X2400Y15200D01*
X2400Y15200D02*
X2750Y15550D01*
X2400Y13250D02*
X4200Y13250D01*
X600Y0D02*
G75*
G03X600Y0I-600J0D01*
G74*
G01*
X18400Y350D02*
G75*
G03X18400Y350I-600J0D01*
G74*
G01*
X15600Y9200D02*
X15600Y8400D01*
X18400Y9900D02*
X18400Y10000D01*
X18400Y10000D02*
X15600Y10000D01*
X15600Y10000D02*
X15600Y9900D01*
X18400Y8400D02*
X18400Y9200D01*
X18400Y7600D02*
X18400Y7700D01*
X18400Y7600D02*
X15600Y7600D01*
X15600Y7600D02*
X15600Y7700D01*
X15600Y6400D02*
X15600Y5600D01*
X18400Y7100D02*
X18400Y7200D01*
X18400Y7200D02*
X15600Y7200D01*
X15600Y7200D02*
X15600Y7100D01*
X18400Y5600D02*
X18400Y6400D01*
X18400Y4800D02*
X18400Y4900D01*
X18400Y4800D02*
X15600Y4800D01*
X15600Y4800D02*
X15600Y4900D01*
X15600Y3600D02*
X15600Y2800D01*
X18400Y4300D02*
X18400Y4400D01*
X18400Y4400D02*
X15600Y4400D01*
X15600Y4400D02*
X15600Y4300D01*
X18400Y2800D02*
X18400Y3600D01*
X18400Y2000D02*
X18400Y2100D01*
X18400Y2000D02*
X15600Y2000D01*
X15600Y2000D02*
X15600Y2100D01*
G54D21*
X24000Y15000D02*
X16000Y15000D01*
X16000Y15000D02*
X16000Y16000D01*
X16000Y16000D02*
X24000Y16000D01*
X24000Y16000D02*
X24000Y15000D01*
X23000Y16000D02*
X23000Y15000D01*
X15400Y15000D02*
X7400Y15000D01*
X7400Y15000D02*
X7400Y16000D01*
X7400Y16000D02*
X15400Y16000D01*
X15400Y16000D02*
X15400Y15000D01*
X14400Y16000D02*
X14400Y15000D01*
X18000Y-4000D02*
X18000Y-3000D01*
X18000Y-3000D02*
X24000Y-3000D01*
X24000Y-3000D02*
X24000Y-4000D01*
X24000Y-4000D02*
X18000Y-4000D01*
X19000Y-4000D02*
X19000Y-3000D01*
X11000Y-4000D02*
X11000Y-3000D01*
X11000Y-3000D02*
X17000Y-3000D01*
X17000Y-3000D02*
X17000Y-4000D01*
X17000Y-4000D02*
X11000Y-4000D01*
X12000Y-4000D02*
X12000Y-3000D01*
G54D11*
X13650Y11550D02*
X13650Y12550D01*
X13850Y12550D02*
X13850Y11550D01*
X13650Y11550D02*
X15870Y11550D01*
X15875Y11550D02*
X15875Y12550D01*
X15870Y12550D02*
X13650Y12550D01*
G54D13*
X27875Y12150D02*
X27550Y12500D01*
X27875Y12150D02*
X27550Y11800D01*
X27550Y11800D02*
X27550Y12500D01*
X26750Y12600D02*
X26750Y11700D01*
X26750Y12600D02*
X28650Y12600D01*
X28650Y12600D02*
X28650Y11700D01*
X28650Y11700D02*
X26750Y11700D01*
G54D12*
X28050Y12650D02*
X28200Y12650D01*
X28200Y12650D02*
X28200Y12800D01*
X28200Y12800D02*
X28050Y12800D01*
X28050Y12800D02*
X28050Y12650D01*
G54D13*
X8400Y8175D02*
X8050Y7850D01*
X8400Y8175D02*
X8750Y7850D01*
X8750Y7850D02*
X8050Y7850D01*
X7950Y7050D02*
X8850Y7050D01*
X7950Y7050D02*
X7950Y8950D01*
X7950Y8950D02*
X8850Y8950D01*
X8850Y8950D02*
X8850Y7050D01*
G54D12*
X7900Y8350D02*
X7900Y8500D01*
X7900Y8500D02*
X7750Y8500D01*
X7750Y8500D02*
X7750Y8350D01*
X7750Y8350D02*
X7900Y8350D01*
G54D13*
X6800Y8175D02*
X6450Y7850D01*
X6800Y8175D02*
X7150Y7850D01*
X7150Y7850D02*
X6450Y7850D01*
X6350Y7050D02*
X7250Y7050D01*
X6350Y7050D02*
X6350Y8950D01*
X6350Y8950D02*
X7250Y8950D01*
X7250Y8950D02*
X7250Y7050D01*
G54D12*
X6300Y8350D02*
X6300Y8500D01*
X6300Y8500D02*
X6150Y8500D01*
X6150Y8500D02*
X6150Y8350D01*
X6150Y8350D02*
X6300Y8350D01*
G54D13*
X6800Y10175D02*
X6450Y9850D01*
X6800Y10175D02*
X7150Y9850D01*
X7150Y9850D02*
X6450Y9850D01*
X6350Y9050D02*
X7250Y9050D01*
X6350Y9050D02*
X6350Y10950D01*
X6350Y10950D02*
X7250Y10950D01*
X7250Y10950D02*
X7250Y9050D01*
G54D12*
X6300Y10350D02*
X6300Y10500D01*
X6300Y10500D02*
X6150Y10500D01*
X6150Y10500D02*
X6150Y10350D01*
X6150Y10350D02*
X6300Y10350D01*
G54D13*
X8400Y2175D02*
X8050Y1850D01*
X8400Y2175D02*
X8750Y1850D01*
X8750Y1850D02*
X8050Y1850D01*
X7950Y1050D02*
X8850Y1050D01*
X7950Y1050D02*
X7950Y2950D01*
X7950Y2950D02*
X8850Y2950D01*
X8850Y2950D02*
X8850Y1050D01*
G54D12*
X7900Y2350D02*
X7900Y2500D01*
X7900Y2500D02*
X7750Y2500D01*
X7750Y2500D02*
X7750Y2350D01*
X7750Y2350D02*
X7900Y2350D01*
G54D13*
X8400Y4175D02*
X8050Y3850D01*
X8400Y4175D02*
X8750Y3850D01*
X8750Y3850D02*
X8050Y3850D01*
X7950Y3050D02*
X8850Y3050D01*
X7950Y3050D02*
X7950Y4950D01*
X7950Y4950D02*
X8850Y4950D01*
X8850Y4950D02*
X8850Y3050D01*
G54D12*
X7900Y4350D02*
X7900Y4500D01*
X7900Y4500D02*
X7750Y4500D01*
X7750Y4500D02*
X7750Y4350D01*
X7750Y4350D02*
X7900Y4350D01*
G54D13*
X8400Y6175D02*
X8050Y5850D01*
X8400Y6175D02*
X8750Y5850D01*
X8750Y5850D02*
X8050Y5850D01*
X7950Y5050D02*
X8850Y5050D01*
X7950Y5050D02*
X7950Y6950D01*
X7950Y6950D02*
X8850Y6950D01*
X8850Y6950D02*
X8850Y5050D01*
G54D12*
X7900Y6350D02*
X7900Y6500D01*
X7900Y6500D02*
X7750Y6500D01*
X7750Y6500D02*
X7750Y6350D01*
X7750Y6350D02*
X7900Y6350D01*
G54D13*
X8400Y10175D02*
X8050Y9850D01*
X8400Y10175D02*
X8750Y9850D01*
X8750Y9850D02*
X8050Y9850D01*
X7950Y9050D02*
X8850Y9050D01*
X7950Y9050D02*
X7950Y10950D01*
X7950Y10950D02*
X8850Y10950D01*
X8850Y10950D02*
X8850Y9050D01*
G54D12*
X7900Y10350D02*
X7900Y10500D01*
X7900Y10500D02*
X7750Y10500D01*
X7750Y10500D02*
X7750Y10350D01*
X7750Y10350D02*
X7900Y10350D01*
G54D13*
X10000Y2175D02*
X9650Y1850D01*
X10000Y2175D02*
X10350Y1850D01*
X10350Y1850D02*
X9650Y1850D01*
X9550Y1050D02*
X10450Y1050D01*
X9550Y1050D02*
X9550Y2950D01*
X9550Y2950D02*
X10450Y2950D01*
X10450Y2950D02*
X10450Y1050D01*
G54D12*
X9500Y2350D02*
X9500Y2500D01*
X9500Y2500D02*
X9350Y2500D01*
X9350Y2500D02*
X9350Y2350D01*
X9350Y2350D02*
X9500Y2350D01*
G54D13*
X10000Y8175D02*
X9650Y7850D01*
X10000Y8175D02*
X10350Y7850D01*
X10350Y7850D02*
X9650Y7850D01*
X9550Y7050D02*
X10450Y7050D01*
X9550Y7050D02*
X9550Y8950D01*
X9550Y8950D02*
X10450Y8950D01*
X10450Y8950D02*
X10450Y7050D01*
G54D12*
X9500Y8350D02*
X9500Y8500D01*
X9500Y8500D02*
X9350Y8500D01*
X9350Y8500D02*
X9350Y8350D01*
X9350Y8350D02*
X9500Y8350D01*
G54D13*
X10000Y10175D02*
X9650Y9850D01*
X10000Y10175D02*
X10350Y9850D01*
X10350Y9850D02*
X9650Y9850D01*
X9550Y9050D02*
X10450Y9050D01*
X9550Y9050D02*
X9550Y10950D01*
X9550Y10950D02*
X10450Y10950D01*
X10450Y10950D02*
X10450Y9050D01*
G54D12*
X9500Y10350D02*
X9500Y10500D01*
X9500Y10500D02*
X9350Y10500D01*
X9350Y10500D02*
X9350Y10350D01*
X9350Y10350D02*
X9500Y10350D01*
G54D13*
X11600Y2175D02*
X11250Y1850D01*
X11600Y2175D02*
X11950Y1850D01*
X11950Y1850D02*
X11250Y1850D01*
X11150Y1050D02*
X12050Y1050D01*
X11150Y1050D02*
X11150Y2950D01*
X11150Y2950D02*
X12050Y2950D01*
X12050Y2950D02*
X12050Y1050D01*
G54D12*
X11100Y2350D02*
X11100Y2500D01*
X11100Y2500D02*
X10950Y2500D01*
X10950Y2500D02*
X10950Y2350D01*
X10950Y2350D02*
X11100Y2350D01*
G54D13*
X11600Y4175D02*
X11250Y3850D01*
X11600Y4175D02*
X11950Y3850D01*
X11950Y3850D02*
X11250Y3850D01*
X11150Y3050D02*
X12050Y3050D01*
X11150Y3050D02*
X11150Y4950D01*
X11150Y4950D02*
X12050Y4950D01*
X12050Y4950D02*
X12050Y3050D01*
G54D12*
X11100Y4350D02*
X11100Y4500D01*
X11100Y4500D02*
X10950Y4500D01*
X10950Y4500D02*
X10950Y4350D01*
X10950Y4350D02*
X11100Y4350D01*
G54D13*
X11600Y6175D02*
X11250Y5850D01*
X11600Y6175D02*
X11950Y5850D01*
X11950Y5850D02*
X11250Y5850D01*
X11150Y5050D02*
X12050Y5050D01*
X11150Y5050D02*
X11150Y6950D01*
X11150Y6950D02*
X12050Y6950D01*
X12050Y6950D02*
X12050Y5050D01*
G54D12*
X11100Y6350D02*
X11100Y6500D01*
X11100Y6500D02*
X10950Y6500D01*
X10950Y6500D02*
X10950Y6350D01*
X10950Y6350D02*
X11100Y6350D01*
G54D13*
X11600Y8175D02*
X11250Y7850D01*
X11600Y8175D02*
X11950Y7850D01*
X11950Y7850D02*
X11250Y7850D01*
X11150Y7050D02*
X12050Y7050D01*
X11150Y7050D02*
X11150Y8950D01*
X11150Y8950D02*
X12050Y8950D01*
X12050Y8950D02*
X12050Y7050D01*
G54D12*
X11100Y8350D02*
X11100Y8500D01*
X11100Y8500D02*
X10950Y8500D01*
X10950Y8500D02*
X10950Y8350D01*
X10950Y8350D02*
X11100Y8350D01*
G54D13*
X5200Y4175D02*
X4850Y3850D01*
X5200Y4175D02*
X5550Y3850D01*
X5550Y3850D02*
X4850Y3850D01*
X4750Y3050D02*
X5650Y3050D01*
X4750Y3050D02*
X4750Y4950D01*
X4750Y4950D02*
X5650Y4950D01*
X5650Y4950D02*
X5650Y3050D01*
G54D12*
X4700Y4350D02*
X4700Y4500D01*
X4700Y4500D02*
X4550Y4500D01*
X4550Y4500D02*
X4550Y4350D01*
X4550Y4350D02*
X4700Y4350D01*
G54D13*
X10000Y4175D02*
X9650Y3850D01*
X10000Y4175D02*
X10350Y3850D01*
X10350Y3850D02*
X9650Y3850D01*
X9550Y3050D02*
X10450Y3050D01*
X9550Y3050D02*
X9550Y4950D01*
X9550Y4950D02*
X10450Y4950D01*
X10450Y4950D02*
X10450Y3050D01*
G54D12*
X9500Y4350D02*
X9500Y4500D01*
X9500Y4500D02*
X9350Y4500D01*
X9350Y4500D02*
X9350Y4350D01*
X9350Y4350D02*
X9500Y4350D01*
G54D13*
X10000Y6175D02*
X9650Y5850D01*
X10000Y6175D02*
X10350Y5850D01*
X10350Y5850D02*
X9650Y5850D01*
X9550Y5050D02*
X10450Y5050D01*
X9550Y5050D02*
X9550Y6950D01*
X9550Y6950D02*
X10450Y6950D01*
X10450Y6950D02*
X10450Y5050D01*
G54D12*
X9500Y6350D02*
X9500Y6500D01*
X9500Y6500D02*
X9350Y6500D01*
X9350Y6500D02*
X9350Y6350D01*
X9350Y6350D02*
X9500Y6350D01*
G54D13*
X400Y2175D02*
X50Y1850D01*
X400Y2175D02*
X750Y1850D01*
X750Y1850D02*
X50Y1850D01*
X-50Y1050D02*
X850Y1050D01*
X-50Y1050D02*
X-50Y2950D01*
X-50Y2950D02*
X850Y2950D01*
X850Y2950D02*
X850Y1050D01*
G54D12*
X-100Y2350D02*
X-100Y2500D01*
X-100Y2500D02*
X-250Y2500D01*
X-250Y2500D02*
X-250Y2350D01*
X-250Y2350D02*
X-100Y2350D01*
G54D13*
X400Y4175D02*
X50Y3850D01*
X400Y4175D02*
X750Y3850D01*
X750Y3850D02*
X50Y3850D01*
X-50Y3050D02*
X850Y3050D01*
X-50Y3050D02*
X-50Y4950D01*
X-50Y4950D02*
X850Y4950D01*
X850Y4950D02*
X850Y3050D01*
G54D12*
X-100Y4350D02*
X-100Y4500D01*
X-100Y4500D02*
X-250Y4500D01*
X-250Y4500D02*
X-250Y4350D01*
X-250Y4350D02*
X-100Y4350D01*
G54D13*
X400Y6175D02*
X50Y5850D01*
X400Y6175D02*
X750Y5850D01*
X750Y5850D02*
X50Y5850D01*
X-50Y5050D02*
X850Y5050D01*
X-50Y5050D02*
X-50Y6950D01*
X-50Y6950D02*
X850Y6950D01*
X850Y6950D02*
X850Y5050D01*
G54D12*
X-100Y6350D02*
X-100Y6500D01*
X-100Y6500D02*
X-250Y6500D01*
X-250Y6500D02*
X-250Y6350D01*
X-250Y6350D02*
X-100Y6350D01*
G54D13*
X400Y8175D02*
X50Y7850D01*
X400Y8175D02*
X750Y7850D01*
X750Y7850D02*
X50Y7850D01*
X-50Y7050D02*
X850Y7050D01*
X-50Y7050D02*
X-50Y8950D01*
X-50Y8950D02*
X850Y8950D01*
X850Y8950D02*
X850Y7050D01*
G54D12*
X-100Y8350D02*
X-100Y8500D01*
X-100Y8500D02*
X-250Y8500D01*
X-250Y8500D02*
X-250Y8350D01*
X-250Y8350D02*
X-100Y8350D01*
G54D13*
X400Y10175D02*
X50Y9850D01*
X400Y10175D02*
X750Y9850D01*
X750Y9850D02*
X50Y9850D01*
X-50Y9050D02*
X850Y9050D01*
X-50Y9050D02*
X-50Y10950D01*
X-50Y10950D02*
X850Y10950D01*
X850Y10950D02*
X850Y9050D01*
G54D12*
X-100Y10350D02*
X-100Y10500D01*
X-100Y10500D02*
X-250Y10500D01*
X-250Y10500D02*
X-250Y10350D01*
X-250Y10350D02*
X-100Y10350D01*
G54D13*
X2000Y2175D02*
X1650Y1850D01*
X2000Y2175D02*
X2350Y1850D01*
X2350Y1850D02*
X1650Y1850D01*
X1550Y1050D02*
X2450Y1050D01*
X1550Y1050D02*
X1550Y2950D01*
X1550Y2950D02*
X2450Y2950D01*
X2450Y2950D02*
X2450Y1050D01*
G54D12*
X1500Y2350D02*
X1500Y2500D01*
X1500Y2500D02*
X1350Y2500D01*
X1350Y2500D02*
X1350Y2350D01*
X1350Y2350D02*
X1500Y2350D01*
G54D13*
X2000Y4175D02*
X1650Y3850D01*
X2000Y4175D02*
X2350Y3850D01*
X2350Y3850D02*
X1650Y3850D01*
X1550Y3050D02*
X2450Y3050D01*
X1550Y3050D02*
X1550Y4950D01*
X1550Y4950D02*
X2450Y4950D01*
X2450Y4950D02*
X2450Y3050D01*
G54D12*
X1500Y4350D02*
X1500Y4500D01*
X1500Y4500D02*
X1350Y4500D01*
X1350Y4500D02*
X1350Y4350D01*
X1350Y4350D02*
X1500Y4350D01*
G54D13*
X2000Y6175D02*
X1650Y5850D01*
X2000Y6175D02*
X2350Y5850D01*
X2350Y5850D02*
X1650Y5850D01*
X1550Y5050D02*
X2450Y5050D01*
X1550Y5050D02*
X1550Y6950D01*
X1550Y6950D02*
X2450Y6950D01*
X2450Y6950D02*
X2450Y5050D01*
G54D12*
X1500Y6350D02*
X1500Y6500D01*
X1500Y6500D02*
X1350Y6500D01*
X1350Y6500D02*
X1350Y6350D01*
X1350Y6350D02*
X1500Y6350D01*
G54D13*
X2000Y8175D02*
X1650Y7850D01*
X2000Y8175D02*
X2350Y7850D01*
X2350Y7850D02*
X1650Y7850D01*
X1550Y7050D02*
X2450Y7050D01*
X1550Y7050D02*
X1550Y8950D01*
X1550Y8950D02*
X2450Y8950D01*
X2450Y8950D02*
X2450Y7050D01*
G54D12*
X1500Y8350D02*
X1500Y8500D01*
X1500Y8500D02*
X1350Y8500D01*
X1350Y8500D02*
X1350Y8350D01*
X1350Y8350D02*
X1500Y8350D01*
G54D13*
X2000Y10175D02*
X1650Y9850D01*
X2000Y10175D02*
X2350Y9850D01*
X2350Y9850D02*
X1650Y9850D01*
X1550Y9050D02*
X2450Y9050D01*
X1550Y9050D02*
X1550Y10950D01*
X1550Y10950D02*
X2450Y10950D01*
X2450Y10950D02*
X2450Y9050D01*
G54D12*
X1500Y10350D02*
X1500Y10500D01*
X1500Y10500D02*
X1350Y10500D01*
X1350Y10500D02*
X1350Y10350D01*
X1350Y10350D02*
X1500Y10350D01*
G54D13*
X6800Y6175D02*
X6450Y5850D01*
X6800Y6175D02*
X7150Y5850D01*
X7150Y5850D02*
X6450Y5850D01*
X6350Y5050D02*
X7250Y5050D01*
X6350Y5050D02*
X6350Y6950D01*
X6350Y6950D02*
X7250Y6950D01*
X7250Y6950D02*
X7250Y5050D01*
G54D12*
X6300Y6350D02*
X6300Y6500D01*
X6300Y6500D02*
X6150Y6500D01*
X6150Y6500D02*
X6150Y6350D01*
X6150Y6350D02*
X6300Y6350D01*
G54D13*
X3600Y4175D02*
X3250Y3850D01*
X3600Y4175D02*
X3950Y3850D01*
X3950Y3850D02*
X3250Y3850D01*
X3150Y3050D02*
X4050Y3050D01*
X3150Y3050D02*
X3150Y4950D01*
X3150Y4950D02*
X4050Y4950D01*
X4050Y4950D02*
X4050Y3050D01*
G54D12*
X3100Y4350D02*
X3100Y4500D01*
X3100Y4500D02*
X2950Y4500D01*
X2950Y4500D02*
X2950Y4350D01*
X2950Y4350D02*
X3100Y4350D01*
G54D13*
X3600Y6175D02*
X3250Y5850D01*
X3600Y6175D02*
X3950Y5850D01*
X3950Y5850D02*
X3250Y5850D01*
X3150Y5050D02*
X4050Y5050D01*
X3150Y5050D02*
X3150Y6950D01*
X3150Y6950D02*
X4050Y6950D01*
X4050Y6950D02*
X4050Y5050D01*
G54D12*
X3100Y6350D02*
X3100Y6500D01*
X3100Y6500D02*
X2950Y6500D01*
X2950Y6500D02*
X2950Y6350D01*
X2950Y6350D02*
X3100Y6350D01*
G54D13*
X3600Y8175D02*
X3250Y7850D01*
X3600Y8175D02*
X3950Y7850D01*
X3950Y7850D02*
X3250Y7850D01*
X3150Y7050D02*
X4050Y7050D01*
X3150Y7050D02*
X3150Y8950D01*
X3150Y8950D02*
X4050Y8950D01*
X4050Y8950D02*
X4050Y7050D01*
G54D12*
X3100Y8350D02*
X3100Y8500D01*
X3100Y8500D02*
X2950Y8500D01*
X2950Y8500D02*
X2950Y8350D01*
X2950Y8350D02*
X3100Y8350D01*
G54D13*
X3600Y10175D02*
X3250Y9850D01*
X3600Y10175D02*
X3950Y9850D01*
X3950Y9850D02*
X3250Y9850D01*
X3150Y9050D02*
X4050Y9050D01*
X3150Y9050D02*
X3150Y10950D01*
X3150Y10950D02*
X4050Y10950D01*
X4050Y10950D02*
X4050Y9050D01*
G54D12*
X3100Y10350D02*
X3100Y10500D01*
X3100Y10500D02*
X2950Y10500D01*
X2950Y10500D02*
X2950Y10350D01*
X2950Y10350D02*
X3100Y10350D01*
G54D13*
X5200Y2175D02*
X4850Y1850D01*
X5200Y2175D02*
X5550Y1850D01*
X5550Y1850D02*
X4850Y1850D01*
X4750Y1050D02*
X5650Y1050D01*
X4750Y1050D02*
X4750Y2950D01*
X4750Y2950D02*
X5650Y2950D01*
X5650Y2950D02*
X5650Y1050D01*
G54D12*
X4700Y2350D02*
X4700Y2500D01*
X4700Y2500D02*
X4550Y2500D01*
X4550Y2500D02*
X4550Y2350D01*
X4550Y2350D02*
X4700Y2350D01*
G54D13*
X5200Y8175D02*
X4850Y7850D01*
X5200Y8175D02*
X5550Y7850D01*
X5550Y7850D02*
X4850Y7850D01*
X4750Y7050D02*
X5650Y7050D01*
X4750Y7050D02*
X4750Y8950D01*
X4750Y8950D02*
X5650Y8950D01*
X5650Y8950D02*
X5650Y7050D01*
G54D12*
X4700Y8350D02*
X4700Y8500D01*
X4700Y8500D02*
X4550Y8500D01*
X4550Y8500D02*
X4550Y8350D01*
X4550Y8350D02*
X4700Y8350D01*
G54D13*
X5200Y10175D02*
X4850Y9850D01*
X5200Y10175D02*
X5550Y9850D01*
X5550Y9850D02*
X4850Y9850D01*
X4750Y9050D02*
X5650Y9050D01*
X4750Y9050D02*
X4750Y10950D01*
X4750Y10950D02*
X5650Y10950D01*
X5650Y10950D02*
X5650Y9050D01*
G54D12*
X4700Y10350D02*
X4700Y10500D01*
X4700Y10500D02*
X4550Y10500D01*
X4550Y10500D02*
X4550Y10350D01*
X4550Y10350D02*
X4700Y10350D01*
G54D13*
X6800Y2175D02*
X6450Y1850D01*
X6800Y2175D02*
X7150Y1850D01*
X7150Y1850D02*
X6450Y1850D01*
X6350Y1050D02*
X7250Y1050D01*
X6350Y1050D02*
X6350Y2950D01*
X6350Y2950D02*
X7250Y2950D01*
X7250Y2950D02*
X7250Y1050D01*
G54D12*
X6300Y2350D02*
X6300Y2500D01*
X6300Y2500D02*
X6150Y2500D01*
X6150Y2500D02*
X6150Y2350D01*
X6150Y2350D02*
X6300Y2350D01*
G54D13*
X6800Y4175D02*
X6450Y3850D01*
X6800Y4175D02*
X7150Y3850D01*
X7150Y3850D02*
X6450Y3850D01*
X6350Y3050D02*
X7250Y3050D01*
X6350Y3050D02*
X6350Y4950D01*
X6350Y4950D02*
X7250Y4950D01*
X7250Y4950D02*
X7250Y3050D01*
G54D12*
X6300Y4350D02*
X6300Y4500D01*
X6300Y4500D02*
X6150Y4500D01*
X6150Y4500D02*
X6150Y4350D01*
X6150Y4350D02*
X6300Y4350D01*
G54D13*
X3600Y2175D02*
X3250Y1850D01*
X3600Y2175D02*
X3950Y1850D01*
X3950Y1850D02*
X3250Y1850D01*
X3150Y1050D02*
X4050Y1050D01*
X3150Y1050D02*
X3150Y2950D01*
X3150Y2950D02*
X4050Y2950D01*
X4050Y2950D02*
X4050Y1050D01*
G54D12*
X3100Y2350D02*
X3100Y2500D01*
X3100Y2500D02*
X2950Y2500D01*
X2950Y2500D02*
X2950Y2350D01*
X2950Y2350D02*
X3100Y2350D01*
G54D13*
X7775Y12000D02*
X7450Y12350D01*
X7775Y12000D02*
X7450Y11650D01*
X7450Y11650D02*
X7450Y12350D01*
X6650Y12450D02*
X6650Y11550D01*
X6650Y12450D02*
X8550Y12450D01*
X8550Y12450D02*
X8550Y11550D01*
X8550Y11550D02*
X6650Y11550D01*
G54D12*
X7950Y12500D02*
X8100Y12500D01*
X8100Y12500D02*
X8100Y12650D01*
X8100Y12650D02*
X7950Y12650D01*
X7950Y12650D02*
X7950Y12500D01*
G54D13*
X11600Y10175D02*
X11250Y9850D01*
X11600Y10175D02*
X11950Y9850D01*
X11950Y9850D02*
X11250Y9850D01*
X11150Y9050D02*
X12050Y9050D01*
X11150Y9050D02*
X11150Y10950D01*
X11150Y10950D02*
X12050Y10950D01*
X12050Y10950D02*
X12050Y9050D01*
G54D12*
X11100Y10350D02*
X11100Y10500D01*
X11100Y10500D02*
X10950Y10500D01*
X10950Y10500D02*
X10950Y10350D01*
X10950Y10350D02*
X11100Y10350D01*
G54D13*
X27875Y13150D02*
X27550Y13500D01*
X27875Y13150D02*
X27550Y12800D01*
X27550Y12800D02*
X27550Y13500D01*
X26750Y13600D02*
X26750Y12700D01*
X26750Y13600D02*
X28650Y13600D01*
X28650Y13600D02*
X28650Y12700D01*
X28650Y12700D02*
X26750Y12700D01*
G54D12*
X28050Y13650D02*
X28200Y13650D01*
X28200Y13650D02*
X28200Y13800D01*
X28200Y13800D02*
X28050Y13800D01*
X28050Y13800D02*
X28050Y13650D01*
G54D13*
X27875Y14150D02*
X27550Y14500D01*
X27875Y14150D02*
X27550Y13800D01*
X27550Y13800D02*
X27550Y14500D01*
X26750Y14600D02*
X26750Y13700D01*
X26750Y14600D02*
X28650Y14600D01*
X28650Y14600D02*
X28650Y13700D01*
X28650Y13700D02*
X26750Y13700D01*
G54D12*
X28050Y14650D02*
X28200Y14650D01*
X28200Y14650D02*
X28200Y14800D01*
X28200Y14800D02*
X28050Y14800D01*
X28050Y14800D02*
X28050Y14650D01*
G54D13*
X5200Y6175D02*
X4850Y5850D01*
X5200Y6175D02*
X5550Y5850D01*
X5550Y5850D02*
X4850Y5850D01*
X4750Y5050D02*
X5650Y5050D01*
X4750Y5050D02*
X4750Y6950D01*
X4750Y6950D02*
X5650Y6950D01*
X5650Y6950D02*
X5650Y5050D01*
G54D12*
X4700Y6350D02*
X4700Y6500D01*
X4700Y6500D02*
X4550Y6500D01*
X4550Y6500D02*
X4550Y6350D01*
X4550Y6350D02*
X4700Y6350D01*
G54D20*
G36*
X37217Y1400D02*
X37217Y967D01*
X35317Y967D01*
X35317Y1400D01*
X37217Y1400D01*
X37217Y1400D01*
X37217Y1400D01*
G37*
G36*
X37217Y2467D02*
X37217Y2034D01*
X36283Y2034D01*
X36283Y1567D01*
X35850Y1567D01*
X35850Y2034D01*
X35317Y2034D01*
X35317Y2467D01*
X37217Y2467D01*
X37217Y2467D01*
X37217Y2467D01*
G37*
G36*
X37217Y4167D02*
X37217Y3950D01*
X37217Y3734D01*
X36467Y3734D01*
X35717Y3734D01*
X35717Y3608D01*
X35717Y3483D01*
X36075Y3391D01*
X36221Y3354D01*
X36344Y3324D01*
X36428Y3305D01*
X36458Y3299D01*
X36474Y3330D01*
X36483Y3404D01*
X36483Y3434D01*
X36483Y3567D01*
X36683Y3567D01*
X36883Y3567D01*
X36883Y3370D01*
X36883Y3173D01*
X37050Y3134D01*
X37217Y3094D01*
X37217Y2880D01*
X37215Y2771D01*
X37212Y2694D01*
X37208Y2667D01*
X37174Y2675D01*
X37086Y2698D01*
X36952Y2732D01*
X36782Y2777D01*
X36585Y2828D01*
X36501Y2850D01*
X36294Y2904D01*
X36107Y2952D01*
X35950Y2991D01*
X35835Y3018D01*
X35769Y3032D01*
X35760Y3034D01*
X35728Y3002D01*
X35717Y2909D01*
X35717Y2900D01*
X35717Y2767D01*
X35517Y2767D01*
X35317Y2767D01*
X35317Y3467D01*
X35317Y4167D01*
X36267Y4167D01*
X37217Y4167D01*
X37217Y4167D01*
X37217Y4167D01*
G37*
G36*
X37217Y5167D02*
X37217Y4400D01*
X35317Y4400D01*
X35317Y5134D01*
X35717Y5134D01*
X35717Y4834D01*
X36783Y4834D01*
X36783Y5167D01*
X37217Y5167D01*
X37217Y5167D01*
X37217Y5167D01*
G37*
G36*
X37217Y5934D02*
X37217Y5300D01*
X36783Y5300D01*
X36783Y5934D01*
X37217Y5934D01*
X37217Y5934D01*
X37217Y5934D01*
G37*
G36*
X37217Y6534D02*
X37217Y6134D01*
X35317Y6134D01*
X35317Y6534D01*
X37217Y6534D01*
X37217Y6534D01*
X37217Y6534D01*
G37*
G36*
X36283Y7634D02*
X36283Y7500D01*
X36289Y7417D01*
X36305Y7370D01*
X36311Y7367D01*
X36354Y7374D01*
X36447Y7392D01*
X36576Y7420D01*
X36717Y7450D01*
X36907Y7492D01*
X37042Y7519D01*
X37131Y7528D01*
X37183Y7517D01*
X37208Y7484D01*
X37216Y7425D01*
X37217Y7339D01*
X37217Y7325D01*
X37217Y7116D01*
X36750Y7020D01*
X36283Y6925D01*
X36283Y6829D01*
X36281Y6778D01*
X36263Y6749D01*
X36215Y6737D01*
X36121Y6734D01*
X36067Y6734D01*
X35850Y6734D01*
X35850Y6984D01*
X35850Y7234D01*
X35583Y7234D01*
X35317Y7234D01*
X35317Y7434D01*
X35317Y7634D01*
X35800Y7634D01*
X36283Y7634D01*
X36283Y7634D01*
X36283Y7634D01*
G37*
G36*
X37217Y8267D02*
X37217Y7834D01*
X35317Y7834D01*
X35317Y8267D01*
X37217Y8267D01*
X37217Y8267D01*
X37217Y8267D01*
G37*
G36*
X37217Y9334D02*
X37217Y8434D01*
X36783Y8434D01*
X36783Y9334D01*
X37217Y9334D01*
X37217Y9334D01*
X37217Y9334D01*
G37*
G36*
X37217Y9934D02*
X37217Y9534D01*
X35317Y9534D01*
X35317Y9934D01*
X37217Y9934D01*
X37217Y9934D01*
X37217Y9934D01*
G37*
G36*
X36417Y11100D02*
X36417Y10984D01*
X36423Y10907D01*
X36438Y10869D01*
X36442Y10868D01*
X36483Y10875D01*
X36574Y10894D01*
X36696Y10921D01*
X36750Y10934D01*
X36891Y10964D01*
X37017Y10986D01*
X37108Y10998D01*
X37125Y10999D01*
X37176Y10996D01*
X37203Y10976D01*
X37214Y10923D01*
X37216Y10820D01*
X37217Y10802D01*
X37213Y10687D01*
X37198Y10622D01*
X37169Y10592D01*
X37158Y10588D01*
X37103Y10574D01*
X37004Y10552D01*
X36879Y10524D01*
X36743Y10495D01*
X36615Y10469D01*
X36510Y10447D01*
X36445Y10435D01*
X36434Y10434D01*
X36423Y10404D01*
X36417Y10328D01*
X36417Y10284D01*
X36417Y10134D01*
X36200Y10134D01*
X35983Y10134D01*
X35983Y10417D01*
X35983Y10700D01*
X35867Y10700D01*
X35750Y10700D01*
X35750Y10417D01*
X35750Y10134D01*
X35533Y10134D01*
X35317Y10134D01*
X35317Y10617D01*
X35317Y11100D01*
X35867Y11100D01*
X36417Y11100D01*
X36417Y11100D01*
X36417Y11100D01*
G37*
G36*
X36483Y9100D02*
X36483Y8434D01*
X36017Y8434D01*
X36017Y9100D01*
X36483Y9100D01*
X36483Y9100D01*
X36483Y9100D01*
G37*
G36*
X36083Y5934D02*
X36083Y5534D01*
X35717Y5534D01*
X35717Y5300D01*
X35317Y5300D01*
X35317Y5934D01*
X36083Y5934D01*
X36083Y5934D01*
X36083Y5934D01*
G37*
G36*
X35750Y9334D02*
X35750Y8434D01*
X35317Y8434D01*
X35317Y9334D01*
X35750Y9334D01*
X35750Y9334D01*
X35750Y9334D01*
G37*
G36*
X34150Y-2033D02*
X34150Y-2466D01*
X32850Y-2466D01*
X32850Y-2033D01*
X34150Y-2033D01*
X34150Y-2033D01*
X34150Y-2033D01*
G37*
G36*
X34150Y-866D02*
X34150Y-1300D01*
X32250Y-1300D01*
X32250Y-866D01*
X34150Y-866D01*
X34150Y-866D01*
X34150Y-866D01*
G37*
G36*
X34150Y200D02*
X34150Y-200D01*
X33217Y-200D01*
X33217Y-700D01*
X32817Y-700D01*
X32817Y-200D01*
X32250Y-200D01*
X32250Y200D01*
X34150Y200D01*
X34150Y200D01*
X34150Y200D01*
G37*
G36*
X34150Y1200D02*
X34150Y467D01*
X32250Y467D01*
X32250Y1200D01*
X32683Y1200D01*
X32683Y900D01*
X33717Y900D01*
X33717Y1200D01*
X34150Y1200D01*
X34150Y1200D01*
X34150Y1200D01*
G37*
G36*
X34150Y2067D02*
X34150Y1334D01*
X33717Y1334D01*
X33717Y1634D01*
X32683Y1634D01*
X32683Y1334D01*
X32250Y1334D01*
X32250Y2067D01*
X34150Y2067D01*
X34150Y2067D01*
X34150Y2067D01*
G37*
G36*
X34150Y3267D02*
X34150Y2800D01*
X32850Y2800D01*
X32850Y3267D01*
X34150Y3267D01*
X34150Y3267D01*
X34150Y3267D01*
G37*
G36*
X34150Y4734D02*
X34150Y4000D01*
X32250Y4000D01*
X32250Y4734D01*
X32683Y4734D01*
X32683Y4434D01*
X33717Y4434D01*
X33717Y4734D01*
X34150Y4734D01*
X34150Y4734D01*
X34150Y4734D01*
G37*
G36*
X34150Y5534D02*
X34150Y4900D01*
X33717Y4900D01*
X33717Y5534D01*
X34150Y5534D01*
X34150Y5534D01*
X34150Y5534D01*
G37*
G36*
X34150Y6467D02*
X34150Y5734D01*
X32250Y5734D01*
X32250Y6467D01*
X32683Y6467D01*
X32683Y6167D01*
X33717Y6167D01*
X33717Y6467D01*
X34150Y6467D01*
X34150Y6467D01*
X34150Y6467D01*
G37*
G36*
X34150Y7334D02*
X34150Y6965D01*
X34150Y6597D01*
X33942Y6607D01*
X33733Y6617D01*
X33723Y6759D01*
X33713Y6900D01*
X33198Y6900D01*
X32683Y6900D01*
X32683Y6767D01*
X32683Y6634D01*
X32467Y6634D01*
X32250Y6634D01*
X32250Y6984D01*
X32250Y7334D01*
X33200Y7334D01*
X34150Y7334D01*
X34150Y7334D01*
X34150Y7334D01*
G37*
G36*
X34150Y8000D02*
X34150Y7784D01*
X34150Y7567D01*
X33548Y7567D01*
X32945Y7567D01*
X33006Y7659D01*
X33062Y7751D01*
X33122Y7859D01*
X33130Y7875D01*
X33194Y8000D01*
X33672Y8000D01*
X34150Y8000D01*
X34150Y8000D01*
X34150Y8000D01*
G37*
G36*
X34150Y9034D02*
X34150Y8817D01*
X34150Y8600D01*
X33751Y8600D01*
X33351Y8600D01*
X33204Y8342D01*
X33111Y8181D01*
X33005Y8001D01*
X32909Y7837D01*
X32902Y7825D01*
X32747Y7567D01*
X32498Y7567D01*
X32250Y7567D01*
X32250Y7784D01*
X32250Y8000D01*
X32379Y8000D01*
X32440Y8003D01*
X32486Y8017D01*
X32529Y8055D01*
X32580Y8126D01*
X32650Y8241D01*
X32670Y8275D01*
X32742Y8396D01*
X32800Y8496D01*
X32836Y8560D01*
X32844Y8575D01*
X32819Y8586D01*
X32740Y8595D01*
X32623Y8599D01*
X32553Y8600D01*
X32250Y8600D01*
X32250Y8817D01*
X32250Y9034D01*
X33200Y9034D01*
X34150Y9034D01*
X34150Y9034D01*
X34150Y9034D01*
G37*
G36*
X34150Y10800D02*
X34150Y10167D01*
X32250Y10167D01*
X32250Y10800D01*
X32683Y10800D01*
X32683Y10600D01*
X33717Y10600D01*
X33717Y10800D01*
X34150Y10800D01*
X34150Y10800D01*
X34150Y10800D01*
G37*
G36*
X34150Y11600D02*
X34150Y11284D01*
X34150Y10967D01*
X33933Y10967D01*
X33817Y10968D01*
X33752Y10977D01*
X33723Y10997D01*
X33717Y11037D01*
X33717Y11050D01*
X33717Y11134D01*
X33200Y11134D01*
X32683Y11134D01*
X32683Y11050D01*
X32679Y11005D01*
X32658Y10980D01*
X32604Y10970D01*
X32502Y10967D01*
X32467Y10967D01*
X32250Y10967D01*
X32250Y11284D01*
X32250Y11600D01*
X33200Y11600D01*
X34150Y11600D01*
X34150Y11600D01*
X34150Y11600D01*
G37*
G36*
X32276Y13400D02*
X32316Y13390D01*
X32405Y13360D01*
X32534Y13317D01*
X32688Y13263D01*
X32734Y13247D01*
X32913Y13184D01*
X33042Y13143D01*
X33135Y13120D01*
X33205Y13113D01*
X33263Y13119D01*
X33292Y13125D01*
X33417Y13158D01*
X33417Y12852D01*
X33417Y12547D01*
X33716Y12454D01*
X33848Y12414D01*
X33957Y12382D01*
X34026Y12364D01*
X34041Y12361D01*
X34100Y12335D01*
X34136Y12253D01*
X34150Y12113D01*
X34150Y12085D01*
X34147Y11973D01*
X34138Y11889D01*
X34128Y11856D01*
X34087Y11853D01*
X34070Y11863D01*
X34026Y11885D01*
X33933Y11925D01*
X33803Y11977D01*
X33649Y12036D01*
X33619Y12047D01*
X33444Y12111D01*
X33319Y12153D01*
X33231Y12175D01*
X33168Y12180D01*
X33117Y12172D01*
X33105Y12168D01*
X33033Y12144D01*
X32995Y12134D01*
X32990Y12164D01*
X32986Y12247D01*
X32983Y12366D01*
X32983Y12428D01*
X32983Y12723D01*
X32617Y12834D01*
X32250Y12944D01*
X32250Y13172D01*
X32253Y13286D01*
X32263Y13367D01*
X32276Y13400D01*
X32276Y13400D01*
X32276Y13400D01*
G37*
G36*
X34108Y13425D02*
X34131Y13415D01*
X34145Y13357D01*
X34150Y13244D01*
X34150Y13208D01*
X34150Y12976D01*
X34008Y12925D01*
X33884Y12881D01*
X33747Y12835D01*
X33708Y12822D01*
X33550Y12771D01*
X33550Y12995D01*
X33550Y13218D01*
X33808Y13314D01*
X33933Y13360D01*
X34036Y13399D01*
X34100Y13422D01*
X34108Y13425D01*
X34108Y13425D01*
X34108Y13425D01*
G37*
G36*
X34150Y15067D02*
X34150Y14850D01*
X34150Y14634D01*
X33850Y14634D01*
X33550Y14634D01*
X33550Y14413D01*
X33549Y14296D01*
X33541Y14232D01*
X33523Y14207D01*
X33488Y14208D01*
X33475Y14212D01*
X33394Y14229D01*
X33286Y14248D01*
X33258Y14253D01*
X33117Y14275D01*
X33117Y14454D01*
X33117Y14634D01*
X32683Y14634D01*
X32250Y14634D01*
X32250Y14850D01*
X32250Y15067D01*
X33200Y15067D01*
X34150Y15067D01*
X34150Y15067D01*
X34150Y15067D01*
G37*
G36*
X32275Y14262D02*
X32312Y14260D01*
X32323Y14258D01*
X32380Y14246D01*
X32490Y14224D01*
X32641Y14195D01*
X32820Y14160D01*
X32975Y14130D01*
X33550Y14019D01*
X33550Y13792D01*
X33550Y13566D01*
X33459Y13588D01*
X33397Y13603D01*
X33283Y13629D01*
X33129Y13664D01*
X32950Y13704D01*
X32818Y13733D01*
X32267Y13855D01*
X32256Y14065D01*
X32252Y14179D01*
X32257Y14240D01*
X32275Y14262D01*
X32275Y14262D01*
X32275Y14262D01*
G37*
G36*
X33050Y5534D02*
X33050Y5317D01*
X33050Y5100D01*
X32867Y5100D01*
X32762Y5098D01*
X32707Y5087D01*
X32686Y5058D01*
X32683Y5002D01*
X32683Y5000D01*
X32683Y4900D01*
X32467Y4900D01*
X32250Y4900D01*
X32250Y5217D01*
X32250Y5534D01*
X32650Y5534D01*
X33050Y5534D01*
X33050Y5534D01*
X33050Y5534D01*
G37*
G36*
X32827Y12500D02*
X32839Y12470D01*
X32847Y12391D01*
X32850Y12292D01*
X32850Y12084D01*
X32550Y11977D01*
X32250Y11871D01*
X32250Y12101D01*
X32250Y12331D01*
X32527Y12416D01*
X32654Y12454D01*
X32756Y12483D01*
X32817Y12499D01*
X32827Y12500D01*
X32827Y12500D01*
X32827Y12500D01*
G37*
G36*
X32683Y-1500D02*
X32683Y-3000D01*
X32250Y-3000D01*
X32250Y-1500D01*
X32683Y-1500D01*
X32683Y-1500D01*
X32683Y-1500D01*
G37*
G36*
X32683Y3800D02*
X32683Y2300D01*
X32250Y2300D01*
X32250Y3800D01*
X32683Y3800D01*
X32683Y3800D01*
X32683Y3800D01*
G37*
G54D12*
X24742Y3892D02*
X25228Y3892D01*
X25285Y3921D01*
X25314Y3950D01*
X25342Y4007D01*
X25342Y4121D01*
X25314Y4178D01*
X25285Y4207D01*
X25228Y4235D01*
X24742Y4235D01*
X25342Y4835D02*
X25342Y4492D01*
X25342Y4664D02*
X24742Y4664D01*
X24828Y4607D01*
X24885Y4550D01*
X24914Y4492D01*
G54D13*
X5841Y15583D02*
X6125Y15583D01*
X6158Y15600D01*
X6175Y15616D01*
X6191Y15650D01*
X6191Y15716D01*
X6175Y15750D01*
X6158Y15766D01*
X6125Y15783D01*
X5841Y15783D01*
X5875Y15933D02*
X5858Y15950D01*
X5841Y15983D01*
X5841Y16066D01*
X5858Y16100D01*
X5875Y16116D01*
X5908Y16133D01*
X5941Y16133D01*
X5991Y16116D01*
X6191Y15916D01*
X6191Y16133D01*
G54D12*
X30364Y-1988D02*
X30602Y-1988D01*
X30102Y-2154D02*
X30364Y-1988D01*
X30102Y-1821D01*
X30602Y-1392D02*
X30602Y-1678D01*
X30602Y-1535D02*
X30102Y-1535D01*
X30173Y-1583D01*
X30221Y-1630D01*
X30245Y-1678D01*
X30914Y11911D02*
X31152Y11911D01*
X30652Y11745D02*
X30914Y11911D01*
X30652Y12078D01*
X30700Y12221D02*
X30676Y12245D01*
X30652Y12292D01*
X30652Y12411D01*
X30676Y12459D01*
X30700Y12483D01*
X30747Y12507D01*
X30795Y12507D01*
X30866Y12483D01*
X31152Y12197D01*
X31152Y12507D01*
G54D11*
X20814Y-1845D02*
X20795Y-1864D01*
X20738Y-1902D01*
X20700Y-1921D01*
X20642Y-1940D01*
X20547Y-1959D01*
X20471Y-1959D01*
X20376Y-1940D01*
X20319Y-1921D01*
X20280Y-1902D01*
X20223Y-1864D01*
X20204Y-1845D01*
X20642Y-1521D02*
X20661Y-1559D01*
X20661Y-1635D01*
X20642Y-1673D01*
X20623Y-1692D01*
X20585Y-1711D01*
X20471Y-1711D01*
X20433Y-1692D01*
X20414Y-1673D01*
X20395Y-1635D01*
X20395Y-1559D01*
X20414Y-1521D01*
X20814Y-1388D02*
X20795Y-1369D01*
X20738Y-1330D01*
X20700Y-1311D01*
X20642Y-1292D01*
X20547Y-1273D01*
X20471Y-1273D01*
X20376Y-1292D01*
X20319Y-1311D01*
X20280Y-1330D01*
X20223Y-1369D01*
X20204Y-1388D01*
X20300Y-797D02*
X20280Y-778D01*
X20261Y-740D01*
X20261Y-645D01*
X20280Y-607D01*
X20300Y-588D01*
X20338Y-569D01*
X20376Y-569D01*
X20433Y-588D01*
X20661Y-816D01*
X20661Y-569D01*
X20261Y-321D02*
X20261Y-283D01*
X20280Y-245D01*
X20300Y-226D01*
X20338Y-207D01*
X20414Y-188D01*
X20509Y-188D01*
X20585Y-207D01*
X20623Y-226D01*
X20642Y-245D01*
X20661Y-283D01*
X20661Y-321D01*
X20642Y-359D01*
X20623Y-378D01*
X20585Y-397D01*
X20509Y-416D01*
X20414Y-416D01*
X20338Y-397D01*
X20300Y-378D01*
X20280Y-359D01*
X20261Y-321D01*
X20661Y192D02*
X20661Y-35D01*
X20661Y78D02*
X20261Y78D01*
X20319Y40D01*
X20357Y2D01*
X20376Y-35D01*
X20261Y326D02*
X20261Y573D01*
X20414Y440D01*
X20414Y497D01*
X20433Y535D01*
X20452Y554D01*
X20490Y573D01*
X20585Y573D01*
X20623Y554D01*
X20642Y535D01*
X20661Y497D01*
X20661Y383D01*
X20642Y345D01*
X20623Y326D01*
X20261Y1011D02*
X20661Y1107D01*
X20376Y1183D01*
X20661Y1259D01*
X20261Y1354D01*
X20642Y1488D02*
X20661Y1545D01*
X20661Y1640D01*
X20642Y1678D01*
X20623Y1697D01*
X20585Y1716D01*
X20547Y1716D01*
X20509Y1697D01*
X20490Y1678D01*
X20471Y1640D01*
X20452Y1564D01*
X20433Y1526D01*
X20414Y1507D01*
X20376Y1488D01*
X20338Y1488D01*
X20300Y1507D01*
X20280Y1526D01*
X20261Y1564D01*
X20261Y1659D01*
X20280Y1716D01*
X20433Y1945D02*
X20414Y1907D01*
X20395Y1888D01*
X20357Y1869D01*
X20338Y1869D01*
X20300Y1888D01*
X20280Y1907D01*
X20261Y1945D01*
X20261Y2021D01*
X20280Y2059D01*
X20300Y2078D01*
X20338Y2097D01*
X20357Y2097D01*
X20395Y2078D01*
X20414Y2059D01*
X20433Y2021D01*
X20433Y1945D01*
X20452Y1907D01*
X20471Y1888D01*
X20509Y1869D01*
X20585Y1869D01*
X20623Y1888D01*
X20642Y1907D01*
X20661Y1945D01*
X20661Y2021D01*
X20642Y2059D01*
X20623Y2078D01*
X20585Y2097D01*
X20509Y2097D01*
X20471Y2078D01*
X20452Y2059D01*
X20433Y2021D01*
X20433Y2326D02*
X20414Y2288D01*
X20395Y2269D01*
X20357Y2250D01*
X20338Y2250D01*
X20300Y2269D01*
X20280Y2288D01*
X20261Y2326D01*
X20261Y2402D01*
X20280Y2440D01*
X20300Y2459D01*
X20338Y2478D01*
X20357Y2478D01*
X20395Y2459D01*
X20414Y2440D01*
X20433Y2402D01*
X20433Y2326D01*
X20452Y2288D01*
X20471Y2269D01*
X20509Y2250D01*
X20585Y2250D01*
X20623Y2269D01*
X20642Y2288D01*
X20661Y2326D01*
X20661Y2402D01*
X20642Y2440D01*
X20623Y2459D01*
X20585Y2478D01*
X20509Y2478D01*
X20471Y2459D01*
X20452Y2440D01*
X20433Y2402D01*
G54D10*
X24671Y-907D02*
X24371Y-907D01*
X24371Y-792D01*
X24385Y-764D01*
X24400Y-750D01*
X24428Y-735D01*
X24471Y-735D01*
X24500Y-750D01*
X24514Y-764D01*
X24528Y-792D01*
X24528Y-907D01*
X24671Y-478D02*
X24514Y-478D01*
X24485Y-492D01*
X24471Y-521D01*
X24471Y-578D01*
X24485Y-607D01*
X24657Y-478D02*
X24671Y-507D01*
X24671Y-578D01*
X24657Y-607D01*
X24628Y-621D01*
X24600Y-621D01*
X24571Y-607D01*
X24557Y-578D01*
X24557Y-507D01*
X24542Y-478D01*
X24471Y-207D02*
X24671Y-207D01*
X24471Y-335D02*
X24628Y-335D01*
X24657Y-321D01*
X24671Y-292D01*
X24671Y-250D01*
X24657Y-221D01*
X24642Y-207D01*
X24671Y-21D02*
X24657Y-50D01*
X24628Y-64D01*
X24371Y-64D01*
X24671Y492D02*
X24528Y392D01*
X24671Y321D02*
X24371Y321D01*
X24371Y435D01*
X24385Y464D01*
X24400Y478D01*
X24428Y492D01*
X24471Y492D01*
X24500Y478D01*
X24514Y464D01*
X24528Y435D01*
X24528Y321D01*
X24657Y735D02*
X24671Y707D01*
X24671Y650D01*
X24657Y621D01*
X24628Y607D01*
X24514Y607D01*
X24485Y621D01*
X24471Y650D01*
X24471Y707D01*
X24485Y735D01*
X24514Y750D01*
X24542Y750D01*
X24571Y607D01*
X24671Y878D02*
X24471Y878D01*
X24371Y878D02*
X24385Y864D01*
X24400Y878D01*
X24385Y892D01*
X24371Y878D01*
X24400Y878D01*
X24657Y1150D02*
X24671Y1121D01*
X24671Y1064D01*
X24657Y1035D01*
X24642Y1021D01*
X24614Y1007D01*
X24528Y1007D01*
X24500Y1021D01*
X24485Y1035D01*
X24471Y1064D01*
X24471Y1121D01*
X24485Y1150D01*
X24671Y1278D02*
X24371Y1278D01*
X24671Y1407D02*
X24514Y1407D01*
X24485Y1392D01*
X24471Y1364D01*
X24471Y1321D01*
X24485Y1292D01*
X24500Y1278D01*
G54D21*
X-357Y11857D02*
X-957Y11857D01*
X-957Y12085D01*
X-928Y12142D01*
X-900Y12171D01*
X-842Y12200D01*
X-757Y12200D01*
X-700Y12171D01*
X-671Y12142D01*
X-642Y12085D01*
X-642Y11857D01*
X-357Y12771D02*
X-357Y12428D01*
X-357Y12600D02*
X-957Y12600D01*
X-871Y12542D01*
X-814Y12485D01*
X-785Y12428D01*
G54D13*
X37025Y-3750D02*
X37008Y-3733D01*
X36991Y-3700D01*
X36991Y-3616D01*
X37008Y-3583D01*
X37025Y-3566D01*
X37058Y-3550D01*
X37091Y-3550D01*
X37141Y-3566D01*
X37341Y-3766D01*
X37341Y-3550D01*
X37308Y-3399D02*
X37325Y-3383D01*
X37341Y-3399D01*
X37325Y-3416D01*
X37308Y-3399D01*
X37341Y-3399D01*
X37108Y-3083D02*
X37341Y-3083D01*
X36975Y-3166D02*
X37225Y-3250D01*
X37225Y-3033D01*
X36991Y-2733D02*
X36991Y-2899D01*
X37158Y-2916D01*
X37141Y-2899D01*
X37125Y-2866D01*
X37125Y-2783D01*
X37141Y-2749D01*
X37158Y-2733D01*
X37191Y-2716D01*
X37275Y-2716D01*
X37308Y-2733D01*
X37325Y-2749D01*
X37341Y-2783D01*
X37341Y-2866D01*
X37325Y-2899D01*
X37308Y-2916D01*
X37008Y-2116D02*
X36991Y-2149D01*
X36991Y-2199D01*
X37008Y-2249D01*
X37041Y-2283D01*
X37075Y-2299D01*
X37141Y-2316D01*
X37191Y-2316D01*
X37258Y-2299D01*
X37291Y-2283D01*
X37325Y-2249D01*
X37341Y-2199D01*
X37341Y-2166D01*
X37325Y-2116D01*
X37308Y-2099D01*
X37191Y-2099D01*
X37191Y-2166D01*
X37341Y-1949D02*
X36991Y-1949D01*
X37158Y-1949D02*
X37158Y-1749D01*
X37341Y-1749D02*
X36991Y-1749D01*
X37108Y-1616D02*
X37108Y-1433D01*
X37341Y-1616D01*
X37341Y-1433D01*
X1658Y15583D02*
X1658Y15466D01*
X1841Y15466D02*
X1491Y15466D01*
X1491Y15633D01*
X1841Y15950D02*
X1841Y15750D01*
X1841Y15850D02*
X1491Y15850D01*
X1541Y15816D01*
X1575Y15783D01*
X1591Y15750D01*
X26658Y2875D02*
X26675Y2858D01*
X26691Y2808D01*
X26691Y2775D01*
X26675Y2725D01*
X26641Y2691D01*
X26608Y2675D01*
X26541Y2658D01*
X26491Y2658D01*
X26425Y2675D01*
X26391Y2691D01*
X26358Y2725D01*
X26341Y2775D01*
X26341Y2808D01*
X26358Y2858D01*
X26375Y2875D01*
X26691Y3208D02*
X26691Y3008D01*
X26691Y3108D02*
X26341Y3108D01*
X26391Y3075D01*
X26425Y3041D01*
X26441Y3008D01*
X26341Y3425D02*
X26341Y3458D01*
X26358Y3491D01*
X26375Y3508D01*
X26408Y3525D01*
X26475Y3541D01*
X26558Y3541D01*
X26625Y3525D01*
X26658Y3508D01*
X26675Y3491D01*
X26691Y3458D01*
X26691Y3425D01*
X26675Y3391D01*
X26658Y3375D01*
X26625Y3358D01*
X26558Y3341D01*
X26475Y3341D01*
X26408Y3358D01*
X26375Y3375D01*
X26358Y3391D01*
X26341Y3425D01*
X27158Y10341D02*
X27175Y10325D01*
X27191Y10275D01*
X27191Y10241D01*
X27175Y10191D01*
X27141Y10158D01*
X27108Y10141D01*
X27041Y10125D01*
X26991Y10125D01*
X26925Y10141D01*
X26891Y10158D01*
X26858Y10191D01*
X26841Y10241D01*
X26841Y10275D01*
X26858Y10325D01*
X26875Y10341D01*
X27191Y10508D02*
X27191Y10575D01*
X27175Y10608D01*
X27158Y10625D01*
X27108Y10658D01*
X27041Y10675D01*
X26908Y10675D01*
X26875Y10658D01*
X26858Y10641D01*
X26841Y10608D01*
X26841Y10541D01*
X26858Y10508D01*
X26875Y10491D01*
X26908Y10475D01*
X26991Y10475D01*
X27025Y10491D01*
X27041Y10508D01*
X27058Y10541D01*
X27058Y10608D01*
X27041Y10641D01*
X27025Y10658D01*
X26991Y10675D01*
X4708Y13375D02*
X4725Y13358D01*
X4741Y13308D01*
X4741Y13275D01*
X4725Y13225D01*
X4691Y13191D01*
X4658Y13175D01*
X4591Y13158D01*
X4541Y13158D01*
X4475Y13175D01*
X4441Y13191D01*
X4408Y13225D01*
X4391Y13275D01*
X4391Y13308D01*
X4408Y13358D01*
X4425Y13375D01*
X4741Y13708D02*
X4741Y13508D01*
X4741Y13608D02*
X4391Y13608D01*
X4441Y13575D01*
X4475Y13541D01*
X4491Y13508D01*
X4391Y13825D02*
X4391Y14041D01*
X4525Y13925D01*
X4525Y13975D01*
X4541Y14008D01*
X4558Y14025D01*
X4591Y14041D01*
X4675Y14041D01*
X4708Y14025D01*
X4725Y14008D01*
X4741Y13975D01*
X4741Y13875D01*
X4725Y13841D01*
X4708Y13825D01*
X31258Y1975D02*
X31275Y1958D01*
X31291Y1908D01*
X31291Y1875D01*
X31275Y1825D01*
X31241Y1791D01*
X31208Y1775D01*
X31141Y1758D01*
X31091Y1758D01*
X31025Y1775D01*
X30991Y1791D01*
X30958Y1825D01*
X30941Y1875D01*
X30941Y1908D01*
X30958Y1958D01*
X30975Y1975D01*
X31291Y2308D02*
X31291Y2108D01*
X31291Y2208D02*
X30941Y2208D01*
X30991Y2175D01*
X31025Y2141D01*
X31041Y2108D01*
X30975Y2441D02*
X30958Y2458D01*
X30941Y2491D01*
X30941Y2575D01*
X30958Y2608D01*
X30975Y2625D01*
X31008Y2641D01*
X31041Y2641D01*
X31091Y2625D01*
X31291Y2425D01*
X31291Y2641D01*
X1221Y13557D02*
X1078Y13457D01*
X1221Y13385D02*
X921Y13385D01*
X921Y13500D01*
X935Y13528D01*
X950Y13542D01*
X978Y13557D01*
X1021Y13557D01*
X1050Y13542D01*
X1064Y13528D01*
X1078Y13500D01*
X1078Y13385D01*
X1221Y13842D02*
X1221Y13671D01*
X1221Y13757D02*
X921Y13757D01*
X964Y13728D01*
X992Y13700D01*
X1007Y13671D01*
X1050Y14014D02*
X1035Y13985D01*
X1021Y13971D01*
X992Y13957D01*
X978Y13957D01*
X950Y13971D01*
X935Y13985D01*
X921Y14014D01*
X921Y14071D01*
X935Y14100D01*
X950Y14114D01*
X978Y14128D01*
X992Y14128D01*
X1021Y14114D01*
X1035Y14100D01*
X1050Y14071D01*
X1050Y14014D01*
X1064Y13985D01*
X1078Y13971D01*
X1107Y13957D01*
X1164Y13957D01*
X1192Y13971D01*
X1207Y13985D01*
X1221Y14014D01*
X1221Y14071D01*
X1207Y14100D01*
X1192Y14114D01*
X1164Y14128D01*
X1107Y14128D01*
X1078Y14114D01*
X1064Y14100D01*
X1050Y14071D01*
X-828Y13557D02*
X-971Y13457D01*
X-828Y13385D02*
X-1128Y13385D01*
X-1128Y13500D01*
X-1114Y13528D01*
X-1100Y13542D01*
X-1071Y13557D01*
X-1028Y13557D01*
X-1000Y13542D01*
X-985Y13528D01*
X-971Y13500D01*
X-971Y13385D01*
X-828Y13842D02*
X-828Y13671D01*
X-828Y13757D02*
X-1128Y13757D01*
X-1085Y13728D01*
X-1057Y13700D01*
X-1042Y13671D01*
X-1128Y13942D02*
X-1128Y14142D01*
X-828Y14014D01*
X13341Y9141D02*
X13175Y9025D01*
X13341Y8941D02*
X12991Y8941D01*
X12991Y9075D01*
X13008Y9108D01*
X13025Y9125D01*
X13058Y9141D01*
X13108Y9141D01*
X13141Y9125D01*
X13158Y9108D01*
X13175Y9075D01*
X13175Y8941D01*
X12991Y9458D02*
X12991Y9291D01*
X13158Y9275D01*
X13141Y9291D01*
X13125Y9325D01*
X13125Y9408D01*
X13141Y9441D01*
X13158Y9458D01*
X13191Y9475D01*
X13275Y9475D01*
X13308Y9458D01*
X13325Y9441D01*
X13341Y9408D01*
X13341Y9325D01*
X13325Y9291D01*
X13308Y9275D01*
X25421Y13100D02*
X25278Y13000D01*
X25421Y12928D02*
X25121Y12928D01*
X25121Y13042D01*
X25135Y13071D01*
X25150Y13085D01*
X25178Y13100D01*
X25221Y13100D01*
X25250Y13085D01*
X25264Y13071D01*
X25278Y13042D01*
X25278Y12928D01*
X25121Y13200D02*
X25121Y13400D01*
X25421Y13271D01*
X25421Y12100D02*
X25278Y12000D01*
X25421Y11928D02*
X25121Y11928D01*
X25121Y12042D01*
X25135Y12071D01*
X25150Y12085D01*
X25178Y12100D01*
X25221Y12100D01*
X25250Y12085D01*
X25264Y12071D01*
X25278Y12042D01*
X25278Y11928D01*
X25250Y12271D02*
X25235Y12242D01*
X25221Y12228D01*
X25192Y12214D01*
X25178Y12214D01*
X25150Y12228D01*
X25135Y12242D01*
X25121Y12271D01*
X25121Y12328D01*
X25135Y12357D01*
X25150Y12371D01*
X25178Y12385D01*
X25192Y12385D01*
X25221Y12371D01*
X25235Y12357D01*
X25250Y12328D01*
X25250Y12271D01*
X25264Y12242D01*
X25278Y12228D01*
X25307Y12214D01*
X25364Y12214D01*
X25392Y12228D01*
X25407Y12242D01*
X25421Y12271D01*
X25421Y12328D01*
X25407Y12357D01*
X25392Y12371D01*
X25364Y12385D01*
X25307Y12385D01*
X25278Y12371D01*
X25264Y12357D01*
X25250Y12328D01*
X13341Y5141D02*
X13175Y5025D01*
X13341Y4941D02*
X12991Y4941D01*
X12991Y5075D01*
X13008Y5108D01*
X13025Y5125D01*
X13058Y5141D01*
X13108Y5141D01*
X13141Y5125D01*
X13158Y5108D01*
X13175Y5075D01*
X13175Y4941D01*
X12991Y5258D02*
X12991Y5475D01*
X13125Y5358D01*
X13125Y5408D01*
X13141Y5441D01*
X13158Y5458D01*
X13191Y5475D01*
X13275Y5475D01*
X13308Y5458D01*
X13325Y5441D01*
X13341Y5408D01*
X13341Y5308D01*
X13325Y5275D01*
X13308Y5258D01*
X14341Y-1575D02*
X14175Y-1691D01*
X14341Y-1775D02*
X13991Y-1775D01*
X13991Y-1641D01*
X14008Y-1608D01*
X14025Y-1591D01*
X14058Y-1575D01*
X14108Y-1575D01*
X14141Y-1591D01*
X14158Y-1608D01*
X14175Y-1641D01*
X14175Y-1775D01*
X14025Y-1441D02*
X14008Y-1425D01*
X13991Y-1391D01*
X13991Y-1308D01*
X14008Y-1275D01*
X14025Y-1258D01*
X14058Y-1241D01*
X14091Y-1241D01*
X14141Y-1258D01*
X14341Y-1458D01*
X14341Y-1241D01*
X14341Y-908D02*
X14341Y-1108D01*
X14341Y-1008D02*
X13991Y-1008D01*
X14041Y-1041D01*
X14075Y-1075D01*
X14091Y-1108D01*
X13341Y3441D02*
X13175Y3325D01*
X13341Y3241D02*
X12991Y3241D01*
X12991Y3375D01*
X13008Y3408D01*
X13025Y3425D01*
X13058Y3441D01*
X13108Y3441D01*
X13141Y3425D01*
X13158Y3408D01*
X13175Y3375D01*
X13175Y3241D01*
X13025Y3575D02*
X13008Y3591D01*
X12991Y3625D01*
X12991Y3708D01*
X13008Y3741D01*
X13025Y3758D01*
X13058Y3775D01*
X13091Y3775D01*
X13141Y3758D01*
X13341Y3558D01*
X13341Y3775D01*
X11491Y12925D02*
X11325Y12808D01*
X11491Y12725D02*
X11141Y12725D01*
X11141Y12858D01*
X11158Y12891D01*
X11175Y12908D01*
X11208Y12925D01*
X11258Y12925D01*
X11291Y12908D01*
X11308Y12891D01*
X11325Y12858D01*
X11325Y12725D01*
X11491Y13258D02*
X11491Y13058D01*
X11491Y13158D02*
X11141Y13158D01*
X11191Y13125D01*
X11225Y13091D01*
X11241Y13058D01*
X11491Y13591D02*
X11491Y13391D01*
X11491Y13491D02*
X11141Y13491D01*
X11191Y13458D01*
X11225Y13425D01*
X11241Y13391D01*
X11491Y14125D02*
X11325Y14008D01*
X11491Y13925D02*
X11141Y13925D01*
X11141Y14058D01*
X11158Y14091D01*
X11175Y14108D01*
X11208Y14125D01*
X11258Y14125D01*
X11291Y14108D01*
X11308Y14091D01*
X11325Y14058D01*
X11325Y13925D01*
X11491Y14458D02*
X11491Y14258D01*
X11491Y14358D02*
X11141Y14358D01*
X11191Y14325D01*
X11225Y14291D01*
X11241Y14258D01*
X11141Y14675D02*
X11141Y14708D01*
X11158Y14741D01*
X11175Y14758D01*
X11208Y14775D01*
X11275Y14791D01*
X11358Y14791D01*
X11425Y14775D01*
X11458Y14758D01*
X11475Y14741D01*
X11491Y14708D01*
X11491Y14675D01*
X11475Y14641D01*
X11458Y14625D01*
X11425Y14608D01*
X11358Y14591D01*
X11275Y14591D01*
X11208Y14608D01*
X11175Y14625D01*
X11158Y14641D01*
X11141Y14675D01*
X13341Y7141D02*
X13175Y7025D01*
X13341Y6941D02*
X12991Y6941D01*
X12991Y7075D01*
X13008Y7108D01*
X13025Y7125D01*
X13058Y7141D01*
X13108Y7141D01*
X13141Y7125D01*
X13158Y7108D01*
X13175Y7075D01*
X13175Y6941D01*
X13108Y7441D02*
X13341Y7441D01*
X12975Y7358D02*
X13225Y7275D01*
X13225Y7491D01*
X25371Y9457D02*
X25228Y9357D01*
X25371Y9285D02*
X25071Y9285D01*
X25071Y9400D01*
X25085Y9428D01*
X25100Y9442D01*
X25128Y9457D01*
X25171Y9457D01*
X25200Y9442D01*
X25214Y9428D01*
X25228Y9400D01*
X25228Y9285D01*
X25371Y9742D02*
X25371Y9571D01*
X25371Y9657D02*
X25071Y9657D01*
X25114Y9628D01*
X25142Y9600D01*
X25157Y9571D01*
X25100Y9857D02*
X25085Y9871D01*
X25071Y9900D01*
X25071Y9971D01*
X25085Y10000D01*
X25100Y10014D01*
X25128Y10028D01*
X25157Y10028D01*
X25200Y10014D01*
X25371Y9842D01*
X25371Y10028D01*
X14621Y10107D02*
X14478Y10007D01*
X14621Y9935D02*
X14321Y9935D01*
X14321Y10050D01*
X14335Y10078D01*
X14350Y10092D01*
X14378Y10107D01*
X14421Y10107D01*
X14450Y10092D01*
X14464Y10078D01*
X14478Y10050D01*
X14478Y9935D01*
X14621Y10392D02*
X14621Y10221D01*
X14621Y10307D02*
X14321Y10307D01*
X14364Y10278D01*
X14392Y10250D01*
X14407Y10221D01*
X14321Y10492D02*
X14321Y10678D01*
X14435Y10578D01*
X14435Y10621D01*
X14450Y10650D01*
X14464Y10664D01*
X14492Y10678D01*
X14564Y10678D01*
X14592Y10664D01*
X14607Y10650D01*
X14621Y10621D01*
X14621Y10535D01*
X14607Y10507D01*
X14592Y10492D01*
X20721Y7557D02*
X20578Y7457D01*
X20721Y7385D02*
X20421Y7385D01*
X20421Y7500D01*
X20435Y7528D01*
X20450Y7542D01*
X20478Y7557D01*
X20521Y7557D01*
X20550Y7542D01*
X20564Y7528D01*
X20578Y7500D01*
X20578Y7385D01*
X20450Y7671D02*
X20435Y7685D01*
X20421Y7714D01*
X20421Y7785D01*
X20435Y7814D01*
X20450Y7828D01*
X20478Y7842D01*
X20507Y7842D01*
X20550Y7828D01*
X20721Y7657D01*
X20721Y7842D01*
X20421Y8028D02*
X20421Y8057D01*
X20435Y8085D01*
X20450Y8100D01*
X20478Y8114D01*
X20535Y8128D01*
X20607Y8128D01*
X20664Y8114D01*
X20692Y8100D01*
X20707Y8085D01*
X20721Y8057D01*
X20721Y8028D01*
X20707Y8000D01*
X20692Y7985D01*
X20664Y7971D01*
X20607Y7957D01*
X20535Y7957D01*
X20478Y7971D01*
X20450Y7985D01*
X20435Y8000D01*
X20421Y8028D01*
X8771Y13607D02*
X8628Y13507D01*
X8771Y13435D02*
X8471Y13435D01*
X8471Y13550D01*
X8485Y13578D01*
X8500Y13592D01*
X8528Y13607D01*
X8571Y13607D01*
X8600Y13592D01*
X8614Y13578D01*
X8628Y13550D01*
X8628Y13435D01*
X8771Y13892D02*
X8771Y13721D01*
X8771Y13807D02*
X8471Y13807D01*
X8514Y13778D01*
X8542Y13750D01*
X8557Y13721D01*
X8471Y14164D02*
X8471Y14021D01*
X8614Y14007D01*
X8600Y14021D01*
X8585Y14050D01*
X8585Y14121D01*
X8600Y14150D01*
X8614Y14164D01*
X8642Y14178D01*
X8714Y14178D01*
X8742Y14164D01*
X8757Y14150D01*
X8771Y14121D01*
X8771Y14050D01*
X8757Y14021D01*
X8742Y14007D01*
X13341Y1541D02*
X13175Y1425D01*
X13341Y1341D02*
X12991Y1341D01*
X12991Y1475D01*
X13008Y1508D01*
X13025Y1525D01*
X13058Y1541D01*
X13108Y1541D01*
X13141Y1525D01*
X13158Y1508D01*
X13175Y1475D01*
X13175Y1341D01*
X13341Y1875D02*
X13341Y1675D01*
X13341Y1775D02*
X12991Y1775D01*
X13041Y1741D01*
X13075Y1708D01*
X13091Y1675D01*
X5371Y11807D02*
X5228Y11707D01*
X5371Y11635D02*
X5071Y11635D01*
X5071Y11750D01*
X5085Y11778D01*
X5100Y11792D01*
X5128Y11807D01*
X5171Y11807D01*
X5200Y11792D01*
X5214Y11778D01*
X5228Y11750D01*
X5228Y11635D01*
X5371Y12092D02*
X5371Y11921D01*
X5371Y12007D02*
X5071Y12007D01*
X5114Y11978D01*
X5142Y11950D01*
X5157Y11921D01*
X5071Y12350D02*
X5071Y12292D01*
X5085Y12264D01*
X5100Y12250D01*
X5142Y12221D01*
X5200Y12207D01*
X5314Y12207D01*
X5342Y12221D01*
X5357Y12235D01*
X5371Y12264D01*
X5371Y12321D01*
X5357Y12350D01*
X5342Y12364D01*
X5314Y12378D01*
X5242Y12378D01*
X5214Y12364D01*
X5200Y12350D01*
X5185Y12321D01*
X5185Y12264D01*
X5200Y12235D01*
X5214Y12221D01*
X5242Y12207D01*
X20721Y9407D02*
X20578Y9307D01*
X20721Y9235D02*
X20421Y9235D01*
X20421Y9350D01*
X20435Y9378D01*
X20450Y9392D01*
X20478Y9407D01*
X20521Y9407D01*
X20550Y9392D01*
X20564Y9378D01*
X20578Y9350D01*
X20578Y9235D01*
X20721Y9692D02*
X20721Y9521D01*
X20721Y9607D02*
X20421Y9607D01*
X20464Y9578D01*
X20492Y9550D01*
X20507Y9521D01*
X20721Y9835D02*
X20721Y9892D01*
X20707Y9921D01*
X20692Y9935D01*
X20650Y9964D01*
X20592Y9978D01*
X20478Y9978D01*
X20450Y9964D01*
X20435Y9950D01*
X20421Y9921D01*
X20421Y9864D01*
X20435Y9835D01*
X20450Y9821D01*
X20478Y9807D01*
X20550Y9807D01*
X20578Y9821D01*
X20592Y9835D01*
X20607Y9864D01*
X20607Y9921D01*
X20592Y9950D01*
X20578Y9964D01*
X20550Y9978D01*
G54D12*
X26402Y-1235D02*
X26164Y-1435D01*
X26402Y-1578D02*
X25902Y-1578D01*
X25902Y-1350D01*
X25926Y-1292D01*
X25950Y-1264D01*
X25997Y-1235D01*
X26069Y-1235D01*
X26116Y-1264D01*
X26140Y-1292D01*
X26164Y-1350D01*
X26164Y-1578D01*
X26402Y-664D02*
X26402Y-1007D01*
X26402Y-835D02*
X25902Y-835D01*
X25973Y-892D01*
X26021Y-950D01*
X26045Y-1007D01*
X26069Y-150D02*
X26402Y-150D01*
X25878Y-292D02*
X26235Y-435D01*
X26235Y-64D01*
G54D13*
X25421Y14100D02*
X25278Y14000D01*
X25421Y13928D02*
X25121Y13928D01*
X25121Y14042D01*
X25135Y14071D01*
X25150Y14085D01*
X25178Y14100D01*
X25221Y14100D01*
X25250Y14085D01*
X25264Y14071D01*
X25278Y14042D01*
X25278Y13928D01*
X25421Y14242D02*
X25421Y14300D01*
X25407Y14328D01*
X25392Y14342D01*
X25350Y14371D01*
X25292Y14385D01*
X25178Y14385D01*
X25150Y14371D01*
X25135Y14357D01*
X25121Y14328D01*
X25121Y14271D01*
X25135Y14242D01*
X25150Y14228D01*
X25178Y14214D01*
X25250Y14214D01*
X25278Y14228D01*
X25292Y14242D01*
X25307Y14271D01*
X25307Y14328D01*
X25292Y14357D01*
X25278Y14371D01*
X25250Y14385D01*
X25371Y6500D02*
X25228Y6400D01*
X25371Y6328D02*
X25071Y6328D01*
X25071Y6442D01*
X25085Y6471D01*
X25100Y6485D01*
X25128Y6500D01*
X25171Y6500D01*
X25200Y6485D01*
X25214Y6471D01*
X25228Y6442D01*
X25228Y6328D01*
X25071Y6757D02*
X25071Y6700D01*
X25085Y6671D01*
X25100Y6657D01*
X25142Y6628D01*
X25200Y6614D01*
X25314Y6614D01*
X25342Y6628D01*
X25357Y6642D01*
X25371Y6671D01*
X25371Y6728D01*
X25357Y6757D01*
X25342Y6771D01*
X25314Y6785D01*
X25242Y6785D01*
X25214Y6771D01*
X25200Y6757D01*
X25185Y6728D01*
X25185Y6671D01*
X25200Y6642D01*
X25214Y6628D01*
X25242Y6614D01*
X29208Y-58D02*
X29225Y-75D01*
X29241Y-125D01*
X29241Y-158D01*
X29225Y-208D01*
X29191Y-241D01*
X29158Y-258D01*
X29091Y-275D01*
X29041Y-275D01*
X28975Y-258D01*
X28941Y-241D01*
X28908Y-208D01*
X28891Y-158D01*
X28891Y-125D01*
X28908Y-75D01*
X28925Y-58D01*
X28891Y58D02*
X28891Y275D01*
X29025Y158D01*
X29025Y208D01*
X29041Y241D01*
X29058Y258D01*
X29091Y275D01*
X29175Y275D01*
X29208Y258D01*
X29225Y241D01*
X29241Y208D01*
X29241Y108D01*
X29225Y75D01*
X29208Y58D01*
X30408Y3791D02*
X30425Y3775D01*
X30441Y3725D01*
X30441Y3691D01*
X30425Y3641D01*
X30391Y3608D01*
X30358Y3591D01*
X30291Y3575D01*
X30241Y3575D01*
X30175Y3591D01*
X30141Y3608D01*
X30108Y3641D01*
X30091Y3691D01*
X30091Y3725D01*
X30108Y3775D01*
X30125Y3791D01*
X30241Y3991D02*
X30225Y3958D01*
X30208Y3941D01*
X30175Y3925D01*
X30158Y3925D01*
X30125Y3941D01*
X30108Y3958D01*
X30091Y3991D01*
X30091Y4058D01*
X30108Y4091D01*
X30125Y4108D01*
X30158Y4125D01*
X30175Y4125D01*
X30208Y4108D01*
X30225Y4091D01*
X30241Y4058D01*
X30241Y3991D01*
X30258Y3958D01*
X30275Y3941D01*
X30308Y3925D01*
X30375Y3925D01*
X30408Y3941D01*
X30425Y3958D01*
X30441Y3991D01*
X30441Y4058D01*
X30425Y4091D01*
X30408Y4108D01*
X30375Y4125D01*
X30308Y4125D01*
X30275Y4108D01*
X30258Y4091D01*
X30241Y4058D01*
X7258Y14395D02*
X7275Y14378D01*
X7291Y14328D01*
X7291Y14295D01*
X7275Y14245D01*
X7241Y14211D01*
X7208Y14195D01*
X7141Y14178D01*
X7091Y14178D01*
X7025Y14195D01*
X6991Y14211D01*
X6958Y14245D01*
X6941Y14295D01*
X6941Y14328D01*
X6958Y14378D01*
X6975Y14395D01*
X7291Y14728D02*
X7291Y14528D01*
X7291Y14628D02*
X6941Y14628D01*
X6991Y14595D01*
X7025Y14561D01*
X7041Y14528D01*
X7058Y15028D02*
X7291Y15028D01*
X6925Y14945D02*
X7175Y14861D01*
X7175Y15078D01*
G54D10*
X30092Y8950D02*
X30107Y8935D01*
X30121Y8892D01*
X30121Y8864D01*
X30107Y8821D01*
X30078Y8792D01*
X30050Y8778D01*
X29992Y8764D01*
X29950Y8764D01*
X29892Y8778D01*
X29864Y8792D01*
X29835Y8821D01*
X29821Y8864D01*
X29821Y8892D01*
X29835Y8935D01*
X29850Y8950D01*
X29821Y9221D02*
X29821Y9078D01*
X29964Y9064D01*
X29950Y9078D01*
X29935Y9107D01*
X29935Y9178D01*
X29950Y9207D01*
X29964Y9221D01*
X29992Y9235D01*
X30064Y9235D01*
X30092Y9221D01*
X30107Y9207D01*
X30121Y9178D01*
X30121Y9107D01*
X30107Y9078D01*
X30092Y9064D01*
G54D13*
X28458Y-58D02*
X28475Y-75D01*
X28491Y-125D01*
X28491Y-158D01*
X28475Y-208D01*
X28441Y-241D01*
X28408Y-258D01*
X28341Y-275D01*
X28291Y-275D01*
X28225Y-258D01*
X28191Y-241D01*
X28158Y-208D01*
X28141Y-158D01*
X28141Y-125D01*
X28158Y-75D01*
X28175Y-58D01*
X28258Y241D02*
X28491Y241D01*
X28125Y158D02*
X28375Y75D01*
X28375Y291D01*
G54D10*
X30092Y8200D02*
X30107Y8185D01*
X30121Y8142D01*
X30121Y8114D01*
X30107Y8071D01*
X30078Y8042D01*
X30050Y8028D01*
X29992Y8014D01*
X29950Y8014D01*
X29892Y8028D01*
X29864Y8042D01*
X29835Y8071D01*
X29821Y8114D01*
X29821Y8142D01*
X29835Y8185D01*
X29850Y8200D01*
X29821Y8457D02*
X29821Y8400D01*
X29835Y8371D01*
X29850Y8357D01*
X29892Y8328D01*
X29950Y8314D01*
X30064Y8314D01*
X30092Y8328D01*
X30107Y8342D01*
X30121Y8371D01*
X30121Y8428D01*
X30107Y8457D01*
X30092Y8471D01*
X30064Y8485D01*
X29992Y8485D01*
X29964Y8471D01*
X29950Y8457D01*
X29935Y8428D01*
X29935Y8371D01*
X29950Y8342D01*
X29964Y8328D01*
X29992Y8314D01*
G54D11*
X19932Y11417D02*
X19482Y11417D01*
X19482Y11589D01*
X19503Y11632D01*
X19525Y11653D01*
X19567Y11675D01*
X19632Y11675D01*
X19675Y11653D01*
X19696Y11632D01*
X19717Y11589D01*
X19717Y11417D01*
X19525Y11846D02*
X19503Y11867D01*
X19482Y11910D01*
X19482Y12017D01*
X19503Y12060D01*
X19525Y12082D01*
X19567Y12103D01*
X19610Y12103D01*
X19675Y12082D01*
X19932Y11825D01*
X19932Y12103D01*
G54D13*
X30508Y6841D02*
X30525Y6825D01*
X30541Y6775D01*
X30541Y6741D01*
X30525Y6691D01*
X30491Y6658D01*
X30458Y6641D01*
X30391Y6625D01*
X30341Y6625D01*
X30275Y6641D01*
X30241Y6658D01*
X30208Y6691D01*
X30191Y6741D01*
X30191Y6775D01*
X30208Y6825D01*
X30225Y6841D01*
X30541Y7175D02*
X30541Y6975D01*
X30541Y7075D02*
X30191Y7075D01*
X30241Y7041D01*
X30275Y7008D01*
X30291Y6975D01*
X28008Y3075D02*
X28025Y3058D01*
X28041Y3008D01*
X28041Y2975D01*
X28025Y2925D01*
X27991Y2891D01*
X27958Y2875D01*
X27891Y2858D01*
X27841Y2858D01*
X27775Y2875D01*
X27741Y2891D01*
X27708Y2925D01*
X27691Y2975D01*
X27691Y3008D01*
X27708Y3058D01*
X27725Y3075D01*
X28041Y3408D02*
X28041Y3208D01*
X28041Y3308D02*
X27691Y3308D01*
X27741Y3275D01*
X27775Y3241D01*
X27791Y3208D01*
X28041Y3741D02*
X28041Y3541D01*
X28041Y3641D02*
X27691Y3641D01*
X27741Y3608D01*
X27775Y3575D01*
X27791Y3541D01*
X30508Y5041D02*
X30525Y5025D01*
X30541Y4975D01*
X30541Y4941D01*
X30525Y4891D01*
X30491Y4858D01*
X30458Y4841D01*
X30391Y4825D01*
X30341Y4825D01*
X30275Y4841D01*
X30241Y4858D01*
X30208Y4891D01*
X30191Y4941D01*
X30191Y4975D01*
X30208Y5025D01*
X30225Y5041D01*
X30225Y5175D02*
X30208Y5191D01*
X30191Y5225D01*
X30191Y5308D01*
X30208Y5341D01*
X30225Y5358D01*
X30258Y5375D01*
X30291Y5375D01*
X30341Y5358D01*
X30541Y5158D01*
X30541Y5375D01*
X2208Y14125D02*
X2225Y14108D01*
X2241Y14058D01*
X2241Y14025D01*
X2225Y13975D01*
X2191Y13941D01*
X2158Y13925D01*
X2091Y13908D01*
X2041Y13908D01*
X1975Y13925D01*
X1941Y13941D01*
X1908Y13975D01*
X1891Y14025D01*
X1891Y14058D01*
X1908Y14108D01*
X1925Y14125D01*
X2241Y14458D02*
X2241Y14258D01*
X2241Y14358D02*
X1891Y14358D01*
X1941Y14325D01*
X1975Y14291D01*
X1991Y14258D01*
X1891Y14775D02*
X1891Y14608D01*
X2058Y14591D01*
X2041Y14608D01*
X2025Y14641D01*
X2025Y14725D01*
X2041Y14758D01*
X2058Y14775D01*
X2091Y14791D01*
X2175Y14791D01*
X2208Y14775D01*
X2225Y14758D01*
X2241Y14725D01*
X2241Y14641D01*
X2225Y14608D01*
X2208Y14591D01*
X1291Y11358D02*
X1291Y11708D01*
X1375Y11708D01*
X1425Y11691D01*
X1458Y11658D01*
X1475Y11625D01*
X1491Y11558D01*
X1491Y11508D01*
X1475Y11441D01*
X1458Y11408D01*
X1425Y11375D01*
X1375Y11358D01*
X1291Y11358D01*
X1641Y11491D02*
X1908Y11491D01*
X1775Y11358D02*
X1775Y11625D01*
G54D11*
X21561Y13795D02*
X21561Y14023D01*
X21961Y13909D02*
X21561Y13909D01*
X21561Y14119D02*
X21961Y14385D01*
X21561Y14385D02*
X21961Y14119D01*
X21961Y14538D02*
X21561Y14538D01*
X21561Y14633D01*
X21580Y14690D01*
X21619Y14728D01*
X21657Y14747D01*
X21733Y14766D01*
X21790Y14766D01*
X21866Y14747D01*
X21904Y14728D01*
X21942Y14690D01*
X21961Y14633D01*
X21961Y14538D01*
X24461Y14033D02*
X24271Y13900D01*
X24461Y13804D02*
X24061Y13804D01*
X24061Y13957D01*
X24080Y13995D01*
X24100Y14014D01*
X24138Y14033D01*
X24195Y14033D01*
X24233Y14014D01*
X24252Y13995D01*
X24271Y13957D01*
X24271Y13804D01*
X24061Y14166D02*
X24461Y14433D01*
X24061Y14433D02*
X24461Y14166D01*
X24461Y14585D02*
X24061Y14585D01*
X24061Y14680D01*
X24080Y14738D01*
X24119Y14776D01*
X24157Y14795D01*
X24233Y14814D01*
X24290Y14814D01*
X24366Y14795D01*
X24404Y14776D01*
X24442Y14738D01*
X24461Y14680D01*
X24461Y14585D01*
G54D13*
X191Y11358D02*
X191Y11708D01*
X275Y11708D01*
X325Y11691D01*
X358Y11658D01*
X375Y11625D01*
X391Y11558D01*
X391Y11508D01*
X375Y11441D01*
X358Y11408D01*
X325Y11375D01*
X275Y11358D01*
X191Y11358D01*
X541Y11491D02*
X808Y11491D01*
G54D21*
X14Y-1964D02*
X14Y-1507D01*
X242Y-1735D02*
X-214Y-1735D01*
X-357Y-935D02*
X-357Y-1221D01*
X-71Y-1250D01*
X-100Y-1221D01*
X-128Y-1164D01*
X-128Y-1021D01*
X-100Y-964D01*
X-71Y-935D01*
X-14Y-907D01*
X128Y-907D01*
X185Y-935D01*
X214Y-964D01*
X242Y-1021D01*
X242Y-1164D01*
X214Y-1221D01*
X185Y-1250D01*
X18721Y-107D02*
X18692Y-164D01*
X18692Y-249D01*
X18721Y-335D01*
X18778Y-392D01*
X18835Y-421D01*
X18950Y-449D01*
X19035Y-449D01*
X19150Y-421D01*
X19207Y-392D01*
X19264Y-335D01*
X19292Y-249D01*
X19292Y-192D01*
X19264Y-107D01*
X19235Y-78D01*
X19035Y-78D01*
X19035Y-192D01*
X19292Y178D02*
X18692Y178D01*
X19292Y521D01*
X18692Y521D01*
X19292Y807D02*
X18692Y807D01*
X18692Y950D01*
X18721Y1035D01*
X18778Y1092D01*
X18835Y1121D01*
X18950Y1150D01*
X19035Y1150D01*
X19150Y1121D01*
X19207Y1092D01*
X19264Y1035D01*
X19292Y950D01*
X19292Y807D01*
X14792Y8100D02*
X14192Y8100D01*
X14192Y8328D01*
X14221Y8385D01*
X14250Y8414D01*
X14307Y8442D01*
X14392Y8442D01*
X14450Y8414D01*
X14478Y8385D01*
X14507Y8328D01*
X14507Y8100D01*
X14478Y8900D02*
X14478Y8700D01*
X14792Y8700D02*
X14192Y8700D01*
X14192Y8985D01*
X14792Y9528D02*
X14792Y9185D01*
X14792Y9357D02*
X14192Y9357D01*
X14278Y9300D01*
X14335Y9242D01*
X14364Y9185D01*
X19864Y5542D02*
X19892Y5628D01*
X19892Y5771D01*
X19864Y5828D01*
X19835Y5857D01*
X19778Y5885D01*
X19721Y5885D01*
X19664Y5857D01*
X19635Y5828D01*
X19607Y5771D01*
X19578Y5657D01*
X19550Y5600D01*
X19521Y5571D01*
X19464Y5542D01*
X19407Y5542D01*
X19350Y5571D01*
X19321Y5600D01*
X19292Y5657D01*
X19292Y5800D01*
X19321Y5885D01*
X19292Y6085D02*
X19292Y6457D01*
X19521Y6257D01*
X19521Y6342D01*
X19550Y6400D01*
X19578Y6428D01*
X19635Y6457D01*
X19778Y6457D01*
X19835Y6428D01*
X19864Y6400D01*
X19892Y6342D01*
X19892Y6171D01*
X19864Y6114D01*
X19835Y6085D01*
X14792Y5350D02*
X14192Y5350D01*
X14192Y5578D01*
X14221Y5635D01*
X14250Y5664D01*
X14307Y5692D01*
X14392Y5692D01*
X14450Y5664D01*
X14478Y5635D01*
X14507Y5578D01*
X14507Y5350D01*
X14478Y6150D02*
X14478Y5950D01*
X14792Y5950D02*
X14192Y5950D01*
X14192Y6235D01*
X14250Y6435D02*
X14221Y6464D01*
X14192Y6521D01*
X14192Y6664D01*
X14221Y6721D01*
X14250Y6750D01*
X14307Y6778D01*
X14364Y6778D01*
X14450Y6750D01*
X14792Y6407D01*
X14792Y6778D01*
X19864Y2742D02*
X19892Y2828D01*
X19892Y2971D01*
X19864Y3028D01*
X19835Y3057D01*
X19778Y3085D01*
X19721Y3085D01*
X19664Y3057D01*
X19635Y3028D01*
X19607Y2971D01*
X19578Y2857D01*
X19550Y2800D01*
X19521Y2771D01*
X19464Y2742D01*
X19407Y2742D01*
X19350Y2771D01*
X19321Y2800D01*
X19292Y2857D01*
X19292Y3000D01*
X19321Y3085D01*
X19892Y3657D02*
X19892Y3314D01*
X19892Y3485D02*
X19292Y3485D01*
X19378Y3428D01*
X19435Y3371D01*
X19464Y3314D01*
X14792Y2378D02*
X14507Y2178D01*
X14792Y2035D02*
X14192Y2035D01*
X14192Y2264D01*
X14221Y2321D01*
X14250Y2350D01*
X14307Y2378D01*
X14392Y2378D01*
X14450Y2350D01*
X14478Y2321D01*
X14507Y2264D01*
X14507Y2035D01*
X14478Y2635D02*
X14478Y2835D01*
X14792Y2921D02*
X14792Y2635D01*
X14192Y2635D01*
X14192Y2921D01*
X14764Y3150D02*
X14792Y3235D01*
X14792Y3378D01*
X14764Y3435D01*
X14735Y3464D01*
X14678Y3492D01*
X14621Y3492D01*
X14564Y3464D01*
X14535Y3435D01*
X14507Y3378D01*
X14478Y3264D01*
X14450Y3207D01*
X14421Y3178D01*
X14364Y3150D01*
X14307Y3150D01*
X14250Y3178D01*
X14221Y3207D01*
X14192Y3264D01*
X14192Y3407D01*
X14221Y3492D01*
X14478Y3750D02*
X14478Y3950D01*
X14792Y4035D02*
X14792Y3750D01*
X14192Y3750D01*
X14192Y4035D01*
X14192Y4207D02*
X14192Y4550D01*
X14792Y4378D02*
X14192Y4378D01*
X17042Y14000D02*
X17471Y14000D01*
X17557Y13971D01*
X17614Y13914D01*
X17642Y13828D01*
X17642Y13771D01*
X17042Y14228D02*
X17042Y14600D01*
X17271Y14400D01*
X17271Y14485D01*
X17300Y14542D01*
X17328Y14571D01*
X17385Y14600D01*
X17528Y14600D01*
X17585Y14571D01*
X17614Y14542D01*
X17642Y14485D01*
X17642Y14314D01*
X17614Y14257D01*
X17585Y14228D01*
X9642Y14000D02*
X10071Y14000D01*
X10157Y13971D01*
X10214Y13914D01*
X10242Y13828D01*
X10242Y13771D01*
X9842Y14542D02*
X10242Y14542D01*
X9614Y14400D02*
X10042Y14257D01*
X10042Y14628D01*
G54D12*
X24202Y-3566D02*
X24559Y-3566D01*
X24630Y-3590D01*
X24678Y-3638D01*
X24702Y-3709D01*
X24702Y-3757D01*
X24250Y-3352D02*
X24226Y-3328D01*
X24202Y-3280D01*
X24202Y-3161D01*
X24226Y-3114D01*
X24250Y-3090D01*
X24297Y-3066D01*
X24345Y-3066D01*
X24416Y-3090D01*
X24702Y-3376D01*
X24702Y-3066D01*
X17202Y-3566D02*
X17559Y-3566D01*
X17630Y-3590D01*
X17678Y-3638D01*
X17702Y-3709D01*
X17702Y-3757D01*
X17702Y-3066D02*
X17702Y-3352D01*
X17702Y-3209D02*
X17202Y-3209D01*
X17273Y-3257D01*
X17321Y-3304D01*
X17345Y-3352D01*
G54D13*
X13441Y11625D02*
X13091Y11625D01*
X13091Y11708D01*
X13108Y11758D01*
X13141Y11791D01*
X13175Y11808D01*
X13241Y11825D01*
X13291Y11825D01*
X13358Y11808D01*
X13391Y11791D01*
X13425Y11758D01*
X13441Y11708D01*
X13441Y11625D01*
X13208Y12125D02*
X13441Y12125D01*
X13075Y12041D02*
X13325Y11958D01*
X13325Y12175D01*
X13091Y12475D02*
X13091Y12308D01*
X13258Y12291D01*
X13241Y12308D01*
X13225Y12341D01*
X13225Y12425D01*
X13241Y12458D01*
X13258Y12475D01*
X13291Y12491D01*
X13375Y12491D01*
X13408Y12475D01*
X13425Y12458D01*
X13441Y12425D01*
X13441Y12341D01*
X13425Y12308D01*
X13408Y12291D01*
X30021Y11835D02*
X29721Y11835D01*
X29721Y11907D01*
X29735Y11950D01*
X29764Y11978D01*
X29792Y11992D01*
X29850Y12007D01*
X29892Y12007D01*
X29950Y11992D01*
X29978Y11978D01*
X30007Y11950D01*
X30021Y11907D01*
X30021Y11835D01*
X29821Y12264D02*
X30021Y12264D01*
X29707Y12192D02*
X29921Y12121D01*
X29921Y12307D01*
X30021Y12578D02*
X30021Y12407D01*
X30021Y12492D02*
X29721Y12492D01*
X29764Y12464D01*
X29792Y12435D01*
X29807Y12407D01*
X28961Y11771D02*
X28961Y11942D01*
X29361Y11857D02*
X28961Y11857D01*
X28961Y12014D02*
X29361Y12214D01*
X28961Y12214D02*
X29361Y12014D01*
X29361Y12328D02*
X28961Y12328D01*
X28961Y12400D01*
X28980Y12442D01*
X29019Y12471D01*
X29057Y12485D01*
X29133Y12500D01*
X29190Y12500D01*
X29266Y12485D01*
X29304Y12471D01*
X29342Y12442D01*
X29361Y12400D01*
X29361Y12328D01*
X6141Y9175D02*
X5791Y9175D01*
X5791Y9258D01*
X5808Y9308D01*
X5841Y9341D01*
X5875Y9358D01*
X5941Y9375D01*
X5991Y9375D01*
X6058Y9358D01*
X6091Y9341D01*
X6125Y9308D01*
X6141Y9258D01*
X6141Y9175D01*
X5825Y9508D02*
X5808Y9525D01*
X5791Y9558D01*
X5791Y9641D01*
X5808Y9675D01*
X5825Y9691D01*
X5858Y9708D01*
X5891Y9708D01*
X5941Y9691D01*
X6141Y9491D01*
X6141Y9708D01*
X5791Y10025D02*
X5791Y9858D01*
X5958Y9841D01*
X5941Y9858D01*
X5925Y9891D01*
X5925Y9975D01*
X5941Y10008D01*
X5958Y10025D01*
X5991Y10041D01*
X6075Y10041D01*
X6108Y10025D01*
X6125Y10008D01*
X6141Y9975D01*
X6141Y9891D01*
X6125Y9858D01*
X6108Y9841D01*
X7741Y1075D02*
X7391Y1075D01*
X7391Y1158D01*
X7408Y1208D01*
X7441Y1241D01*
X7475Y1258D01*
X7541Y1275D01*
X7591Y1275D01*
X7658Y1258D01*
X7691Y1241D01*
X7725Y1208D01*
X7741Y1158D01*
X7741Y1075D01*
X7425Y1408D02*
X7408Y1425D01*
X7391Y1458D01*
X7391Y1541D01*
X7408Y1575D01*
X7425Y1591D01*
X7458Y1608D01*
X7491Y1608D01*
X7541Y1591D01*
X7741Y1391D01*
X7741Y1608D01*
X7391Y1908D02*
X7391Y1841D01*
X7408Y1808D01*
X7425Y1791D01*
X7475Y1758D01*
X7541Y1741D01*
X7675Y1741D01*
X7708Y1758D01*
X7725Y1775D01*
X7741Y1808D01*
X7741Y1875D01*
X7725Y1908D01*
X7708Y1925D01*
X7675Y1941D01*
X7591Y1941D01*
X7558Y1925D01*
X7541Y1908D01*
X7525Y1875D01*
X7525Y1808D01*
X7541Y1775D01*
X7558Y1758D01*
X7591Y1741D01*
X7741Y9175D02*
X7391Y9175D01*
X7391Y9258D01*
X7408Y9308D01*
X7441Y9341D01*
X7475Y9358D01*
X7541Y9375D01*
X7591Y9375D01*
X7658Y9358D01*
X7691Y9341D01*
X7725Y9308D01*
X7741Y9258D01*
X7741Y9175D01*
X7391Y9491D02*
X7391Y9708D01*
X7525Y9591D01*
X7525Y9641D01*
X7541Y9675D01*
X7558Y9691D01*
X7591Y9708D01*
X7675Y9708D01*
X7708Y9691D01*
X7725Y9675D01*
X7741Y9641D01*
X7741Y9541D01*
X7725Y9508D01*
X7708Y9491D01*
X7391Y9925D02*
X7391Y9958D01*
X7408Y9991D01*
X7425Y10008D01*
X7458Y10025D01*
X7525Y10041D01*
X7608Y10041D01*
X7675Y10025D01*
X7708Y10008D01*
X7725Y9991D01*
X7741Y9958D01*
X7741Y9925D01*
X7725Y9891D01*
X7708Y9875D01*
X7675Y9858D01*
X7608Y9841D01*
X7525Y9841D01*
X7458Y9858D01*
X7425Y9875D01*
X7408Y9891D01*
X7391Y9925D01*
X9341Y1075D02*
X8991Y1075D01*
X8991Y1158D01*
X9008Y1208D01*
X9041Y1241D01*
X9075Y1258D01*
X9141Y1275D01*
X9191Y1275D01*
X9258Y1258D01*
X9291Y1241D01*
X9325Y1208D01*
X9341Y1158D01*
X9341Y1075D01*
X8991Y1391D02*
X8991Y1608D01*
X9125Y1491D01*
X9125Y1541D01*
X9141Y1575D01*
X9158Y1591D01*
X9191Y1608D01*
X9275Y1608D01*
X9308Y1591D01*
X9325Y1575D01*
X9341Y1541D01*
X9341Y1441D01*
X9325Y1408D01*
X9308Y1391D01*
X9341Y1941D02*
X9341Y1741D01*
X9341Y1841D02*
X8991Y1841D01*
X9041Y1808D01*
X9075Y1775D01*
X9091Y1741D01*
X9341Y9175D02*
X8991Y9175D01*
X8991Y9258D01*
X9008Y9308D01*
X9041Y9341D01*
X9075Y9358D01*
X9141Y9375D01*
X9191Y9375D01*
X9258Y9358D01*
X9291Y9341D01*
X9325Y9308D01*
X9341Y9258D01*
X9341Y9175D01*
X8991Y9491D02*
X8991Y9708D01*
X9125Y9591D01*
X9125Y9641D01*
X9141Y9675D01*
X9158Y9691D01*
X9191Y9708D01*
X9275Y9708D01*
X9308Y9691D01*
X9325Y9675D01*
X9341Y9641D01*
X9341Y9541D01*
X9325Y9508D01*
X9308Y9491D01*
X8991Y10025D02*
X8991Y9858D01*
X9158Y9841D01*
X9141Y9858D01*
X9125Y9891D01*
X9125Y9975D01*
X9141Y10008D01*
X9158Y10025D01*
X9191Y10041D01*
X9275Y10041D01*
X9308Y10025D01*
X9325Y10008D01*
X9341Y9975D01*
X9341Y9891D01*
X9325Y9858D01*
X9308Y9841D01*
X10941Y1075D02*
X10591Y1075D01*
X10591Y1158D01*
X10608Y1208D01*
X10641Y1241D01*
X10675Y1258D01*
X10741Y1275D01*
X10791Y1275D01*
X10858Y1258D01*
X10891Y1241D01*
X10925Y1208D01*
X10941Y1158D01*
X10941Y1075D01*
X10591Y1391D02*
X10591Y1608D01*
X10725Y1491D01*
X10725Y1541D01*
X10741Y1575D01*
X10758Y1591D01*
X10791Y1608D01*
X10875Y1608D01*
X10908Y1591D01*
X10925Y1575D01*
X10941Y1541D01*
X10941Y1441D01*
X10925Y1408D01*
X10908Y1391D01*
X10591Y1908D02*
X10591Y1841D01*
X10608Y1808D01*
X10625Y1791D01*
X10675Y1758D01*
X10741Y1741D01*
X10875Y1741D01*
X10908Y1758D01*
X10925Y1775D01*
X10941Y1808D01*
X10941Y1875D01*
X10925Y1908D01*
X10908Y1925D01*
X10875Y1941D01*
X10791Y1941D01*
X10758Y1925D01*
X10741Y1908D01*
X10725Y1875D01*
X10725Y1808D01*
X10741Y1775D01*
X10758Y1758D01*
X10791Y1741D01*
X-258Y1041D02*
X-608Y1041D01*
X-608Y1125D01*
X-591Y1175D01*
X-558Y1208D01*
X-525Y1225D01*
X-458Y1241D01*
X-408Y1241D01*
X-341Y1225D01*
X-308Y1208D01*
X-275Y1175D01*
X-258Y1125D01*
X-258Y1041D01*
X-258Y1575D02*
X-258Y1375D01*
X-258Y1475D02*
X-608Y1475D01*
X-558Y1441D01*
X-525Y1408D01*
X-508Y1375D01*
X-258Y9241D02*
X-608Y9241D01*
X-608Y9325D01*
X-591Y9375D01*
X-558Y9408D01*
X-525Y9425D01*
X-458Y9441D01*
X-408Y9441D01*
X-341Y9425D01*
X-308Y9408D01*
X-275Y9375D01*
X-258Y9325D01*
X-258Y9241D01*
X-608Y9758D02*
X-608Y9591D01*
X-441Y9575D01*
X-458Y9591D01*
X-475Y9625D01*
X-475Y9708D01*
X-458Y9741D01*
X-441Y9758D01*
X-408Y9775D01*
X-325Y9775D01*
X-291Y9758D01*
X-275Y9741D01*
X-258Y9708D01*
X-258Y9625D01*
X-275Y9591D01*
X-291Y9575D01*
X1341Y1041D02*
X991Y1041D01*
X991Y1125D01*
X1008Y1175D01*
X1041Y1208D01*
X1075Y1225D01*
X1141Y1241D01*
X1191Y1241D01*
X1258Y1225D01*
X1291Y1208D01*
X1325Y1175D01*
X1341Y1125D01*
X1341Y1041D01*
X991Y1541D02*
X991Y1475D01*
X1008Y1441D01*
X1025Y1425D01*
X1075Y1391D01*
X1141Y1375D01*
X1275Y1375D01*
X1308Y1391D01*
X1325Y1408D01*
X1341Y1441D01*
X1341Y1508D01*
X1325Y1541D01*
X1308Y1558D01*
X1275Y1575D01*
X1191Y1575D01*
X1158Y1558D01*
X1141Y1541D01*
X1125Y1508D01*
X1125Y1441D01*
X1141Y1408D01*
X1158Y1391D01*
X1191Y1375D01*
X1341Y9175D02*
X991Y9175D01*
X991Y9258D01*
X1008Y9308D01*
X1041Y9341D01*
X1075Y9358D01*
X1141Y9375D01*
X1191Y9375D01*
X1258Y9358D01*
X1291Y9341D01*
X1325Y9308D01*
X1341Y9258D01*
X1341Y9175D01*
X1341Y9708D02*
X1341Y9508D01*
X1341Y9608D02*
X991Y9608D01*
X1041Y9575D01*
X1075Y9541D01*
X1091Y9508D01*
X991Y9925D02*
X991Y9958D01*
X1008Y9991D01*
X1025Y10008D01*
X1058Y10025D01*
X1125Y10041D01*
X1208Y10041D01*
X1275Y10025D01*
X1308Y10008D01*
X1325Y9991D01*
X1341Y9958D01*
X1341Y9925D01*
X1325Y9891D01*
X1308Y9875D01*
X1275Y9858D01*
X1208Y9841D01*
X1125Y9841D01*
X1058Y9858D01*
X1025Y9875D01*
X1008Y9891D01*
X991Y9925D01*
X2941Y9175D02*
X2591Y9175D01*
X2591Y9258D01*
X2608Y9308D01*
X2641Y9341D01*
X2675Y9358D01*
X2741Y9375D01*
X2791Y9375D01*
X2858Y9358D01*
X2891Y9341D01*
X2925Y9308D01*
X2941Y9258D01*
X2941Y9175D01*
X2941Y9708D02*
X2941Y9508D01*
X2941Y9608D02*
X2591Y9608D01*
X2641Y9575D01*
X2675Y9541D01*
X2691Y9508D01*
X2591Y10025D02*
X2591Y9858D01*
X2758Y9841D01*
X2741Y9858D01*
X2725Y9891D01*
X2725Y9975D01*
X2741Y10008D01*
X2758Y10025D01*
X2791Y10041D01*
X2875Y10041D01*
X2908Y10025D01*
X2925Y10008D01*
X2941Y9975D01*
X2941Y9891D01*
X2925Y9858D01*
X2908Y9841D01*
X4541Y1075D02*
X4191Y1075D01*
X4191Y1158D01*
X4208Y1208D01*
X4241Y1241D01*
X4275Y1258D01*
X4341Y1275D01*
X4391Y1275D01*
X4458Y1258D01*
X4491Y1241D01*
X4525Y1208D01*
X4541Y1158D01*
X4541Y1075D01*
X4541Y1608D02*
X4541Y1408D01*
X4541Y1508D02*
X4191Y1508D01*
X4241Y1475D01*
X4275Y1441D01*
X4291Y1408D01*
X4191Y1908D02*
X4191Y1841D01*
X4208Y1808D01*
X4225Y1791D01*
X4275Y1758D01*
X4341Y1741D01*
X4475Y1741D01*
X4508Y1758D01*
X4525Y1775D01*
X4541Y1808D01*
X4541Y1875D01*
X4525Y1908D01*
X4508Y1925D01*
X4475Y1941D01*
X4391Y1941D01*
X4358Y1925D01*
X4341Y1908D01*
X4325Y1875D01*
X4325Y1808D01*
X4341Y1775D01*
X4358Y1758D01*
X4391Y1741D01*
X4541Y9175D02*
X4191Y9175D01*
X4191Y9258D01*
X4208Y9308D01*
X4241Y9341D01*
X4275Y9358D01*
X4341Y9375D01*
X4391Y9375D01*
X4458Y9358D01*
X4491Y9341D01*
X4525Y9308D01*
X4541Y9258D01*
X4541Y9175D01*
X4225Y9508D02*
X4208Y9525D01*
X4191Y9558D01*
X4191Y9641D01*
X4208Y9675D01*
X4225Y9691D01*
X4258Y9708D01*
X4291Y9708D01*
X4341Y9691D01*
X4541Y9491D01*
X4541Y9708D01*
X4191Y9925D02*
X4191Y9958D01*
X4208Y9991D01*
X4225Y10008D01*
X4258Y10025D01*
X4325Y10041D01*
X4408Y10041D01*
X4475Y10025D01*
X4508Y10008D01*
X4525Y9991D01*
X4541Y9958D01*
X4541Y9925D01*
X4525Y9891D01*
X4508Y9875D01*
X4475Y9858D01*
X4408Y9841D01*
X4325Y9841D01*
X4258Y9858D01*
X4225Y9875D01*
X4208Y9891D01*
X4191Y9925D01*
X6141Y1075D02*
X5791Y1075D01*
X5791Y1158D01*
X5808Y1208D01*
X5841Y1241D01*
X5875Y1258D01*
X5941Y1275D01*
X5991Y1275D01*
X6058Y1258D01*
X6091Y1241D01*
X6125Y1208D01*
X6141Y1158D01*
X6141Y1075D01*
X5825Y1408D02*
X5808Y1425D01*
X5791Y1458D01*
X5791Y1541D01*
X5808Y1575D01*
X5825Y1591D01*
X5858Y1608D01*
X5891Y1608D01*
X5941Y1591D01*
X6141Y1391D01*
X6141Y1608D01*
X6141Y1941D02*
X6141Y1741D01*
X6141Y1841D02*
X5791Y1841D01*
X5841Y1808D01*
X5875Y1775D01*
X5891Y1741D01*
X2941Y1075D02*
X2591Y1075D01*
X2591Y1158D01*
X2608Y1208D01*
X2641Y1241D01*
X2675Y1258D01*
X2741Y1275D01*
X2791Y1275D01*
X2858Y1258D01*
X2891Y1241D01*
X2925Y1208D01*
X2941Y1158D01*
X2941Y1075D01*
X2941Y1608D02*
X2941Y1408D01*
X2941Y1508D02*
X2591Y1508D01*
X2641Y1475D01*
X2675Y1441D01*
X2691Y1408D01*
X2941Y1941D02*
X2941Y1741D01*
X2941Y1841D02*
X2591Y1841D01*
X2641Y1808D01*
X2675Y1775D01*
X2691Y1741D01*
X10321Y11635D02*
X10021Y11635D01*
X10021Y11707D01*
X10035Y11750D01*
X10064Y11778D01*
X10092Y11792D01*
X10150Y11807D01*
X10192Y11807D01*
X10250Y11792D01*
X10278Y11778D01*
X10307Y11750D01*
X10321Y11707D01*
X10321Y11635D01*
X10121Y12064D02*
X10321Y12064D01*
X10007Y11992D02*
X10221Y11921D01*
X10221Y12107D01*
X10121Y12350D02*
X10321Y12350D01*
X10007Y12278D02*
X10221Y12207D01*
X10221Y12392D01*
X9741Y11533D02*
X9391Y11533D01*
X9391Y11666D01*
X9408Y11700D01*
X9425Y11716D01*
X9458Y11733D01*
X9508Y11733D01*
X9541Y11716D01*
X9558Y11700D01*
X9575Y11666D01*
X9575Y11533D01*
X9391Y11850D02*
X9741Y11933D01*
X9491Y12000D01*
X9741Y12066D01*
X9391Y12150D01*
X9741Y12483D02*
X9575Y12366D01*
X9741Y12283D02*
X9391Y12283D01*
X9391Y12416D01*
X9408Y12450D01*
X9425Y12466D01*
X9458Y12483D01*
X9508Y12483D01*
X9541Y12466D01*
X9558Y12450D01*
X9575Y12416D01*
X9575Y12283D01*
X10941Y9175D02*
X10591Y9175D01*
X10591Y9258D01*
X10608Y9308D01*
X10641Y9341D01*
X10675Y9358D01*
X10741Y9375D01*
X10791Y9375D01*
X10858Y9358D01*
X10891Y9341D01*
X10925Y9308D01*
X10941Y9258D01*
X10941Y9175D01*
X10708Y9675D02*
X10941Y9675D01*
X10575Y9591D02*
X10825Y9508D01*
X10825Y9725D01*
X10591Y9925D02*
X10591Y9958D01*
X10608Y9991D01*
X10625Y10008D01*
X10658Y10025D01*
X10725Y10041D01*
X10808Y10041D01*
X10875Y10025D01*
X10908Y10008D01*
X10925Y9991D01*
X10941Y9958D01*
X10941Y9925D01*
X10925Y9891D01*
X10908Y9875D01*
X10875Y9858D01*
X10808Y9841D01*
X10725Y9841D01*
X10658Y9858D01*
X10625Y9875D01*
X10608Y9891D01*
X10591Y9925D01*
X30021Y12785D02*
X29721Y12785D01*
X29721Y12857D01*
X29735Y12900D01*
X29764Y12928D01*
X29792Y12942D01*
X29850Y12957D01*
X29892Y12957D01*
X29950Y12942D01*
X29978Y12928D01*
X30007Y12900D01*
X30021Y12857D01*
X30021Y12785D01*
X29821Y13214D02*
X30021Y13214D01*
X29707Y13142D02*
X29921Y13071D01*
X29921Y13257D01*
X29750Y13357D02*
X29735Y13371D01*
X29721Y13400D01*
X29721Y13471D01*
X29735Y13500D01*
X29750Y13514D01*
X29778Y13528D01*
X29807Y13528D01*
X29850Y13514D01*
X30021Y13342D01*
X30021Y13528D01*
X29361Y12900D02*
X29171Y12800D01*
X29361Y12728D02*
X28961Y12728D01*
X28961Y12842D01*
X28980Y12871D01*
X29000Y12885D01*
X29038Y12900D01*
X29095Y12900D01*
X29133Y12885D01*
X29152Y12871D01*
X29171Y12842D01*
X29171Y12728D01*
X28961Y13000D02*
X29361Y13200D01*
X28961Y13200D02*
X29361Y13000D01*
X29361Y13314D02*
X28961Y13314D01*
X28961Y13385D01*
X28980Y13428D01*
X29019Y13457D01*
X29057Y13471D01*
X29133Y13485D01*
X29190Y13485D01*
X29266Y13471D01*
X29304Y13457D01*
X29342Y13428D01*
X29361Y13385D01*
X29361Y13314D01*
X30021Y13785D02*
X29721Y13785D01*
X29721Y13857D01*
X29735Y13900D01*
X29764Y13928D01*
X29792Y13942D01*
X29850Y13957D01*
X29892Y13957D01*
X29950Y13942D01*
X29978Y13928D01*
X30007Y13900D01*
X30021Y13857D01*
X30021Y13785D01*
X29821Y14214D02*
X30021Y14214D01*
X29707Y14142D02*
X29921Y14071D01*
X29921Y14257D01*
X29721Y14342D02*
X29721Y14528D01*
X29835Y14428D01*
X29835Y14471D01*
X29850Y14500D01*
X29864Y14514D01*
X29892Y14528D01*
X29964Y14528D01*
X29992Y14514D01*
X30007Y14500D01*
X30021Y14471D01*
X30021Y14385D01*
X30007Y14357D01*
X29992Y14342D01*
X29392Y13764D02*
X29411Y13807D01*
X29411Y13878D01*
X29392Y13907D01*
X29373Y13921D01*
X29335Y13935D01*
X29297Y13935D01*
X29259Y13921D01*
X29240Y13907D01*
X29221Y13878D01*
X29202Y13821D01*
X29183Y13792D01*
X29164Y13778D01*
X29126Y13764D01*
X29088Y13764D01*
X29050Y13778D01*
X29030Y13792D01*
X29011Y13821D01*
X29011Y13892D01*
X29030Y13935D01*
X29373Y14235D02*
X29392Y14221D01*
X29411Y14178D01*
X29411Y14150D01*
X29392Y14107D01*
X29354Y14078D01*
X29316Y14064D01*
X29240Y14050D01*
X29183Y14050D01*
X29107Y14064D01*
X29069Y14078D01*
X29030Y14107D01*
X29011Y14150D01*
X29011Y14178D01*
X29030Y14221D01*
X29050Y14235D01*
X29411Y14364D02*
X29011Y14364D01*
X29411Y14535D02*
X29183Y14407D01*
X29011Y14535D02*
X29240Y14364D01*
M02*
