M48
INCH,TZ
T1C0.020
T2C0.030
T3C0.035
T4C0.040
%
G90
G05
T1
X2.705Y0.66
X2.705Y0.52
X2.775Y0.66
X2.775Y0.52
X2.845Y0.66
X2.845Y0.59
X2.845Y0.52
T2
X0.03Y1.275
X0.12Y1.055
X0.12Y0.86
X0.12Y0.66
X0.12Y0.46
X0.12Y0.265
X0.2Y1.525
X0.28Y1.055
X0.28Y0.86
X0.28Y0.66
X0.28Y0.46
X0.28Y0.265
X0.44Y1.055
X0.44Y0.86
X0.44Y0.66
X0.44Y0.46
X0.44Y0.265
X0.525Y1.275
X0.6Y1.055
X0.6Y0.86
X0.6Y0.66
X0.6Y0.46
X0.6Y0.265
X0.76Y1.055
X0.76Y0.86
X0.76Y0.66
X0.76Y0.46
X0.76Y0.265
X0.92Y1.3
X0.92Y1.055
X0.92Y0.86
X0.92Y0.66
X0.92Y0.46
X0.92Y0.265
X1.08Y1.055
X1.08Y0.86
X1.08Y0.66
X1.08Y0.46
X1.08Y0.265
X1.24Y1.055
X1.24Y0.86
X1.24Y0.66
X1.24Y0.46
X1.24Y0.265
X1.3Y1.45
X1.3Y1.375
X1.315Y0.985
X1.315Y0.785
X1.315Y0.585
X1.315Y0.385
X1.315Y0.315
X1.53Y1.115
X1.53Y0.6
X1.72Y0.415
X1.98Y0.9
X1.98Y0.835
X2.03Y1.365
X2.095Y1.365
X2.22Y0.48
X2.22Y0.4
X2.265Y0.52
X2.265Y0.44
X2.265Y0.36
X2.3Y1.34
X2.345Y1.265
X2.38Y1.34
X2.425Y1.265
X2.425Y1.195
X2.425Y1.115
X2.445Y0.72
X2.445Y0.52
X2.46Y1.34
X2.53Y0.215
X2.56Y-0.36
X2.66Y-0.36
X2.705Y0.86
X2.725Y0.28
X2.725Y0.065
X2.81Y-0.16
X2.81Y-0.22
X2.82Y0.86
X2.835Y0.215
X3.03Y0.32
X3.05Y0.825
X3.105Y0.63
X3.11Y0.36
X3.11Y0.295
X3.115Y0.825
X3.115Y0.745
X3.695Y0.57
T3
X0.Y0.
X0.075Y1.2
X0.2Y1.2
X0.79Y1.55
X0.89Y1.55
X0.99Y1.55
X1.09Y1.55
X1.15Y-0.35
X1.19Y1.55
X1.25Y-0.35
X1.29Y1.55
X1.35Y-0.35
X1.39Y1.55
X1.45Y-0.35
X1.49Y1.55
X1.55Y-0.35
X1.65Y1.55
X1.65Y-0.35
X1.75Y1.55
X1.78Y0.035
X1.85Y1.55
X1.85Y-0.35
X1.95Y1.55
X1.95Y-0.35
X2.05Y1.55
X2.05Y-0.35
X2.15Y1.55
X2.15Y-0.35
X2.25Y1.55
X2.25Y1.43
X2.25Y-0.35
X2.35Y1.55
X2.35Y1.43
X2.35Y-0.35
X2.705Y0.59
X2.705Y0.59
T4
X1.675Y1.225
X1.675Y1.125
X1.775Y1.225
X1.775Y1.125
X1.875Y1.225
X1.875Y1.125
T0
M30
