G04 (created by PCBNEW (2012-11-15 BZR 3804)-stable) date Wed 13 Mar 2013 22:39:21 CDT*
%MOIN*%
G04 Gerber Fmt 3.4, Leading zero omitted, Abs format*
%FSLAX34Y34*%
G01*
G70*
G90*
G04 APERTURE LIST*
%ADD10C,0.005*%
%ADD11C,0.006*%
%ADD12C,0.00590551*%
%ADD13C,0.00787402*%
%ADD14C,0.011811*%
G04 APERTURE END LIST*
G54D10*
G54D11*
X-1250Y6750D02*
X-1250Y-250D01*
X38750Y16250D02*
X38500Y16500D01*
X38500Y-4500D02*
X38750Y-4250D01*
X-5250Y-4500D02*
X-5500Y-4250D01*
X-5500Y16250D02*
X-5250Y16500D01*
X-5500Y10850D02*
X-5500Y-4250D01*
X-5500Y16250D02*
X-5500Y11800D01*
X-1250Y10850D02*
X-5500Y10850D01*
X-1250Y11800D02*
X-1250Y10850D01*
X-5500Y11800D02*
X-1250Y11800D01*
X38500Y16500D02*
X-5250Y16500D01*
X38750Y-4250D02*
X38750Y16250D01*
G54D12*
X-5250Y-4500D02*
X38500Y-4500D01*
G54D13*
X26950Y6700D02*
X27150Y6500D01*
X27150Y6700D02*
X26950Y6500D01*
X26950Y5300D02*
X27150Y5100D01*
X27150Y5300D02*
X26950Y5100D01*
X27650Y6700D02*
X27850Y6500D01*
X27850Y6700D02*
X27650Y6500D01*
X27650Y5300D02*
X27850Y5100D01*
X27850Y5300D02*
X27650Y5100D01*
X28350Y6700D02*
X28550Y6500D01*
X28550Y6700D02*
X28350Y6500D01*
X28350Y6000D02*
X28550Y5800D01*
X28550Y6000D02*
X28350Y5800D01*
X28350Y5300D02*
X28550Y5100D01*
X28550Y5300D02*
X28350Y5100D01*
X450Y12750D02*
G75*
G03X450Y12750I-150J0D01*
G74*
G01*
X1350Y10550D02*
G75*
G03X1350Y10550I-150J0D01*
G74*
G01*
X1350Y8600D02*
G75*
G03X1350Y8600I-150J0D01*
G74*
G01*
X1350Y6600D02*
G75*
G03X1350Y6600I-150J0D01*
G74*
G01*
X1350Y4600D02*
G75*
G03X1350Y4600I-150J0D01*
G74*
G01*
X1350Y2650D02*
G75*
G03X1350Y2650I-150J0D01*
G74*
G01*
X2150Y15250D02*
G75*
G03X2150Y15250I-150J0D01*
G74*
G01*
X2950Y10550D02*
G75*
G03X2950Y10550I-150J0D01*
G74*
G01*
X2950Y8600D02*
G75*
G03X2950Y8600I-150J0D01*
G74*
G01*
X2950Y6600D02*
G75*
G03X2950Y6600I-150J0D01*
G74*
G01*
X2950Y4600D02*
G75*
G03X2950Y4600I-150J0D01*
G74*
G01*
X2950Y2650D02*
G75*
G03X2950Y2650I-150J0D01*
G74*
G01*
X4550Y10550D02*
G75*
G03X4550Y10550I-150J0D01*
G74*
G01*
X4550Y8600D02*
G75*
G03X4550Y8600I-150J0D01*
G74*
G01*
X4550Y6600D02*
G75*
G03X4550Y6600I-150J0D01*
G74*
G01*
X4550Y4600D02*
G75*
G03X4550Y4600I-150J0D01*
G74*
G01*
X4550Y2650D02*
G75*
G03X4550Y2650I-150J0D01*
G74*
G01*
X5400Y12750D02*
G75*
G03X5400Y12750I-150J0D01*
G74*
G01*
X6150Y10550D02*
G75*
G03X6150Y10550I-150J0D01*
G74*
G01*
X6150Y8600D02*
G75*
G03X6150Y8600I-150J0D01*
G74*
G01*
X6150Y6600D02*
G75*
G03X6150Y6600I-150J0D01*
G74*
G01*
X6150Y4600D02*
G75*
G03X6150Y4600I-150J0D01*
G74*
G01*
X6150Y2650D02*
G75*
G03X6150Y2650I-150J0D01*
G74*
G01*
X7750Y10550D02*
G75*
G03X7750Y10550I-150J0D01*
G74*
G01*
X7750Y8600D02*
G75*
G03X7750Y8600I-150J0D01*
G74*
G01*
X7750Y6600D02*
G75*
G03X7750Y6600I-150J0D01*
G74*
G01*
X7750Y4600D02*
G75*
G03X7750Y4600I-150J0D01*
G74*
G01*
X7750Y2650D02*
G75*
G03X7750Y2650I-150J0D01*
G74*
G01*
X9350Y13000D02*
G75*
G03X9350Y13000I-150J0D01*
G74*
G01*
X9350Y10550D02*
G75*
G03X9350Y10550I-150J0D01*
G74*
G01*
X9350Y8600D02*
G75*
G03X9350Y8600I-150J0D01*
G74*
G01*
X9350Y6600D02*
G75*
G03X9350Y6600I-150J0D01*
G74*
G01*
X9350Y4600D02*
G75*
G03X9350Y4600I-150J0D01*
G74*
G01*
X9350Y2650D02*
G75*
G03X9350Y2650I-150J0D01*
G74*
G01*
X10950Y10550D02*
G75*
G03X10950Y10550I-150J0D01*
G74*
G01*
X10950Y8600D02*
G75*
G03X10950Y8600I-150J0D01*
G74*
G01*
X10950Y6600D02*
G75*
G03X10950Y6600I-150J0D01*
G74*
G01*
X10950Y4600D02*
G75*
G03X10950Y4600I-150J0D01*
G74*
G01*
X10950Y2650D02*
G75*
G03X10950Y2650I-150J0D01*
G74*
G01*
X12550Y10550D02*
G75*
G03X12550Y10550I-150J0D01*
G74*
G01*
X12550Y8600D02*
G75*
G03X12550Y8600I-150J0D01*
G74*
G01*
X12550Y6600D02*
G75*
G03X12550Y6600I-150J0D01*
G74*
G01*
X12550Y4600D02*
G75*
G03X12550Y4600I-150J0D01*
G74*
G01*
X12550Y2650D02*
G75*
G03X12550Y2650I-150J0D01*
G74*
G01*
X13150Y14500D02*
G75*
G03X13150Y14500I-150J0D01*
G74*
G01*
X13150Y13750D02*
G75*
G03X13150Y13750I-150J0D01*
G74*
G01*
X13300Y9850D02*
G75*
G03X13300Y9850I-150J0D01*
G74*
G01*
X13300Y7850D02*
G75*
G03X13300Y7850I-150J0D01*
G74*
G01*
X13300Y5850D02*
G75*
G03X13300Y5850I-150J0D01*
G74*
G01*
X13300Y3850D02*
G75*
G03X13300Y3850I-150J0D01*
G74*
G01*
X13300Y3150D02*
G75*
G03X13300Y3150I-150J0D01*
G74*
G01*
X15450Y11150D02*
G75*
G03X15450Y11150I-150J0D01*
G74*
G01*
X15450Y6000D02*
G75*
G03X15450Y6000I-150J0D01*
G74*
G01*
X17350Y4150D02*
G75*
G03X17350Y4150I-150J0D01*
G74*
G01*
X19950Y9000D02*
G75*
G03X19950Y9000I-150J0D01*
G74*
G01*
X19950Y8350D02*
G75*
G03X19950Y8350I-150J0D01*
G74*
G01*
X20450Y13650D02*
G75*
G03X20450Y13650I-150J0D01*
G74*
G01*
X21100Y13650D02*
G75*
G03X21100Y13650I-150J0D01*
G74*
G01*
X22350Y4800D02*
G75*
G03X22350Y4800I-150J0D01*
G74*
G01*
X22350Y4000D02*
G75*
G03X22350Y4000I-150J0D01*
G74*
G01*
X22800Y5200D02*
G75*
G03X22800Y5200I-150J0D01*
G74*
G01*
X22800Y4400D02*
G75*
G03X22800Y4400I-150J0D01*
G74*
G01*
X22800Y3600D02*
G75*
G03X22800Y3600I-150J0D01*
G74*
G01*
X23150Y13400D02*
G75*
G03X23150Y13400I-150J0D01*
G74*
G01*
X23600Y12650D02*
G75*
G03X23600Y12650I-150J0D01*
G74*
G01*
X23950Y13400D02*
G75*
G03X23950Y13400I-150J0D01*
G74*
G01*
X24400Y12650D02*
G75*
G03X24400Y12650I-150J0D01*
G74*
G01*
X24400Y11950D02*
G75*
G03X24400Y11950I-150J0D01*
G74*
G01*
X24400Y11150D02*
G75*
G03X24400Y11150I-150J0D01*
G74*
G01*
X24600Y7200D02*
G75*
G03X24600Y7200I-150J0D01*
G74*
G01*
X24600Y5200D02*
G75*
G03X24600Y5200I-150J0D01*
G74*
G01*
X24750Y13400D02*
G75*
G03X24750Y13400I-150J0D01*
G74*
G01*
X25450Y2150D02*
G75*
G03X25450Y2150I-150J0D01*
G74*
G01*
X25750Y-3600D02*
G75*
G03X25750Y-3600I-150J0D01*
G74*
G01*
X26750Y-3600D02*
G75*
G03X26750Y-3600I-150J0D01*
G74*
G01*
X27200Y8600D02*
G75*
G03X27200Y8600I-150J0D01*
G74*
G01*
X27400Y2800D02*
G75*
G03X27400Y2800I-150J0D01*
G74*
G01*
X27400Y650D02*
G75*
G03X27400Y650I-150J0D01*
G74*
G01*
X28250Y-1600D02*
G75*
G03X28250Y-1600I-150J0D01*
G74*
G01*
X28250Y-2200D02*
G75*
G03X28250Y-2200I-150J0D01*
G74*
G01*
X28350Y8600D02*
G75*
G03X28350Y8600I-150J0D01*
G74*
G01*
X28500Y2150D02*
G75*
G03X28500Y2150I-150J0D01*
G74*
G01*
X30450Y3200D02*
G75*
G03X30450Y3200I-150J0D01*
G74*
G01*
X30650Y8250D02*
G75*
G03X30650Y8250I-150J0D01*
G74*
G01*
X31200Y6300D02*
G75*
G03X31200Y6300I-150J0D01*
G74*
G01*
X31250Y3600D02*
G75*
G03X31250Y3600I-150J0D01*
G74*
G01*
X31250Y2950D02*
G75*
G03X31250Y2950I-150J0D01*
G74*
G01*
X31300Y8250D02*
G75*
G03X31300Y8250I-150J0D01*
G74*
G01*
X31300Y7450D02*
G75*
G03X31300Y7450I-150J0D01*
G74*
G01*
X37100Y5700D02*
G75*
G03X37100Y5700I-150J0D01*
G74*
G01*
X0Y175D02*
X0Y-175D01*
X-175Y0D02*
X175Y0D01*
X750Y12175D02*
X750Y11825D01*
X575Y12000D02*
X925Y12000D01*
X2000Y12175D02*
X2000Y11825D01*
X1825Y12000D02*
X2175Y12000D01*
X7900Y15675D02*
X7900Y15325D01*
X7725Y15500D02*
X8075Y15500D01*
X8900Y15675D02*
X8900Y15325D01*
X8725Y15500D02*
X9075Y15500D01*
X9900Y15675D02*
X9900Y15325D01*
X9725Y15500D02*
X10075Y15500D01*
X10900Y15675D02*
X10900Y15325D01*
X10725Y15500D02*
X11075Y15500D01*
X11500Y-3325D02*
X11500Y-3675D01*
X11325Y-3500D02*
X11675Y-3500D01*
X11900Y15675D02*
X11900Y15325D01*
X11725Y15500D02*
X12075Y15500D01*
X12500Y-3325D02*
X12500Y-3675D01*
X12325Y-3500D02*
X12675Y-3500D01*
X12900Y15675D02*
X12900Y15325D01*
X12725Y15500D02*
X13075Y15500D01*
X13500Y-3325D02*
X13500Y-3675D01*
X13325Y-3500D02*
X13675Y-3500D01*
X13900Y15675D02*
X13900Y15325D01*
X13725Y15500D02*
X14075Y15500D01*
X14500Y-3325D02*
X14500Y-3675D01*
X14325Y-3500D02*
X14675Y-3500D01*
X14900Y15675D02*
X14900Y15325D01*
X14725Y15500D02*
X15075Y15500D01*
X15500Y-3325D02*
X15500Y-3675D01*
X15325Y-3500D02*
X15675Y-3500D01*
X16500Y15675D02*
X16500Y15325D01*
X16325Y15500D02*
X16675Y15500D01*
X16500Y-3325D02*
X16500Y-3675D01*
X16325Y-3500D02*
X16675Y-3500D01*
X17500Y15675D02*
X17500Y15325D01*
X17325Y15500D02*
X17675Y15500D01*
X17800Y525D02*
X17800Y175D01*
X17625Y350D02*
X17975Y350D01*
X18500Y15675D02*
X18500Y15325D01*
X18325Y15500D02*
X18675Y15500D01*
X18500Y-3325D02*
X18500Y-3675D01*
X18325Y-3500D02*
X18675Y-3500D01*
X19500Y15675D02*
X19500Y15325D01*
X19325Y15500D02*
X19675Y15500D01*
X19500Y-3325D02*
X19500Y-3675D01*
X19325Y-3500D02*
X19675Y-3500D01*
X20500Y15675D02*
X20500Y15325D01*
X20325Y15500D02*
X20675Y15500D01*
X20500Y-3325D02*
X20500Y-3675D01*
X20325Y-3500D02*
X20675Y-3500D01*
X21500Y15675D02*
X21500Y15325D01*
X21325Y15500D02*
X21675Y15500D01*
X21500Y-3325D02*
X21500Y-3675D01*
X21325Y-3500D02*
X21675Y-3500D01*
X22500Y15675D02*
X22500Y15325D01*
X22325Y15500D02*
X22675Y15500D01*
X22500Y14475D02*
X22500Y14125D01*
X22325Y14300D02*
X22675Y14300D01*
X22500Y-3325D02*
X22500Y-3675D01*
X22325Y-3500D02*
X22675Y-3500D01*
X23500Y15675D02*
X23500Y15325D01*
X23325Y15500D02*
X23675Y15500D01*
X23500Y14475D02*
X23500Y14125D01*
X23325Y14300D02*
X23675Y14300D01*
X23500Y-3325D02*
X23500Y-3675D01*
X23325Y-3500D02*
X23675Y-3500D01*
X27050Y6075D02*
X27050Y5725D01*
X26875Y5900D02*
X27225Y5900D01*
X27050Y6075D02*
X27050Y5725D01*
X26875Y5900D02*
X27225Y5900D01*
X16891Y12108D02*
X16891Y12391D01*
X16608Y12391D01*
X16608Y12108D01*
X16891Y12108D01*
X16891Y11108D02*
X16891Y11391D01*
X16608Y11391D01*
X16608Y11108D01*
X16891Y11108D01*
X17891Y12108D02*
X17891Y12391D01*
X17608Y12391D01*
X17608Y12108D01*
X17891Y12108D01*
X17891Y11108D02*
X17891Y11391D01*
X17608Y11391D01*
X17608Y11108D01*
X17891Y11108D01*
X18891Y12108D02*
X18891Y12391D01*
X18608Y12391D01*
X18608Y12108D01*
X18891Y12108D01*
X18891Y11108D02*
X18891Y11391D01*
X18608Y11391D01*
X18608Y11108D01*
X18891Y11108D01*
G54D14*
X-4461Y-6307D02*
X-4461Y-5126D01*
X-4180Y-5126D01*
X-4011Y-5182D01*
X-3898Y-5294D01*
X-3842Y-5407D01*
X-3786Y-5632D01*
X-3786Y-5801D01*
X-3842Y-6026D01*
X-3898Y-6138D01*
X-4011Y-6251D01*
X-4180Y-6307D01*
X-4461Y-6307D01*
X-3280Y-6307D02*
X-3280Y-5519D01*
X-3280Y-5744D02*
X-3224Y-5632D01*
X-3167Y-5576D01*
X-3055Y-5519D01*
X-2942Y-5519D01*
X-2549Y-6307D02*
X-2549Y-5519D01*
X-2549Y-5126D02*
X-2605Y-5182D01*
X-2549Y-5238D01*
X-2492Y-5182D01*
X-2549Y-5126D01*
X-2549Y-5238D01*
X-1817Y-6307D02*
X-1930Y-6251D01*
X-1986Y-6138D01*
X-1986Y-5126D01*
X-1199Y-6307D02*
X-1311Y-6251D01*
X-1368Y-6138D01*
X-1368Y-5126D01*
X150Y-6307D02*
X150Y-5126D01*
X544Y-5969D01*
X937Y-5126D01*
X937Y-6307D01*
X2006Y-6307D02*
X2006Y-5688D01*
X1950Y-5576D01*
X1837Y-5519D01*
X1612Y-5519D01*
X1500Y-5576D01*
X2006Y-6251D02*
X1894Y-6307D01*
X1612Y-6307D01*
X1500Y-6251D01*
X1444Y-6138D01*
X1444Y-6026D01*
X1500Y-5913D01*
X1612Y-5857D01*
X1894Y-5857D01*
X2006Y-5801D01*
X2568Y-5519D02*
X2568Y-6700D01*
X2568Y-5576D02*
X2681Y-5519D01*
X2906Y-5519D01*
X3018Y-5576D01*
X3075Y-5632D01*
X3131Y-5744D01*
X3131Y-6082D01*
X3075Y-6194D01*
X3018Y-6251D01*
X2906Y-6307D01*
X2681Y-6307D01*
X2568Y-6251D01*
X3637Y-6194D02*
X3693Y-6251D01*
X3637Y-6307D01*
X3581Y-6251D01*
X3637Y-6194D01*
X3637Y-6307D01*
X3637Y-5576D02*
X3693Y-5632D01*
X3637Y-5688D01*
X3581Y-5632D01*
X3637Y-5576D01*
X3637Y-5688D01*
X-5730Y-8209D02*
X-5530Y-8409D01*
X-5530Y-8209D02*
X-5730Y-8409D01*
X-4236Y-7606D02*
X-4123Y-7606D01*
X-4011Y-7662D01*
X-3955Y-7718D01*
X-3898Y-7831D01*
X-3842Y-8056D01*
X-3842Y-8337D01*
X-3898Y-8562D01*
X-3955Y-8675D01*
X-4011Y-8731D01*
X-4123Y-8787D01*
X-4236Y-8787D01*
X-4348Y-8731D01*
X-4405Y-8675D01*
X-4461Y-8562D01*
X-4517Y-8337D01*
X-4517Y-8056D01*
X-4461Y-7831D01*
X-4405Y-7718D01*
X-4348Y-7662D01*
X-4236Y-7606D01*
X-3336Y-8675D02*
X-3280Y-8731D01*
X-3336Y-8787D01*
X-3392Y-8731D01*
X-3336Y-8675D01*
X-3336Y-8787D01*
X-2211Y-7606D02*
X-2774Y-7606D01*
X-2830Y-8168D01*
X-2774Y-8112D01*
X-2661Y-8056D01*
X-2380Y-8056D01*
X-2267Y-8112D01*
X-2211Y-8168D01*
X-2155Y-8281D01*
X-2155Y-8562D01*
X-2211Y-8675D01*
X-2267Y-8731D01*
X-2380Y-8787D01*
X-2661Y-8787D01*
X-2774Y-8731D01*
X-2830Y-8675D01*
X-1030Y-8787D02*
X-1705Y-8787D01*
X-1368Y-8787D02*
X-1368Y-7606D01*
X-1480Y-7775D01*
X-1592Y-7887D01*
X-1705Y-7943D01*
X-524Y-8787D02*
X-524Y-8000D01*
X-524Y-8112D02*
X-468Y-8056D01*
X-355Y-8000D01*
X-186Y-8000D01*
X-74Y-8056D01*
X-18Y-8168D01*
X-18Y-8787D01*
X-18Y-8168D02*
X38Y-8056D01*
X150Y-8000D01*
X319Y-8000D01*
X431Y-8056D01*
X487Y-8168D01*
X487Y-8787D01*
X1050Y-8787D02*
X1050Y-8000D01*
X1050Y-8112D02*
X1106Y-8056D01*
X1219Y-8000D01*
X1387Y-8000D01*
X1500Y-8056D01*
X1556Y-8168D01*
X1556Y-8787D01*
X1556Y-8168D02*
X1612Y-8056D01*
X1725Y-8000D01*
X1894Y-8000D01*
X2006Y-8056D01*
X2062Y-8168D01*
X2062Y-8787D01*
X4368Y-7550D02*
X3356Y-9068D01*
X5887Y-7606D02*
X5999Y-7606D01*
X6112Y-7662D01*
X6168Y-7718D01*
X6224Y-7831D01*
X6281Y-8056D01*
X6281Y-8337D01*
X6224Y-8562D01*
X6168Y-8675D01*
X6112Y-8731D01*
X5999Y-8787D01*
X5887Y-8787D01*
X5774Y-8731D01*
X5718Y-8675D01*
X5662Y-8562D01*
X5606Y-8337D01*
X5606Y-8056D01*
X5662Y-7831D01*
X5718Y-7718D01*
X5774Y-7662D01*
X5887Y-7606D01*
X6787Y-8675D02*
X6843Y-8731D01*
X6787Y-8787D01*
X6730Y-8731D01*
X6787Y-8675D01*
X6787Y-8787D01*
X7574Y-7606D02*
X7687Y-7606D01*
X7799Y-7662D01*
X7855Y-7718D01*
X7912Y-7831D01*
X7968Y-8056D01*
X7968Y-8337D01*
X7912Y-8562D01*
X7855Y-8675D01*
X7799Y-8731D01*
X7687Y-8787D01*
X7574Y-8787D01*
X7462Y-8731D01*
X7405Y-8675D01*
X7349Y-8562D01*
X7293Y-8337D01*
X7293Y-8056D01*
X7349Y-7831D01*
X7405Y-7718D01*
X7462Y-7662D01*
X7574Y-7606D01*
X8418Y-7718D02*
X8474Y-7662D01*
X8586Y-7606D01*
X8868Y-7606D01*
X8980Y-7662D01*
X9036Y-7718D01*
X9093Y-7831D01*
X9093Y-7943D01*
X9036Y-8112D01*
X8362Y-8787D01*
X9093Y-8787D01*
X9824Y-7606D02*
X9936Y-7606D01*
X10049Y-7662D01*
X10105Y-7718D01*
X10161Y-7831D01*
X10218Y-8056D01*
X10218Y-8337D01*
X10161Y-8562D01*
X10105Y-8675D01*
X10049Y-8731D01*
X9936Y-8787D01*
X9824Y-8787D01*
X9711Y-8731D01*
X9655Y-8675D01*
X9599Y-8562D01*
X9543Y-8337D01*
X9543Y-8056D01*
X9599Y-7831D01*
X9655Y-7718D01*
X9711Y-7662D01*
X9824Y-7606D01*
X10667Y-7606D02*
X10667Y-7831D01*
X11117Y-7606D02*
X11117Y-7831D01*
X12861Y-9237D02*
X12805Y-9181D01*
X12692Y-9012D01*
X12636Y-8900D01*
X12580Y-8731D01*
X12523Y-8450D01*
X12523Y-8225D01*
X12580Y-7943D01*
X12636Y-7775D01*
X12692Y-7662D01*
X12805Y-7494D01*
X12861Y-7437D01*
X13198Y-7606D02*
X13986Y-7606D01*
X13480Y-8787D01*
X15336Y-8787D02*
X15336Y-7606D01*
X15842Y-8787D02*
X15842Y-8168D01*
X15786Y-8056D01*
X15673Y-8000D01*
X15504Y-8000D01*
X15392Y-8056D01*
X15336Y-8112D01*
X16573Y-8787D02*
X16461Y-8731D01*
X16404Y-8675D01*
X16348Y-8562D01*
X16348Y-8225D01*
X16404Y-8112D01*
X16461Y-8056D01*
X16573Y-8000D01*
X16742Y-8000D01*
X16854Y-8056D01*
X16910Y-8112D01*
X16967Y-8225D01*
X16967Y-8562D01*
X16910Y-8675D01*
X16854Y-8731D01*
X16742Y-8787D01*
X16573Y-8787D01*
X17642Y-8787D02*
X17529Y-8731D01*
X17473Y-8618D01*
X17473Y-7606D01*
X18541Y-8731D02*
X18429Y-8787D01*
X18204Y-8787D01*
X18092Y-8731D01*
X18035Y-8618D01*
X18035Y-8168D01*
X18092Y-8056D01*
X18204Y-8000D01*
X18429Y-8000D01*
X18541Y-8056D01*
X18598Y-8168D01*
X18598Y-8281D01*
X18035Y-8393D01*
X19048Y-8731D02*
X19160Y-8787D01*
X19385Y-8787D01*
X19498Y-8731D01*
X19554Y-8618D01*
X19554Y-8562D01*
X19498Y-8450D01*
X19385Y-8393D01*
X19216Y-8393D01*
X19104Y-8337D01*
X19048Y-8225D01*
X19048Y-8168D01*
X19104Y-8056D01*
X19216Y-8000D01*
X19385Y-8000D01*
X19498Y-8056D01*
X19948Y-9237D02*
X20004Y-9181D01*
X20116Y-9012D01*
X20173Y-8900D01*
X20229Y-8731D01*
X20285Y-8450D01*
X20285Y-8225D01*
X20229Y-7943D01*
X20173Y-7775D01*
X20116Y-7662D01*
X20004Y-7494D01*
X19948Y-7437D01*
G54D13*
X-5530Y-9868D02*
G75*
G03X-5530Y-9868I-150J0D01*
G74*
G01*
G54D14*
X-4236Y-9165D02*
X-4123Y-9165D01*
X-4011Y-9221D01*
X-3955Y-9278D01*
X-3898Y-9390D01*
X-3842Y-9615D01*
X-3842Y-9896D01*
X-3898Y-10121D01*
X-3955Y-10234D01*
X-4011Y-10290D01*
X-4123Y-10346D01*
X-4236Y-10346D01*
X-4348Y-10290D01*
X-4405Y-10234D01*
X-4461Y-10121D01*
X-4517Y-9896D01*
X-4517Y-9615D01*
X-4461Y-9390D01*
X-4405Y-9278D01*
X-4348Y-9221D01*
X-4236Y-9165D01*
X-3336Y-10234D02*
X-3280Y-10290D01*
X-3336Y-10346D01*
X-3392Y-10290D01*
X-3336Y-10234D01*
X-3336Y-10346D01*
X-2886Y-9165D02*
X-2099Y-9165D01*
X-2605Y-10346D01*
X-1143Y-9165D02*
X-1368Y-9165D01*
X-1480Y-9221D01*
X-1536Y-9278D01*
X-1649Y-9446D01*
X-1705Y-9671D01*
X-1705Y-10121D01*
X-1649Y-10234D01*
X-1592Y-10290D01*
X-1480Y-10346D01*
X-1255Y-10346D01*
X-1143Y-10290D01*
X-1086Y-10234D01*
X-1030Y-10121D01*
X-1030Y-9840D01*
X-1086Y-9727D01*
X-1143Y-9671D01*
X-1255Y-9615D01*
X-1480Y-9615D01*
X-1592Y-9671D01*
X-1649Y-9727D01*
X-1705Y-9840D01*
X-524Y-10346D02*
X-524Y-9559D01*
X-524Y-9671D02*
X-468Y-9615D01*
X-355Y-9559D01*
X-186Y-9559D01*
X-74Y-9615D01*
X-18Y-9727D01*
X-18Y-10346D01*
X-18Y-9727D02*
X38Y-9615D01*
X150Y-9559D01*
X319Y-9559D01*
X431Y-9615D01*
X487Y-9727D01*
X487Y-10346D01*
X1050Y-10346D02*
X1050Y-9559D01*
X1050Y-9671D02*
X1106Y-9615D01*
X1219Y-9559D01*
X1387Y-9559D01*
X1500Y-9615D01*
X1556Y-9727D01*
X1556Y-10346D01*
X1556Y-9727D02*
X1612Y-9615D01*
X1725Y-9559D01*
X1894Y-9559D01*
X2006Y-9615D01*
X2062Y-9727D01*
X2062Y-10346D01*
X4368Y-9109D02*
X3356Y-10627D01*
X5887Y-9165D02*
X5999Y-9165D01*
X6112Y-9221D01*
X6168Y-9278D01*
X6224Y-9390D01*
X6281Y-9615D01*
X6281Y-9896D01*
X6224Y-10121D01*
X6168Y-10234D01*
X6112Y-10290D01*
X5999Y-10346D01*
X5887Y-10346D01*
X5774Y-10290D01*
X5718Y-10234D01*
X5662Y-10121D01*
X5606Y-9896D01*
X5606Y-9615D01*
X5662Y-9390D01*
X5718Y-9278D01*
X5774Y-9221D01*
X5887Y-9165D01*
X6787Y-10234D02*
X6843Y-10290D01*
X6787Y-10346D01*
X6730Y-10290D01*
X6787Y-10234D01*
X6787Y-10346D01*
X7574Y-9165D02*
X7687Y-9165D01*
X7799Y-9221D01*
X7855Y-9278D01*
X7912Y-9390D01*
X7968Y-9615D01*
X7968Y-9896D01*
X7912Y-10121D01*
X7855Y-10234D01*
X7799Y-10290D01*
X7687Y-10346D01*
X7574Y-10346D01*
X7462Y-10290D01*
X7405Y-10234D01*
X7349Y-10121D01*
X7293Y-9896D01*
X7293Y-9615D01*
X7349Y-9390D01*
X7405Y-9278D01*
X7462Y-9221D01*
X7574Y-9165D01*
X8362Y-9165D02*
X9093Y-9165D01*
X8699Y-9615D01*
X8868Y-9615D01*
X8980Y-9671D01*
X9036Y-9727D01*
X9093Y-9840D01*
X9093Y-10121D01*
X9036Y-10234D01*
X8980Y-10290D01*
X8868Y-10346D01*
X8530Y-10346D01*
X8418Y-10290D01*
X8362Y-10234D01*
X9824Y-9165D02*
X9936Y-9165D01*
X10049Y-9221D01*
X10105Y-9278D01*
X10161Y-9390D01*
X10218Y-9615D01*
X10218Y-9896D01*
X10161Y-10121D01*
X10105Y-10234D01*
X10049Y-10290D01*
X9936Y-10346D01*
X9824Y-10346D01*
X9711Y-10290D01*
X9655Y-10234D01*
X9599Y-10121D01*
X9543Y-9896D01*
X9543Y-9615D01*
X9599Y-9390D01*
X9655Y-9278D01*
X9711Y-9221D01*
X9824Y-9165D01*
X10667Y-9165D02*
X10667Y-9390D01*
X11117Y-9165D02*
X11117Y-9390D01*
X12861Y-10796D02*
X12805Y-10740D01*
X12692Y-10571D01*
X12636Y-10459D01*
X12580Y-10290D01*
X12523Y-10009D01*
X12523Y-9784D01*
X12580Y-9503D01*
X12636Y-9334D01*
X12692Y-9221D01*
X12805Y-9053D01*
X12861Y-8996D01*
X13367Y-10346D02*
X13592Y-10346D01*
X13705Y-10290D01*
X13761Y-10234D01*
X13873Y-10065D01*
X13930Y-9840D01*
X13930Y-9390D01*
X13873Y-9278D01*
X13817Y-9221D01*
X13705Y-9165D01*
X13480Y-9165D01*
X13367Y-9221D01*
X13311Y-9278D01*
X13255Y-9390D01*
X13255Y-9671D01*
X13311Y-9784D01*
X13367Y-9840D01*
X13480Y-9896D01*
X13705Y-9896D01*
X13817Y-9840D01*
X13873Y-9784D01*
X13930Y-9671D01*
X14661Y-9165D02*
X14773Y-9165D01*
X14886Y-9221D01*
X14942Y-9278D01*
X14998Y-9390D01*
X15054Y-9615D01*
X15054Y-9896D01*
X14998Y-10121D01*
X14942Y-10234D01*
X14886Y-10290D01*
X14773Y-10346D01*
X14661Y-10346D01*
X14548Y-10290D01*
X14492Y-10234D01*
X14436Y-10121D01*
X14380Y-9896D01*
X14380Y-9615D01*
X14436Y-9390D01*
X14492Y-9278D01*
X14548Y-9221D01*
X14661Y-9165D01*
X16461Y-10346D02*
X16461Y-9165D01*
X16967Y-10346D02*
X16967Y-9727D01*
X16910Y-9615D01*
X16798Y-9559D01*
X16629Y-9559D01*
X16517Y-9615D01*
X16461Y-9671D01*
X17698Y-10346D02*
X17585Y-10290D01*
X17529Y-10234D01*
X17473Y-10121D01*
X17473Y-9784D01*
X17529Y-9671D01*
X17585Y-9615D01*
X17698Y-9559D01*
X17867Y-9559D01*
X17979Y-9615D01*
X18035Y-9671D01*
X18092Y-9784D01*
X18092Y-10121D01*
X18035Y-10234D01*
X17979Y-10290D01*
X17867Y-10346D01*
X17698Y-10346D01*
X18766Y-10346D02*
X18654Y-10290D01*
X18598Y-10177D01*
X18598Y-9165D01*
X19666Y-10290D02*
X19554Y-10346D01*
X19329Y-10346D01*
X19216Y-10290D01*
X19160Y-10177D01*
X19160Y-9727D01*
X19216Y-9615D01*
X19329Y-9559D01*
X19554Y-9559D01*
X19666Y-9615D01*
X19723Y-9727D01*
X19723Y-9840D01*
X19160Y-9952D01*
X20173Y-10290D02*
X20285Y-10346D01*
X20510Y-10346D01*
X20622Y-10290D01*
X20679Y-10177D01*
X20679Y-10121D01*
X20622Y-10009D01*
X20510Y-9952D01*
X20341Y-9952D01*
X20229Y-9896D01*
X20173Y-9784D01*
X20173Y-9727D01*
X20229Y-9615D01*
X20341Y-9559D01*
X20510Y-9559D01*
X20622Y-9615D01*
X21072Y-10796D02*
X21129Y-10740D01*
X21241Y-10571D01*
X21297Y-10459D01*
X21354Y-10290D01*
X21410Y-10009D01*
X21410Y-9784D01*
X21354Y-9503D01*
X21297Y-9334D01*
X21241Y-9221D01*
X21129Y-9053D01*
X21072Y-8996D01*
X-5705Y-11252D02*
X-5705Y-11602D01*
X-5880Y-11427D02*
X-5530Y-11427D01*
X-4236Y-10724D02*
X-4123Y-10724D01*
X-4011Y-10780D01*
X-3955Y-10837D01*
X-3898Y-10949D01*
X-3842Y-11174D01*
X-3842Y-11455D01*
X-3898Y-11680D01*
X-3955Y-11793D01*
X-4011Y-11849D01*
X-4123Y-11905D01*
X-4236Y-11905D01*
X-4348Y-11849D01*
X-4405Y-11793D01*
X-4461Y-11680D01*
X-4517Y-11455D01*
X-4517Y-11174D01*
X-4461Y-10949D01*
X-4405Y-10837D01*
X-4348Y-10780D01*
X-4236Y-10724D01*
X-3336Y-11793D02*
X-3280Y-11849D01*
X-3336Y-11905D01*
X-3392Y-11849D01*
X-3336Y-11793D01*
X-3336Y-11905D01*
X-2605Y-11230D02*
X-2717Y-11174D01*
X-2774Y-11118D01*
X-2830Y-11005D01*
X-2830Y-10949D01*
X-2774Y-10837D01*
X-2717Y-10780D01*
X-2605Y-10724D01*
X-2380Y-10724D01*
X-2267Y-10780D01*
X-2211Y-10837D01*
X-2155Y-10949D01*
X-2155Y-11005D01*
X-2211Y-11118D01*
X-2267Y-11174D01*
X-2380Y-11230D01*
X-2605Y-11230D01*
X-2717Y-11287D01*
X-2774Y-11343D01*
X-2830Y-11455D01*
X-2830Y-11680D01*
X-2774Y-11793D01*
X-2717Y-11849D01*
X-2605Y-11905D01*
X-2380Y-11905D01*
X-2267Y-11849D01*
X-2211Y-11793D01*
X-2155Y-11680D01*
X-2155Y-11455D01*
X-2211Y-11343D01*
X-2267Y-11287D01*
X-2380Y-11230D01*
X-1592Y-11905D02*
X-1368Y-11905D01*
X-1255Y-11849D01*
X-1199Y-11793D01*
X-1086Y-11624D01*
X-1030Y-11399D01*
X-1030Y-10949D01*
X-1086Y-10837D01*
X-1143Y-10780D01*
X-1255Y-10724D01*
X-1480Y-10724D01*
X-1592Y-10780D01*
X-1649Y-10837D01*
X-1705Y-10949D01*
X-1705Y-11230D01*
X-1649Y-11343D01*
X-1592Y-11399D01*
X-1480Y-11455D01*
X-1255Y-11455D01*
X-1143Y-11399D01*
X-1086Y-11343D01*
X-1030Y-11230D01*
X-524Y-11905D02*
X-524Y-11118D01*
X-524Y-11230D02*
X-468Y-11174D01*
X-355Y-11118D01*
X-186Y-11118D01*
X-74Y-11174D01*
X-18Y-11287D01*
X-18Y-11905D01*
X-18Y-11287D02*
X38Y-11174D01*
X150Y-11118D01*
X319Y-11118D01*
X431Y-11174D01*
X487Y-11287D01*
X487Y-11905D01*
X1050Y-11905D02*
X1050Y-11118D01*
X1050Y-11230D02*
X1106Y-11174D01*
X1219Y-11118D01*
X1387Y-11118D01*
X1500Y-11174D01*
X1556Y-11287D01*
X1556Y-11905D01*
X1556Y-11287D02*
X1612Y-11174D01*
X1725Y-11118D01*
X1894Y-11118D01*
X2006Y-11174D01*
X2062Y-11287D01*
X2062Y-11905D01*
X4368Y-10668D02*
X3356Y-12186D01*
X5887Y-10724D02*
X5999Y-10724D01*
X6112Y-10780D01*
X6168Y-10837D01*
X6224Y-10949D01*
X6281Y-11174D01*
X6281Y-11455D01*
X6224Y-11680D01*
X6168Y-11793D01*
X6112Y-11849D01*
X5999Y-11905D01*
X5887Y-11905D01*
X5774Y-11849D01*
X5718Y-11793D01*
X5662Y-11680D01*
X5606Y-11455D01*
X5606Y-11174D01*
X5662Y-10949D01*
X5718Y-10837D01*
X5774Y-10780D01*
X5887Y-10724D01*
X6787Y-11793D02*
X6843Y-11849D01*
X6787Y-11905D01*
X6730Y-11849D01*
X6787Y-11793D01*
X6787Y-11905D01*
X7574Y-10724D02*
X7687Y-10724D01*
X7799Y-10780D01*
X7855Y-10837D01*
X7912Y-10949D01*
X7968Y-11174D01*
X7968Y-11455D01*
X7912Y-11680D01*
X7855Y-11793D01*
X7799Y-11849D01*
X7687Y-11905D01*
X7574Y-11905D01*
X7462Y-11849D01*
X7405Y-11793D01*
X7349Y-11680D01*
X7293Y-11455D01*
X7293Y-11174D01*
X7349Y-10949D01*
X7405Y-10837D01*
X7462Y-10780D01*
X7574Y-10724D01*
X8362Y-10724D02*
X9093Y-10724D01*
X8699Y-11174D01*
X8868Y-11174D01*
X8980Y-11230D01*
X9036Y-11287D01*
X9093Y-11399D01*
X9093Y-11680D01*
X9036Y-11793D01*
X8980Y-11849D01*
X8868Y-11905D01*
X8530Y-11905D01*
X8418Y-11849D01*
X8362Y-11793D01*
X10161Y-10724D02*
X9599Y-10724D01*
X9543Y-11287D01*
X9599Y-11230D01*
X9711Y-11174D01*
X9993Y-11174D01*
X10105Y-11230D01*
X10161Y-11287D01*
X10218Y-11399D01*
X10218Y-11680D01*
X10161Y-11793D01*
X10105Y-11849D01*
X9993Y-11905D01*
X9711Y-11905D01*
X9599Y-11849D01*
X9543Y-11793D01*
X10667Y-10724D02*
X10667Y-10949D01*
X11117Y-10724D02*
X11117Y-10949D01*
X12861Y-12355D02*
X12805Y-12299D01*
X12692Y-12130D01*
X12636Y-12018D01*
X12580Y-11849D01*
X12523Y-11568D01*
X12523Y-11343D01*
X12580Y-11062D01*
X12636Y-10893D01*
X12692Y-10780D01*
X12805Y-10612D01*
X12861Y-10555D01*
X13198Y-10724D02*
X13930Y-10724D01*
X13536Y-11174D01*
X13705Y-11174D01*
X13817Y-11230D01*
X13873Y-11287D01*
X13930Y-11399D01*
X13930Y-11680D01*
X13873Y-11793D01*
X13817Y-11849D01*
X13705Y-11905D01*
X13367Y-11905D01*
X13255Y-11849D01*
X13198Y-11793D01*
X14942Y-10724D02*
X14717Y-10724D01*
X14604Y-10780D01*
X14548Y-10837D01*
X14436Y-11005D01*
X14380Y-11230D01*
X14380Y-11680D01*
X14436Y-11793D01*
X14492Y-11849D01*
X14604Y-11905D01*
X14829Y-11905D01*
X14942Y-11849D01*
X14998Y-11793D01*
X15054Y-11680D01*
X15054Y-11399D01*
X14998Y-11287D01*
X14942Y-11230D01*
X14829Y-11174D01*
X14604Y-11174D01*
X14492Y-11230D01*
X14436Y-11287D01*
X14380Y-11399D01*
X16461Y-11905D02*
X16461Y-10724D01*
X16967Y-11905D02*
X16967Y-11287D01*
X16910Y-11174D01*
X16798Y-11118D01*
X16629Y-11118D01*
X16517Y-11174D01*
X16461Y-11230D01*
X17698Y-11905D02*
X17585Y-11849D01*
X17529Y-11793D01*
X17473Y-11680D01*
X17473Y-11343D01*
X17529Y-11230D01*
X17585Y-11174D01*
X17698Y-11118D01*
X17867Y-11118D01*
X17979Y-11174D01*
X18035Y-11230D01*
X18092Y-11343D01*
X18092Y-11680D01*
X18035Y-11793D01*
X17979Y-11849D01*
X17867Y-11905D01*
X17698Y-11905D01*
X18766Y-11905D02*
X18654Y-11849D01*
X18598Y-11736D01*
X18598Y-10724D01*
X19666Y-11849D02*
X19554Y-11905D01*
X19329Y-11905D01*
X19216Y-11849D01*
X19160Y-11736D01*
X19160Y-11287D01*
X19216Y-11174D01*
X19329Y-11118D01*
X19554Y-11118D01*
X19666Y-11174D01*
X19723Y-11287D01*
X19723Y-11399D01*
X19160Y-11512D01*
X20173Y-11849D02*
X20285Y-11905D01*
X20510Y-11905D01*
X20622Y-11849D01*
X20679Y-11736D01*
X20679Y-11680D01*
X20622Y-11568D01*
X20510Y-11512D01*
X20341Y-11512D01*
X20229Y-11455D01*
X20173Y-11343D01*
X20173Y-11287D01*
X20229Y-11174D01*
X20341Y-11118D01*
X20510Y-11118D01*
X20622Y-11174D01*
X21072Y-12355D02*
X21129Y-12299D01*
X21241Y-12130D01*
X21297Y-12018D01*
X21354Y-11849D01*
X21410Y-11568D01*
X21410Y-11343D01*
X21354Y-11062D01*
X21297Y-10893D01*
X21241Y-10780D01*
X21129Y-10612D01*
X21072Y-10555D01*
G54D13*
X-5588Y-13128D02*
X-5588Y-12845D01*
X-5871Y-12845D01*
X-5871Y-13128D01*
X-5588Y-13128D01*
G54D14*
X-3842Y-13464D02*
X-4517Y-13464D01*
X-4180Y-13464D02*
X-4180Y-12283D01*
X-4292Y-12452D01*
X-4405Y-12564D01*
X-4517Y-12621D01*
X-3336Y-13352D02*
X-3280Y-13408D01*
X-3336Y-13464D01*
X-3392Y-13408D01*
X-3336Y-13352D01*
X-3336Y-13464D01*
X-2549Y-12283D02*
X-2436Y-12283D01*
X-2324Y-12339D01*
X-2267Y-12396D01*
X-2211Y-12508D01*
X-2155Y-12733D01*
X-2155Y-13014D01*
X-2211Y-13239D01*
X-2267Y-13352D01*
X-2324Y-13408D01*
X-2436Y-13464D01*
X-2549Y-13464D01*
X-2661Y-13408D01*
X-2717Y-13352D01*
X-2774Y-13239D01*
X-2830Y-13014D01*
X-2830Y-12733D01*
X-2774Y-12508D01*
X-2717Y-12396D01*
X-2661Y-12339D01*
X-2549Y-12283D01*
X-1705Y-12396D02*
X-1649Y-12339D01*
X-1536Y-12283D01*
X-1255Y-12283D01*
X-1143Y-12339D01*
X-1086Y-12396D01*
X-1030Y-12508D01*
X-1030Y-12621D01*
X-1086Y-12789D01*
X-1761Y-13464D01*
X-1030Y-13464D01*
X-524Y-13464D02*
X-524Y-12677D01*
X-524Y-12789D02*
X-468Y-12733D01*
X-355Y-12677D01*
X-186Y-12677D01*
X-74Y-12733D01*
X-18Y-12846D01*
X-18Y-13464D01*
X-18Y-12846D02*
X38Y-12733D01*
X150Y-12677D01*
X319Y-12677D01*
X431Y-12733D01*
X487Y-12846D01*
X487Y-13464D01*
X1050Y-13464D02*
X1050Y-12677D01*
X1050Y-12789D02*
X1106Y-12733D01*
X1219Y-12677D01*
X1387Y-12677D01*
X1500Y-12733D01*
X1556Y-12846D01*
X1556Y-13464D01*
X1556Y-12846D02*
X1612Y-12733D01*
X1725Y-12677D01*
X1894Y-12677D01*
X2006Y-12733D01*
X2062Y-12846D01*
X2062Y-13464D01*
X4368Y-12227D02*
X3356Y-13745D01*
X5887Y-12283D02*
X5999Y-12283D01*
X6112Y-12339D01*
X6168Y-12396D01*
X6224Y-12508D01*
X6281Y-12733D01*
X6281Y-13014D01*
X6224Y-13239D01*
X6168Y-13352D01*
X6112Y-13408D01*
X5999Y-13464D01*
X5887Y-13464D01*
X5774Y-13408D01*
X5718Y-13352D01*
X5662Y-13239D01*
X5606Y-13014D01*
X5606Y-12733D01*
X5662Y-12508D01*
X5718Y-12396D01*
X5774Y-12339D01*
X5887Y-12283D01*
X6787Y-13352D02*
X6843Y-13408D01*
X6787Y-13464D01*
X6730Y-13408D01*
X6787Y-13352D01*
X6787Y-13464D01*
X7574Y-12283D02*
X7687Y-12283D01*
X7799Y-12339D01*
X7855Y-12396D01*
X7912Y-12508D01*
X7968Y-12733D01*
X7968Y-13014D01*
X7912Y-13239D01*
X7855Y-13352D01*
X7799Y-13408D01*
X7687Y-13464D01*
X7574Y-13464D01*
X7462Y-13408D01*
X7405Y-13352D01*
X7349Y-13239D01*
X7293Y-13014D01*
X7293Y-12733D01*
X7349Y-12508D01*
X7405Y-12396D01*
X7462Y-12339D01*
X7574Y-12283D01*
X8980Y-12677D02*
X8980Y-13464D01*
X8699Y-12227D02*
X8418Y-13071D01*
X9149Y-13071D01*
X9824Y-12283D02*
X9936Y-12283D01*
X10049Y-12339D01*
X10105Y-12396D01*
X10161Y-12508D01*
X10218Y-12733D01*
X10218Y-13014D01*
X10161Y-13239D01*
X10105Y-13352D01*
X10049Y-13408D01*
X9936Y-13464D01*
X9824Y-13464D01*
X9711Y-13408D01*
X9655Y-13352D01*
X9599Y-13239D01*
X9543Y-13014D01*
X9543Y-12733D01*
X9599Y-12508D01*
X9655Y-12396D01*
X9711Y-12339D01*
X9824Y-12283D01*
X10667Y-12283D02*
X10667Y-12508D01*
X11117Y-12283D02*
X11117Y-12508D01*
X12861Y-13914D02*
X12805Y-13858D01*
X12692Y-13689D01*
X12636Y-13577D01*
X12580Y-13408D01*
X12523Y-13127D01*
X12523Y-12902D01*
X12580Y-12621D01*
X12636Y-12452D01*
X12692Y-12339D01*
X12805Y-12171D01*
X12861Y-12114D01*
X13817Y-12283D02*
X13592Y-12283D01*
X13480Y-12339D01*
X13423Y-12396D01*
X13311Y-12564D01*
X13255Y-12789D01*
X13255Y-13239D01*
X13311Y-13352D01*
X13367Y-13408D01*
X13480Y-13464D01*
X13705Y-13464D01*
X13817Y-13408D01*
X13873Y-13352D01*
X13930Y-13239D01*
X13930Y-12958D01*
X13873Y-12846D01*
X13817Y-12789D01*
X13705Y-12733D01*
X13480Y-12733D01*
X13367Y-12789D01*
X13311Y-12846D01*
X13255Y-12958D01*
X15336Y-13464D02*
X15336Y-12283D01*
X15842Y-13464D02*
X15842Y-12846D01*
X15786Y-12733D01*
X15673Y-12677D01*
X15504Y-12677D01*
X15392Y-12733D01*
X15336Y-12789D01*
X16573Y-13464D02*
X16461Y-13408D01*
X16404Y-13352D01*
X16348Y-13239D01*
X16348Y-12902D01*
X16404Y-12789D01*
X16461Y-12733D01*
X16573Y-12677D01*
X16742Y-12677D01*
X16854Y-12733D01*
X16910Y-12789D01*
X16967Y-12902D01*
X16967Y-13239D01*
X16910Y-13352D01*
X16854Y-13408D01*
X16742Y-13464D01*
X16573Y-13464D01*
X17642Y-13464D02*
X17529Y-13408D01*
X17473Y-13296D01*
X17473Y-12283D01*
X18541Y-13408D02*
X18429Y-13464D01*
X18204Y-13464D01*
X18092Y-13408D01*
X18035Y-13296D01*
X18035Y-12846D01*
X18092Y-12733D01*
X18204Y-12677D01*
X18429Y-12677D01*
X18541Y-12733D01*
X18598Y-12846D01*
X18598Y-12958D01*
X18035Y-13071D01*
X19048Y-13408D02*
X19160Y-13464D01*
X19385Y-13464D01*
X19498Y-13408D01*
X19554Y-13296D01*
X19554Y-13239D01*
X19498Y-13127D01*
X19385Y-13071D01*
X19216Y-13071D01*
X19104Y-13014D01*
X19048Y-12902D01*
X19048Y-12846D01*
X19104Y-12733D01*
X19216Y-12677D01*
X19385Y-12677D01*
X19498Y-12733D01*
X19948Y-13914D02*
X20004Y-13858D01*
X20116Y-13689D01*
X20173Y-13577D01*
X20229Y-13408D01*
X20285Y-13127D01*
X20285Y-12902D01*
X20229Y-12621D01*
X20173Y-12452D01*
X20116Y-12339D01*
X20004Y-12171D01*
X19948Y-12114D01*
M02*
