G04 (created by PCBNEW (2012-11-15 BZR 3804)-stable) date Wed 13 Mar 2013 22:53:22 CDT*
%MOIN*%
G04 Gerber Fmt 3.4, Leading zero omitted, Abs format*
%FSLAX34Y34*%
G01*
G70*
G90*
G04 APERTURE LIST*
%ADD10C,0.006*%
%ADD11C,0.00590551*%
%ADD12R,0.18X0.09*%
G04 APERTURE END LIST*
G54D10*
X-41000Y34000D02*
X61000Y34000D01*
X61000Y-43000D01*
X-41000Y-43000D01*
X-41000Y34000D01*
X-40300Y33300D02*
X60300Y33300D01*
X60300Y-42300D01*
X-40300Y-42300D01*
X-40300Y33300D01*
X-20600Y34000D02*
X-20600Y33300D01*
X-30657Y33447D02*
X-30942Y33447D01*
X-30800Y33447D02*
X-30800Y33947D01*
X-30847Y33876D01*
X-30895Y33828D01*
X-30942Y33804D01*
X-20600Y-43000D02*
X-20600Y-42300D01*
X-30657Y-42852D02*
X-30942Y-42852D01*
X-30800Y-42852D02*
X-30800Y-42352D01*
X-30847Y-42423D01*
X-30895Y-42471D01*
X-30942Y-42495D01*
X-200Y34000D02*
X-200Y33300D01*
X-10542Y33900D02*
X-10519Y33923D01*
X-10471Y33947D01*
X-10352Y33947D01*
X-10304Y33923D01*
X-10280Y33900D01*
X-10257Y33852D01*
X-10257Y33804D01*
X-10280Y33733D01*
X-10566Y33447D01*
X-10257Y33447D01*
X-200Y-43000D02*
X-200Y-42300D01*
X-10542Y-42400D02*
X-10519Y-42376D01*
X-10471Y-42352D01*
X-10352Y-42352D01*
X-10304Y-42376D01*
X-10280Y-42400D01*
X-10257Y-42447D01*
X-10257Y-42495D01*
X-10280Y-42566D01*
X-10566Y-42852D01*
X-10257Y-42852D01*
X20200Y34000D02*
X20200Y33300D01*
X9833Y33947D02*
X10142Y33947D01*
X9976Y33757D01*
X10047Y33757D01*
X10095Y33733D01*
X10119Y33709D01*
X10142Y33661D01*
X10142Y33542D01*
X10119Y33495D01*
X10095Y33471D01*
X10047Y33447D01*
X9904Y33447D01*
X9857Y33471D01*
X9833Y33495D01*
X20200Y-43000D02*
X20200Y-42300D01*
X9833Y-42352D02*
X10142Y-42352D01*
X9976Y-42542D01*
X10047Y-42542D01*
X10095Y-42566D01*
X10119Y-42590D01*
X10142Y-42638D01*
X10142Y-42757D01*
X10119Y-42804D01*
X10095Y-42828D01*
X10047Y-42852D01*
X9904Y-42852D01*
X9857Y-42828D01*
X9833Y-42804D01*
X40600Y34000D02*
X40600Y33300D01*
X30495Y33780D02*
X30495Y33447D01*
X30376Y33971D02*
X30257Y33614D01*
X30566Y33614D01*
X40600Y-43000D02*
X40600Y-42300D01*
X30495Y-42519D02*
X30495Y-42852D01*
X30376Y-42328D02*
X30257Y-42685D01*
X30566Y-42685D01*
X50919Y33947D02*
X50680Y33947D01*
X50657Y33709D01*
X50680Y33733D01*
X50728Y33757D01*
X50847Y33757D01*
X50895Y33733D01*
X50919Y33709D01*
X50942Y33661D01*
X50942Y33542D01*
X50919Y33495D01*
X50895Y33471D01*
X50847Y33447D01*
X50728Y33447D01*
X50680Y33471D01*
X50657Y33495D01*
X50919Y-42352D02*
X50680Y-42352D01*
X50657Y-42590D01*
X50680Y-42566D01*
X50728Y-42542D01*
X50847Y-42542D01*
X50895Y-42566D01*
X50919Y-42590D01*
X50942Y-42638D01*
X50942Y-42757D01*
X50919Y-42804D01*
X50895Y-42828D01*
X50847Y-42852D01*
X50728Y-42852D01*
X50680Y-42828D01*
X50657Y-42804D01*
X-41000Y8340D02*
X-40300Y8340D01*
X-40769Y21110D02*
X-40530Y21110D01*
X-40816Y20967D02*
X-40649Y21467D01*
X-40483Y20967D01*
X61000Y8340D02*
X60300Y8340D01*
X60530Y21110D02*
X60769Y21110D01*
X60483Y20967D02*
X60650Y21467D01*
X60816Y20967D01*
X-41000Y-17320D02*
X-40300Y-17320D01*
X-40614Y-4430D02*
X-40542Y-4454D01*
X-40519Y-4478D01*
X-40495Y-4525D01*
X-40495Y-4597D01*
X-40519Y-4644D01*
X-40542Y-4668D01*
X-40590Y-4692D01*
X-40780Y-4692D01*
X-40780Y-4192D01*
X-40614Y-4192D01*
X-40566Y-4216D01*
X-40542Y-4240D01*
X-40519Y-4287D01*
X-40519Y-4335D01*
X-40542Y-4382D01*
X-40566Y-4406D01*
X-40614Y-4430D01*
X-40780Y-4430D01*
X61000Y-17320D02*
X60300Y-17320D01*
X60685Y-4430D02*
X60757Y-4454D01*
X60780Y-4478D01*
X60804Y-4525D01*
X60804Y-4597D01*
X60780Y-4644D01*
X60757Y-4668D01*
X60709Y-4692D01*
X60519Y-4692D01*
X60519Y-4192D01*
X60685Y-4192D01*
X60733Y-4216D01*
X60757Y-4240D01*
X60780Y-4287D01*
X60780Y-4335D01*
X60757Y-4382D01*
X60733Y-4406D01*
X60685Y-4430D01*
X60519Y-4430D01*
X-40495Y-30304D02*
X-40519Y-30328D01*
X-40590Y-30352D01*
X-40638Y-30352D01*
X-40709Y-30328D01*
X-40757Y-30280D01*
X-40780Y-30233D01*
X-40804Y-30138D01*
X-40804Y-30066D01*
X-40780Y-29971D01*
X-40757Y-29923D01*
X-40709Y-29876D01*
X-40638Y-29852D01*
X-40590Y-29852D01*
X-40519Y-29876D01*
X-40495Y-29900D01*
X60804Y-30304D02*
X60780Y-30328D01*
X60709Y-30352D01*
X60661Y-30352D01*
X60590Y-30328D01*
X60542Y-30280D01*
X60519Y-30233D01*
X60495Y-30138D01*
X60495Y-30066D01*
X60519Y-29971D01*
X60542Y-29923D01*
X60590Y-29876D01*
X60661Y-29852D01*
X60709Y-29852D01*
X60780Y-29876D01*
X60804Y-29900D01*
X27450Y-40742D02*
X27525Y-40142D01*
X27667Y-40142D01*
X27750Y-40171D01*
X27800Y-40228D01*
X27821Y-40285D01*
X27835Y-40400D01*
X27825Y-40485D01*
X27782Y-40600D01*
X27746Y-40657D01*
X27682Y-40714D01*
X27592Y-40742D01*
X27450Y-40742D01*
X28307Y-40742D02*
X28346Y-40428D01*
X28325Y-40371D01*
X28271Y-40342D01*
X28157Y-40342D01*
X28096Y-40371D01*
X28310Y-40714D02*
X28250Y-40742D01*
X28107Y-40742D01*
X28053Y-40714D01*
X28032Y-40657D01*
X28039Y-40600D01*
X28075Y-40542D01*
X28135Y-40514D01*
X28278Y-40514D01*
X28339Y-40485D01*
X28557Y-40342D02*
X28785Y-40342D01*
X28667Y-40142D02*
X28603Y-40657D01*
X28625Y-40714D01*
X28678Y-40742D01*
X28735Y-40742D01*
X29167Y-40714D02*
X29107Y-40742D01*
X28992Y-40742D01*
X28939Y-40714D01*
X28917Y-40657D01*
X28946Y-40428D01*
X28982Y-40371D01*
X29042Y-40342D01*
X29157Y-40342D01*
X29210Y-40371D01*
X29232Y-40428D01*
X29225Y-40485D01*
X28932Y-40542D01*
X29457Y-40685D02*
X29482Y-40714D01*
X29450Y-40742D01*
X29425Y-40714D01*
X29457Y-40685D01*
X29450Y-40742D01*
X29496Y-40371D02*
X29521Y-40400D01*
X29489Y-40428D01*
X29464Y-40400D01*
X29496Y-40371D01*
X29489Y-40428D01*
X30507Y-40742D02*
X30164Y-40742D01*
X30335Y-40742D02*
X30410Y-40142D01*
X30342Y-40228D01*
X30278Y-40285D01*
X30217Y-40314D01*
X31071Y-40342D02*
X31021Y-40742D01*
X30957Y-40114D02*
X30760Y-40542D01*
X31132Y-40542D01*
X31792Y-40742D02*
X31842Y-40342D01*
X31835Y-40400D02*
X31867Y-40371D01*
X31928Y-40342D01*
X32014Y-40342D01*
X32067Y-40371D01*
X32089Y-40428D01*
X32050Y-40742D01*
X32089Y-40428D02*
X32125Y-40371D01*
X32185Y-40342D01*
X32271Y-40342D01*
X32325Y-40371D01*
X32346Y-40428D01*
X32307Y-40742D01*
X32850Y-40742D02*
X32889Y-40428D01*
X32867Y-40371D01*
X32814Y-40342D01*
X32700Y-40342D01*
X32639Y-40371D01*
X32853Y-40714D02*
X32792Y-40742D01*
X32650Y-40742D01*
X32596Y-40714D01*
X32575Y-40657D01*
X32582Y-40600D01*
X32617Y-40542D01*
X32678Y-40514D01*
X32821Y-40514D01*
X32882Y-40485D01*
X33135Y-40742D02*
X33185Y-40342D01*
X33171Y-40457D02*
X33207Y-40400D01*
X33239Y-40371D01*
X33300Y-40342D01*
X33357Y-40342D01*
X34003Y-40200D02*
X34035Y-40171D01*
X34096Y-40142D01*
X34239Y-40142D01*
X34292Y-40171D01*
X34317Y-40200D01*
X34339Y-40257D01*
X34332Y-40314D01*
X34292Y-40400D01*
X33907Y-40742D01*
X34278Y-40742D01*
X34725Y-40142D02*
X34782Y-40142D01*
X34835Y-40171D01*
X34860Y-40200D01*
X34882Y-40257D01*
X34896Y-40371D01*
X34878Y-40514D01*
X34835Y-40628D01*
X34800Y-40685D01*
X34767Y-40714D01*
X34707Y-40742D01*
X34650Y-40742D01*
X34596Y-40714D01*
X34571Y-40685D01*
X34550Y-40628D01*
X34535Y-40514D01*
X34553Y-40371D01*
X34596Y-40257D01*
X34632Y-40200D01*
X34664Y-40171D01*
X34725Y-40142D01*
X35421Y-40742D02*
X35078Y-40742D01*
X35250Y-40742D02*
X35325Y-40142D01*
X35257Y-40228D01*
X35192Y-40285D01*
X35132Y-40314D01*
X35696Y-40142D02*
X36067Y-40142D01*
X35839Y-40371D01*
X35925Y-40371D01*
X35978Y-40400D01*
X36003Y-40428D01*
X36025Y-40485D01*
X36007Y-40628D01*
X35971Y-40685D01*
X35939Y-40714D01*
X35878Y-40742D01*
X35707Y-40742D01*
X35653Y-40714D01*
X35628Y-40685D01*
X19042Y-41942D02*
X19042Y-41342D01*
X19385Y-41942D02*
X19128Y-41600D01*
X19385Y-41342D02*
X19042Y-41685D01*
X19642Y-41942D02*
X19642Y-41542D01*
X19642Y-41342D02*
X19614Y-41371D01*
X19642Y-41400D01*
X19671Y-41371D01*
X19642Y-41342D01*
X19642Y-41400D01*
X20271Y-41885D02*
X20242Y-41914D01*
X20157Y-41942D01*
X20100Y-41942D01*
X20014Y-41914D01*
X19957Y-41857D01*
X19928Y-41800D01*
X19900Y-41685D01*
X19900Y-41600D01*
X19928Y-41485D01*
X19957Y-41428D01*
X20014Y-41371D01*
X20100Y-41342D01*
X20157Y-41342D01*
X20242Y-41371D01*
X20271Y-41400D01*
X20785Y-41942D02*
X20785Y-41628D01*
X20757Y-41571D01*
X20700Y-41542D01*
X20585Y-41542D01*
X20528Y-41571D01*
X20785Y-41914D02*
X20728Y-41942D01*
X20585Y-41942D01*
X20528Y-41914D01*
X20500Y-41857D01*
X20500Y-41800D01*
X20528Y-41742D01*
X20585Y-41714D01*
X20728Y-41714D01*
X20785Y-41685D01*
X21328Y-41942D02*
X21328Y-41342D01*
X21328Y-41914D02*
X21271Y-41942D01*
X21157Y-41942D01*
X21100Y-41914D01*
X21071Y-41885D01*
X21042Y-41828D01*
X21042Y-41657D01*
X21071Y-41600D01*
X21100Y-41571D01*
X21157Y-41542D01*
X21271Y-41542D01*
X21328Y-41571D01*
X22071Y-41628D02*
X22271Y-41628D01*
X22357Y-41942D02*
X22071Y-41942D01*
X22071Y-41342D01*
X22357Y-41342D01*
X22614Y-41885D02*
X22642Y-41914D01*
X22614Y-41942D01*
X22585Y-41914D01*
X22614Y-41885D01*
X22614Y-41942D01*
X22899Y-41942D02*
X22899Y-41342D01*
X23042Y-41342D01*
X23128Y-41371D01*
X23185Y-41428D01*
X23214Y-41485D01*
X23242Y-41600D01*
X23242Y-41685D01*
X23214Y-41800D01*
X23185Y-41857D01*
X23128Y-41914D01*
X23042Y-41942D01*
X22899Y-41942D01*
X23499Y-41885D02*
X23528Y-41914D01*
X23499Y-41942D01*
X23471Y-41914D01*
X23499Y-41885D01*
X23499Y-41942D01*
X23757Y-41771D02*
X24042Y-41771D01*
X23699Y-41942D02*
X23899Y-41342D01*
X24099Y-41942D01*
X24299Y-41885D02*
X24328Y-41914D01*
X24299Y-41942D01*
X24271Y-41914D01*
X24299Y-41885D01*
X24299Y-41942D01*
X52592Y-40742D02*
X52428Y-40457D01*
X52250Y-40742D02*
X52325Y-40142D01*
X52553Y-40142D01*
X52607Y-40171D01*
X52632Y-40200D01*
X52653Y-40257D01*
X52642Y-40342D01*
X52607Y-40400D01*
X52575Y-40428D01*
X52514Y-40457D01*
X52285Y-40457D01*
X53082Y-40714D02*
X53021Y-40742D01*
X52907Y-40742D01*
X52853Y-40714D01*
X52832Y-40657D01*
X52860Y-40428D01*
X52896Y-40371D01*
X52957Y-40342D01*
X53071Y-40342D01*
X53125Y-40371D01*
X53146Y-40428D01*
X53139Y-40485D01*
X52846Y-40542D01*
X53357Y-40342D02*
X53450Y-40742D01*
X53642Y-40342D01*
X53828Y-40685D02*
X53853Y-40714D01*
X53821Y-40742D01*
X53796Y-40714D01*
X53828Y-40685D01*
X53821Y-40742D01*
X53867Y-40371D02*
X53892Y-40400D01*
X53860Y-40428D01*
X53835Y-40400D01*
X53867Y-40371D01*
X53860Y-40428D01*
X54564Y-40742D02*
X54639Y-40142D01*
X54867Y-40142D01*
X54921Y-40171D01*
X54946Y-40200D01*
X54967Y-40257D01*
X54957Y-40342D01*
X54921Y-40400D01*
X54889Y-40428D01*
X54828Y-40457D01*
X54600Y-40457D01*
X55182Y-40142D02*
X55553Y-40142D01*
X55325Y-40371D01*
X55410Y-40371D01*
X55464Y-40400D01*
X55489Y-40428D01*
X55510Y-40485D01*
X55492Y-40628D01*
X55457Y-40685D01*
X55425Y-40714D01*
X55364Y-40742D01*
X55192Y-40742D01*
X55139Y-40714D01*
X55114Y-40685D01*
X19014Y-40714D02*
X19100Y-40742D01*
X19242Y-40742D01*
X19300Y-40714D01*
X19328Y-40685D01*
X19357Y-40628D01*
X19357Y-40571D01*
X19328Y-40514D01*
X19300Y-40485D01*
X19242Y-40457D01*
X19128Y-40428D01*
X19071Y-40400D01*
X19042Y-40371D01*
X19014Y-40314D01*
X19014Y-40257D01*
X19042Y-40200D01*
X19071Y-40171D01*
X19128Y-40142D01*
X19271Y-40142D01*
X19357Y-40171D01*
X19614Y-40742D02*
X19614Y-40342D01*
X19614Y-40142D02*
X19585Y-40171D01*
X19614Y-40200D01*
X19642Y-40171D01*
X19614Y-40142D01*
X19614Y-40200D01*
X19842Y-40342D02*
X20157Y-40342D01*
X19842Y-40742D01*
X20157Y-40742D01*
X20614Y-40714D02*
X20557Y-40742D01*
X20442Y-40742D01*
X20385Y-40714D01*
X20357Y-40657D01*
X20357Y-40428D01*
X20385Y-40371D01*
X20442Y-40342D01*
X20557Y-40342D01*
X20614Y-40371D01*
X20642Y-40428D01*
X20642Y-40485D01*
X20357Y-40542D01*
X20900Y-40685D02*
X20928Y-40714D01*
X20900Y-40742D01*
X20871Y-40714D01*
X20900Y-40685D01*
X20900Y-40742D01*
X20900Y-40371D02*
X20928Y-40400D01*
X20900Y-40428D01*
X20871Y-40400D01*
X20900Y-40371D01*
X20900Y-40428D01*
X21614Y-40571D02*
X21900Y-40571D01*
X21557Y-40742D02*
X21757Y-40142D01*
X21957Y-40742D01*
X52242Y-41942D02*
X52242Y-41342D01*
X52785Y-41942D02*
X52785Y-41342D01*
X52785Y-41914D02*
X52728Y-41942D01*
X52614Y-41942D01*
X52557Y-41914D01*
X52528Y-41885D01*
X52500Y-41828D01*
X52500Y-41657D01*
X52528Y-41600D01*
X52557Y-41571D01*
X52614Y-41542D01*
X52728Y-41542D01*
X52785Y-41571D01*
X53071Y-41885D02*
X53100Y-41914D01*
X53071Y-41942D01*
X53042Y-41914D01*
X53071Y-41885D01*
X53071Y-41942D01*
X53071Y-41571D02*
X53100Y-41600D01*
X53071Y-41628D01*
X53042Y-41600D01*
X53071Y-41571D01*
X53071Y-41628D01*
X54128Y-41942D02*
X53785Y-41942D01*
X53957Y-41942D02*
X53957Y-41342D01*
X53899Y-41428D01*
X53842Y-41485D01*
X53785Y-41514D01*
X54814Y-41314D02*
X54300Y-42085D01*
X55328Y-41942D02*
X54985Y-41942D01*
X55157Y-41942D02*
X55157Y-41342D01*
X55099Y-41428D01*
X55042Y-41485D01*
X54985Y-41514D01*
X19039Y-38942D02*
X19382Y-38942D01*
X19135Y-39542D02*
X19210Y-38942D01*
X19507Y-39542D02*
X19557Y-39142D01*
X19582Y-38942D02*
X19550Y-38971D01*
X19575Y-39000D01*
X19607Y-38971D01*
X19582Y-38942D01*
X19575Y-39000D01*
X19757Y-39142D02*
X19985Y-39142D01*
X19867Y-38942D02*
X19803Y-39457D01*
X19825Y-39514D01*
X19878Y-39542D01*
X19935Y-39542D01*
X20221Y-39542D02*
X20167Y-39514D01*
X20146Y-39457D01*
X20210Y-38942D01*
X20682Y-39514D02*
X20621Y-39542D01*
X20507Y-39542D01*
X20453Y-39514D01*
X20432Y-39457D01*
X20460Y-39228D01*
X20496Y-39171D01*
X20557Y-39142D01*
X20671Y-39142D01*
X20725Y-39171D01*
X20746Y-39228D01*
X20739Y-39285D01*
X20446Y-39342D01*
X20971Y-39485D02*
X20996Y-39514D01*
X20964Y-39542D01*
X20939Y-39514D01*
X20971Y-39485D01*
X20964Y-39542D01*
X21010Y-39171D02*
X21035Y-39200D01*
X21003Y-39228D01*
X20978Y-39200D01*
X21010Y-39171D01*
X21003Y-39228D01*
X21946Y-39228D02*
X22028Y-39257D01*
X22053Y-39285D01*
X22075Y-39342D01*
X22064Y-39428D01*
X22028Y-39485D01*
X21996Y-39514D01*
X21935Y-39542D01*
X21707Y-39542D01*
X21782Y-38942D01*
X21982Y-38942D01*
X22035Y-38971D01*
X22060Y-39000D01*
X22082Y-39057D01*
X22075Y-39114D01*
X22039Y-39171D01*
X22007Y-39200D01*
X21946Y-39228D01*
X21746Y-39228D01*
X22496Y-38942D02*
X22610Y-38942D01*
X22664Y-38971D01*
X22714Y-39028D01*
X22728Y-39142D01*
X22703Y-39342D01*
X22660Y-39457D01*
X22596Y-39514D01*
X22535Y-39542D01*
X22421Y-39542D01*
X22367Y-39514D01*
X22317Y-39457D01*
X22303Y-39342D01*
X22328Y-39142D01*
X22371Y-39028D01*
X22435Y-38971D01*
X22496Y-38942D01*
X22928Y-39371D02*
X23214Y-39371D01*
X22850Y-39542D02*
X23125Y-38942D01*
X23250Y-39542D01*
X23792Y-39542D02*
X23628Y-39257D01*
X23450Y-39542D02*
X23525Y-38942D01*
X23753Y-38942D01*
X23807Y-38971D01*
X23832Y-39000D01*
X23853Y-39057D01*
X23842Y-39142D01*
X23807Y-39200D01*
X23775Y-39228D01*
X23714Y-39257D01*
X23485Y-39257D01*
X24050Y-39542D02*
X24125Y-38942D01*
X24267Y-38942D01*
X24350Y-38971D01*
X24400Y-39028D01*
X24421Y-39085D01*
X24435Y-39200D01*
X24425Y-39285D01*
X24382Y-39400D01*
X24346Y-39457D01*
X24282Y-39514D01*
X24192Y-39542D01*
X24050Y-39542D01*
X24682Y-39514D02*
X24678Y-39542D01*
X24642Y-39600D01*
X24610Y-39628D01*
X25392Y-39542D02*
X25467Y-38942D01*
X25696Y-38942D01*
X25749Y-38971D01*
X25775Y-39000D01*
X25796Y-39057D01*
X25785Y-39142D01*
X25750Y-39200D01*
X25717Y-39228D01*
X25657Y-39257D01*
X25428Y-39257D01*
X26342Y-39485D02*
X26310Y-39514D01*
X26221Y-39542D01*
X26164Y-39542D01*
X26082Y-39514D01*
X26032Y-39457D01*
X26010Y-39400D01*
X25996Y-39285D01*
X26007Y-39200D01*
X26050Y-39085D01*
X26085Y-39028D01*
X26149Y-38971D01*
X26239Y-38942D01*
X26296Y-38942D01*
X26378Y-38971D01*
X26403Y-39000D01*
X26625Y-39514D02*
X26621Y-39542D01*
X26585Y-39600D01*
X26553Y-39628D01*
X27325Y-38942D02*
X27667Y-38942D01*
X27421Y-39542D02*
X27496Y-38942D01*
X27792Y-39542D02*
X27867Y-38942D01*
X27832Y-39228D02*
X28175Y-39228D01*
X28135Y-39542D02*
X28210Y-38942D01*
X28610Y-38942D02*
X28725Y-38942D01*
X28778Y-38971D01*
X28828Y-39028D01*
X28842Y-39142D01*
X28817Y-39342D01*
X28774Y-39457D01*
X28710Y-39514D01*
X28650Y-39542D01*
X28535Y-39542D01*
X28482Y-39514D01*
X28432Y-39457D01*
X28417Y-39342D01*
X28442Y-39142D01*
X28485Y-39028D01*
X28549Y-38971D01*
X28610Y-38942D01*
X29039Y-38942D02*
X29382Y-38942D01*
X29135Y-39542D02*
X29210Y-38942D01*
X29507Y-39542D02*
X29582Y-38942D01*
X29849Y-39542D02*
X29635Y-39200D01*
X29924Y-38942D02*
X29539Y-39285D01*
X30296Y-38942D02*
X30410Y-38942D01*
X30464Y-38971D01*
X30514Y-39028D01*
X30528Y-39142D01*
X30503Y-39342D01*
X30460Y-39457D01*
X30396Y-39514D01*
X30335Y-39542D01*
X30221Y-39542D01*
X30167Y-39514D01*
X30117Y-39457D01*
X30103Y-39342D01*
X30128Y-39142D01*
X30171Y-39028D01*
X30235Y-38971D01*
X30296Y-38942D01*
X30735Y-39542D02*
X30810Y-38942D01*
X31078Y-39542D01*
X31153Y-38942D01*
X32010Y-38942D02*
X32124Y-38942D01*
X32178Y-38971D01*
X32228Y-39028D01*
X32242Y-39142D01*
X32217Y-39342D01*
X32174Y-39457D01*
X32110Y-39514D01*
X32049Y-39542D01*
X31935Y-39542D01*
X31882Y-39514D01*
X31832Y-39457D01*
X31817Y-39342D01*
X31842Y-39142D01*
X31885Y-39028D01*
X31949Y-38971D01*
X32010Y-38942D01*
X32467Y-38942D02*
X32792Y-39542D01*
X32867Y-38942D02*
X32392Y-39542D01*
X33328Y-39142D02*
X33278Y-39542D01*
X33214Y-38914D02*
X33017Y-39342D01*
X33389Y-39342D01*
X19242Y-36828D02*
X19042Y-36828D01*
X19042Y-37142D02*
X19042Y-36542D01*
X19328Y-36542D01*
X19557Y-37142D02*
X19557Y-36742D01*
X19557Y-36542D02*
X19528Y-36571D01*
X19557Y-36600D01*
X19585Y-36571D01*
X19557Y-36542D01*
X19557Y-36600D01*
X19928Y-37142D02*
X19871Y-37114D01*
X19842Y-37057D01*
X19842Y-36542D01*
X20385Y-37114D02*
X20328Y-37142D01*
X20214Y-37142D01*
X20157Y-37114D01*
X20128Y-37057D01*
X20128Y-36828D01*
X20157Y-36771D01*
X20214Y-36742D01*
X20328Y-36742D01*
X20385Y-36771D01*
X20414Y-36828D01*
X20414Y-36885D01*
X20128Y-36942D01*
X20671Y-37085D02*
X20700Y-37114D01*
X20671Y-37142D01*
X20642Y-37114D01*
X20671Y-37085D01*
X20671Y-37142D01*
X20671Y-36771D02*
X20700Y-36800D01*
X20671Y-36828D01*
X20642Y-36800D01*
X20671Y-36771D01*
X20671Y-36828D01*
X21328Y-36742D02*
X21557Y-36742D01*
X21414Y-36542D02*
X21414Y-37057D01*
X21442Y-37114D01*
X21500Y-37142D01*
X21557Y-37142D01*
X21757Y-37142D02*
X21757Y-36542D01*
X22014Y-37142D02*
X22014Y-36828D01*
X21985Y-36771D01*
X21928Y-36742D01*
X21842Y-36742D01*
X21785Y-36771D01*
X21757Y-36800D01*
X22385Y-37142D02*
X22328Y-37114D01*
X22300Y-37085D01*
X22271Y-37028D01*
X22271Y-36857D01*
X22300Y-36800D01*
X22328Y-36771D01*
X22385Y-36742D01*
X22471Y-36742D01*
X22528Y-36771D01*
X22557Y-36800D01*
X22585Y-36857D01*
X22585Y-37028D01*
X22557Y-37085D01*
X22528Y-37114D01*
X22471Y-37142D01*
X22385Y-37142D01*
X22757Y-36742D02*
X22985Y-36742D01*
X22842Y-36542D02*
X22842Y-37057D01*
X22871Y-37114D01*
X22928Y-37142D01*
X22985Y-37142D01*
X23442Y-37114D02*
X23385Y-37142D01*
X23271Y-37142D01*
X23214Y-37114D01*
X23185Y-37085D01*
X23157Y-37028D01*
X23157Y-36857D01*
X23185Y-36800D01*
X23214Y-36771D01*
X23271Y-36742D01*
X23385Y-36742D01*
X23442Y-36771D01*
X23785Y-37142D02*
X23728Y-37114D01*
X23700Y-37085D01*
X23671Y-37028D01*
X23671Y-36857D01*
X23700Y-36800D01*
X23728Y-36771D01*
X23785Y-36742D01*
X23871Y-36742D01*
X23928Y-36771D01*
X23957Y-36800D01*
X23985Y-36857D01*
X23985Y-37028D01*
X23957Y-37085D01*
X23928Y-37114D01*
X23871Y-37142D01*
X23785Y-37142D01*
X24242Y-36742D02*
X24242Y-37142D01*
X24242Y-36800D02*
X24271Y-36771D01*
X24328Y-36742D01*
X24414Y-36742D01*
X24471Y-36771D01*
X24500Y-36828D01*
X24500Y-37142D01*
X24642Y-37200D02*
X25100Y-37200D01*
X25242Y-37142D02*
X25242Y-36542D01*
X25242Y-36771D02*
X25300Y-36742D01*
X25414Y-36742D01*
X25471Y-36771D01*
X25500Y-36800D01*
X25528Y-36857D01*
X25528Y-37028D01*
X25500Y-37085D01*
X25471Y-37114D01*
X25414Y-37142D01*
X25300Y-37142D01*
X25242Y-37114D01*
X26042Y-37142D02*
X26042Y-36828D01*
X26014Y-36771D01*
X25957Y-36742D01*
X25842Y-36742D01*
X25785Y-36771D01*
X26042Y-37114D02*
X25985Y-37142D01*
X25842Y-37142D01*
X25785Y-37114D01*
X25757Y-37057D01*
X25757Y-37000D01*
X25785Y-36942D01*
X25842Y-36914D01*
X25985Y-36914D01*
X26042Y-36885D01*
X26585Y-37142D02*
X26585Y-36542D01*
X26585Y-37114D02*
X26528Y-37142D01*
X26414Y-37142D01*
X26357Y-37114D01*
X26328Y-37085D01*
X26300Y-37028D01*
X26300Y-36857D01*
X26328Y-36800D01*
X26357Y-36771D01*
X26414Y-36742D01*
X26528Y-36742D01*
X26585Y-36771D01*
X27128Y-36742D02*
X27128Y-37228D01*
X27100Y-37285D01*
X27071Y-37314D01*
X27014Y-37342D01*
X26928Y-37342D01*
X26871Y-37314D01*
X27128Y-37114D02*
X27071Y-37142D01*
X26957Y-37142D01*
X26900Y-37114D01*
X26871Y-37085D01*
X26842Y-37028D01*
X26842Y-36857D01*
X26871Y-36800D01*
X26900Y-36771D01*
X26957Y-36742D01*
X27071Y-36742D01*
X27128Y-36771D01*
X27642Y-37114D02*
X27585Y-37142D01*
X27471Y-37142D01*
X27414Y-37114D01*
X27385Y-37057D01*
X27385Y-36828D01*
X27414Y-36771D01*
X27471Y-36742D01*
X27585Y-36742D01*
X27642Y-36771D01*
X27671Y-36828D01*
X27671Y-36885D01*
X27385Y-36942D01*
X27785Y-37200D02*
X28242Y-37200D01*
X28328Y-36742D02*
X28642Y-36742D01*
X28328Y-37142D01*
X28642Y-37142D01*
X28871Y-37142D02*
X28871Y-36742D01*
X28871Y-36542D02*
X28842Y-36571D01*
X28871Y-36600D01*
X28900Y-36571D01*
X28871Y-36542D01*
X28871Y-36600D01*
X29414Y-36742D02*
X29414Y-37228D01*
X29385Y-37285D01*
X29357Y-37314D01*
X29299Y-37342D01*
X29214Y-37342D01*
X29157Y-37314D01*
X29414Y-37114D02*
X29357Y-37142D01*
X29242Y-37142D01*
X29185Y-37114D01*
X29157Y-37085D01*
X29128Y-37028D01*
X29128Y-36857D01*
X29157Y-36800D01*
X29185Y-36771D01*
X29242Y-36742D01*
X29357Y-36742D01*
X29414Y-36771D01*
X29699Y-37085D02*
X29728Y-37114D01*
X29699Y-37142D01*
X29671Y-37114D01*
X29699Y-37085D01*
X29699Y-37142D01*
X29985Y-37142D02*
X29985Y-36542D01*
X29985Y-36771D02*
X30042Y-36742D01*
X30157Y-36742D01*
X30214Y-36771D01*
X30242Y-36800D01*
X30271Y-36857D01*
X30271Y-37028D01*
X30242Y-37085D01*
X30214Y-37114D01*
X30157Y-37142D01*
X30042Y-37142D01*
X29985Y-37114D01*
X30528Y-37142D02*
X30528Y-36742D01*
X30528Y-36857D02*
X30557Y-36800D01*
X30585Y-36771D01*
X30642Y-36742D01*
X30699Y-36742D01*
X31157Y-37142D02*
X31157Y-36542D01*
X31157Y-37114D02*
X31099Y-37142D01*
X30985Y-37142D01*
X30928Y-37114D01*
X30899Y-37085D01*
X30871Y-37028D01*
X30871Y-36857D01*
X30899Y-36800D01*
X30928Y-36771D01*
X30985Y-36742D01*
X31099Y-36742D01*
X31157Y-36771D01*
X19014Y-38314D02*
X19100Y-38342D01*
X19242Y-38342D01*
X19300Y-38314D01*
X19328Y-38285D01*
X19357Y-38228D01*
X19357Y-38171D01*
X19328Y-38114D01*
X19300Y-38085D01*
X19242Y-38057D01*
X19128Y-38028D01*
X19071Y-38000D01*
X19042Y-37971D01*
X19014Y-37914D01*
X19014Y-37857D01*
X19042Y-37800D01*
X19071Y-37771D01*
X19128Y-37742D01*
X19271Y-37742D01*
X19357Y-37771D01*
X19614Y-38342D02*
X19614Y-37742D01*
X19871Y-38342D02*
X19871Y-38028D01*
X19842Y-37971D01*
X19785Y-37942D01*
X19700Y-37942D01*
X19642Y-37971D01*
X19614Y-38000D01*
X20385Y-38314D02*
X20328Y-38342D01*
X20214Y-38342D01*
X20157Y-38314D01*
X20128Y-38257D01*
X20128Y-38028D01*
X20157Y-37971D01*
X20214Y-37942D01*
X20328Y-37942D01*
X20385Y-37971D01*
X20414Y-38028D01*
X20414Y-38085D01*
X20128Y-38142D01*
X20900Y-38314D02*
X20842Y-38342D01*
X20728Y-38342D01*
X20671Y-38314D01*
X20642Y-38257D01*
X20642Y-38028D01*
X20671Y-37971D01*
X20728Y-37942D01*
X20842Y-37942D01*
X20900Y-37971D01*
X20928Y-38028D01*
X20928Y-38085D01*
X20642Y-38142D01*
X21100Y-37942D02*
X21328Y-37942D01*
X21185Y-37742D02*
X21185Y-38257D01*
X21214Y-38314D01*
X21271Y-38342D01*
X21328Y-38342D01*
X21528Y-38285D02*
X21557Y-38314D01*
X21528Y-38342D01*
X21500Y-38314D01*
X21528Y-38285D01*
X21528Y-38342D01*
X21528Y-37971D02*
X21557Y-38000D01*
X21528Y-38028D01*
X21500Y-38000D01*
X21528Y-37971D01*
X21528Y-38028D01*
X19067Y-35342D02*
X19135Y-35942D01*
X19303Y-35514D01*
X19364Y-35942D01*
X19582Y-35342D01*
X19821Y-35942D02*
X19767Y-35914D01*
X19742Y-35885D01*
X19721Y-35828D01*
X19742Y-35657D01*
X19778Y-35600D01*
X19810Y-35571D01*
X19871Y-35542D01*
X19957Y-35542D01*
X20010Y-35571D01*
X20035Y-35600D01*
X20057Y-35657D01*
X20035Y-35828D01*
X20000Y-35885D01*
X19967Y-35914D01*
X19907Y-35942D01*
X19821Y-35942D01*
X20278Y-35942D02*
X20328Y-35542D01*
X20314Y-35657D02*
X20350Y-35600D01*
X20382Y-35571D01*
X20442Y-35542D01*
X20500Y-35542D01*
X20650Y-35942D02*
X20725Y-35342D01*
X20735Y-35714D02*
X20878Y-35942D01*
X20928Y-35542D02*
X20671Y-35771D01*
X21110Y-35914D02*
X21164Y-35942D01*
X21278Y-35942D01*
X21339Y-35914D01*
X21375Y-35857D01*
X21378Y-35828D01*
X21357Y-35771D01*
X21303Y-35742D01*
X21217Y-35742D01*
X21164Y-35714D01*
X21142Y-35657D01*
X21146Y-35628D01*
X21182Y-35571D01*
X21242Y-35542D01*
X21328Y-35542D01*
X21382Y-35571D01*
X21621Y-35942D02*
X21696Y-35342D01*
X21878Y-35942D02*
X21917Y-35628D01*
X21896Y-35571D01*
X21842Y-35542D01*
X21757Y-35542D01*
X21696Y-35571D01*
X21664Y-35600D01*
X22249Y-35942D02*
X22196Y-35914D01*
X22171Y-35885D01*
X22150Y-35828D01*
X22171Y-35657D01*
X22207Y-35600D01*
X22239Y-35571D01*
X22299Y-35542D01*
X22385Y-35542D01*
X22439Y-35571D01*
X22464Y-35600D01*
X22485Y-35657D01*
X22464Y-35828D01*
X22428Y-35885D01*
X22396Y-35914D01*
X22335Y-35942D01*
X22249Y-35942D01*
X22757Y-35542D02*
X22682Y-36142D01*
X22753Y-35571D02*
X22814Y-35542D01*
X22928Y-35542D01*
X22982Y-35571D01*
X23007Y-35600D01*
X23028Y-35657D01*
X23007Y-35828D01*
X22971Y-35885D01*
X22939Y-35914D01*
X22878Y-35942D01*
X22764Y-35942D01*
X22710Y-35914D01*
X23835Y-35600D02*
X23782Y-35571D01*
X23757Y-35542D01*
X23735Y-35485D01*
X23739Y-35457D01*
X23774Y-35400D01*
X23807Y-35371D01*
X23867Y-35342D01*
X23982Y-35342D01*
X24035Y-35371D01*
X24060Y-35400D01*
X24082Y-35457D01*
X24078Y-35485D01*
X24042Y-35542D01*
X24010Y-35571D01*
X23949Y-35600D01*
X23835Y-35600D01*
X23775Y-35628D01*
X23742Y-35657D01*
X23707Y-35714D01*
X23692Y-35828D01*
X23714Y-35885D01*
X23739Y-35914D01*
X23792Y-35942D01*
X23907Y-35942D01*
X23967Y-35914D01*
X23999Y-35885D01*
X24035Y-35828D01*
X24049Y-35714D01*
X24028Y-35657D01*
X24003Y-35628D01*
X23949Y-35600D01*
X24407Y-35600D02*
X24353Y-35571D01*
X24328Y-35542D01*
X24307Y-35485D01*
X24310Y-35457D01*
X24346Y-35400D01*
X24378Y-35371D01*
X24439Y-35342D01*
X24553Y-35342D01*
X24607Y-35371D01*
X24632Y-35400D01*
X24653Y-35457D01*
X24650Y-35485D01*
X24614Y-35542D01*
X24582Y-35571D01*
X24521Y-35600D01*
X24407Y-35600D01*
X24346Y-35628D01*
X24314Y-35657D01*
X24278Y-35714D01*
X24264Y-35828D01*
X24285Y-35885D01*
X24310Y-35914D01*
X24364Y-35942D01*
X24478Y-35942D01*
X24539Y-35914D01*
X24571Y-35885D01*
X24607Y-35828D01*
X24621Y-35714D01*
X24599Y-35657D01*
X24575Y-35628D01*
X24521Y-35600D01*
X19042Y-34742D02*
X19042Y-34142D01*
X19185Y-34142D01*
X19271Y-34171D01*
X19328Y-34228D01*
X19357Y-34285D01*
X19385Y-34400D01*
X19385Y-34485D01*
X19357Y-34600D01*
X19328Y-34657D01*
X19271Y-34714D01*
X19185Y-34742D01*
X19042Y-34742D01*
X19642Y-34742D02*
X19642Y-34342D01*
X19642Y-34457D02*
X19671Y-34400D01*
X19700Y-34371D01*
X19757Y-34342D01*
X19814Y-34342D01*
X20271Y-34742D02*
X20271Y-34428D01*
X20242Y-34371D01*
X20185Y-34342D01*
X20071Y-34342D01*
X20014Y-34371D01*
X20271Y-34714D02*
X20214Y-34742D01*
X20071Y-34742D01*
X20014Y-34714D01*
X19985Y-34657D01*
X19985Y-34600D01*
X20014Y-34542D01*
X20071Y-34514D01*
X20214Y-34514D01*
X20271Y-34485D01*
X20500Y-34342D02*
X20614Y-34742D01*
X20728Y-34457D01*
X20842Y-34742D01*
X20957Y-34342D01*
X21185Y-34342D02*
X21185Y-34742D01*
X21185Y-34400D02*
X21214Y-34371D01*
X21271Y-34342D01*
X21357Y-34342D01*
X21414Y-34371D01*
X21442Y-34428D01*
X21442Y-34742D01*
X21728Y-34685D02*
X21757Y-34714D01*
X21728Y-34742D01*
X21700Y-34714D01*
X21728Y-34685D01*
X21728Y-34742D01*
X21728Y-34371D02*
X21757Y-34400D01*
X21728Y-34428D01*
X21700Y-34400D01*
X21728Y-34371D01*
X21728Y-34428D01*
X22471Y-34742D02*
X22471Y-34142D01*
X22700Y-34142D01*
X22757Y-34171D01*
X22785Y-34200D01*
X22814Y-34257D01*
X22814Y-34342D01*
X22785Y-34400D01*
X22757Y-34428D01*
X22700Y-34457D01*
X22471Y-34457D01*
X23328Y-34742D02*
X23328Y-34428D01*
X23300Y-34371D01*
X23242Y-34342D01*
X23128Y-34342D01*
X23071Y-34371D01*
X23328Y-34714D02*
X23271Y-34742D01*
X23128Y-34742D01*
X23071Y-34714D01*
X23042Y-34657D01*
X23042Y-34600D01*
X23071Y-34542D01*
X23128Y-34514D01*
X23271Y-34514D01*
X23328Y-34485D01*
X23871Y-34342D02*
X23871Y-34742D01*
X23614Y-34342D02*
X23614Y-34657D01*
X23642Y-34714D01*
X23699Y-34742D01*
X23785Y-34742D01*
X23842Y-34714D01*
X23871Y-34685D01*
X24242Y-34742D02*
X24185Y-34714D01*
X24157Y-34657D01*
X24157Y-34142D01*
X25271Y-34742D02*
X25071Y-34457D01*
X24928Y-34742D02*
X24928Y-34142D01*
X25157Y-34142D01*
X25214Y-34171D01*
X25242Y-34200D01*
X25271Y-34257D01*
X25271Y-34342D01*
X25242Y-34400D01*
X25214Y-34428D01*
X25157Y-34457D01*
X24928Y-34457D01*
X25757Y-34714D02*
X25700Y-34742D01*
X25585Y-34742D01*
X25528Y-34714D01*
X25500Y-34657D01*
X25500Y-34428D01*
X25528Y-34371D01*
X25585Y-34342D01*
X25700Y-34342D01*
X25757Y-34371D01*
X25785Y-34428D01*
X25785Y-34485D01*
X25500Y-34542D01*
X26042Y-34742D02*
X26042Y-34342D01*
X26042Y-34142D02*
X26014Y-34171D01*
X26042Y-34200D01*
X26071Y-34171D01*
X26042Y-34142D01*
X26042Y-34200D01*
X26585Y-34714D02*
X26528Y-34742D01*
X26414Y-34742D01*
X26357Y-34714D01*
X26328Y-34685D01*
X26300Y-34628D01*
X26300Y-34457D01*
X26328Y-34400D01*
X26357Y-34371D01*
X26414Y-34342D01*
X26528Y-34342D01*
X26585Y-34371D01*
X26842Y-34742D02*
X26842Y-34142D01*
X27100Y-34742D02*
X27100Y-34428D01*
X27071Y-34371D01*
X27014Y-34342D01*
X26928Y-34342D01*
X26871Y-34371D01*
X26842Y-34400D01*
X19042Y-33542D02*
X19042Y-32942D01*
X19185Y-32942D01*
X19271Y-32971D01*
X19328Y-33028D01*
X19357Y-33085D01*
X19385Y-33200D01*
X19385Y-33285D01*
X19357Y-33400D01*
X19328Y-33457D01*
X19271Y-33514D01*
X19185Y-33542D01*
X19042Y-33542D01*
X19871Y-33514D02*
X19814Y-33542D01*
X19700Y-33542D01*
X19642Y-33514D01*
X19614Y-33457D01*
X19614Y-33228D01*
X19642Y-33171D01*
X19700Y-33142D01*
X19814Y-33142D01*
X19871Y-33171D01*
X19900Y-33228D01*
X19900Y-33285D01*
X19614Y-33342D01*
X20128Y-33514D02*
X20185Y-33542D01*
X20300Y-33542D01*
X20357Y-33514D01*
X20385Y-33457D01*
X20385Y-33428D01*
X20357Y-33371D01*
X20300Y-33342D01*
X20214Y-33342D01*
X20157Y-33314D01*
X20128Y-33257D01*
X20128Y-33228D01*
X20157Y-33171D01*
X20214Y-33142D01*
X20300Y-33142D01*
X20357Y-33171D01*
X20642Y-33542D02*
X20642Y-33142D01*
X20642Y-32942D02*
X20614Y-32971D01*
X20642Y-33000D01*
X20671Y-32971D01*
X20642Y-32942D01*
X20642Y-33000D01*
X21185Y-33142D02*
X21185Y-33628D01*
X21157Y-33685D01*
X21128Y-33714D01*
X21071Y-33742D01*
X20985Y-33742D01*
X20928Y-33714D01*
X21185Y-33514D02*
X21128Y-33542D01*
X21014Y-33542D01*
X20957Y-33514D01*
X20928Y-33485D01*
X20900Y-33428D01*
X20900Y-33257D01*
X20928Y-33200D01*
X20957Y-33171D01*
X21014Y-33142D01*
X21128Y-33142D01*
X21185Y-33171D01*
X21471Y-33142D02*
X21471Y-33542D01*
X21471Y-33200D02*
X21500Y-33171D01*
X21557Y-33142D01*
X21642Y-33142D01*
X21700Y-33171D01*
X21728Y-33228D01*
X21728Y-33542D01*
X22242Y-33514D02*
X22185Y-33542D01*
X22071Y-33542D01*
X22014Y-33514D01*
X21985Y-33457D01*
X21985Y-33228D01*
X22014Y-33171D01*
X22071Y-33142D01*
X22185Y-33142D01*
X22242Y-33171D01*
X22271Y-33228D01*
X22271Y-33285D01*
X21985Y-33342D01*
X22785Y-33542D02*
X22785Y-32942D01*
X22785Y-33514D02*
X22728Y-33542D01*
X22614Y-33542D01*
X22557Y-33514D01*
X22528Y-33485D01*
X22500Y-33428D01*
X22500Y-33257D01*
X22528Y-33200D01*
X22557Y-33171D01*
X22614Y-33142D01*
X22728Y-33142D01*
X22785Y-33171D01*
X23071Y-33485D02*
X23100Y-33514D01*
X23071Y-33542D01*
X23042Y-33514D01*
X23071Y-33485D01*
X23071Y-33542D01*
X23071Y-33171D02*
X23100Y-33200D01*
X23071Y-33228D01*
X23042Y-33200D01*
X23071Y-33171D01*
X23071Y-33228D01*
X23814Y-33542D02*
X23814Y-32942D01*
X24042Y-32942D01*
X24099Y-32971D01*
X24128Y-33000D01*
X24157Y-33057D01*
X24157Y-33142D01*
X24128Y-33200D01*
X24099Y-33228D01*
X24042Y-33257D01*
X23814Y-33257D01*
X24671Y-33542D02*
X24671Y-33228D01*
X24642Y-33171D01*
X24585Y-33142D01*
X24471Y-33142D01*
X24414Y-33171D01*
X24671Y-33514D02*
X24614Y-33542D01*
X24471Y-33542D01*
X24414Y-33514D01*
X24385Y-33457D01*
X24385Y-33400D01*
X24414Y-33342D01*
X24471Y-33314D01*
X24614Y-33314D01*
X24671Y-33285D01*
X25214Y-33142D02*
X25214Y-33542D01*
X24957Y-33142D02*
X24957Y-33457D01*
X24985Y-33514D01*
X25042Y-33542D01*
X25128Y-33542D01*
X25185Y-33514D01*
X25214Y-33485D01*
X25585Y-33542D02*
X25528Y-33514D01*
X25499Y-33457D01*
X25499Y-32942D01*
X26614Y-33542D02*
X26414Y-33257D01*
X26271Y-33542D02*
X26271Y-32942D01*
X26500Y-32942D01*
X26557Y-32971D01*
X26585Y-33000D01*
X26614Y-33057D01*
X26614Y-33142D01*
X26585Y-33200D01*
X26557Y-33228D01*
X26500Y-33257D01*
X26271Y-33257D01*
X27100Y-33514D02*
X27042Y-33542D01*
X26928Y-33542D01*
X26871Y-33514D01*
X26842Y-33457D01*
X26842Y-33228D01*
X26871Y-33171D01*
X26928Y-33142D01*
X27042Y-33142D01*
X27100Y-33171D01*
X27128Y-33228D01*
X27128Y-33285D01*
X26842Y-33342D01*
X27385Y-33542D02*
X27385Y-33142D01*
X27385Y-32942D02*
X27357Y-32971D01*
X27385Y-33000D01*
X27414Y-32971D01*
X27385Y-32942D01*
X27385Y-33000D01*
X27928Y-33514D02*
X27871Y-33542D01*
X27757Y-33542D01*
X27700Y-33514D01*
X27671Y-33485D01*
X27642Y-33428D01*
X27642Y-33257D01*
X27671Y-33200D01*
X27700Y-33171D01*
X27757Y-33142D01*
X27871Y-33142D01*
X27928Y-33171D01*
X28185Y-33542D02*
X28185Y-32942D01*
X28442Y-33542D02*
X28442Y-33228D01*
X28414Y-33171D01*
X28357Y-33142D01*
X28271Y-33142D01*
X28214Y-33171D01*
X28185Y-33200D01*
X19042Y-32342D02*
X19042Y-31742D01*
X19271Y-31742D01*
X19328Y-31771D01*
X19357Y-31800D01*
X19385Y-31857D01*
X19385Y-31942D01*
X19357Y-32000D01*
X19328Y-32028D01*
X19271Y-32057D01*
X19042Y-32057D01*
X19642Y-32342D02*
X19642Y-31942D01*
X19642Y-32057D02*
X19671Y-32000D01*
X19700Y-31971D01*
X19757Y-31942D01*
X19814Y-31942D01*
X20100Y-32342D02*
X20042Y-32314D01*
X20014Y-32285D01*
X19985Y-32228D01*
X19985Y-32057D01*
X20014Y-32000D01*
X20042Y-31971D01*
X20100Y-31942D01*
X20185Y-31942D01*
X20242Y-31971D01*
X20271Y-32000D01*
X20300Y-32057D01*
X20300Y-32228D01*
X20271Y-32285D01*
X20242Y-32314D01*
X20185Y-32342D01*
X20100Y-32342D01*
X20557Y-31942D02*
X20557Y-32457D01*
X20528Y-32514D01*
X20471Y-32542D01*
X20442Y-32542D01*
X20557Y-31742D02*
X20528Y-31771D01*
X20557Y-31800D01*
X20585Y-31771D01*
X20557Y-31742D01*
X20557Y-31800D01*
X21071Y-32314D02*
X21014Y-32342D01*
X20900Y-32342D01*
X20842Y-32314D01*
X20814Y-32257D01*
X20814Y-32028D01*
X20842Y-31971D01*
X20900Y-31942D01*
X21014Y-31942D01*
X21071Y-31971D01*
X21100Y-32028D01*
X21100Y-32085D01*
X20814Y-32142D01*
X21614Y-32314D02*
X21557Y-32342D01*
X21442Y-32342D01*
X21385Y-32314D01*
X21357Y-32285D01*
X21328Y-32228D01*
X21328Y-32057D01*
X21357Y-32000D01*
X21385Y-31971D01*
X21442Y-31942D01*
X21557Y-31942D01*
X21614Y-31971D01*
X21785Y-31942D02*
X22014Y-31942D01*
X21871Y-31742D02*
X21871Y-32257D01*
X21900Y-32314D01*
X21957Y-32342D01*
X22014Y-32342D01*
X22671Y-32342D02*
X22671Y-31742D01*
X22871Y-32171D01*
X23071Y-31742D01*
X23071Y-32342D01*
X23614Y-31942D02*
X23614Y-32428D01*
X23585Y-32485D01*
X23557Y-32514D01*
X23500Y-32542D01*
X23414Y-32542D01*
X23357Y-32514D01*
X23614Y-32314D02*
X23557Y-32342D01*
X23442Y-32342D01*
X23385Y-32314D01*
X23357Y-32285D01*
X23328Y-32228D01*
X23328Y-32057D01*
X23357Y-32000D01*
X23385Y-31971D01*
X23442Y-31942D01*
X23557Y-31942D01*
X23614Y-31971D01*
X23900Y-32342D02*
X23900Y-31942D01*
X23900Y-32057D02*
X23928Y-32000D01*
X23957Y-31971D01*
X24014Y-31942D01*
X24071Y-31942D01*
X24271Y-32285D02*
X24300Y-32314D01*
X24271Y-32342D01*
X24242Y-32314D01*
X24271Y-32285D01*
X24271Y-32342D01*
X24271Y-31971D02*
X24300Y-32000D01*
X24271Y-32028D01*
X24242Y-32000D01*
X24271Y-31971D01*
X24271Y-32028D01*
X25357Y-32342D02*
X25157Y-32057D01*
X25014Y-32342D02*
X25014Y-31742D01*
X25242Y-31742D01*
X25300Y-31771D01*
X25328Y-31800D01*
X25357Y-31857D01*
X25357Y-31942D01*
X25328Y-32000D01*
X25300Y-32028D01*
X25242Y-32057D01*
X25014Y-32057D01*
X25614Y-32285D02*
X25642Y-32314D01*
X25614Y-32342D01*
X25585Y-32314D01*
X25614Y-32285D01*
X25614Y-32342D01*
X26700Y-32342D02*
X26500Y-32057D01*
X26357Y-32342D02*
X26357Y-31742D01*
X26585Y-31742D01*
X26642Y-31771D01*
X26671Y-31800D01*
X26700Y-31857D01*
X26700Y-31942D01*
X26671Y-32000D01*
X26642Y-32028D01*
X26585Y-32057D01*
X26357Y-32057D01*
X26957Y-32342D02*
X26957Y-31942D01*
X26957Y-31742D02*
X26928Y-31771D01*
X26957Y-31800D01*
X26985Y-31771D01*
X26957Y-31742D01*
X26957Y-31800D01*
X27214Y-32314D02*
X27271Y-32342D01*
X27385Y-32342D01*
X27442Y-32314D01*
X27471Y-32257D01*
X27471Y-32228D01*
X27442Y-32171D01*
X27385Y-32142D01*
X27300Y-32142D01*
X27242Y-32114D01*
X27214Y-32057D01*
X27214Y-32028D01*
X27242Y-31971D01*
X27300Y-31942D01*
X27385Y-31942D01*
X27442Y-31971D01*
X27642Y-31942D02*
X27871Y-31942D01*
X27728Y-31742D02*
X27728Y-32257D01*
X27757Y-32314D01*
X27814Y-32342D01*
X27871Y-32342D01*
X28071Y-32342D02*
X28071Y-31942D01*
X28071Y-31742D02*
X28042Y-31771D01*
X28071Y-31800D01*
X28100Y-31771D01*
X28071Y-31742D01*
X28071Y-31800D01*
X28614Y-32314D02*
X28557Y-32342D01*
X28442Y-32342D01*
X28385Y-32314D01*
X28357Y-32285D01*
X28328Y-32228D01*
X28328Y-32057D01*
X28357Y-32000D01*
X28385Y-31971D01*
X28442Y-31942D01*
X28557Y-31942D01*
X28614Y-31971D01*
X28871Y-32342D02*
X28871Y-31742D01*
X29128Y-32342D02*
X29128Y-32028D01*
X29100Y-31971D01*
X29042Y-31942D01*
X28957Y-31942D01*
X28900Y-31971D01*
X28871Y-32000D01*
X19328Y-31142D02*
X19042Y-31142D01*
X19042Y-30542D01*
X19528Y-31142D02*
X19528Y-30542D01*
X20157Y-31085D02*
X20128Y-31114D01*
X20042Y-31142D01*
X19985Y-31142D01*
X19899Y-31114D01*
X19842Y-31057D01*
X19814Y-31000D01*
X19785Y-30885D01*
X19785Y-30800D01*
X19814Y-30685D01*
X19842Y-30628D01*
X19899Y-30571D01*
X19985Y-30542D01*
X20042Y-30542D01*
X20128Y-30571D01*
X20157Y-30600D01*
X20414Y-30828D02*
X20614Y-30828D01*
X20699Y-31142D02*
X20414Y-31142D01*
X20414Y-30542D01*
X20699Y-30542D01*
X20957Y-31142D02*
X20957Y-30542D01*
X21299Y-31142D01*
X21299Y-30542D01*
X21557Y-31114D02*
X21642Y-31142D01*
X21785Y-31142D01*
X21842Y-31114D01*
X21871Y-31085D01*
X21899Y-31028D01*
X21899Y-30971D01*
X21871Y-30914D01*
X21842Y-30885D01*
X21785Y-30857D01*
X21671Y-30828D01*
X21614Y-30800D01*
X21585Y-30771D01*
X21557Y-30714D01*
X21557Y-30657D01*
X21585Y-30600D01*
X21614Y-30571D01*
X21671Y-30542D01*
X21814Y-30542D01*
X21899Y-30571D01*
X22157Y-30828D02*
X22357Y-30828D01*
X22442Y-31142D02*
X22157Y-31142D01*
X22157Y-30542D01*
X22442Y-30542D01*
X22699Y-31085D02*
X22728Y-31114D01*
X22699Y-31142D01*
X22671Y-31114D01*
X22699Y-31085D01*
X22699Y-31142D01*
X22699Y-30771D02*
X22728Y-30800D01*
X22699Y-30828D01*
X22671Y-30800D01*
X22699Y-30771D01*
X22699Y-30828D01*
X23785Y-31085D02*
X23757Y-31114D01*
X23671Y-31142D01*
X23614Y-31142D01*
X23528Y-31114D01*
X23471Y-31057D01*
X23442Y-31000D01*
X23414Y-30885D01*
X23414Y-30800D01*
X23442Y-30685D01*
X23471Y-30628D01*
X23528Y-30571D01*
X23614Y-30542D01*
X23671Y-30542D01*
X23757Y-30571D01*
X23785Y-30600D01*
X24385Y-31085D02*
X24357Y-31114D01*
X24271Y-31142D01*
X24214Y-31142D01*
X24128Y-31114D01*
X24071Y-31057D01*
X24042Y-31000D01*
X24014Y-30885D01*
X24014Y-30800D01*
X24042Y-30685D01*
X24071Y-30628D01*
X24128Y-30571D01*
X24214Y-30542D01*
X24271Y-30542D01*
X24357Y-30571D01*
X24385Y-30600D01*
X24642Y-30914D02*
X25099Y-30914D01*
X25585Y-30828D02*
X25671Y-30857D01*
X25699Y-30885D01*
X25728Y-30942D01*
X25728Y-31028D01*
X25699Y-31085D01*
X25671Y-31114D01*
X25614Y-31142D01*
X25385Y-31142D01*
X25385Y-30542D01*
X25585Y-30542D01*
X25642Y-30571D01*
X25671Y-30600D01*
X25699Y-30657D01*
X25699Y-30714D01*
X25671Y-30771D01*
X25642Y-30800D01*
X25585Y-30828D01*
X25385Y-30828D01*
X26099Y-30857D02*
X26099Y-31142D01*
X25899Y-30542D02*
X26099Y-30857D01*
X26299Y-30542D01*
X26499Y-30914D02*
X26957Y-30914D01*
X27214Y-31114D02*
X27299Y-31142D01*
X27442Y-31142D01*
X27499Y-31114D01*
X27528Y-31085D01*
X27557Y-31028D01*
X27557Y-30971D01*
X27528Y-30914D01*
X27499Y-30885D01*
X27442Y-30857D01*
X27328Y-30828D01*
X27271Y-30800D01*
X27242Y-30771D01*
X27214Y-30714D01*
X27214Y-30657D01*
X27242Y-30600D01*
X27271Y-30571D01*
X27328Y-30542D01*
X27471Y-30542D01*
X27557Y-30571D01*
X27785Y-30971D02*
X28071Y-30971D01*
X27728Y-31142D02*
X27928Y-30542D01*
X28128Y-31142D01*
X28328Y-30914D02*
X28785Y-30914D01*
X29014Y-30542D02*
X29385Y-30542D01*
X29185Y-30771D01*
X29271Y-30771D01*
X29328Y-30800D01*
X29357Y-30828D01*
X29385Y-30885D01*
X29385Y-31028D01*
X29357Y-31085D01*
X29328Y-31114D01*
X29271Y-31142D01*
X29100Y-31142D01*
X29042Y-31114D01*
X29014Y-31085D01*
X29642Y-31085D02*
X29671Y-31114D01*
X29642Y-31142D01*
X29614Y-31114D01*
X29642Y-31085D01*
X29642Y-31142D01*
X30042Y-30542D02*
X30100Y-30542D01*
X30157Y-30571D01*
X30185Y-30600D01*
X30214Y-30657D01*
X30242Y-30771D01*
X30242Y-30914D01*
X30214Y-31028D01*
X30185Y-31085D01*
X30157Y-31114D01*
X30100Y-31142D01*
X30042Y-31142D01*
X29985Y-31114D01*
X29957Y-31085D01*
X29928Y-31028D01*
X29900Y-30914D01*
X29900Y-30771D01*
X29928Y-30657D01*
X29957Y-30600D01*
X29985Y-30571D01*
X30042Y-30542D01*
X18300Y-30300D02*
X18300Y-42300D01*
X18300Y-36300D02*
X60300Y-36300D01*
X18300Y-30300D02*
X60300Y-30300D01*
X18300Y-38700D02*
X60300Y-38700D01*
X51500Y-39900D02*
X51500Y-42300D01*
X18300Y-41100D02*
X60300Y-41100D01*
X18300Y-39900D02*
X60300Y-39900D01*
X24900Y-39900D02*
X24900Y-41100D01*
X-1250Y6750D02*
X-1250Y-250D01*
X4250Y17750D02*
G75*
G03X4250Y17750I-1000J0D01*
G74*
G01*
X1750Y17750D02*
X4750Y17750D01*
X3250Y19250D02*
X3250Y16250D01*
X39750Y-6000D02*
G75*
G03X39750Y-6000I-1000J0D01*
G74*
G01*
X37250Y-6000D02*
X40250Y-6000D01*
X38750Y-4500D02*
X38750Y-7500D01*
X38750Y16250D02*
X38500Y16500D01*
X38500Y-4500D02*
X38750Y-4250D01*
X-5250Y-4500D02*
X-5500Y-4250D01*
X-5500Y16250D02*
X-5250Y16500D01*
X-5500Y10850D02*
X-5500Y-4250D01*
X-5500Y16250D02*
X-5500Y11800D01*
X-1250Y10850D02*
X-5500Y10850D01*
X-1250Y11800D02*
X-1250Y10850D01*
X-5500Y11800D02*
X-1250Y11800D01*
X38500Y16500D02*
X-5250Y16500D01*
X38750Y-4250D02*
X38750Y16250D01*
G54D11*
X-5250Y-4500D02*
X38500Y-4500D01*
G54D12*
X27050Y1400D03*
X27050Y10400D03*
M02*
