G04 (created by PCBNEW (2012-11-15 BZR 3804)-stable) date Fri 01 Mar 2013 04:47:19 CST*
%MOIN*%
G04 Gerber Fmt 3.4, Leading zero omitted, Abs format*
%FSLAX34Y34*%
G01*
G70*
G90*
G04 APERTURE LIST*
%ADD10C,0.006*%
%ADD11C,0.00590551*%
G04 APERTURE END LIST*
G54D10*
X-38750Y36250D02*
X63250Y36250D01*
X63250Y-40750D01*
X-38750Y-40750D01*
X-38750Y36250D01*
X-38050Y35550D02*
X62550Y35550D01*
X62550Y-40050D01*
X-38050Y-40050D01*
X-38050Y35550D01*
X-18350Y36250D02*
X-18350Y35550D01*
X-28407Y35697D02*
X-28692Y35697D01*
X-28550Y35697D02*
X-28550Y36197D01*
X-28597Y36126D01*
X-28645Y36078D01*
X-28692Y36054D01*
X-18350Y-40750D02*
X-18350Y-40050D01*
X-28407Y-40602D02*
X-28692Y-40602D01*
X-28550Y-40602D02*
X-28550Y-40102D01*
X-28597Y-40173D01*
X-28645Y-40221D01*
X-28692Y-40245D01*
X2050Y36250D02*
X2050Y35550D01*
X-8292Y36150D02*
X-8269Y36173D01*
X-8221Y36197D01*
X-8102Y36197D01*
X-8054Y36173D01*
X-8030Y36150D01*
X-8007Y36102D01*
X-8007Y36054D01*
X-8030Y35983D01*
X-8316Y35697D01*
X-8007Y35697D01*
X2050Y-40750D02*
X2050Y-40050D01*
X-8292Y-40150D02*
X-8269Y-40126D01*
X-8221Y-40102D01*
X-8102Y-40102D01*
X-8054Y-40126D01*
X-8030Y-40150D01*
X-8007Y-40197D01*
X-8007Y-40245D01*
X-8030Y-40316D01*
X-8316Y-40602D01*
X-8007Y-40602D01*
X22450Y36250D02*
X22450Y35550D01*
X12083Y36197D02*
X12392Y36197D01*
X12226Y36007D01*
X12297Y36007D01*
X12345Y35983D01*
X12369Y35959D01*
X12392Y35911D01*
X12392Y35792D01*
X12369Y35745D01*
X12345Y35721D01*
X12297Y35697D01*
X12154Y35697D01*
X12107Y35721D01*
X12083Y35745D01*
X22450Y-40750D02*
X22450Y-40050D01*
X12083Y-40102D02*
X12392Y-40102D01*
X12226Y-40292D01*
X12297Y-40292D01*
X12345Y-40316D01*
X12369Y-40340D01*
X12392Y-40388D01*
X12392Y-40507D01*
X12369Y-40554D01*
X12345Y-40578D01*
X12297Y-40602D01*
X12154Y-40602D01*
X12107Y-40578D01*
X12083Y-40554D01*
X42850Y36250D02*
X42850Y35550D01*
X32745Y36030D02*
X32745Y35697D01*
X32626Y36221D02*
X32507Y35864D01*
X32816Y35864D01*
X42850Y-40750D02*
X42850Y-40050D01*
X32745Y-40269D02*
X32745Y-40602D01*
X32626Y-40078D02*
X32507Y-40435D01*
X32816Y-40435D01*
X53169Y36197D02*
X52930Y36197D01*
X52907Y35959D01*
X52930Y35983D01*
X52978Y36007D01*
X53097Y36007D01*
X53145Y35983D01*
X53169Y35959D01*
X53192Y35911D01*
X53192Y35792D01*
X53169Y35745D01*
X53145Y35721D01*
X53097Y35697D01*
X52978Y35697D01*
X52930Y35721D01*
X52907Y35745D01*
X53169Y-40102D02*
X52930Y-40102D01*
X52907Y-40340D01*
X52930Y-40316D01*
X52978Y-40292D01*
X53097Y-40292D01*
X53145Y-40316D01*
X53169Y-40340D01*
X53192Y-40388D01*
X53192Y-40507D01*
X53169Y-40554D01*
X53145Y-40578D01*
X53097Y-40602D01*
X52978Y-40602D01*
X52930Y-40578D01*
X52907Y-40554D01*
X-38750Y10590D02*
X-38050Y10590D01*
X-38519Y23360D02*
X-38280Y23360D01*
X-38566Y23217D02*
X-38399Y23717D01*
X-38233Y23217D01*
X63250Y10590D02*
X62550Y10590D01*
X62780Y23360D02*
X63019Y23360D01*
X62733Y23217D02*
X62900Y23717D01*
X63066Y23217D01*
X-38750Y-15070D02*
X-38050Y-15070D01*
X-38364Y-2180D02*
X-38292Y-2204D01*
X-38269Y-2228D01*
X-38245Y-2275D01*
X-38245Y-2347D01*
X-38269Y-2394D01*
X-38292Y-2418D01*
X-38340Y-2442D01*
X-38530Y-2442D01*
X-38530Y-1942D01*
X-38364Y-1942D01*
X-38316Y-1966D01*
X-38292Y-1990D01*
X-38269Y-2037D01*
X-38269Y-2085D01*
X-38292Y-2132D01*
X-38316Y-2156D01*
X-38364Y-2180D01*
X-38530Y-2180D01*
X63250Y-15070D02*
X62550Y-15070D01*
X62935Y-2180D02*
X63007Y-2204D01*
X63030Y-2228D01*
X63054Y-2275D01*
X63054Y-2347D01*
X63030Y-2394D01*
X63007Y-2418D01*
X62959Y-2442D01*
X62769Y-2442D01*
X62769Y-1942D01*
X62935Y-1942D01*
X62983Y-1966D01*
X63007Y-1990D01*
X63030Y-2037D01*
X63030Y-2085D01*
X63007Y-2132D01*
X62983Y-2156D01*
X62935Y-2180D01*
X62769Y-2180D01*
X-38245Y-28054D02*
X-38269Y-28078D01*
X-38340Y-28102D01*
X-38388Y-28102D01*
X-38459Y-28078D01*
X-38507Y-28030D01*
X-38530Y-27983D01*
X-38554Y-27888D01*
X-38554Y-27816D01*
X-38530Y-27721D01*
X-38507Y-27673D01*
X-38459Y-27626D01*
X-38388Y-27602D01*
X-38340Y-27602D01*
X-38269Y-27626D01*
X-38245Y-27650D01*
X63054Y-28054D02*
X63030Y-28078D01*
X62959Y-28102D01*
X62911Y-28102D01*
X62840Y-28078D01*
X62792Y-28030D01*
X62769Y-27983D01*
X62745Y-27888D01*
X62745Y-27816D01*
X62769Y-27721D01*
X62792Y-27673D01*
X62840Y-27626D01*
X62911Y-27602D01*
X62959Y-27602D01*
X63030Y-27626D01*
X63054Y-27650D01*
X29700Y-38492D02*
X29775Y-37892D01*
X29917Y-37892D01*
X30000Y-37921D01*
X30050Y-37978D01*
X30071Y-38035D01*
X30085Y-38150D01*
X30075Y-38235D01*
X30032Y-38350D01*
X29996Y-38407D01*
X29932Y-38464D01*
X29842Y-38492D01*
X29700Y-38492D01*
X30557Y-38492D02*
X30596Y-38178D01*
X30575Y-38121D01*
X30521Y-38092D01*
X30407Y-38092D01*
X30346Y-38121D01*
X30560Y-38464D02*
X30500Y-38492D01*
X30357Y-38492D01*
X30303Y-38464D01*
X30282Y-38407D01*
X30289Y-38350D01*
X30325Y-38292D01*
X30385Y-38264D01*
X30528Y-38264D01*
X30589Y-38235D01*
X30807Y-38092D02*
X31035Y-38092D01*
X30917Y-37892D02*
X30853Y-38407D01*
X30875Y-38464D01*
X30928Y-38492D01*
X30985Y-38492D01*
X31417Y-38464D02*
X31357Y-38492D01*
X31242Y-38492D01*
X31189Y-38464D01*
X31167Y-38407D01*
X31196Y-38178D01*
X31232Y-38121D01*
X31292Y-38092D01*
X31407Y-38092D01*
X31460Y-38121D01*
X31482Y-38178D01*
X31475Y-38235D01*
X31182Y-38292D01*
X31707Y-38435D02*
X31732Y-38464D01*
X31700Y-38492D01*
X31675Y-38464D01*
X31707Y-38435D01*
X31700Y-38492D01*
X31746Y-38121D02*
X31771Y-38150D01*
X31739Y-38178D01*
X31714Y-38150D01*
X31746Y-38121D01*
X31739Y-38178D01*
X32757Y-38492D02*
X32414Y-38492D01*
X32585Y-38492D02*
X32660Y-37892D01*
X32592Y-37978D01*
X32528Y-38035D01*
X32467Y-38064D01*
X33471Y-38492D02*
X33521Y-38092D01*
X33514Y-38150D02*
X33546Y-38121D01*
X33607Y-38092D01*
X33692Y-38092D01*
X33746Y-38121D01*
X33767Y-38178D01*
X33728Y-38492D01*
X33767Y-38178D02*
X33803Y-38121D01*
X33864Y-38092D01*
X33950Y-38092D01*
X34003Y-38121D01*
X34025Y-38178D01*
X33985Y-38492D01*
X34528Y-38492D02*
X34567Y-38178D01*
X34546Y-38121D01*
X34492Y-38092D01*
X34378Y-38092D01*
X34317Y-38121D01*
X34532Y-38464D02*
X34471Y-38492D01*
X34328Y-38492D01*
X34275Y-38464D01*
X34253Y-38407D01*
X34260Y-38350D01*
X34296Y-38292D01*
X34357Y-38264D01*
X34500Y-38264D01*
X34560Y-38235D01*
X34814Y-38492D02*
X34864Y-38092D01*
X34850Y-38207D02*
X34885Y-38150D01*
X34917Y-38121D01*
X34978Y-38092D01*
X35035Y-38092D01*
X35682Y-37950D02*
X35714Y-37921D01*
X35775Y-37892D01*
X35917Y-37892D01*
X35971Y-37921D01*
X35996Y-37950D01*
X36017Y-38007D01*
X36010Y-38064D01*
X35971Y-38150D01*
X35585Y-38492D01*
X35957Y-38492D01*
X36403Y-37892D02*
X36460Y-37892D01*
X36514Y-37921D01*
X36539Y-37950D01*
X36560Y-38007D01*
X36575Y-38121D01*
X36557Y-38264D01*
X36514Y-38378D01*
X36478Y-38435D01*
X36446Y-38464D01*
X36385Y-38492D01*
X36328Y-38492D01*
X36275Y-38464D01*
X36250Y-38435D01*
X36228Y-38378D01*
X36214Y-38264D01*
X36232Y-38121D01*
X36275Y-38007D01*
X36310Y-37950D01*
X36342Y-37921D01*
X36403Y-37892D01*
X37100Y-38492D02*
X36757Y-38492D01*
X36928Y-38492D02*
X37003Y-37892D01*
X36935Y-37978D01*
X36871Y-38035D01*
X36810Y-38064D01*
X37375Y-37892D02*
X37746Y-37892D01*
X37517Y-38121D01*
X37603Y-38121D01*
X37657Y-38150D01*
X37682Y-38178D01*
X37703Y-38235D01*
X37685Y-38378D01*
X37650Y-38435D01*
X37617Y-38464D01*
X37557Y-38492D01*
X37385Y-38492D01*
X37332Y-38464D01*
X37307Y-38435D01*
X21292Y-39692D02*
X21292Y-39092D01*
X21635Y-39692D02*
X21378Y-39350D01*
X21635Y-39092D02*
X21292Y-39435D01*
X21892Y-39692D02*
X21892Y-39292D01*
X21892Y-39092D02*
X21864Y-39121D01*
X21892Y-39150D01*
X21921Y-39121D01*
X21892Y-39092D01*
X21892Y-39150D01*
X22521Y-39635D02*
X22492Y-39664D01*
X22407Y-39692D01*
X22350Y-39692D01*
X22264Y-39664D01*
X22207Y-39607D01*
X22178Y-39550D01*
X22150Y-39435D01*
X22150Y-39350D01*
X22178Y-39235D01*
X22207Y-39178D01*
X22264Y-39121D01*
X22350Y-39092D01*
X22407Y-39092D01*
X22492Y-39121D01*
X22521Y-39150D01*
X23035Y-39692D02*
X23035Y-39378D01*
X23007Y-39321D01*
X22950Y-39292D01*
X22835Y-39292D01*
X22778Y-39321D01*
X23035Y-39664D02*
X22978Y-39692D01*
X22835Y-39692D01*
X22778Y-39664D01*
X22750Y-39607D01*
X22750Y-39550D01*
X22778Y-39492D01*
X22835Y-39464D01*
X22978Y-39464D01*
X23035Y-39435D01*
X23578Y-39692D02*
X23578Y-39092D01*
X23578Y-39664D02*
X23521Y-39692D01*
X23407Y-39692D01*
X23350Y-39664D01*
X23321Y-39635D01*
X23292Y-39578D01*
X23292Y-39407D01*
X23321Y-39350D01*
X23350Y-39321D01*
X23407Y-39292D01*
X23521Y-39292D01*
X23578Y-39321D01*
X24321Y-39378D02*
X24521Y-39378D01*
X24607Y-39692D02*
X24321Y-39692D01*
X24321Y-39092D01*
X24607Y-39092D01*
X24864Y-39635D02*
X24892Y-39664D01*
X24864Y-39692D01*
X24835Y-39664D01*
X24864Y-39635D01*
X24864Y-39692D01*
X25149Y-39692D02*
X25149Y-39092D01*
X25292Y-39092D01*
X25378Y-39121D01*
X25435Y-39178D01*
X25464Y-39235D01*
X25492Y-39350D01*
X25492Y-39435D01*
X25464Y-39550D01*
X25435Y-39607D01*
X25378Y-39664D01*
X25292Y-39692D01*
X25149Y-39692D01*
X25749Y-39635D02*
X25778Y-39664D01*
X25749Y-39692D01*
X25721Y-39664D01*
X25749Y-39635D01*
X25749Y-39692D01*
X26007Y-39521D02*
X26292Y-39521D01*
X25949Y-39692D02*
X26149Y-39092D01*
X26349Y-39692D01*
X26549Y-39635D02*
X26578Y-39664D01*
X26549Y-39692D01*
X26521Y-39664D01*
X26549Y-39635D01*
X26549Y-39692D01*
X54842Y-38492D02*
X54678Y-38207D01*
X54500Y-38492D02*
X54575Y-37892D01*
X54803Y-37892D01*
X54857Y-37921D01*
X54882Y-37950D01*
X54903Y-38007D01*
X54892Y-38092D01*
X54857Y-38150D01*
X54825Y-38178D01*
X54764Y-38207D01*
X54535Y-38207D01*
X55332Y-38464D02*
X55271Y-38492D01*
X55157Y-38492D01*
X55103Y-38464D01*
X55082Y-38407D01*
X55110Y-38178D01*
X55146Y-38121D01*
X55207Y-38092D01*
X55321Y-38092D01*
X55375Y-38121D01*
X55396Y-38178D01*
X55389Y-38235D01*
X55096Y-38292D01*
X55607Y-38092D02*
X55700Y-38492D01*
X55892Y-38092D01*
X56078Y-38435D02*
X56103Y-38464D01*
X56071Y-38492D01*
X56046Y-38464D01*
X56078Y-38435D01*
X56071Y-38492D01*
X56117Y-38121D02*
X56142Y-38150D01*
X56110Y-38178D01*
X56085Y-38150D01*
X56117Y-38121D01*
X56110Y-38178D01*
X56814Y-38492D02*
X56889Y-37892D01*
X57117Y-37892D01*
X57171Y-37921D01*
X57196Y-37950D01*
X57217Y-38007D01*
X57207Y-38092D01*
X57171Y-38150D01*
X57139Y-38178D01*
X57078Y-38207D01*
X56850Y-38207D01*
X57453Y-37950D02*
X57485Y-37921D01*
X57546Y-37892D01*
X57689Y-37892D01*
X57742Y-37921D01*
X57767Y-37950D01*
X57789Y-38007D01*
X57782Y-38064D01*
X57742Y-38150D01*
X57357Y-38492D01*
X57728Y-38492D01*
X21264Y-38464D02*
X21350Y-38492D01*
X21492Y-38492D01*
X21550Y-38464D01*
X21578Y-38435D01*
X21607Y-38378D01*
X21607Y-38321D01*
X21578Y-38264D01*
X21550Y-38235D01*
X21492Y-38207D01*
X21378Y-38178D01*
X21321Y-38150D01*
X21292Y-38121D01*
X21264Y-38064D01*
X21264Y-38007D01*
X21292Y-37950D01*
X21321Y-37921D01*
X21378Y-37892D01*
X21521Y-37892D01*
X21607Y-37921D01*
X21864Y-38492D02*
X21864Y-38092D01*
X21864Y-37892D02*
X21835Y-37921D01*
X21864Y-37950D01*
X21892Y-37921D01*
X21864Y-37892D01*
X21864Y-37950D01*
X22092Y-38092D02*
X22407Y-38092D01*
X22092Y-38492D01*
X22407Y-38492D01*
X22864Y-38464D02*
X22807Y-38492D01*
X22692Y-38492D01*
X22635Y-38464D01*
X22607Y-38407D01*
X22607Y-38178D01*
X22635Y-38121D01*
X22692Y-38092D01*
X22807Y-38092D01*
X22864Y-38121D01*
X22892Y-38178D01*
X22892Y-38235D01*
X22607Y-38292D01*
X23150Y-38435D02*
X23178Y-38464D01*
X23150Y-38492D01*
X23121Y-38464D01*
X23150Y-38435D01*
X23150Y-38492D01*
X23150Y-38121D02*
X23178Y-38150D01*
X23150Y-38178D01*
X23121Y-38150D01*
X23150Y-38121D01*
X23150Y-38178D01*
X23864Y-38321D02*
X24150Y-38321D01*
X23807Y-38492D02*
X24007Y-37892D01*
X24207Y-38492D01*
X54492Y-39692D02*
X54492Y-39092D01*
X55035Y-39692D02*
X55035Y-39092D01*
X55035Y-39664D02*
X54978Y-39692D01*
X54864Y-39692D01*
X54807Y-39664D01*
X54778Y-39635D01*
X54750Y-39578D01*
X54750Y-39407D01*
X54778Y-39350D01*
X54807Y-39321D01*
X54864Y-39292D01*
X54978Y-39292D01*
X55035Y-39321D01*
X55321Y-39635D02*
X55350Y-39664D01*
X55321Y-39692D01*
X55292Y-39664D01*
X55321Y-39635D01*
X55321Y-39692D01*
X55321Y-39321D02*
X55350Y-39350D01*
X55321Y-39378D01*
X55292Y-39350D01*
X55321Y-39321D01*
X55321Y-39378D01*
X56378Y-39692D02*
X56035Y-39692D01*
X56207Y-39692D02*
X56207Y-39092D01*
X56149Y-39178D01*
X56092Y-39235D01*
X56035Y-39264D01*
X57064Y-39064D02*
X56550Y-39835D01*
X57578Y-39692D02*
X57235Y-39692D01*
X57407Y-39692D02*
X57407Y-39092D01*
X57349Y-39178D01*
X57292Y-39235D01*
X57235Y-39264D01*
X21289Y-36692D02*
X21632Y-36692D01*
X21385Y-37292D02*
X21460Y-36692D01*
X21757Y-37292D02*
X21807Y-36892D01*
X21832Y-36692D02*
X21800Y-36721D01*
X21825Y-36750D01*
X21857Y-36721D01*
X21832Y-36692D01*
X21825Y-36750D01*
X22007Y-36892D02*
X22235Y-36892D01*
X22117Y-36692D02*
X22053Y-37207D01*
X22075Y-37264D01*
X22128Y-37292D01*
X22185Y-37292D01*
X22471Y-37292D02*
X22417Y-37264D01*
X22396Y-37207D01*
X22460Y-36692D01*
X22932Y-37264D02*
X22871Y-37292D01*
X22757Y-37292D01*
X22703Y-37264D01*
X22682Y-37207D01*
X22710Y-36978D01*
X22746Y-36921D01*
X22807Y-36892D01*
X22921Y-36892D01*
X22975Y-36921D01*
X22996Y-36978D01*
X22989Y-37035D01*
X22696Y-37092D01*
X23221Y-37235D02*
X23246Y-37264D01*
X23214Y-37292D01*
X23189Y-37264D01*
X23221Y-37235D01*
X23214Y-37292D01*
X23260Y-36921D02*
X23285Y-36950D01*
X23253Y-36978D01*
X23228Y-36950D01*
X23260Y-36921D01*
X23253Y-36978D01*
X24196Y-36978D02*
X24278Y-37007D01*
X24303Y-37035D01*
X24325Y-37092D01*
X24314Y-37178D01*
X24278Y-37235D01*
X24246Y-37264D01*
X24185Y-37292D01*
X23957Y-37292D01*
X24032Y-36692D01*
X24232Y-36692D01*
X24285Y-36721D01*
X24310Y-36750D01*
X24332Y-36807D01*
X24325Y-36864D01*
X24289Y-36921D01*
X24257Y-36950D01*
X24196Y-36978D01*
X23996Y-36978D01*
X24746Y-36692D02*
X24860Y-36692D01*
X24914Y-36721D01*
X24964Y-36778D01*
X24978Y-36892D01*
X24953Y-37092D01*
X24910Y-37207D01*
X24846Y-37264D01*
X24785Y-37292D01*
X24671Y-37292D01*
X24617Y-37264D01*
X24567Y-37207D01*
X24553Y-37092D01*
X24578Y-36892D01*
X24621Y-36778D01*
X24685Y-36721D01*
X24746Y-36692D01*
X25178Y-37121D02*
X25464Y-37121D01*
X25100Y-37292D02*
X25375Y-36692D01*
X25500Y-37292D01*
X26042Y-37292D02*
X25878Y-37007D01*
X25700Y-37292D02*
X25775Y-36692D01*
X26003Y-36692D01*
X26057Y-36721D01*
X26082Y-36750D01*
X26103Y-36807D01*
X26092Y-36892D01*
X26057Y-36950D01*
X26025Y-36978D01*
X25964Y-37007D01*
X25735Y-37007D01*
X26300Y-37292D02*
X26375Y-36692D01*
X26517Y-36692D01*
X26600Y-36721D01*
X26650Y-36778D01*
X26671Y-36835D01*
X26685Y-36950D01*
X26675Y-37035D01*
X26632Y-37150D01*
X26596Y-37207D01*
X26532Y-37264D01*
X26442Y-37292D01*
X26300Y-37292D01*
X26932Y-37264D02*
X26928Y-37292D01*
X26892Y-37350D01*
X26860Y-37378D01*
X27642Y-37292D02*
X27717Y-36692D01*
X27946Y-36692D01*
X27999Y-36721D01*
X28025Y-36750D01*
X28046Y-36807D01*
X28035Y-36892D01*
X28000Y-36950D01*
X27967Y-36978D01*
X27907Y-37007D01*
X27678Y-37007D01*
X28592Y-37235D02*
X28560Y-37264D01*
X28471Y-37292D01*
X28414Y-37292D01*
X28332Y-37264D01*
X28282Y-37207D01*
X28260Y-37150D01*
X28246Y-37035D01*
X28257Y-36950D01*
X28300Y-36835D01*
X28335Y-36778D01*
X28399Y-36721D01*
X28489Y-36692D01*
X28546Y-36692D01*
X28628Y-36721D01*
X28653Y-36750D01*
X28875Y-37264D02*
X28871Y-37292D01*
X28835Y-37350D01*
X28803Y-37378D01*
X29575Y-36692D02*
X29917Y-36692D01*
X29671Y-37292D02*
X29746Y-36692D01*
X30042Y-37292D02*
X30117Y-36692D01*
X30082Y-36978D02*
X30425Y-36978D01*
X30385Y-37292D02*
X30460Y-36692D01*
X30860Y-36692D02*
X30975Y-36692D01*
X31028Y-36721D01*
X31078Y-36778D01*
X31092Y-36892D01*
X31067Y-37092D01*
X31024Y-37207D01*
X30960Y-37264D01*
X30900Y-37292D01*
X30785Y-37292D01*
X30732Y-37264D01*
X30682Y-37207D01*
X30667Y-37092D01*
X30692Y-36892D01*
X30735Y-36778D01*
X30799Y-36721D01*
X30860Y-36692D01*
X31289Y-36692D02*
X31632Y-36692D01*
X31385Y-37292D02*
X31460Y-36692D01*
X31757Y-37292D02*
X31832Y-36692D01*
X32099Y-37292D02*
X31885Y-36950D01*
X32174Y-36692D02*
X31789Y-37035D01*
X32546Y-36692D02*
X32660Y-36692D01*
X32714Y-36721D01*
X32764Y-36778D01*
X32778Y-36892D01*
X32753Y-37092D01*
X32710Y-37207D01*
X32646Y-37264D01*
X32585Y-37292D01*
X32471Y-37292D01*
X32417Y-37264D01*
X32367Y-37207D01*
X32353Y-37092D01*
X32378Y-36892D01*
X32421Y-36778D01*
X32485Y-36721D01*
X32546Y-36692D01*
X32985Y-37292D02*
X33060Y-36692D01*
X33328Y-37292D01*
X33403Y-36692D01*
X34260Y-36692D02*
X34374Y-36692D01*
X34428Y-36721D01*
X34478Y-36778D01*
X34492Y-36892D01*
X34467Y-37092D01*
X34424Y-37207D01*
X34360Y-37264D01*
X34299Y-37292D01*
X34185Y-37292D01*
X34132Y-37264D01*
X34082Y-37207D01*
X34067Y-37092D01*
X34092Y-36892D01*
X34135Y-36778D01*
X34199Y-36721D01*
X34260Y-36692D01*
X34717Y-36692D02*
X35042Y-37292D01*
X35117Y-36692D02*
X34642Y-37292D01*
X35578Y-36892D02*
X35528Y-37292D01*
X35464Y-36664D02*
X35267Y-37092D01*
X35639Y-37092D01*
X21492Y-34578D02*
X21292Y-34578D01*
X21292Y-34892D02*
X21292Y-34292D01*
X21578Y-34292D01*
X21807Y-34892D02*
X21807Y-34492D01*
X21807Y-34292D02*
X21778Y-34321D01*
X21807Y-34350D01*
X21835Y-34321D01*
X21807Y-34292D01*
X21807Y-34350D01*
X22178Y-34892D02*
X22121Y-34864D01*
X22092Y-34807D01*
X22092Y-34292D01*
X22635Y-34864D02*
X22578Y-34892D01*
X22464Y-34892D01*
X22407Y-34864D01*
X22378Y-34807D01*
X22378Y-34578D01*
X22407Y-34521D01*
X22464Y-34492D01*
X22578Y-34492D01*
X22635Y-34521D01*
X22664Y-34578D01*
X22664Y-34635D01*
X22378Y-34692D01*
X22921Y-34835D02*
X22950Y-34864D01*
X22921Y-34892D01*
X22892Y-34864D01*
X22921Y-34835D01*
X22921Y-34892D01*
X22921Y-34521D02*
X22950Y-34550D01*
X22921Y-34578D01*
X22892Y-34550D01*
X22921Y-34521D01*
X22921Y-34578D01*
X23578Y-34492D02*
X23807Y-34492D01*
X23664Y-34292D02*
X23664Y-34807D01*
X23692Y-34864D01*
X23750Y-34892D01*
X23807Y-34892D01*
X24007Y-34892D02*
X24007Y-34292D01*
X24264Y-34892D02*
X24264Y-34578D01*
X24235Y-34521D01*
X24178Y-34492D01*
X24092Y-34492D01*
X24035Y-34521D01*
X24007Y-34550D01*
X24635Y-34892D02*
X24578Y-34864D01*
X24550Y-34835D01*
X24521Y-34778D01*
X24521Y-34607D01*
X24550Y-34550D01*
X24578Y-34521D01*
X24635Y-34492D01*
X24721Y-34492D01*
X24778Y-34521D01*
X24807Y-34550D01*
X24835Y-34607D01*
X24835Y-34778D01*
X24807Y-34835D01*
X24778Y-34864D01*
X24721Y-34892D01*
X24635Y-34892D01*
X25007Y-34492D02*
X25235Y-34492D01*
X25092Y-34292D02*
X25092Y-34807D01*
X25121Y-34864D01*
X25178Y-34892D01*
X25235Y-34892D01*
X25692Y-34864D02*
X25635Y-34892D01*
X25521Y-34892D01*
X25464Y-34864D01*
X25435Y-34835D01*
X25407Y-34778D01*
X25407Y-34607D01*
X25435Y-34550D01*
X25464Y-34521D01*
X25521Y-34492D01*
X25635Y-34492D01*
X25692Y-34521D01*
X26035Y-34892D02*
X25978Y-34864D01*
X25950Y-34835D01*
X25921Y-34778D01*
X25921Y-34607D01*
X25950Y-34550D01*
X25978Y-34521D01*
X26035Y-34492D01*
X26121Y-34492D01*
X26178Y-34521D01*
X26207Y-34550D01*
X26235Y-34607D01*
X26235Y-34778D01*
X26207Y-34835D01*
X26178Y-34864D01*
X26121Y-34892D01*
X26035Y-34892D01*
X26492Y-34492D02*
X26492Y-34892D01*
X26492Y-34550D02*
X26521Y-34521D01*
X26578Y-34492D01*
X26664Y-34492D01*
X26721Y-34521D01*
X26750Y-34578D01*
X26750Y-34892D01*
X26892Y-34950D02*
X27350Y-34950D01*
X27492Y-34892D02*
X27492Y-34292D01*
X27492Y-34521D02*
X27550Y-34492D01*
X27664Y-34492D01*
X27721Y-34521D01*
X27750Y-34550D01*
X27778Y-34607D01*
X27778Y-34778D01*
X27750Y-34835D01*
X27721Y-34864D01*
X27664Y-34892D01*
X27550Y-34892D01*
X27492Y-34864D01*
X28292Y-34892D02*
X28292Y-34578D01*
X28264Y-34521D01*
X28207Y-34492D01*
X28092Y-34492D01*
X28035Y-34521D01*
X28292Y-34864D02*
X28235Y-34892D01*
X28092Y-34892D01*
X28035Y-34864D01*
X28007Y-34807D01*
X28007Y-34750D01*
X28035Y-34692D01*
X28092Y-34664D01*
X28235Y-34664D01*
X28292Y-34635D01*
X28835Y-34892D02*
X28835Y-34292D01*
X28835Y-34864D02*
X28778Y-34892D01*
X28664Y-34892D01*
X28607Y-34864D01*
X28578Y-34835D01*
X28550Y-34778D01*
X28550Y-34607D01*
X28578Y-34550D01*
X28607Y-34521D01*
X28664Y-34492D01*
X28778Y-34492D01*
X28835Y-34521D01*
X29378Y-34492D02*
X29378Y-34978D01*
X29350Y-35035D01*
X29321Y-35064D01*
X29264Y-35092D01*
X29178Y-35092D01*
X29121Y-35064D01*
X29378Y-34864D02*
X29321Y-34892D01*
X29207Y-34892D01*
X29150Y-34864D01*
X29121Y-34835D01*
X29092Y-34778D01*
X29092Y-34607D01*
X29121Y-34550D01*
X29150Y-34521D01*
X29207Y-34492D01*
X29321Y-34492D01*
X29378Y-34521D01*
X29892Y-34864D02*
X29835Y-34892D01*
X29721Y-34892D01*
X29664Y-34864D01*
X29635Y-34807D01*
X29635Y-34578D01*
X29664Y-34521D01*
X29721Y-34492D01*
X29835Y-34492D01*
X29892Y-34521D01*
X29921Y-34578D01*
X29921Y-34635D01*
X29635Y-34692D01*
X30035Y-34950D02*
X30492Y-34950D01*
X30578Y-34492D02*
X30892Y-34492D01*
X30578Y-34892D01*
X30892Y-34892D01*
X31121Y-34892D02*
X31121Y-34492D01*
X31121Y-34292D02*
X31092Y-34321D01*
X31121Y-34350D01*
X31150Y-34321D01*
X31121Y-34292D01*
X31121Y-34350D01*
X31664Y-34492D02*
X31664Y-34978D01*
X31635Y-35035D01*
X31607Y-35064D01*
X31549Y-35092D01*
X31464Y-35092D01*
X31407Y-35064D01*
X31664Y-34864D02*
X31607Y-34892D01*
X31492Y-34892D01*
X31435Y-34864D01*
X31407Y-34835D01*
X31378Y-34778D01*
X31378Y-34607D01*
X31407Y-34550D01*
X31435Y-34521D01*
X31492Y-34492D01*
X31607Y-34492D01*
X31664Y-34521D01*
X31949Y-34835D02*
X31978Y-34864D01*
X31949Y-34892D01*
X31921Y-34864D01*
X31949Y-34835D01*
X31949Y-34892D01*
X32235Y-34892D02*
X32235Y-34292D01*
X32235Y-34521D02*
X32292Y-34492D01*
X32407Y-34492D01*
X32464Y-34521D01*
X32492Y-34550D01*
X32521Y-34607D01*
X32521Y-34778D01*
X32492Y-34835D01*
X32464Y-34864D01*
X32407Y-34892D01*
X32292Y-34892D01*
X32235Y-34864D01*
X32778Y-34892D02*
X32778Y-34492D01*
X32778Y-34607D02*
X32807Y-34550D01*
X32835Y-34521D01*
X32892Y-34492D01*
X32949Y-34492D01*
X33407Y-34892D02*
X33407Y-34292D01*
X33407Y-34864D02*
X33349Y-34892D01*
X33235Y-34892D01*
X33178Y-34864D01*
X33149Y-34835D01*
X33121Y-34778D01*
X33121Y-34607D01*
X33149Y-34550D01*
X33178Y-34521D01*
X33235Y-34492D01*
X33349Y-34492D01*
X33407Y-34521D01*
X21264Y-36064D02*
X21350Y-36092D01*
X21492Y-36092D01*
X21550Y-36064D01*
X21578Y-36035D01*
X21607Y-35978D01*
X21607Y-35921D01*
X21578Y-35864D01*
X21550Y-35835D01*
X21492Y-35807D01*
X21378Y-35778D01*
X21321Y-35750D01*
X21292Y-35721D01*
X21264Y-35664D01*
X21264Y-35607D01*
X21292Y-35550D01*
X21321Y-35521D01*
X21378Y-35492D01*
X21521Y-35492D01*
X21607Y-35521D01*
X21864Y-36092D02*
X21864Y-35492D01*
X22121Y-36092D02*
X22121Y-35778D01*
X22092Y-35721D01*
X22035Y-35692D01*
X21950Y-35692D01*
X21892Y-35721D01*
X21864Y-35750D01*
X22635Y-36064D02*
X22578Y-36092D01*
X22464Y-36092D01*
X22407Y-36064D01*
X22378Y-36007D01*
X22378Y-35778D01*
X22407Y-35721D01*
X22464Y-35692D01*
X22578Y-35692D01*
X22635Y-35721D01*
X22664Y-35778D01*
X22664Y-35835D01*
X22378Y-35892D01*
X23150Y-36064D02*
X23092Y-36092D01*
X22978Y-36092D01*
X22921Y-36064D01*
X22892Y-36007D01*
X22892Y-35778D01*
X22921Y-35721D01*
X22978Y-35692D01*
X23092Y-35692D01*
X23150Y-35721D01*
X23178Y-35778D01*
X23178Y-35835D01*
X22892Y-35892D01*
X23350Y-35692D02*
X23578Y-35692D01*
X23435Y-35492D02*
X23435Y-36007D01*
X23464Y-36064D01*
X23521Y-36092D01*
X23578Y-36092D01*
X23778Y-36035D02*
X23807Y-36064D01*
X23778Y-36092D01*
X23750Y-36064D01*
X23778Y-36035D01*
X23778Y-36092D01*
X23778Y-35721D02*
X23807Y-35750D01*
X23778Y-35778D01*
X23750Y-35750D01*
X23778Y-35721D01*
X23778Y-35778D01*
X21317Y-33092D02*
X21385Y-33692D01*
X21553Y-33264D01*
X21614Y-33692D01*
X21832Y-33092D01*
X22071Y-33692D02*
X22017Y-33664D01*
X21992Y-33635D01*
X21971Y-33578D01*
X21992Y-33407D01*
X22028Y-33350D01*
X22060Y-33321D01*
X22121Y-33292D01*
X22207Y-33292D01*
X22260Y-33321D01*
X22285Y-33350D01*
X22307Y-33407D01*
X22285Y-33578D01*
X22250Y-33635D01*
X22217Y-33664D01*
X22157Y-33692D01*
X22071Y-33692D01*
X22528Y-33692D02*
X22578Y-33292D01*
X22564Y-33407D02*
X22600Y-33350D01*
X22632Y-33321D01*
X22692Y-33292D01*
X22750Y-33292D01*
X22900Y-33692D02*
X22975Y-33092D01*
X22985Y-33464D02*
X23128Y-33692D01*
X23178Y-33292D02*
X22921Y-33521D01*
X23360Y-33664D02*
X23414Y-33692D01*
X23528Y-33692D01*
X23589Y-33664D01*
X23625Y-33607D01*
X23628Y-33578D01*
X23607Y-33521D01*
X23553Y-33492D01*
X23467Y-33492D01*
X23414Y-33464D01*
X23392Y-33407D01*
X23396Y-33378D01*
X23432Y-33321D01*
X23492Y-33292D01*
X23578Y-33292D01*
X23632Y-33321D01*
X23871Y-33692D02*
X23946Y-33092D01*
X24128Y-33692D02*
X24167Y-33378D01*
X24146Y-33321D01*
X24092Y-33292D01*
X24007Y-33292D01*
X23946Y-33321D01*
X23914Y-33350D01*
X24499Y-33692D02*
X24446Y-33664D01*
X24421Y-33635D01*
X24400Y-33578D01*
X24421Y-33407D01*
X24457Y-33350D01*
X24489Y-33321D01*
X24549Y-33292D01*
X24635Y-33292D01*
X24689Y-33321D01*
X24714Y-33350D01*
X24735Y-33407D01*
X24714Y-33578D01*
X24678Y-33635D01*
X24646Y-33664D01*
X24585Y-33692D01*
X24499Y-33692D01*
X25007Y-33292D02*
X24932Y-33892D01*
X25003Y-33321D02*
X25064Y-33292D01*
X25178Y-33292D01*
X25232Y-33321D01*
X25257Y-33350D01*
X25278Y-33407D01*
X25257Y-33578D01*
X25221Y-33635D01*
X25189Y-33664D01*
X25128Y-33692D01*
X25014Y-33692D01*
X24960Y-33664D01*
X26085Y-33350D02*
X26032Y-33321D01*
X26007Y-33292D01*
X25985Y-33235D01*
X25989Y-33207D01*
X26024Y-33150D01*
X26057Y-33121D01*
X26117Y-33092D01*
X26232Y-33092D01*
X26285Y-33121D01*
X26310Y-33150D01*
X26332Y-33207D01*
X26328Y-33235D01*
X26292Y-33292D01*
X26260Y-33321D01*
X26199Y-33350D01*
X26085Y-33350D01*
X26025Y-33378D01*
X25992Y-33407D01*
X25957Y-33464D01*
X25942Y-33578D01*
X25964Y-33635D01*
X25989Y-33664D01*
X26042Y-33692D01*
X26157Y-33692D01*
X26217Y-33664D01*
X26249Y-33635D01*
X26285Y-33578D01*
X26299Y-33464D01*
X26278Y-33407D01*
X26253Y-33378D01*
X26199Y-33350D01*
X26657Y-33350D02*
X26603Y-33321D01*
X26578Y-33292D01*
X26557Y-33235D01*
X26560Y-33207D01*
X26596Y-33150D01*
X26628Y-33121D01*
X26689Y-33092D01*
X26803Y-33092D01*
X26857Y-33121D01*
X26882Y-33150D01*
X26903Y-33207D01*
X26900Y-33235D01*
X26864Y-33292D01*
X26832Y-33321D01*
X26771Y-33350D01*
X26657Y-33350D01*
X26596Y-33378D01*
X26564Y-33407D01*
X26528Y-33464D01*
X26514Y-33578D01*
X26535Y-33635D01*
X26560Y-33664D01*
X26614Y-33692D01*
X26728Y-33692D01*
X26789Y-33664D01*
X26821Y-33635D01*
X26857Y-33578D01*
X26871Y-33464D01*
X26849Y-33407D01*
X26825Y-33378D01*
X26771Y-33350D01*
X21292Y-32492D02*
X21292Y-31892D01*
X21435Y-31892D01*
X21521Y-31921D01*
X21578Y-31978D01*
X21607Y-32035D01*
X21635Y-32150D01*
X21635Y-32235D01*
X21607Y-32350D01*
X21578Y-32407D01*
X21521Y-32464D01*
X21435Y-32492D01*
X21292Y-32492D01*
X21892Y-32492D02*
X21892Y-32092D01*
X21892Y-32207D02*
X21921Y-32150D01*
X21950Y-32121D01*
X22007Y-32092D01*
X22064Y-32092D01*
X22521Y-32492D02*
X22521Y-32178D01*
X22492Y-32121D01*
X22435Y-32092D01*
X22321Y-32092D01*
X22264Y-32121D01*
X22521Y-32464D02*
X22464Y-32492D01*
X22321Y-32492D01*
X22264Y-32464D01*
X22235Y-32407D01*
X22235Y-32350D01*
X22264Y-32292D01*
X22321Y-32264D01*
X22464Y-32264D01*
X22521Y-32235D01*
X22750Y-32092D02*
X22864Y-32492D01*
X22978Y-32207D01*
X23092Y-32492D01*
X23207Y-32092D01*
X23435Y-32092D02*
X23435Y-32492D01*
X23435Y-32150D02*
X23464Y-32121D01*
X23521Y-32092D01*
X23607Y-32092D01*
X23664Y-32121D01*
X23692Y-32178D01*
X23692Y-32492D01*
X23978Y-32435D02*
X24007Y-32464D01*
X23978Y-32492D01*
X23950Y-32464D01*
X23978Y-32435D01*
X23978Y-32492D01*
X23978Y-32121D02*
X24007Y-32150D01*
X23978Y-32178D01*
X23950Y-32150D01*
X23978Y-32121D01*
X23978Y-32178D01*
X24721Y-32492D02*
X24721Y-31892D01*
X24950Y-31892D01*
X25007Y-31921D01*
X25035Y-31950D01*
X25064Y-32007D01*
X25064Y-32092D01*
X25035Y-32150D01*
X25007Y-32178D01*
X24950Y-32207D01*
X24721Y-32207D01*
X25578Y-32492D02*
X25578Y-32178D01*
X25550Y-32121D01*
X25492Y-32092D01*
X25378Y-32092D01*
X25321Y-32121D01*
X25578Y-32464D02*
X25521Y-32492D01*
X25378Y-32492D01*
X25321Y-32464D01*
X25292Y-32407D01*
X25292Y-32350D01*
X25321Y-32292D01*
X25378Y-32264D01*
X25521Y-32264D01*
X25578Y-32235D01*
X26121Y-32092D02*
X26121Y-32492D01*
X25864Y-32092D02*
X25864Y-32407D01*
X25892Y-32464D01*
X25949Y-32492D01*
X26035Y-32492D01*
X26092Y-32464D01*
X26121Y-32435D01*
X26492Y-32492D02*
X26435Y-32464D01*
X26407Y-32407D01*
X26407Y-31892D01*
X27521Y-32492D02*
X27321Y-32207D01*
X27178Y-32492D02*
X27178Y-31892D01*
X27407Y-31892D01*
X27464Y-31921D01*
X27492Y-31950D01*
X27521Y-32007D01*
X27521Y-32092D01*
X27492Y-32150D01*
X27464Y-32178D01*
X27407Y-32207D01*
X27178Y-32207D01*
X28007Y-32464D02*
X27950Y-32492D01*
X27835Y-32492D01*
X27778Y-32464D01*
X27750Y-32407D01*
X27750Y-32178D01*
X27778Y-32121D01*
X27835Y-32092D01*
X27950Y-32092D01*
X28007Y-32121D01*
X28035Y-32178D01*
X28035Y-32235D01*
X27750Y-32292D01*
X28292Y-32492D02*
X28292Y-32092D01*
X28292Y-31892D02*
X28264Y-31921D01*
X28292Y-31950D01*
X28321Y-31921D01*
X28292Y-31892D01*
X28292Y-31950D01*
X28835Y-32464D02*
X28778Y-32492D01*
X28664Y-32492D01*
X28607Y-32464D01*
X28578Y-32435D01*
X28550Y-32378D01*
X28550Y-32207D01*
X28578Y-32150D01*
X28607Y-32121D01*
X28664Y-32092D01*
X28778Y-32092D01*
X28835Y-32121D01*
X29092Y-32492D02*
X29092Y-31892D01*
X29350Y-32492D02*
X29350Y-32178D01*
X29321Y-32121D01*
X29264Y-32092D01*
X29178Y-32092D01*
X29121Y-32121D01*
X29092Y-32150D01*
X21292Y-31292D02*
X21292Y-30692D01*
X21435Y-30692D01*
X21521Y-30721D01*
X21578Y-30778D01*
X21607Y-30835D01*
X21635Y-30950D01*
X21635Y-31035D01*
X21607Y-31150D01*
X21578Y-31207D01*
X21521Y-31264D01*
X21435Y-31292D01*
X21292Y-31292D01*
X22121Y-31264D02*
X22064Y-31292D01*
X21950Y-31292D01*
X21892Y-31264D01*
X21864Y-31207D01*
X21864Y-30978D01*
X21892Y-30921D01*
X21950Y-30892D01*
X22064Y-30892D01*
X22121Y-30921D01*
X22150Y-30978D01*
X22150Y-31035D01*
X21864Y-31092D01*
X22378Y-31264D02*
X22435Y-31292D01*
X22550Y-31292D01*
X22607Y-31264D01*
X22635Y-31207D01*
X22635Y-31178D01*
X22607Y-31121D01*
X22550Y-31092D01*
X22464Y-31092D01*
X22407Y-31064D01*
X22378Y-31007D01*
X22378Y-30978D01*
X22407Y-30921D01*
X22464Y-30892D01*
X22550Y-30892D01*
X22607Y-30921D01*
X22892Y-31292D02*
X22892Y-30892D01*
X22892Y-30692D02*
X22864Y-30721D01*
X22892Y-30750D01*
X22921Y-30721D01*
X22892Y-30692D01*
X22892Y-30750D01*
X23435Y-30892D02*
X23435Y-31378D01*
X23407Y-31435D01*
X23378Y-31464D01*
X23321Y-31492D01*
X23235Y-31492D01*
X23178Y-31464D01*
X23435Y-31264D02*
X23378Y-31292D01*
X23264Y-31292D01*
X23207Y-31264D01*
X23178Y-31235D01*
X23150Y-31178D01*
X23150Y-31007D01*
X23178Y-30950D01*
X23207Y-30921D01*
X23264Y-30892D01*
X23378Y-30892D01*
X23435Y-30921D01*
X23721Y-30892D02*
X23721Y-31292D01*
X23721Y-30950D02*
X23750Y-30921D01*
X23807Y-30892D01*
X23892Y-30892D01*
X23950Y-30921D01*
X23978Y-30978D01*
X23978Y-31292D01*
X24492Y-31264D02*
X24435Y-31292D01*
X24321Y-31292D01*
X24264Y-31264D01*
X24235Y-31207D01*
X24235Y-30978D01*
X24264Y-30921D01*
X24321Y-30892D01*
X24435Y-30892D01*
X24492Y-30921D01*
X24521Y-30978D01*
X24521Y-31035D01*
X24235Y-31092D01*
X25035Y-31292D02*
X25035Y-30692D01*
X25035Y-31264D02*
X24978Y-31292D01*
X24864Y-31292D01*
X24807Y-31264D01*
X24778Y-31235D01*
X24750Y-31178D01*
X24750Y-31007D01*
X24778Y-30950D01*
X24807Y-30921D01*
X24864Y-30892D01*
X24978Y-30892D01*
X25035Y-30921D01*
X25321Y-31235D02*
X25350Y-31264D01*
X25321Y-31292D01*
X25292Y-31264D01*
X25321Y-31235D01*
X25321Y-31292D01*
X25321Y-30921D02*
X25350Y-30950D01*
X25321Y-30978D01*
X25292Y-30950D01*
X25321Y-30921D01*
X25321Y-30978D01*
X26064Y-31292D02*
X26064Y-30692D01*
X26292Y-30692D01*
X26349Y-30721D01*
X26378Y-30750D01*
X26407Y-30807D01*
X26407Y-30892D01*
X26378Y-30950D01*
X26349Y-30978D01*
X26292Y-31007D01*
X26064Y-31007D01*
X26921Y-31292D02*
X26921Y-30978D01*
X26892Y-30921D01*
X26835Y-30892D01*
X26721Y-30892D01*
X26664Y-30921D01*
X26921Y-31264D02*
X26864Y-31292D01*
X26721Y-31292D01*
X26664Y-31264D01*
X26635Y-31207D01*
X26635Y-31150D01*
X26664Y-31092D01*
X26721Y-31064D01*
X26864Y-31064D01*
X26921Y-31035D01*
X27464Y-30892D02*
X27464Y-31292D01*
X27207Y-30892D02*
X27207Y-31207D01*
X27235Y-31264D01*
X27292Y-31292D01*
X27378Y-31292D01*
X27435Y-31264D01*
X27464Y-31235D01*
X27835Y-31292D02*
X27778Y-31264D01*
X27749Y-31207D01*
X27749Y-30692D01*
X28864Y-31292D02*
X28664Y-31007D01*
X28521Y-31292D02*
X28521Y-30692D01*
X28750Y-30692D01*
X28807Y-30721D01*
X28835Y-30750D01*
X28864Y-30807D01*
X28864Y-30892D01*
X28835Y-30950D01*
X28807Y-30978D01*
X28750Y-31007D01*
X28521Y-31007D01*
X29350Y-31264D02*
X29292Y-31292D01*
X29178Y-31292D01*
X29121Y-31264D01*
X29092Y-31207D01*
X29092Y-30978D01*
X29121Y-30921D01*
X29178Y-30892D01*
X29292Y-30892D01*
X29350Y-30921D01*
X29378Y-30978D01*
X29378Y-31035D01*
X29092Y-31092D01*
X29635Y-31292D02*
X29635Y-30892D01*
X29635Y-30692D02*
X29607Y-30721D01*
X29635Y-30750D01*
X29664Y-30721D01*
X29635Y-30692D01*
X29635Y-30750D01*
X30178Y-31264D02*
X30121Y-31292D01*
X30007Y-31292D01*
X29950Y-31264D01*
X29921Y-31235D01*
X29892Y-31178D01*
X29892Y-31007D01*
X29921Y-30950D01*
X29950Y-30921D01*
X30007Y-30892D01*
X30121Y-30892D01*
X30178Y-30921D01*
X30435Y-31292D02*
X30435Y-30692D01*
X30692Y-31292D02*
X30692Y-30978D01*
X30664Y-30921D01*
X30607Y-30892D01*
X30521Y-30892D01*
X30464Y-30921D01*
X30435Y-30950D01*
X21292Y-30092D02*
X21292Y-29492D01*
X21521Y-29492D01*
X21578Y-29521D01*
X21607Y-29550D01*
X21635Y-29607D01*
X21635Y-29692D01*
X21607Y-29750D01*
X21578Y-29778D01*
X21521Y-29807D01*
X21292Y-29807D01*
X21892Y-30092D02*
X21892Y-29692D01*
X21892Y-29807D02*
X21921Y-29750D01*
X21950Y-29721D01*
X22007Y-29692D01*
X22064Y-29692D01*
X22350Y-30092D02*
X22292Y-30064D01*
X22264Y-30035D01*
X22235Y-29978D01*
X22235Y-29807D01*
X22264Y-29750D01*
X22292Y-29721D01*
X22350Y-29692D01*
X22435Y-29692D01*
X22492Y-29721D01*
X22521Y-29750D01*
X22550Y-29807D01*
X22550Y-29978D01*
X22521Y-30035D01*
X22492Y-30064D01*
X22435Y-30092D01*
X22350Y-30092D01*
X22807Y-29692D02*
X22807Y-30207D01*
X22778Y-30264D01*
X22721Y-30292D01*
X22692Y-30292D01*
X22807Y-29492D02*
X22778Y-29521D01*
X22807Y-29550D01*
X22835Y-29521D01*
X22807Y-29492D01*
X22807Y-29550D01*
X23321Y-30064D02*
X23264Y-30092D01*
X23150Y-30092D01*
X23092Y-30064D01*
X23064Y-30007D01*
X23064Y-29778D01*
X23092Y-29721D01*
X23150Y-29692D01*
X23264Y-29692D01*
X23321Y-29721D01*
X23350Y-29778D01*
X23350Y-29835D01*
X23064Y-29892D01*
X23864Y-30064D02*
X23807Y-30092D01*
X23692Y-30092D01*
X23635Y-30064D01*
X23607Y-30035D01*
X23578Y-29978D01*
X23578Y-29807D01*
X23607Y-29750D01*
X23635Y-29721D01*
X23692Y-29692D01*
X23807Y-29692D01*
X23864Y-29721D01*
X24035Y-29692D02*
X24264Y-29692D01*
X24121Y-29492D02*
X24121Y-30007D01*
X24150Y-30064D01*
X24207Y-30092D01*
X24264Y-30092D01*
X24921Y-30092D02*
X24921Y-29492D01*
X25121Y-29921D01*
X25321Y-29492D01*
X25321Y-30092D01*
X25864Y-29692D02*
X25864Y-30178D01*
X25835Y-30235D01*
X25807Y-30264D01*
X25750Y-30292D01*
X25664Y-30292D01*
X25607Y-30264D01*
X25864Y-30064D02*
X25807Y-30092D01*
X25692Y-30092D01*
X25635Y-30064D01*
X25607Y-30035D01*
X25578Y-29978D01*
X25578Y-29807D01*
X25607Y-29750D01*
X25635Y-29721D01*
X25692Y-29692D01*
X25807Y-29692D01*
X25864Y-29721D01*
X26150Y-30092D02*
X26150Y-29692D01*
X26150Y-29807D02*
X26178Y-29750D01*
X26207Y-29721D01*
X26264Y-29692D01*
X26321Y-29692D01*
X26521Y-30035D02*
X26550Y-30064D01*
X26521Y-30092D01*
X26492Y-30064D01*
X26521Y-30035D01*
X26521Y-30092D01*
X26521Y-29721D02*
X26550Y-29750D01*
X26521Y-29778D01*
X26492Y-29750D01*
X26521Y-29721D01*
X26521Y-29778D01*
X27607Y-30092D02*
X27407Y-29807D01*
X27264Y-30092D02*
X27264Y-29492D01*
X27492Y-29492D01*
X27550Y-29521D01*
X27578Y-29550D01*
X27607Y-29607D01*
X27607Y-29692D01*
X27578Y-29750D01*
X27550Y-29778D01*
X27492Y-29807D01*
X27264Y-29807D01*
X27864Y-30035D02*
X27892Y-30064D01*
X27864Y-30092D01*
X27835Y-30064D01*
X27864Y-30035D01*
X27864Y-30092D01*
X28950Y-30092D02*
X28750Y-29807D01*
X28607Y-30092D02*
X28607Y-29492D01*
X28835Y-29492D01*
X28892Y-29521D01*
X28921Y-29550D01*
X28950Y-29607D01*
X28950Y-29692D01*
X28921Y-29750D01*
X28892Y-29778D01*
X28835Y-29807D01*
X28607Y-29807D01*
X29207Y-30092D02*
X29207Y-29692D01*
X29207Y-29492D02*
X29178Y-29521D01*
X29207Y-29550D01*
X29235Y-29521D01*
X29207Y-29492D01*
X29207Y-29550D01*
X29464Y-30064D02*
X29521Y-30092D01*
X29635Y-30092D01*
X29692Y-30064D01*
X29721Y-30007D01*
X29721Y-29978D01*
X29692Y-29921D01*
X29635Y-29892D01*
X29550Y-29892D01*
X29492Y-29864D01*
X29464Y-29807D01*
X29464Y-29778D01*
X29492Y-29721D01*
X29550Y-29692D01*
X29635Y-29692D01*
X29692Y-29721D01*
X29892Y-29692D02*
X30121Y-29692D01*
X29978Y-29492D02*
X29978Y-30007D01*
X30007Y-30064D01*
X30064Y-30092D01*
X30121Y-30092D01*
X30321Y-30092D02*
X30321Y-29692D01*
X30321Y-29492D02*
X30292Y-29521D01*
X30321Y-29550D01*
X30350Y-29521D01*
X30321Y-29492D01*
X30321Y-29550D01*
X30864Y-30064D02*
X30807Y-30092D01*
X30692Y-30092D01*
X30635Y-30064D01*
X30607Y-30035D01*
X30578Y-29978D01*
X30578Y-29807D01*
X30607Y-29750D01*
X30635Y-29721D01*
X30692Y-29692D01*
X30807Y-29692D01*
X30864Y-29721D01*
X31121Y-30092D02*
X31121Y-29492D01*
X31378Y-30092D02*
X31378Y-29778D01*
X31350Y-29721D01*
X31292Y-29692D01*
X31207Y-29692D01*
X31150Y-29721D01*
X31121Y-29750D01*
X21578Y-28892D02*
X21292Y-28892D01*
X21292Y-28292D01*
X21778Y-28892D02*
X21778Y-28292D01*
X22407Y-28835D02*
X22378Y-28864D01*
X22292Y-28892D01*
X22235Y-28892D01*
X22149Y-28864D01*
X22092Y-28807D01*
X22064Y-28750D01*
X22035Y-28635D01*
X22035Y-28550D01*
X22064Y-28435D01*
X22092Y-28378D01*
X22149Y-28321D01*
X22235Y-28292D01*
X22292Y-28292D01*
X22378Y-28321D01*
X22407Y-28350D01*
X22664Y-28578D02*
X22864Y-28578D01*
X22949Y-28892D02*
X22664Y-28892D01*
X22664Y-28292D01*
X22949Y-28292D01*
X23207Y-28892D02*
X23207Y-28292D01*
X23549Y-28892D01*
X23549Y-28292D01*
X23807Y-28864D02*
X23892Y-28892D01*
X24035Y-28892D01*
X24092Y-28864D01*
X24121Y-28835D01*
X24149Y-28778D01*
X24149Y-28721D01*
X24121Y-28664D01*
X24092Y-28635D01*
X24035Y-28607D01*
X23921Y-28578D01*
X23864Y-28550D01*
X23835Y-28521D01*
X23807Y-28464D01*
X23807Y-28407D01*
X23835Y-28350D01*
X23864Y-28321D01*
X23921Y-28292D01*
X24064Y-28292D01*
X24149Y-28321D01*
X24407Y-28578D02*
X24607Y-28578D01*
X24692Y-28892D02*
X24407Y-28892D01*
X24407Y-28292D01*
X24692Y-28292D01*
X24949Y-28835D02*
X24978Y-28864D01*
X24949Y-28892D01*
X24921Y-28864D01*
X24949Y-28835D01*
X24949Y-28892D01*
X24949Y-28521D02*
X24978Y-28550D01*
X24949Y-28578D01*
X24921Y-28550D01*
X24949Y-28521D01*
X24949Y-28578D01*
X26035Y-28835D02*
X26007Y-28864D01*
X25921Y-28892D01*
X25864Y-28892D01*
X25778Y-28864D01*
X25721Y-28807D01*
X25692Y-28750D01*
X25664Y-28635D01*
X25664Y-28550D01*
X25692Y-28435D01*
X25721Y-28378D01*
X25778Y-28321D01*
X25864Y-28292D01*
X25921Y-28292D01*
X26007Y-28321D01*
X26035Y-28350D01*
X26635Y-28835D02*
X26607Y-28864D01*
X26521Y-28892D01*
X26464Y-28892D01*
X26378Y-28864D01*
X26321Y-28807D01*
X26292Y-28750D01*
X26264Y-28635D01*
X26264Y-28550D01*
X26292Y-28435D01*
X26321Y-28378D01*
X26378Y-28321D01*
X26464Y-28292D01*
X26521Y-28292D01*
X26607Y-28321D01*
X26635Y-28350D01*
X26892Y-28664D02*
X27349Y-28664D01*
X27835Y-28578D02*
X27921Y-28607D01*
X27949Y-28635D01*
X27978Y-28692D01*
X27978Y-28778D01*
X27949Y-28835D01*
X27921Y-28864D01*
X27864Y-28892D01*
X27635Y-28892D01*
X27635Y-28292D01*
X27835Y-28292D01*
X27892Y-28321D01*
X27921Y-28350D01*
X27949Y-28407D01*
X27949Y-28464D01*
X27921Y-28521D01*
X27892Y-28550D01*
X27835Y-28578D01*
X27635Y-28578D01*
X28349Y-28607D02*
X28349Y-28892D01*
X28149Y-28292D02*
X28349Y-28607D01*
X28549Y-28292D01*
X28749Y-28664D02*
X29207Y-28664D01*
X29464Y-28864D02*
X29549Y-28892D01*
X29692Y-28892D01*
X29749Y-28864D01*
X29778Y-28835D01*
X29807Y-28778D01*
X29807Y-28721D01*
X29778Y-28664D01*
X29749Y-28635D01*
X29692Y-28607D01*
X29578Y-28578D01*
X29521Y-28550D01*
X29492Y-28521D01*
X29464Y-28464D01*
X29464Y-28407D01*
X29492Y-28350D01*
X29521Y-28321D01*
X29578Y-28292D01*
X29721Y-28292D01*
X29807Y-28321D01*
X30035Y-28721D02*
X30321Y-28721D01*
X29978Y-28892D02*
X30178Y-28292D01*
X30378Y-28892D01*
X30578Y-28664D02*
X31035Y-28664D01*
X31264Y-28292D02*
X31635Y-28292D01*
X31435Y-28521D01*
X31521Y-28521D01*
X31578Y-28550D01*
X31607Y-28578D01*
X31635Y-28635D01*
X31635Y-28778D01*
X31607Y-28835D01*
X31578Y-28864D01*
X31521Y-28892D01*
X31350Y-28892D01*
X31292Y-28864D01*
X31264Y-28835D01*
X31892Y-28835D02*
X31921Y-28864D01*
X31892Y-28892D01*
X31864Y-28864D01*
X31892Y-28835D01*
X31892Y-28892D01*
X32292Y-28292D02*
X32350Y-28292D01*
X32407Y-28321D01*
X32435Y-28350D01*
X32464Y-28407D01*
X32492Y-28521D01*
X32492Y-28664D01*
X32464Y-28778D01*
X32435Y-28835D01*
X32407Y-28864D01*
X32350Y-28892D01*
X32292Y-28892D01*
X32235Y-28864D01*
X32207Y-28835D01*
X32178Y-28778D01*
X32150Y-28664D01*
X32150Y-28521D01*
X32178Y-28407D01*
X32207Y-28350D01*
X32235Y-28321D01*
X32292Y-28292D01*
X20550Y-28050D02*
X20550Y-40050D01*
X20550Y-34050D02*
X62550Y-34050D01*
X20550Y-28050D02*
X62550Y-28050D01*
X20550Y-36450D02*
X62550Y-36450D01*
X53750Y-37650D02*
X53750Y-40050D01*
X20550Y-38850D02*
X62550Y-38850D01*
X20550Y-37650D02*
X62550Y-37650D01*
X27150Y-37650D02*
X27150Y-38850D01*
X4500Y18000D02*
G75*
G03X4500Y18000I-1000J0D01*
G74*
G01*
X2000Y18000D02*
X5000Y18000D01*
X3500Y19500D02*
X3500Y16500D01*
X40000Y-5750D02*
G75*
G03X40000Y-5750I-1000J0D01*
G74*
G01*
X37500Y-5750D02*
X40500Y-5750D01*
X39000Y-4250D02*
X39000Y-7250D01*
X39000Y16500D02*
X38750Y16750D01*
X38750Y-4250D02*
X39000Y-4000D01*
X-5000Y-4250D02*
X-5250Y-4000D01*
X-5250Y16500D02*
X-5000Y16750D01*
X-5250Y11100D02*
X-5250Y-4000D01*
X-5250Y16500D02*
X-5250Y12050D01*
X-1000Y11100D02*
X-5250Y11100D01*
X-1000Y12050D02*
X-1000Y11100D01*
X-5250Y12050D02*
X-1000Y12050D01*
X38750Y16750D02*
X-5000Y16750D01*
X39000Y-4000D02*
X39000Y16500D01*
G54D11*
X-5000Y-4250D02*
X38750Y-4250D01*
G54D10*
G36*
X-2215Y6301D02*
X-2218Y6069D01*
X-2263Y5871D01*
X-2346Y5686D01*
X-2463Y5520D01*
X-2610Y5380D01*
X-2781Y5272D01*
X-2970Y5198D01*
X-3170Y5163D01*
X-3373Y5167D01*
X-3571Y5211D01*
X-3757Y5292D01*
X-3923Y5408D01*
X-4064Y5554D01*
X-4174Y5724D01*
X-4249Y5913D01*
X-4285Y6113D01*
X-4283Y6315D01*
X-4240Y6514D01*
X-4160Y6700D01*
X-4046Y6868D01*
X-3901Y7010D01*
X-3731Y7121D01*
X-3543Y7197D01*
X-3344Y7235D01*
X-3141Y7233D01*
X-2942Y7193D01*
X-2755Y7114D01*
X-2587Y7000D01*
X-2444Y6856D01*
X-2332Y6688D01*
X-2254Y6500D01*
X-2215Y6301D01*
X-2215Y6301D01*
G37*
G36*
X542Y53D02*
X540Y-68D01*
X517Y-172D01*
X473Y-269D01*
X412Y-356D01*
X335Y-429D01*
X245Y-486D01*
X146Y-525D01*
X41Y-543D01*
X-64Y-541D01*
X-168Y-518D01*
X-265Y-475D01*
X-353Y-415D01*
X-427Y-338D01*
X-484Y-249D01*
X-524Y-150D01*
X-543Y-45D01*
X-541Y60D01*
X-519Y164D01*
X-477Y262D01*
X-417Y350D01*
X-341Y424D01*
X-252Y483D01*
X-153Y522D01*
X-49Y542D01*
X56Y542D01*
X161Y520D01*
X259Y479D01*
X347Y420D01*
X422Y344D01*
X481Y255D01*
X521Y157D01*
X542Y53D01*
X542Y53D01*
G37*
G36*
X3359Y12285D02*
X3358Y12204D01*
X3343Y12135D01*
X3314Y12071D01*
X3273Y12013D01*
X3222Y11964D01*
X3163Y11927D01*
X3097Y11901D01*
X3027Y11889D01*
X2957Y11890D01*
X2888Y11905D01*
X2823Y11934D01*
X2765Y11974D01*
X2716Y12025D01*
X2678Y12084D01*
X2652Y12150D01*
X2639Y12219D01*
X2640Y12290D01*
X2655Y12359D01*
X2683Y12424D01*
X2722Y12482D01*
X2773Y12531D01*
X2832Y12570D01*
X2897Y12597D01*
X2967Y12610D01*
X3037Y12609D01*
X3106Y12595D01*
X3172Y12568D01*
X3230Y12528D01*
X3280Y12478D01*
X3319Y12419D01*
X3346Y12354D01*
X3359Y12285D01*
X3359Y12285D01*
G37*
G36*
X4359Y12285D02*
X4358Y12204D01*
X4343Y12135D01*
X4314Y12071D01*
X4273Y12013D01*
X4222Y11964D01*
X4163Y11927D01*
X4097Y11901D01*
X4027Y11889D01*
X3957Y11890D01*
X3888Y11905D01*
X3823Y11934D01*
X3765Y11974D01*
X3716Y12025D01*
X3678Y12084D01*
X3652Y12150D01*
X3639Y12219D01*
X3640Y12290D01*
X3655Y12359D01*
X3683Y12424D01*
X3722Y12482D01*
X3773Y12531D01*
X3832Y12570D01*
X3897Y12597D01*
X3967Y12610D01*
X4037Y12609D01*
X4106Y12595D01*
X4172Y12568D01*
X4230Y12528D01*
X4280Y12478D01*
X4319Y12419D01*
X4346Y12354D01*
X4359Y12285D01*
X4359Y12285D01*
G37*
G36*
X8500Y15547D02*
X8499Y15543D01*
X8492Y15474D01*
X8471Y15409D01*
X8438Y15349D01*
X8394Y15297D01*
X8341Y15254D01*
X8281Y15222D01*
X8215Y15203D01*
X8147Y15197D01*
X8079Y15204D01*
X8014Y15224D01*
X7954Y15257D01*
X7901Y15300D01*
X7858Y15353D01*
X7826Y15413D01*
X7806Y15479D01*
X7800Y15548D01*
X7800Y15952D01*
X7800Y15956D01*
X7807Y16025D01*
X7828Y16090D01*
X7861Y16150D01*
X7905Y16202D01*
X7958Y16245D01*
X8018Y16277D01*
X8084Y16296D01*
X8152Y16302D01*
X8220Y16295D01*
X8285Y16275D01*
X8345Y16242D01*
X8398Y16199D01*
X8441Y16146D01*
X8473Y16086D01*
X8493Y16020D01*
X8500Y15951D01*
X8500Y15547D01*
X8500Y15547D01*
G37*
G36*
X9500Y15547D02*
X9499Y15543D01*
X9492Y15474D01*
X9471Y15409D01*
X9438Y15349D01*
X9394Y15297D01*
X9341Y15254D01*
X9281Y15222D01*
X9215Y15203D01*
X9147Y15197D01*
X9079Y15204D01*
X9014Y15224D01*
X8954Y15257D01*
X8901Y15300D01*
X8858Y15353D01*
X8826Y15413D01*
X8806Y15479D01*
X8800Y15548D01*
X8800Y15952D01*
X8800Y15956D01*
X8807Y16025D01*
X8828Y16090D01*
X8861Y16150D01*
X8905Y16202D01*
X8958Y16245D01*
X9018Y16277D01*
X9084Y16296D01*
X9152Y16302D01*
X9220Y16295D01*
X9285Y16275D01*
X9345Y16242D01*
X9398Y16199D01*
X9441Y16146D01*
X9473Y16086D01*
X9493Y16020D01*
X9500Y15951D01*
X9500Y15547D01*
X9500Y15547D01*
G37*
G36*
X10500Y15547D02*
X10499Y15543D01*
X10492Y15474D01*
X10471Y15409D01*
X10438Y15349D01*
X10394Y15297D01*
X10341Y15254D01*
X10281Y15222D01*
X10215Y15203D01*
X10147Y15197D01*
X10079Y15204D01*
X10014Y15224D01*
X9954Y15257D01*
X9901Y15300D01*
X9858Y15353D01*
X9826Y15413D01*
X9806Y15479D01*
X9800Y15548D01*
X9800Y15952D01*
X9800Y15956D01*
X9807Y16025D01*
X9828Y16090D01*
X9861Y16150D01*
X9905Y16202D01*
X9958Y16245D01*
X10018Y16277D01*
X10084Y16296D01*
X10152Y16302D01*
X10220Y16295D01*
X10285Y16275D01*
X10345Y16242D01*
X10398Y16199D01*
X10441Y16146D01*
X10473Y16086D01*
X10493Y16020D01*
X10500Y15951D01*
X10500Y15547D01*
X10500Y15547D01*
G37*
G36*
X11500Y15547D02*
X11499Y15543D01*
X11492Y15474D01*
X11471Y15409D01*
X11438Y15349D01*
X11394Y15297D01*
X11341Y15254D01*
X11281Y15222D01*
X11215Y15203D01*
X11147Y15197D01*
X11079Y15204D01*
X11014Y15224D01*
X10954Y15257D01*
X10901Y15300D01*
X10858Y15353D01*
X10826Y15413D01*
X10806Y15479D01*
X10800Y15548D01*
X10800Y15952D01*
X10800Y15956D01*
X10807Y16025D01*
X10828Y16090D01*
X10861Y16150D01*
X10905Y16202D01*
X10958Y16245D01*
X11018Y16277D01*
X11084Y16296D01*
X11152Y16302D01*
X11220Y16295D01*
X11285Y16275D01*
X11345Y16242D01*
X11398Y16199D01*
X11441Y16146D01*
X11473Y16086D01*
X11493Y16020D01*
X11500Y15951D01*
X11500Y15547D01*
X11500Y15547D01*
G37*
G36*
X12100Y-3743D02*
X12099Y-3755D01*
X12097Y-3764D01*
X12094Y-3773D01*
X12088Y-3782D01*
X12081Y-3788D01*
X12073Y-3794D01*
X12064Y-3798D01*
X12054Y-3800D01*
X11456Y-3800D01*
X11444Y-3799D01*
X11435Y-3797D01*
X11426Y-3794D01*
X11417Y-3788D01*
X11411Y-3781D01*
X11405Y-3773D01*
X11401Y-3764D01*
X11399Y-3754D01*
X11399Y-2756D01*
X11400Y-2744D01*
X11402Y-2735D01*
X11405Y-2726D01*
X11411Y-2717D01*
X11418Y-2711D01*
X11426Y-2705D01*
X11435Y-2701D01*
X11445Y-2699D01*
X12043Y-2699D01*
X12055Y-2700D01*
X12064Y-2702D01*
X12073Y-2705D01*
X12082Y-2711D01*
X12088Y-2718D01*
X12094Y-2726D01*
X12098Y-2735D01*
X12100Y-2745D01*
X12100Y-3743D01*
X12100Y-3743D01*
G37*
G36*
X12500Y15547D02*
X12499Y15543D01*
X12492Y15474D01*
X12471Y15409D01*
X12438Y15349D01*
X12394Y15297D01*
X12341Y15254D01*
X12281Y15222D01*
X12215Y15203D01*
X12147Y15197D01*
X12079Y15204D01*
X12014Y15224D01*
X11954Y15257D01*
X11901Y15300D01*
X11858Y15353D01*
X11826Y15413D01*
X11806Y15479D01*
X11800Y15548D01*
X11800Y15952D01*
X11800Y15956D01*
X11807Y16025D01*
X11828Y16090D01*
X11861Y16150D01*
X11905Y16202D01*
X11958Y16245D01*
X12018Y16277D01*
X12084Y16296D01*
X12152Y16302D01*
X12220Y16295D01*
X12285Y16275D01*
X12345Y16242D01*
X12398Y16199D01*
X12441Y16146D01*
X12473Y16086D01*
X12493Y16020D01*
X12500Y15951D01*
X12500Y15547D01*
X12500Y15547D01*
G37*
G36*
X13100Y-3452D02*
X13099Y-3456D01*
X13092Y-3525D01*
X13071Y-3590D01*
X13038Y-3650D01*
X12994Y-3702D01*
X12941Y-3745D01*
X12881Y-3777D01*
X12815Y-3796D01*
X12747Y-3802D01*
X12679Y-3795D01*
X12614Y-3775D01*
X12554Y-3742D01*
X12501Y-3699D01*
X12458Y-3646D01*
X12426Y-3586D01*
X12406Y-3520D01*
X12400Y-3451D01*
X12400Y-3047D01*
X12400Y-3043D01*
X12407Y-2974D01*
X12428Y-2909D01*
X12461Y-2849D01*
X12505Y-2797D01*
X12558Y-2754D01*
X12618Y-2722D01*
X12684Y-2703D01*
X12752Y-2697D01*
X12820Y-2704D01*
X12885Y-2724D01*
X12945Y-2757D01*
X12998Y-2800D01*
X13041Y-2853D01*
X13073Y-2913D01*
X13093Y-2979D01*
X13100Y-3048D01*
X13100Y-3452D01*
X13100Y-3452D01*
G37*
G36*
X13500Y15547D02*
X13499Y15543D01*
X13492Y15474D01*
X13471Y15409D01*
X13438Y15349D01*
X13394Y15297D01*
X13341Y15254D01*
X13281Y15222D01*
X13215Y15203D01*
X13147Y15197D01*
X13079Y15204D01*
X13014Y15224D01*
X12954Y15257D01*
X12901Y15300D01*
X12858Y15353D01*
X12826Y15413D01*
X12806Y15479D01*
X12800Y15548D01*
X12800Y15952D01*
X12800Y15956D01*
X12807Y16025D01*
X12828Y16090D01*
X12861Y16150D01*
X12905Y16202D01*
X12958Y16245D01*
X13018Y16277D01*
X13084Y16296D01*
X13152Y16302D01*
X13220Y16295D01*
X13285Y16275D01*
X13345Y16242D01*
X13398Y16199D01*
X13441Y16146D01*
X13473Y16086D01*
X13493Y16020D01*
X13500Y15951D01*
X13500Y15547D01*
X13500Y15547D01*
G37*
G36*
X14100Y-3452D02*
X14099Y-3456D01*
X14092Y-3525D01*
X14071Y-3590D01*
X14038Y-3650D01*
X13994Y-3702D01*
X13941Y-3745D01*
X13881Y-3777D01*
X13815Y-3796D01*
X13747Y-3802D01*
X13679Y-3795D01*
X13614Y-3775D01*
X13554Y-3742D01*
X13501Y-3699D01*
X13458Y-3646D01*
X13426Y-3586D01*
X13406Y-3520D01*
X13400Y-3451D01*
X13400Y-3047D01*
X13400Y-3043D01*
X13407Y-2974D01*
X13428Y-2909D01*
X13461Y-2849D01*
X13505Y-2797D01*
X13558Y-2754D01*
X13618Y-2722D01*
X13684Y-2703D01*
X13752Y-2697D01*
X13820Y-2704D01*
X13885Y-2724D01*
X13945Y-2757D01*
X13998Y-2800D01*
X14041Y-2853D01*
X14073Y-2913D01*
X14093Y-2979D01*
X14100Y-3048D01*
X14100Y-3452D01*
X14100Y-3452D01*
G37*
G36*
X14500Y15547D02*
X14499Y15543D01*
X14492Y15474D01*
X14471Y15409D01*
X14438Y15349D01*
X14394Y15297D01*
X14341Y15254D01*
X14281Y15222D01*
X14215Y15203D01*
X14147Y15197D01*
X14079Y15204D01*
X14014Y15224D01*
X13954Y15257D01*
X13901Y15300D01*
X13858Y15353D01*
X13826Y15413D01*
X13806Y15479D01*
X13800Y15548D01*
X13800Y15952D01*
X13800Y15956D01*
X13807Y16025D01*
X13828Y16090D01*
X13861Y16150D01*
X13905Y16202D01*
X13958Y16245D01*
X14018Y16277D01*
X14084Y16296D01*
X14152Y16302D01*
X14220Y16295D01*
X14285Y16275D01*
X14345Y16242D01*
X14398Y16199D01*
X14441Y16146D01*
X14473Y16086D01*
X14493Y16020D01*
X14500Y15951D01*
X14500Y15547D01*
X14500Y15547D01*
G37*
G36*
X15100Y-3452D02*
X15099Y-3456D01*
X15092Y-3525D01*
X15071Y-3590D01*
X15038Y-3650D01*
X14994Y-3702D01*
X14941Y-3745D01*
X14881Y-3777D01*
X14815Y-3796D01*
X14747Y-3802D01*
X14679Y-3795D01*
X14614Y-3775D01*
X14554Y-3742D01*
X14501Y-3699D01*
X14458Y-3646D01*
X14426Y-3586D01*
X14406Y-3520D01*
X14400Y-3451D01*
X14400Y-3047D01*
X14400Y-3043D01*
X14407Y-2974D01*
X14428Y-2909D01*
X14461Y-2849D01*
X14505Y-2797D01*
X14558Y-2754D01*
X14618Y-2722D01*
X14684Y-2703D01*
X14752Y-2697D01*
X14820Y-2704D01*
X14885Y-2724D01*
X14945Y-2757D01*
X14998Y-2800D01*
X15041Y-2853D01*
X15073Y-2913D01*
X15093Y-2979D01*
X15100Y-3048D01*
X15100Y-3452D01*
X15100Y-3452D01*
G37*
G36*
X15500Y15256D02*
X15499Y15244D01*
X15497Y15235D01*
X15494Y15226D01*
X15488Y15217D01*
X15481Y15211D01*
X15473Y15205D01*
X15464Y15201D01*
X15454Y15199D01*
X14856Y15199D01*
X14844Y15200D01*
X14835Y15202D01*
X14826Y15205D01*
X14817Y15211D01*
X14811Y15218D01*
X14805Y15226D01*
X14801Y15235D01*
X14799Y15245D01*
X14799Y16243D01*
X14800Y16255D01*
X14802Y16264D01*
X14805Y16273D01*
X14811Y16282D01*
X14818Y16288D01*
X14826Y16294D01*
X14835Y16298D01*
X14845Y16300D01*
X15443Y16300D01*
X15455Y16299D01*
X15464Y16297D01*
X15473Y16294D01*
X15482Y16288D01*
X15488Y16281D01*
X15494Y16273D01*
X15498Y16264D01*
X15500Y16254D01*
X15500Y15256D01*
X15500Y15256D01*
G37*
G36*
X16100Y-3452D02*
X16099Y-3456D01*
X16092Y-3525D01*
X16071Y-3590D01*
X16038Y-3650D01*
X15994Y-3702D01*
X15941Y-3745D01*
X15881Y-3777D01*
X15815Y-3796D01*
X15747Y-3802D01*
X15679Y-3795D01*
X15614Y-3775D01*
X15554Y-3742D01*
X15501Y-3699D01*
X15458Y-3646D01*
X15426Y-3586D01*
X15406Y-3520D01*
X15400Y-3451D01*
X15400Y-3047D01*
X15400Y-3043D01*
X15407Y-2974D01*
X15428Y-2909D01*
X15461Y-2849D01*
X15505Y-2797D01*
X15558Y-2754D01*
X15618Y-2722D01*
X15684Y-2703D01*
X15752Y-2697D01*
X15820Y-2704D01*
X15885Y-2724D01*
X15945Y-2757D01*
X15998Y-2800D01*
X16041Y-2853D01*
X16073Y-2913D01*
X16093Y-2979D01*
X16100Y-3048D01*
X16100Y-3452D01*
X16100Y-3452D01*
G37*
G36*
X17100Y15547D02*
X17099Y15543D01*
X17092Y15474D01*
X17071Y15409D01*
X17038Y15349D01*
X16994Y15297D01*
X16941Y15254D01*
X16881Y15222D01*
X16815Y15203D01*
X16747Y15197D01*
X16679Y15204D01*
X16614Y15224D01*
X16554Y15257D01*
X16501Y15300D01*
X16458Y15353D01*
X16426Y15413D01*
X16406Y15479D01*
X16400Y15548D01*
X16400Y15952D01*
X16400Y15956D01*
X16407Y16025D01*
X16428Y16090D01*
X16461Y16150D01*
X16505Y16202D01*
X16558Y16245D01*
X16618Y16277D01*
X16684Y16296D01*
X16752Y16302D01*
X16820Y16295D01*
X16885Y16275D01*
X16945Y16242D01*
X16998Y16199D01*
X17041Y16146D01*
X17073Y16086D01*
X17093Y16020D01*
X17100Y15951D01*
X17100Y15547D01*
X17100Y15547D01*
G37*
G36*
X17100Y-3452D02*
X17099Y-3456D01*
X17092Y-3525D01*
X17071Y-3590D01*
X17038Y-3650D01*
X16994Y-3702D01*
X16941Y-3745D01*
X16881Y-3777D01*
X16815Y-3796D01*
X16747Y-3802D01*
X16679Y-3795D01*
X16614Y-3775D01*
X16554Y-3742D01*
X16501Y-3699D01*
X16458Y-3646D01*
X16426Y-3586D01*
X16406Y-3520D01*
X16400Y-3451D01*
X16400Y-3047D01*
X16400Y-3043D01*
X16407Y-2974D01*
X16428Y-2909D01*
X16461Y-2849D01*
X16505Y-2797D01*
X16558Y-2754D01*
X16618Y-2722D01*
X16684Y-2703D01*
X16752Y-2697D01*
X16820Y-2704D01*
X16885Y-2724D01*
X16945Y-2757D01*
X16998Y-2800D01*
X17041Y-2853D01*
X17073Y-2913D01*
X17093Y-2979D01*
X17100Y-3048D01*
X17100Y-3452D01*
X17100Y-3452D01*
G37*
G36*
X17349Y12534D02*
X17348Y12455D01*
X17333Y12388D01*
X17305Y12326D01*
X17266Y12270D01*
X17216Y12222D01*
X17158Y12186D01*
X17094Y12161D01*
X17026Y12149D01*
X16958Y12150D01*
X16891Y12165D01*
X16828Y12192D01*
X16772Y12232D01*
X16724Y12281D01*
X16687Y12339D01*
X16661Y12403D01*
X16649Y12470D01*
X16650Y12539D01*
X16664Y12606D01*
X16691Y12669D01*
X16730Y12726D01*
X16779Y12774D01*
X16837Y12811D01*
X16900Y12837D01*
X16968Y12850D01*
X17036Y12849D01*
X17103Y12835D01*
X17167Y12809D01*
X17224Y12770D01*
X17272Y12722D01*
X17310Y12665D01*
X17336Y12601D01*
X17349Y12534D01*
X17349Y12534D01*
G37*
G36*
X17349Y11534D02*
X17348Y11455D01*
X17333Y11388D01*
X17305Y11326D01*
X17266Y11270D01*
X17216Y11222D01*
X17158Y11186D01*
X17094Y11161D01*
X17026Y11149D01*
X16958Y11150D01*
X16891Y11165D01*
X16828Y11192D01*
X16772Y11232D01*
X16724Y11281D01*
X16687Y11339D01*
X16661Y11403D01*
X16649Y11470D01*
X16650Y11539D01*
X16664Y11606D01*
X16691Y11669D01*
X16730Y11726D01*
X16779Y11774D01*
X16837Y11811D01*
X16900Y11837D01*
X16968Y11850D01*
X17036Y11849D01*
X17103Y11835D01*
X17167Y11809D01*
X17224Y11770D01*
X17272Y11722D01*
X17310Y11665D01*
X17336Y11601D01*
X17349Y11534D01*
X17349Y11534D01*
G37*
G36*
X18100Y15547D02*
X18099Y15543D01*
X18092Y15474D01*
X18071Y15409D01*
X18038Y15349D01*
X17994Y15297D01*
X17941Y15254D01*
X17881Y15222D01*
X17815Y15203D01*
X17747Y15197D01*
X17679Y15204D01*
X17614Y15224D01*
X17554Y15257D01*
X17501Y15300D01*
X17458Y15353D01*
X17426Y15413D01*
X17406Y15479D01*
X17400Y15548D01*
X17400Y15952D01*
X17400Y15956D01*
X17407Y16025D01*
X17428Y16090D01*
X17461Y16150D01*
X17505Y16202D01*
X17558Y16245D01*
X17618Y16277D01*
X17684Y16296D01*
X17752Y16302D01*
X17820Y16295D01*
X17885Y16275D01*
X17945Y16242D01*
X17998Y16199D01*
X18041Y16146D01*
X18073Y16086D01*
X18093Y16020D01*
X18100Y15951D01*
X18100Y15547D01*
X18100Y15547D01*
G37*
G36*
X18349Y12534D02*
X18348Y12455D01*
X18333Y12388D01*
X18305Y12326D01*
X18266Y12270D01*
X18216Y12222D01*
X18158Y12186D01*
X18094Y12161D01*
X18026Y12149D01*
X17958Y12150D01*
X17891Y12165D01*
X17828Y12192D01*
X17772Y12232D01*
X17724Y12281D01*
X17687Y12339D01*
X17661Y12403D01*
X17649Y12470D01*
X17650Y12539D01*
X17664Y12606D01*
X17691Y12669D01*
X17730Y12726D01*
X17779Y12774D01*
X17837Y12811D01*
X17900Y12837D01*
X17968Y12850D01*
X18036Y12849D01*
X18103Y12835D01*
X18167Y12809D01*
X18224Y12770D01*
X18272Y12722D01*
X18310Y12665D01*
X18336Y12601D01*
X18349Y12534D01*
X18349Y12534D01*
G37*
G36*
X18349Y11534D02*
X18348Y11455D01*
X18333Y11388D01*
X18305Y11326D01*
X18266Y11270D01*
X18216Y11222D01*
X18158Y11186D01*
X18094Y11161D01*
X18026Y11149D01*
X17958Y11150D01*
X17891Y11165D01*
X17828Y11192D01*
X17772Y11232D01*
X17724Y11281D01*
X17687Y11339D01*
X17661Y11403D01*
X17649Y11470D01*
X17650Y11539D01*
X17664Y11606D01*
X17691Y11669D01*
X17730Y11726D01*
X17779Y11774D01*
X17837Y11811D01*
X17900Y11837D01*
X17968Y11850D01*
X18036Y11849D01*
X18103Y11835D01*
X18167Y11809D01*
X18224Y11770D01*
X18272Y11722D01*
X18310Y11665D01*
X18336Y11601D01*
X18349Y11534D01*
X18349Y11534D01*
G37*
G36*
X18592Y653D02*
X18590Y531D01*
X18567Y427D01*
X18523Y330D01*
X18462Y243D01*
X18385Y170D01*
X18295Y113D01*
X18196Y74D01*
X18091Y56D01*
X17985Y58D01*
X17881Y81D01*
X17784Y124D01*
X17696Y184D01*
X17622Y261D01*
X17565Y350D01*
X17525Y449D01*
X17506Y554D01*
X17508Y660D01*
X17530Y764D01*
X17572Y862D01*
X17632Y950D01*
X17708Y1024D01*
X17797Y1083D01*
X17896Y1122D01*
X18000Y1142D01*
X18106Y1142D01*
X18211Y1120D01*
X18309Y1079D01*
X18397Y1020D01*
X18472Y944D01*
X18531Y855D01*
X18571Y757D01*
X18592Y653D01*
X18592Y653D01*
G37*
G36*
X19100Y15547D02*
X19099Y15543D01*
X19092Y15474D01*
X19071Y15409D01*
X19038Y15349D01*
X18994Y15297D01*
X18941Y15254D01*
X18881Y15222D01*
X18815Y15203D01*
X18747Y15197D01*
X18679Y15204D01*
X18614Y15224D01*
X18554Y15257D01*
X18501Y15300D01*
X18458Y15353D01*
X18426Y15413D01*
X18406Y15479D01*
X18400Y15548D01*
X18400Y15952D01*
X18400Y15956D01*
X18407Y16025D01*
X18428Y16090D01*
X18461Y16150D01*
X18505Y16202D01*
X18558Y16245D01*
X18618Y16277D01*
X18684Y16296D01*
X18752Y16302D01*
X18820Y16295D01*
X18885Y16275D01*
X18945Y16242D01*
X18998Y16199D01*
X19041Y16146D01*
X19073Y16086D01*
X19093Y16020D01*
X19100Y15951D01*
X19100Y15547D01*
X19100Y15547D01*
G37*
G36*
X19100Y-3743D02*
X19099Y-3755D01*
X19097Y-3764D01*
X19094Y-3773D01*
X19088Y-3782D01*
X19081Y-3788D01*
X19073Y-3794D01*
X19064Y-3798D01*
X19054Y-3800D01*
X18456Y-3800D01*
X18444Y-3799D01*
X18435Y-3797D01*
X18426Y-3794D01*
X18417Y-3788D01*
X18411Y-3781D01*
X18405Y-3773D01*
X18401Y-3764D01*
X18399Y-3754D01*
X18399Y-2756D01*
X18400Y-2744D01*
X18402Y-2735D01*
X18405Y-2726D01*
X18411Y-2717D01*
X18418Y-2711D01*
X18426Y-2705D01*
X18435Y-2701D01*
X18445Y-2699D01*
X19043Y-2699D01*
X19055Y-2700D01*
X19064Y-2702D01*
X19073Y-2705D01*
X19082Y-2711D01*
X19088Y-2718D01*
X19094Y-2726D01*
X19098Y-2735D01*
X19100Y-2745D01*
X19100Y-3743D01*
X19100Y-3743D01*
G37*
G36*
X19349Y11534D02*
X19348Y11455D01*
X19333Y11388D01*
X19305Y11326D01*
X19266Y11270D01*
X19216Y11222D01*
X19158Y11186D01*
X19094Y11161D01*
X19026Y11149D01*
X18958Y11150D01*
X18891Y11165D01*
X18828Y11192D01*
X18772Y11232D01*
X18724Y11281D01*
X18687Y11339D01*
X18661Y11403D01*
X18649Y11470D01*
X18650Y11539D01*
X18664Y11606D01*
X18691Y11669D01*
X18730Y11726D01*
X18779Y11774D01*
X18837Y11811D01*
X18900Y11837D01*
X18968Y11850D01*
X19036Y11849D01*
X19103Y11835D01*
X19167Y11809D01*
X19224Y11770D01*
X19272Y11722D01*
X19310Y11665D01*
X19336Y11601D01*
X19349Y11534D01*
X19349Y11534D01*
G37*
G36*
X19350Y12206D02*
X19349Y12194D01*
X19347Y12185D01*
X19344Y12176D01*
X19338Y12167D01*
X19331Y12161D01*
X19323Y12155D01*
X19314Y12151D01*
X19304Y12149D01*
X18706Y12149D01*
X18694Y12150D01*
X18685Y12152D01*
X18676Y12155D01*
X18667Y12161D01*
X18661Y12168D01*
X18655Y12176D01*
X18651Y12185D01*
X18649Y12195D01*
X18649Y12793D01*
X18650Y12805D01*
X18652Y12814D01*
X18655Y12823D01*
X18661Y12832D01*
X18668Y12838D01*
X18676Y12844D01*
X18685Y12848D01*
X18695Y12850D01*
X19293Y12850D01*
X19305Y12849D01*
X19314Y12847D01*
X19323Y12844D01*
X19332Y12838D01*
X19338Y12831D01*
X19344Y12823D01*
X19348Y12814D01*
X19350Y12804D01*
X19350Y12206D01*
X19350Y12206D01*
G37*
G36*
X20100Y15547D02*
X20099Y15543D01*
X20092Y15474D01*
X20071Y15409D01*
X20038Y15349D01*
X19994Y15297D01*
X19941Y15254D01*
X19881Y15222D01*
X19815Y15203D01*
X19747Y15197D01*
X19679Y15204D01*
X19614Y15224D01*
X19554Y15257D01*
X19501Y15300D01*
X19458Y15353D01*
X19426Y15413D01*
X19406Y15479D01*
X19400Y15548D01*
X19400Y15952D01*
X19400Y15956D01*
X19407Y16025D01*
X19428Y16090D01*
X19461Y16150D01*
X19505Y16202D01*
X19558Y16245D01*
X19618Y16277D01*
X19684Y16296D01*
X19752Y16302D01*
X19820Y16295D01*
X19885Y16275D01*
X19945Y16242D01*
X19998Y16199D01*
X20041Y16146D01*
X20073Y16086D01*
X20093Y16020D01*
X20100Y15951D01*
X20100Y15547D01*
X20100Y15547D01*
G37*
G36*
X20100Y-3452D02*
X20099Y-3456D01*
X20092Y-3525D01*
X20071Y-3590D01*
X20038Y-3650D01*
X19994Y-3702D01*
X19941Y-3745D01*
X19881Y-3777D01*
X19815Y-3796D01*
X19747Y-3802D01*
X19679Y-3795D01*
X19614Y-3775D01*
X19554Y-3742D01*
X19501Y-3699D01*
X19458Y-3646D01*
X19426Y-3586D01*
X19406Y-3520D01*
X19400Y-3451D01*
X19400Y-3047D01*
X19400Y-3043D01*
X19407Y-2974D01*
X19428Y-2909D01*
X19461Y-2849D01*
X19505Y-2797D01*
X19558Y-2754D01*
X19618Y-2722D01*
X19684Y-2703D01*
X19752Y-2697D01*
X19820Y-2704D01*
X19885Y-2724D01*
X19945Y-2757D01*
X19998Y-2800D01*
X20041Y-2853D01*
X20073Y-2913D01*
X20093Y-2979D01*
X20100Y-3048D01*
X20100Y-3452D01*
X20100Y-3452D01*
G37*
G36*
X21100Y15547D02*
X21099Y15543D01*
X21092Y15474D01*
X21071Y15409D01*
X21038Y15349D01*
X20994Y15297D01*
X20941Y15254D01*
X20881Y15222D01*
X20815Y15203D01*
X20747Y15197D01*
X20679Y15204D01*
X20614Y15224D01*
X20554Y15257D01*
X20501Y15300D01*
X20458Y15353D01*
X20426Y15413D01*
X20406Y15479D01*
X20400Y15548D01*
X20400Y15952D01*
X20400Y15956D01*
X20407Y16025D01*
X20428Y16090D01*
X20461Y16150D01*
X20505Y16202D01*
X20558Y16245D01*
X20618Y16277D01*
X20684Y16296D01*
X20752Y16302D01*
X20820Y16295D01*
X20885Y16275D01*
X20945Y16242D01*
X20998Y16199D01*
X21041Y16146D01*
X21073Y16086D01*
X21093Y16020D01*
X21100Y15951D01*
X21100Y15547D01*
X21100Y15547D01*
G37*
G36*
X21100Y-3452D02*
X21099Y-3456D01*
X21092Y-3525D01*
X21071Y-3590D01*
X21038Y-3650D01*
X20994Y-3702D01*
X20941Y-3745D01*
X20881Y-3777D01*
X20815Y-3796D01*
X20747Y-3802D01*
X20679Y-3795D01*
X20614Y-3775D01*
X20554Y-3742D01*
X20501Y-3699D01*
X20458Y-3646D01*
X20426Y-3586D01*
X20406Y-3520D01*
X20400Y-3451D01*
X20400Y-3047D01*
X20400Y-3043D01*
X20407Y-2974D01*
X20428Y-2909D01*
X20461Y-2849D01*
X20505Y-2797D01*
X20558Y-2754D01*
X20618Y-2722D01*
X20684Y-2703D01*
X20752Y-2697D01*
X20820Y-2704D01*
X20885Y-2724D01*
X20945Y-2757D01*
X20998Y-2800D01*
X21041Y-2853D01*
X21073Y-2913D01*
X21093Y-2979D01*
X21100Y-3048D01*
X21100Y-3452D01*
X21100Y-3452D01*
G37*
G36*
X22100Y15547D02*
X22099Y15543D01*
X22092Y15474D01*
X22071Y15409D01*
X22038Y15349D01*
X21994Y15297D01*
X21941Y15254D01*
X21881Y15222D01*
X21815Y15203D01*
X21747Y15197D01*
X21679Y15204D01*
X21614Y15224D01*
X21554Y15257D01*
X21501Y15300D01*
X21458Y15353D01*
X21426Y15413D01*
X21406Y15479D01*
X21400Y15548D01*
X21400Y15952D01*
X21400Y15956D01*
X21407Y16025D01*
X21428Y16090D01*
X21461Y16150D01*
X21505Y16202D01*
X21558Y16245D01*
X21618Y16277D01*
X21684Y16296D01*
X21752Y16302D01*
X21820Y16295D01*
X21885Y16275D01*
X21945Y16242D01*
X21998Y16199D01*
X22041Y16146D01*
X22073Y16086D01*
X22093Y16020D01*
X22100Y15951D01*
X22100Y15547D01*
X22100Y15547D01*
G37*
G36*
X22100Y-3452D02*
X22099Y-3456D01*
X22092Y-3525D01*
X22071Y-3590D01*
X22038Y-3650D01*
X21994Y-3702D01*
X21941Y-3745D01*
X21881Y-3777D01*
X21815Y-3796D01*
X21747Y-3802D01*
X21679Y-3795D01*
X21614Y-3775D01*
X21554Y-3742D01*
X21501Y-3699D01*
X21458Y-3646D01*
X21426Y-3586D01*
X21406Y-3520D01*
X21400Y-3451D01*
X21400Y-3047D01*
X21400Y-3043D01*
X21407Y-2974D01*
X21428Y-2909D01*
X21461Y-2849D01*
X21505Y-2797D01*
X21558Y-2754D01*
X21618Y-2722D01*
X21684Y-2703D01*
X21752Y-2697D01*
X21820Y-2704D01*
X21885Y-2724D01*
X21945Y-2757D01*
X21998Y-2800D01*
X22041Y-2853D01*
X22073Y-2913D01*
X22093Y-2979D01*
X22100Y-3048D01*
X22100Y-3452D01*
X22100Y-3452D01*
G37*
G36*
X23099Y14534D02*
X23098Y14455D01*
X23083Y14388D01*
X23055Y14326D01*
X23016Y14270D01*
X22966Y14222D01*
X22908Y14186D01*
X22844Y14161D01*
X22776Y14149D01*
X22708Y14150D01*
X22641Y14165D01*
X22578Y14192D01*
X22522Y14232D01*
X22474Y14281D01*
X22437Y14339D01*
X22411Y14403D01*
X22399Y14470D01*
X22400Y14539D01*
X22414Y14606D01*
X22441Y14669D01*
X22480Y14726D01*
X22529Y14774D01*
X22587Y14811D01*
X22650Y14837D01*
X22718Y14850D01*
X22786Y14849D01*
X22853Y14835D01*
X22917Y14809D01*
X22974Y14770D01*
X23022Y14722D01*
X23060Y14665D01*
X23086Y14601D01*
X23099Y14534D01*
X23099Y14534D01*
G37*
G36*
X23100Y15547D02*
X23099Y15543D01*
X23092Y15474D01*
X23071Y15409D01*
X23038Y15349D01*
X22994Y15297D01*
X22941Y15254D01*
X22881Y15222D01*
X22815Y15203D01*
X22747Y15197D01*
X22679Y15204D01*
X22614Y15224D01*
X22554Y15257D01*
X22501Y15300D01*
X22458Y15353D01*
X22426Y15413D01*
X22406Y15479D01*
X22400Y15548D01*
X22400Y15952D01*
X22400Y15956D01*
X22407Y16025D01*
X22428Y16090D01*
X22461Y16150D01*
X22505Y16202D01*
X22558Y16245D01*
X22618Y16277D01*
X22684Y16296D01*
X22752Y16302D01*
X22820Y16295D01*
X22885Y16275D01*
X22945Y16242D01*
X22998Y16199D01*
X23041Y16146D01*
X23073Y16086D01*
X23093Y16020D01*
X23100Y15951D01*
X23100Y15547D01*
X23100Y15547D01*
G37*
G36*
X23100Y-3452D02*
X23099Y-3456D01*
X23092Y-3525D01*
X23071Y-3590D01*
X23038Y-3650D01*
X22994Y-3702D01*
X22941Y-3745D01*
X22881Y-3777D01*
X22815Y-3796D01*
X22747Y-3802D01*
X22679Y-3795D01*
X22614Y-3775D01*
X22554Y-3742D01*
X22501Y-3699D01*
X22458Y-3646D01*
X22426Y-3586D01*
X22406Y-3520D01*
X22400Y-3451D01*
X22400Y-3047D01*
X22400Y-3043D01*
X22407Y-2974D01*
X22428Y-2909D01*
X22461Y-2849D01*
X22505Y-2797D01*
X22558Y-2754D01*
X22618Y-2722D01*
X22684Y-2703D01*
X22752Y-2697D01*
X22820Y-2704D01*
X22885Y-2724D01*
X22945Y-2757D01*
X22998Y-2800D01*
X23041Y-2853D01*
X23073Y-2913D01*
X23093Y-2979D01*
X23100Y-3048D01*
X23100Y-3452D01*
X23100Y-3452D01*
G37*
G36*
X24099Y14534D02*
X24098Y14455D01*
X24083Y14388D01*
X24055Y14326D01*
X24016Y14270D01*
X23966Y14222D01*
X23908Y14186D01*
X23844Y14161D01*
X23776Y14149D01*
X23708Y14150D01*
X23641Y14165D01*
X23578Y14192D01*
X23522Y14232D01*
X23474Y14281D01*
X23437Y14339D01*
X23411Y14403D01*
X23399Y14470D01*
X23400Y14539D01*
X23414Y14606D01*
X23441Y14669D01*
X23480Y14726D01*
X23529Y14774D01*
X23587Y14811D01*
X23650Y14837D01*
X23718Y14850D01*
X23786Y14849D01*
X23853Y14835D01*
X23917Y14809D01*
X23974Y14770D01*
X24022Y14722D01*
X24060Y14665D01*
X24086Y14601D01*
X24099Y14534D01*
X24099Y14534D01*
G37*
G36*
X24100Y-3452D02*
X24099Y-3456D01*
X24092Y-3525D01*
X24071Y-3590D01*
X24038Y-3650D01*
X23994Y-3702D01*
X23941Y-3745D01*
X23881Y-3777D01*
X23815Y-3796D01*
X23747Y-3802D01*
X23679Y-3795D01*
X23614Y-3775D01*
X23554Y-3742D01*
X23501Y-3699D01*
X23458Y-3646D01*
X23426Y-3586D01*
X23406Y-3520D01*
X23400Y-3451D01*
X23400Y-3047D01*
X23400Y-3043D01*
X23407Y-2974D01*
X23428Y-2909D01*
X23461Y-2849D01*
X23505Y-2797D01*
X23558Y-2754D01*
X23618Y-2722D01*
X23684Y-2703D01*
X23752Y-2697D01*
X23820Y-2704D01*
X23885Y-2724D01*
X23945Y-2757D01*
X23998Y-2800D01*
X24041Y-2853D01*
X24073Y-2913D01*
X24093Y-2979D01*
X24100Y-3048D01*
X24100Y-3452D01*
X24100Y-3452D01*
G37*
G36*
X24100Y15256D02*
X24099Y15244D01*
X24097Y15235D01*
X24094Y15226D01*
X24088Y15217D01*
X24081Y15211D01*
X24073Y15205D01*
X24064Y15201D01*
X24054Y15199D01*
X23456Y15199D01*
X23444Y15200D01*
X23435Y15202D01*
X23426Y15205D01*
X23417Y15211D01*
X23411Y15218D01*
X23405Y15226D01*
X23401Y15235D01*
X23399Y15245D01*
X23399Y16243D01*
X23400Y16255D01*
X23402Y16264D01*
X23405Y16273D01*
X23411Y16282D01*
X23418Y16288D01*
X23426Y16294D01*
X23435Y16298D01*
X23445Y16300D01*
X24043Y16300D01*
X24055Y16299D01*
X24064Y16297D01*
X24073Y16294D01*
X24082Y16288D01*
X24088Y16281D01*
X24094Y16273D01*
X24098Y16264D01*
X24100Y16254D01*
X24100Y15256D01*
X24100Y15256D01*
G37*
G36*
X28350Y10156D02*
X28350Y10149D01*
X28350Y10100D01*
X28304Y10100D01*
X28304Y10099D01*
X26306Y10099D01*
X26299Y10100D01*
X26250Y10100D01*
X26250Y10145D01*
X26249Y10145D01*
X26249Y11143D01*
X26250Y11150D01*
X26250Y11750D01*
X26400Y11900D01*
X28200Y11900D01*
X28350Y11750D01*
X28350Y11154D01*
X28350Y11154D01*
X28350Y10156D01*
X28350Y10156D01*
G37*
G36*
X28350Y1156D02*
X28350Y1149D01*
X28350Y500D01*
X28200Y350D01*
X26400Y350D01*
X26250Y500D01*
X26250Y1145D01*
X26249Y1145D01*
X26249Y2143D01*
X26250Y2150D01*
X26250Y2200D01*
X26295Y2200D01*
X26295Y2200D01*
X28293Y2200D01*
X28300Y2200D01*
X28350Y2200D01*
X28350Y2154D01*
X28350Y2154D01*
X28350Y1156D01*
X28350Y1156D01*
G37*
G36*
X30800Y6200D02*
X30750Y5550D01*
X30600Y5000D01*
X30250Y4250D01*
X30000Y3900D01*
X29700Y3600D01*
X29000Y3100D01*
X28300Y2800D01*
X27850Y2700D01*
X27300Y2650D01*
X26750Y2700D01*
X26300Y2800D01*
X25600Y3100D01*
X24950Y3550D01*
X24550Y4000D01*
X24250Y4500D01*
X23950Y5100D01*
X23800Y5850D01*
X23800Y6600D01*
X23950Y7200D01*
X24150Y7750D01*
X24400Y8150D01*
X24600Y8450D01*
X24900Y8750D01*
X25300Y9050D01*
X26250Y9500D01*
X27250Y9650D01*
X28100Y9550D01*
X28700Y9350D01*
X29400Y8950D01*
X29950Y8450D01*
X30400Y7800D01*
X30650Y7200D01*
X30750Y6750D01*
X30800Y6200D01*
X30800Y6200D01*
G37*
G36*
X39000Y-3750D02*
X38750Y-4000D01*
X38150Y-4000D01*
X37900Y-3750D01*
X37900Y5550D01*
X37800Y5650D01*
X36750Y5650D01*
X36450Y5950D01*
X31850Y5950D01*
X31650Y5750D01*
X31050Y5750D01*
X30950Y5850D01*
X30950Y6650D01*
X31050Y6750D01*
X31650Y6750D01*
X31850Y6550D01*
X36450Y6550D01*
X36750Y6850D01*
X37800Y6850D01*
X37900Y6950D01*
X37900Y16250D01*
X38150Y16500D01*
X38750Y16500D01*
X39000Y16250D01*
X39000Y-3750D01*
X39000Y-3750D01*
G37*
M02*
