G04 (created by PCBNEW (2012-11-15 BZR 3804)-stable) date Tue 12 Feb 2013 01:01:18 CST*
%MOIN*%
G04 Gerber Fmt 3.4, Leading zero omitted, Abs format*
%FSLAX34Y34*%
G01*
G70*
G90*
G04 APERTURE LIST*
%ADD10C,0.006*%
%ADD11C,0.00590551*%
%ADD12R,0.045X0.045*%
%ADD13R,0.095X0.045*%
%ADD14R,0.045X0.095*%
%ADD15R,0.2X0.1*%
%ADD16C,0.06*%
%ADD17C,0.062*%
%ADD18R,0.06X0.1*%
%ADD19O,0.06X0.1*%
%ADD20R,0.06X0.06*%
%ADD21C,0.05*%
%ADD22C,0.015*%
%ADD23C,0.03*%
%ADD24C,0.01*%
%ADD25C,0.05*%
%ADD26C,0.025*%
%ADD27C,0.009*%
%ADD28C,0.002*%
%ADD29C,0.005*%
G04 APERTURE END LIST*
G54D10*
X-38750Y36250D02*
X63250Y36250D01*
X63250Y-40750D01*
X-38750Y-40750D01*
X-38750Y36250D01*
X-38050Y35550D02*
X62550Y35550D01*
X62550Y-40050D01*
X-38050Y-40050D01*
X-38050Y35550D01*
X-18350Y36250D02*
X-18350Y35550D01*
X-28407Y35697D02*
X-28692Y35697D01*
X-28550Y35697D02*
X-28550Y36197D01*
X-28597Y36126D01*
X-28645Y36078D01*
X-28692Y36054D01*
X-18350Y-40750D02*
X-18350Y-40050D01*
X-28407Y-40602D02*
X-28692Y-40602D01*
X-28550Y-40602D02*
X-28550Y-40102D01*
X-28597Y-40173D01*
X-28645Y-40221D01*
X-28692Y-40245D01*
X2050Y36250D02*
X2050Y35550D01*
X-8292Y36150D02*
X-8269Y36173D01*
X-8221Y36197D01*
X-8102Y36197D01*
X-8054Y36173D01*
X-8030Y36150D01*
X-8007Y36102D01*
X-8007Y36054D01*
X-8030Y35983D01*
X-8316Y35697D01*
X-8007Y35697D01*
X2050Y-40750D02*
X2050Y-40050D01*
X-8292Y-40150D02*
X-8269Y-40126D01*
X-8221Y-40102D01*
X-8102Y-40102D01*
X-8054Y-40126D01*
X-8030Y-40150D01*
X-8007Y-40197D01*
X-8007Y-40245D01*
X-8030Y-40316D01*
X-8316Y-40602D01*
X-8007Y-40602D01*
X22450Y36250D02*
X22450Y35550D01*
X12083Y36197D02*
X12392Y36197D01*
X12226Y36007D01*
X12297Y36007D01*
X12345Y35983D01*
X12369Y35959D01*
X12392Y35911D01*
X12392Y35792D01*
X12369Y35745D01*
X12345Y35721D01*
X12297Y35697D01*
X12154Y35697D01*
X12107Y35721D01*
X12083Y35745D01*
X22450Y-40750D02*
X22450Y-40050D01*
X12083Y-40102D02*
X12392Y-40102D01*
X12226Y-40292D01*
X12297Y-40292D01*
X12345Y-40316D01*
X12369Y-40340D01*
X12392Y-40388D01*
X12392Y-40507D01*
X12369Y-40554D01*
X12345Y-40578D01*
X12297Y-40602D01*
X12154Y-40602D01*
X12107Y-40578D01*
X12083Y-40554D01*
X42850Y36250D02*
X42850Y35550D01*
X32745Y36030D02*
X32745Y35697D01*
X32626Y36221D02*
X32507Y35864D01*
X32816Y35864D01*
X42850Y-40750D02*
X42850Y-40050D01*
X32745Y-40269D02*
X32745Y-40602D01*
X32626Y-40078D02*
X32507Y-40435D01*
X32816Y-40435D01*
X53169Y36197D02*
X52930Y36197D01*
X52907Y35959D01*
X52930Y35983D01*
X52978Y36007D01*
X53097Y36007D01*
X53145Y35983D01*
X53169Y35959D01*
X53192Y35911D01*
X53192Y35792D01*
X53169Y35745D01*
X53145Y35721D01*
X53097Y35697D01*
X52978Y35697D01*
X52930Y35721D01*
X52907Y35745D01*
X53169Y-40102D02*
X52930Y-40102D01*
X52907Y-40340D01*
X52930Y-40316D01*
X52978Y-40292D01*
X53097Y-40292D01*
X53145Y-40316D01*
X53169Y-40340D01*
X53192Y-40388D01*
X53192Y-40507D01*
X53169Y-40554D01*
X53145Y-40578D01*
X53097Y-40602D01*
X52978Y-40602D01*
X52930Y-40578D01*
X52907Y-40554D01*
X-38750Y10590D02*
X-38050Y10590D01*
X-38519Y23360D02*
X-38280Y23360D01*
X-38566Y23217D02*
X-38399Y23717D01*
X-38233Y23217D01*
X63250Y10590D02*
X62550Y10590D01*
X62780Y23360D02*
X63019Y23360D01*
X62733Y23217D02*
X62900Y23717D01*
X63066Y23217D01*
X-38750Y-15070D02*
X-38050Y-15070D01*
X-38364Y-2180D02*
X-38292Y-2204D01*
X-38269Y-2228D01*
X-38245Y-2275D01*
X-38245Y-2347D01*
X-38269Y-2394D01*
X-38292Y-2418D01*
X-38340Y-2442D01*
X-38530Y-2442D01*
X-38530Y-1942D01*
X-38364Y-1942D01*
X-38316Y-1966D01*
X-38292Y-1990D01*
X-38269Y-2037D01*
X-38269Y-2085D01*
X-38292Y-2132D01*
X-38316Y-2156D01*
X-38364Y-2180D01*
X-38530Y-2180D01*
X63250Y-15070D02*
X62550Y-15070D01*
X62935Y-2180D02*
X63007Y-2204D01*
X63030Y-2228D01*
X63054Y-2275D01*
X63054Y-2347D01*
X63030Y-2394D01*
X63007Y-2418D01*
X62959Y-2442D01*
X62769Y-2442D01*
X62769Y-1942D01*
X62935Y-1942D01*
X62983Y-1966D01*
X63007Y-1990D01*
X63030Y-2037D01*
X63030Y-2085D01*
X63007Y-2132D01*
X62983Y-2156D01*
X62935Y-2180D01*
X62769Y-2180D01*
X-38245Y-28054D02*
X-38269Y-28078D01*
X-38340Y-28102D01*
X-38388Y-28102D01*
X-38459Y-28078D01*
X-38507Y-28030D01*
X-38530Y-27983D01*
X-38554Y-27888D01*
X-38554Y-27816D01*
X-38530Y-27721D01*
X-38507Y-27673D01*
X-38459Y-27626D01*
X-38388Y-27602D01*
X-38340Y-27602D01*
X-38269Y-27626D01*
X-38245Y-27650D01*
X63054Y-28054D02*
X63030Y-28078D01*
X62959Y-28102D01*
X62911Y-28102D01*
X62840Y-28078D01*
X62792Y-28030D01*
X62769Y-27983D01*
X62745Y-27888D01*
X62745Y-27816D01*
X62769Y-27721D01*
X62792Y-27673D01*
X62840Y-27626D01*
X62911Y-27602D01*
X62959Y-27602D01*
X63030Y-27626D01*
X63054Y-27650D01*
X29700Y-38492D02*
X29775Y-37892D01*
X29917Y-37892D01*
X30000Y-37921D01*
X30050Y-37978D01*
X30071Y-38035D01*
X30085Y-38150D01*
X30075Y-38235D01*
X30032Y-38350D01*
X29996Y-38407D01*
X29932Y-38464D01*
X29842Y-38492D01*
X29700Y-38492D01*
X30557Y-38492D02*
X30596Y-38178D01*
X30575Y-38121D01*
X30521Y-38092D01*
X30407Y-38092D01*
X30346Y-38121D01*
X30560Y-38464D02*
X30500Y-38492D01*
X30357Y-38492D01*
X30303Y-38464D01*
X30282Y-38407D01*
X30289Y-38350D01*
X30325Y-38292D01*
X30385Y-38264D01*
X30528Y-38264D01*
X30589Y-38235D01*
X30807Y-38092D02*
X31035Y-38092D01*
X30917Y-37892D02*
X30853Y-38407D01*
X30875Y-38464D01*
X30928Y-38492D01*
X30985Y-38492D01*
X31417Y-38464D02*
X31357Y-38492D01*
X31242Y-38492D01*
X31189Y-38464D01*
X31167Y-38407D01*
X31196Y-38178D01*
X31232Y-38121D01*
X31292Y-38092D01*
X31407Y-38092D01*
X31460Y-38121D01*
X31482Y-38178D01*
X31475Y-38235D01*
X31182Y-38292D01*
X31707Y-38435D02*
X31732Y-38464D01*
X31700Y-38492D01*
X31675Y-38464D01*
X31707Y-38435D01*
X31700Y-38492D01*
X31746Y-38121D02*
X31771Y-38150D01*
X31739Y-38178D01*
X31714Y-38150D01*
X31746Y-38121D01*
X31739Y-38178D01*
X32757Y-38492D02*
X32414Y-38492D01*
X32585Y-38492D02*
X32660Y-37892D01*
X32592Y-37978D01*
X32528Y-38035D01*
X32467Y-38064D01*
X33053Y-37950D02*
X33085Y-37921D01*
X33146Y-37892D01*
X33289Y-37892D01*
X33342Y-37921D01*
X33367Y-37950D01*
X33389Y-38007D01*
X33382Y-38064D01*
X33342Y-38150D01*
X32957Y-38492D01*
X33328Y-38492D01*
X34007Y-38092D02*
X34235Y-38092D01*
X34042Y-38492D02*
X34107Y-37978D01*
X34142Y-37921D01*
X34203Y-37892D01*
X34260Y-37892D01*
X34617Y-38464D02*
X34557Y-38492D01*
X34442Y-38492D01*
X34389Y-38464D01*
X34367Y-38407D01*
X34396Y-38178D01*
X34432Y-38121D01*
X34492Y-38092D01*
X34607Y-38092D01*
X34660Y-38121D01*
X34682Y-38178D01*
X34675Y-38235D01*
X34382Y-38292D01*
X34900Y-38492D02*
X34975Y-37892D01*
X34946Y-38121D02*
X35007Y-38092D01*
X35121Y-38092D01*
X35175Y-38121D01*
X35200Y-38150D01*
X35221Y-38207D01*
X35200Y-38378D01*
X35164Y-38435D01*
X35132Y-38464D01*
X35071Y-38492D01*
X34957Y-38492D01*
X34903Y-38464D01*
X35939Y-37950D02*
X35971Y-37921D01*
X36032Y-37892D01*
X36175Y-37892D01*
X36228Y-37921D01*
X36253Y-37950D01*
X36275Y-38007D01*
X36267Y-38064D01*
X36228Y-38150D01*
X35842Y-38492D01*
X36214Y-38492D01*
X36660Y-37892D02*
X36717Y-37892D01*
X36771Y-37921D01*
X36796Y-37950D01*
X36817Y-38007D01*
X36832Y-38121D01*
X36814Y-38264D01*
X36771Y-38378D01*
X36735Y-38435D01*
X36703Y-38464D01*
X36642Y-38492D01*
X36585Y-38492D01*
X36532Y-38464D01*
X36507Y-38435D01*
X36485Y-38378D01*
X36471Y-38264D01*
X36489Y-38121D01*
X36532Y-38007D01*
X36567Y-37950D01*
X36600Y-37921D01*
X36660Y-37892D01*
X37357Y-38492D02*
X37014Y-38492D01*
X37185Y-38492D02*
X37260Y-37892D01*
X37192Y-37978D01*
X37128Y-38035D01*
X37067Y-38064D01*
X37632Y-37892D02*
X38003Y-37892D01*
X37775Y-38121D01*
X37860Y-38121D01*
X37914Y-38150D01*
X37939Y-38178D01*
X37960Y-38235D01*
X37942Y-38378D01*
X37907Y-38435D01*
X37875Y-38464D01*
X37814Y-38492D01*
X37642Y-38492D01*
X37589Y-38464D01*
X37564Y-38435D01*
X21292Y-39692D02*
X21292Y-39092D01*
X21635Y-39692D02*
X21378Y-39350D01*
X21635Y-39092D02*
X21292Y-39435D01*
X21892Y-39692D02*
X21892Y-39292D01*
X21892Y-39092D02*
X21864Y-39121D01*
X21892Y-39150D01*
X21921Y-39121D01*
X21892Y-39092D01*
X21892Y-39150D01*
X22521Y-39635D02*
X22492Y-39664D01*
X22407Y-39692D01*
X22350Y-39692D01*
X22264Y-39664D01*
X22207Y-39607D01*
X22178Y-39550D01*
X22150Y-39435D01*
X22150Y-39350D01*
X22178Y-39235D01*
X22207Y-39178D01*
X22264Y-39121D01*
X22350Y-39092D01*
X22407Y-39092D01*
X22492Y-39121D01*
X22521Y-39150D01*
X23035Y-39692D02*
X23035Y-39378D01*
X23007Y-39321D01*
X22950Y-39292D01*
X22835Y-39292D01*
X22778Y-39321D01*
X23035Y-39664D02*
X22978Y-39692D01*
X22835Y-39692D01*
X22778Y-39664D01*
X22750Y-39607D01*
X22750Y-39550D01*
X22778Y-39492D01*
X22835Y-39464D01*
X22978Y-39464D01*
X23035Y-39435D01*
X23578Y-39692D02*
X23578Y-39092D01*
X23578Y-39664D02*
X23521Y-39692D01*
X23407Y-39692D01*
X23350Y-39664D01*
X23321Y-39635D01*
X23292Y-39578D01*
X23292Y-39407D01*
X23321Y-39350D01*
X23350Y-39321D01*
X23407Y-39292D01*
X23521Y-39292D01*
X23578Y-39321D01*
X24321Y-39378D02*
X24521Y-39378D01*
X24607Y-39692D02*
X24321Y-39692D01*
X24321Y-39092D01*
X24607Y-39092D01*
X24864Y-39635D02*
X24892Y-39664D01*
X24864Y-39692D01*
X24835Y-39664D01*
X24864Y-39635D01*
X24864Y-39692D01*
X25149Y-39692D02*
X25149Y-39092D01*
X25292Y-39092D01*
X25378Y-39121D01*
X25435Y-39178D01*
X25464Y-39235D01*
X25492Y-39350D01*
X25492Y-39435D01*
X25464Y-39550D01*
X25435Y-39607D01*
X25378Y-39664D01*
X25292Y-39692D01*
X25149Y-39692D01*
X25749Y-39635D02*
X25778Y-39664D01*
X25749Y-39692D01*
X25721Y-39664D01*
X25749Y-39635D01*
X25749Y-39692D01*
X26007Y-39521D02*
X26292Y-39521D01*
X25949Y-39692D02*
X26149Y-39092D01*
X26349Y-39692D01*
X26549Y-39635D02*
X26578Y-39664D01*
X26549Y-39692D01*
X26521Y-39664D01*
X26549Y-39635D01*
X26549Y-39692D01*
X54842Y-38492D02*
X54678Y-38207D01*
X54500Y-38492D02*
X54575Y-37892D01*
X54803Y-37892D01*
X54857Y-37921D01*
X54882Y-37950D01*
X54903Y-38007D01*
X54892Y-38092D01*
X54857Y-38150D01*
X54825Y-38178D01*
X54764Y-38207D01*
X54535Y-38207D01*
X55332Y-38464D02*
X55271Y-38492D01*
X55157Y-38492D01*
X55103Y-38464D01*
X55082Y-38407D01*
X55110Y-38178D01*
X55146Y-38121D01*
X55207Y-38092D01*
X55321Y-38092D01*
X55375Y-38121D01*
X55396Y-38178D01*
X55389Y-38235D01*
X55096Y-38292D01*
X55607Y-38092D02*
X55700Y-38492D01*
X55892Y-38092D01*
X56078Y-38435D02*
X56103Y-38464D01*
X56071Y-38492D01*
X56046Y-38464D01*
X56078Y-38435D01*
X56071Y-38492D01*
X56117Y-38121D02*
X56142Y-38150D01*
X56110Y-38178D01*
X56085Y-38150D01*
X56117Y-38121D01*
X56110Y-38178D01*
X56803Y-37892D02*
X57146Y-37892D01*
X56900Y-38492D02*
X56975Y-37892D01*
X57310Y-37950D02*
X57342Y-37921D01*
X57403Y-37892D01*
X57546Y-37892D01*
X57600Y-37921D01*
X57625Y-37950D01*
X57646Y-38007D01*
X57639Y-38064D01*
X57600Y-38150D01*
X57214Y-38492D01*
X57585Y-38492D01*
X58100Y-38492D02*
X58139Y-38178D01*
X58117Y-38121D01*
X58064Y-38092D01*
X57950Y-38092D01*
X57889Y-38121D01*
X58103Y-38464D02*
X58042Y-38492D01*
X57900Y-38492D01*
X57846Y-38464D01*
X57825Y-38407D01*
X57832Y-38350D01*
X57867Y-38292D01*
X57928Y-38264D01*
X58071Y-38264D01*
X58132Y-38235D01*
X21264Y-38464D02*
X21350Y-38492D01*
X21492Y-38492D01*
X21550Y-38464D01*
X21578Y-38435D01*
X21607Y-38378D01*
X21607Y-38321D01*
X21578Y-38264D01*
X21550Y-38235D01*
X21492Y-38207D01*
X21378Y-38178D01*
X21321Y-38150D01*
X21292Y-38121D01*
X21264Y-38064D01*
X21264Y-38007D01*
X21292Y-37950D01*
X21321Y-37921D01*
X21378Y-37892D01*
X21521Y-37892D01*
X21607Y-37921D01*
X21864Y-38492D02*
X21864Y-38092D01*
X21864Y-37892D02*
X21835Y-37921D01*
X21864Y-37950D01*
X21892Y-37921D01*
X21864Y-37892D01*
X21864Y-37950D01*
X22092Y-38092D02*
X22407Y-38092D01*
X22092Y-38492D01*
X22407Y-38492D01*
X22864Y-38464D02*
X22807Y-38492D01*
X22692Y-38492D01*
X22635Y-38464D01*
X22607Y-38407D01*
X22607Y-38178D01*
X22635Y-38121D01*
X22692Y-38092D01*
X22807Y-38092D01*
X22864Y-38121D01*
X22892Y-38178D01*
X22892Y-38235D01*
X22607Y-38292D01*
X23150Y-38435D02*
X23178Y-38464D01*
X23150Y-38492D01*
X23121Y-38464D01*
X23150Y-38435D01*
X23150Y-38492D01*
X23150Y-38121D02*
X23178Y-38150D01*
X23150Y-38178D01*
X23121Y-38150D01*
X23150Y-38121D01*
X23150Y-38178D01*
X23864Y-38321D02*
X24150Y-38321D01*
X23807Y-38492D02*
X24007Y-37892D01*
X24207Y-38492D01*
X54492Y-39692D02*
X54492Y-39092D01*
X55035Y-39692D02*
X55035Y-39092D01*
X55035Y-39664D02*
X54978Y-39692D01*
X54864Y-39692D01*
X54807Y-39664D01*
X54778Y-39635D01*
X54750Y-39578D01*
X54750Y-39407D01*
X54778Y-39350D01*
X54807Y-39321D01*
X54864Y-39292D01*
X54978Y-39292D01*
X55035Y-39321D01*
X55321Y-39635D02*
X55350Y-39664D01*
X55321Y-39692D01*
X55292Y-39664D01*
X55321Y-39635D01*
X55321Y-39692D01*
X55321Y-39321D02*
X55350Y-39350D01*
X55321Y-39378D01*
X55292Y-39350D01*
X55321Y-39321D01*
X55321Y-39378D01*
X56378Y-39692D02*
X56035Y-39692D01*
X56207Y-39692D02*
X56207Y-39092D01*
X56149Y-39178D01*
X56092Y-39235D01*
X56035Y-39264D01*
X57064Y-39064D02*
X56550Y-39835D01*
X57578Y-39692D02*
X57235Y-39692D01*
X57407Y-39692D02*
X57407Y-39092D01*
X57349Y-39178D01*
X57292Y-39235D01*
X57235Y-39264D01*
X21289Y-36692D02*
X21632Y-36692D01*
X21385Y-37292D02*
X21460Y-36692D01*
X21757Y-37292D02*
X21807Y-36892D01*
X21832Y-36692D02*
X21800Y-36721D01*
X21825Y-36750D01*
X21857Y-36721D01*
X21832Y-36692D01*
X21825Y-36750D01*
X22007Y-36892D02*
X22235Y-36892D01*
X22117Y-36692D02*
X22053Y-37207D01*
X22075Y-37264D01*
X22128Y-37292D01*
X22185Y-37292D01*
X22471Y-37292D02*
X22417Y-37264D01*
X22396Y-37207D01*
X22460Y-36692D01*
X22932Y-37264D02*
X22871Y-37292D01*
X22757Y-37292D01*
X22703Y-37264D01*
X22682Y-37207D01*
X22710Y-36978D01*
X22746Y-36921D01*
X22807Y-36892D01*
X22921Y-36892D01*
X22975Y-36921D01*
X22996Y-36978D01*
X22989Y-37035D01*
X22696Y-37092D01*
X23221Y-37235D02*
X23246Y-37264D01*
X23214Y-37292D01*
X23189Y-37264D01*
X23221Y-37235D01*
X23214Y-37292D01*
X23260Y-36921D02*
X23285Y-36950D01*
X23253Y-36978D01*
X23228Y-36950D01*
X23260Y-36921D01*
X23253Y-36978D01*
X24196Y-36978D02*
X24278Y-37007D01*
X24303Y-37035D01*
X24325Y-37092D01*
X24314Y-37178D01*
X24278Y-37235D01*
X24246Y-37264D01*
X24185Y-37292D01*
X23957Y-37292D01*
X24032Y-36692D01*
X24232Y-36692D01*
X24285Y-36721D01*
X24310Y-36750D01*
X24332Y-36807D01*
X24325Y-36864D01*
X24289Y-36921D01*
X24257Y-36950D01*
X24196Y-36978D01*
X23996Y-36978D01*
X24746Y-36692D02*
X24860Y-36692D01*
X24914Y-36721D01*
X24964Y-36778D01*
X24978Y-36892D01*
X24953Y-37092D01*
X24910Y-37207D01*
X24846Y-37264D01*
X24785Y-37292D01*
X24671Y-37292D01*
X24617Y-37264D01*
X24567Y-37207D01*
X24553Y-37092D01*
X24578Y-36892D01*
X24621Y-36778D01*
X24685Y-36721D01*
X24746Y-36692D01*
X25178Y-37121D02*
X25464Y-37121D01*
X25100Y-37292D02*
X25375Y-36692D01*
X25500Y-37292D01*
X26042Y-37292D02*
X25878Y-37007D01*
X25700Y-37292D02*
X25775Y-36692D01*
X26003Y-36692D01*
X26057Y-36721D01*
X26082Y-36750D01*
X26103Y-36807D01*
X26092Y-36892D01*
X26057Y-36950D01*
X26025Y-36978D01*
X25964Y-37007D01*
X25735Y-37007D01*
X26300Y-37292D02*
X26375Y-36692D01*
X26517Y-36692D01*
X26600Y-36721D01*
X26650Y-36778D01*
X26671Y-36835D01*
X26685Y-36950D01*
X26675Y-37035D01*
X26632Y-37150D01*
X26596Y-37207D01*
X26532Y-37264D01*
X26442Y-37292D01*
X26300Y-37292D01*
X26932Y-37264D02*
X26928Y-37292D01*
X26892Y-37350D01*
X26860Y-37378D01*
X27642Y-37292D02*
X27717Y-36692D01*
X27946Y-36692D01*
X27999Y-36721D01*
X28025Y-36750D01*
X28046Y-36807D01*
X28035Y-36892D01*
X28000Y-36950D01*
X27967Y-36978D01*
X27907Y-37007D01*
X27678Y-37007D01*
X28592Y-37235D02*
X28560Y-37264D01*
X28471Y-37292D01*
X28414Y-37292D01*
X28332Y-37264D01*
X28282Y-37207D01*
X28260Y-37150D01*
X28246Y-37035D01*
X28257Y-36950D01*
X28300Y-36835D01*
X28335Y-36778D01*
X28399Y-36721D01*
X28489Y-36692D01*
X28546Y-36692D01*
X28628Y-36721D01*
X28653Y-36750D01*
X28875Y-37264D02*
X28871Y-37292D01*
X28835Y-37350D01*
X28803Y-37378D01*
X29575Y-36692D02*
X29917Y-36692D01*
X29671Y-37292D02*
X29746Y-36692D01*
X30042Y-37292D02*
X30117Y-36692D01*
X30082Y-36978D02*
X30425Y-36978D01*
X30385Y-37292D02*
X30460Y-36692D01*
X30860Y-36692D02*
X30975Y-36692D01*
X31028Y-36721D01*
X31078Y-36778D01*
X31092Y-36892D01*
X31067Y-37092D01*
X31024Y-37207D01*
X30960Y-37264D01*
X30900Y-37292D01*
X30785Y-37292D01*
X30732Y-37264D01*
X30682Y-37207D01*
X30667Y-37092D01*
X30692Y-36892D01*
X30735Y-36778D01*
X30799Y-36721D01*
X30860Y-36692D01*
X31289Y-36692D02*
X31632Y-36692D01*
X31385Y-37292D02*
X31460Y-36692D01*
X31757Y-37292D02*
X31832Y-36692D01*
X32099Y-37292D02*
X31885Y-36950D01*
X32174Y-36692D02*
X31789Y-37035D01*
X32546Y-36692D02*
X32660Y-36692D01*
X32714Y-36721D01*
X32764Y-36778D01*
X32778Y-36892D01*
X32753Y-37092D01*
X32710Y-37207D01*
X32646Y-37264D01*
X32585Y-37292D01*
X32471Y-37292D01*
X32417Y-37264D01*
X32367Y-37207D01*
X32353Y-37092D01*
X32378Y-36892D01*
X32421Y-36778D01*
X32485Y-36721D01*
X32546Y-36692D01*
X32985Y-37292D02*
X33060Y-36692D01*
X33328Y-37292D01*
X33403Y-36692D01*
X34260Y-36692D02*
X34374Y-36692D01*
X34428Y-36721D01*
X34478Y-36778D01*
X34492Y-36892D01*
X34467Y-37092D01*
X34424Y-37207D01*
X34360Y-37264D01*
X34299Y-37292D01*
X34185Y-37292D01*
X34132Y-37264D01*
X34082Y-37207D01*
X34067Y-37092D01*
X34092Y-36892D01*
X34135Y-36778D01*
X34199Y-36721D01*
X34260Y-36692D01*
X34717Y-36692D02*
X35042Y-37292D01*
X35117Y-36692D02*
X34642Y-37292D01*
X35578Y-36892D02*
X35528Y-37292D01*
X35464Y-36664D02*
X35267Y-37092D01*
X35639Y-37092D01*
X21492Y-34578D02*
X21292Y-34578D01*
X21292Y-34892D02*
X21292Y-34292D01*
X21578Y-34292D01*
X21807Y-34892D02*
X21807Y-34492D01*
X21807Y-34292D02*
X21778Y-34321D01*
X21807Y-34350D01*
X21835Y-34321D01*
X21807Y-34292D01*
X21807Y-34350D01*
X22178Y-34892D02*
X22121Y-34864D01*
X22092Y-34807D01*
X22092Y-34292D01*
X22635Y-34864D02*
X22578Y-34892D01*
X22464Y-34892D01*
X22407Y-34864D01*
X22378Y-34807D01*
X22378Y-34578D01*
X22407Y-34521D01*
X22464Y-34492D01*
X22578Y-34492D01*
X22635Y-34521D01*
X22664Y-34578D01*
X22664Y-34635D01*
X22378Y-34692D01*
X22921Y-34835D02*
X22950Y-34864D01*
X22921Y-34892D01*
X22892Y-34864D01*
X22921Y-34835D01*
X22921Y-34892D01*
X22921Y-34521D02*
X22950Y-34550D01*
X22921Y-34578D01*
X22892Y-34550D01*
X22921Y-34521D01*
X22921Y-34578D01*
X23578Y-34492D02*
X23807Y-34492D01*
X23664Y-34292D02*
X23664Y-34807D01*
X23692Y-34864D01*
X23750Y-34892D01*
X23807Y-34892D01*
X24007Y-34892D02*
X24007Y-34292D01*
X24264Y-34892D02*
X24264Y-34578D01*
X24235Y-34521D01*
X24178Y-34492D01*
X24092Y-34492D01*
X24035Y-34521D01*
X24007Y-34550D01*
X24635Y-34892D02*
X24578Y-34864D01*
X24550Y-34835D01*
X24521Y-34778D01*
X24521Y-34607D01*
X24550Y-34550D01*
X24578Y-34521D01*
X24635Y-34492D01*
X24721Y-34492D01*
X24778Y-34521D01*
X24807Y-34550D01*
X24835Y-34607D01*
X24835Y-34778D01*
X24807Y-34835D01*
X24778Y-34864D01*
X24721Y-34892D01*
X24635Y-34892D01*
X25007Y-34492D02*
X25235Y-34492D01*
X25092Y-34292D02*
X25092Y-34807D01*
X25121Y-34864D01*
X25178Y-34892D01*
X25235Y-34892D01*
X25692Y-34864D02*
X25635Y-34892D01*
X25521Y-34892D01*
X25464Y-34864D01*
X25435Y-34835D01*
X25407Y-34778D01*
X25407Y-34607D01*
X25435Y-34550D01*
X25464Y-34521D01*
X25521Y-34492D01*
X25635Y-34492D01*
X25692Y-34521D01*
X26035Y-34892D02*
X25978Y-34864D01*
X25950Y-34835D01*
X25921Y-34778D01*
X25921Y-34607D01*
X25950Y-34550D01*
X25978Y-34521D01*
X26035Y-34492D01*
X26121Y-34492D01*
X26178Y-34521D01*
X26207Y-34550D01*
X26235Y-34607D01*
X26235Y-34778D01*
X26207Y-34835D01*
X26178Y-34864D01*
X26121Y-34892D01*
X26035Y-34892D01*
X26492Y-34492D02*
X26492Y-34892D01*
X26492Y-34550D02*
X26521Y-34521D01*
X26578Y-34492D01*
X26664Y-34492D01*
X26721Y-34521D01*
X26750Y-34578D01*
X26750Y-34892D01*
X26892Y-34950D02*
X27350Y-34950D01*
X27492Y-34892D02*
X27492Y-34292D01*
X27492Y-34521D02*
X27550Y-34492D01*
X27664Y-34492D01*
X27721Y-34521D01*
X27750Y-34550D01*
X27778Y-34607D01*
X27778Y-34778D01*
X27750Y-34835D01*
X27721Y-34864D01*
X27664Y-34892D01*
X27550Y-34892D01*
X27492Y-34864D01*
X28292Y-34892D02*
X28292Y-34578D01*
X28264Y-34521D01*
X28207Y-34492D01*
X28092Y-34492D01*
X28035Y-34521D01*
X28292Y-34864D02*
X28235Y-34892D01*
X28092Y-34892D01*
X28035Y-34864D01*
X28007Y-34807D01*
X28007Y-34750D01*
X28035Y-34692D01*
X28092Y-34664D01*
X28235Y-34664D01*
X28292Y-34635D01*
X28835Y-34892D02*
X28835Y-34292D01*
X28835Y-34864D02*
X28778Y-34892D01*
X28664Y-34892D01*
X28607Y-34864D01*
X28578Y-34835D01*
X28550Y-34778D01*
X28550Y-34607D01*
X28578Y-34550D01*
X28607Y-34521D01*
X28664Y-34492D01*
X28778Y-34492D01*
X28835Y-34521D01*
X29378Y-34492D02*
X29378Y-34978D01*
X29350Y-35035D01*
X29321Y-35064D01*
X29264Y-35092D01*
X29178Y-35092D01*
X29121Y-35064D01*
X29378Y-34864D02*
X29321Y-34892D01*
X29207Y-34892D01*
X29150Y-34864D01*
X29121Y-34835D01*
X29092Y-34778D01*
X29092Y-34607D01*
X29121Y-34550D01*
X29150Y-34521D01*
X29207Y-34492D01*
X29321Y-34492D01*
X29378Y-34521D01*
X29892Y-34864D02*
X29835Y-34892D01*
X29721Y-34892D01*
X29664Y-34864D01*
X29635Y-34807D01*
X29635Y-34578D01*
X29664Y-34521D01*
X29721Y-34492D01*
X29835Y-34492D01*
X29892Y-34521D01*
X29921Y-34578D01*
X29921Y-34635D01*
X29635Y-34692D01*
X30035Y-34950D02*
X30492Y-34950D01*
X30578Y-34492D02*
X30892Y-34492D01*
X30578Y-34892D01*
X30892Y-34892D01*
X31121Y-34892D02*
X31121Y-34492D01*
X31121Y-34292D02*
X31092Y-34321D01*
X31121Y-34350D01*
X31150Y-34321D01*
X31121Y-34292D01*
X31121Y-34350D01*
X31664Y-34492D02*
X31664Y-34978D01*
X31635Y-35035D01*
X31607Y-35064D01*
X31549Y-35092D01*
X31464Y-35092D01*
X31407Y-35064D01*
X31664Y-34864D02*
X31607Y-34892D01*
X31492Y-34892D01*
X31435Y-34864D01*
X31407Y-34835D01*
X31378Y-34778D01*
X31378Y-34607D01*
X31407Y-34550D01*
X31435Y-34521D01*
X31492Y-34492D01*
X31607Y-34492D01*
X31664Y-34521D01*
X31949Y-34835D02*
X31978Y-34864D01*
X31949Y-34892D01*
X31921Y-34864D01*
X31949Y-34835D01*
X31949Y-34892D01*
X32235Y-34892D02*
X32235Y-34292D01*
X32235Y-34521D02*
X32292Y-34492D01*
X32407Y-34492D01*
X32464Y-34521D01*
X32492Y-34550D01*
X32521Y-34607D01*
X32521Y-34778D01*
X32492Y-34835D01*
X32464Y-34864D01*
X32407Y-34892D01*
X32292Y-34892D01*
X32235Y-34864D01*
X32778Y-34892D02*
X32778Y-34492D01*
X32778Y-34607D02*
X32807Y-34550D01*
X32835Y-34521D01*
X32892Y-34492D01*
X32949Y-34492D01*
X33407Y-34892D02*
X33407Y-34292D01*
X33407Y-34864D02*
X33349Y-34892D01*
X33235Y-34892D01*
X33178Y-34864D01*
X33149Y-34835D01*
X33121Y-34778D01*
X33121Y-34607D01*
X33149Y-34550D01*
X33178Y-34521D01*
X33235Y-34492D01*
X33349Y-34492D01*
X33407Y-34521D01*
X21264Y-36064D02*
X21350Y-36092D01*
X21492Y-36092D01*
X21550Y-36064D01*
X21578Y-36035D01*
X21607Y-35978D01*
X21607Y-35921D01*
X21578Y-35864D01*
X21550Y-35835D01*
X21492Y-35807D01*
X21378Y-35778D01*
X21321Y-35750D01*
X21292Y-35721D01*
X21264Y-35664D01*
X21264Y-35607D01*
X21292Y-35550D01*
X21321Y-35521D01*
X21378Y-35492D01*
X21521Y-35492D01*
X21607Y-35521D01*
X21864Y-36092D02*
X21864Y-35492D01*
X22121Y-36092D02*
X22121Y-35778D01*
X22092Y-35721D01*
X22035Y-35692D01*
X21950Y-35692D01*
X21892Y-35721D01*
X21864Y-35750D01*
X22635Y-36064D02*
X22578Y-36092D01*
X22464Y-36092D01*
X22407Y-36064D01*
X22378Y-36007D01*
X22378Y-35778D01*
X22407Y-35721D01*
X22464Y-35692D01*
X22578Y-35692D01*
X22635Y-35721D01*
X22664Y-35778D01*
X22664Y-35835D01*
X22378Y-35892D01*
X23150Y-36064D02*
X23092Y-36092D01*
X22978Y-36092D01*
X22921Y-36064D01*
X22892Y-36007D01*
X22892Y-35778D01*
X22921Y-35721D01*
X22978Y-35692D01*
X23092Y-35692D01*
X23150Y-35721D01*
X23178Y-35778D01*
X23178Y-35835D01*
X22892Y-35892D01*
X23350Y-35692D02*
X23578Y-35692D01*
X23435Y-35492D02*
X23435Y-36007D01*
X23464Y-36064D01*
X23521Y-36092D01*
X23578Y-36092D01*
X23778Y-36035D02*
X23807Y-36064D01*
X23778Y-36092D01*
X23750Y-36064D01*
X23778Y-36035D01*
X23778Y-36092D01*
X23778Y-35721D02*
X23807Y-35750D01*
X23778Y-35778D01*
X23750Y-35750D01*
X23778Y-35721D01*
X23778Y-35778D01*
X21317Y-33092D02*
X21385Y-33692D01*
X21553Y-33264D01*
X21614Y-33692D01*
X21832Y-33092D01*
X22071Y-33692D02*
X22017Y-33664D01*
X21992Y-33635D01*
X21971Y-33578D01*
X21992Y-33407D01*
X22028Y-33350D01*
X22060Y-33321D01*
X22121Y-33292D01*
X22207Y-33292D01*
X22260Y-33321D01*
X22285Y-33350D01*
X22307Y-33407D01*
X22285Y-33578D01*
X22250Y-33635D01*
X22217Y-33664D01*
X22157Y-33692D01*
X22071Y-33692D01*
X22528Y-33692D02*
X22578Y-33292D01*
X22564Y-33407D02*
X22600Y-33350D01*
X22632Y-33321D01*
X22692Y-33292D01*
X22750Y-33292D01*
X22900Y-33692D02*
X22975Y-33092D01*
X22985Y-33464D02*
X23128Y-33692D01*
X23178Y-33292D02*
X22921Y-33521D01*
X23360Y-33664D02*
X23414Y-33692D01*
X23528Y-33692D01*
X23589Y-33664D01*
X23625Y-33607D01*
X23628Y-33578D01*
X23607Y-33521D01*
X23553Y-33492D01*
X23467Y-33492D01*
X23414Y-33464D01*
X23392Y-33407D01*
X23396Y-33378D01*
X23432Y-33321D01*
X23492Y-33292D01*
X23578Y-33292D01*
X23632Y-33321D01*
X23871Y-33692D02*
X23946Y-33092D01*
X24128Y-33692D02*
X24167Y-33378D01*
X24146Y-33321D01*
X24092Y-33292D01*
X24007Y-33292D01*
X23946Y-33321D01*
X23914Y-33350D01*
X24499Y-33692D02*
X24446Y-33664D01*
X24421Y-33635D01*
X24400Y-33578D01*
X24421Y-33407D01*
X24457Y-33350D01*
X24489Y-33321D01*
X24549Y-33292D01*
X24635Y-33292D01*
X24689Y-33321D01*
X24714Y-33350D01*
X24735Y-33407D01*
X24714Y-33578D01*
X24678Y-33635D01*
X24646Y-33664D01*
X24585Y-33692D01*
X24499Y-33692D01*
X25007Y-33292D02*
X24932Y-33892D01*
X25003Y-33321D02*
X25064Y-33292D01*
X25178Y-33292D01*
X25232Y-33321D01*
X25257Y-33350D01*
X25278Y-33407D01*
X25257Y-33578D01*
X25221Y-33635D01*
X25189Y-33664D01*
X25128Y-33692D01*
X25014Y-33692D01*
X24960Y-33664D01*
X26085Y-33350D02*
X26032Y-33321D01*
X26007Y-33292D01*
X25985Y-33235D01*
X25989Y-33207D01*
X26024Y-33150D01*
X26057Y-33121D01*
X26117Y-33092D01*
X26232Y-33092D01*
X26285Y-33121D01*
X26310Y-33150D01*
X26332Y-33207D01*
X26328Y-33235D01*
X26292Y-33292D01*
X26260Y-33321D01*
X26199Y-33350D01*
X26085Y-33350D01*
X26025Y-33378D01*
X25992Y-33407D01*
X25957Y-33464D01*
X25942Y-33578D01*
X25964Y-33635D01*
X25989Y-33664D01*
X26042Y-33692D01*
X26157Y-33692D01*
X26217Y-33664D01*
X26249Y-33635D01*
X26285Y-33578D01*
X26299Y-33464D01*
X26278Y-33407D01*
X26253Y-33378D01*
X26199Y-33350D01*
X26657Y-33350D02*
X26603Y-33321D01*
X26578Y-33292D01*
X26557Y-33235D01*
X26560Y-33207D01*
X26596Y-33150D01*
X26628Y-33121D01*
X26689Y-33092D01*
X26803Y-33092D01*
X26857Y-33121D01*
X26882Y-33150D01*
X26903Y-33207D01*
X26900Y-33235D01*
X26864Y-33292D01*
X26832Y-33321D01*
X26771Y-33350D01*
X26657Y-33350D01*
X26596Y-33378D01*
X26564Y-33407D01*
X26528Y-33464D01*
X26514Y-33578D01*
X26535Y-33635D01*
X26560Y-33664D01*
X26614Y-33692D01*
X26728Y-33692D01*
X26789Y-33664D01*
X26821Y-33635D01*
X26857Y-33578D01*
X26871Y-33464D01*
X26849Y-33407D01*
X26825Y-33378D01*
X26771Y-33350D01*
X21292Y-32492D02*
X21292Y-31892D01*
X21435Y-31892D01*
X21521Y-31921D01*
X21578Y-31978D01*
X21607Y-32035D01*
X21635Y-32150D01*
X21635Y-32235D01*
X21607Y-32350D01*
X21578Y-32407D01*
X21521Y-32464D01*
X21435Y-32492D01*
X21292Y-32492D01*
X21892Y-32492D02*
X21892Y-32092D01*
X21892Y-32207D02*
X21921Y-32150D01*
X21950Y-32121D01*
X22007Y-32092D01*
X22064Y-32092D01*
X22521Y-32492D02*
X22521Y-32178D01*
X22492Y-32121D01*
X22435Y-32092D01*
X22321Y-32092D01*
X22264Y-32121D01*
X22521Y-32464D02*
X22464Y-32492D01*
X22321Y-32492D01*
X22264Y-32464D01*
X22235Y-32407D01*
X22235Y-32350D01*
X22264Y-32292D01*
X22321Y-32264D01*
X22464Y-32264D01*
X22521Y-32235D01*
X22750Y-32092D02*
X22864Y-32492D01*
X22978Y-32207D01*
X23092Y-32492D01*
X23207Y-32092D01*
X23435Y-32092D02*
X23435Y-32492D01*
X23435Y-32150D02*
X23464Y-32121D01*
X23521Y-32092D01*
X23607Y-32092D01*
X23664Y-32121D01*
X23692Y-32178D01*
X23692Y-32492D01*
X23978Y-32435D02*
X24007Y-32464D01*
X23978Y-32492D01*
X23950Y-32464D01*
X23978Y-32435D01*
X23978Y-32492D01*
X23978Y-32121D02*
X24007Y-32150D01*
X23978Y-32178D01*
X23950Y-32150D01*
X23978Y-32121D01*
X23978Y-32178D01*
X24721Y-32492D02*
X24721Y-31892D01*
X24950Y-31892D01*
X25007Y-31921D01*
X25035Y-31950D01*
X25064Y-32007D01*
X25064Y-32092D01*
X25035Y-32150D01*
X25007Y-32178D01*
X24950Y-32207D01*
X24721Y-32207D01*
X25578Y-32492D02*
X25578Y-32178D01*
X25550Y-32121D01*
X25492Y-32092D01*
X25378Y-32092D01*
X25321Y-32121D01*
X25578Y-32464D02*
X25521Y-32492D01*
X25378Y-32492D01*
X25321Y-32464D01*
X25292Y-32407D01*
X25292Y-32350D01*
X25321Y-32292D01*
X25378Y-32264D01*
X25521Y-32264D01*
X25578Y-32235D01*
X26121Y-32092D02*
X26121Y-32492D01*
X25864Y-32092D02*
X25864Y-32407D01*
X25892Y-32464D01*
X25949Y-32492D01*
X26035Y-32492D01*
X26092Y-32464D01*
X26121Y-32435D01*
X26492Y-32492D02*
X26435Y-32464D01*
X26407Y-32407D01*
X26407Y-31892D01*
X27521Y-32492D02*
X27321Y-32207D01*
X27178Y-32492D02*
X27178Y-31892D01*
X27407Y-31892D01*
X27464Y-31921D01*
X27492Y-31950D01*
X27521Y-32007D01*
X27521Y-32092D01*
X27492Y-32150D01*
X27464Y-32178D01*
X27407Y-32207D01*
X27178Y-32207D01*
X28007Y-32464D02*
X27950Y-32492D01*
X27835Y-32492D01*
X27778Y-32464D01*
X27750Y-32407D01*
X27750Y-32178D01*
X27778Y-32121D01*
X27835Y-32092D01*
X27950Y-32092D01*
X28007Y-32121D01*
X28035Y-32178D01*
X28035Y-32235D01*
X27750Y-32292D01*
X28292Y-32492D02*
X28292Y-32092D01*
X28292Y-31892D02*
X28264Y-31921D01*
X28292Y-31950D01*
X28321Y-31921D01*
X28292Y-31892D01*
X28292Y-31950D01*
X28835Y-32464D02*
X28778Y-32492D01*
X28664Y-32492D01*
X28607Y-32464D01*
X28578Y-32435D01*
X28550Y-32378D01*
X28550Y-32207D01*
X28578Y-32150D01*
X28607Y-32121D01*
X28664Y-32092D01*
X28778Y-32092D01*
X28835Y-32121D01*
X29092Y-32492D02*
X29092Y-31892D01*
X29350Y-32492D02*
X29350Y-32178D01*
X29321Y-32121D01*
X29264Y-32092D01*
X29178Y-32092D01*
X29121Y-32121D01*
X29092Y-32150D01*
X21292Y-31292D02*
X21292Y-30692D01*
X21435Y-30692D01*
X21521Y-30721D01*
X21578Y-30778D01*
X21607Y-30835D01*
X21635Y-30950D01*
X21635Y-31035D01*
X21607Y-31150D01*
X21578Y-31207D01*
X21521Y-31264D01*
X21435Y-31292D01*
X21292Y-31292D01*
X22121Y-31264D02*
X22064Y-31292D01*
X21950Y-31292D01*
X21892Y-31264D01*
X21864Y-31207D01*
X21864Y-30978D01*
X21892Y-30921D01*
X21950Y-30892D01*
X22064Y-30892D01*
X22121Y-30921D01*
X22150Y-30978D01*
X22150Y-31035D01*
X21864Y-31092D01*
X22378Y-31264D02*
X22435Y-31292D01*
X22550Y-31292D01*
X22607Y-31264D01*
X22635Y-31207D01*
X22635Y-31178D01*
X22607Y-31121D01*
X22550Y-31092D01*
X22464Y-31092D01*
X22407Y-31064D01*
X22378Y-31007D01*
X22378Y-30978D01*
X22407Y-30921D01*
X22464Y-30892D01*
X22550Y-30892D01*
X22607Y-30921D01*
X22892Y-31292D02*
X22892Y-30892D01*
X22892Y-30692D02*
X22864Y-30721D01*
X22892Y-30750D01*
X22921Y-30721D01*
X22892Y-30692D01*
X22892Y-30750D01*
X23435Y-30892D02*
X23435Y-31378D01*
X23407Y-31435D01*
X23378Y-31464D01*
X23321Y-31492D01*
X23235Y-31492D01*
X23178Y-31464D01*
X23435Y-31264D02*
X23378Y-31292D01*
X23264Y-31292D01*
X23207Y-31264D01*
X23178Y-31235D01*
X23150Y-31178D01*
X23150Y-31007D01*
X23178Y-30950D01*
X23207Y-30921D01*
X23264Y-30892D01*
X23378Y-30892D01*
X23435Y-30921D01*
X23721Y-30892D02*
X23721Y-31292D01*
X23721Y-30950D02*
X23750Y-30921D01*
X23807Y-30892D01*
X23892Y-30892D01*
X23950Y-30921D01*
X23978Y-30978D01*
X23978Y-31292D01*
X24492Y-31264D02*
X24435Y-31292D01*
X24321Y-31292D01*
X24264Y-31264D01*
X24235Y-31207D01*
X24235Y-30978D01*
X24264Y-30921D01*
X24321Y-30892D01*
X24435Y-30892D01*
X24492Y-30921D01*
X24521Y-30978D01*
X24521Y-31035D01*
X24235Y-31092D01*
X25035Y-31292D02*
X25035Y-30692D01*
X25035Y-31264D02*
X24978Y-31292D01*
X24864Y-31292D01*
X24807Y-31264D01*
X24778Y-31235D01*
X24750Y-31178D01*
X24750Y-31007D01*
X24778Y-30950D01*
X24807Y-30921D01*
X24864Y-30892D01*
X24978Y-30892D01*
X25035Y-30921D01*
X25321Y-31235D02*
X25350Y-31264D01*
X25321Y-31292D01*
X25292Y-31264D01*
X25321Y-31235D01*
X25321Y-31292D01*
X25321Y-30921D02*
X25350Y-30950D01*
X25321Y-30978D01*
X25292Y-30950D01*
X25321Y-30921D01*
X25321Y-30978D01*
X26064Y-31292D02*
X26064Y-30692D01*
X26292Y-30692D01*
X26349Y-30721D01*
X26378Y-30750D01*
X26407Y-30807D01*
X26407Y-30892D01*
X26378Y-30950D01*
X26349Y-30978D01*
X26292Y-31007D01*
X26064Y-31007D01*
X26921Y-31292D02*
X26921Y-30978D01*
X26892Y-30921D01*
X26835Y-30892D01*
X26721Y-30892D01*
X26664Y-30921D01*
X26921Y-31264D02*
X26864Y-31292D01*
X26721Y-31292D01*
X26664Y-31264D01*
X26635Y-31207D01*
X26635Y-31150D01*
X26664Y-31092D01*
X26721Y-31064D01*
X26864Y-31064D01*
X26921Y-31035D01*
X27464Y-30892D02*
X27464Y-31292D01*
X27207Y-30892D02*
X27207Y-31207D01*
X27235Y-31264D01*
X27292Y-31292D01*
X27378Y-31292D01*
X27435Y-31264D01*
X27464Y-31235D01*
X27835Y-31292D02*
X27778Y-31264D01*
X27749Y-31207D01*
X27749Y-30692D01*
X28864Y-31292D02*
X28664Y-31007D01*
X28521Y-31292D02*
X28521Y-30692D01*
X28750Y-30692D01*
X28807Y-30721D01*
X28835Y-30750D01*
X28864Y-30807D01*
X28864Y-30892D01*
X28835Y-30950D01*
X28807Y-30978D01*
X28750Y-31007D01*
X28521Y-31007D01*
X29350Y-31264D02*
X29292Y-31292D01*
X29178Y-31292D01*
X29121Y-31264D01*
X29092Y-31207D01*
X29092Y-30978D01*
X29121Y-30921D01*
X29178Y-30892D01*
X29292Y-30892D01*
X29350Y-30921D01*
X29378Y-30978D01*
X29378Y-31035D01*
X29092Y-31092D01*
X29635Y-31292D02*
X29635Y-30892D01*
X29635Y-30692D02*
X29607Y-30721D01*
X29635Y-30750D01*
X29664Y-30721D01*
X29635Y-30692D01*
X29635Y-30750D01*
X30178Y-31264D02*
X30121Y-31292D01*
X30007Y-31292D01*
X29950Y-31264D01*
X29921Y-31235D01*
X29892Y-31178D01*
X29892Y-31007D01*
X29921Y-30950D01*
X29950Y-30921D01*
X30007Y-30892D01*
X30121Y-30892D01*
X30178Y-30921D01*
X30435Y-31292D02*
X30435Y-30692D01*
X30692Y-31292D02*
X30692Y-30978D01*
X30664Y-30921D01*
X30607Y-30892D01*
X30521Y-30892D01*
X30464Y-30921D01*
X30435Y-30950D01*
X21292Y-30092D02*
X21292Y-29492D01*
X21521Y-29492D01*
X21578Y-29521D01*
X21607Y-29550D01*
X21635Y-29607D01*
X21635Y-29692D01*
X21607Y-29750D01*
X21578Y-29778D01*
X21521Y-29807D01*
X21292Y-29807D01*
X21892Y-30092D02*
X21892Y-29692D01*
X21892Y-29807D02*
X21921Y-29750D01*
X21950Y-29721D01*
X22007Y-29692D01*
X22064Y-29692D01*
X22350Y-30092D02*
X22292Y-30064D01*
X22264Y-30035D01*
X22235Y-29978D01*
X22235Y-29807D01*
X22264Y-29750D01*
X22292Y-29721D01*
X22350Y-29692D01*
X22435Y-29692D01*
X22492Y-29721D01*
X22521Y-29750D01*
X22550Y-29807D01*
X22550Y-29978D01*
X22521Y-30035D01*
X22492Y-30064D01*
X22435Y-30092D01*
X22350Y-30092D01*
X22807Y-29692D02*
X22807Y-30207D01*
X22778Y-30264D01*
X22721Y-30292D01*
X22692Y-30292D01*
X22807Y-29492D02*
X22778Y-29521D01*
X22807Y-29550D01*
X22835Y-29521D01*
X22807Y-29492D01*
X22807Y-29550D01*
X23321Y-30064D02*
X23264Y-30092D01*
X23150Y-30092D01*
X23092Y-30064D01*
X23064Y-30007D01*
X23064Y-29778D01*
X23092Y-29721D01*
X23150Y-29692D01*
X23264Y-29692D01*
X23321Y-29721D01*
X23350Y-29778D01*
X23350Y-29835D01*
X23064Y-29892D01*
X23864Y-30064D02*
X23807Y-30092D01*
X23692Y-30092D01*
X23635Y-30064D01*
X23607Y-30035D01*
X23578Y-29978D01*
X23578Y-29807D01*
X23607Y-29750D01*
X23635Y-29721D01*
X23692Y-29692D01*
X23807Y-29692D01*
X23864Y-29721D01*
X24035Y-29692D02*
X24264Y-29692D01*
X24121Y-29492D02*
X24121Y-30007D01*
X24150Y-30064D01*
X24207Y-30092D01*
X24264Y-30092D01*
X24921Y-30092D02*
X24921Y-29492D01*
X25121Y-29921D01*
X25321Y-29492D01*
X25321Y-30092D01*
X25864Y-29692D02*
X25864Y-30178D01*
X25835Y-30235D01*
X25807Y-30264D01*
X25750Y-30292D01*
X25664Y-30292D01*
X25607Y-30264D01*
X25864Y-30064D02*
X25807Y-30092D01*
X25692Y-30092D01*
X25635Y-30064D01*
X25607Y-30035D01*
X25578Y-29978D01*
X25578Y-29807D01*
X25607Y-29750D01*
X25635Y-29721D01*
X25692Y-29692D01*
X25807Y-29692D01*
X25864Y-29721D01*
X26150Y-30092D02*
X26150Y-29692D01*
X26150Y-29807D02*
X26178Y-29750D01*
X26207Y-29721D01*
X26264Y-29692D01*
X26321Y-29692D01*
X26521Y-30035D02*
X26550Y-30064D01*
X26521Y-30092D01*
X26492Y-30064D01*
X26521Y-30035D01*
X26521Y-30092D01*
X26521Y-29721D02*
X26550Y-29750D01*
X26521Y-29778D01*
X26492Y-29750D01*
X26521Y-29721D01*
X26521Y-29778D01*
X27607Y-30092D02*
X27407Y-29807D01*
X27264Y-30092D02*
X27264Y-29492D01*
X27492Y-29492D01*
X27550Y-29521D01*
X27578Y-29550D01*
X27607Y-29607D01*
X27607Y-29692D01*
X27578Y-29750D01*
X27550Y-29778D01*
X27492Y-29807D01*
X27264Y-29807D01*
X27864Y-30035D02*
X27892Y-30064D01*
X27864Y-30092D01*
X27835Y-30064D01*
X27864Y-30035D01*
X27864Y-30092D01*
X28950Y-30092D02*
X28750Y-29807D01*
X28607Y-30092D02*
X28607Y-29492D01*
X28835Y-29492D01*
X28892Y-29521D01*
X28921Y-29550D01*
X28950Y-29607D01*
X28950Y-29692D01*
X28921Y-29750D01*
X28892Y-29778D01*
X28835Y-29807D01*
X28607Y-29807D01*
X29207Y-30092D02*
X29207Y-29692D01*
X29207Y-29492D02*
X29178Y-29521D01*
X29207Y-29550D01*
X29235Y-29521D01*
X29207Y-29492D01*
X29207Y-29550D01*
X29464Y-30064D02*
X29521Y-30092D01*
X29635Y-30092D01*
X29692Y-30064D01*
X29721Y-30007D01*
X29721Y-29978D01*
X29692Y-29921D01*
X29635Y-29892D01*
X29550Y-29892D01*
X29492Y-29864D01*
X29464Y-29807D01*
X29464Y-29778D01*
X29492Y-29721D01*
X29550Y-29692D01*
X29635Y-29692D01*
X29692Y-29721D01*
X29892Y-29692D02*
X30121Y-29692D01*
X29978Y-29492D02*
X29978Y-30007D01*
X30007Y-30064D01*
X30064Y-30092D01*
X30121Y-30092D01*
X30321Y-30092D02*
X30321Y-29692D01*
X30321Y-29492D02*
X30292Y-29521D01*
X30321Y-29550D01*
X30350Y-29521D01*
X30321Y-29492D01*
X30321Y-29550D01*
X30864Y-30064D02*
X30807Y-30092D01*
X30692Y-30092D01*
X30635Y-30064D01*
X30607Y-30035D01*
X30578Y-29978D01*
X30578Y-29807D01*
X30607Y-29750D01*
X30635Y-29721D01*
X30692Y-29692D01*
X30807Y-29692D01*
X30864Y-29721D01*
X31121Y-30092D02*
X31121Y-29492D01*
X31378Y-30092D02*
X31378Y-29778D01*
X31350Y-29721D01*
X31292Y-29692D01*
X31207Y-29692D01*
X31150Y-29721D01*
X31121Y-29750D01*
X21635Y-28835D02*
X21607Y-28864D01*
X21521Y-28892D01*
X21464Y-28892D01*
X21378Y-28864D01*
X21321Y-28807D01*
X21292Y-28750D01*
X21264Y-28635D01*
X21264Y-28550D01*
X21292Y-28435D01*
X21321Y-28378D01*
X21378Y-28321D01*
X21464Y-28292D01*
X21521Y-28292D01*
X21607Y-28321D01*
X21635Y-28350D01*
X22235Y-28835D02*
X22207Y-28864D01*
X22121Y-28892D01*
X22064Y-28892D01*
X21978Y-28864D01*
X21921Y-28807D01*
X21892Y-28750D01*
X21864Y-28635D01*
X21864Y-28550D01*
X21892Y-28435D01*
X21921Y-28378D01*
X21978Y-28321D01*
X22064Y-28292D01*
X22121Y-28292D01*
X22207Y-28321D01*
X22235Y-28350D01*
X22492Y-28664D02*
X22950Y-28664D01*
X23435Y-28578D02*
X23521Y-28607D01*
X23550Y-28635D01*
X23578Y-28692D01*
X23578Y-28778D01*
X23550Y-28835D01*
X23521Y-28864D01*
X23464Y-28892D01*
X23235Y-28892D01*
X23235Y-28292D01*
X23435Y-28292D01*
X23492Y-28321D01*
X23521Y-28350D01*
X23550Y-28407D01*
X23550Y-28464D01*
X23521Y-28521D01*
X23492Y-28550D01*
X23435Y-28578D01*
X23235Y-28578D01*
X23950Y-28607D02*
X23950Y-28892D01*
X23750Y-28292D02*
X23950Y-28607D01*
X24150Y-28292D01*
X24350Y-28664D02*
X24807Y-28664D01*
X25064Y-28864D02*
X25150Y-28892D01*
X25292Y-28892D01*
X25350Y-28864D01*
X25378Y-28835D01*
X25407Y-28778D01*
X25407Y-28721D01*
X25378Y-28664D01*
X25350Y-28635D01*
X25292Y-28607D01*
X25178Y-28578D01*
X25121Y-28550D01*
X25092Y-28521D01*
X25064Y-28464D01*
X25064Y-28407D01*
X25092Y-28350D01*
X25121Y-28321D01*
X25178Y-28292D01*
X25321Y-28292D01*
X25407Y-28321D01*
X25635Y-28721D02*
X25921Y-28721D01*
X25578Y-28892D02*
X25778Y-28292D01*
X25978Y-28892D01*
X26178Y-28664D02*
X26635Y-28664D01*
X26864Y-28292D02*
X27235Y-28292D01*
X27035Y-28521D01*
X27121Y-28521D01*
X27178Y-28550D01*
X27207Y-28578D01*
X27235Y-28635D01*
X27235Y-28778D01*
X27207Y-28835D01*
X27178Y-28864D01*
X27121Y-28892D01*
X26950Y-28892D01*
X26892Y-28864D01*
X26864Y-28835D01*
X27492Y-28835D02*
X27521Y-28864D01*
X27492Y-28892D01*
X27464Y-28864D01*
X27492Y-28835D01*
X27492Y-28892D01*
X27892Y-28292D02*
X27950Y-28292D01*
X28007Y-28321D01*
X28035Y-28350D01*
X28064Y-28407D01*
X28092Y-28521D01*
X28092Y-28664D01*
X28064Y-28778D01*
X28035Y-28835D01*
X28007Y-28864D01*
X27950Y-28892D01*
X27892Y-28892D01*
X27835Y-28864D01*
X27807Y-28835D01*
X27778Y-28778D01*
X27750Y-28664D01*
X27750Y-28521D01*
X27778Y-28407D01*
X27807Y-28350D01*
X27835Y-28321D01*
X27892Y-28292D01*
X20550Y-28050D02*
X20550Y-40050D01*
X20550Y-34050D02*
X62550Y-34050D01*
X20550Y-28050D02*
X62550Y-28050D01*
X20550Y-36450D02*
X62550Y-36450D01*
X53750Y-37650D02*
X53750Y-40050D01*
X20550Y-38850D02*
X62550Y-38850D01*
X20550Y-37650D02*
X62550Y-37650D01*
X27150Y-37650D02*
X27150Y-38850D01*
X4500Y18000D02*
G75*
G03X4500Y18000I-1000J0D01*
G74*
G01*
X2000Y18000D02*
X5000Y18000D01*
X3500Y19500D02*
X3500Y16500D01*
X40000Y-5750D02*
G75*
G03X40000Y-5750I-1000J0D01*
G74*
G01*
X37500Y-5750D02*
X40500Y-5750D01*
X39000Y-4250D02*
X39000Y-7250D01*
X39000Y16500D02*
X38750Y16750D01*
X38750Y-4250D02*
X39000Y-4000D01*
X-5000Y-4250D02*
X-5250Y-4000D01*
X-5250Y16500D02*
X-5000Y16750D01*
X-5250Y11100D02*
X-5250Y-4000D01*
X-5250Y16500D02*
X-5250Y12050D01*
X-1000Y11100D02*
X-5250Y11100D01*
X-1000Y12050D02*
X-1000Y11100D01*
X-5250Y12050D02*
X-1000Y12050D01*
G54D11*
X38750Y16750D02*
X-5000Y16750D01*
G54D10*
X39000Y-4000D02*
X39000Y16500D01*
G54D11*
X-5000Y-4250D02*
X38750Y-4250D01*
G54D12*
X28700Y6850D03*
X28700Y5450D03*
X27300Y5450D03*
X27300Y6850D03*
G54D13*
X28000Y5450D03*
G54D14*
X27300Y6150D03*
G54D13*
X28000Y6850D03*
G54D14*
X28700Y6150D03*
G54D15*
X27300Y10650D03*
X27300Y1650D03*
G54D16*
X27300Y6150D03*
X23750Y14500D03*
X22750Y14500D03*
G54D17*
X4000Y12250D03*
X3000Y12250D03*
G54D18*
X15150Y15750D03*
G54D19*
X14150Y15750D03*
X13150Y15750D03*
X12150Y15750D03*
X11150Y15750D03*
X10150Y15750D03*
X9150Y15750D03*
X8150Y15750D03*
G54D18*
X23750Y15750D03*
G54D19*
X22750Y15750D03*
X21750Y15750D03*
X20750Y15750D03*
X19750Y15750D03*
X18750Y15750D03*
X17750Y15750D03*
X16750Y15750D03*
G54D18*
X11750Y-3250D03*
G54D19*
X12750Y-3250D03*
X13750Y-3250D03*
X14750Y-3250D03*
X15750Y-3250D03*
X16750Y-3250D03*
G54D18*
X18750Y-3250D03*
G54D19*
X19750Y-3250D03*
X20750Y-3250D03*
X21750Y-3250D03*
X22750Y-3250D03*
X23750Y-3250D03*
G54D20*
X19000Y12500D03*
G54D16*
X19000Y11500D03*
X18000Y12500D03*
X18000Y11500D03*
X17000Y12500D03*
X17000Y11500D03*
G54D21*
X28700Y2400D03*
X25000Y2650D03*
X2250Y15500D03*
X24500Y11400D03*
X13250Y14000D03*
X24500Y12200D03*
X24500Y12900D03*
X24850Y13650D03*
X13250Y14750D03*
X23700Y12900D03*
X24050Y13650D03*
X23250Y13650D03*
X13400Y3400D03*
X22900Y5450D03*
X22450Y5050D03*
X13400Y4100D03*
X22900Y4650D03*
X13400Y6100D03*
X22450Y4250D03*
X13400Y8100D03*
X22900Y3850D03*
X13400Y10100D03*
X20550Y13900D03*
X21200Y13900D03*
X1450Y4850D03*
X1450Y2900D03*
X1450Y6850D03*
X1450Y10800D03*
X1450Y8850D03*
X3050Y4850D03*
X3050Y2900D03*
X3050Y6850D03*
X3050Y10800D03*
X3050Y8850D03*
X4650Y4850D03*
X4650Y2900D03*
X4650Y6850D03*
X4650Y10800D03*
X4650Y8850D03*
X6250Y2900D03*
X6250Y4850D03*
X6250Y6850D03*
X6250Y10800D03*
X6250Y8850D03*
X7850Y4850D03*
X7850Y6850D03*
X7850Y2900D03*
X7850Y10800D03*
X7850Y8850D03*
X9450Y4850D03*
X9450Y2900D03*
X9450Y6850D03*
X9450Y8850D03*
X9450Y10800D03*
X11050Y6850D03*
X11050Y2900D03*
X25850Y-3350D03*
X11050Y4850D03*
X11050Y10800D03*
X11050Y8850D03*
X12650Y6850D03*
X12650Y2900D03*
X12650Y4850D03*
X12650Y8850D03*
X12650Y10800D03*
X26850Y-3350D03*
X9450Y13459D03*
X17450Y5200D03*
X18300Y800D03*
X24700Y5450D03*
X27150Y8750D03*
X700Y11900D03*
X5500Y12900D03*
X29200Y10300D03*
X28900Y8750D03*
X24700Y7450D03*
X27450Y2900D03*
X30800Y3350D03*
X31300Y6550D03*
X37200Y5950D03*
X28350Y50D03*
X20050Y9100D03*
X31350Y7950D03*
X20050Y8450D03*
X30750Y7950D03*
X15750Y11400D03*
X15750Y6250D03*
X31350Y7350D03*
G54D22*
X25150Y2400D02*
X25000Y2550D01*
X28700Y2400D02*
X25150Y2400D01*
X25000Y2550D02*
X25000Y2650D01*
G54D23*
X13750Y-3250D02*
X13750Y-2800D01*
X10950Y-3550D02*
X10750Y-3750D01*
X13300Y-2350D02*
X11100Y-2350D01*
X10750Y-3750D02*
X-250Y-3750D01*
X-250Y-3750D02*
X-500Y-3500D01*
X-500Y-3500D02*
X-500Y500D01*
X-500Y500D02*
X-500Y15100D01*
X11100Y-2350D02*
X10950Y-2500D01*
X10950Y-2500D02*
X10950Y-3550D01*
X13750Y-2800D02*
X13300Y-2350D01*
X2250Y15500D02*
X-100Y15500D01*
X-100Y15500D02*
X-500Y15100D01*
G54D24*
X18000Y13100D02*
X17300Y13800D01*
X10150Y15750D02*
X10150Y13250D01*
X10200Y13200D02*
X13550Y13200D01*
X10150Y13250D02*
X10200Y13200D01*
X18000Y12500D02*
X18000Y13100D01*
X14150Y13800D02*
X13550Y13200D01*
X17300Y13800D02*
X14150Y13800D01*
X24500Y11400D02*
X24200Y11400D01*
X18500Y12000D02*
X18000Y12500D01*
X23600Y12000D02*
X18500Y12000D01*
X24200Y11400D02*
X23600Y12000D01*
X19750Y12700D02*
X18250Y14200D01*
X24250Y12450D02*
X23500Y12450D01*
X23500Y12450D02*
X23250Y12700D01*
X23250Y12700D02*
X19750Y12700D01*
X13250Y14000D02*
X13450Y14200D01*
X13450Y14200D02*
X18250Y14200D01*
X24500Y12200D02*
X24250Y12450D01*
X19000Y12500D02*
X19000Y13100D01*
X11150Y13550D02*
X11150Y15750D01*
X11250Y13450D02*
X11150Y13550D01*
X13450Y13450D02*
X11250Y13450D01*
X14000Y14000D02*
X13450Y13450D01*
X18100Y14000D02*
X14000Y14000D01*
X19000Y13100D02*
X18100Y14000D01*
X19150Y12650D02*
X19000Y12500D01*
X24500Y12900D02*
X24800Y12900D01*
X24800Y12900D02*
X24950Y12750D01*
X24950Y11950D02*
X24800Y11800D01*
X24800Y11800D02*
X24250Y11800D01*
X23050Y12500D02*
X23300Y12250D01*
X19000Y12500D02*
X23050Y12500D01*
X23800Y12250D02*
X24250Y11800D01*
X23300Y12250D02*
X23800Y12250D01*
X24950Y12750D02*
X24950Y11950D01*
X20300Y13500D02*
X18800Y15000D01*
X24850Y13650D02*
X24850Y13850D01*
X15150Y15200D02*
X15150Y15750D01*
X15350Y15000D02*
X15150Y15200D01*
X18800Y15000D02*
X15350Y15000D01*
X22750Y13500D02*
X20300Y13500D01*
X23050Y14050D02*
X22850Y13850D01*
X22850Y13850D02*
X22850Y13600D01*
X22850Y13600D02*
X22750Y13500D01*
X24650Y14050D02*
X23050Y14050D01*
X24850Y13850D02*
X24650Y14050D01*
X19900Y12900D02*
X18400Y14400D01*
X13600Y14400D02*
X18400Y14400D01*
X13250Y14750D02*
X13600Y14400D01*
X23700Y12900D02*
X19900Y12900D01*
X20050Y13100D02*
X18550Y14600D01*
X13150Y15650D02*
X13150Y15750D01*
X14200Y14600D02*
X13150Y15650D01*
X18550Y14600D02*
X14200Y14600D01*
X23300Y13100D02*
X20050Y13100D01*
X24050Y13650D02*
X23700Y13650D01*
X23700Y13650D02*
X23650Y13600D01*
X23650Y13600D02*
X23650Y13450D01*
X23650Y13450D02*
X23300Y13100D01*
X20200Y13300D02*
X18700Y14800D01*
X18700Y14800D02*
X14700Y14800D01*
X23250Y13650D02*
X22951Y13298D01*
X14150Y15350D02*
X14150Y15750D01*
X14700Y14800D02*
X14150Y15350D01*
X22951Y13298D02*
X20200Y13300D01*
X13400Y3400D02*
X13400Y3390D01*
X13690Y3100D02*
X21550Y3100D01*
X13400Y3390D02*
X13690Y3100D01*
X21800Y2850D02*
X21550Y3100D01*
X23000Y5450D02*
X23900Y4550D01*
X22900Y5450D02*
X23000Y5450D01*
X23900Y4550D02*
X23900Y3150D01*
X23900Y3150D02*
X23600Y2850D01*
X23600Y2850D02*
X21800Y2850D01*
X22000Y3050D02*
X21750Y3300D01*
X22450Y5050D02*
X23100Y5050D01*
X23700Y4450D02*
X23100Y5050D01*
X23700Y3300D02*
X23700Y4450D01*
X23450Y3050D02*
X23700Y3300D01*
X22000Y3050D02*
X23450Y3050D01*
X13800Y4000D02*
X13800Y3650D01*
X13700Y4100D02*
X13400Y4100D01*
X13700Y4100D02*
X13800Y4000D01*
X21750Y3300D02*
X14150Y3300D01*
X14150Y3300D02*
X13800Y3650D01*
X21900Y3500D02*
X14300Y3500D01*
X14050Y3750D02*
X14050Y4100D01*
X14300Y3500D02*
X14050Y3750D01*
X23500Y4200D02*
X23042Y4650D01*
X23042Y4650D02*
X22900Y4650D01*
X13650Y5850D02*
X13400Y6100D01*
X13650Y4500D02*
X13650Y5850D01*
X14050Y4100D02*
X13650Y4500D01*
X22150Y3250D02*
X21900Y3500D01*
X23300Y3250D02*
X22150Y3250D01*
X23500Y3450D02*
X23300Y3250D01*
X23500Y4200D02*
X23500Y3450D01*
X14300Y3850D02*
X14300Y4200D01*
X22050Y3700D02*
X14450Y3700D01*
X14450Y3700D02*
X14300Y3850D01*
X22050Y3700D02*
X22300Y3450D01*
X22300Y3450D02*
X23150Y3450D01*
X23150Y3450D02*
X23300Y3600D01*
X23300Y3600D02*
X23300Y4050D01*
X23300Y4050D02*
X23100Y4250D01*
X22450Y4250D02*
X23100Y4250D01*
X13850Y6350D02*
X13450Y6750D01*
X13850Y6350D02*
X13850Y4650D01*
X13850Y4650D02*
X14300Y4200D01*
X13450Y8050D02*
X13400Y8100D01*
X13450Y6750D02*
X13450Y8050D01*
X14050Y6650D02*
X13850Y6850D01*
X13850Y6850D02*
X13850Y8650D01*
X14600Y3900D02*
X14500Y4000D01*
X22200Y3850D02*
X22150Y3900D01*
X22150Y3900D02*
X14600Y3900D01*
X22900Y3850D02*
X22200Y3850D01*
X14500Y4350D02*
X14050Y4800D01*
X14500Y4000D02*
X14500Y4350D01*
X13400Y9100D02*
X13400Y10100D01*
X13850Y8650D02*
X13400Y9100D01*
X14050Y4800D02*
X14050Y6650D01*
X20550Y14600D02*
X20550Y13900D01*
X20750Y14800D02*
X20550Y14600D01*
X20750Y14800D02*
X20750Y15750D01*
G54D22*
X21750Y15750D02*
X21750Y14000D01*
X21650Y13900D02*
X21200Y13900D01*
X21750Y14000D02*
X21650Y13900D01*
G54D24*
X3050Y1300D02*
X18600Y1300D01*
X18750Y1150D02*
X18600Y1300D01*
X18750Y-3300D02*
X18750Y1150D01*
X3050Y1300D02*
X1450Y2900D01*
X1450Y6850D02*
X1450Y4850D01*
X1450Y4850D02*
X1450Y2900D01*
X1450Y8850D02*
X1450Y6850D01*
X1450Y10800D02*
X1450Y8850D01*
X3050Y6850D02*
X3050Y4850D01*
X3050Y4850D02*
X3050Y2900D01*
X18997Y-2500D02*
X18951Y-2453D01*
X3050Y2900D02*
X4450Y1500D01*
X18951Y-2453D02*
X18950Y1250D01*
X19750Y-2550D02*
X19750Y-3250D01*
X19750Y-2550D02*
X19700Y-2500D01*
X19700Y-2500D02*
X18997Y-2500D01*
X18950Y1250D02*
X18681Y1500D01*
X4450Y1500D02*
X18681Y1500D01*
X3050Y6850D02*
X3050Y8850D01*
X3050Y10800D02*
X3050Y8850D01*
X4650Y4850D02*
X4650Y6850D01*
X19200Y-2300D02*
X19150Y-2250D01*
X4650Y2900D02*
X5859Y1691D01*
X5859Y1691D02*
X18809Y1691D01*
X18809Y1691D02*
X19150Y1350D01*
X19150Y1350D02*
X19150Y-2250D01*
X4650Y4850D02*
X4650Y2900D01*
X20750Y-3250D02*
X20750Y-2750D01*
X20750Y-2750D02*
X20300Y-2300D01*
X20300Y-2300D02*
X19200Y-2300D01*
X4650Y6850D02*
X4650Y8850D01*
X4650Y10800D02*
X4650Y8850D01*
X6250Y4850D02*
X6250Y6850D01*
X19400Y-2100D02*
X19350Y-2050D01*
X19350Y1450D02*
X18900Y1900D01*
X19350Y1450D02*
X19350Y-2050D01*
X7250Y1900D02*
X18900Y1900D01*
X6250Y2900D02*
X7250Y1900D01*
X19400Y-2100D02*
X21100Y-2100D01*
X21100Y-2100D02*
X21750Y-2750D01*
X21750Y-2750D02*
X21750Y-3250D01*
X6250Y4850D02*
X6250Y2900D01*
X6250Y6850D02*
X6250Y8850D01*
X6250Y10800D02*
X6250Y8850D01*
X7850Y4850D02*
X7850Y6850D01*
X19550Y1550D02*
X19000Y2100D01*
X8650Y2100D02*
X7850Y2900D01*
X19000Y2100D02*
X8650Y2100D01*
X19550Y-1850D02*
X19600Y-1900D01*
X21914Y-1900D02*
X19600Y-1900D01*
X22750Y-3250D02*
X22750Y-2786D01*
X22750Y-2786D02*
X21914Y-1900D01*
X19550Y-1850D02*
X19550Y1550D01*
X7850Y2900D02*
X7850Y4850D01*
X7850Y10800D02*
X7850Y8850D01*
X7850Y6850D02*
X7850Y8850D01*
X9450Y6850D02*
X9450Y4850D01*
X9450Y4850D02*
X9450Y2900D01*
X19800Y-1700D02*
X22700Y-1700D01*
X22700Y-1700D02*
X23750Y-2750D01*
X23750Y-3250D02*
X23750Y-2750D01*
X19750Y-1650D02*
X19750Y1650D01*
X19800Y-1700D02*
X19750Y-1650D01*
X10050Y2300D02*
X19100Y2300D01*
X19100Y2300D02*
X19750Y1650D01*
X9450Y2900D02*
X10050Y2300D01*
X9450Y8850D02*
X9450Y6850D01*
X9450Y10800D02*
X9450Y8850D01*
X11050Y4850D02*
X11050Y6850D01*
X11050Y6850D02*
X11050Y8850D01*
X19950Y1750D02*
X19200Y2500D01*
X11450Y2500D02*
X11050Y2900D01*
X19200Y2500D02*
X11450Y2500D01*
X24650Y-3350D02*
X25850Y-3350D01*
X20000Y-1500D02*
X23200Y-1500D01*
X19950Y1750D02*
X19950Y-1450D01*
X20000Y-1500D02*
X19950Y-1450D01*
X23200Y-1500D02*
X24500Y-2800D01*
X24650Y-3350D02*
X24500Y-3200D01*
X24500Y-3200D02*
X24500Y-2800D01*
X11050Y4850D02*
X11050Y2900D01*
X11050Y10800D02*
X11050Y8850D01*
X12650Y8850D02*
X12650Y6850D01*
X12650Y8850D02*
X12650Y10800D01*
X12650Y2900D02*
X12650Y4850D01*
X12650Y4850D02*
X12650Y6850D01*
X12650Y2900D02*
X12850Y2700D01*
X24800Y-2450D02*
X24800Y-2850D01*
X23650Y-1300D02*
X24800Y-2450D01*
X20200Y-1300D02*
X23650Y-1300D01*
X26850Y-3050D02*
X26850Y-3350D01*
X26750Y-2950D02*
X26850Y-3050D01*
X24900Y-2950D02*
X26750Y-2950D01*
X24800Y-2850D02*
X24900Y-2950D01*
X20150Y1850D02*
X20150Y-1250D01*
X20200Y-1300D02*
X20150Y-1250D01*
X19300Y2700D02*
X20150Y1850D01*
X12850Y2700D02*
X19300Y2700D01*
G54D25*
X9450Y13459D02*
X9450Y13450D01*
X9450Y12250D02*
X9450Y13450D01*
X15950Y12250D02*
X9450Y12250D01*
X16700Y11500D02*
X15950Y12250D01*
X16700Y11500D02*
X17000Y11500D01*
X9450Y13450D02*
X9450Y14800D01*
X9450Y14800D02*
X9150Y15100D01*
X9150Y15100D02*
X9150Y15750D01*
X24700Y7450D02*
X17450Y7450D01*
G54D26*
X2500Y13100D02*
X5300Y13100D01*
G54D25*
X17000Y11500D02*
X17000Y10600D01*
X17450Y10150D02*
X17450Y7450D01*
X17000Y10600D02*
X17450Y10150D01*
X17450Y7450D02*
X17450Y5200D01*
X15750Y-2550D02*
X16100Y-2200D01*
X16100Y-2200D02*
X18050Y-2200D01*
X18050Y-2200D02*
X18300Y-1950D01*
X18300Y-1950D02*
X18300Y800D01*
X15750Y-3250D02*
X15750Y-2550D01*
X27300Y6850D02*
X26700Y7450D01*
X26700Y7450D02*
X24700Y7450D01*
X24700Y5450D02*
X24700Y7450D01*
X27300Y5450D02*
X24700Y5450D01*
G54D24*
X28000Y6850D02*
X27150Y7700D01*
X27150Y7700D02*
X27150Y8750D01*
G54D27*
X27150Y8750D02*
X28900Y8750D01*
G54D26*
X5300Y13100D02*
X5500Y12900D01*
X2250Y12850D02*
X2500Y13100D01*
X2250Y12300D02*
X2250Y12850D01*
X1850Y11900D02*
X2250Y12300D01*
X700Y11900D02*
X1850Y11900D01*
G54D24*
X24700Y8050D02*
X25400Y8750D01*
X24700Y8050D02*
X24700Y7450D01*
X25400Y8750D02*
X27150Y8750D01*
G54D22*
X28900Y9350D02*
X28900Y8750D01*
X29150Y9600D02*
X28900Y9350D01*
X29150Y10250D02*
X29150Y9600D01*
X29200Y10300D02*
X29150Y10250D01*
G54D25*
X14750Y-3250D02*
X15750Y-3250D01*
G54D27*
X27700Y5150D02*
X28000Y5450D01*
X27700Y3150D02*
X27700Y5150D01*
X27450Y2900D02*
X27700Y3150D01*
G54D24*
X30800Y3350D02*
X30700Y3250D01*
X30700Y3250D02*
X30700Y1000D01*
X8600Y11600D02*
X8800Y11400D01*
X8600Y11600D02*
X8600Y15000D01*
X26150Y200D02*
X27000Y200D01*
X27000Y200D02*
X27550Y-350D01*
X13250Y2900D02*
X21400Y2900D01*
X8150Y15750D02*
X8150Y15450D01*
X8150Y15450D02*
X8600Y15000D01*
X12900Y11400D02*
X8800Y11400D01*
X13200Y11100D02*
X12900Y11400D01*
X13200Y10650D02*
X13200Y11100D01*
X12900Y10350D02*
X13200Y10650D01*
X12900Y9450D02*
X12900Y10350D01*
X13100Y9250D02*
X12900Y9450D01*
X13100Y8500D02*
X13100Y9250D01*
X12900Y8300D02*
X13100Y8500D01*
X12900Y7400D02*
X12900Y8300D01*
X13200Y7100D02*
X12900Y7400D01*
X13200Y6650D02*
X13200Y7100D01*
X12900Y6350D02*
X13200Y6650D01*
X12900Y5850D02*
X12900Y6350D01*
X13200Y5550D02*
X12900Y5850D01*
X13200Y4650D02*
X13200Y5550D01*
X12900Y4350D02*
X13200Y4650D01*
X12900Y3250D02*
X12900Y4350D01*
X13250Y2900D02*
X12900Y3250D01*
X30700Y1000D02*
X29350Y-350D01*
X29350Y-350D02*
X27550Y-350D01*
X25950Y1100D02*
X24400Y2650D01*
X25950Y400D02*
X25950Y1100D01*
X26150Y200D02*
X25950Y400D01*
X24400Y2650D02*
X21650Y2650D01*
X21400Y2900D02*
X21650Y2650D01*
G54D25*
X36900Y6250D02*
X31550Y6250D01*
G54D26*
X31550Y6250D02*
X31300Y6550D01*
G54D25*
X36900Y6250D02*
X37200Y5950D01*
X28350Y600D02*
X28350Y50D01*
X28350Y600D02*
X27300Y1650D01*
G54D24*
X25150Y11050D02*
X24900Y10800D01*
X20050Y10550D02*
X20050Y9100D01*
X20300Y10800D02*
X20050Y10550D01*
X24900Y10800D02*
X20300Y10800D01*
X31350Y8300D02*
X31350Y7950D01*
X30940Y8709D02*
X31350Y8300D01*
X30940Y11459D02*
X30940Y8709D01*
X30050Y12350D02*
X30940Y11459D01*
X26050Y12350D02*
X30050Y12350D01*
X25150Y11450D02*
X26050Y12350D01*
X25150Y11050D02*
X25150Y11450D01*
X20550Y8850D02*
X20550Y10400D01*
X25100Y10600D02*
X25350Y10850D01*
X20750Y10600D02*
X25100Y10600D01*
X20550Y10400D02*
X20750Y10600D01*
X20050Y8450D02*
X20250Y8450D01*
X20250Y8450D02*
X20450Y8650D01*
X20450Y8650D02*
X20450Y8750D01*
X20450Y8750D02*
X20550Y8850D01*
X30750Y11350D02*
X30750Y7950D01*
X26200Y12150D02*
X29950Y12150D01*
X25350Y10850D02*
X25350Y11300D01*
X25350Y11300D02*
X26200Y12150D01*
X29950Y12150D02*
X30750Y11350D01*
X15750Y11400D02*
X15750Y6250D01*
X17000Y12500D02*
X17500Y12000D01*
X24750Y11000D02*
X24950Y11200D01*
X17600Y11000D02*
X24750Y11000D01*
X17500Y11100D02*
X17600Y11000D01*
X17500Y12000D02*
X17500Y11100D01*
X30150Y12550D02*
X25900Y12550D01*
X31150Y8850D02*
X31150Y11550D01*
X31150Y11550D02*
X30150Y12550D01*
X25900Y12550D02*
X24950Y11600D01*
X24950Y11600D02*
X24950Y11200D01*
X31600Y8550D02*
X31450Y8550D01*
X31800Y8350D02*
X31600Y8550D01*
X31800Y7700D02*
X31800Y8350D01*
X31450Y7350D02*
X31800Y7700D01*
X31350Y7350D02*
X31450Y7350D01*
X31450Y8550D02*
X31150Y8850D01*
G54D10*
G36*
X28290Y10160D02*
X26310Y10160D01*
X26310Y11840D01*
X28290Y11840D01*
X28290Y10160D01*
X28290Y10160D01*
G37*
G54D28*
X28290Y10160D02*
X26310Y10160D01*
X26310Y11840D01*
X28290Y11840D01*
X28290Y10160D01*
G54D10*
G36*
X28290Y410D02*
X26360Y410D01*
X26360Y2140D01*
X28290Y2140D01*
X28290Y410D01*
X28290Y410D01*
G37*
G54D28*
X28290Y410D02*
X26360Y410D01*
X26360Y2140D01*
X28290Y2140D01*
X28290Y410D01*
G54D10*
G36*
X30789Y6249D02*
X30740Y5601D01*
X30590Y5003D01*
X30241Y4255D01*
X29942Y3856D01*
X29693Y3607D01*
X29394Y3358D01*
X28995Y3108D01*
X28296Y2809D01*
X27898Y2709D01*
X27300Y2660D01*
X26851Y2709D01*
X26302Y2809D01*
X25704Y3058D01*
X25006Y3507D01*
X24557Y4006D01*
X24358Y4305D01*
X24258Y4505D01*
X24158Y4654D01*
X23959Y5103D01*
X23808Y5860D01*
X22595Y5860D01*
X21740Y5004D01*
X21740Y4260D01*
X15254Y4260D01*
X14510Y5004D01*
X14510Y10740D01*
X15600Y10740D01*
X15600Y6566D01*
X15552Y6546D01*
X15453Y6448D01*
X15400Y6319D01*
X15399Y6180D01*
X15453Y6052D01*
X15551Y5953D01*
X15680Y5900D01*
X15819Y5899D01*
X15948Y5953D01*
X16046Y6051D01*
X16099Y6180D01*
X16100Y6319D01*
X16046Y6448D01*
X15948Y6546D01*
X15900Y6566D01*
X15900Y10740D01*
X19490Y10740D01*
X19490Y7990D01*
X20760Y7990D01*
X20760Y10145D01*
X21054Y10440D01*
X24045Y10440D01*
X24340Y10145D01*
X24340Y9450D01*
X24340Y8490D01*
X24703Y8490D01*
X25106Y8842D01*
X25355Y9041D01*
X25804Y9291D01*
X26252Y9490D01*
X26801Y9590D01*
X27399Y9639D01*
X28097Y9540D01*
X28695Y9340D01*
X29394Y8941D01*
X29942Y8443D01*
X30391Y7795D01*
X30640Y7196D01*
X30740Y6798D01*
X30789Y6249D01*
X30789Y6249D01*
G37*
G54D28*
X30789Y6249D02*
X30740Y5601D01*
X30590Y5003D01*
X30241Y4255D01*
X29942Y3856D01*
X29693Y3607D01*
X29394Y3358D01*
X28995Y3108D01*
X28296Y2809D01*
X27898Y2709D01*
X27300Y2660D01*
X26851Y2709D01*
X26302Y2809D01*
X25704Y3058D01*
X25006Y3507D01*
X24557Y4006D01*
X24358Y4305D01*
X24258Y4505D01*
X24158Y4654D01*
X23959Y5103D01*
X23808Y5860D01*
X22595Y5860D01*
X21740Y5004D01*
X21740Y4260D01*
X15254Y4260D01*
X14510Y5004D01*
X14510Y10740D01*
X15600Y10740D01*
X15600Y6566D01*
X15552Y6546D01*
X15453Y6448D01*
X15400Y6319D01*
X15399Y6180D01*
X15453Y6052D01*
X15551Y5953D01*
X15680Y5900D01*
X15819Y5899D01*
X15948Y5953D01*
X16046Y6051D01*
X16099Y6180D01*
X16100Y6319D01*
X16046Y6448D01*
X15948Y6546D01*
X15900Y6566D01*
X15900Y10740D01*
X19490Y10740D01*
X19490Y7990D01*
X20760Y7990D01*
X20760Y10145D01*
X21054Y10440D01*
X24045Y10440D01*
X24340Y10145D01*
X24340Y9450D01*
X24340Y8490D01*
X24703Y8490D01*
X25106Y8842D01*
X25355Y9041D01*
X25804Y9291D01*
X26252Y9490D01*
X26801Y9590D01*
X27399Y9639D01*
X28097Y9540D01*
X28695Y9340D01*
X29394Y8941D01*
X29942Y8443D01*
X30391Y7795D01*
X30640Y7196D01*
X30740Y6798D01*
X30789Y6249D01*
G54D10*
G36*
X18225Y-2475D02*
X15975Y-2475D01*
X15975Y-3475D01*
X14525Y-3475D01*
X14525Y-2489D01*
X13760Y-1725D01*
X10989Y-1725D01*
X10475Y-2239D01*
X10475Y-3225D01*
X1025Y-3225D01*
X1025Y725D01*
X18225Y725D01*
X18225Y-2475D01*
X18225Y-2475D01*
G37*
G54D29*
X18225Y-2475D02*
X15975Y-2475D01*
X15975Y-3475D01*
X14525Y-3475D01*
X14525Y-2489D01*
X13760Y-1725D01*
X10989Y-1725D01*
X10475Y-2239D01*
X10475Y-3225D01*
X1025Y-3225D01*
X1025Y725D01*
X18225Y725D01*
X18225Y-2475D01*
M02*
