G04 (created by PCBNEW (2012-11-15 BZR 3804)-stable) date Tue 12 Feb 2013 01:01:19 CST*
%MOIN*%
G04 Gerber Fmt 3.4, Leading zero omitted, Abs format*
%FSLAX34Y34*%
G01*
G70*
G90*
G04 APERTURE LIST*
%ADD10C,0.006*%
%ADD11C,0.007*%
%ADD12C,0.01*%
%ADD13C,0.00590551*%
%ADD14C,0.008*%
G04 APERTURE END LIST*
G54D10*
X-38750Y36250D02*
X63250Y36250D01*
X63250Y-40750D01*
X-38750Y-40750D01*
X-38750Y36250D01*
X-38050Y35550D02*
X62550Y35550D01*
X62550Y-40050D01*
X-38050Y-40050D01*
X-38050Y35550D01*
X-18350Y36250D02*
X-18350Y35550D01*
X-28407Y35697D02*
X-28692Y35697D01*
X-28550Y35697D02*
X-28550Y36197D01*
X-28597Y36126D01*
X-28645Y36078D01*
X-28692Y36054D01*
X-18350Y-40750D02*
X-18350Y-40050D01*
X-28407Y-40602D02*
X-28692Y-40602D01*
X-28550Y-40602D02*
X-28550Y-40102D01*
X-28597Y-40173D01*
X-28645Y-40221D01*
X-28692Y-40245D01*
X2050Y36250D02*
X2050Y35550D01*
X-8292Y36150D02*
X-8269Y36173D01*
X-8221Y36197D01*
X-8102Y36197D01*
X-8054Y36173D01*
X-8030Y36150D01*
X-8007Y36102D01*
X-8007Y36054D01*
X-8030Y35983D01*
X-8316Y35697D01*
X-8007Y35697D01*
X2050Y-40750D02*
X2050Y-40050D01*
X-8292Y-40150D02*
X-8269Y-40126D01*
X-8221Y-40102D01*
X-8102Y-40102D01*
X-8054Y-40126D01*
X-8030Y-40150D01*
X-8007Y-40197D01*
X-8007Y-40245D01*
X-8030Y-40316D01*
X-8316Y-40602D01*
X-8007Y-40602D01*
X22450Y36250D02*
X22450Y35550D01*
X12083Y36197D02*
X12392Y36197D01*
X12226Y36007D01*
X12297Y36007D01*
X12345Y35983D01*
X12369Y35959D01*
X12392Y35911D01*
X12392Y35792D01*
X12369Y35745D01*
X12345Y35721D01*
X12297Y35697D01*
X12154Y35697D01*
X12107Y35721D01*
X12083Y35745D01*
X22450Y-40750D02*
X22450Y-40050D01*
X12083Y-40102D02*
X12392Y-40102D01*
X12226Y-40292D01*
X12297Y-40292D01*
X12345Y-40316D01*
X12369Y-40340D01*
X12392Y-40388D01*
X12392Y-40507D01*
X12369Y-40554D01*
X12345Y-40578D01*
X12297Y-40602D01*
X12154Y-40602D01*
X12107Y-40578D01*
X12083Y-40554D01*
X42850Y36250D02*
X42850Y35550D01*
X32745Y36030D02*
X32745Y35697D01*
X32626Y36221D02*
X32507Y35864D01*
X32816Y35864D01*
X42850Y-40750D02*
X42850Y-40050D01*
X32745Y-40269D02*
X32745Y-40602D01*
X32626Y-40078D02*
X32507Y-40435D01*
X32816Y-40435D01*
X53169Y36197D02*
X52930Y36197D01*
X52907Y35959D01*
X52930Y35983D01*
X52978Y36007D01*
X53097Y36007D01*
X53145Y35983D01*
X53169Y35959D01*
X53192Y35911D01*
X53192Y35792D01*
X53169Y35745D01*
X53145Y35721D01*
X53097Y35697D01*
X52978Y35697D01*
X52930Y35721D01*
X52907Y35745D01*
X53169Y-40102D02*
X52930Y-40102D01*
X52907Y-40340D01*
X52930Y-40316D01*
X52978Y-40292D01*
X53097Y-40292D01*
X53145Y-40316D01*
X53169Y-40340D01*
X53192Y-40388D01*
X53192Y-40507D01*
X53169Y-40554D01*
X53145Y-40578D01*
X53097Y-40602D01*
X52978Y-40602D01*
X52930Y-40578D01*
X52907Y-40554D01*
X-38750Y10590D02*
X-38050Y10590D01*
X-38519Y23360D02*
X-38280Y23360D01*
X-38566Y23217D02*
X-38399Y23717D01*
X-38233Y23217D01*
X63250Y10590D02*
X62550Y10590D01*
X62780Y23360D02*
X63019Y23360D01*
X62733Y23217D02*
X62900Y23717D01*
X63066Y23217D01*
X-38750Y-15070D02*
X-38050Y-15070D01*
X-38364Y-2180D02*
X-38292Y-2204D01*
X-38269Y-2228D01*
X-38245Y-2275D01*
X-38245Y-2347D01*
X-38269Y-2394D01*
X-38292Y-2418D01*
X-38340Y-2442D01*
X-38530Y-2442D01*
X-38530Y-1942D01*
X-38364Y-1942D01*
X-38316Y-1966D01*
X-38292Y-1990D01*
X-38269Y-2037D01*
X-38269Y-2085D01*
X-38292Y-2132D01*
X-38316Y-2156D01*
X-38364Y-2180D01*
X-38530Y-2180D01*
X63250Y-15070D02*
X62550Y-15070D01*
X62935Y-2180D02*
X63007Y-2204D01*
X63030Y-2228D01*
X63054Y-2275D01*
X63054Y-2347D01*
X63030Y-2394D01*
X63007Y-2418D01*
X62959Y-2442D01*
X62769Y-2442D01*
X62769Y-1942D01*
X62935Y-1942D01*
X62983Y-1966D01*
X63007Y-1990D01*
X63030Y-2037D01*
X63030Y-2085D01*
X63007Y-2132D01*
X62983Y-2156D01*
X62935Y-2180D01*
X62769Y-2180D01*
X-38245Y-28054D02*
X-38269Y-28078D01*
X-38340Y-28102D01*
X-38388Y-28102D01*
X-38459Y-28078D01*
X-38507Y-28030D01*
X-38530Y-27983D01*
X-38554Y-27888D01*
X-38554Y-27816D01*
X-38530Y-27721D01*
X-38507Y-27673D01*
X-38459Y-27626D01*
X-38388Y-27602D01*
X-38340Y-27602D01*
X-38269Y-27626D01*
X-38245Y-27650D01*
X63054Y-28054D02*
X63030Y-28078D01*
X62959Y-28102D01*
X62911Y-28102D01*
X62840Y-28078D01*
X62792Y-28030D01*
X62769Y-27983D01*
X62745Y-27888D01*
X62745Y-27816D01*
X62769Y-27721D01*
X62792Y-27673D01*
X62840Y-27626D01*
X62911Y-27602D01*
X62959Y-27602D01*
X63030Y-27626D01*
X63054Y-27650D01*
X29700Y-38492D02*
X29775Y-37892D01*
X29917Y-37892D01*
X30000Y-37921D01*
X30050Y-37978D01*
X30071Y-38035D01*
X30085Y-38150D01*
X30075Y-38235D01*
X30032Y-38350D01*
X29996Y-38407D01*
X29932Y-38464D01*
X29842Y-38492D01*
X29700Y-38492D01*
X30557Y-38492D02*
X30596Y-38178D01*
X30575Y-38121D01*
X30521Y-38092D01*
X30407Y-38092D01*
X30346Y-38121D01*
X30560Y-38464D02*
X30500Y-38492D01*
X30357Y-38492D01*
X30303Y-38464D01*
X30282Y-38407D01*
X30289Y-38350D01*
X30325Y-38292D01*
X30385Y-38264D01*
X30528Y-38264D01*
X30589Y-38235D01*
X30807Y-38092D02*
X31035Y-38092D01*
X30917Y-37892D02*
X30853Y-38407D01*
X30875Y-38464D01*
X30928Y-38492D01*
X30985Y-38492D01*
X31417Y-38464D02*
X31357Y-38492D01*
X31242Y-38492D01*
X31189Y-38464D01*
X31167Y-38407D01*
X31196Y-38178D01*
X31232Y-38121D01*
X31292Y-38092D01*
X31407Y-38092D01*
X31460Y-38121D01*
X31482Y-38178D01*
X31475Y-38235D01*
X31182Y-38292D01*
X31707Y-38435D02*
X31732Y-38464D01*
X31700Y-38492D01*
X31675Y-38464D01*
X31707Y-38435D01*
X31700Y-38492D01*
X31746Y-38121D02*
X31771Y-38150D01*
X31739Y-38178D01*
X31714Y-38150D01*
X31746Y-38121D01*
X31739Y-38178D01*
X32757Y-38492D02*
X32414Y-38492D01*
X32585Y-38492D02*
X32660Y-37892D01*
X32592Y-37978D01*
X32528Y-38035D01*
X32467Y-38064D01*
X33053Y-37950D02*
X33085Y-37921D01*
X33146Y-37892D01*
X33289Y-37892D01*
X33342Y-37921D01*
X33367Y-37950D01*
X33389Y-38007D01*
X33382Y-38064D01*
X33342Y-38150D01*
X32957Y-38492D01*
X33328Y-38492D01*
X34007Y-38092D02*
X34235Y-38092D01*
X34042Y-38492D02*
X34107Y-37978D01*
X34142Y-37921D01*
X34203Y-37892D01*
X34260Y-37892D01*
X34617Y-38464D02*
X34557Y-38492D01*
X34442Y-38492D01*
X34389Y-38464D01*
X34367Y-38407D01*
X34396Y-38178D01*
X34432Y-38121D01*
X34492Y-38092D01*
X34607Y-38092D01*
X34660Y-38121D01*
X34682Y-38178D01*
X34675Y-38235D01*
X34382Y-38292D01*
X34900Y-38492D02*
X34975Y-37892D01*
X34946Y-38121D02*
X35007Y-38092D01*
X35121Y-38092D01*
X35175Y-38121D01*
X35200Y-38150D01*
X35221Y-38207D01*
X35200Y-38378D01*
X35164Y-38435D01*
X35132Y-38464D01*
X35071Y-38492D01*
X34957Y-38492D01*
X34903Y-38464D01*
X35939Y-37950D02*
X35971Y-37921D01*
X36032Y-37892D01*
X36175Y-37892D01*
X36228Y-37921D01*
X36253Y-37950D01*
X36275Y-38007D01*
X36267Y-38064D01*
X36228Y-38150D01*
X35842Y-38492D01*
X36214Y-38492D01*
X36660Y-37892D02*
X36717Y-37892D01*
X36771Y-37921D01*
X36796Y-37950D01*
X36817Y-38007D01*
X36832Y-38121D01*
X36814Y-38264D01*
X36771Y-38378D01*
X36735Y-38435D01*
X36703Y-38464D01*
X36642Y-38492D01*
X36585Y-38492D01*
X36532Y-38464D01*
X36507Y-38435D01*
X36485Y-38378D01*
X36471Y-38264D01*
X36489Y-38121D01*
X36532Y-38007D01*
X36567Y-37950D01*
X36600Y-37921D01*
X36660Y-37892D01*
X37357Y-38492D02*
X37014Y-38492D01*
X37185Y-38492D02*
X37260Y-37892D01*
X37192Y-37978D01*
X37128Y-38035D01*
X37067Y-38064D01*
X37632Y-37892D02*
X38003Y-37892D01*
X37775Y-38121D01*
X37860Y-38121D01*
X37914Y-38150D01*
X37939Y-38178D01*
X37960Y-38235D01*
X37942Y-38378D01*
X37907Y-38435D01*
X37875Y-38464D01*
X37814Y-38492D01*
X37642Y-38492D01*
X37589Y-38464D01*
X37564Y-38435D01*
X21292Y-39692D02*
X21292Y-39092D01*
X21635Y-39692D02*
X21378Y-39350D01*
X21635Y-39092D02*
X21292Y-39435D01*
X21892Y-39692D02*
X21892Y-39292D01*
X21892Y-39092D02*
X21864Y-39121D01*
X21892Y-39150D01*
X21921Y-39121D01*
X21892Y-39092D01*
X21892Y-39150D01*
X22521Y-39635D02*
X22492Y-39664D01*
X22407Y-39692D01*
X22350Y-39692D01*
X22264Y-39664D01*
X22207Y-39607D01*
X22178Y-39550D01*
X22150Y-39435D01*
X22150Y-39350D01*
X22178Y-39235D01*
X22207Y-39178D01*
X22264Y-39121D01*
X22350Y-39092D01*
X22407Y-39092D01*
X22492Y-39121D01*
X22521Y-39150D01*
X23035Y-39692D02*
X23035Y-39378D01*
X23007Y-39321D01*
X22950Y-39292D01*
X22835Y-39292D01*
X22778Y-39321D01*
X23035Y-39664D02*
X22978Y-39692D01*
X22835Y-39692D01*
X22778Y-39664D01*
X22750Y-39607D01*
X22750Y-39550D01*
X22778Y-39492D01*
X22835Y-39464D01*
X22978Y-39464D01*
X23035Y-39435D01*
X23578Y-39692D02*
X23578Y-39092D01*
X23578Y-39664D02*
X23521Y-39692D01*
X23407Y-39692D01*
X23350Y-39664D01*
X23321Y-39635D01*
X23292Y-39578D01*
X23292Y-39407D01*
X23321Y-39350D01*
X23350Y-39321D01*
X23407Y-39292D01*
X23521Y-39292D01*
X23578Y-39321D01*
X24321Y-39378D02*
X24521Y-39378D01*
X24607Y-39692D02*
X24321Y-39692D01*
X24321Y-39092D01*
X24607Y-39092D01*
X24864Y-39635D02*
X24892Y-39664D01*
X24864Y-39692D01*
X24835Y-39664D01*
X24864Y-39635D01*
X24864Y-39692D01*
X25149Y-39692D02*
X25149Y-39092D01*
X25292Y-39092D01*
X25378Y-39121D01*
X25435Y-39178D01*
X25464Y-39235D01*
X25492Y-39350D01*
X25492Y-39435D01*
X25464Y-39550D01*
X25435Y-39607D01*
X25378Y-39664D01*
X25292Y-39692D01*
X25149Y-39692D01*
X25749Y-39635D02*
X25778Y-39664D01*
X25749Y-39692D01*
X25721Y-39664D01*
X25749Y-39635D01*
X25749Y-39692D01*
X26007Y-39521D02*
X26292Y-39521D01*
X25949Y-39692D02*
X26149Y-39092D01*
X26349Y-39692D01*
X26549Y-39635D02*
X26578Y-39664D01*
X26549Y-39692D01*
X26521Y-39664D01*
X26549Y-39635D01*
X26549Y-39692D01*
X54842Y-38492D02*
X54678Y-38207D01*
X54500Y-38492D02*
X54575Y-37892D01*
X54803Y-37892D01*
X54857Y-37921D01*
X54882Y-37950D01*
X54903Y-38007D01*
X54892Y-38092D01*
X54857Y-38150D01*
X54825Y-38178D01*
X54764Y-38207D01*
X54535Y-38207D01*
X55332Y-38464D02*
X55271Y-38492D01*
X55157Y-38492D01*
X55103Y-38464D01*
X55082Y-38407D01*
X55110Y-38178D01*
X55146Y-38121D01*
X55207Y-38092D01*
X55321Y-38092D01*
X55375Y-38121D01*
X55396Y-38178D01*
X55389Y-38235D01*
X55096Y-38292D01*
X55607Y-38092D02*
X55700Y-38492D01*
X55892Y-38092D01*
X56078Y-38435D02*
X56103Y-38464D01*
X56071Y-38492D01*
X56046Y-38464D01*
X56078Y-38435D01*
X56071Y-38492D01*
X56117Y-38121D02*
X56142Y-38150D01*
X56110Y-38178D01*
X56085Y-38150D01*
X56117Y-38121D01*
X56110Y-38178D01*
X56803Y-37892D02*
X57146Y-37892D01*
X56900Y-38492D02*
X56975Y-37892D01*
X57310Y-37950D02*
X57342Y-37921D01*
X57403Y-37892D01*
X57546Y-37892D01*
X57600Y-37921D01*
X57625Y-37950D01*
X57646Y-38007D01*
X57639Y-38064D01*
X57600Y-38150D01*
X57214Y-38492D01*
X57585Y-38492D01*
X58100Y-38492D02*
X58139Y-38178D01*
X58117Y-38121D01*
X58064Y-38092D01*
X57950Y-38092D01*
X57889Y-38121D01*
X58103Y-38464D02*
X58042Y-38492D01*
X57900Y-38492D01*
X57846Y-38464D01*
X57825Y-38407D01*
X57832Y-38350D01*
X57867Y-38292D01*
X57928Y-38264D01*
X58071Y-38264D01*
X58132Y-38235D01*
X21264Y-38464D02*
X21350Y-38492D01*
X21492Y-38492D01*
X21550Y-38464D01*
X21578Y-38435D01*
X21607Y-38378D01*
X21607Y-38321D01*
X21578Y-38264D01*
X21550Y-38235D01*
X21492Y-38207D01*
X21378Y-38178D01*
X21321Y-38150D01*
X21292Y-38121D01*
X21264Y-38064D01*
X21264Y-38007D01*
X21292Y-37950D01*
X21321Y-37921D01*
X21378Y-37892D01*
X21521Y-37892D01*
X21607Y-37921D01*
X21864Y-38492D02*
X21864Y-38092D01*
X21864Y-37892D02*
X21835Y-37921D01*
X21864Y-37950D01*
X21892Y-37921D01*
X21864Y-37892D01*
X21864Y-37950D01*
X22092Y-38092D02*
X22407Y-38092D01*
X22092Y-38492D01*
X22407Y-38492D01*
X22864Y-38464D02*
X22807Y-38492D01*
X22692Y-38492D01*
X22635Y-38464D01*
X22607Y-38407D01*
X22607Y-38178D01*
X22635Y-38121D01*
X22692Y-38092D01*
X22807Y-38092D01*
X22864Y-38121D01*
X22892Y-38178D01*
X22892Y-38235D01*
X22607Y-38292D01*
X23150Y-38435D02*
X23178Y-38464D01*
X23150Y-38492D01*
X23121Y-38464D01*
X23150Y-38435D01*
X23150Y-38492D01*
X23150Y-38121D02*
X23178Y-38150D01*
X23150Y-38178D01*
X23121Y-38150D01*
X23150Y-38121D01*
X23150Y-38178D01*
X23864Y-38321D02*
X24150Y-38321D01*
X23807Y-38492D02*
X24007Y-37892D01*
X24207Y-38492D01*
X54492Y-39692D02*
X54492Y-39092D01*
X55035Y-39692D02*
X55035Y-39092D01*
X55035Y-39664D02*
X54978Y-39692D01*
X54864Y-39692D01*
X54807Y-39664D01*
X54778Y-39635D01*
X54750Y-39578D01*
X54750Y-39407D01*
X54778Y-39350D01*
X54807Y-39321D01*
X54864Y-39292D01*
X54978Y-39292D01*
X55035Y-39321D01*
X55321Y-39635D02*
X55350Y-39664D01*
X55321Y-39692D01*
X55292Y-39664D01*
X55321Y-39635D01*
X55321Y-39692D01*
X55321Y-39321D02*
X55350Y-39350D01*
X55321Y-39378D01*
X55292Y-39350D01*
X55321Y-39321D01*
X55321Y-39378D01*
X56378Y-39692D02*
X56035Y-39692D01*
X56207Y-39692D02*
X56207Y-39092D01*
X56149Y-39178D01*
X56092Y-39235D01*
X56035Y-39264D01*
X57064Y-39064D02*
X56550Y-39835D01*
X57578Y-39692D02*
X57235Y-39692D01*
X57407Y-39692D02*
X57407Y-39092D01*
X57349Y-39178D01*
X57292Y-39235D01*
X57235Y-39264D01*
X21289Y-36692D02*
X21632Y-36692D01*
X21385Y-37292D02*
X21460Y-36692D01*
X21757Y-37292D02*
X21807Y-36892D01*
X21832Y-36692D02*
X21800Y-36721D01*
X21825Y-36750D01*
X21857Y-36721D01*
X21832Y-36692D01*
X21825Y-36750D01*
X22007Y-36892D02*
X22235Y-36892D01*
X22117Y-36692D02*
X22053Y-37207D01*
X22075Y-37264D01*
X22128Y-37292D01*
X22185Y-37292D01*
X22471Y-37292D02*
X22417Y-37264D01*
X22396Y-37207D01*
X22460Y-36692D01*
X22932Y-37264D02*
X22871Y-37292D01*
X22757Y-37292D01*
X22703Y-37264D01*
X22682Y-37207D01*
X22710Y-36978D01*
X22746Y-36921D01*
X22807Y-36892D01*
X22921Y-36892D01*
X22975Y-36921D01*
X22996Y-36978D01*
X22989Y-37035D01*
X22696Y-37092D01*
X23221Y-37235D02*
X23246Y-37264D01*
X23214Y-37292D01*
X23189Y-37264D01*
X23221Y-37235D01*
X23214Y-37292D01*
X23260Y-36921D02*
X23285Y-36950D01*
X23253Y-36978D01*
X23228Y-36950D01*
X23260Y-36921D01*
X23253Y-36978D01*
X24196Y-36978D02*
X24278Y-37007D01*
X24303Y-37035D01*
X24325Y-37092D01*
X24314Y-37178D01*
X24278Y-37235D01*
X24246Y-37264D01*
X24185Y-37292D01*
X23957Y-37292D01*
X24032Y-36692D01*
X24232Y-36692D01*
X24285Y-36721D01*
X24310Y-36750D01*
X24332Y-36807D01*
X24325Y-36864D01*
X24289Y-36921D01*
X24257Y-36950D01*
X24196Y-36978D01*
X23996Y-36978D01*
X24746Y-36692D02*
X24860Y-36692D01*
X24914Y-36721D01*
X24964Y-36778D01*
X24978Y-36892D01*
X24953Y-37092D01*
X24910Y-37207D01*
X24846Y-37264D01*
X24785Y-37292D01*
X24671Y-37292D01*
X24617Y-37264D01*
X24567Y-37207D01*
X24553Y-37092D01*
X24578Y-36892D01*
X24621Y-36778D01*
X24685Y-36721D01*
X24746Y-36692D01*
X25178Y-37121D02*
X25464Y-37121D01*
X25100Y-37292D02*
X25375Y-36692D01*
X25500Y-37292D01*
X26042Y-37292D02*
X25878Y-37007D01*
X25700Y-37292D02*
X25775Y-36692D01*
X26003Y-36692D01*
X26057Y-36721D01*
X26082Y-36750D01*
X26103Y-36807D01*
X26092Y-36892D01*
X26057Y-36950D01*
X26025Y-36978D01*
X25964Y-37007D01*
X25735Y-37007D01*
X26300Y-37292D02*
X26375Y-36692D01*
X26517Y-36692D01*
X26600Y-36721D01*
X26650Y-36778D01*
X26671Y-36835D01*
X26685Y-36950D01*
X26675Y-37035D01*
X26632Y-37150D01*
X26596Y-37207D01*
X26532Y-37264D01*
X26442Y-37292D01*
X26300Y-37292D01*
X26932Y-37264D02*
X26928Y-37292D01*
X26892Y-37350D01*
X26860Y-37378D01*
X27642Y-37292D02*
X27717Y-36692D01*
X27946Y-36692D01*
X27999Y-36721D01*
X28025Y-36750D01*
X28046Y-36807D01*
X28035Y-36892D01*
X28000Y-36950D01*
X27967Y-36978D01*
X27907Y-37007D01*
X27678Y-37007D01*
X28592Y-37235D02*
X28560Y-37264D01*
X28471Y-37292D01*
X28414Y-37292D01*
X28332Y-37264D01*
X28282Y-37207D01*
X28260Y-37150D01*
X28246Y-37035D01*
X28257Y-36950D01*
X28300Y-36835D01*
X28335Y-36778D01*
X28399Y-36721D01*
X28489Y-36692D01*
X28546Y-36692D01*
X28628Y-36721D01*
X28653Y-36750D01*
X28875Y-37264D02*
X28871Y-37292D01*
X28835Y-37350D01*
X28803Y-37378D01*
X29575Y-36692D02*
X29917Y-36692D01*
X29671Y-37292D02*
X29746Y-36692D01*
X30042Y-37292D02*
X30117Y-36692D01*
X30082Y-36978D02*
X30425Y-36978D01*
X30385Y-37292D02*
X30460Y-36692D01*
X30860Y-36692D02*
X30975Y-36692D01*
X31028Y-36721D01*
X31078Y-36778D01*
X31092Y-36892D01*
X31067Y-37092D01*
X31024Y-37207D01*
X30960Y-37264D01*
X30900Y-37292D01*
X30785Y-37292D01*
X30732Y-37264D01*
X30682Y-37207D01*
X30667Y-37092D01*
X30692Y-36892D01*
X30735Y-36778D01*
X30799Y-36721D01*
X30860Y-36692D01*
X31289Y-36692D02*
X31632Y-36692D01*
X31385Y-37292D02*
X31460Y-36692D01*
X31757Y-37292D02*
X31832Y-36692D01*
X32099Y-37292D02*
X31885Y-36950D01*
X32174Y-36692D02*
X31789Y-37035D01*
X32546Y-36692D02*
X32660Y-36692D01*
X32714Y-36721D01*
X32764Y-36778D01*
X32778Y-36892D01*
X32753Y-37092D01*
X32710Y-37207D01*
X32646Y-37264D01*
X32585Y-37292D01*
X32471Y-37292D01*
X32417Y-37264D01*
X32367Y-37207D01*
X32353Y-37092D01*
X32378Y-36892D01*
X32421Y-36778D01*
X32485Y-36721D01*
X32546Y-36692D01*
X32985Y-37292D02*
X33060Y-36692D01*
X33328Y-37292D01*
X33403Y-36692D01*
X34260Y-36692D02*
X34374Y-36692D01*
X34428Y-36721D01*
X34478Y-36778D01*
X34492Y-36892D01*
X34467Y-37092D01*
X34424Y-37207D01*
X34360Y-37264D01*
X34299Y-37292D01*
X34185Y-37292D01*
X34132Y-37264D01*
X34082Y-37207D01*
X34067Y-37092D01*
X34092Y-36892D01*
X34135Y-36778D01*
X34199Y-36721D01*
X34260Y-36692D01*
X34717Y-36692D02*
X35042Y-37292D01*
X35117Y-36692D02*
X34642Y-37292D01*
X35578Y-36892D02*
X35528Y-37292D01*
X35464Y-36664D02*
X35267Y-37092D01*
X35639Y-37092D01*
X21492Y-34578D02*
X21292Y-34578D01*
X21292Y-34892D02*
X21292Y-34292D01*
X21578Y-34292D01*
X21807Y-34892D02*
X21807Y-34492D01*
X21807Y-34292D02*
X21778Y-34321D01*
X21807Y-34350D01*
X21835Y-34321D01*
X21807Y-34292D01*
X21807Y-34350D01*
X22178Y-34892D02*
X22121Y-34864D01*
X22092Y-34807D01*
X22092Y-34292D01*
X22635Y-34864D02*
X22578Y-34892D01*
X22464Y-34892D01*
X22407Y-34864D01*
X22378Y-34807D01*
X22378Y-34578D01*
X22407Y-34521D01*
X22464Y-34492D01*
X22578Y-34492D01*
X22635Y-34521D01*
X22664Y-34578D01*
X22664Y-34635D01*
X22378Y-34692D01*
X22921Y-34835D02*
X22950Y-34864D01*
X22921Y-34892D01*
X22892Y-34864D01*
X22921Y-34835D01*
X22921Y-34892D01*
X22921Y-34521D02*
X22950Y-34550D01*
X22921Y-34578D01*
X22892Y-34550D01*
X22921Y-34521D01*
X22921Y-34578D01*
X23578Y-34492D02*
X23807Y-34492D01*
X23664Y-34292D02*
X23664Y-34807D01*
X23692Y-34864D01*
X23750Y-34892D01*
X23807Y-34892D01*
X24007Y-34892D02*
X24007Y-34292D01*
X24264Y-34892D02*
X24264Y-34578D01*
X24235Y-34521D01*
X24178Y-34492D01*
X24092Y-34492D01*
X24035Y-34521D01*
X24007Y-34550D01*
X24635Y-34892D02*
X24578Y-34864D01*
X24550Y-34835D01*
X24521Y-34778D01*
X24521Y-34607D01*
X24550Y-34550D01*
X24578Y-34521D01*
X24635Y-34492D01*
X24721Y-34492D01*
X24778Y-34521D01*
X24807Y-34550D01*
X24835Y-34607D01*
X24835Y-34778D01*
X24807Y-34835D01*
X24778Y-34864D01*
X24721Y-34892D01*
X24635Y-34892D01*
X25007Y-34492D02*
X25235Y-34492D01*
X25092Y-34292D02*
X25092Y-34807D01*
X25121Y-34864D01*
X25178Y-34892D01*
X25235Y-34892D01*
X25692Y-34864D02*
X25635Y-34892D01*
X25521Y-34892D01*
X25464Y-34864D01*
X25435Y-34835D01*
X25407Y-34778D01*
X25407Y-34607D01*
X25435Y-34550D01*
X25464Y-34521D01*
X25521Y-34492D01*
X25635Y-34492D01*
X25692Y-34521D01*
X26035Y-34892D02*
X25978Y-34864D01*
X25950Y-34835D01*
X25921Y-34778D01*
X25921Y-34607D01*
X25950Y-34550D01*
X25978Y-34521D01*
X26035Y-34492D01*
X26121Y-34492D01*
X26178Y-34521D01*
X26207Y-34550D01*
X26235Y-34607D01*
X26235Y-34778D01*
X26207Y-34835D01*
X26178Y-34864D01*
X26121Y-34892D01*
X26035Y-34892D01*
X26492Y-34492D02*
X26492Y-34892D01*
X26492Y-34550D02*
X26521Y-34521D01*
X26578Y-34492D01*
X26664Y-34492D01*
X26721Y-34521D01*
X26750Y-34578D01*
X26750Y-34892D01*
X26892Y-34950D02*
X27350Y-34950D01*
X27492Y-34892D02*
X27492Y-34292D01*
X27492Y-34521D02*
X27550Y-34492D01*
X27664Y-34492D01*
X27721Y-34521D01*
X27750Y-34550D01*
X27778Y-34607D01*
X27778Y-34778D01*
X27750Y-34835D01*
X27721Y-34864D01*
X27664Y-34892D01*
X27550Y-34892D01*
X27492Y-34864D01*
X28292Y-34892D02*
X28292Y-34578D01*
X28264Y-34521D01*
X28207Y-34492D01*
X28092Y-34492D01*
X28035Y-34521D01*
X28292Y-34864D02*
X28235Y-34892D01*
X28092Y-34892D01*
X28035Y-34864D01*
X28007Y-34807D01*
X28007Y-34750D01*
X28035Y-34692D01*
X28092Y-34664D01*
X28235Y-34664D01*
X28292Y-34635D01*
X28835Y-34892D02*
X28835Y-34292D01*
X28835Y-34864D02*
X28778Y-34892D01*
X28664Y-34892D01*
X28607Y-34864D01*
X28578Y-34835D01*
X28550Y-34778D01*
X28550Y-34607D01*
X28578Y-34550D01*
X28607Y-34521D01*
X28664Y-34492D01*
X28778Y-34492D01*
X28835Y-34521D01*
X29378Y-34492D02*
X29378Y-34978D01*
X29350Y-35035D01*
X29321Y-35064D01*
X29264Y-35092D01*
X29178Y-35092D01*
X29121Y-35064D01*
X29378Y-34864D02*
X29321Y-34892D01*
X29207Y-34892D01*
X29150Y-34864D01*
X29121Y-34835D01*
X29092Y-34778D01*
X29092Y-34607D01*
X29121Y-34550D01*
X29150Y-34521D01*
X29207Y-34492D01*
X29321Y-34492D01*
X29378Y-34521D01*
X29892Y-34864D02*
X29835Y-34892D01*
X29721Y-34892D01*
X29664Y-34864D01*
X29635Y-34807D01*
X29635Y-34578D01*
X29664Y-34521D01*
X29721Y-34492D01*
X29835Y-34492D01*
X29892Y-34521D01*
X29921Y-34578D01*
X29921Y-34635D01*
X29635Y-34692D01*
X30035Y-34950D02*
X30492Y-34950D01*
X30578Y-34492D02*
X30892Y-34492D01*
X30578Y-34892D01*
X30892Y-34892D01*
X31121Y-34892D02*
X31121Y-34492D01*
X31121Y-34292D02*
X31092Y-34321D01*
X31121Y-34350D01*
X31150Y-34321D01*
X31121Y-34292D01*
X31121Y-34350D01*
X31664Y-34492D02*
X31664Y-34978D01*
X31635Y-35035D01*
X31607Y-35064D01*
X31549Y-35092D01*
X31464Y-35092D01*
X31407Y-35064D01*
X31664Y-34864D02*
X31607Y-34892D01*
X31492Y-34892D01*
X31435Y-34864D01*
X31407Y-34835D01*
X31378Y-34778D01*
X31378Y-34607D01*
X31407Y-34550D01*
X31435Y-34521D01*
X31492Y-34492D01*
X31607Y-34492D01*
X31664Y-34521D01*
X31949Y-34835D02*
X31978Y-34864D01*
X31949Y-34892D01*
X31921Y-34864D01*
X31949Y-34835D01*
X31949Y-34892D01*
X32235Y-34892D02*
X32235Y-34292D01*
X32235Y-34521D02*
X32292Y-34492D01*
X32407Y-34492D01*
X32464Y-34521D01*
X32492Y-34550D01*
X32521Y-34607D01*
X32521Y-34778D01*
X32492Y-34835D01*
X32464Y-34864D01*
X32407Y-34892D01*
X32292Y-34892D01*
X32235Y-34864D01*
X32778Y-34892D02*
X32778Y-34492D01*
X32778Y-34607D02*
X32807Y-34550D01*
X32835Y-34521D01*
X32892Y-34492D01*
X32949Y-34492D01*
X33407Y-34892D02*
X33407Y-34292D01*
X33407Y-34864D02*
X33349Y-34892D01*
X33235Y-34892D01*
X33178Y-34864D01*
X33149Y-34835D01*
X33121Y-34778D01*
X33121Y-34607D01*
X33149Y-34550D01*
X33178Y-34521D01*
X33235Y-34492D01*
X33349Y-34492D01*
X33407Y-34521D01*
X21264Y-36064D02*
X21350Y-36092D01*
X21492Y-36092D01*
X21550Y-36064D01*
X21578Y-36035D01*
X21607Y-35978D01*
X21607Y-35921D01*
X21578Y-35864D01*
X21550Y-35835D01*
X21492Y-35807D01*
X21378Y-35778D01*
X21321Y-35750D01*
X21292Y-35721D01*
X21264Y-35664D01*
X21264Y-35607D01*
X21292Y-35550D01*
X21321Y-35521D01*
X21378Y-35492D01*
X21521Y-35492D01*
X21607Y-35521D01*
X21864Y-36092D02*
X21864Y-35492D01*
X22121Y-36092D02*
X22121Y-35778D01*
X22092Y-35721D01*
X22035Y-35692D01*
X21950Y-35692D01*
X21892Y-35721D01*
X21864Y-35750D01*
X22635Y-36064D02*
X22578Y-36092D01*
X22464Y-36092D01*
X22407Y-36064D01*
X22378Y-36007D01*
X22378Y-35778D01*
X22407Y-35721D01*
X22464Y-35692D01*
X22578Y-35692D01*
X22635Y-35721D01*
X22664Y-35778D01*
X22664Y-35835D01*
X22378Y-35892D01*
X23150Y-36064D02*
X23092Y-36092D01*
X22978Y-36092D01*
X22921Y-36064D01*
X22892Y-36007D01*
X22892Y-35778D01*
X22921Y-35721D01*
X22978Y-35692D01*
X23092Y-35692D01*
X23150Y-35721D01*
X23178Y-35778D01*
X23178Y-35835D01*
X22892Y-35892D01*
X23350Y-35692D02*
X23578Y-35692D01*
X23435Y-35492D02*
X23435Y-36007D01*
X23464Y-36064D01*
X23521Y-36092D01*
X23578Y-36092D01*
X23778Y-36035D02*
X23807Y-36064D01*
X23778Y-36092D01*
X23750Y-36064D01*
X23778Y-36035D01*
X23778Y-36092D01*
X23778Y-35721D02*
X23807Y-35750D01*
X23778Y-35778D01*
X23750Y-35750D01*
X23778Y-35721D01*
X23778Y-35778D01*
X21317Y-33092D02*
X21385Y-33692D01*
X21553Y-33264D01*
X21614Y-33692D01*
X21832Y-33092D01*
X22071Y-33692D02*
X22017Y-33664D01*
X21992Y-33635D01*
X21971Y-33578D01*
X21992Y-33407D01*
X22028Y-33350D01*
X22060Y-33321D01*
X22121Y-33292D01*
X22207Y-33292D01*
X22260Y-33321D01*
X22285Y-33350D01*
X22307Y-33407D01*
X22285Y-33578D01*
X22250Y-33635D01*
X22217Y-33664D01*
X22157Y-33692D01*
X22071Y-33692D01*
X22528Y-33692D02*
X22578Y-33292D01*
X22564Y-33407D02*
X22600Y-33350D01*
X22632Y-33321D01*
X22692Y-33292D01*
X22750Y-33292D01*
X22900Y-33692D02*
X22975Y-33092D01*
X22985Y-33464D02*
X23128Y-33692D01*
X23178Y-33292D02*
X22921Y-33521D01*
X23360Y-33664D02*
X23414Y-33692D01*
X23528Y-33692D01*
X23589Y-33664D01*
X23625Y-33607D01*
X23628Y-33578D01*
X23607Y-33521D01*
X23553Y-33492D01*
X23467Y-33492D01*
X23414Y-33464D01*
X23392Y-33407D01*
X23396Y-33378D01*
X23432Y-33321D01*
X23492Y-33292D01*
X23578Y-33292D01*
X23632Y-33321D01*
X23871Y-33692D02*
X23946Y-33092D01*
X24128Y-33692D02*
X24167Y-33378D01*
X24146Y-33321D01*
X24092Y-33292D01*
X24007Y-33292D01*
X23946Y-33321D01*
X23914Y-33350D01*
X24499Y-33692D02*
X24446Y-33664D01*
X24421Y-33635D01*
X24400Y-33578D01*
X24421Y-33407D01*
X24457Y-33350D01*
X24489Y-33321D01*
X24549Y-33292D01*
X24635Y-33292D01*
X24689Y-33321D01*
X24714Y-33350D01*
X24735Y-33407D01*
X24714Y-33578D01*
X24678Y-33635D01*
X24646Y-33664D01*
X24585Y-33692D01*
X24499Y-33692D01*
X25007Y-33292D02*
X24932Y-33892D01*
X25003Y-33321D02*
X25064Y-33292D01*
X25178Y-33292D01*
X25232Y-33321D01*
X25257Y-33350D01*
X25278Y-33407D01*
X25257Y-33578D01*
X25221Y-33635D01*
X25189Y-33664D01*
X25128Y-33692D01*
X25014Y-33692D01*
X24960Y-33664D01*
X26085Y-33350D02*
X26032Y-33321D01*
X26007Y-33292D01*
X25985Y-33235D01*
X25989Y-33207D01*
X26024Y-33150D01*
X26057Y-33121D01*
X26117Y-33092D01*
X26232Y-33092D01*
X26285Y-33121D01*
X26310Y-33150D01*
X26332Y-33207D01*
X26328Y-33235D01*
X26292Y-33292D01*
X26260Y-33321D01*
X26199Y-33350D01*
X26085Y-33350D01*
X26025Y-33378D01*
X25992Y-33407D01*
X25957Y-33464D01*
X25942Y-33578D01*
X25964Y-33635D01*
X25989Y-33664D01*
X26042Y-33692D01*
X26157Y-33692D01*
X26217Y-33664D01*
X26249Y-33635D01*
X26285Y-33578D01*
X26299Y-33464D01*
X26278Y-33407D01*
X26253Y-33378D01*
X26199Y-33350D01*
X26657Y-33350D02*
X26603Y-33321D01*
X26578Y-33292D01*
X26557Y-33235D01*
X26560Y-33207D01*
X26596Y-33150D01*
X26628Y-33121D01*
X26689Y-33092D01*
X26803Y-33092D01*
X26857Y-33121D01*
X26882Y-33150D01*
X26903Y-33207D01*
X26900Y-33235D01*
X26864Y-33292D01*
X26832Y-33321D01*
X26771Y-33350D01*
X26657Y-33350D01*
X26596Y-33378D01*
X26564Y-33407D01*
X26528Y-33464D01*
X26514Y-33578D01*
X26535Y-33635D01*
X26560Y-33664D01*
X26614Y-33692D01*
X26728Y-33692D01*
X26789Y-33664D01*
X26821Y-33635D01*
X26857Y-33578D01*
X26871Y-33464D01*
X26849Y-33407D01*
X26825Y-33378D01*
X26771Y-33350D01*
X21292Y-32492D02*
X21292Y-31892D01*
X21435Y-31892D01*
X21521Y-31921D01*
X21578Y-31978D01*
X21607Y-32035D01*
X21635Y-32150D01*
X21635Y-32235D01*
X21607Y-32350D01*
X21578Y-32407D01*
X21521Y-32464D01*
X21435Y-32492D01*
X21292Y-32492D01*
X21892Y-32492D02*
X21892Y-32092D01*
X21892Y-32207D02*
X21921Y-32150D01*
X21950Y-32121D01*
X22007Y-32092D01*
X22064Y-32092D01*
X22521Y-32492D02*
X22521Y-32178D01*
X22492Y-32121D01*
X22435Y-32092D01*
X22321Y-32092D01*
X22264Y-32121D01*
X22521Y-32464D02*
X22464Y-32492D01*
X22321Y-32492D01*
X22264Y-32464D01*
X22235Y-32407D01*
X22235Y-32350D01*
X22264Y-32292D01*
X22321Y-32264D01*
X22464Y-32264D01*
X22521Y-32235D01*
X22750Y-32092D02*
X22864Y-32492D01*
X22978Y-32207D01*
X23092Y-32492D01*
X23207Y-32092D01*
X23435Y-32092D02*
X23435Y-32492D01*
X23435Y-32150D02*
X23464Y-32121D01*
X23521Y-32092D01*
X23607Y-32092D01*
X23664Y-32121D01*
X23692Y-32178D01*
X23692Y-32492D01*
X23978Y-32435D02*
X24007Y-32464D01*
X23978Y-32492D01*
X23950Y-32464D01*
X23978Y-32435D01*
X23978Y-32492D01*
X23978Y-32121D02*
X24007Y-32150D01*
X23978Y-32178D01*
X23950Y-32150D01*
X23978Y-32121D01*
X23978Y-32178D01*
X24721Y-32492D02*
X24721Y-31892D01*
X24950Y-31892D01*
X25007Y-31921D01*
X25035Y-31950D01*
X25064Y-32007D01*
X25064Y-32092D01*
X25035Y-32150D01*
X25007Y-32178D01*
X24950Y-32207D01*
X24721Y-32207D01*
X25578Y-32492D02*
X25578Y-32178D01*
X25550Y-32121D01*
X25492Y-32092D01*
X25378Y-32092D01*
X25321Y-32121D01*
X25578Y-32464D02*
X25521Y-32492D01*
X25378Y-32492D01*
X25321Y-32464D01*
X25292Y-32407D01*
X25292Y-32350D01*
X25321Y-32292D01*
X25378Y-32264D01*
X25521Y-32264D01*
X25578Y-32235D01*
X26121Y-32092D02*
X26121Y-32492D01*
X25864Y-32092D02*
X25864Y-32407D01*
X25892Y-32464D01*
X25949Y-32492D01*
X26035Y-32492D01*
X26092Y-32464D01*
X26121Y-32435D01*
X26492Y-32492D02*
X26435Y-32464D01*
X26407Y-32407D01*
X26407Y-31892D01*
X27521Y-32492D02*
X27321Y-32207D01*
X27178Y-32492D02*
X27178Y-31892D01*
X27407Y-31892D01*
X27464Y-31921D01*
X27492Y-31950D01*
X27521Y-32007D01*
X27521Y-32092D01*
X27492Y-32150D01*
X27464Y-32178D01*
X27407Y-32207D01*
X27178Y-32207D01*
X28007Y-32464D02*
X27950Y-32492D01*
X27835Y-32492D01*
X27778Y-32464D01*
X27750Y-32407D01*
X27750Y-32178D01*
X27778Y-32121D01*
X27835Y-32092D01*
X27950Y-32092D01*
X28007Y-32121D01*
X28035Y-32178D01*
X28035Y-32235D01*
X27750Y-32292D01*
X28292Y-32492D02*
X28292Y-32092D01*
X28292Y-31892D02*
X28264Y-31921D01*
X28292Y-31950D01*
X28321Y-31921D01*
X28292Y-31892D01*
X28292Y-31950D01*
X28835Y-32464D02*
X28778Y-32492D01*
X28664Y-32492D01*
X28607Y-32464D01*
X28578Y-32435D01*
X28550Y-32378D01*
X28550Y-32207D01*
X28578Y-32150D01*
X28607Y-32121D01*
X28664Y-32092D01*
X28778Y-32092D01*
X28835Y-32121D01*
X29092Y-32492D02*
X29092Y-31892D01*
X29350Y-32492D02*
X29350Y-32178D01*
X29321Y-32121D01*
X29264Y-32092D01*
X29178Y-32092D01*
X29121Y-32121D01*
X29092Y-32150D01*
X21292Y-31292D02*
X21292Y-30692D01*
X21435Y-30692D01*
X21521Y-30721D01*
X21578Y-30778D01*
X21607Y-30835D01*
X21635Y-30950D01*
X21635Y-31035D01*
X21607Y-31150D01*
X21578Y-31207D01*
X21521Y-31264D01*
X21435Y-31292D01*
X21292Y-31292D01*
X22121Y-31264D02*
X22064Y-31292D01*
X21950Y-31292D01*
X21892Y-31264D01*
X21864Y-31207D01*
X21864Y-30978D01*
X21892Y-30921D01*
X21950Y-30892D01*
X22064Y-30892D01*
X22121Y-30921D01*
X22150Y-30978D01*
X22150Y-31035D01*
X21864Y-31092D01*
X22378Y-31264D02*
X22435Y-31292D01*
X22550Y-31292D01*
X22607Y-31264D01*
X22635Y-31207D01*
X22635Y-31178D01*
X22607Y-31121D01*
X22550Y-31092D01*
X22464Y-31092D01*
X22407Y-31064D01*
X22378Y-31007D01*
X22378Y-30978D01*
X22407Y-30921D01*
X22464Y-30892D01*
X22550Y-30892D01*
X22607Y-30921D01*
X22892Y-31292D02*
X22892Y-30892D01*
X22892Y-30692D02*
X22864Y-30721D01*
X22892Y-30750D01*
X22921Y-30721D01*
X22892Y-30692D01*
X22892Y-30750D01*
X23435Y-30892D02*
X23435Y-31378D01*
X23407Y-31435D01*
X23378Y-31464D01*
X23321Y-31492D01*
X23235Y-31492D01*
X23178Y-31464D01*
X23435Y-31264D02*
X23378Y-31292D01*
X23264Y-31292D01*
X23207Y-31264D01*
X23178Y-31235D01*
X23150Y-31178D01*
X23150Y-31007D01*
X23178Y-30950D01*
X23207Y-30921D01*
X23264Y-30892D01*
X23378Y-30892D01*
X23435Y-30921D01*
X23721Y-30892D02*
X23721Y-31292D01*
X23721Y-30950D02*
X23750Y-30921D01*
X23807Y-30892D01*
X23892Y-30892D01*
X23950Y-30921D01*
X23978Y-30978D01*
X23978Y-31292D01*
X24492Y-31264D02*
X24435Y-31292D01*
X24321Y-31292D01*
X24264Y-31264D01*
X24235Y-31207D01*
X24235Y-30978D01*
X24264Y-30921D01*
X24321Y-30892D01*
X24435Y-30892D01*
X24492Y-30921D01*
X24521Y-30978D01*
X24521Y-31035D01*
X24235Y-31092D01*
X25035Y-31292D02*
X25035Y-30692D01*
X25035Y-31264D02*
X24978Y-31292D01*
X24864Y-31292D01*
X24807Y-31264D01*
X24778Y-31235D01*
X24750Y-31178D01*
X24750Y-31007D01*
X24778Y-30950D01*
X24807Y-30921D01*
X24864Y-30892D01*
X24978Y-30892D01*
X25035Y-30921D01*
X25321Y-31235D02*
X25350Y-31264D01*
X25321Y-31292D01*
X25292Y-31264D01*
X25321Y-31235D01*
X25321Y-31292D01*
X25321Y-30921D02*
X25350Y-30950D01*
X25321Y-30978D01*
X25292Y-30950D01*
X25321Y-30921D01*
X25321Y-30978D01*
X26064Y-31292D02*
X26064Y-30692D01*
X26292Y-30692D01*
X26349Y-30721D01*
X26378Y-30750D01*
X26407Y-30807D01*
X26407Y-30892D01*
X26378Y-30950D01*
X26349Y-30978D01*
X26292Y-31007D01*
X26064Y-31007D01*
X26921Y-31292D02*
X26921Y-30978D01*
X26892Y-30921D01*
X26835Y-30892D01*
X26721Y-30892D01*
X26664Y-30921D01*
X26921Y-31264D02*
X26864Y-31292D01*
X26721Y-31292D01*
X26664Y-31264D01*
X26635Y-31207D01*
X26635Y-31150D01*
X26664Y-31092D01*
X26721Y-31064D01*
X26864Y-31064D01*
X26921Y-31035D01*
X27464Y-30892D02*
X27464Y-31292D01*
X27207Y-30892D02*
X27207Y-31207D01*
X27235Y-31264D01*
X27292Y-31292D01*
X27378Y-31292D01*
X27435Y-31264D01*
X27464Y-31235D01*
X27835Y-31292D02*
X27778Y-31264D01*
X27749Y-31207D01*
X27749Y-30692D01*
X28864Y-31292D02*
X28664Y-31007D01*
X28521Y-31292D02*
X28521Y-30692D01*
X28750Y-30692D01*
X28807Y-30721D01*
X28835Y-30750D01*
X28864Y-30807D01*
X28864Y-30892D01*
X28835Y-30950D01*
X28807Y-30978D01*
X28750Y-31007D01*
X28521Y-31007D01*
X29350Y-31264D02*
X29292Y-31292D01*
X29178Y-31292D01*
X29121Y-31264D01*
X29092Y-31207D01*
X29092Y-30978D01*
X29121Y-30921D01*
X29178Y-30892D01*
X29292Y-30892D01*
X29350Y-30921D01*
X29378Y-30978D01*
X29378Y-31035D01*
X29092Y-31092D01*
X29635Y-31292D02*
X29635Y-30892D01*
X29635Y-30692D02*
X29607Y-30721D01*
X29635Y-30750D01*
X29664Y-30721D01*
X29635Y-30692D01*
X29635Y-30750D01*
X30178Y-31264D02*
X30121Y-31292D01*
X30007Y-31292D01*
X29950Y-31264D01*
X29921Y-31235D01*
X29892Y-31178D01*
X29892Y-31007D01*
X29921Y-30950D01*
X29950Y-30921D01*
X30007Y-30892D01*
X30121Y-30892D01*
X30178Y-30921D01*
X30435Y-31292D02*
X30435Y-30692D01*
X30692Y-31292D02*
X30692Y-30978D01*
X30664Y-30921D01*
X30607Y-30892D01*
X30521Y-30892D01*
X30464Y-30921D01*
X30435Y-30950D01*
X21292Y-30092D02*
X21292Y-29492D01*
X21521Y-29492D01*
X21578Y-29521D01*
X21607Y-29550D01*
X21635Y-29607D01*
X21635Y-29692D01*
X21607Y-29750D01*
X21578Y-29778D01*
X21521Y-29807D01*
X21292Y-29807D01*
X21892Y-30092D02*
X21892Y-29692D01*
X21892Y-29807D02*
X21921Y-29750D01*
X21950Y-29721D01*
X22007Y-29692D01*
X22064Y-29692D01*
X22350Y-30092D02*
X22292Y-30064D01*
X22264Y-30035D01*
X22235Y-29978D01*
X22235Y-29807D01*
X22264Y-29750D01*
X22292Y-29721D01*
X22350Y-29692D01*
X22435Y-29692D01*
X22492Y-29721D01*
X22521Y-29750D01*
X22550Y-29807D01*
X22550Y-29978D01*
X22521Y-30035D01*
X22492Y-30064D01*
X22435Y-30092D01*
X22350Y-30092D01*
X22807Y-29692D02*
X22807Y-30207D01*
X22778Y-30264D01*
X22721Y-30292D01*
X22692Y-30292D01*
X22807Y-29492D02*
X22778Y-29521D01*
X22807Y-29550D01*
X22835Y-29521D01*
X22807Y-29492D01*
X22807Y-29550D01*
X23321Y-30064D02*
X23264Y-30092D01*
X23150Y-30092D01*
X23092Y-30064D01*
X23064Y-30007D01*
X23064Y-29778D01*
X23092Y-29721D01*
X23150Y-29692D01*
X23264Y-29692D01*
X23321Y-29721D01*
X23350Y-29778D01*
X23350Y-29835D01*
X23064Y-29892D01*
X23864Y-30064D02*
X23807Y-30092D01*
X23692Y-30092D01*
X23635Y-30064D01*
X23607Y-30035D01*
X23578Y-29978D01*
X23578Y-29807D01*
X23607Y-29750D01*
X23635Y-29721D01*
X23692Y-29692D01*
X23807Y-29692D01*
X23864Y-29721D01*
X24035Y-29692D02*
X24264Y-29692D01*
X24121Y-29492D02*
X24121Y-30007D01*
X24150Y-30064D01*
X24207Y-30092D01*
X24264Y-30092D01*
X24921Y-30092D02*
X24921Y-29492D01*
X25121Y-29921D01*
X25321Y-29492D01*
X25321Y-30092D01*
X25864Y-29692D02*
X25864Y-30178D01*
X25835Y-30235D01*
X25807Y-30264D01*
X25750Y-30292D01*
X25664Y-30292D01*
X25607Y-30264D01*
X25864Y-30064D02*
X25807Y-30092D01*
X25692Y-30092D01*
X25635Y-30064D01*
X25607Y-30035D01*
X25578Y-29978D01*
X25578Y-29807D01*
X25607Y-29750D01*
X25635Y-29721D01*
X25692Y-29692D01*
X25807Y-29692D01*
X25864Y-29721D01*
X26150Y-30092D02*
X26150Y-29692D01*
X26150Y-29807D02*
X26178Y-29750D01*
X26207Y-29721D01*
X26264Y-29692D01*
X26321Y-29692D01*
X26521Y-30035D02*
X26550Y-30064D01*
X26521Y-30092D01*
X26492Y-30064D01*
X26521Y-30035D01*
X26521Y-30092D01*
X26521Y-29721D02*
X26550Y-29750D01*
X26521Y-29778D01*
X26492Y-29750D01*
X26521Y-29721D01*
X26521Y-29778D01*
X27607Y-30092D02*
X27407Y-29807D01*
X27264Y-30092D02*
X27264Y-29492D01*
X27492Y-29492D01*
X27550Y-29521D01*
X27578Y-29550D01*
X27607Y-29607D01*
X27607Y-29692D01*
X27578Y-29750D01*
X27550Y-29778D01*
X27492Y-29807D01*
X27264Y-29807D01*
X27864Y-30035D02*
X27892Y-30064D01*
X27864Y-30092D01*
X27835Y-30064D01*
X27864Y-30035D01*
X27864Y-30092D01*
X28950Y-30092D02*
X28750Y-29807D01*
X28607Y-30092D02*
X28607Y-29492D01*
X28835Y-29492D01*
X28892Y-29521D01*
X28921Y-29550D01*
X28950Y-29607D01*
X28950Y-29692D01*
X28921Y-29750D01*
X28892Y-29778D01*
X28835Y-29807D01*
X28607Y-29807D01*
X29207Y-30092D02*
X29207Y-29692D01*
X29207Y-29492D02*
X29178Y-29521D01*
X29207Y-29550D01*
X29235Y-29521D01*
X29207Y-29492D01*
X29207Y-29550D01*
X29464Y-30064D02*
X29521Y-30092D01*
X29635Y-30092D01*
X29692Y-30064D01*
X29721Y-30007D01*
X29721Y-29978D01*
X29692Y-29921D01*
X29635Y-29892D01*
X29550Y-29892D01*
X29492Y-29864D01*
X29464Y-29807D01*
X29464Y-29778D01*
X29492Y-29721D01*
X29550Y-29692D01*
X29635Y-29692D01*
X29692Y-29721D01*
X29892Y-29692D02*
X30121Y-29692D01*
X29978Y-29492D02*
X29978Y-30007D01*
X30007Y-30064D01*
X30064Y-30092D01*
X30121Y-30092D01*
X30321Y-30092D02*
X30321Y-29692D01*
X30321Y-29492D02*
X30292Y-29521D01*
X30321Y-29550D01*
X30350Y-29521D01*
X30321Y-29492D01*
X30321Y-29550D01*
X30864Y-30064D02*
X30807Y-30092D01*
X30692Y-30092D01*
X30635Y-30064D01*
X30607Y-30035D01*
X30578Y-29978D01*
X30578Y-29807D01*
X30607Y-29750D01*
X30635Y-29721D01*
X30692Y-29692D01*
X30807Y-29692D01*
X30864Y-29721D01*
X31121Y-30092D02*
X31121Y-29492D01*
X31378Y-30092D02*
X31378Y-29778D01*
X31350Y-29721D01*
X31292Y-29692D01*
X31207Y-29692D01*
X31150Y-29721D01*
X31121Y-29750D01*
X21635Y-28835D02*
X21607Y-28864D01*
X21521Y-28892D01*
X21464Y-28892D01*
X21378Y-28864D01*
X21321Y-28807D01*
X21292Y-28750D01*
X21264Y-28635D01*
X21264Y-28550D01*
X21292Y-28435D01*
X21321Y-28378D01*
X21378Y-28321D01*
X21464Y-28292D01*
X21521Y-28292D01*
X21607Y-28321D01*
X21635Y-28350D01*
X22235Y-28835D02*
X22207Y-28864D01*
X22121Y-28892D01*
X22064Y-28892D01*
X21978Y-28864D01*
X21921Y-28807D01*
X21892Y-28750D01*
X21864Y-28635D01*
X21864Y-28550D01*
X21892Y-28435D01*
X21921Y-28378D01*
X21978Y-28321D01*
X22064Y-28292D01*
X22121Y-28292D01*
X22207Y-28321D01*
X22235Y-28350D01*
X22492Y-28664D02*
X22950Y-28664D01*
X23435Y-28578D02*
X23521Y-28607D01*
X23550Y-28635D01*
X23578Y-28692D01*
X23578Y-28778D01*
X23550Y-28835D01*
X23521Y-28864D01*
X23464Y-28892D01*
X23235Y-28892D01*
X23235Y-28292D01*
X23435Y-28292D01*
X23492Y-28321D01*
X23521Y-28350D01*
X23550Y-28407D01*
X23550Y-28464D01*
X23521Y-28521D01*
X23492Y-28550D01*
X23435Y-28578D01*
X23235Y-28578D01*
X23950Y-28607D02*
X23950Y-28892D01*
X23750Y-28292D02*
X23950Y-28607D01*
X24150Y-28292D01*
X24350Y-28664D02*
X24807Y-28664D01*
X25064Y-28864D02*
X25150Y-28892D01*
X25292Y-28892D01*
X25350Y-28864D01*
X25378Y-28835D01*
X25407Y-28778D01*
X25407Y-28721D01*
X25378Y-28664D01*
X25350Y-28635D01*
X25292Y-28607D01*
X25178Y-28578D01*
X25121Y-28550D01*
X25092Y-28521D01*
X25064Y-28464D01*
X25064Y-28407D01*
X25092Y-28350D01*
X25121Y-28321D01*
X25178Y-28292D01*
X25321Y-28292D01*
X25407Y-28321D01*
X25635Y-28721D02*
X25921Y-28721D01*
X25578Y-28892D02*
X25778Y-28292D01*
X25978Y-28892D01*
X26178Y-28664D02*
X26635Y-28664D01*
X26864Y-28292D02*
X27235Y-28292D01*
X27035Y-28521D01*
X27121Y-28521D01*
X27178Y-28550D01*
X27207Y-28578D01*
X27235Y-28635D01*
X27235Y-28778D01*
X27207Y-28835D01*
X27178Y-28864D01*
X27121Y-28892D01*
X26950Y-28892D01*
X26892Y-28864D01*
X26864Y-28835D01*
X27492Y-28835D02*
X27521Y-28864D01*
X27492Y-28892D01*
X27464Y-28864D01*
X27492Y-28835D01*
X27492Y-28892D01*
X27892Y-28292D02*
X27950Y-28292D01*
X28007Y-28321D01*
X28035Y-28350D01*
X28064Y-28407D01*
X28092Y-28521D01*
X28092Y-28664D01*
X28064Y-28778D01*
X28035Y-28835D01*
X28007Y-28864D01*
X27950Y-28892D01*
X27892Y-28892D01*
X27835Y-28864D01*
X27807Y-28835D01*
X27778Y-28778D01*
X27750Y-28664D01*
X27750Y-28521D01*
X27778Y-28407D01*
X27807Y-28350D01*
X27835Y-28321D01*
X27892Y-28292D01*
X20550Y-28050D02*
X20550Y-40050D01*
X20550Y-34050D02*
X62550Y-34050D01*
X20550Y-28050D02*
X62550Y-28050D01*
X20550Y-36450D02*
X62550Y-36450D01*
X53750Y-37650D02*
X53750Y-40050D01*
X20550Y-38850D02*
X62550Y-38850D01*
X20550Y-37650D02*
X62550Y-37650D01*
X27150Y-37650D02*
X27150Y-38850D01*
X4500Y18000D02*
G75*
G03X4500Y18000I-1000J0D01*
G74*
G01*
X2000Y18000D02*
X5000Y18000D01*
X3500Y19500D02*
X3500Y16500D01*
X40000Y-5750D02*
G75*
G03X40000Y-5750I-1000J0D01*
G74*
G01*
X37500Y-5750D02*
X40500Y-5750D01*
X39000Y-4250D02*
X39000Y-7250D01*
G54D11*
X30435Y2264D02*
X30464Y2292D01*
X30492Y2378D01*
X30492Y2435D01*
X30464Y2521D01*
X30407Y2578D01*
X30350Y2607D01*
X30235Y2635D01*
X30150Y2635D01*
X30035Y2607D01*
X29978Y2578D01*
X29921Y2521D01*
X29892Y2435D01*
X29892Y2378D01*
X29921Y2292D01*
X29950Y2264D01*
X30492Y1664D02*
X30207Y1864D01*
X30492Y2007D02*
X29892Y2007D01*
X29892Y1778D01*
X29921Y1721D01*
X29950Y1692D01*
X30007Y1664D01*
X30092Y1664D01*
X30150Y1692D01*
X30178Y1721D01*
X30207Y1778D01*
X30207Y2007D01*
X30264Y1407D02*
X30264Y950D01*
X29950Y692D02*
X29921Y664D01*
X29892Y607D01*
X29892Y464D01*
X29921Y407D01*
X29950Y378D01*
X30007Y350D01*
X30064Y350D01*
X30150Y378D01*
X30492Y721D01*
X30492Y350D01*
X29892Y-21D02*
X29892Y-78D01*
X29921Y-135D01*
X29950Y-164D01*
X30007Y-192D01*
X30121Y-221D01*
X30264Y-221D01*
X30378Y-192D01*
X30435Y-164D01*
X30464Y-135D01*
X30492Y-78D01*
X30492Y-21D01*
X30464Y35D01*
X30435Y64D01*
X30378Y92D01*
X30264Y121D01*
X30121Y121D01*
X30007Y92D01*
X29950Y64D01*
X29921Y35D01*
X29892Y-21D01*
X29892Y-421D02*
X29892Y-792D01*
X30121Y-592D01*
X30121Y-678D01*
X30150Y-735D01*
X30178Y-764D01*
X30235Y-792D01*
X30378Y-792D01*
X30435Y-764D01*
X30464Y-735D01*
X30492Y-678D01*
X30492Y-507D01*
X30464Y-450D01*
X30435Y-421D01*
X29950Y-1021D02*
X29921Y-1050D01*
X29892Y-1107D01*
X29892Y-1250D01*
X29921Y-1307D01*
X29950Y-1335D01*
X30007Y-1364D01*
X30064Y-1364D01*
X30150Y-1335D01*
X30492Y-992D01*
X30492Y-1364D01*
G54D12*
X32893Y6902D02*
X32474Y6902D01*
X32398Y6940D01*
X32360Y7016D01*
X32360Y7169D01*
X32398Y7245D01*
X32855Y6902D02*
X32893Y6978D01*
X32893Y7169D01*
X32855Y7245D01*
X32779Y7283D01*
X32703Y7283D01*
X32627Y7245D01*
X32589Y7169D01*
X32589Y6978D01*
X32550Y6902D01*
X32360Y6521D02*
X32893Y6521D01*
X32436Y6521D02*
X32398Y6483D01*
X32360Y6407D01*
X32360Y6292D01*
X32398Y6216D01*
X32474Y6178D01*
X32893Y6178D01*
X32893Y5454D02*
X32093Y5454D01*
X32855Y5454D02*
X32893Y5530D01*
X32893Y5683D01*
X32855Y5759D01*
X32817Y5797D01*
X32741Y5835D01*
X32512Y5835D01*
X32436Y5797D01*
X32398Y5759D01*
X32360Y5683D01*
X32360Y5530D01*
X32398Y5454D01*
X35105Y12711D02*
X35105Y12330D01*
X35333Y12788D02*
X34533Y12521D01*
X35333Y12254D01*
X35333Y11988D02*
X34800Y11988D01*
X34952Y11988D02*
X34876Y11949D01*
X34838Y11911D01*
X34800Y11835D01*
X34800Y11759D01*
X35333Y11149D02*
X34533Y11149D01*
X35295Y11149D02*
X35333Y11226D01*
X35333Y11378D01*
X35295Y11454D01*
X35257Y11492D01*
X35181Y11530D01*
X34952Y11530D01*
X34876Y11492D01*
X34838Y11454D01*
X34800Y11378D01*
X34800Y11226D01*
X34838Y11149D01*
X34800Y10426D02*
X35333Y10426D01*
X34800Y10769D02*
X35219Y10769D01*
X35295Y10730D01*
X35333Y10654D01*
X35333Y10540D01*
X35295Y10464D01*
X35257Y10426D01*
X35333Y10045D02*
X34800Y10045D01*
X34533Y10045D02*
X34571Y10083D01*
X34610Y10045D01*
X34571Y10007D01*
X34533Y10045D01*
X34610Y10045D01*
X34800Y9664D02*
X35333Y9664D01*
X34876Y9664D02*
X34838Y9626D01*
X34800Y9549D01*
X34800Y9435D01*
X34838Y9359D01*
X34914Y9321D01*
X35333Y9321D01*
X35333Y8826D02*
X35295Y8902D01*
X35257Y8940D01*
X35181Y8978D01*
X34952Y8978D01*
X34876Y8940D01*
X34838Y8902D01*
X34800Y8826D01*
X34800Y8711D01*
X34838Y8635D01*
X34876Y8597D01*
X34952Y8559D01*
X35181Y8559D01*
X35257Y8597D01*
X35295Y8635D01*
X35333Y8711D01*
X35333Y8826D01*
X35333Y7607D02*
X34533Y7607D01*
X34533Y7416D01*
X34571Y7302D01*
X34648Y7226D01*
X34724Y7188D01*
X34876Y7150D01*
X34990Y7150D01*
X35143Y7188D01*
X35219Y7226D01*
X35295Y7302D01*
X35333Y7416D01*
X35333Y7607D01*
X34800Y6464D02*
X35333Y6464D01*
X34800Y6807D02*
X35219Y6807D01*
X35295Y6769D01*
X35333Y6692D01*
X35333Y6578D01*
X35295Y6502D01*
X35257Y6464D01*
X35295Y5778D02*
X35333Y5854D01*
X35333Y6007D01*
X35295Y6083D01*
X35219Y6121D01*
X34914Y6121D01*
X34838Y6083D01*
X34800Y6007D01*
X34800Y5854D01*
X34838Y5778D01*
X34914Y5740D01*
X34990Y5740D01*
X35067Y6121D01*
X35333Y5397D02*
X34800Y5397D01*
X34876Y5397D02*
X34838Y5359D01*
X34800Y5283D01*
X34800Y5169D01*
X34838Y5092D01*
X34914Y5054D01*
X35333Y5054D01*
X34914Y5054D02*
X34838Y5016D01*
X34800Y4940D01*
X34800Y4826D01*
X34838Y4750D01*
X34914Y4711D01*
X35333Y4711D01*
X35333Y4330D02*
X34800Y4330D01*
X34533Y4330D02*
X34571Y4369D01*
X34610Y4330D01*
X34571Y4292D01*
X34533Y4330D01*
X34610Y4330D01*
X35333Y3835D02*
X35295Y3911D01*
X35219Y3950D01*
X34533Y3950D01*
X35333Y3416D02*
X35295Y3492D01*
X35219Y3530D01*
X34533Y3530D01*
X35333Y2769D02*
X34914Y2769D01*
X34838Y2807D01*
X34800Y2883D01*
X34800Y3035D01*
X34838Y3111D01*
X35295Y2769D02*
X35333Y2845D01*
X35333Y3035D01*
X35295Y3111D01*
X35219Y3150D01*
X35143Y3150D01*
X35067Y3111D01*
X35029Y3035D01*
X35029Y2845D01*
X34990Y2769D01*
X34800Y2388D02*
X35333Y2388D01*
X34876Y2388D02*
X34838Y2350D01*
X34800Y2273D01*
X34800Y2159D01*
X34838Y2083D01*
X34914Y2045D01*
X35333Y2045D01*
X35333Y1550D02*
X35295Y1626D01*
X35257Y1664D01*
X35181Y1702D01*
X34952Y1702D01*
X34876Y1664D01*
X34838Y1626D01*
X34800Y1550D01*
X34800Y1435D01*
X34838Y1359D01*
X34876Y1321D01*
X34952Y1283D01*
X35181Y1283D01*
X35257Y1321D01*
X35295Y1359D01*
X35333Y1435D01*
X35333Y1550D01*
X34800Y1016D02*
X35333Y826D01*
X34800Y635D01*
X35295Y26D02*
X35333Y102D01*
X35333Y254D01*
X35295Y330D01*
X35219Y369D01*
X34914Y369D01*
X34838Y330D01*
X34800Y254D01*
X34800Y102D01*
X34838Y26D01*
X34914Y-11D01*
X34990Y-11D01*
X35067Y369D01*
X36020Y10807D02*
X36553Y10654D01*
X36172Y10502D01*
X36553Y10349D01*
X36020Y10197D01*
X36020Y9969D02*
X36553Y9816D01*
X36172Y9664D01*
X36553Y9511D01*
X36020Y9359D01*
X36020Y9130D02*
X36553Y8978D01*
X36172Y8826D01*
X36553Y8673D01*
X36020Y8521D01*
X36477Y8216D02*
X36515Y8178D01*
X36553Y8216D01*
X36515Y8254D01*
X36477Y8216D01*
X36553Y8216D01*
X36553Y7492D02*
X36134Y7492D01*
X36058Y7530D01*
X36020Y7607D01*
X36020Y7759D01*
X36058Y7835D01*
X36515Y7492D02*
X36553Y7569D01*
X36553Y7759D01*
X36515Y7835D01*
X36439Y7873D01*
X36363Y7873D01*
X36287Y7835D01*
X36249Y7759D01*
X36249Y7569D01*
X36210Y7492D01*
X36553Y7111D02*
X36020Y7111D01*
X36172Y7111D02*
X36096Y7073D01*
X36058Y7035D01*
X36020Y6959D01*
X36020Y6883D01*
X36553Y6273D02*
X35753Y6273D01*
X36515Y6273D02*
X36553Y6349D01*
X36553Y6502D01*
X36515Y6578D01*
X36477Y6616D01*
X36401Y6654D01*
X36172Y6654D01*
X36096Y6616D01*
X36058Y6578D01*
X36020Y6502D01*
X36020Y6349D01*
X36058Y6273D01*
X36020Y5549D02*
X36553Y5549D01*
X36020Y5892D02*
X36439Y5892D01*
X36515Y5854D01*
X36553Y5778D01*
X36553Y5664D01*
X36515Y5588D01*
X36477Y5549D01*
X36553Y5169D02*
X36020Y5169D01*
X35753Y5169D02*
X35791Y5207D01*
X35830Y5169D01*
X35791Y5130D01*
X35753Y5169D01*
X35830Y5169D01*
X36020Y4788D02*
X36553Y4788D01*
X36096Y4788D02*
X36058Y4750D01*
X36020Y4673D01*
X36020Y4559D01*
X36058Y4483D01*
X36134Y4445D01*
X36553Y4445D01*
X36553Y3950D02*
X36515Y4026D01*
X36477Y4064D01*
X36401Y4102D01*
X36172Y4102D01*
X36096Y4064D01*
X36058Y4026D01*
X36020Y3950D01*
X36020Y3835D01*
X36058Y3759D01*
X36096Y3721D01*
X36172Y3683D01*
X36401Y3683D01*
X36477Y3721D01*
X36515Y3759D01*
X36553Y3835D01*
X36553Y3950D01*
X36477Y3340D02*
X36515Y3302D01*
X36553Y3340D01*
X36515Y3378D01*
X36477Y3340D01*
X36553Y3340D01*
X36515Y2616D02*
X36553Y2692D01*
X36553Y2845D01*
X36515Y2921D01*
X36477Y2959D01*
X36401Y2997D01*
X36172Y2997D01*
X36096Y2959D01*
X36058Y2921D01*
X36020Y2845D01*
X36020Y2692D01*
X36058Y2616D01*
X36515Y1930D02*
X36553Y2007D01*
X36553Y2159D01*
X36515Y2235D01*
X36477Y2273D01*
X36401Y2311D01*
X36172Y2311D01*
X36096Y2273D01*
X36058Y2235D01*
X36020Y2159D01*
X36020Y2007D01*
X36058Y1930D01*
X8654Y13811D02*
X8654Y14078D01*
X9073Y14078D02*
X8273Y14078D01*
X8273Y13697D01*
X9073Y13278D02*
X9035Y13354D01*
X8997Y13392D01*
X8921Y13430D01*
X8692Y13430D01*
X8616Y13392D01*
X8578Y13354D01*
X8540Y13278D01*
X8540Y13164D01*
X8578Y13088D01*
X8616Y13049D01*
X8692Y13011D01*
X8921Y13011D01*
X8997Y13049D01*
X9035Y13088D01*
X9073Y13164D01*
X9073Y13278D01*
X9073Y12669D02*
X8540Y12669D01*
X8692Y12669D02*
X8616Y12630D01*
X8578Y12592D01*
X8540Y12516D01*
X8540Y12440D01*
X9073Y11564D02*
X8540Y11564D01*
X8616Y11564D02*
X8578Y11526D01*
X8540Y11449D01*
X8540Y11335D01*
X8578Y11259D01*
X8654Y11221D01*
X9073Y11221D01*
X8654Y11221D02*
X8578Y11183D01*
X8540Y11107D01*
X8540Y10992D01*
X8578Y10916D01*
X8654Y10878D01*
X9073Y10878D01*
X9073Y10383D02*
X9035Y10459D01*
X8997Y10497D01*
X8921Y10535D01*
X8692Y10535D01*
X8616Y10497D01*
X8578Y10459D01*
X8540Y10383D01*
X8540Y10269D01*
X8578Y10192D01*
X8616Y10154D01*
X8692Y10116D01*
X8921Y10116D01*
X8997Y10154D01*
X9035Y10192D01*
X9073Y10269D01*
X9073Y10383D01*
X9073Y9773D02*
X8540Y9773D01*
X8692Y9773D02*
X8616Y9735D01*
X8578Y9697D01*
X8540Y9621D01*
X8540Y9545D01*
X9035Y8973D02*
X9073Y9049D01*
X9073Y9202D01*
X9035Y9278D01*
X8959Y9316D01*
X8654Y9316D01*
X8578Y9278D01*
X8540Y9202D01*
X8540Y9049D01*
X8578Y8973D01*
X8654Y8935D01*
X8730Y8935D01*
X8807Y9316D01*
X9073Y7983D02*
X8540Y7983D01*
X8273Y7983D02*
X8311Y8021D01*
X8350Y7983D01*
X8311Y7945D01*
X8273Y7983D01*
X8350Y7983D01*
X8540Y7602D02*
X9073Y7602D01*
X8616Y7602D02*
X8578Y7564D01*
X8540Y7488D01*
X8540Y7373D01*
X8578Y7297D01*
X8654Y7259D01*
X9073Y7259D01*
X8540Y6992D02*
X8540Y6688D01*
X9073Y6878D02*
X8388Y6878D01*
X8311Y6840D01*
X8273Y6764D01*
X8273Y6688D01*
X9073Y6307D02*
X9035Y6383D01*
X8997Y6421D01*
X8921Y6459D01*
X8692Y6459D01*
X8616Y6421D01*
X8578Y6383D01*
X8540Y6307D01*
X8540Y6192D01*
X8578Y6116D01*
X8616Y6078D01*
X8692Y6040D01*
X8921Y6040D01*
X8997Y6078D01*
X9035Y6116D01*
X9073Y6192D01*
X9073Y6307D01*
X9073Y5697D02*
X8540Y5697D01*
X8692Y5697D02*
X8616Y5659D01*
X8578Y5621D01*
X8540Y5545D01*
X8540Y5469D01*
X9073Y5202D02*
X8540Y5202D01*
X8616Y5202D02*
X8578Y5164D01*
X8540Y5088D01*
X8540Y4973D01*
X8578Y4897D01*
X8654Y4859D01*
X9073Y4859D01*
X8654Y4859D02*
X8578Y4821D01*
X8540Y4745D01*
X8540Y4630D01*
X8578Y4554D01*
X8654Y4516D01*
X9073Y4516D01*
X9073Y3792D02*
X8654Y3792D01*
X8578Y3830D01*
X8540Y3907D01*
X8540Y4059D01*
X8578Y4135D01*
X9035Y3792D02*
X9073Y3869D01*
X9073Y4059D01*
X9035Y4135D01*
X8959Y4173D01*
X8883Y4173D01*
X8807Y4135D01*
X8769Y4059D01*
X8769Y3869D01*
X8730Y3792D01*
X8540Y3526D02*
X8540Y3221D01*
X8273Y3411D02*
X8959Y3411D01*
X9035Y3373D01*
X9073Y3297D01*
X9073Y3221D01*
X9073Y2954D02*
X8540Y2954D01*
X8273Y2954D02*
X8311Y2992D01*
X8350Y2954D01*
X8311Y2916D01*
X8273Y2954D01*
X8350Y2954D01*
X9073Y2459D02*
X9035Y2535D01*
X8997Y2573D01*
X8921Y2611D01*
X8692Y2611D01*
X8616Y2573D01*
X8578Y2535D01*
X8540Y2459D01*
X8540Y2345D01*
X8578Y2269D01*
X8616Y2230D01*
X8692Y2192D01*
X8921Y2192D01*
X8997Y2230D01*
X9035Y2269D01*
X9073Y2345D01*
X9073Y2459D01*
X8540Y1850D02*
X9073Y1850D01*
X8616Y1850D02*
X8578Y1811D01*
X8540Y1735D01*
X8540Y1621D01*
X8578Y1545D01*
X8654Y1507D01*
X9073Y1507D01*
X8540Y592D02*
X9073Y402D01*
X8540Y211D01*
X9073Y-92D02*
X8540Y-92D01*
X8273Y-92D02*
X8311Y-54D01*
X8350Y-92D01*
X8311Y-130D01*
X8273Y-92D01*
X8350Y-92D01*
X9035Y-435D02*
X9073Y-511D01*
X9073Y-664D01*
X9035Y-740D01*
X8959Y-778D01*
X8921Y-778D01*
X8845Y-740D01*
X8807Y-664D01*
X8807Y-549D01*
X8769Y-473D01*
X8692Y-435D01*
X8654Y-435D01*
X8578Y-473D01*
X8540Y-549D01*
X8540Y-664D01*
X8578Y-740D01*
X9073Y-1121D02*
X8540Y-1121D01*
X8273Y-1121D02*
X8311Y-1083D01*
X8350Y-1121D01*
X8311Y-1159D01*
X8273Y-1121D01*
X8350Y-1121D01*
X8540Y-1388D02*
X8540Y-1692D01*
X8273Y-1502D02*
X8959Y-1502D01*
X9035Y-1540D01*
X9073Y-1616D01*
X9073Y-1692D01*
X10980Y14745D02*
X11513Y14592D01*
X11132Y14440D01*
X11513Y14288D01*
X10980Y14135D01*
X10980Y13907D02*
X11513Y13754D01*
X11132Y13602D01*
X11513Y13449D01*
X10980Y13297D01*
X10980Y13069D02*
X11513Y12916D01*
X11132Y12764D01*
X11513Y12611D01*
X10980Y12459D01*
X11437Y12154D02*
X11475Y12116D01*
X11513Y12154D01*
X11475Y12192D01*
X11437Y12154D01*
X11513Y12154D01*
X10980Y11849D02*
X11513Y11697D01*
X11132Y11545D01*
X11513Y11392D01*
X10980Y11240D01*
X11513Y10821D02*
X11475Y10897D01*
X11437Y10935D01*
X11361Y10973D01*
X11132Y10973D01*
X11056Y10935D01*
X11018Y10897D01*
X10980Y10821D01*
X10980Y10707D01*
X11018Y10630D01*
X11056Y10592D01*
X11132Y10554D01*
X11361Y10554D01*
X11437Y10592D01*
X11475Y10630D01*
X11513Y10707D01*
X11513Y10821D01*
X11513Y10211D02*
X10980Y10211D01*
X11132Y10211D02*
X11056Y10173D01*
X11018Y10135D01*
X10980Y10059D01*
X10980Y9983D01*
X11513Y9716D02*
X10713Y9716D01*
X11209Y9640D02*
X11513Y9411D01*
X10980Y9411D02*
X11285Y9716D01*
X11475Y9107D02*
X11513Y9030D01*
X11513Y8878D01*
X11475Y8802D01*
X11399Y8764D01*
X11361Y8764D01*
X11285Y8802D01*
X11247Y8878D01*
X11247Y8992D01*
X11209Y9069D01*
X11132Y9107D01*
X11094Y9107D01*
X11018Y9069D01*
X10980Y8992D01*
X10980Y8878D01*
X11018Y8802D01*
X11513Y8421D02*
X10713Y8421D01*
X11513Y8078D02*
X11094Y8078D01*
X11018Y8116D01*
X10980Y8192D01*
X10980Y8307D01*
X11018Y8383D01*
X11056Y8421D01*
X11513Y7583D02*
X11475Y7659D01*
X11437Y7697D01*
X11361Y7735D01*
X11132Y7735D01*
X11056Y7697D01*
X11018Y7659D01*
X10980Y7583D01*
X10980Y7469D01*
X11018Y7392D01*
X11056Y7354D01*
X11132Y7316D01*
X11361Y7316D01*
X11437Y7354D01*
X11475Y7392D01*
X11513Y7469D01*
X11513Y7583D01*
X10980Y6973D02*
X11780Y6973D01*
X11018Y6973D02*
X10980Y6897D01*
X10980Y6745D01*
X11018Y6669D01*
X11056Y6630D01*
X11132Y6592D01*
X11361Y6592D01*
X11437Y6630D01*
X11475Y6669D01*
X11513Y6745D01*
X11513Y6897D01*
X11475Y6973D01*
X11056Y6135D02*
X11018Y6211D01*
X10980Y6249D01*
X10904Y6288D01*
X10866Y6288D01*
X10790Y6249D01*
X10751Y6211D01*
X10713Y6135D01*
X10713Y5983D01*
X10751Y5907D01*
X10790Y5869D01*
X10866Y5830D01*
X10904Y5830D01*
X10980Y5869D01*
X11018Y5907D01*
X11056Y5983D01*
X11056Y6135D01*
X11094Y6211D01*
X11132Y6249D01*
X11209Y6288D01*
X11361Y6288D01*
X11437Y6249D01*
X11475Y6211D01*
X11513Y6135D01*
X11513Y5983D01*
X11475Y5907D01*
X11437Y5869D01*
X11361Y5830D01*
X11209Y5830D01*
X11132Y5869D01*
X11094Y5907D01*
X11056Y5983D01*
X11056Y5373D02*
X11018Y5450D01*
X10980Y5488D01*
X10904Y5526D01*
X10866Y5526D01*
X10790Y5488D01*
X10751Y5450D01*
X10713Y5373D01*
X10713Y5221D01*
X10751Y5145D01*
X10790Y5107D01*
X10866Y5069D01*
X10904Y5069D01*
X10980Y5107D01*
X11018Y5145D01*
X11056Y5221D01*
X11056Y5373D01*
X11094Y5450D01*
X11132Y5488D01*
X11209Y5526D01*
X11361Y5526D01*
X11437Y5488D01*
X11475Y5450D01*
X11513Y5373D01*
X11513Y5221D01*
X11475Y5145D01*
X11437Y5107D01*
X11361Y5069D01*
X11209Y5069D01*
X11132Y5107D01*
X11094Y5145D01*
X11056Y5221D01*
X11437Y4726D02*
X11475Y4688D01*
X11513Y4726D01*
X11475Y4764D01*
X11437Y4726D01*
X11513Y4726D01*
X11475Y4002D02*
X11513Y4078D01*
X11513Y4230D01*
X11475Y4307D01*
X11437Y4345D01*
X11361Y4383D01*
X11132Y4383D01*
X11056Y4345D01*
X11018Y4307D01*
X10980Y4230D01*
X10980Y4078D01*
X11018Y4002D01*
X11513Y3545D02*
X11475Y3621D01*
X11437Y3659D01*
X11361Y3697D01*
X11132Y3697D01*
X11056Y3659D01*
X11018Y3621D01*
X10980Y3545D01*
X10980Y3430D01*
X11018Y3354D01*
X11056Y3316D01*
X11132Y3278D01*
X11361Y3278D01*
X11437Y3316D01*
X11475Y3354D01*
X11513Y3430D01*
X11513Y3545D01*
X11513Y2935D02*
X10980Y2935D01*
X11056Y2935D02*
X11018Y2897D01*
X10980Y2821D01*
X10980Y2707D01*
X11018Y2630D01*
X11094Y2592D01*
X11513Y2592D01*
X11094Y2592D02*
X11018Y2554D01*
X10980Y2478D01*
X10980Y2364D01*
X11018Y2288D01*
X11094Y2250D01*
X11513Y2250D01*
X10675Y1297D02*
X11704Y1983D01*
X11513Y1030D02*
X10713Y1030D01*
X11018Y1030D02*
X10980Y954D01*
X10980Y802D01*
X11018Y726D01*
X11056Y688D01*
X11132Y650D01*
X11361Y650D01*
X11437Y688D01*
X11475Y726D01*
X11513Y802D01*
X11513Y954D01*
X11475Y1030D01*
X11513Y-35D02*
X11094Y-35D01*
X11018Y2D01*
X10980Y78D01*
X10980Y230D01*
X11018Y307D01*
X11475Y-35D02*
X11513Y40D01*
X11513Y230D01*
X11475Y307D01*
X11399Y345D01*
X11323Y345D01*
X11247Y307D01*
X11209Y230D01*
X11209Y40D01*
X11170Y-35D01*
X11513Y-759D02*
X10713Y-759D01*
X11475Y-759D02*
X11513Y-683D01*
X11513Y-530D01*
X11475Y-454D01*
X11437Y-416D01*
X11361Y-378D01*
X11132Y-378D01*
X11056Y-416D01*
X11018Y-454D01*
X10980Y-530D01*
X10980Y-683D01*
X11018Y-759D01*
X10980Y-1483D02*
X11628Y-1483D01*
X11704Y-1445D01*
X11742Y-1407D01*
X11780Y-1330D01*
X11780Y-1216D01*
X11742Y-1140D01*
X11475Y-1483D02*
X11513Y-1407D01*
X11513Y-1254D01*
X11475Y-1178D01*
X11437Y-1140D01*
X11361Y-1102D01*
X11132Y-1102D01*
X11056Y-1140D01*
X11018Y-1178D01*
X10980Y-1254D01*
X10980Y-1407D01*
X11018Y-1483D01*
X11475Y-2169D02*
X11513Y-2092D01*
X11513Y-1940D01*
X11475Y-1864D01*
X11399Y-1826D01*
X11094Y-1826D01*
X11018Y-1864D01*
X10980Y-1940D01*
X10980Y-2092D01*
X11018Y-2169D01*
X11094Y-2207D01*
X11170Y-2207D01*
X11247Y-1826D01*
X14258Y12707D02*
X14220Y12745D01*
X14106Y12821D01*
X14030Y12859D01*
X13915Y12897D01*
X13725Y12935D01*
X13572Y12935D01*
X13382Y12897D01*
X13268Y12859D01*
X13191Y12821D01*
X13077Y12745D01*
X13039Y12707D01*
X13915Y12059D02*
X13953Y12135D01*
X13953Y12288D01*
X13915Y12364D01*
X13877Y12402D01*
X13801Y12440D01*
X13572Y12440D01*
X13496Y12402D01*
X13458Y12364D01*
X13420Y12288D01*
X13420Y12135D01*
X13458Y12059D01*
X14258Y11792D02*
X14220Y11754D01*
X14106Y11678D01*
X14030Y11640D01*
X13915Y11602D01*
X13725Y11564D01*
X13572Y11564D01*
X13382Y11602D01*
X13268Y11640D01*
X13191Y11678D01*
X13077Y11754D01*
X13039Y11792D01*
X13230Y10611D02*
X13191Y10573D01*
X13153Y10497D01*
X13153Y10307D01*
X13191Y10230D01*
X13230Y10192D01*
X13306Y10154D01*
X13382Y10154D01*
X13496Y10192D01*
X13953Y10649D01*
X13953Y10154D01*
X13153Y9659D02*
X13153Y9583D01*
X13191Y9507D01*
X13230Y9469D01*
X13306Y9430D01*
X13458Y9392D01*
X13649Y9392D01*
X13801Y9430D01*
X13877Y9469D01*
X13915Y9507D01*
X13953Y9583D01*
X13953Y9659D01*
X13915Y9735D01*
X13877Y9773D01*
X13801Y9811D01*
X13649Y9849D01*
X13458Y9849D01*
X13306Y9811D01*
X13230Y9773D01*
X13191Y9735D01*
X13153Y9659D01*
X13953Y8630D02*
X13953Y9088D01*
X13953Y8859D02*
X13153Y8859D01*
X13268Y8935D01*
X13344Y9011D01*
X13382Y9088D01*
X13153Y8364D02*
X13153Y7869D01*
X13458Y8135D01*
X13458Y8021D01*
X13496Y7945D01*
X13534Y7907D01*
X13610Y7869D01*
X13801Y7869D01*
X13877Y7907D01*
X13915Y7945D01*
X13953Y8021D01*
X13953Y8249D01*
X13915Y8326D01*
X13877Y8364D01*
X13153Y6992D02*
X13953Y6802D01*
X13382Y6649D01*
X13953Y6497D01*
X13153Y6307D01*
X13953Y5888D02*
X13915Y5964D01*
X13877Y6002D01*
X13801Y6040D01*
X13572Y6040D01*
X13496Y6002D01*
X13458Y5964D01*
X13420Y5888D01*
X13420Y5773D01*
X13458Y5697D01*
X13496Y5659D01*
X13572Y5621D01*
X13801Y5621D01*
X13877Y5659D01*
X13915Y5697D01*
X13953Y5773D01*
X13953Y5888D01*
X13953Y5278D02*
X13420Y5278D01*
X13572Y5278D02*
X13496Y5240D01*
X13458Y5202D01*
X13420Y5126D01*
X13420Y5049D01*
X13953Y4783D02*
X13153Y4783D01*
X13649Y4707D02*
X13953Y4478D01*
X13420Y4478D02*
X13725Y4783D01*
X13915Y4173D02*
X13953Y4097D01*
X13953Y3945D01*
X13915Y3869D01*
X13839Y3830D01*
X13801Y3830D01*
X13725Y3869D01*
X13687Y3945D01*
X13687Y4059D01*
X13649Y4135D01*
X13572Y4173D01*
X13534Y4173D01*
X13458Y4135D01*
X13420Y4059D01*
X13420Y3945D01*
X13458Y3869D01*
X13953Y3488D02*
X13153Y3488D01*
X13953Y3145D02*
X13534Y3145D01*
X13458Y3183D01*
X13420Y3259D01*
X13420Y3373D01*
X13458Y3450D01*
X13496Y3488D01*
X13953Y2650D02*
X13915Y2726D01*
X13877Y2764D01*
X13801Y2802D01*
X13572Y2802D01*
X13496Y2764D01*
X13458Y2726D01*
X13420Y2650D01*
X13420Y2535D01*
X13458Y2459D01*
X13496Y2421D01*
X13572Y2383D01*
X13801Y2383D01*
X13877Y2421D01*
X13915Y2459D01*
X13953Y2535D01*
X13953Y2650D01*
X13420Y2040D02*
X14220Y2040D01*
X13458Y2040D02*
X13420Y1964D01*
X13420Y1811D01*
X13458Y1735D01*
X13496Y1697D01*
X13572Y1659D01*
X13801Y1659D01*
X13877Y1697D01*
X13915Y1735D01*
X13953Y1811D01*
X13953Y1964D01*
X13915Y2040D01*
X13496Y592D02*
X13458Y669D01*
X13420Y707D01*
X13344Y745D01*
X13306Y745D01*
X13230Y707D01*
X13191Y669D01*
X13153Y592D01*
X13153Y440D01*
X13191Y364D01*
X13230Y326D01*
X13306Y288D01*
X13344Y288D01*
X13420Y326D01*
X13458Y364D01*
X13496Y440D01*
X13496Y592D01*
X13534Y669D01*
X13572Y707D01*
X13649Y745D01*
X13801Y745D01*
X13877Y707D01*
X13915Y669D01*
X13953Y592D01*
X13953Y440D01*
X13915Y364D01*
X13877Y326D01*
X13801Y288D01*
X13649Y288D01*
X13572Y326D01*
X13534Y364D01*
X13496Y440D01*
X13496Y-169D02*
X13458Y-92D01*
X13420Y-54D01*
X13344Y-16D01*
X13306Y-16D01*
X13230Y-54D01*
X13191Y-92D01*
X13153Y-169D01*
X13153Y-321D01*
X13191Y-397D01*
X13230Y-435D01*
X13306Y-473D01*
X13344Y-473D01*
X13420Y-435D01*
X13458Y-397D01*
X13496Y-321D01*
X13496Y-169D01*
X13534Y-92D01*
X13572Y-54D01*
X13649Y-16D01*
X13801Y-16D01*
X13877Y-54D01*
X13915Y-92D01*
X13953Y-169D01*
X13953Y-321D01*
X13915Y-397D01*
X13877Y-435D01*
X13801Y-473D01*
X13649Y-473D01*
X13572Y-435D01*
X13534Y-397D01*
X13496Y-321D01*
X16393Y11792D02*
X16393Y12173D01*
X15593Y12173D01*
X16393Y11526D02*
X15860Y11526D01*
X15593Y11526D02*
X15631Y11564D01*
X15670Y11526D01*
X15631Y11488D01*
X15593Y11526D01*
X15670Y11526D01*
X16355Y10802D02*
X16393Y10878D01*
X16393Y11030D01*
X16355Y11107D01*
X16317Y11145D01*
X16241Y11183D01*
X16012Y11183D01*
X15936Y11145D01*
X15898Y11107D01*
X15860Y11030D01*
X15860Y10878D01*
X15898Y10802D01*
X16355Y10154D02*
X16393Y10230D01*
X16393Y10383D01*
X16355Y10459D01*
X16279Y10497D01*
X15974Y10497D01*
X15898Y10459D01*
X15860Y10383D01*
X15860Y10230D01*
X15898Y10154D01*
X15974Y10116D01*
X16050Y10116D01*
X16127Y10497D01*
X15860Y9773D02*
X16393Y9773D01*
X15936Y9773D02*
X15898Y9735D01*
X15860Y9659D01*
X15860Y9545D01*
X15898Y9469D01*
X15974Y9430D01*
X16393Y9430D01*
X16355Y9088D02*
X16393Y9011D01*
X16393Y8859D01*
X16355Y8783D01*
X16279Y8745D01*
X16241Y8745D01*
X16165Y8783D01*
X16127Y8859D01*
X16127Y8973D01*
X16089Y9049D01*
X16012Y9088D01*
X15974Y9088D01*
X15898Y9049D01*
X15860Y8973D01*
X15860Y8859D01*
X15898Y8783D01*
X16355Y8097D02*
X16393Y8173D01*
X16393Y8326D01*
X16355Y8402D01*
X16279Y8440D01*
X15974Y8440D01*
X15898Y8402D01*
X15860Y8326D01*
X15860Y8173D01*
X15898Y8097D01*
X15974Y8059D01*
X16050Y8059D01*
X16127Y8440D01*
X16393Y7373D02*
X15593Y7373D01*
X16355Y7373D02*
X16393Y7449D01*
X16393Y7602D01*
X16355Y7678D01*
X16317Y7716D01*
X16241Y7754D01*
X16012Y7754D01*
X15936Y7716D01*
X15898Y7678D01*
X15860Y7602D01*
X15860Y7449D01*
X15898Y7373D01*
X15860Y6040D02*
X16393Y6040D01*
X15860Y6383D02*
X16279Y6383D01*
X16355Y6345D01*
X16393Y6269D01*
X16393Y6154D01*
X16355Y6078D01*
X16317Y6040D01*
X15860Y5659D02*
X16393Y5659D01*
X15936Y5659D02*
X15898Y5621D01*
X15860Y5545D01*
X15860Y5430D01*
X15898Y5354D01*
X15974Y5316D01*
X16393Y5316D01*
X16393Y4592D02*
X15593Y4592D01*
X16355Y4592D02*
X16393Y4669D01*
X16393Y4821D01*
X16355Y4897D01*
X16317Y4935D01*
X16241Y4973D01*
X16012Y4973D01*
X15936Y4935D01*
X15898Y4897D01*
X15860Y4821D01*
X15860Y4669D01*
X15898Y4592D01*
X16355Y3907D02*
X16393Y3983D01*
X16393Y4135D01*
X16355Y4211D01*
X16279Y4250D01*
X15974Y4250D01*
X15898Y4211D01*
X15860Y4135D01*
X15860Y3983D01*
X15898Y3907D01*
X15974Y3869D01*
X16050Y3869D01*
X16127Y4250D01*
X16393Y3526D02*
X15860Y3526D01*
X16012Y3526D02*
X15936Y3488D01*
X15898Y3450D01*
X15860Y3373D01*
X15860Y3297D01*
X15860Y2535D02*
X15860Y2230D01*
X15593Y2421D02*
X16279Y2421D01*
X16355Y2383D01*
X16393Y2307D01*
X16393Y2230D01*
X16393Y1964D02*
X15593Y1964D01*
X16393Y1621D02*
X15974Y1621D01*
X15898Y1659D01*
X15860Y1735D01*
X15860Y1850D01*
X15898Y1926D01*
X15936Y1964D01*
X16355Y935D02*
X16393Y1011D01*
X16393Y1164D01*
X16355Y1240D01*
X16279Y1278D01*
X15974Y1278D01*
X15898Y1240D01*
X15860Y1164D01*
X15860Y1011D01*
X15898Y935D01*
X15974Y897D01*
X16050Y897D01*
X16127Y1278D01*
X17537Y11202D02*
X17575Y11240D01*
X17613Y11354D01*
X17613Y11430D01*
X17575Y11545D01*
X17499Y11621D01*
X17423Y11659D01*
X17270Y11697D01*
X17156Y11697D01*
X17004Y11659D01*
X16928Y11621D01*
X16851Y11545D01*
X16813Y11430D01*
X16813Y11354D01*
X16851Y11240D01*
X16890Y11202D01*
X17613Y10859D02*
X17080Y10859D01*
X17232Y10859D02*
X17156Y10821D01*
X17118Y10783D01*
X17080Y10707D01*
X17080Y10630D01*
X17575Y10059D02*
X17613Y10135D01*
X17613Y10288D01*
X17575Y10364D01*
X17499Y10402D01*
X17194Y10402D01*
X17118Y10364D01*
X17080Y10288D01*
X17080Y10135D01*
X17118Y10059D01*
X17194Y10021D01*
X17270Y10021D01*
X17347Y10402D01*
X17613Y9335D02*
X17194Y9335D01*
X17118Y9373D01*
X17080Y9449D01*
X17080Y9602D01*
X17118Y9678D01*
X17575Y9335D02*
X17613Y9411D01*
X17613Y9602D01*
X17575Y9678D01*
X17499Y9716D01*
X17423Y9716D01*
X17347Y9678D01*
X17309Y9602D01*
X17309Y9411D01*
X17270Y9335D01*
X17080Y9069D02*
X17080Y8764D01*
X16813Y8954D02*
X17499Y8954D01*
X17575Y8916D01*
X17613Y8840D01*
X17613Y8764D01*
X17613Y8497D02*
X17080Y8497D01*
X16813Y8497D02*
X16851Y8535D01*
X16890Y8497D01*
X16851Y8459D01*
X16813Y8497D01*
X16890Y8497D01*
X17080Y8192D02*
X17613Y8002D01*
X17080Y7811D01*
X17575Y7202D02*
X17613Y7278D01*
X17613Y7430D01*
X17575Y7507D01*
X17499Y7545D01*
X17194Y7545D01*
X17118Y7507D01*
X17080Y7430D01*
X17080Y7278D01*
X17118Y7202D01*
X17194Y7164D01*
X17270Y7164D01*
X17347Y7545D01*
X17537Y5754D02*
X17575Y5792D01*
X17613Y5907D01*
X17613Y5983D01*
X17575Y6097D01*
X17499Y6173D01*
X17423Y6211D01*
X17270Y6249D01*
X17156Y6249D01*
X17004Y6211D01*
X16928Y6173D01*
X16851Y6097D01*
X16813Y5983D01*
X16813Y5907D01*
X16851Y5792D01*
X16890Y5754D01*
X17613Y5297D02*
X17575Y5373D01*
X17537Y5411D01*
X17461Y5449D01*
X17232Y5449D01*
X17156Y5411D01*
X17118Y5373D01*
X17080Y5297D01*
X17080Y5183D01*
X17118Y5107D01*
X17156Y5069D01*
X17232Y5030D01*
X17461Y5030D01*
X17537Y5069D01*
X17575Y5107D01*
X17613Y5183D01*
X17613Y5297D01*
X17613Y4688D02*
X17080Y4688D01*
X17156Y4688D02*
X17118Y4650D01*
X17080Y4573D01*
X17080Y4459D01*
X17118Y4383D01*
X17194Y4345D01*
X17613Y4345D01*
X17194Y4345D02*
X17118Y4307D01*
X17080Y4230D01*
X17080Y4116D01*
X17118Y4040D01*
X17194Y4002D01*
X17613Y4002D01*
X17613Y3621D02*
X17080Y3621D01*
X17156Y3621D02*
X17118Y3583D01*
X17080Y3507D01*
X17080Y3392D01*
X17118Y3316D01*
X17194Y3278D01*
X17613Y3278D01*
X17194Y3278D02*
X17118Y3240D01*
X17080Y3164D01*
X17080Y3050D01*
X17118Y2973D01*
X17194Y2935D01*
X17613Y2935D01*
X17613Y2440D02*
X17575Y2516D01*
X17537Y2554D01*
X17461Y2592D01*
X17232Y2592D01*
X17156Y2554D01*
X17118Y2516D01*
X17080Y2440D01*
X17080Y2326D01*
X17118Y2250D01*
X17156Y2211D01*
X17232Y2173D01*
X17461Y2173D01*
X17537Y2211D01*
X17575Y2250D01*
X17613Y2326D01*
X17613Y2440D01*
X17080Y1830D02*
X17613Y1830D01*
X17156Y1830D02*
X17118Y1792D01*
X17080Y1716D01*
X17080Y1602D01*
X17118Y1526D01*
X17194Y1488D01*
X17613Y1488D01*
X17575Y1145D02*
X17613Y1069D01*
X17613Y916D01*
X17575Y840D01*
X17499Y802D01*
X17461Y802D01*
X17385Y840D01*
X17347Y916D01*
X17347Y1030D01*
X17309Y1107D01*
X17232Y1145D01*
X17194Y1145D01*
X17118Y1107D01*
X17080Y1030D01*
X17080Y916D01*
X17118Y840D01*
X18757Y10307D02*
X18795Y10345D01*
X18833Y10459D01*
X18833Y10535D01*
X18795Y10650D01*
X18719Y10726D01*
X18643Y10764D01*
X18490Y10802D01*
X18376Y10802D01*
X18224Y10764D01*
X18148Y10726D01*
X18071Y10650D01*
X18033Y10535D01*
X18033Y10459D01*
X18071Y10345D01*
X18110Y10307D01*
X18757Y9507D02*
X18795Y9545D01*
X18833Y9659D01*
X18833Y9735D01*
X18795Y9850D01*
X18719Y9926D01*
X18643Y9964D01*
X18490Y10002D01*
X18376Y10002D01*
X18224Y9964D01*
X18148Y9926D01*
X18071Y9850D01*
X18033Y9735D01*
X18033Y9659D01*
X18071Y9545D01*
X18110Y9507D01*
X18529Y9164D02*
X18529Y8554D01*
X18414Y7907D02*
X18452Y7792D01*
X18490Y7754D01*
X18567Y7716D01*
X18681Y7716D01*
X18757Y7754D01*
X18795Y7792D01*
X18833Y7869D01*
X18833Y8173D01*
X18033Y8173D01*
X18033Y7907D01*
X18071Y7830D01*
X18110Y7792D01*
X18186Y7754D01*
X18262Y7754D01*
X18338Y7792D01*
X18376Y7830D01*
X18414Y7907D01*
X18414Y8173D01*
X18452Y7221D02*
X18833Y7221D01*
X18033Y7488D02*
X18452Y7221D01*
X18033Y6954D01*
X18529Y6688D02*
X18529Y6078D01*
X18795Y5735D02*
X18833Y5621D01*
X18833Y5430D01*
X18795Y5354D01*
X18757Y5316D01*
X18681Y5278D01*
X18605Y5278D01*
X18529Y5316D01*
X18490Y5354D01*
X18452Y5430D01*
X18414Y5583D01*
X18376Y5659D01*
X18338Y5697D01*
X18262Y5735D01*
X18186Y5735D01*
X18110Y5697D01*
X18071Y5659D01*
X18033Y5583D01*
X18033Y5392D01*
X18071Y5278D01*
X18605Y4973D02*
X18605Y4592D01*
X18833Y5049D02*
X18033Y4783D01*
X18833Y4516D01*
X18529Y4249D02*
X18529Y3640D01*
X18033Y3335D02*
X18033Y2840D01*
X18338Y3107D01*
X18338Y2992D01*
X18376Y2916D01*
X18414Y2878D01*
X18490Y2840D01*
X18681Y2840D01*
X18757Y2878D01*
X18795Y2916D01*
X18833Y2992D01*
X18833Y3221D01*
X18795Y3297D01*
X18757Y3335D01*
X18757Y2497D02*
X18795Y2459D01*
X18833Y2497D01*
X18795Y2535D01*
X18757Y2497D01*
X18833Y2497D01*
X18033Y1964D02*
X18033Y1888D01*
X18071Y1811D01*
X18110Y1773D01*
X18186Y1735D01*
X18338Y1697D01*
X18529Y1697D01*
X18681Y1735D01*
X18757Y1773D01*
X18795Y1811D01*
X18833Y1888D01*
X18833Y1964D01*
X18795Y2040D01*
X18757Y2078D01*
X18681Y2116D01*
X18529Y2154D01*
X18338Y2154D01*
X18186Y2116D01*
X18110Y2078D01*
X18071Y2040D01*
X18033Y1964D01*
X21273Y11849D02*
X20473Y11849D01*
X20473Y11545D01*
X20511Y11469D01*
X20550Y11430D01*
X20626Y11392D01*
X20740Y11392D01*
X20816Y11430D01*
X20854Y11469D01*
X20892Y11545D01*
X20892Y11849D01*
X21273Y10935D02*
X21235Y11011D01*
X21197Y11049D01*
X21121Y11088D01*
X20892Y11088D01*
X20816Y11049D01*
X20778Y11011D01*
X20740Y10935D01*
X20740Y10821D01*
X20778Y10745D01*
X20816Y10707D01*
X20892Y10669D01*
X21121Y10669D01*
X21197Y10707D01*
X21235Y10745D01*
X21273Y10821D01*
X21273Y10935D01*
X21273Y10326D02*
X20740Y10326D01*
X20892Y10326D02*
X20816Y10288D01*
X20778Y10249D01*
X20740Y10173D01*
X20740Y10097D01*
X20740Y9945D02*
X20740Y9640D01*
X20473Y9830D02*
X21159Y9830D01*
X21235Y9792D01*
X21273Y9716D01*
X21273Y9640D01*
X21273Y9373D02*
X20740Y9373D01*
X20473Y9373D02*
X20511Y9411D01*
X20550Y9373D01*
X20511Y9335D01*
X20473Y9373D01*
X20550Y9373D01*
X21273Y8878D02*
X21235Y8954D01*
X21197Y8992D01*
X21121Y9030D01*
X20892Y9030D01*
X20816Y8992D01*
X20778Y8954D01*
X20740Y8878D01*
X20740Y8764D01*
X20778Y8688D01*
X20816Y8649D01*
X20892Y8611D01*
X21121Y8611D01*
X21197Y8649D01*
X21235Y8688D01*
X21273Y8764D01*
X21273Y8878D01*
X20740Y8269D02*
X21273Y8269D01*
X20816Y8269D02*
X20778Y8230D01*
X20740Y8154D01*
X20740Y8040D01*
X20778Y7964D01*
X20854Y7926D01*
X21273Y7926D01*
X21235Y7583D02*
X21273Y7507D01*
X21273Y7354D01*
X21235Y7278D01*
X21159Y7240D01*
X21121Y7240D01*
X21045Y7278D01*
X21007Y7354D01*
X21007Y7469D01*
X20969Y7545D01*
X20892Y7583D01*
X20854Y7583D01*
X20778Y7545D01*
X20740Y7469D01*
X20740Y7354D01*
X20778Y7278D01*
X21578Y6059D02*
X21540Y6097D01*
X21426Y6173D01*
X21350Y6211D01*
X21235Y6250D01*
X21045Y6288D01*
X20892Y6288D01*
X20702Y6250D01*
X20588Y6211D01*
X20511Y6173D01*
X20397Y6097D01*
X20359Y6059D01*
X21235Y5411D02*
X21273Y5488D01*
X21273Y5640D01*
X21235Y5716D01*
X21197Y5754D01*
X21121Y5792D01*
X20892Y5792D01*
X20816Y5754D01*
X20778Y5716D01*
X20740Y5640D01*
X20740Y5488D01*
X20778Y5411D01*
X21578Y5145D02*
X21540Y5107D01*
X21426Y5030D01*
X21350Y4992D01*
X21235Y4954D01*
X21045Y4916D01*
X20892Y4916D01*
X20702Y4954D01*
X20588Y4992D01*
X20511Y5030D01*
X20397Y5107D01*
X20359Y5145D01*
X20550Y3964D02*
X20511Y3926D01*
X20473Y3850D01*
X20473Y3659D01*
X20511Y3583D01*
X20550Y3545D01*
X20626Y3507D01*
X20702Y3507D01*
X20816Y3545D01*
X21273Y4002D01*
X21273Y3507D01*
X20473Y3011D02*
X20473Y2935D01*
X20511Y2859D01*
X20550Y2821D01*
X20626Y2783D01*
X20778Y2745D01*
X20969Y2745D01*
X21121Y2783D01*
X21197Y2821D01*
X21235Y2859D01*
X21273Y2935D01*
X21273Y3011D01*
X21235Y3088D01*
X21197Y3126D01*
X21121Y3164D01*
X20969Y3202D01*
X20778Y3202D01*
X20626Y3164D01*
X20550Y3126D01*
X20511Y3088D01*
X20473Y3011D01*
X21273Y1983D02*
X21273Y2440D01*
X21273Y2211D02*
X20473Y2211D01*
X20588Y2288D01*
X20664Y2364D01*
X20702Y2440D01*
X21273Y1221D02*
X21273Y1678D01*
X21273Y1450D02*
X20473Y1450D01*
X20588Y1526D01*
X20664Y1602D01*
X20702Y1678D01*
X22493Y13221D02*
X22493Y13602D01*
X21693Y13602D01*
X22493Y12840D02*
X22455Y12916D01*
X22417Y12954D01*
X22341Y12992D01*
X22112Y12992D01*
X22036Y12954D01*
X21998Y12916D01*
X21960Y12840D01*
X21960Y12726D01*
X21998Y12649D01*
X22036Y12611D01*
X22112Y12573D01*
X22341Y12573D01*
X22417Y12611D01*
X22455Y12649D01*
X22493Y12726D01*
X22493Y12840D01*
X21960Y11888D02*
X22608Y11888D01*
X22684Y11926D01*
X22722Y11964D01*
X22760Y12040D01*
X22760Y12154D01*
X22722Y12230D01*
X22455Y11888D02*
X22493Y11964D01*
X22493Y12116D01*
X22455Y12192D01*
X22417Y12230D01*
X22341Y12269D01*
X22112Y12269D01*
X22036Y12230D01*
X21998Y12192D01*
X21960Y12116D01*
X21960Y11964D01*
X21998Y11888D01*
X22493Y11392D02*
X22455Y11469D01*
X22417Y11507D01*
X22341Y11545D01*
X22112Y11545D01*
X22036Y11507D01*
X21998Y11469D01*
X21960Y11392D01*
X21960Y11278D01*
X21998Y11202D01*
X22036Y11164D01*
X22112Y11126D01*
X22341Y11126D01*
X22417Y11164D01*
X22455Y11202D01*
X22493Y11278D01*
X22493Y11392D01*
X22455Y10821D02*
X22493Y10745D01*
X22493Y10592D01*
X22455Y10516D01*
X22379Y10478D01*
X22341Y10478D01*
X22265Y10516D01*
X22227Y10592D01*
X22227Y10707D01*
X22189Y10783D01*
X22112Y10821D01*
X22074Y10821D01*
X21998Y10783D01*
X21960Y10707D01*
X21960Y10592D01*
X21998Y10516D01*
X22074Y9526D02*
X22074Y9259D01*
X22493Y9145D02*
X22493Y9526D01*
X21693Y9526D01*
X21693Y9145D01*
X22493Y8688D02*
X22455Y8764D01*
X22379Y8802D01*
X21693Y8802D01*
X22455Y8078D02*
X22493Y8154D01*
X22493Y8307D01*
X22455Y8383D01*
X22379Y8421D01*
X22074Y8421D01*
X21998Y8383D01*
X21960Y8307D01*
X21960Y8154D01*
X21998Y8078D01*
X22074Y8040D01*
X22150Y8040D01*
X22227Y8421D01*
X22455Y7354D02*
X22493Y7430D01*
X22493Y7583D01*
X22455Y7659D01*
X22417Y7697D01*
X22341Y7735D01*
X22112Y7735D01*
X22036Y7697D01*
X21998Y7659D01*
X21960Y7583D01*
X21960Y7430D01*
X21998Y7354D01*
X21960Y7126D02*
X21960Y6821D01*
X21693Y7011D02*
X22379Y7011D01*
X22455Y6973D01*
X22493Y6897D01*
X22493Y6821D01*
X22493Y6554D02*
X21960Y6554D01*
X22112Y6554D02*
X22036Y6516D01*
X21998Y6478D01*
X21960Y6402D01*
X21960Y6326D01*
X22493Y5945D02*
X22455Y6021D01*
X22417Y6059D01*
X22341Y6097D01*
X22112Y6097D01*
X22036Y6059D01*
X21998Y6021D01*
X21960Y5945D01*
X21960Y5830D01*
X21998Y5754D01*
X22036Y5716D01*
X22112Y5678D01*
X22341Y5678D01*
X22417Y5716D01*
X22455Y5754D01*
X22493Y5830D01*
X22493Y5945D01*
X22493Y5335D02*
X21960Y5335D01*
X22036Y5335D02*
X21998Y5297D01*
X21960Y5221D01*
X21960Y5107D01*
X21998Y5030D01*
X22074Y4992D01*
X22493Y4992D01*
X22074Y4992D02*
X21998Y4954D01*
X21960Y4878D01*
X21960Y4764D01*
X21998Y4688D01*
X22074Y4650D01*
X22493Y4650D01*
X22455Y3964D02*
X22493Y4040D01*
X22493Y4192D01*
X22455Y4269D01*
X22379Y4307D01*
X22074Y4307D01*
X21998Y4269D01*
X21960Y4192D01*
X21960Y4040D01*
X21998Y3964D01*
X22074Y3926D01*
X22150Y3926D01*
X22227Y4307D01*
X22455Y3240D02*
X22493Y3316D01*
X22493Y3469D01*
X22455Y3545D01*
X22417Y3583D01*
X22341Y3621D01*
X22112Y3621D01*
X22036Y3583D01*
X21998Y3545D01*
X21960Y3469D01*
X21960Y3316D01*
X21998Y3240D01*
X22493Y2897D02*
X21693Y2897D01*
X22493Y2554D02*
X22074Y2554D01*
X21998Y2592D01*
X21960Y2669D01*
X21960Y2783D01*
X21998Y2859D01*
X22036Y2897D01*
X22493Y1830D02*
X22074Y1830D01*
X21998Y1869D01*
X21960Y1945D01*
X21960Y2097D01*
X21998Y2173D01*
X22455Y1830D02*
X22493Y1907D01*
X22493Y2097D01*
X22455Y2173D01*
X22379Y2211D01*
X22303Y2211D01*
X22227Y2173D01*
X22189Y2097D01*
X22189Y1907D01*
X22150Y1830D01*
X21960Y1450D02*
X22493Y1450D01*
X22036Y1450D02*
X21998Y1411D01*
X21960Y1335D01*
X21960Y1221D01*
X21998Y1145D01*
X22074Y1107D01*
X22493Y1107D01*
X22493Y726D02*
X21960Y726D01*
X21693Y726D02*
X21731Y764D01*
X21770Y726D01*
X21731Y688D01*
X21693Y726D01*
X21770Y726D01*
X22455Y2D02*
X22493Y78D01*
X22493Y230D01*
X22455Y307D01*
X22417Y345D01*
X22341Y383D01*
X22112Y383D01*
X22036Y345D01*
X21998Y307D01*
X21960Y230D01*
X21960Y78D01*
X21998Y2D01*
X22493Y-683D02*
X22074Y-683D01*
X21998Y-645D01*
X21960Y-569D01*
X21960Y-416D01*
X21998Y-340D01*
X22455Y-683D02*
X22493Y-607D01*
X22493Y-416D01*
X22455Y-340D01*
X22379Y-302D01*
X22303Y-302D01*
X22227Y-340D01*
X22189Y-416D01*
X22189Y-607D01*
X22150Y-683D01*
X22493Y-1178D02*
X22455Y-1102D01*
X22379Y-1064D01*
X21693Y-1064D01*
X4357Y13321D02*
X4357Y12464D01*
X5857Y12892D02*
X4357Y12892D01*
X5857Y11964D02*
X4357Y11964D01*
X5857Y11321D02*
X5071Y11321D01*
X4928Y11392D01*
X4857Y11535D01*
X4857Y11749D01*
X4928Y11892D01*
X5000Y11964D01*
X5857Y10392D02*
X5785Y10535D01*
X5714Y10607D01*
X5571Y10678D01*
X5142Y10678D01*
X5000Y10607D01*
X4928Y10535D01*
X4857Y10392D01*
X4857Y10178D01*
X4928Y10035D01*
X5000Y9964D01*
X5142Y9892D01*
X5571Y9892D01*
X5714Y9964D01*
X5785Y10035D01*
X5857Y10178D01*
X5857Y10392D01*
X4857Y9464D02*
X4857Y8892D01*
X4357Y9249D02*
X5642Y9249D01*
X5785Y9178D01*
X5857Y9035D01*
X5857Y8892D01*
X5785Y7749D02*
X5857Y7892D01*
X5857Y8178D01*
X5785Y8321D01*
X5714Y8392D01*
X5571Y8464D01*
X5142Y8464D01*
X5000Y8392D01*
X4928Y8321D01*
X4857Y8178D01*
X4857Y7892D01*
X4928Y7749D01*
X5857Y6892D02*
X5785Y7035D01*
X5714Y7107D01*
X5571Y7178D01*
X5142Y7178D01*
X5000Y7107D01*
X4928Y7035D01*
X4857Y6892D01*
X4857Y6678D01*
X4928Y6535D01*
X5000Y6464D01*
X5142Y6392D01*
X5571Y6392D01*
X5714Y6464D01*
X5785Y6535D01*
X5857Y6678D01*
X5857Y6892D01*
X4857Y5749D02*
X5857Y5749D01*
X5000Y5749D02*
X4928Y5678D01*
X4857Y5535D01*
X4857Y5321D01*
X4928Y5178D01*
X5071Y5107D01*
X5857Y5107D01*
X4357Y2964D02*
X4357Y2821D01*
X4428Y2678D01*
X4500Y2607D01*
X4642Y2535D01*
X4928Y2464D01*
X5285Y2464D01*
X5571Y2535D01*
X5714Y2607D01*
X5785Y2678D01*
X5857Y2821D01*
X5857Y2964D01*
X5785Y3107D01*
X5714Y3178D01*
X5571Y3249D01*
X5285Y3321D01*
X4928Y3321D01*
X4642Y3249D01*
X4500Y3178D01*
X4428Y3107D01*
X4357Y2964D01*
X5857Y1964D02*
X4857Y1178D01*
X4857Y1964D02*
X5857Y1178D01*
X4857Y-35D02*
X5857Y-35D01*
X4285Y321D02*
X5357Y678D01*
X5357Y-250D01*
X2083Y14983D02*
X2083Y14650D01*
X2283Y15050D02*
X1583Y14816D01*
X2283Y14583D01*
X2216Y13416D02*
X2250Y13450D01*
X2283Y13550D01*
X2283Y13616D01*
X2250Y13716D01*
X2183Y13783D01*
X2116Y13816D01*
X1983Y13850D01*
X1883Y13850D01*
X1750Y13816D01*
X1683Y13783D01*
X1616Y13716D01*
X1583Y13616D01*
X1583Y13550D01*
X1616Y13450D01*
X1650Y13416D01*
X2283Y13016D02*
X2250Y13083D01*
X2216Y13116D01*
X2150Y13150D01*
X1950Y13150D01*
X1883Y13116D01*
X1850Y13083D01*
X1816Y13016D01*
X1816Y12916D01*
X1850Y12850D01*
X1883Y12816D01*
X1950Y12783D01*
X2150Y12783D01*
X2216Y12816D01*
X2250Y12850D01*
X2283Y12916D01*
X2283Y13016D01*
X2016Y12483D02*
X2016Y11950D01*
X1816Y11616D02*
X2516Y11616D01*
X1850Y11616D02*
X1816Y11550D01*
X1816Y11416D01*
X1850Y11350D01*
X1883Y11316D01*
X1950Y11283D01*
X2150Y11283D01*
X2216Y11316D01*
X2250Y11350D01*
X2283Y11416D01*
X2283Y11550D01*
X2250Y11616D01*
X2283Y10983D02*
X1816Y10983D01*
X1950Y10983D02*
X1883Y10950D01*
X1850Y10916D01*
X1816Y10850D01*
X1816Y10783D01*
X2283Y10450D02*
X2250Y10516D01*
X2216Y10550D01*
X2150Y10583D01*
X1950Y10583D01*
X1883Y10550D01*
X1850Y10516D01*
X1816Y10450D01*
X1816Y10350D01*
X1850Y10283D01*
X1883Y10250D01*
X1950Y10216D01*
X2150Y10216D01*
X2216Y10250D01*
X2250Y10283D01*
X2283Y10350D01*
X2283Y10450D01*
X2283Y9616D02*
X1583Y9616D01*
X2250Y9616D02*
X2283Y9683D01*
X2283Y9816D01*
X2250Y9883D01*
X2216Y9916D01*
X2150Y9950D01*
X1950Y9950D01*
X1883Y9916D01*
X1850Y9883D01*
X1816Y9816D01*
X1816Y9683D01*
X1850Y9616D01*
X1816Y8983D02*
X2283Y8983D01*
X1816Y9283D02*
X2183Y9283D01*
X2250Y9250D01*
X2283Y9183D01*
X2283Y9083D01*
X2250Y9016D01*
X2216Y8983D01*
X2250Y8350D02*
X2283Y8416D01*
X2283Y8550D01*
X2250Y8616D01*
X2216Y8650D01*
X2150Y8683D01*
X1950Y8683D01*
X1883Y8650D01*
X1850Y8616D01*
X1816Y8550D01*
X1816Y8416D01*
X1850Y8350D01*
X1816Y8150D02*
X1816Y7883D01*
X1583Y8050D02*
X2183Y8050D01*
X2250Y8016D01*
X2283Y7950D01*
X2283Y7883D01*
X2283Y7650D02*
X1816Y7650D01*
X1583Y7650D02*
X1616Y7683D01*
X1650Y7650D01*
X1616Y7616D01*
X1583Y7650D01*
X1650Y7650D01*
X2283Y7216D02*
X2250Y7283D01*
X2216Y7316D01*
X2150Y7349D01*
X1950Y7349D01*
X1883Y7316D01*
X1850Y7283D01*
X1816Y7216D01*
X1816Y7116D01*
X1850Y7049D01*
X1883Y7016D01*
X1950Y6983D01*
X2150Y6983D01*
X2216Y7016D01*
X2250Y7049D01*
X2283Y7116D01*
X2283Y7216D01*
X1816Y6683D02*
X2283Y6683D01*
X1883Y6683D02*
X1850Y6649D01*
X1816Y6583D01*
X1816Y6483D01*
X1850Y6416D01*
X1916Y6383D01*
X2283Y6383D01*
X2283Y5416D02*
X2250Y5483D01*
X2216Y5516D01*
X2150Y5549D01*
X1950Y5549D01*
X1883Y5516D01*
X1850Y5483D01*
X1816Y5416D01*
X1816Y5316D01*
X1850Y5249D01*
X1883Y5216D01*
X1950Y5183D01*
X2150Y5183D01*
X2216Y5216D01*
X2250Y5249D01*
X2283Y5316D01*
X2283Y5416D01*
X1816Y4983D02*
X1816Y4716D01*
X2283Y4883D02*
X1683Y4883D01*
X1616Y4849D01*
X1583Y4783D01*
X1583Y4716D01*
X1583Y4016D02*
X2283Y3849D01*
X1783Y3716D01*
X2283Y3583D01*
X1583Y3416D01*
X2283Y3049D02*
X2250Y3116D01*
X2216Y3149D01*
X2150Y3183D01*
X1950Y3183D01*
X1883Y3149D01*
X1850Y3116D01*
X1816Y3049D01*
X1816Y2949D01*
X1850Y2883D01*
X1883Y2849D01*
X1950Y2816D01*
X2150Y2816D01*
X2216Y2849D01*
X2250Y2883D01*
X2283Y2949D01*
X2283Y3049D01*
X2283Y2516D02*
X1816Y2516D01*
X1950Y2516D02*
X1883Y2483D01*
X1850Y2449D01*
X1816Y2383D01*
X1816Y2316D01*
X2283Y2083D02*
X1583Y2083D01*
X2016Y2016D02*
X2283Y1816D01*
X1816Y1816D02*
X2083Y2083D01*
X2250Y1549D02*
X2283Y1483D01*
X2283Y1349D01*
X2250Y1283D01*
X2183Y1249D01*
X2150Y1249D01*
X2083Y1283D01*
X2050Y1349D01*
X2050Y1449D01*
X2016Y1516D01*
X1950Y1549D01*
X1916Y1549D01*
X1850Y1516D01*
X1816Y1449D01*
X1816Y1349D01*
X1850Y1283D01*
X2283Y949D02*
X1583Y949D01*
X2283Y649D02*
X1916Y649D01*
X1850Y683D01*
X1816Y749D01*
X1816Y849D01*
X1850Y916D01*
X1883Y949D01*
X2283Y216D02*
X2250Y283D01*
X2216Y316D01*
X2150Y349D01*
X1950Y349D01*
X1883Y316D01*
X1850Y283D01*
X1816Y216D01*
X1816Y116D01*
X1850Y49D01*
X1883Y16D01*
X1950Y-16D01*
X2150Y-16D01*
X2216Y16D01*
X2250Y49D01*
X2283Y116D01*
X2283Y216D01*
X1816Y-316D02*
X2516Y-316D01*
X1850Y-316D02*
X1816Y-383D01*
X1816Y-516D01*
X1850Y-583D01*
X1883Y-616D01*
X1950Y-650D01*
X2150Y-650D01*
X2216Y-616D01*
X2250Y-583D01*
X2283Y-516D01*
X2283Y-383D01*
X2250Y-316D01*
X1883Y-1050D02*
X1850Y-983D01*
X1816Y-950D01*
X1750Y-916D01*
X1716Y-916D01*
X1650Y-950D01*
X1616Y-983D01*
X1583Y-1050D01*
X1583Y-1183D01*
X1616Y-1250D01*
X1650Y-1283D01*
X1716Y-1316D01*
X1750Y-1316D01*
X1816Y-1283D01*
X1850Y-1250D01*
X1883Y-1183D01*
X1883Y-1050D01*
X1916Y-983D01*
X1950Y-950D01*
X2016Y-916D01*
X2150Y-916D01*
X2216Y-950D01*
X2250Y-983D01*
X2283Y-1050D01*
X2283Y-1183D01*
X2250Y-1250D01*
X2216Y-1283D01*
X2150Y-1316D01*
X2016Y-1316D01*
X1950Y-1283D01*
X1916Y-1250D01*
X1883Y-1183D01*
X1883Y-1716D02*
X1850Y-1650D01*
X1816Y-1616D01*
X1750Y-1583D01*
X1716Y-1583D01*
X1650Y-1616D01*
X1616Y-1650D01*
X1583Y-1716D01*
X1583Y-1850D01*
X1616Y-1916D01*
X1650Y-1950D01*
X1716Y-1983D01*
X1750Y-1983D01*
X1816Y-1950D01*
X1850Y-1916D01*
X1883Y-1850D01*
X1883Y-1716D01*
X1916Y-1650D01*
X1950Y-1616D01*
X2016Y-1583D01*
X2150Y-1583D01*
X2216Y-1616D01*
X2250Y-1650D01*
X2283Y-1716D01*
X2283Y-1850D01*
X2250Y-1916D01*
X2216Y-1950D01*
X2150Y-1983D01*
X2016Y-1983D01*
X1950Y-1950D01*
X1916Y-1916D01*
X1883Y-1850D01*
X3363Y11433D02*
X2896Y11433D01*
X2663Y11433D02*
X2696Y11466D01*
X2730Y11433D01*
X2696Y11400D01*
X2663Y11433D01*
X2730Y11433D01*
X2896Y11100D02*
X3363Y11100D01*
X2963Y11100D02*
X2930Y11066D01*
X2896Y11000D01*
X2896Y10900D01*
X2930Y10833D01*
X2996Y10800D01*
X3363Y10800D01*
X3330Y9633D02*
X3363Y9700D01*
X3363Y9833D01*
X3330Y9900D01*
X3296Y9933D01*
X3230Y9966D01*
X3030Y9966D01*
X2963Y9933D01*
X2930Y9900D01*
X2896Y9833D01*
X2896Y9700D01*
X2930Y9633D01*
X3363Y9233D02*
X3330Y9300D01*
X3296Y9333D01*
X3230Y9366D01*
X3030Y9366D01*
X2963Y9333D01*
X2930Y9300D01*
X2896Y9233D01*
X2896Y9133D01*
X2930Y9066D01*
X2963Y9033D01*
X3030Y9000D01*
X3230Y9000D01*
X3296Y9033D01*
X3330Y9066D01*
X3363Y9133D01*
X3363Y9233D01*
X2896Y8700D02*
X3363Y8700D01*
X2963Y8700D02*
X2930Y8666D01*
X2896Y8600D01*
X2896Y8500D01*
X2930Y8433D01*
X2996Y8400D01*
X3363Y8400D01*
X2896Y8066D02*
X3496Y8066D01*
X3563Y8100D01*
X3596Y8166D01*
X3596Y8200D01*
X2663Y8066D02*
X2696Y8100D01*
X2730Y8066D01*
X2696Y8033D01*
X2663Y8066D01*
X2730Y8066D01*
X2896Y7433D02*
X3363Y7433D01*
X2896Y7733D02*
X3263Y7733D01*
X3330Y7700D01*
X3363Y7633D01*
X3363Y7533D01*
X3330Y7466D01*
X3296Y7433D01*
X2896Y7100D02*
X3363Y7100D01*
X2963Y7100D02*
X2930Y7066D01*
X2896Y7000D01*
X2896Y6900D01*
X2930Y6833D01*
X2996Y6800D01*
X3363Y6800D01*
X3330Y6166D02*
X3363Y6233D01*
X3363Y6366D01*
X3330Y6433D01*
X3296Y6466D01*
X3230Y6499D01*
X3030Y6499D01*
X2963Y6466D01*
X2930Y6433D01*
X2896Y6366D01*
X2896Y6233D01*
X2930Y6166D01*
X2896Y5966D02*
X2896Y5699D01*
X2663Y5866D02*
X3263Y5866D01*
X3330Y5833D01*
X3363Y5766D01*
X3363Y5699D01*
X3363Y5466D02*
X2896Y5466D01*
X2663Y5466D02*
X2696Y5499D01*
X2730Y5466D01*
X2696Y5433D01*
X2663Y5466D01*
X2730Y5466D01*
X3363Y5033D02*
X3330Y5099D01*
X3296Y5133D01*
X3230Y5166D01*
X3030Y5166D01*
X2963Y5133D01*
X2930Y5099D01*
X2896Y5033D01*
X2896Y4933D01*
X2930Y4866D01*
X2963Y4833D01*
X3030Y4799D01*
X3230Y4799D01*
X3296Y4833D01*
X3330Y4866D01*
X3363Y4933D01*
X3363Y5033D01*
X2896Y4499D02*
X3363Y4499D01*
X2963Y4499D02*
X2930Y4466D01*
X2896Y4399D01*
X2896Y4299D01*
X2930Y4233D01*
X2996Y4199D01*
X3363Y4199D01*
X2896Y3399D02*
X3363Y3266D01*
X3030Y3133D01*
X3363Y2999D01*
X2896Y2866D01*
X3363Y2599D02*
X2896Y2599D01*
X2663Y2599D02*
X2696Y2633D01*
X2730Y2599D01*
X2696Y2566D01*
X2663Y2599D01*
X2730Y2599D01*
X2896Y2366D02*
X2896Y2099D01*
X2663Y2266D02*
X3263Y2266D01*
X3330Y2233D01*
X3363Y2166D01*
X3363Y2099D01*
X3363Y1866D02*
X2663Y1866D01*
X3363Y1566D02*
X2996Y1566D01*
X2930Y1599D01*
X2896Y1666D01*
X2896Y1766D01*
X2930Y1833D01*
X2963Y1866D01*
G54D10*
X39000Y16500D02*
X38750Y16750D01*
X38750Y-4250D02*
X39000Y-4000D01*
X-5000Y-4250D02*
X-5250Y-4000D01*
X-5250Y16500D02*
X-5000Y16750D01*
X-5250Y11100D02*
X-5250Y-4000D01*
X-5250Y16500D02*
X-5250Y12050D01*
X-1000Y11100D02*
X-5250Y11100D01*
X-1000Y12050D02*
X-1000Y11100D01*
X-5250Y12050D02*
X-1000Y12050D01*
G54D13*
X38750Y16750D02*
X-5000Y16750D01*
G54D10*
X39000Y-4000D02*
X39000Y16500D01*
G54D13*
X-5000Y-4250D02*
X38750Y-4250D01*
G54D10*
X30800Y6150D02*
G75*
G03X30800Y6150I-3500J0D01*
G74*
G01*
G54D14*
X30178Y9992D02*
X30207Y9907D01*
X30235Y9878D01*
X30292Y9850D01*
X30378Y9850D01*
X30435Y9878D01*
X30464Y9907D01*
X30492Y9964D01*
X30492Y10192D01*
X29892Y10192D01*
X29892Y9992D01*
X29921Y9935D01*
X29950Y9907D01*
X30007Y9878D01*
X30064Y9878D01*
X30121Y9907D01*
X30150Y9935D01*
X30178Y9992D01*
X30178Y10192D01*
X30492Y9278D02*
X30492Y9621D01*
X30492Y9450D02*
X29892Y9450D01*
X29978Y9507D01*
X30035Y9564D01*
X30064Y9621D01*
M02*
