G04 (created by PCBNEW (2012-11-15 BZR 3804)-stable) date Tue 12 Feb 2013 01:01:18 CST*
%MOIN*%
G04 Gerber Fmt 3.4, Leading zero omitted, Abs format*
%FSLAX34Y34*%
G01*
G70*
G90*
G04 APERTURE LIST*
%ADD10C,0.006*%
%ADD11C,0.00590551*%
%ADD12R,0.063X0.1024*%
%ADD13R,0.04X0.04*%
%ADD14R,0.0629X0.0709*%
%ADD15R,0.0117X0.0334*%
%ADD16R,0.0334X0.0117*%
%ADD17R,0.045X0.045*%
%ADD18R,0.0117X0.032*%
%ADD19R,0.095X0.045*%
%ADD20R,0.045X0.095*%
%ADD21R,0.095X0.095*%
%ADD22C,0.06*%
%ADD23C,0.062*%
%ADD24R,0.06X0.1*%
%ADD25O,0.06X0.1*%
%ADD26R,0.13X0.05*%
%ADD27R,0.0551X0.0709*%
%ADD28R,0.052X0.075*%
%ADD29R,0.02X0.03*%
%ADD30R,0.06X0.08*%
%ADD31R,0.08X0.06*%
%ADD32R,0.045X0.025*%
%ADD33R,0.025X0.045*%
%ADD34R,0.0157X0.0236*%
%ADD35R,0.06X0.06*%
%ADD36R,0.05X0.05*%
%ADD37R,0.01X0.05*%
%ADD38R,0.01X0.01*%
%ADD39R,0.0709X0.0629*%
%ADD40R,0.32X0.09*%
%ADD41R,0.27X0.04*%
%ADD42R,0.32X0.08*%
%ADD43C,0.0985*%
%ADD44C,0.05*%
%ADD45C,0.01*%
%ADD46C,0.05*%
%ADD47C,0.015*%
%ADD48C,0.03*%
%ADD49C,0.009*%
%ADD50C,0.025*%
%ADD51C,0.002*%
G04 APERTURE END LIST*
G54D10*
X-38750Y36250D02*
X63250Y36250D01*
X63250Y-40750D01*
X-38750Y-40750D01*
X-38750Y36250D01*
X-38050Y35550D02*
X62550Y35550D01*
X62550Y-40050D01*
X-38050Y-40050D01*
X-38050Y35550D01*
X-18350Y36250D02*
X-18350Y35550D01*
X-28407Y35697D02*
X-28692Y35697D01*
X-28550Y35697D02*
X-28550Y36197D01*
X-28597Y36126D01*
X-28645Y36078D01*
X-28692Y36054D01*
X-18350Y-40750D02*
X-18350Y-40050D01*
X-28407Y-40602D02*
X-28692Y-40602D01*
X-28550Y-40602D02*
X-28550Y-40102D01*
X-28597Y-40173D01*
X-28645Y-40221D01*
X-28692Y-40245D01*
X2050Y36250D02*
X2050Y35550D01*
X-8292Y36150D02*
X-8269Y36173D01*
X-8221Y36197D01*
X-8102Y36197D01*
X-8054Y36173D01*
X-8030Y36150D01*
X-8007Y36102D01*
X-8007Y36054D01*
X-8030Y35983D01*
X-8316Y35697D01*
X-8007Y35697D01*
X2050Y-40750D02*
X2050Y-40050D01*
X-8292Y-40150D02*
X-8269Y-40126D01*
X-8221Y-40102D01*
X-8102Y-40102D01*
X-8054Y-40126D01*
X-8030Y-40150D01*
X-8007Y-40197D01*
X-8007Y-40245D01*
X-8030Y-40316D01*
X-8316Y-40602D01*
X-8007Y-40602D01*
X22450Y36250D02*
X22450Y35550D01*
X12083Y36197D02*
X12392Y36197D01*
X12226Y36007D01*
X12297Y36007D01*
X12345Y35983D01*
X12369Y35959D01*
X12392Y35911D01*
X12392Y35792D01*
X12369Y35745D01*
X12345Y35721D01*
X12297Y35697D01*
X12154Y35697D01*
X12107Y35721D01*
X12083Y35745D01*
X22450Y-40750D02*
X22450Y-40050D01*
X12083Y-40102D02*
X12392Y-40102D01*
X12226Y-40292D01*
X12297Y-40292D01*
X12345Y-40316D01*
X12369Y-40340D01*
X12392Y-40388D01*
X12392Y-40507D01*
X12369Y-40554D01*
X12345Y-40578D01*
X12297Y-40602D01*
X12154Y-40602D01*
X12107Y-40578D01*
X12083Y-40554D01*
X42850Y36250D02*
X42850Y35550D01*
X32745Y36030D02*
X32745Y35697D01*
X32626Y36221D02*
X32507Y35864D01*
X32816Y35864D01*
X42850Y-40750D02*
X42850Y-40050D01*
X32745Y-40269D02*
X32745Y-40602D01*
X32626Y-40078D02*
X32507Y-40435D01*
X32816Y-40435D01*
X53169Y36197D02*
X52930Y36197D01*
X52907Y35959D01*
X52930Y35983D01*
X52978Y36007D01*
X53097Y36007D01*
X53145Y35983D01*
X53169Y35959D01*
X53192Y35911D01*
X53192Y35792D01*
X53169Y35745D01*
X53145Y35721D01*
X53097Y35697D01*
X52978Y35697D01*
X52930Y35721D01*
X52907Y35745D01*
X53169Y-40102D02*
X52930Y-40102D01*
X52907Y-40340D01*
X52930Y-40316D01*
X52978Y-40292D01*
X53097Y-40292D01*
X53145Y-40316D01*
X53169Y-40340D01*
X53192Y-40388D01*
X53192Y-40507D01*
X53169Y-40554D01*
X53145Y-40578D01*
X53097Y-40602D01*
X52978Y-40602D01*
X52930Y-40578D01*
X52907Y-40554D01*
X-38750Y10590D02*
X-38050Y10590D01*
X-38519Y23360D02*
X-38280Y23360D01*
X-38566Y23217D02*
X-38399Y23717D01*
X-38233Y23217D01*
X63250Y10590D02*
X62550Y10590D01*
X62780Y23360D02*
X63019Y23360D01*
X62733Y23217D02*
X62900Y23717D01*
X63066Y23217D01*
X-38750Y-15070D02*
X-38050Y-15070D01*
X-38364Y-2180D02*
X-38292Y-2204D01*
X-38269Y-2228D01*
X-38245Y-2275D01*
X-38245Y-2347D01*
X-38269Y-2394D01*
X-38292Y-2418D01*
X-38340Y-2442D01*
X-38530Y-2442D01*
X-38530Y-1942D01*
X-38364Y-1942D01*
X-38316Y-1966D01*
X-38292Y-1990D01*
X-38269Y-2037D01*
X-38269Y-2085D01*
X-38292Y-2132D01*
X-38316Y-2156D01*
X-38364Y-2180D01*
X-38530Y-2180D01*
X63250Y-15070D02*
X62550Y-15070D01*
X62935Y-2180D02*
X63007Y-2204D01*
X63030Y-2228D01*
X63054Y-2275D01*
X63054Y-2347D01*
X63030Y-2394D01*
X63007Y-2418D01*
X62959Y-2442D01*
X62769Y-2442D01*
X62769Y-1942D01*
X62935Y-1942D01*
X62983Y-1966D01*
X63007Y-1990D01*
X63030Y-2037D01*
X63030Y-2085D01*
X63007Y-2132D01*
X62983Y-2156D01*
X62935Y-2180D01*
X62769Y-2180D01*
X-38245Y-28054D02*
X-38269Y-28078D01*
X-38340Y-28102D01*
X-38388Y-28102D01*
X-38459Y-28078D01*
X-38507Y-28030D01*
X-38530Y-27983D01*
X-38554Y-27888D01*
X-38554Y-27816D01*
X-38530Y-27721D01*
X-38507Y-27673D01*
X-38459Y-27626D01*
X-38388Y-27602D01*
X-38340Y-27602D01*
X-38269Y-27626D01*
X-38245Y-27650D01*
X63054Y-28054D02*
X63030Y-28078D01*
X62959Y-28102D01*
X62911Y-28102D01*
X62840Y-28078D01*
X62792Y-28030D01*
X62769Y-27983D01*
X62745Y-27888D01*
X62745Y-27816D01*
X62769Y-27721D01*
X62792Y-27673D01*
X62840Y-27626D01*
X62911Y-27602D01*
X62959Y-27602D01*
X63030Y-27626D01*
X63054Y-27650D01*
X29700Y-38492D02*
X29775Y-37892D01*
X29917Y-37892D01*
X30000Y-37921D01*
X30050Y-37978D01*
X30071Y-38035D01*
X30085Y-38150D01*
X30075Y-38235D01*
X30032Y-38350D01*
X29996Y-38407D01*
X29932Y-38464D01*
X29842Y-38492D01*
X29700Y-38492D01*
X30557Y-38492D02*
X30596Y-38178D01*
X30575Y-38121D01*
X30521Y-38092D01*
X30407Y-38092D01*
X30346Y-38121D01*
X30560Y-38464D02*
X30500Y-38492D01*
X30357Y-38492D01*
X30303Y-38464D01*
X30282Y-38407D01*
X30289Y-38350D01*
X30325Y-38292D01*
X30385Y-38264D01*
X30528Y-38264D01*
X30589Y-38235D01*
X30807Y-38092D02*
X31035Y-38092D01*
X30917Y-37892D02*
X30853Y-38407D01*
X30875Y-38464D01*
X30928Y-38492D01*
X30985Y-38492D01*
X31417Y-38464D02*
X31357Y-38492D01*
X31242Y-38492D01*
X31189Y-38464D01*
X31167Y-38407D01*
X31196Y-38178D01*
X31232Y-38121D01*
X31292Y-38092D01*
X31407Y-38092D01*
X31460Y-38121D01*
X31482Y-38178D01*
X31475Y-38235D01*
X31182Y-38292D01*
X31707Y-38435D02*
X31732Y-38464D01*
X31700Y-38492D01*
X31675Y-38464D01*
X31707Y-38435D01*
X31700Y-38492D01*
X31746Y-38121D02*
X31771Y-38150D01*
X31739Y-38178D01*
X31714Y-38150D01*
X31746Y-38121D01*
X31739Y-38178D01*
X32757Y-38492D02*
X32414Y-38492D01*
X32585Y-38492D02*
X32660Y-37892D01*
X32592Y-37978D01*
X32528Y-38035D01*
X32467Y-38064D01*
X33053Y-37950D02*
X33085Y-37921D01*
X33146Y-37892D01*
X33289Y-37892D01*
X33342Y-37921D01*
X33367Y-37950D01*
X33389Y-38007D01*
X33382Y-38064D01*
X33342Y-38150D01*
X32957Y-38492D01*
X33328Y-38492D01*
X34007Y-38092D02*
X34235Y-38092D01*
X34042Y-38492D02*
X34107Y-37978D01*
X34142Y-37921D01*
X34203Y-37892D01*
X34260Y-37892D01*
X34617Y-38464D02*
X34557Y-38492D01*
X34442Y-38492D01*
X34389Y-38464D01*
X34367Y-38407D01*
X34396Y-38178D01*
X34432Y-38121D01*
X34492Y-38092D01*
X34607Y-38092D01*
X34660Y-38121D01*
X34682Y-38178D01*
X34675Y-38235D01*
X34382Y-38292D01*
X34900Y-38492D02*
X34975Y-37892D01*
X34946Y-38121D02*
X35007Y-38092D01*
X35121Y-38092D01*
X35175Y-38121D01*
X35200Y-38150D01*
X35221Y-38207D01*
X35200Y-38378D01*
X35164Y-38435D01*
X35132Y-38464D01*
X35071Y-38492D01*
X34957Y-38492D01*
X34903Y-38464D01*
X35939Y-37950D02*
X35971Y-37921D01*
X36032Y-37892D01*
X36175Y-37892D01*
X36228Y-37921D01*
X36253Y-37950D01*
X36275Y-38007D01*
X36267Y-38064D01*
X36228Y-38150D01*
X35842Y-38492D01*
X36214Y-38492D01*
X36660Y-37892D02*
X36717Y-37892D01*
X36771Y-37921D01*
X36796Y-37950D01*
X36817Y-38007D01*
X36832Y-38121D01*
X36814Y-38264D01*
X36771Y-38378D01*
X36735Y-38435D01*
X36703Y-38464D01*
X36642Y-38492D01*
X36585Y-38492D01*
X36532Y-38464D01*
X36507Y-38435D01*
X36485Y-38378D01*
X36471Y-38264D01*
X36489Y-38121D01*
X36532Y-38007D01*
X36567Y-37950D01*
X36600Y-37921D01*
X36660Y-37892D01*
X37357Y-38492D02*
X37014Y-38492D01*
X37185Y-38492D02*
X37260Y-37892D01*
X37192Y-37978D01*
X37128Y-38035D01*
X37067Y-38064D01*
X37632Y-37892D02*
X38003Y-37892D01*
X37775Y-38121D01*
X37860Y-38121D01*
X37914Y-38150D01*
X37939Y-38178D01*
X37960Y-38235D01*
X37942Y-38378D01*
X37907Y-38435D01*
X37875Y-38464D01*
X37814Y-38492D01*
X37642Y-38492D01*
X37589Y-38464D01*
X37564Y-38435D01*
X21292Y-39692D02*
X21292Y-39092D01*
X21635Y-39692D02*
X21378Y-39350D01*
X21635Y-39092D02*
X21292Y-39435D01*
X21892Y-39692D02*
X21892Y-39292D01*
X21892Y-39092D02*
X21864Y-39121D01*
X21892Y-39150D01*
X21921Y-39121D01*
X21892Y-39092D01*
X21892Y-39150D01*
X22521Y-39635D02*
X22492Y-39664D01*
X22407Y-39692D01*
X22350Y-39692D01*
X22264Y-39664D01*
X22207Y-39607D01*
X22178Y-39550D01*
X22150Y-39435D01*
X22150Y-39350D01*
X22178Y-39235D01*
X22207Y-39178D01*
X22264Y-39121D01*
X22350Y-39092D01*
X22407Y-39092D01*
X22492Y-39121D01*
X22521Y-39150D01*
X23035Y-39692D02*
X23035Y-39378D01*
X23007Y-39321D01*
X22950Y-39292D01*
X22835Y-39292D01*
X22778Y-39321D01*
X23035Y-39664D02*
X22978Y-39692D01*
X22835Y-39692D01*
X22778Y-39664D01*
X22750Y-39607D01*
X22750Y-39550D01*
X22778Y-39492D01*
X22835Y-39464D01*
X22978Y-39464D01*
X23035Y-39435D01*
X23578Y-39692D02*
X23578Y-39092D01*
X23578Y-39664D02*
X23521Y-39692D01*
X23407Y-39692D01*
X23350Y-39664D01*
X23321Y-39635D01*
X23292Y-39578D01*
X23292Y-39407D01*
X23321Y-39350D01*
X23350Y-39321D01*
X23407Y-39292D01*
X23521Y-39292D01*
X23578Y-39321D01*
X24321Y-39378D02*
X24521Y-39378D01*
X24607Y-39692D02*
X24321Y-39692D01*
X24321Y-39092D01*
X24607Y-39092D01*
X24864Y-39635D02*
X24892Y-39664D01*
X24864Y-39692D01*
X24835Y-39664D01*
X24864Y-39635D01*
X24864Y-39692D01*
X25149Y-39692D02*
X25149Y-39092D01*
X25292Y-39092D01*
X25378Y-39121D01*
X25435Y-39178D01*
X25464Y-39235D01*
X25492Y-39350D01*
X25492Y-39435D01*
X25464Y-39550D01*
X25435Y-39607D01*
X25378Y-39664D01*
X25292Y-39692D01*
X25149Y-39692D01*
X25749Y-39635D02*
X25778Y-39664D01*
X25749Y-39692D01*
X25721Y-39664D01*
X25749Y-39635D01*
X25749Y-39692D01*
X26007Y-39521D02*
X26292Y-39521D01*
X25949Y-39692D02*
X26149Y-39092D01*
X26349Y-39692D01*
X26549Y-39635D02*
X26578Y-39664D01*
X26549Y-39692D01*
X26521Y-39664D01*
X26549Y-39635D01*
X26549Y-39692D01*
X54842Y-38492D02*
X54678Y-38207D01*
X54500Y-38492D02*
X54575Y-37892D01*
X54803Y-37892D01*
X54857Y-37921D01*
X54882Y-37950D01*
X54903Y-38007D01*
X54892Y-38092D01*
X54857Y-38150D01*
X54825Y-38178D01*
X54764Y-38207D01*
X54535Y-38207D01*
X55332Y-38464D02*
X55271Y-38492D01*
X55157Y-38492D01*
X55103Y-38464D01*
X55082Y-38407D01*
X55110Y-38178D01*
X55146Y-38121D01*
X55207Y-38092D01*
X55321Y-38092D01*
X55375Y-38121D01*
X55396Y-38178D01*
X55389Y-38235D01*
X55096Y-38292D01*
X55607Y-38092D02*
X55700Y-38492D01*
X55892Y-38092D01*
X56078Y-38435D02*
X56103Y-38464D01*
X56071Y-38492D01*
X56046Y-38464D01*
X56078Y-38435D01*
X56071Y-38492D01*
X56117Y-38121D02*
X56142Y-38150D01*
X56110Y-38178D01*
X56085Y-38150D01*
X56117Y-38121D01*
X56110Y-38178D01*
X56803Y-37892D02*
X57146Y-37892D01*
X56900Y-38492D02*
X56975Y-37892D01*
X57310Y-37950D02*
X57342Y-37921D01*
X57403Y-37892D01*
X57546Y-37892D01*
X57600Y-37921D01*
X57625Y-37950D01*
X57646Y-38007D01*
X57639Y-38064D01*
X57600Y-38150D01*
X57214Y-38492D01*
X57585Y-38492D01*
X58100Y-38492D02*
X58139Y-38178D01*
X58117Y-38121D01*
X58064Y-38092D01*
X57950Y-38092D01*
X57889Y-38121D01*
X58103Y-38464D02*
X58042Y-38492D01*
X57900Y-38492D01*
X57846Y-38464D01*
X57825Y-38407D01*
X57832Y-38350D01*
X57867Y-38292D01*
X57928Y-38264D01*
X58071Y-38264D01*
X58132Y-38235D01*
X21264Y-38464D02*
X21350Y-38492D01*
X21492Y-38492D01*
X21550Y-38464D01*
X21578Y-38435D01*
X21607Y-38378D01*
X21607Y-38321D01*
X21578Y-38264D01*
X21550Y-38235D01*
X21492Y-38207D01*
X21378Y-38178D01*
X21321Y-38150D01*
X21292Y-38121D01*
X21264Y-38064D01*
X21264Y-38007D01*
X21292Y-37950D01*
X21321Y-37921D01*
X21378Y-37892D01*
X21521Y-37892D01*
X21607Y-37921D01*
X21864Y-38492D02*
X21864Y-38092D01*
X21864Y-37892D02*
X21835Y-37921D01*
X21864Y-37950D01*
X21892Y-37921D01*
X21864Y-37892D01*
X21864Y-37950D01*
X22092Y-38092D02*
X22407Y-38092D01*
X22092Y-38492D01*
X22407Y-38492D01*
X22864Y-38464D02*
X22807Y-38492D01*
X22692Y-38492D01*
X22635Y-38464D01*
X22607Y-38407D01*
X22607Y-38178D01*
X22635Y-38121D01*
X22692Y-38092D01*
X22807Y-38092D01*
X22864Y-38121D01*
X22892Y-38178D01*
X22892Y-38235D01*
X22607Y-38292D01*
X23150Y-38435D02*
X23178Y-38464D01*
X23150Y-38492D01*
X23121Y-38464D01*
X23150Y-38435D01*
X23150Y-38492D01*
X23150Y-38121D02*
X23178Y-38150D01*
X23150Y-38178D01*
X23121Y-38150D01*
X23150Y-38121D01*
X23150Y-38178D01*
X23864Y-38321D02*
X24150Y-38321D01*
X23807Y-38492D02*
X24007Y-37892D01*
X24207Y-38492D01*
X54492Y-39692D02*
X54492Y-39092D01*
X55035Y-39692D02*
X55035Y-39092D01*
X55035Y-39664D02*
X54978Y-39692D01*
X54864Y-39692D01*
X54807Y-39664D01*
X54778Y-39635D01*
X54750Y-39578D01*
X54750Y-39407D01*
X54778Y-39350D01*
X54807Y-39321D01*
X54864Y-39292D01*
X54978Y-39292D01*
X55035Y-39321D01*
X55321Y-39635D02*
X55350Y-39664D01*
X55321Y-39692D01*
X55292Y-39664D01*
X55321Y-39635D01*
X55321Y-39692D01*
X55321Y-39321D02*
X55350Y-39350D01*
X55321Y-39378D01*
X55292Y-39350D01*
X55321Y-39321D01*
X55321Y-39378D01*
X56378Y-39692D02*
X56035Y-39692D01*
X56207Y-39692D02*
X56207Y-39092D01*
X56149Y-39178D01*
X56092Y-39235D01*
X56035Y-39264D01*
X57064Y-39064D02*
X56550Y-39835D01*
X57578Y-39692D02*
X57235Y-39692D01*
X57407Y-39692D02*
X57407Y-39092D01*
X57349Y-39178D01*
X57292Y-39235D01*
X57235Y-39264D01*
X21289Y-36692D02*
X21632Y-36692D01*
X21385Y-37292D02*
X21460Y-36692D01*
X21757Y-37292D02*
X21807Y-36892D01*
X21832Y-36692D02*
X21800Y-36721D01*
X21825Y-36750D01*
X21857Y-36721D01*
X21832Y-36692D01*
X21825Y-36750D01*
X22007Y-36892D02*
X22235Y-36892D01*
X22117Y-36692D02*
X22053Y-37207D01*
X22075Y-37264D01*
X22128Y-37292D01*
X22185Y-37292D01*
X22471Y-37292D02*
X22417Y-37264D01*
X22396Y-37207D01*
X22460Y-36692D01*
X22932Y-37264D02*
X22871Y-37292D01*
X22757Y-37292D01*
X22703Y-37264D01*
X22682Y-37207D01*
X22710Y-36978D01*
X22746Y-36921D01*
X22807Y-36892D01*
X22921Y-36892D01*
X22975Y-36921D01*
X22996Y-36978D01*
X22989Y-37035D01*
X22696Y-37092D01*
X23221Y-37235D02*
X23246Y-37264D01*
X23214Y-37292D01*
X23189Y-37264D01*
X23221Y-37235D01*
X23214Y-37292D01*
X23260Y-36921D02*
X23285Y-36950D01*
X23253Y-36978D01*
X23228Y-36950D01*
X23260Y-36921D01*
X23253Y-36978D01*
X24196Y-36978D02*
X24278Y-37007D01*
X24303Y-37035D01*
X24325Y-37092D01*
X24314Y-37178D01*
X24278Y-37235D01*
X24246Y-37264D01*
X24185Y-37292D01*
X23957Y-37292D01*
X24032Y-36692D01*
X24232Y-36692D01*
X24285Y-36721D01*
X24310Y-36750D01*
X24332Y-36807D01*
X24325Y-36864D01*
X24289Y-36921D01*
X24257Y-36950D01*
X24196Y-36978D01*
X23996Y-36978D01*
X24746Y-36692D02*
X24860Y-36692D01*
X24914Y-36721D01*
X24964Y-36778D01*
X24978Y-36892D01*
X24953Y-37092D01*
X24910Y-37207D01*
X24846Y-37264D01*
X24785Y-37292D01*
X24671Y-37292D01*
X24617Y-37264D01*
X24567Y-37207D01*
X24553Y-37092D01*
X24578Y-36892D01*
X24621Y-36778D01*
X24685Y-36721D01*
X24746Y-36692D01*
X25178Y-37121D02*
X25464Y-37121D01*
X25100Y-37292D02*
X25375Y-36692D01*
X25500Y-37292D01*
X26042Y-37292D02*
X25878Y-37007D01*
X25700Y-37292D02*
X25775Y-36692D01*
X26003Y-36692D01*
X26057Y-36721D01*
X26082Y-36750D01*
X26103Y-36807D01*
X26092Y-36892D01*
X26057Y-36950D01*
X26025Y-36978D01*
X25964Y-37007D01*
X25735Y-37007D01*
X26300Y-37292D02*
X26375Y-36692D01*
X26517Y-36692D01*
X26600Y-36721D01*
X26650Y-36778D01*
X26671Y-36835D01*
X26685Y-36950D01*
X26675Y-37035D01*
X26632Y-37150D01*
X26596Y-37207D01*
X26532Y-37264D01*
X26442Y-37292D01*
X26300Y-37292D01*
X26932Y-37264D02*
X26928Y-37292D01*
X26892Y-37350D01*
X26860Y-37378D01*
X27642Y-37292D02*
X27717Y-36692D01*
X27946Y-36692D01*
X27999Y-36721D01*
X28025Y-36750D01*
X28046Y-36807D01*
X28035Y-36892D01*
X28000Y-36950D01*
X27967Y-36978D01*
X27907Y-37007D01*
X27678Y-37007D01*
X28592Y-37235D02*
X28560Y-37264D01*
X28471Y-37292D01*
X28414Y-37292D01*
X28332Y-37264D01*
X28282Y-37207D01*
X28260Y-37150D01*
X28246Y-37035D01*
X28257Y-36950D01*
X28300Y-36835D01*
X28335Y-36778D01*
X28399Y-36721D01*
X28489Y-36692D01*
X28546Y-36692D01*
X28628Y-36721D01*
X28653Y-36750D01*
X28875Y-37264D02*
X28871Y-37292D01*
X28835Y-37350D01*
X28803Y-37378D01*
X29575Y-36692D02*
X29917Y-36692D01*
X29671Y-37292D02*
X29746Y-36692D01*
X30042Y-37292D02*
X30117Y-36692D01*
X30082Y-36978D02*
X30425Y-36978D01*
X30385Y-37292D02*
X30460Y-36692D01*
X30860Y-36692D02*
X30975Y-36692D01*
X31028Y-36721D01*
X31078Y-36778D01*
X31092Y-36892D01*
X31067Y-37092D01*
X31024Y-37207D01*
X30960Y-37264D01*
X30900Y-37292D01*
X30785Y-37292D01*
X30732Y-37264D01*
X30682Y-37207D01*
X30667Y-37092D01*
X30692Y-36892D01*
X30735Y-36778D01*
X30799Y-36721D01*
X30860Y-36692D01*
X31289Y-36692D02*
X31632Y-36692D01*
X31385Y-37292D02*
X31460Y-36692D01*
X31757Y-37292D02*
X31832Y-36692D01*
X32099Y-37292D02*
X31885Y-36950D01*
X32174Y-36692D02*
X31789Y-37035D01*
X32546Y-36692D02*
X32660Y-36692D01*
X32714Y-36721D01*
X32764Y-36778D01*
X32778Y-36892D01*
X32753Y-37092D01*
X32710Y-37207D01*
X32646Y-37264D01*
X32585Y-37292D01*
X32471Y-37292D01*
X32417Y-37264D01*
X32367Y-37207D01*
X32353Y-37092D01*
X32378Y-36892D01*
X32421Y-36778D01*
X32485Y-36721D01*
X32546Y-36692D01*
X32985Y-37292D02*
X33060Y-36692D01*
X33328Y-37292D01*
X33403Y-36692D01*
X34260Y-36692D02*
X34374Y-36692D01*
X34428Y-36721D01*
X34478Y-36778D01*
X34492Y-36892D01*
X34467Y-37092D01*
X34424Y-37207D01*
X34360Y-37264D01*
X34299Y-37292D01*
X34185Y-37292D01*
X34132Y-37264D01*
X34082Y-37207D01*
X34067Y-37092D01*
X34092Y-36892D01*
X34135Y-36778D01*
X34199Y-36721D01*
X34260Y-36692D01*
X34717Y-36692D02*
X35042Y-37292D01*
X35117Y-36692D02*
X34642Y-37292D01*
X35578Y-36892D02*
X35528Y-37292D01*
X35464Y-36664D02*
X35267Y-37092D01*
X35639Y-37092D01*
X21492Y-34578D02*
X21292Y-34578D01*
X21292Y-34892D02*
X21292Y-34292D01*
X21578Y-34292D01*
X21807Y-34892D02*
X21807Y-34492D01*
X21807Y-34292D02*
X21778Y-34321D01*
X21807Y-34350D01*
X21835Y-34321D01*
X21807Y-34292D01*
X21807Y-34350D01*
X22178Y-34892D02*
X22121Y-34864D01*
X22092Y-34807D01*
X22092Y-34292D01*
X22635Y-34864D02*
X22578Y-34892D01*
X22464Y-34892D01*
X22407Y-34864D01*
X22378Y-34807D01*
X22378Y-34578D01*
X22407Y-34521D01*
X22464Y-34492D01*
X22578Y-34492D01*
X22635Y-34521D01*
X22664Y-34578D01*
X22664Y-34635D01*
X22378Y-34692D01*
X22921Y-34835D02*
X22950Y-34864D01*
X22921Y-34892D01*
X22892Y-34864D01*
X22921Y-34835D01*
X22921Y-34892D01*
X22921Y-34521D02*
X22950Y-34550D01*
X22921Y-34578D01*
X22892Y-34550D01*
X22921Y-34521D01*
X22921Y-34578D01*
X23578Y-34492D02*
X23807Y-34492D01*
X23664Y-34292D02*
X23664Y-34807D01*
X23692Y-34864D01*
X23750Y-34892D01*
X23807Y-34892D01*
X24007Y-34892D02*
X24007Y-34292D01*
X24264Y-34892D02*
X24264Y-34578D01*
X24235Y-34521D01*
X24178Y-34492D01*
X24092Y-34492D01*
X24035Y-34521D01*
X24007Y-34550D01*
X24635Y-34892D02*
X24578Y-34864D01*
X24550Y-34835D01*
X24521Y-34778D01*
X24521Y-34607D01*
X24550Y-34550D01*
X24578Y-34521D01*
X24635Y-34492D01*
X24721Y-34492D01*
X24778Y-34521D01*
X24807Y-34550D01*
X24835Y-34607D01*
X24835Y-34778D01*
X24807Y-34835D01*
X24778Y-34864D01*
X24721Y-34892D01*
X24635Y-34892D01*
X25007Y-34492D02*
X25235Y-34492D01*
X25092Y-34292D02*
X25092Y-34807D01*
X25121Y-34864D01*
X25178Y-34892D01*
X25235Y-34892D01*
X25692Y-34864D02*
X25635Y-34892D01*
X25521Y-34892D01*
X25464Y-34864D01*
X25435Y-34835D01*
X25407Y-34778D01*
X25407Y-34607D01*
X25435Y-34550D01*
X25464Y-34521D01*
X25521Y-34492D01*
X25635Y-34492D01*
X25692Y-34521D01*
X26035Y-34892D02*
X25978Y-34864D01*
X25950Y-34835D01*
X25921Y-34778D01*
X25921Y-34607D01*
X25950Y-34550D01*
X25978Y-34521D01*
X26035Y-34492D01*
X26121Y-34492D01*
X26178Y-34521D01*
X26207Y-34550D01*
X26235Y-34607D01*
X26235Y-34778D01*
X26207Y-34835D01*
X26178Y-34864D01*
X26121Y-34892D01*
X26035Y-34892D01*
X26492Y-34492D02*
X26492Y-34892D01*
X26492Y-34550D02*
X26521Y-34521D01*
X26578Y-34492D01*
X26664Y-34492D01*
X26721Y-34521D01*
X26750Y-34578D01*
X26750Y-34892D01*
X26892Y-34950D02*
X27350Y-34950D01*
X27492Y-34892D02*
X27492Y-34292D01*
X27492Y-34521D02*
X27550Y-34492D01*
X27664Y-34492D01*
X27721Y-34521D01*
X27750Y-34550D01*
X27778Y-34607D01*
X27778Y-34778D01*
X27750Y-34835D01*
X27721Y-34864D01*
X27664Y-34892D01*
X27550Y-34892D01*
X27492Y-34864D01*
X28292Y-34892D02*
X28292Y-34578D01*
X28264Y-34521D01*
X28207Y-34492D01*
X28092Y-34492D01*
X28035Y-34521D01*
X28292Y-34864D02*
X28235Y-34892D01*
X28092Y-34892D01*
X28035Y-34864D01*
X28007Y-34807D01*
X28007Y-34750D01*
X28035Y-34692D01*
X28092Y-34664D01*
X28235Y-34664D01*
X28292Y-34635D01*
X28835Y-34892D02*
X28835Y-34292D01*
X28835Y-34864D02*
X28778Y-34892D01*
X28664Y-34892D01*
X28607Y-34864D01*
X28578Y-34835D01*
X28550Y-34778D01*
X28550Y-34607D01*
X28578Y-34550D01*
X28607Y-34521D01*
X28664Y-34492D01*
X28778Y-34492D01*
X28835Y-34521D01*
X29378Y-34492D02*
X29378Y-34978D01*
X29350Y-35035D01*
X29321Y-35064D01*
X29264Y-35092D01*
X29178Y-35092D01*
X29121Y-35064D01*
X29378Y-34864D02*
X29321Y-34892D01*
X29207Y-34892D01*
X29150Y-34864D01*
X29121Y-34835D01*
X29092Y-34778D01*
X29092Y-34607D01*
X29121Y-34550D01*
X29150Y-34521D01*
X29207Y-34492D01*
X29321Y-34492D01*
X29378Y-34521D01*
X29892Y-34864D02*
X29835Y-34892D01*
X29721Y-34892D01*
X29664Y-34864D01*
X29635Y-34807D01*
X29635Y-34578D01*
X29664Y-34521D01*
X29721Y-34492D01*
X29835Y-34492D01*
X29892Y-34521D01*
X29921Y-34578D01*
X29921Y-34635D01*
X29635Y-34692D01*
X30035Y-34950D02*
X30492Y-34950D01*
X30578Y-34492D02*
X30892Y-34492D01*
X30578Y-34892D01*
X30892Y-34892D01*
X31121Y-34892D02*
X31121Y-34492D01*
X31121Y-34292D02*
X31092Y-34321D01*
X31121Y-34350D01*
X31150Y-34321D01*
X31121Y-34292D01*
X31121Y-34350D01*
X31664Y-34492D02*
X31664Y-34978D01*
X31635Y-35035D01*
X31607Y-35064D01*
X31549Y-35092D01*
X31464Y-35092D01*
X31407Y-35064D01*
X31664Y-34864D02*
X31607Y-34892D01*
X31492Y-34892D01*
X31435Y-34864D01*
X31407Y-34835D01*
X31378Y-34778D01*
X31378Y-34607D01*
X31407Y-34550D01*
X31435Y-34521D01*
X31492Y-34492D01*
X31607Y-34492D01*
X31664Y-34521D01*
X31949Y-34835D02*
X31978Y-34864D01*
X31949Y-34892D01*
X31921Y-34864D01*
X31949Y-34835D01*
X31949Y-34892D01*
X32235Y-34892D02*
X32235Y-34292D01*
X32235Y-34521D02*
X32292Y-34492D01*
X32407Y-34492D01*
X32464Y-34521D01*
X32492Y-34550D01*
X32521Y-34607D01*
X32521Y-34778D01*
X32492Y-34835D01*
X32464Y-34864D01*
X32407Y-34892D01*
X32292Y-34892D01*
X32235Y-34864D01*
X32778Y-34892D02*
X32778Y-34492D01*
X32778Y-34607D02*
X32807Y-34550D01*
X32835Y-34521D01*
X32892Y-34492D01*
X32949Y-34492D01*
X33407Y-34892D02*
X33407Y-34292D01*
X33407Y-34864D02*
X33349Y-34892D01*
X33235Y-34892D01*
X33178Y-34864D01*
X33149Y-34835D01*
X33121Y-34778D01*
X33121Y-34607D01*
X33149Y-34550D01*
X33178Y-34521D01*
X33235Y-34492D01*
X33349Y-34492D01*
X33407Y-34521D01*
X21264Y-36064D02*
X21350Y-36092D01*
X21492Y-36092D01*
X21550Y-36064D01*
X21578Y-36035D01*
X21607Y-35978D01*
X21607Y-35921D01*
X21578Y-35864D01*
X21550Y-35835D01*
X21492Y-35807D01*
X21378Y-35778D01*
X21321Y-35750D01*
X21292Y-35721D01*
X21264Y-35664D01*
X21264Y-35607D01*
X21292Y-35550D01*
X21321Y-35521D01*
X21378Y-35492D01*
X21521Y-35492D01*
X21607Y-35521D01*
X21864Y-36092D02*
X21864Y-35492D01*
X22121Y-36092D02*
X22121Y-35778D01*
X22092Y-35721D01*
X22035Y-35692D01*
X21950Y-35692D01*
X21892Y-35721D01*
X21864Y-35750D01*
X22635Y-36064D02*
X22578Y-36092D01*
X22464Y-36092D01*
X22407Y-36064D01*
X22378Y-36007D01*
X22378Y-35778D01*
X22407Y-35721D01*
X22464Y-35692D01*
X22578Y-35692D01*
X22635Y-35721D01*
X22664Y-35778D01*
X22664Y-35835D01*
X22378Y-35892D01*
X23150Y-36064D02*
X23092Y-36092D01*
X22978Y-36092D01*
X22921Y-36064D01*
X22892Y-36007D01*
X22892Y-35778D01*
X22921Y-35721D01*
X22978Y-35692D01*
X23092Y-35692D01*
X23150Y-35721D01*
X23178Y-35778D01*
X23178Y-35835D01*
X22892Y-35892D01*
X23350Y-35692D02*
X23578Y-35692D01*
X23435Y-35492D02*
X23435Y-36007D01*
X23464Y-36064D01*
X23521Y-36092D01*
X23578Y-36092D01*
X23778Y-36035D02*
X23807Y-36064D01*
X23778Y-36092D01*
X23750Y-36064D01*
X23778Y-36035D01*
X23778Y-36092D01*
X23778Y-35721D02*
X23807Y-35750D01*
X23778Y-35778D01*
X23750Y-35750D01*
X23778Y-35721D01*
X23778Y-35778D01*
X21317Y-33092D02*
X21385Y-33692D01*
X21553Y-33264D01*
X21614Y-33692D01*
X21832Y-33092D01*
X22071Y-33692D02*
X22017Y-33664D01*
X21992Y-33635D01*
X21971Y-33578D01*
X21992Y-33407D01*
X22028Y-33350D01*
X22060Y-33321D01*
X22121Y-33292D01*
X22207Y-33292D01*
X22260Y-33321D01*
X22285Y-33350D01*
X22307Y-33407D01*
X22285Y-33578D01*
X22250Y-33635D01*
X22217Y-33664D01*
X22157Y-33692D01*
X22071Y-33692D01*
X22528Y-33692D02*
X22578Y-33292D01*
X22564Y-33407D02*
X22600Y-33350D01*
X22632Y-33321D01*
X22692Y-33292D01*
X22750Y-33292D01*
X22900Y-33692D02*
X22975Y-33092D01*
X22985Y-33464D02*
X23128Y-33692D01*
X23178Y-33292D02*
X22921Y-33521D01*
X23360Y-33664D02*
X23414Y-33692D01*
X23528Y-33692D01*
X23589Y-33664D01*
X23625Y-33607D01*
X23628Y-33578D01*
X23607Y-33521D01*
X23553Y-33492D01*
X23467Y-33492D01*
X23414Y-33464D01*
X23392Y-33407D01*
X23396Y-33378D01*
X23432Y-33321D01*
X23492Y-33292D01*
X23578Y-33292D01*
X23632Y-33321D01*
X23871Y-33692D02*
X23946Y-33092D01*
X24128Y-33692D02*
X24167Y-33378D01*
X24146Y-33321D01*
X24092Y-33292D01*
X24007Y-33292D01*
X23946Y-33321D01*
X23914Y-33350D01*
X24499Y-33692D02*
X24446Y-33664D01*
X24421Y-33635D01*
X24400Y-33578D01*
X24421Y-33407D01*
X24457Y-33350D01*
X24489Y-33321D01*
X24549Y-33292D01*
X24635Y-33292D01*
X24689Y-33321D01*
X24714Y-33350D01*
X24735Y-33407D01*
X24714Y-33578D01*
X24678Y-33635D01*
X24646Y-33664D01*
X24585Y-33692D01*
X24499Y-33692D01*
X25007Y-33292D02*
X24932Y-33892D01*
X25003Y-33321D02*
X25064Y-33292D01*
X25178Y-33292D01*
X25232Y-33321D01*
X25257Y-33350D01*
X25278Y-33407D01*
X25257Y-33578D01*
X25221Y-33635D01*
X25189Y-33664D01*
X25128Y-33692D01*
X25014Y-33692D01*
X24960Y-33664D01*
X26085Y-33350D02*
X26032Y-33321D01*
X26007Y-33292D01*
X25985Y-33235D01*
X25989Y-33207D01*
X26024Y-33150D01*
X26057Y-33121D01*
X26117Y-33092D01*
X26232Y-33092D01*
X26285Y-33121D01*
X26310Y-33150D01*
X26332Y-33207D01*
X26328Y-33235D01*
X26292Y-33292D01*
X26260Y-33321D01*
X26199Y-33350D01*
X26085Y-33350D01*
X26025Y-33378D01*
X25992Y-33407D01*
X25957Y-33464D01*
X25942Y-33578D01*
X25964Y-33635D01*
X25989Y-33664D01*
X26042Y-33692D01*
X26157Y-33692D01*
X26217Y-33664D01*
X26249Y-33635D01*
X26285Y-33578D01*
X26299Y-33464D01*
X26278Y-33407D01*
X26253Y-33378D01*
X26199Y-33350D01*
X26657Y-33350D02*
X26603Y-33321D01*
X26578Y-33292D01*
X26557Y-33235D01*
X26560Y-33207D01*
X26596Y-33150D01*
X26628Y-33121D01*
X26689Y-33092D01*
X26803Y-33092D01*
X26857Y-33121D01*
X26882Y-33150D01*
X26903Y-33207D01*
X26900Y-33235D01*
X26864Y-33292D01*
X26832Y-33321D01*
X26771Y-33350D01*
X26657Y-33350D01*
X26596Y-33378D01*
X26564Y-33407D01*
X26528Y-33464D01*
X26514Y-33578D01*
X26535Y-33635D01*
X26560Y-33664D01*
X26614Y-33692D01*
X26728Y-33692D01*
X26789Y-33664D01*
X26821Y-33635D01*
X26857Y-33578D01*
X26871Y-33464D01*
X26849Y-33407D01*
X26825Y-33378D01*
X26771Y-33350D01*
X21292Y-32492D02*
X21292Y-31892D01*
X21435Y-31892D01*
X21521Y-31921D01*
X21578Y-31978D01*
X21607Y-32035D01*
X21635Y-32150D01*
X21635Y-32235D01*
X21607Y-32350D01*
X21578Y-32407D01*
X21521Y-32464D01*
X21435Y-32492D01*
X21292Y-32492D01*
X21892Y-32492D02*
X21892Y-32092D01*
X21892Y-32207D02*
X21921Y-32150D01*
X21950Y-32121D01*
X22007Y-32092D01*
X22064Y-32092D01*
X22521Y-32492D02*
X22521Y-32178D01*
X22492Y-32121D01*
X22435Y-32092D01*
X22321Y-32092D01*
X22264Y-32121D01*
X22521Y-32464D02*
X22464Y-32492D01*
X22321Y-32492D01*
X22264Y-32464D01*
X22235Y-32407D01*
X22235Y-32350D01*
X22264Y-32292D01*
X22321Y-32264D01*
X22464Y-32264D01*
X22521Y-32235D01*
X22750Y-32092D02*
X22864Y-32492D01*
X22978Y-32207D01*
X23092Y-32492D01*
X23207Y-32092D01*
X23435Y-32092D02*
X23435Y-32492D01*
X23435Y-32150D02*
X23464Y-32121D01*
X23521Y-32092D01*
X23607Y-32092D01*
X23664Y-32121D01*
X23692Y-32178D01*
X23692Y-32492D01*
X23978Y-32435D02*
X24007Y-32464D01*
X23978Y-32492D01*
X23950Y-32464D01*
X23978Y-32435D01*
X23978Y-32492D01*
X23978Y-32121D02*
X24007Y-32150D01*
X23978Y-32178D01*
X23950Y-32150D01*
X23978Y-32121D01*
X23978Y-32178D01*
X24721Y-32492D02*
X24721Y-31892D01*
X24950Y-31892D01*
X25007Y-31921D01*
X25035Y-31950D01*
X25064Y-32007D01*
X25064Y-32092D01*
X25035Y-32150D01*
X25007Y-32178D01*
X24950Y-32207D01*
X24721Y-32207D01*
X25578Y-32492D02*
X25578Y-32178D01*
X25550Y-32121D01*
X25492Y-32092D01*
X25378Y-32092D01*
X25321Y-32121D01*
X25578Y-32464D02*
X25521Y-32492D01*
X25378Y-32492D01*
X25321Y-32464D01*
X25292Y-32407D01*
X25292Y-32350D01*
X25321Y-32292D01*
X25378Y-32264D01*
X25521Y-32264D01*
X25578Y-32235D01*
X26121Y-32092D02*
X26121Y-32492D01*
X25864Y-32092D02*
X25864Y-32407D01*
X25892Y-32464D01*
X25949Y-32492D01*
X26035Y-32492D01*
X26092Y-32464D01*
X26121Y-32435D01*
X26492Y-32492D02*
X26435Y-32464D01*
X26407Y-32407D01*
X26407Y-31892D01*
X27521Y-32492D02*
X27321Y-32207D01*
X27178Y-32492D02*
X27178Y-31892D01*
X27407Y-31892D01*
X27464Y-31921D01*
X27492Y-31950D01*
X27521Y-32007D01*
X27521Y-32092D01*
X27492Y-32150D01*
X27464Y-32178D01*
X27407Y-32207D01*
X27178Y-32207D01*
X28007Y-32464D02*
X27950Y-32492D01*
X27835Y-32492D01*
X27778Y-32464D01*
X27750Y-32407D01*
X27750Y-32178D01*
X27778Y-32121D01*
X27835Y-32092D01*
X27950Y-32092D01*
X28007Y-32121D01*
X28035Y-32178D01*
X28035Y-32235D01*
X27750Y-32292D01*
X28292Y-32492D02*
X28292Y-32092D01*
X28292Y-31892D02*
X28264Y-31921D01*
X28292Y-31950D01*
X28321Y-31921D01*
X28292Y-31892D01*
X28292Y-31950D01*
X28835Y-32464D02*
X28778Y-32492D01*
X28664Y-32492D01*
X28607Y-32464D01*
X28578Y-32435D01*
X28550Y-32378D01*
X28550Y-32207D01*
X28578Y-32150D01*
X28607Y-32121D01*
X28664Y-32092D01*
X28778Y-32092D01*
X28835Y-32121D01*
X29092Y-32492D02*
X29092Y-31892D01*
X29350Y-32492D02*
X29350Y-32178D01*
X29321Y-32121D01*
X29264Y-32092D01*
X29178Y-32092D01*
X29121Y-32121D01*
X29092Y-32150D01*
X21292Y-31292D02*
X21292Y-30692D01*
X21435Y-30692D01*
X21521Y-30721D01*
X21578Y-30778D01*
X21607Y-30835D01*
X21635Y-30950D01*
X21635Y-31035D01*
X21607Y-31150D01*
X21578Y-31207D01*
X21521Y-31264D01*
X21435Y-31292D01*
X21292Y-31292D01*
X22121Y-31264D02*
X22064Y-31292D01*
X21950Y-31292D01*
X21892Y-31264D01*
X21864Y-31207D01*
X21864Y-30978D01*
X21892Y-30921D01*
X21950Y-30892D01*
X22064Y-30892D01*
X22121Y-30921D01*
X22150Y-30978D01*
X22150Y-31035D01*
X21864Y-31092D01*
X22378Y-31264D02*
X22435Y-31292D01*
X22550Y-31292D01*
X22607Y-31264D01*
X22635Y-31207D01*
X22635Y-31178D01*
X22607Y-31121D01*
X22550Y-31092D01*
X22464Y-31092D01*
X22407Y-31064D01*
X22378Y-31007D01*
X22378Y-30978D01*
X22407Y-30921D01*
X22464Y-30892D01*
X22550Y-30892D01*
X22607Y-30921D01*
X22892Y-31292D02*
X22892Y-30892D01*
X22892Y-30692D02*
X22864Y-30721D01*
X22892Y-30750D01*
X22921Y-30721D01*
X22892Y-30692D01*
X22892Y-30750D01*
X23435Y-30892D02*
X23435Y-31378D01*
X23407Y-31435D01*
X23378Y-31464D01*
X23321Y-31492D01*
X23235Y-31492D01*
X23178Y-31464D01*
X23435Y-31264D02*
X23378Y-31292D01*
X23264Y-31292D01*
X23207Y-31264D01*
X23178Y-31235D01*
X23150Y-31178D01*
X23150Y-31007D01*
X23178Y-30950D01*
X23207Y-30921D01*
X23264Y-30892D01*
X23378Y-30892D01*
X23435Y-30921D01*
X23721Y-30892D02*
X23721Y-31292D01*
X23721Y-30950D02*
X23750Y-30921D01*
X23807Y-30892D01*
X23892Y-30892D01*
X23950Y-30921D01*
X23978Y-30978D01*
X23978Y-31292D01*
X24492Y-31264D02*
X24435Y-31292D01*
X24321Y-31292D01*
X24264Y-31264D01*
X24235Y-31207D01*
X24235Y-30978D01*
X24264Y-30921D01*
X24321Y-30892D01*
X24435Y-30892D01*
X24492Y-30921D01*
X24521Y-30978D01*
X24521Y-31035D01*
X24235Y-31092D01*
X25035Y-31292D02*
X25035Y-30692D01*
X25035Y-31264D02*
X24978Y-31292D01*
X24864Y-31292D01*
X24807Y-31264D01*
X24778Y-31235D01*
X24750Y-31178D01*
X24750Y-31007D01*
X24778Y-30950D01*
X24807Y-30921D01*
X24864Y-30892D01*
X24978Y-30892D01*
X25035Y-30921D01*
X25321Y-31235D02*
X25350Y-31264D01*
X25321Y-31292D01*
X25292Y-31264D01*
X25321Y-31235D01*
X25321Y-31292D01*
X25321Y-30921D02*
X25350Y-30950D01*
X25321Y-30978D01*
X25292Y-30950D01*
X25321Y-30921D01*
X25321Y-30978D01*
X26064Y-31292D02*
X26064Y-30692D01*
X26292Y-30692D01*
X26349Y-30721D01*
X26378Y-30750D01*
X26407Y-30807D01*
X26407Y-30892D01*
X26378Y-30950D01*
X26349Y-30978D01*
X26292Y-31007D01*
X26064Y-31007D01*
X26921Y-31292D02*
X26921Y-30978D01*
X26892Y-30921D01*
X26835Y-30892D01*
X26721Y-30892D01*
X26664Y-30921D01*
X26921Y-31264D02*
X26864Y-31292D01*
X26721Y-31292D01*
X26664Y-31264D01*
X26635Y-31207D01*
X26635Y-31150D01*
X26664Y-31092D01*
X26721Y-31064D01*
X26864Y-31064D01*
X26921Y-31035D01*
X27464Y-30892D02*
X27464Y-31292D01*
X27207Y-30892D02*
X27207Y-31207D01*
X27235Y-31264D01*
X27292Y-31292D01*
X27378Y-31292D01*
X27435Y-31264D01*
X27464Y-31235D01*
X27835Y-31292D02*
X27778Y-31264D01*
X27749Y-31207D01*
X27749Y-30692D01*
X28864Y-31292D02*
X28664Y-31007D01*
X28521Y-31292D02*
X28521Y-30692D01*
X28750Y-30692D01*
X28807Y-30721D01*
X28835Y-30750D01*
X28864Y-30807D01*
X28864Y-30892D01*
X28835Y-30950D01*
X28807Y-30978D01*
X28750Y-31007D01*
X28521Y-31007D01*
X29350Y-31264D02*
X29292Y-31292D01*
X29178Y-31292D01*
X29121Y-31264D01*
X29092Y-31207D01*
X29092Y-30978D01*
X29121Y-30921D01*
X29178Y-30892D01*
X29292Y-30892D01*
X29350Y-30921D01*
X29378Y-30978D01*
X29378Y-31035D01*
X29092Y-31092D01*
X29635Y-31292D02*
X29635Y-30892D01*
X29635Y-30692D02*
X29607Y-30721D01*
X29635Y-30750D01*
X29664Y-30721D01*
X29635Y-30692D01*
X29635Y-30750D01*
X30178Y-31264D02*
X30121Y-31292D01*
X30007Y-31292D01*
X29950Y-31264D01*
X29921Y-31235D01*
X29892Y-31178D01*
X29892Y-31007D01*
X29921Y-30950D01*
X29950Y-30921D01*
X30007Y-30892D01*
X30121Y-30892D01*
X30178Y-30921D01*
X30435Y-31292D02*
X30435Y-30692D01*
X30692Y-31292D02*
X30692Y-30978D01*
X30664Y-30921D01*
X30607Y-30892D01*
X30521Y-30892D01*
X30464Y-30921D01*
X30435Y-30950D01*
X21292Y-30092D02*
X21292Y-29492D01*
X21521Y-29492D01*
X21578Y-29521D01*
X21607Y-29550D01*
X21635Y-29607D01*
X21635Y-29692D01*
X21607Y-29750D01*
X21578Y-29778D01*
X21521Y-29807D01*
X21292Y-29807D01*
X21892Y-30092D02*
X21892Y-29692D01*
X21892Y-29807D02*
X21921Y-29750D01*
X21950Y-29721D01*
X22007Y-29692D01*
X22064Y-29692D01*
X22350Y-30092D02*
X22292Y-30064D01*
X22264Y-30035D01*
X22235Y-29978D01*
X22235Y-29807D01*
X22264Y-29750D01*
X22292Y-29721D01*
X22350Y-29692D01*
X22435Y-29692D01*
X22492Y-29721D01*
X22521Y-29750D01*
X22550Y-29807D01*
X22550Y-29978D01*
X22521Y-30035D01*
X22492Y-30064D01*
X22435Y-30092D01*
X22350Y-30092D01*
X22807Y-29692D02*
X22807Y-30207D01*
X22778Y-30264D01*
X22721Y-30292D01*
X22692Y-30292D01*
X22807Y-29492D02*
X22778Y-29521D01*
X22807Y-29550D01*
X22835Y-29521D01*
X22807Y-29492D01*
X22807Y-29550D01*
X23321Y-30064D02*
X23264Y-30092D01*
X23150Y-30092D01*
X23092Y-30064D01*
X23064Y-30007D01*
X23064Y-29778D01*
X23092Y-29721D01*
X23150Y-29692D01*
X23264Y-29692D01*
X23321Y-29721D01*
X23350Y-29778D01*
X23350Y-29835D01*
X23064Y-29892D01*
X23864Y-30064D02*
X23807Y-30092D01*
X23692Y-30092D01*
X23635Y-30064D01*
X23607Y-30035D01*
X23578Y-29978D01*
X23578Y-29807D01*
X23607Y-29750D01*
X23635Y-29721D01*
X23692Y-29692D01*
X23807Y-29692D01*
X23864Y-29721D01*
X24035Y-29692D02*
X24264Y-29692D01*
X24121Y-29492D02*
X24121Y-30007D01*
X24150Y-30064D01*
X24207Y-30092D01*
X24264Y-30092D01*
X24921Y-30092D02*
X24921Y-29492D01*
X25121Y-29921D01*
X25321Y-29492D01*
X25321Y-30092D01*
X25864Y-29692D02*
X25864Y-30178D01*
X25835Y-30235D01*
X25807Y-30264D01*
X25750Y-30292D01*
X25664Y-30292D01*
X25607Y-30264D01*
X25864Y-30064D02*
X25807Y-30092D01*
X25692Y-30092D01*
X25635Y-30064D01*
X25607Y-30035D01*
X25578Y-29978D01*
X25578Y-29807D01*
X25607Y-29750D01*
X25635Y-29721D01*
X25692Y-29692D01*
X25807Y-29692D01*
X25864Y-29721D01*
X26150Y-30092D02*
X26150Y-29692D01*
X26150Y-29807D02*
X26178Y-29750D01*
X26207Y-29721D01*
X26264Y-29692D01*
X26321Y-29692D01*
X26521Y-30035D02*
X26550Y-30064D01*
X26521Y-30092D01*
X26492Y-30064D01*
X26521Y-30035D01*
X26521Y-30092D01*
X26521Y-29721D02*
X26550Y-29750D01*
X26521Y-29778D01*
X26492Y-29750D01*
X26521Y-29721D01*
X26521Y-29778D01*
X27607Y-30092D02*
X27407Y-29807D01*
X27264Y-30092D02*
X27264Y-29492D01*
X27492Y-29492D01*
X27550Y-29521D01*
X27578Y-29550D01*
X27607Y-29607D01*
X27607Y-29692D01*
X27578Y-29750D01*
X27550Y-29778D01*
X27492Y-29807D01*
X27264Y-29807D01*
X27864Y-30035D02*
X27892Y-30064D01*
X27864Y-30092D01*
X27835Y-30064D01*
X27864Y-30035D01*
X27864Y-30092D01*
X28950Y-30092D02*
X28750Y-29807D01*
X28607Y-30092D02*
X28607Y-29492D01*
X28835Y-29492D01*
X28892Y-29521D01*
X28921Y-29550D01*
X28950Y-29607D01*
X28950Y-29692D01*
X28921Y-29750D01*
X28892Y-29778D01*
X28835Y-29807D01*
X28607Y-29807D01*
X29207Y-30092D02*
X29207Y-29692D01*
X29207Y-29492D02*
X29178Y-29521D01*
X29207Y-29550D01*
X29235Y-29521D01*
X29207Y-29492D01*
X29207Y-29550D01*
X29464Y-30064D02*
X29521Y-30092D01*
X29635Y-30092D01*
X29692Y-30064D01*
X29721Y-30007D01*
X29721Y-29978D01*
X29692Y-29921D01*
X29635Y-29892D01*
X29550Y-29892D01*
X29492Y-29864D01*
X29464Y-29807D01*
X29464Y-29778D01*
X29492Y-29721D01*
X29550Y-29692D01*
X29635Y-29692D01*
X29692Y-29721D01*
X29892Y-29692D02*
X30121Y-29692D01*
X29978Y-29492D02*
X29978Y-30007D01*
X30007Y-30064D01*
X30064Y-30092D01*
X30121Y-30092D01*
X30321Y-30092D02*
X30321Y-29692D01*
X30321Y-29492D02*
X30292Y-29521D01*
X30321Y-29550D01*
X30350Y-29521D01*
X30321Y-29492D01*
X30321Y-29550D01*
X30864Y-30064D02*
X30807Y-30092D01*
X30692Y-30092D01*
X30635Y-30064D01*
X30607Y-30035D01*
X30578Y-29978D01*
X30578Y-29807D01*
X30607Y-29750D01*
X30635Y-29721D01*
X30692Y-29692D01*
X30807Y-29692D01*
X30864Y-29721D01*
X31121Y-30092D02*
X31121Y-29492D01*
X31378Y-30092D02*
X31378Y-29778D01*
X31350Y-29721D01*
X31292Y-29692D01*
X31207Y-29692D01*
X31150Y-29721D01*
X31121Y-29750D01*
X21635Y-28835D02*
X21607Y-28864D01*
X21521Y-28892D01*
X21464Y-28892D01*
X21378Y-28864D01*
X21321Y-28807D01*
X21292Y-28750D01*
X21264Y-28635D01*
X21264Y-28550D01*
X21292Y-28435D01*
X21321Y-28378D01*
X21378Y-28321D01*
X21464Y-28292D01*
X21521Y-28292D01*
X21607Y-28321D01*
X21635Y-28350D01*
X22235Y-28835D02*
X22207Y-28864D01*
X22121Y-28892D01*
X22064Y-28892D01*
X21978Y-28864D01*
X21921Y-28807D01*
X21892Y-28750D01*
X21864Y-28635D01*
X21864Y-28550D01*
X21892Y-28435D01*
X21921Y-28378D01*
X21978Y-28321D01*
X22064Y-28292D01*
X22121Y-28292D01*
X22207Y-28321D01*
X22235Y-28350D01*
X22492Y-28664D02*
X22950Y-28664D01*
X23435Y-28578D02*
X23521Y-28607D01*
X23550Y-28635D01*
X23578Y-28692D01*
X23578Y-28778D01*
X23550Y-28835D01*
X23521Y-28864D01*
X23464Y-28892D01*
X23235Y-28892D01*
X23235Y-28292D01*
X23435Y-28292D01*
X23492Y-28321D01*
X23521Y-28350D01*
X23550Y-28407D01*
X23550Y-28464D01*
X23521Y-28521D01*
X23492Y-28550D01*
X23435Y-28578D01*
X23235Y-28578D01*
X23950Y-28607D02*
X23950Y-28892D01*
X23750Y-28292D02*
X23950Y-28607D01*
X24150Y-28292D01*
X24350Y-28664D02*
X24807Y-28664D01*
X25064Y-28864D02*
X25150Y-28892D01*
X25292Y-28892D01*
X25350Y-28864D01*
X25378Y-28835D01*
X25407Y-28778D01*
X25407Y-28721D01*
X25378Y-28664D01*
X25350Y-28635D01*
X25292Y-28607D01*
X25178Y-28578D01*
X25121Y-28550D01*
X25092Y-28521D01*
X25064Y-28464D01*
X25064Y-28407D01*
X25092Y-28350D01*
X25121Y-28321D01*
X25178Y-28292D01*
X25321Y-28292D01*
X25407Y-28321D01*
X25635Y-28721D02*
X25921Y-28721D01*
X25578Y-28892D02*
X25778Y-28292D01*
X25978Y-28892D01*
X26178Y-28664D02*
X26635Y-28664D01*
X26864Y-28292D02*
X27235Y-28292D01*
X27035Y-28521D01*
X27121Y-28521D01*
X27178Y-28550D01*
X27207Y-28578D01*
X27235Y-28635D01*
X27235Y-28778D01*
X27207Y-28835D01*
X27178Y-28864D01*
X27121Y-28892D01*
X26950Y-28892D01*
X26892Y-28864D01*
X26864Y-28835D01*
X27492Y-28835D02*
X27521Y-28864D01*
X27492Y-28892D01*
X27464Y-28864D01*
X27492Y-28835D01*
X27492Y-28892D01*
X27892Y-28292D02*
X27950Y-28292D01*
X28007Y-28321D01*
X28035Y-28350D01*
X28064Y-28407D01*
X28092Y-28521D01*
X28092Y-28664D01*
X28064Y-28778D01*
X28035Y-28835D01*
X28007Y-28864D01*
X27950Y-28892D01*
X27892Y-28892D01*
X27835Y-28864D01*
X27807Y-28835D01*
X27778Y-28778D01*
X27750Y-28664D01*
X27750Y-28521D01*
X27778Y-28407D01*
X27807Y-28350D01*
X27835Y-28321D01*
X27892Y-28292D01*
X20550Y-28050D02*
X20550Y-40050D01*
X20550Y-34050D02*
X62550Y-34050D01*
X20550Y-28050D02*
X62550Y-28050D01*
X20550Y-36450D02*
X62550Y-36450D01*
X53750Y-37650D02*
X53750Y-40050D01*
X20550Y-38850D02*
X62550Y-38850D01*
X20550Y-37650D02*
X62550Y-37650D01*
X27150Y-37650D02*
X27150Y-38850D01*
X4500Y18000D02*
G75*
G03X4500Y18000I-1000J0D01*
G74*
G01*
X2000Y18000D02*
X5000Y18000D01*
X3500Y19500D02*
X3500Y16500D01*
X40000Y-5750D02*
G75*
G03X40000Y-5750I-1000J0D01*
G74*
G01*
X37500Y-5750D02*
X40500Y-5750D01*
X39000Y-4250D02*
X39000Y-7250D01*
X39000Y16500D02*
X38750Y16750D01*
X38750Y-4250D02*
X39000Y-4000D01*
X-5000Y-4250D02*
X-5250Y-4000D01*
X-5250Y16500D02*
X-5000Y16750D01*
X-5250Y11100D02*
X-5250Y-4000D01*
X-5250Y16500D02*
X-5250Y12050D01*
X-1000Y11100D02*
X-5250Y11100D01*
X-1000Y12050D02*
X-1000Y11100D01*
X-5250Y12050D02*
X-1000Y12050D01*
G54D11*
X38750Y16750D02*
X-5000Y16750D01*
G54D10*
X39000Y-4000D02*
X39000Y16500D01*
G54D11*
X-5000Y-4250D02*
X38750Y-4250D01*
G54D12*
X3550Y15359D03*
X3550Y13941D03*
G54D13*
X16750Y500D03*
X13750Y1000D03*
X14250Y1000D03*
X14750Y1000D03*
X15250Y1000D03*
X16250Y1000D03*
X15750Y1000D03*
G54D14*
X28241Y12350D03*
X29359Y12350D03*
G54D15*
X28100Y4350D03*
X28300Y4350D03*
X28700Y4350D03*
X28500Y4350D03*
X29300Y4350D03*
X29500Y4350D03*
X29100Y4350D03*
X28900Y4350D03*
X27300Y4350D03*
X27500Y4350D03*
X27900Y4350D03*
X27700Y4350D03*
X26900Y4350D03*
X27100Y4350D03*
X26700Y4350D03*
G54D16*
X29800Y4650D03*
X29800Y4850D03*
X29800Y5250D03*
X29800Y5450D03*
X29800Y5650D03*
X29800Y5850D03*
X29800Y7250D03*
X29800Y7450D03*
G54D15*
X29500Y7950D03*
X29300Y7950D03*
X28900Y7950D03*
G54D16*
X29800Y5050D03*
G54D17*
X28700Y6850D03*
X28700Y5450D03*
X27300Y5450D03*
X27300Y6850D03*
G54D18*
X26900Y7964D03*
X26700Y7964D03*
G54D16*
X26200Y7050D03*
X26200Y6850D03*
X26200Y6650D03*
X26200Y6450D03*
X26200Y6250D03*
X26200Y6050D03*
X26200Y5850D03*
X29800Y6050D03*
X29800Y6250D03*
X29800Y6450D03*
X29800Y6650D03*
X29800Y6850D03*
G54D15*
X28700Y7950D03*
X28500Y7950D03*
X28300Y7950D03*
X28100Y7950D03*
G54D18*
X26500Y7964D03*
G54D16*
X26200Y7650D03*
X26200Y7450D03*
X26200Y7250D03*
X26200Y5650D03*
X26200Y5450D03*
X26200Y5250D03*
X26200Y5050D03*
X26200Y4850D03*
X26200Y4650D03*
G54D15*
X26500Y4350D03*
G54D19*
X28000Y5450D03*
G54D20*
X27300Y6150D03*
G54D19*
X28000Y6850D03*
G54D20*
X28700Y6150D03*
G54D21*
X28000Y6150D03*
G54D15*
X27900Y7950D03*
X27700Y7950D03*
X27500Y7950D03*
X27300Y7950D03*
X27100Y7950D03*
X29100Y7950D03*
G54D16*
X29800Y7050D03*
G54D22*
X27300Y6150D03*
X23750Y14500D03*
X22750Y14500D03*
G54D23*
X4000Y12250D03*
X3000Y12250D03*
G54D24*
X15150Y15750D03*
G54D25*
X14150Y15750D03*
X13150Y15750D03*
X12150Y15750D03*
X11150Y15750D03*
X10150Y15750D03*
X9150Y15750D03*
X8150Y15750D03*
G54D13*
X11250Y-2000D03*
X12250Y-1000D03*
X11750Y-1500D03*
X11250Y-1500D03*
X11750Y-1000D03*
X11250Y-1000D03*
X16250Y0D03*
X16250Y500D03*
X16750Y1000D03*
X16750Y0D03*
X15750Y0D03*
X15750Y500D03*
X15250Y500D03*
X15250Y0D03*
X15250Y-500D03*
X15750Y-500D03*
X16750Y-500D03*
X16250Y-500D03*
X14250Y-500D03*
X14750Y-500D03*
X13750Y-500D03*
X13250Y-500D03*
X11250Y-500D03*
X11750Y-500D03*
X12750Y-500D03*
X12250Y-500D03*
X12250Y0D03*
X12250Y500D03*
X12750Y500D03*
X12750Y0D03*
X11750Y0D03*
X11750Y500D03*
X11250Y500D03*
X11250Y0D03*
X13250Y0D03*
X13250Y500D03*
X13750Y500D03*
X13750Y0D03*
X14750Y0D03*
X14750Y500D03*
X14250Y500D03*
X14250Y0D03*
X10250Y-3000D03*
X10250Y-2500D03*
X10250Y-2000D03*
X10250Y-1500D03*
X10250Y-1000D03*
X10250Y-500D03*
X10250Y0D03*
X10250Y500D03*
X10750Y500D03*
X10750Y0D03*
X10750Y-500D03*
X10750Y-1000D03*
X10750Y-1500D03*
X10750Y-2000D03*
X10750Y-2500D03*
X10750Y-3000D03*
X9750Y-3000D03*
X9750Y-2500D03*
X9750Y-2000D03*
X9750Y-1500D03*
X9750Y-1000D03*
X9750Y-500D03*
X9750Y0D03*
X9750Y500D03*
X9250Y500D03*
X9250Y0D03*
X9250Y-500D03*
X9250Y-1000D03*
X9250Y-1500D03*
X9250Y-2000D03*
X9250Y-2500D03*
X9250Y-3000D03*
X6250Y-3000D03*
X6250Y-2500D03*
X6250Y-2000D03*
X6250Y-1500D03*
X6250Y-1000D03*
X6250Y-500D03*
X6250Y0D03*
X6250Y500D03*
X6750Y500D03*
X6750Y0D03*
X6750Y-500D03*
X6750Y-1000D03*
X6750Y-1500D03*
X6750Y-2000D03*
X6750Y-2500D03*
X6750Y-3000D03*
X5750Y-3000D03*
X5750Y-2500D03*
X5750Y-2000D03*
X5750Y-1500D03*
X5750Y-1000D03*
X5750Y-500D03*
X5750Y0D03*
X5750Y500D03*
X5250Y500D03*
X5250Y0D03*
X5250Y-500D03*
X5250Y-1000D03*
X5250Y-1500D03*
X5250Y-2000D03*
X5250Y-2500D03*
X5250Y-3000D03*
X7250Y-3000D03*
X7250Y-2500D03*
X7250Y-2000D03*
X7250Y-1500D03*
X7250Y-1000D03*
X7250Y-500D03*
X7250Y0D03*
X7250Y500D03*
X7750Y500D03*
X7750Y0D03*
X7750Y-500D03*
X7750Y-1000D03*
X7750Y-1500D03*
X7750Y-2000D03*
X7750Y-2500D03*
X7750Y-3000D03*
X8750Y-3000D03*
X8750Y-2500D03*
X8750Y-2000D03*
X8750Y-1500D03*
X8750Y-1000D03*
X8750Y-500D03*
X8750Y0D03*
X8750Y500D03*
X8250Y500D03*
X8250Y0D03*
X8250Y-500D03*
X8250Y-1000D03*
X8250Y-1500D03*
X8250Y-2000D03*
X8250Y-2500D03*
X8250Y-3000D03*
X4250Y-3000D03*
X4250Y-2500D03*
X4250Y-2000D03*
X4250Y-1500D03*
X4250Y-1000D03*
X4250Y-500D03*
X4250Y0D03*
X4250Y500D03*
X4750Y500D03*
X4750Y0D03*
X4750Y-500D03*
X4750Y-1000D03*
X4750Y-1500D03*
X4750Y-2000D03*
X4750Y-2500D03*
X4750Y-3000D03*
X3750Y-3000D03*
X3750Y-2500D03*
X3750Y-2000D03*
X3750Y-1500D03*
X3750Y-1000D03*
X3750Y-500D03*
X3750Y0D03*
X3750Y500D03*
X3250Y500D03*
X3250Y0D03*
X3250Y-500D03*
X3250Y-1000D03*
X3250Y-1500D03*
X3250Y-2000D03*
X3250Y-2500D03*
X3250Y-3000D03*
X1250Y-3000D03*
X1250Y-2500D03*
X1250Y-2000D03*
X1250Y-1500D03*
X1250Y-1000D03*
X1250Y-500D03*
X1250Y0D03*
X1250Y500D03*
X1750Y500D03*
X1750Y0D03*
X1750Y-500D03*
X1750Y-1000D03*
X1750Y-1500D03*
X1750Y-2000D03*
X1750Y-2500D03*
X1750Y-3000D03*
X2750Y-3000D03*
X2750Y-2500D03*
X2750Y-2000D03*
X2750Y-1500D03*
X2750Y-1000D03*
X2750Y-500D03*
X2750Y0D03*
X2750Y500D03*
X2250Y500D03*
X2250Y0D03*
X2250Y-500D03*
X2250Y-1000D03*
X2250Y-1500D03*
X2250Y-2000D03*
X2250Y-2500D03*
X2250Y-3000D03*
G54D26*
X18600Y2700D03*
X15900Y4300D03*
X18600Y4300D03*
X15900Y2700D03*
X18600Y8200D03*
X15900Y9800D03*
X18600Y9800D03*
X15900Y8200D03*
X18600Y5450D03*
X15900Y7050D03*
X18600Y7050D03*
X15900Y5450D03*
G54D27*
X31122Y-416D03*
X31122Y1316D03*
X30178Y1316D03*
X30178Y-416D03*
G54D28*
X30230Y10280D03*
X28070Y10280D03*
X28070Y9020D03*
X30230Y9020D03*
G54D24*
X23750Y15750D03*
G54D25*
X22750Y15750D03*
X21750Y15750D03*
X20750Y15750D03*
X19750Y15750D03*
X18750Y15750D03*
X17750Y15750D03*
X16750Y15750D03*
G54D29*
X5725Y15750D03*
X4975Y15750D03*
X5725Y14750D03*
X5350Y15750D03*
X4975Y14750D03*
G54D30*
X15750Y12300D03*
X14450Y12300D03*
X0Y15450D03*
X1300Y15450D03*
X25900Y1750D03*
X27200Y1750D03*
G54D31*
X27150Y9600D03*
X27150Y10900D03*
G54D30*
X6800Y13850D03*
X5500Y13850D03*
G54D31*
X50Y14000D03*
X50Y12700D03*
X1350Y14000D03*
X1350Y12700D03*
G54D32*
X29500Y950D03*
X29500Y1550D03*
G54D33*
X29600Y3350D03*
X30200Y3350D03*
G54D32*
X6750Y14950D03*
X6750Y15550D03*
G54D33*
X28400Y11100D03*
X29000Y11100D03*
G54D32*
X28800Y950D03*
X28800Y1550D03*
G54D33*
X30200Y11100D03*
X29600Y11100D03*
G54D32*
X25600Y7450D03*
X25600Y8050D03*
G54D33*
X26850Y14350D03*
X27450Y14350D03*
X27050Y750D03*
X26450Y750D03*
X19700Y7750D03*
X20300Y7750D03*
X5650Y11750D03*
X6250Y11750D03*
G54D32*
X12750Y2100D03*
X12750Y1500D03*
G54D33*
X7750Y14050D03*
X8350Y14050D03*
X19700Y9950D03*
X20300Y9950D03*
X14450Y11400D03*
X15050Y11400D03*
G54D32*
X25600Y8550D03*
X25600Y9150D03*
X12750Y8100D03*
X12750Y7500D03*
G54D33*
X12800Y14750D03*
X12200Y14750D03*
X12800Y14000D03*
X12200Y14000D03*
G54D32*
X12750Y4100D03*
X12750Y3500D03*
G54D33*
X15050Y-2150D03*
X14450Y-2150D03*
G54D32*
X12750Y6100D03*
X12750Y5500D03*
G54D33*
X26850Y12350D03*
X27450Y12350D03*
X26850Y13350D03*
X27450Y13350D03*
G54D32*
X12750Y10100D03*
X12750Y9500D03*
G54D34*
X30473Y6475D03*
X30827Y6475D03*
X29027Y3450D03*
X28673Y3450D03*
X30473Y6025D03*
X30827Y6025D03*
G54D24*
X11750Y-3250D03*
G54D25*
X12750Y-3250D03*
X13750Y-3250D03*
X14750Y-3250D03*
X15750Y-3250D03*
X16750Y-3250D03*
G54D24*
X18750Y-3250D03*
G54D25*
X19750Y-3250D03*
X20750Y-3250D03*
X21750Y-3250D03*
X22750Y-3250D03*
X23750Y-3250D03*
G54D35*
X19000Y12500D03*
G54D22*
X19000Y11500D03*
X18000Y12500D03*
X18000Y11500D03*
X17000Y12500D03*
X17000Y11500D03*
G54D30*
X30750Y2450D03*
X29450Y2450D03*
G54D36*
X37750Y6550D03*
G54D37*
X38050Y6550D03*
G54D38*
X38050Y15650D03*
X36750Y15650D03*
X36750Y15850D03*
X38250Y15850D03*
X38250Y-3350D03*
X36750Y-3350D03*
X36750Y-3150D03*
X38050Y-3150D03*
G54D37*
X38050Y5950D03*
G54D36*
X37750Y5950D03*
G54D38*
X36750Y16050D03*
X38450Y16050D03*
X38450Y-3550D03*
X36750Y-3550D03*
G54D39*
X7050Y7691D03*
X7050Y8809D03*
X7050Y9691D03*
X7050Y10809D03*
X8650Y1691D03*
X8650Y2809D03*
X8650Y3691D03*
X8650Y4809D03*
X8650Y5691D03*
X8650Y6809D03*
X8650Y7691D03*
X8650Y8809D03*
X8650Y9691D03*
X8650Y10809D03*
X10250Y1691D03*
X10250Y2809D03*
X10250Y7691D03*
X10250Y8809D03*
X10250Y9691D03*
X10250Y10809D03*
X11850Y1691D03*
X11850Y2809D03*
X11850Y3691D03*
X11850Y4809D03*
X11850Y5691D03*
X11850Y6809D03*
X11850Y7691D03*
X11850Y8809D03*
X5450Y3691D03*
X5450Y4809D03*
X10250Y3691D03*
X10250Y4809D03*
X10250Y5691D03*
X10250Y6809D03*
X650Y1691D03*
X650Y2809D03*
X650Y3691D03*
X650Y4809D03*
X650Y5691D03*
X650Y6809D03*
X650Y7691D03*
X650Y8809D03*
X650Y9691D03*
X650Y10809D03*
X2250Y1691D03*
X2250Y2809D03*
X2250Y3691D03*
X2250Y4809D03*
X2250Y5691D03*
X2250Y6809D03*
X2250Y7691D03*
X2250Y8809D03*
X2250Y9691D03*
X2250Y10809D03*
X7050Y5691D03*
X7050Y6809D03*
X3850Y3691D03*
X3850Y4809D03*
X3850Y5691D03*
X3850Y6809D03*
X3850Y7691D03*
X3850Y8809D03*
X3850Y9691D03*
X3850Y10809D03*
X5450Y1691D03*
X5450Y2809D03*
X5450Y5691D03*
X5450Y6809D03*
X5450Y7691D03*
X5450Y8809D03*
X5450Y9691D03*
X5450Y10809D03*
X7050Y1691D03*
X7050Y2809D03*
X7050Y3691D03*
X7050Y4809D03*
X3850Y1691D03*
X3850Y2809D03*
G54D14*
X7291Y11750D03*
X8409Y11750D03*
G54D39*
X11850Y9691D03*
X11850Y10809D03*
G54D14*
X28241Y13350D03*
X29359Y13350D03*
X28241Y14350D03*
X29359Y14350D03*
G54D40*
X-3150Y15800D03*
G54D41*
X-2900Y14800D03*
X-2900Y14000D03*
G54D42*
X-3050Y13000D03*
G54D43*
X0Y0D03*
G54D44*
X28700Y2400D03*
X25000Y2650D03*
X2250Y15500D03*
X24500Y11400D03*
X13250Y14000D03*
X24500Y12200D03*
X24500Y12900D03*
X24850Y13650D03*
X13250Y14750D03*
X23700Y12900D03*
X24050Y13650D03*
X23250Y13650D03*
X13400Y3400D03*
X22900Y5450D03*
X22450Y5050D03*
X13400Y4100D03*
X22900Y4650D03*
X13400Y6100D03*
X22450Y4250D03*
X13400Y8100D03*
X22900Y3850D03*
X13400Y10100D03*
X20550Y13900D03*
X21200Y13900D03*
X1450Y4850D03*
X1450Y2900D03*
X1450Y6850D03*
X1450Y10800D03*
X1450Y8850D03*
X3050Y4850D03*
X3050Y2900D03*
X3050Y6850D03*
X3050Y10800D03*
X3050Y8850D03*
X4650Y4850D03*
X4650Y2900D03*
X4650Y6850D03*
X4650Y10800D03*
X4650Y8850D03*
X6250Y2900D03*
X6250Y4850D03*
X6250Y6850D03*
X6250Y10800D03*
X6250Y8850D03*
X7850Y4850D03*
X7850Y6850D03*
X7850Y2900D03*
X7850Y10800D03*
X7850Y8850D03*
X9450Y4850D03*
X9450Y2900D03*
X9450Y6850D03*
X9450Y8850D03*
X9450Y10800D03*
X11050Y6850D03*
X11050Y2900D03*
X25850Y-3350D03*
X11050Y4850D03*
X11050Y10800D03*
X11050Y8850D03*
X12650Y6850D03*
X12650Y2900D03*
X12650Y4850D03*
X12650Y8850D03*
X12650Y10800D03*
X26850Y-3350D03*
X9450Y13459D03*
X17450Y5200D03*
X18300Y800D03*
X24700Y5450D03*
X27150Y8750D03*
X700Y11900D03*
X5500Y12900D03*
X29200Y10300D03*
X28900Y8750D03*
X24700Y7450D03*
X27450Y2900D03*
X30800Y3350D03*
X31300Y6550D03*
X37200Y5950D03*
X28350Y50D03*
X20050Y9100D03*
X31350Y7950D03*
X20050Y8450D03*
X30750Y7950D03*
X15750Y11400D03*
X15750Y6250D03*
X31350Y7350D03*
G54D45*
X14450Y11400D02*
X14450Y12300D01*
G54D46*
X11600Y13100D02*
X10650Y14050D01*
X10650Y14050D02*
X8650Y14050D01*
G54D47*
X8350Y14050D02*
X8650Y14050D01*
G54D48*
X19000Y11500D02*
X19000Y10650D01*
G54D47*
X14450Y12300D02*
X14400Y12350D01*
X14400Y12350D02*
X13650Y12350D01*
G54D46*
X11600Y13100D02*
X13250Y13100D01*
X13250Y13100D02*
X13650Y12700D01*
X13650Y12700D02*
X13650Y12350D01*
X19000Y10650D02*
X13900Y10650D01*
X13650Y10900D02*
X13900Y10650D01*
X13650Y12350D02*
X13650Y10900D01*
X21000Y6850D02*
X21000Y10350D01*
X21000Y10350D02*
X20700Y10650D01*
X20700Y10650D02*
X19000Y10650D01*
X24950Y2600D02*
X25000Y2650D01*
X20600Y6450D02*
X21000Y6850D01*
X20600Y3750D02*
X20600Y6450D01*
X21750Y2600D02*
X20600Y3750D01*
X24950Y2600D02*
X21750Y2600D01*
G54D47*
X26700Y7350D02*
X26800Y7450D01*
G54D49*
X28300Y7550D02*
X28300Y7950D01*
G54D47*
X28200Y7450D02*
X28300Y7550D01*
X26800Y7450D02*
X28200Y7450D01*
G54D49*
X26200Y7450D02*
X26600Y7450D01*
G54D47*
X26700Y7350D02*
X26700Y5400D01*
G54D49*
X26600Y7450D02*
X26700Y7350D01*
G54D47*
X25000Y2650D02*
X25400Y3050D01*
G54D45*
X28350Y3700D02*
X28350Y2866D01*
X28500Y3850D02*
X28350Y3700D01*
G54D49*
X28500Y4350D02*
X28500Y3850D01*
G54D47*
X28350Y2866D02*
X28700Y2400D01*
G54D46*
X25900Y1750D02*
X25000Y2650D01*
G54D48*
X18250Y-1400D02*
X18100Y-1550D01*
X13150Y-1550D02*
X12750Y-1950D01*
X18100Y-1550D02*
X13150Y-1550D01*
G54D47*
X25400Y3050D02*
X26989Y3050D01*
G54D49*
X27500Y3560D02*
X26989Y3050D01*
X27500Y4350D02*
X27500Y3560D01*
G54D48*
X25900Y1750D02*
X25900Y1800D01*
X12750Y-3250D02*
X12750Y-1950D01*
X26050Y-850D02*
X26050Y750D01*
X25500Y-1400D02*
X26050Y-850D01*
X18250Y-1400D02*
X25500Y-1400D01*
G54D50*
X26450Y750D02*
X26050Y750D01*
X25900Y900D02*
X25900Y1750D01*
X26050Y750D02*
X25900Y900D01*
G54D49*
X26200Y5450D02*
X26700Y5450D01*
X27500Y4350D02*
X27500Y4800D01*
G54D47*
X26700Y5000D02*
X26700Y5400D01*
X26700Y5400D02*
X26700Y5450D01*
X26850Y4850D02*
X26700Y5000D01*
X27450Y4850D02*
X26850Y4850D01*
X27500Y4800D02*
X27450Y4850D01*
G54D45*
X4700Y12050D02*
X5000Y11750D01*
X2250Y15500D02*
X2250Y13850D01*
X2250Y13850D02*
X2900Y13200D01*
X2900Y13200D02*
X4400Y13200D01*
X4400Y13200D02*
X4700Y12900D01*
X4700Y12900D02*
X4700Y12050D01*
X5000Y11750D02*
X5650Y11750D01*
G54D50*
X13750Y-3250D02*
X13750Y-2350D01*
X13950Y-2150D02*
X14450Y-2150D01*
X13750Y-2350D02*
X13950Y-2150D01*
G54D48*
X2250Y15500D02*
X3409Y15500D01*
X3409Y15500D02*
X3550Y15359D01*
X2250Y15500D02*
X1350Y15500D01*
X3541Y15359D02*
X3400Y15500D01*
X3550Y15359D02*
X3541Y15359D01*
X1350Y15500D02*
X1300Y15450D01*
G54D47*
X4975Y15750D02*
X4975Y15775D01*
X3550Y15900D02*
X3550Y15359D01*
X3650Y16000D02*
X3550Y15900D01*
X4750Y16000D02*
X3650Y16000D01*
X4975Y15775D02*
X4750Y16000D01*
G54D45*
X5725Y15750D02*
X5725Y16075D01*
X4975Y16075D02*
X4975Y15750D01*
X5050Y16150D02*
X4975Y16075D01*
X5650Y16150D02*
X5050Y16150D01*
X5725Y16075D02*
X5650Y16150D01*
X26100Y13050D02*
X26100Y12750D01*
X26100Y12750D02*
X24750Y11400D01*
X24750Y11400D02*
X24500Y11400D01*
X26850Y14350D02*
X26500Y14350D01*
X26250Y13200D02*
X26100Y13050D01*
X26250Y14100D02*
X26250Y13200D01*
X26500Y14350D02*
X26250Y14100D01*
X25600Y7050D02*
X24350Y7050D01*
X24250Y11150D02*
X24250Y7150D01*
X25800Y6850D02*
X26200Y6850D01*
X25800Y6850D02*
X25600Y7050D01*
X24350Y7050D02*
X24250Y7150D01*
X24500Y11400D02*
X24250Y11150D01*
X18000Y11500D02*
X18500Y12000D01*
X13450Y14200D02*
X13250Y14000D01*
X17550Y14200D02*
X13450Y14200D01*
X18500Y13250D02*
X17550Y14200D01*
X18500Y12000D02*
X18500Y13250D01*
X12800Y14000D02*
X13250Y14000D01*
X24450Y12200D02*
X24050Y11800D01*
X24050Y11800D02*
X24050Y6950D01*
X25700Y6650D02*
X25500Y6850D01*
X25700Y6650D02*
X26200Y6650D01*
X24150Y6850D02*
X25500Y6850D01*
X24150Y6850D02*
X24050Y6950D01*
X24450Y12200D02*
X24500Y12200D01*
X24500Y12800D02*
X24500Y12900D01*
X25600Y6450D02*
X26200Y6450D01*
X23850Y6750D02*
X23850Y12150D01*
X23950Y6650D02*
X23850Y6750D01*
X25400Y6650D02*
X23950Y6650D01*
X25600Y6450D02*
X25400Y6650D01*
X23850Y12150D02*
X24500Y12800D01*
X23750Y6450D02*
X23650Y6550D01*
X25300Y6450D02*
X23750Y6450D01*
X25500Y6250D02*
X25300Y6450D01*
X26200Y6250D02*
X25500Y6250D01*
X24100Y12700D02*
X24100Y13100D01*
X23650Y12250D02*
X24100Y12700D01*
X24499Y13650D02*
X24850Y13650D01*
X24450Y13600D02*
X24499Y13650D01*
X24450Y13450D02*
X24450Y13600D01*
X23650Y12250D02*
X23650Y6550D01*
X24100Y13100D02*
X24450Y13450D01*
X13250Y14750D02*
X12800Y14750D01*
X23450Y12650D02*
X23700Y12900D01*
X25409Y6050D02*
X26200Y6050D01*
X23450Y6350D02*
X23450Y12650D01*
X23550Y6250D02*
X23450Y6350D01*
X25209Y6250D02*
X23550Y6250D01*
X25409Y6050D02*
X25209Y6250D01*
X23250Y6150D02*
X23250Y13050D01*
X23650Y13450D02*
X23650Y13600D01*
X23650Y13600D02*
X23700Y13650D01*
X23700Y13650D02*
X24050Y13650D01*
X25300Y5850D02*
X25100Y6050D01*
X25100Y6050D02*
X23350Y6050D01*
X23350Y6050D02*
X23250Y6150D01*
X26200Y5850D02*
X25300Y5850D01*
X23250Y13050D02*
X23650Y13450D01*
X23050Y13450D02*
X23250Y13650D01*
X26200Y5650D02*
X25200Y5650D01*
X23150Y5850D02*
X23050Y5950D01*
X25000Y5850D02*
X23150Y5850D01*
X25200Y5650D02*
X25000Y5850D01*
X23050Y5950D02*
X23050Y13450D01*
G54D47*
X12750Y2100D02*
X12750Y2350D01*
X12750Y2350D02*
X12900Y2500D01*
X12900Y2500D02*
X13200Y2500D01*
X13200Y2500D02*
X13400Y2700D01*
X13400Y2700D02*
X13400Y3400D01*
G54D45*
X23050Y14050D02*
X23200Y14050D01*
X23200Y14050D02*
X23300Y14150D01*
X23300Y14150D02*
X23300Y14450D01*
X23300Y14450D02*
X23350Y14500D01*
X23350Y14500D02*
X23550Y14500D01*
X23750Y14500D02*
X23550Y14500D01*
G54D49*
X26200Y5050D02*
X25650Y5050D01*
G54D45*
X23800Y14450D02*
X23750Y14500D01*
G54D48*
X23750Y14500D02*
X23750Y15750D01*
G54D45*
X22850Y13850D02*
X23050Y14050D01*
X25650Y5050D02*
X23750Y5050D01*
X22850Y13850D02*
X22850Y5500D01*
X22850Y5500D02*
X22900Y5450D01*
X22900Y5450D02*
X23350Y5450D01*
X23350Y5450D02*
X23750Y5050D01*
X13400Y4100D02*
X12750Y4100D01*
X22650Y14400D02*
X22650Y5900D01*
X22750Y14500D02*
X22650Y14400D01*
X22450Y5700D02*
X22450Y5050D01*
X22650Y5900D02*
X22450Y5700D01*
G54D49*
X26200Y4850D02*
X25800Y4850D01*
G54D45*
X25800Y4850D02*
X23300Y4850D01*
X23300Y4850D02*
X23100Y5050D01*
X23100Y5050D02*
X22450Y5050D01*
G54D48*
X22750Y14500D02*
X22750Y15750D01*
G54D49*
X12750Y6100D02*
X13400Y6100D01*
G54D45*
X22450Y13900D02*
X22150Y14200D01*
X22150Y14700D02*
X21850Y15000D01*
X22150Y14200D02*
X22150Y14700D01*
X19850Y15000D02*
X19750Y15100D01*
X21850Y15000D02*
X19850Y15000D01*
X19750Y15750D02*
X19750Y15100D01*
X22050Y5600D02*
X22450Y6000D01*
X22450Y6000D02*
X22450Y13900D01*
X22200Y4650D02*
X22050Y4800D01*
X22200Y4650D02*
X22900Y4650D01*
X22050Y4800D02*
X22050Y5600D01*
X25800Y4650D02*
X22900Y4650D01*
G54D49*
X26200Y4650D02*
X25800Y4650D01*
G54D45*
X13400Y8100D02*
X12750Y8100D01*
X23300Y4350D02*
X23199Y4243D01*
X23199Y4243D02*
X22450Y4250D01*
X18750Y15750D02*
X18750Y15100D01*
X18750Y15100D02*
X19050Y14800D01*
X19050Y14800D02*
X21550Y14800D01*
X21550Y14800D02*
X21900Y14450D01*
X21900Y14450D02*
X21900Y14050D01*
X21900Y14050D02*
X22250Y13700D01*
X21850Y5703D02*
X21850Y4549D01*
X22250Y6097D02*
X21850Y5703D01*
X22250Y13700D02*
X22250Y6097D01*
X21850Y4549D02*
X22149Y4250D01*
X22149Y4250D02*
X22450Y4250D01*
X23300Y4350D02*
X26500Y4350D01*
X13400Y10100D02*
X12750Y10100D01*
X21300Y14600D02*
X21650Y14250D01*
X22900Y3850D02*
X22200Y3850D01*
X22200Y3850D02*
X21650Y4400D01*
X22050Y13550D02*
X21650Y13950D01*
X21650Y13950D02*
X21650Y14250D01*
X21650Y4400D02*
X21650Y5795D01*
X21650Y5795D02*
X22050Y6204D01*
X22050Y6204D02*
X22050Y13550D01*
X26650Y4000D02*
X23300Y4000D01*
X23300Y4000D02*
X23150Y3850D01*
X23150Y3850D02*
X22900Y3850D01*
G54D49*
X26700Y4050D02*
X26650Y4000D01*
X26700Y4350D02*
X26700Y4050D01*
G54D45*
X17750Y15750D02*
X17750Y15450D01*
X21300Y14600D02*
X18600Y14600D01*
X18600Y14600D02*
X17750Y15450D01*
X21450Y4299D02*
X21450Y5900D01*
X22300Y3450D02*
X23150Y3450D01*
X23150Y3450D02*
X23500Y3800D01*
X23500Y3800D02*
X26800Y3800D01*
X26900Y4350D02*
X26900Y3900D01*
X26800Y3800D02*
X26900Y3900D01*
X20550Y13900D02*
X20950Y13500D01*
X21750Y13500D02*
X20950Y13500D01*
X21850Y13400D02*
X21750Y13500D01*
X22300Y3450D02*
X21450Y4299D01*
X21850Y6300D02*
X21850Y13400D01*
X21450Y5900D02*
X21850Y6300D01*
X20359Y14400D02*
X21000Y14400D01*
X21200Y14200D02*
X21200Y13900D01*
X21000Y14400D02*
X21200Y14200D01*
X22150Y3250D02*
X21250Y4150D01*
X21650Y13250D02*
X21600Y13300D01*
X21650Y13250D02*
X21650Y6394D01*
X21650Y6394D02*
X21250Y6015D01*
X20150Y13650D02*
X20500Y13300D01*
X20150Y14190D02*
X20359Y14400D01*
X20150Y13650D02*
X20150Y14190D01*
X20500Y13300D02*
X21600Y13300D01*
X22150Y3250D02*
X23300Y3250D01*
X21250Y4150D02*
X21250Y6015D01*
X26900Y3600D02*
X23646Y3600D01*
X27100Y3800D02*
X26900Y3600D01*
X27100Y3800D02*
X27100Y4350D01*
X23646Y3600D02*
X23300Y3250D01*
X21050Y4000D02*
X22000Y3050D01*
X21050Y4000D02*
X21050Y6150D01*
X21050Y6150D02*
X21450Y6531D01*
X21450Y6531D02*
X21450Y13050D01*
X21450Y13050D02*
X21400Y13100D01*
X16750Y15750D02*
X16750Y15300D01*
X17050Y15000D02*
X17550Y15000D01*
X17050Y15000D02*
X16750Y15300D01*
X18150Y14400D02*
X17550Y15000D01*
X19750Y14400D02*
X18150Y14400D01*
X19950Y14200D02*
X19750Y14400D01*
X19950Y13550D02*
X19950Y14200D01*
X20400Y13100D02*
X19950Y13550D01*
X21400Y13100D02*
X20400Y13100D01*
X23796Y3400D02*
X27000Y3400D01*
X23450Y3050D02*
X23796Y3400D01*
X22000Y3050D02*
X23450Y3050D01*
X27300Y3700D02*
X27000Y3400D01*
G54D49*
X27300Y3700D02*
X27300Y4350D01*
G54D45*
X30600Y-1950D02*
X31650Y-900D01*
X29300Y4350D02*
X29300Y4050D01*
X29350Y4000D02*
X30050Y4000D01*
X29300Y4050D02*
X29350Y4000D01*
X31650Y2200D02*
X31650Y-900D01*
X30050Y4000D02*
X30150Y3900D01*
X30150Y3900D02*
X31200Y3900D01*
X31200Y3900D02*
X31450Y3650D01*
X31450Y3650D02*
X31450Y2400D01*
X31450Y2400D02*
X31650Y2200D01*
X18750Y-3250D02*
X18750Y-1950D01*
X28000Y-1950D02*
X30600Y-1950D01*
X27800Y-1750D02*
X28000Y-1950D01*
X18950Y-1750D02*
X27800Y-1750D01*
X18750Y-1950D02*
X18950Y-1750D01*
X650Y4809D02*
X1359Y4809D01*
X1359Y4809D02*
X1450Y4850D01*
X1450Y2900D02*
X741Y2900D01*
X741Y2900D02*
X650Y2809D01*
X650Y6809D02*
X1409Y6809D01*
X1409Y6809D02*
X1450Y6850D01*
X650Y10809D02*
X1291Y10809D01*
X1291Y10809D02*
X1450Y10800D01*
X1409Y8809D02*
X650Y8809D01*
X1450Y8850D02*
X1409Y8809D01*
X31850Y-1000D02*
X30700Y-2150D01*
X2250Y4809D02*
X3009Y4809D01*
X3009Y4809D02*
X3050Y4850D01*
X3050Y2900D02*
X2341Y2900D01*
X2341Y2900D02*
X2250Y2809D01*
X31850Y2350D02*
X31850Y-1000D01*
X31650Y2550D02*
X31850Y2350D01*
X31650Y3800D02*
X31650Y2550D01*
X31350Y4100D02*
X31650Y3800D01*
X30300Y4100D02*
X31350Y4100D01*
X30200Y4200D02*
X30300Y4100D01*
X29850Y4200D02*
X30200Y4200D01*
X29700Y4350D02*
X29850Y4200D01*
X29500Y4350D02*
X29700Y4350D01*
X19750Y-2150D02*
X19950Y-1950D01*
X19750Y-2150D02*
X19750Y-3250D01*
X27900Y-2150D02*
X30700Y-2150D01*
X27700Y-1950D02*
X27900Y-2150D01*
X19950Y-1950D02*
X27700Y-1950D01*
X2250Y6809D02*
X3009Y6809D01*
X3009Y6809D02*
X3050Y6850D01*
X2250Y10809D02*
X2891Y10809D01*
X2891Y10809D02*
X3050Y10800D01*
X3009Y8809D02*
X2250Y8809D01*
X3050Y8850D02*
X3009Y8809D01*
X30795Y-2350D02*
X32059Y-1096D01*
X31850Y2649D02*
X32050Y2450D01*
X32059Y-1096D02*
X32050Y2450D01*
X3850Y4809D02*
X4609Y4809D01*
X4609Y4809D02*
X4650Y4850D01*
X4650Y2900D02*
X3941Y2900D01*
X3941Y2900D02*
X3850Y2809D01*
X27600Y-2150D02*
X20950Y-2150D01*
X27800Y-2350D02*
X27600Y-2150D01*
X30795Y-2350D02*
X27800Y-2350D01*
X29800Y4650D02*
X30000Y4450D01*
X30000Y4450D02*
X30250Y4450D01*
X30250Y4450D02*
X30400Y4300D01*
X30400Y4300D02*
X31500Y4300D01*
X31500Y4300D02*
X31850Y3950D01*
X31850Y3950D02*
X31850Y2649D01*
X20750Y-3250D02*
X20750Y-2350D01*
X20750Y-2350D02*
X20950Y-2150D01*
X3850Y6809D02*
X4609Y6809D01*
X4609Y6809D02*
X4650Y6850D01*
X3850Y10809D02*
X4491Y10809D01*
X4491Y10809D02*
X4650Y10800D01*
X4609Y8809D02*
X3850Y8809D01*
X4650Y8850D02*
X4609Y8809D01*
X30900Y-2550D02*
X32250Y-1200D01*
X32250Y2600D02*
X32050Y2800D01*
X32050Y2800D02*
X32050Y4050D01*
X27700Y-2550D02*
X30900Y-2550D01*
X27500Y-2350D02*
X27700Y-2550D01*
X21900Y-2350D02*
X27500Y-2350D01*
X21750Y-2500D02*
X21900Y-2350D01*
X21750Y-3250D02*
X21750Y-2500D01*
X32250Y-1200D02*
X32250Y2600D01*
X6250Y2900D02*
X5541Y2900D01*
X5541Y2900D02*
X5450Y2809D01*
X29800Y4850D02*
X30050Y4850D01*
X31600Y4500D02*
X32050Y4050D01*
X30500Y4500D02*
X31600Y4500D01*
X30350Y4650D02*
X30500Y4500D01*
X30250Y4650D02*
X30350Y4650D01*
X30050Y4850D02*
X30250Y4650D01*
X6250Y4818D02*
X6250Y4850D01*
X5450Y4809D02*
X6241Y4809D01*
X6241Y4809D02*
X6250Y4818D01*
X5450Y6809D02*
X6209Y6809D01*
X6209Y6809D02*
X6250Y6850D01*
X5450Y10809D02*
X6091Y10809D01*
X6091Y10809D02*
X6250Y10800D01*
X6209Y8809D02*
X5450Y8809D01*
X6250Y8850D02*
X6209Y8809D01*
X7809Y4809D02*
X7850Y4850D01*
X7050Y4809D02*
X7809Y4809D01*
X7050Y6809D02*
X7809Y6809D01*
X7809Y6809D02*
X7850Y6850D01*
X7850Y2900D02*
X7141Y2900D01*
X7141Y2900D02*
X7050Y2809D01*
X27600Y-2750D02*
X31000Y-2750D01*
X22750Y-2700D02*
X22900Y-2550D01*
X22900Y-2550D02*
X27400Y-2550D01*
X27400Y-2550D02*
X27600Y-2750D01*
X22750Y-3250D02*
X22750Y-2700D01*
X32450Y2700D02*
X32450Y-1300D01*
X32250Y4150D02*
X32250Y2900D01*
X31700Y4700D02*
X32250Y4150D01*
X30650Y4700D02*
X31700Y4700D01*
X30650Y4700D02*
X30500Y4850D01*
X32250Y2900D02*
X32450Y2700D01*
X31000Y-2750D02*
X32450Y-1300D01*
X30150Y5050D02*
X30350Y4850D01*
X30150Y5050D02*
X29800Y5050D01*
X30350Y4850D02*
X30500Y4850D01*
X7050Y10809D02*
X7691Y10809D01*
X7691Y10809D02*
X7850Y10800D01*
X7809Y8809D02*
X7050Y8809D01*
X7850Y8850D02*
X7809Y8809D01*
X8650Y4809D02*
X9409Y4809D01*
X9409Y4809D02*
X9450Y4850D01*
X9450Y2900D02*
X8741Y2900D01*
X8741Y2900D02*
X8650Y2809D01*
X30447Y5052D02*
X30647Y5052D01*
G54D49*
X30248Y5250D02*
X30447Y5052D01*
X29800Y5250D02*
X30248Y5250D01*
G54D45*
X32450Y3050D02*
X32650Y2850D01*
X32450Y4250D02*
X32450Y3050D01*
X31800Y4900D02*
X32450Y4250D01*
X30800Y4900D02*
X31800Y4900D01*
X30647Y5052D02*
X30800Y4900D01*
G54D49*
X23750Y-2750D02*
X23750Y-3250D01*
G54D45*
X31100Y-2950D02*
X27500Y-2950D01*
X27500Y-2950D02*
X27300Y-2750D01*
X27300Y-2750D02*
X23750Y-2750D01*
X32650Y-1400D02*
X31100Y-2950D01*
X32650Y2850D02*
X32650Y-1400D01*
X9409Y6809D02*
X8650Y6809D01*
X9450Y6850D02*
X9409Y6809D01*
X8650Y10809D02*
X9291Y10809D01*
X9409Y8809D02*
X8650Y8809D01*
X9450Y8850D02*
X9409Y8809D01*
X9291Y10809D02*
X9450Y10800D01*
X10250Y6809D02*
X11009Y6809D01*
X11009Y6809D02*
X11050Y6850D01*
X11050Y2900D02*
X10341Y2900D01*
X10341Y2900D02*
X10250Y2809D01*
X30750Y5250D02*
X30550Y5250D01*
X31900Y5100D02*
X32650Y4350D01*
X30750Y5250D02*
X30900Y5100D01*
X31200Y-3150D02*
X32850Y-1500D01*
X32850Y-1500D02*
X32850Y3000D01*
X32650Y4350D02*
X32650Y3200D01*
X32850Y3000D02*
X32650Y3200D01*
X25900Y-2950D02*
X27200Y-2950D01*
X27200Y-2950D02*
X27400Y-3150D01*
X27400Y-3150D02*
X31200Y-3150D01*
X25850Y-3000D02*
X25900Y-2950D01*
X25850Y-3350D02*
X25850Y-3000D01*
X30900Y5100D02*
X31900Y5100D01*
X30550Y5250D02*
X30350Y5450D01*
G54D49*
X30350Y5450D02*
X29800Y5450D01*
G54D45*
X11050Y4850D02*
X11050Y4800D01*
X11050Y4800D02*
X11041Y4809D01*
X10250Y4809D02*
X11041Y4809D01*
X10250Y10809D02*
X10891Y10809D01*
X10891Y10809D02*
X11050Y10800D01*
X11009Y8809D02*
X10250Y8809D01*
X11050Y8850D02*
X11009Y8809D01*
X11850Y6809D02*
X12609Y6809D01*
X12609Y6809D02*
X12650Y6850D01*
X12650Y2900D02*
X11941Y2900D01*
X11941Y2900D02*
X11850Y2809D01*
X11850Y4809D02*
X12609Y4809D01*
X12609Y4809D02*
X12650Y4850D01*
X11850Y8809D02*
X12609Y8809D01*
X12609Y8809D02*
X12650Y8850D01*
X11850Y10809D02*
X12491Y10809D01*
X12491Y10809D02*
X12650Y10800D01*
X30850Y5450D02*
X30650Y5450D01*
X32000Y5300D02*
X32850Y4450D01*
X33050Y3150D02*
X33050Y-1600D01*
X32850Y3350D02*
X33050Y3150D01*
X26850Y-3350D02*
X31300Y-3350D01*
X31300Y-3350D02*
X33050Y-1600D01*
G54D49*
X30450Y5650D02*
X29800Y5650D01*
X30650Y5450D02*
X30450Y5650D01*
G54D45*
X32000Y5300D02*
X31000Y5300D01*
X32850Y4450D02*
X32850Y3350D01*
X31000Y5300D02*
X30850Y5450D01*
G54D47*
X8409Y11750D02*
X8400Y11759D01*
X8400Y11759D02*
X8400Y12900D01*
G54D46*
X8900Y12900D02*
X9450Y13450D01*
X5500Y12900D02*
X8400Y12900D01*
X8400Y12900D02*
X8900Y12900D01*
X9450Y13450D02*
X9450Y13459D01*
G54D50*
X8950Y14800D02*
X9150Y15000D01*
X9150Y15000D02*
X9150Y15750D01*
G54D47*
X6750Y15550D02*
X7250Y15550D01*
G54D50*
X7600Y14800D02*
X8950Y14800D01*
X7400Y15000D02*
X7600Y14800D01*
X7400Y15400D02*
X7400Y15000D01*
X7250Y15550D02*
X7400Y15400D01*
G54D45*
X17450Y5200D02*
X17700Y5450D01*
X17700Y5450D02*
X18600Y5450D01*
G54D46*
X18600Y2700D02*
X18600Y3250D01*
X18600Y3250D02*
X18350Y3500D01*
X18350Y3500D02*
X17650Y3500D01*
X17650Y3500D02*
X17450Y3700D01*
X17450Y3700D02*
X17450Y5200D01*
G54D45*
X18600Y5450D02*
X17650Y5450D01*
X17650Y5450D02*
X17650Y7950D01*
X17650Y7950D02*
X17900Y8200D01*
X17900Y8200D02*
X18600Y8200D01*
G54D46*
X18300Y800D02*
X18600Y1100D01*
X18600Y1100D02*
X18600Y2700D01*
G54D49*
X24900Y5250D02*
X24700Y5450D01*
X24900Y5250D02*
X26200Y5250D01*
X27700Y4350D02*
X27700Y3150D01*
X27700Y3150D02*
X27450Y2900D01*
G54D45*
X28000Y6150D02*
X28000Y6850D01*
X28000Y6850D02*
X27300Y6850D01*
X27300Y6850D02*
X27300Y6150D01*
X27300Y6150D02*
X27300Y5450D01*
X27300Y5450D02*
X28000Y5450D01*
X28000Y5450D02*
X28700Y5450D01*
X28700Y5450D02*
X28700Y6150D01*
X28700Y6150D02*
X28700Y6850D01*
G54D49*
X28900Y7950D02*
X28900Y7450D01*
X28900Y7450D02*
X28700Y7250D01*
X28700Y7250D02*
X28700Y6850D01*
X28900Y8750D02*
X28900Y7950D01*
X28100Y7950D02*
X28100Y8200D01*
X27150Y8450D02*
X27150Y8750D01*
X27300Y8300D02*
X27150Y8450D01*
X28000Y8300D02*
X27300Y8300D01*
X28100Y8200D02*
X28000Y8300D01*
G54D50*
X700Y12700D02*
X700Y11900D01*
G54D48*
X50Y12700D02*
X700Y12700D01*
X700Y12700D02*
X1350Y12700D01*
G54D50*
X5500Y13850D02*
X5500Y12900D01*
G54D47*
X29000Y11100D02*
X29000Y10500D01*
X29000Y10500D02*
X29200Y10300D01*
X29000Y11100D02*
X29000Y11600D01*
G54D50*
X29250Y11650D02*
X29350Y11750D01*
X29350Y11750D02*
X29350Y12341D01*
G54D47*
X29350Y12341D02*
X29359Y12350D01*
G54D50*
X29050Y11650D02*
X29250Y11650D01*
X27200Y11400D02*
X27200Y10950D01*
G54D48*
X27200Y10950D02*
X27150Y10900D01*
G54D50*
X29050Y11650D02*
X27450Y11650D01*
X27450Y11650D02*
X27200Y11400D01*
G54D47*
X29000Y11600D02*
X29050Y11650D01*
X29359Y14350D02*
X29359Y13350D01*
X29359Y13350D02*
X29359Y12350D01*
X29000Y11100D02*
X29600Y11100D01*
X25600Y7450D02*
X24700Y7450D01*
G54D45*
X26200Y7250D02*
X25800Y7250D01*
X25800Y7250D02*
X25600Y7450D01*
G54D48*
X-3050Y12950D02*
X-950Y12950D01*
X-700Y12700D02*
X50Y12700D01*
X-950Y12950D02*
X-700Y12700D01*
G54D50*
X27200Y1750D02*
X27200Y2600D01*
X27200Y2600D02*
X27450Y2900D01*
G54D45*
X28900Y4350D02*
X28900Y3850D01*
X29027Y3723D02*
X29027Y3450D01*
X28900Y3850D02*
X29027Y3723D01*
G54D49*
X28300Y4350D02*
X28300Y5050D01*
X28300Y5050D02*
X28700Y5450D01*
G54D45*
X29600Y3350D02*
X29127Y3350D01*
X29127Y3350D02*
X29027Y3450D01*
G54D49*
X28800Y1550D02*
X29500Y1550D01*
X29500Y1550D02*
X29800Y1850D01*
X29800Y1850D02*
X30150Y1850D01*
X30150Y1850D02*
X30200Y1900D01*
X30200Y1900D02*
X30200Y2450D01*
X29600Y3350D02*
X29600Y3250D01*
X30200Y2450D02*
X30750Y2450D01*
G54D45*
X30050Y2600D02*
X30200Y2450D01*
X30050Y2800D02*
X30050Y2600D01*
X29600Y3250D02*
X30050Y2800D01*
G54D49*
X28900Y4350D02*
X28900Y5250D01*
X28900Y5250D02*
X28700Y5450D01*
X29800Y6450D02*
X29000Y6450D01*
X29000Y6450D02*
X28700Y6150D01*
X29800Y5850D02*
X29000Y5850D01*
X29000Y5850D02*
X28700Y6150D01*
G54D50*
X5500Y13850D02*
X4350Y13850D01*
G54D45*
X6750Y15550D02*
X6250Y15550D01*
X6050Y15350D02*
X5350Y15350D01*
X6250Y15550D02*
X6050Y15350D01*
X5350Y15750D02*
X5350Y15350D01*
X4450Y15350D02*
X4350Y15250D01*
X5350Y15350D02*
X4450Y15350D01*
X3641Y13850D02*
X3550Y13941D01*
G54D50*
X4350Y13850D02*
X3641Y13850D01*
G54D45*
X4350Y15250D02*
X4350Y13850D01*
X30800Y3350D02*
X30200Y3350D01*
G54D49*
X29100Y4350D02*
X29100Y3950D01*
G54D45*
X29250Y3800D02*
X29950Y3800D01*
X30150Y3400D02*
X30200Y3350D01*
X30150Y3600D02*
X30150Y3400D01*
X29950Y3800D02*
X30150Y3600D01*
X29100Y3950D02*
X29250Y3800D01*
X3000Y12600D02*
X2875Y12725D01*
X400Y13250D02*
X50Y13600D01*
X50Y14000D02*
X50Y13600D01*
X2100Y13250D02*
X2625Y12725D01*
X400Y13250D02*
X2100Y13250D01*
X3000Y12600D02*
X3000Y12250D01*
X2875Y12725D02*
X2625Y12725D01*
X50Y14000D02*
X-2850Y14000D01*
X-2850Y14000D02*
X-2900Y13950D01*
G54D49*
X28500Y7950D02*
X28500Y8450D01*
X27150Y9350D02*
X27150Y9600D01*
X27300Y9200D02*
X27150Y9350D01*
X27500Y9200D02*
X27300Y9200D01*
X27650Y9050D02*
X27500Y9200D01*
X27650Y8550D02*
X27650Y9050D01*
X27700Y8500D02*
X27650Y8550D01*
X28450Y8500D02*
X27700Y8500D01*
X28500Y8450D02*
X28450Y8500D01*
X28500Y7950D02*
X28700Y7950D01*
G54D45*
X4000Y12250D02*
X4000Y12550D01*
X1350Y13550D02*
X1450Y13450D01*
X1450Y13450D02*
X2250Y13450D01*
X2250Y13450D02*
X2750Y12950D01*
X1350Y13550D02*
X1350Y14000D01*
X3600Y12950D02*
X2750Y12950D01*
X4000Y12550D02*
X3600Y12950D01*
X1350Y14000D02*
X1350Y14550D01*
X-750Y14750D02*
X-2900Y14750D01*
X-650Y14650D02*
X-750Y14750D01*
X1250Y14650D02*
X-650Y14650D01*
X1350Y14550D02*
X1250Y14650D01*
X28673Y3450D02*
X28673Y3127D01*
X28673Y3127D02*
X28800Y3000D01*
X28800Y3000D02*
X28900Y3000D01*
X28900Y3000D02*
X29450Y2450D01*
X28700Y4350D02*
X28700Y3477D01*
X28700Y3477D02*
X28673Y3450D01*
G54D47*
X7750Y14050D02*
X7550Y13850D01*
X7550Y13850D02*
X6800Y13850D01*
X6250Y14550D02*
X6050Y14750D01*
X6450Y13850D02*
X6800Y13850D01*
X5725Y14750D02*
X6050Y14750D01*
X6250Y14050D02*
X6250Y14550D01*
X6450Y13850D02*
X6250Y14050D01*
G54D49*
X29800Y6050D02*
X30448Y6050D01*
X30448Y6050D02*
X30473Y6025D01*
X30473Y6475D02*
X30425Y6475D01*
X30200Y6250D02*
X29800Y6250D01*
X30425Y6475D02*
X30200Y6250D01*
G54D45*
X28800Y950D02*
X28800Y650D01*
X31122Y378D02*
X31122Y-416D01*
X29000Y450D02*
X28800Y650D01*
X31050Y450D02*
X29000Y450D01*
X31122Y378D02*
X31050Y450D01*
X27900Y4350D02*
X27900Y1300D01*
X28250Y950D02*
X28800Y950D01*
X27900Y1300D02*
X28250Y950D01*
X6750Y14950D02*
X6350Y14950D01*
X5050Y14750D02*
X4975Y14750D01*
X5450Y15100D02*
X5050Y14750D01*
X6150Y15100D02*
X5450Y15100D01*
X6350Y14950D02*
X6150Y15100D01*
X25600Y8550D02*
X25200Y8550D01*
G54D49*
X26000Y7650D02*
X25900Y7750D01*
X25900Y7750D02*
X25200Y7750D01*
X25200Y7750D02*
X25100Y7850D01*
X26000Y7650D02*
X26200Y7650D01*
G54D45*
X25100Y8450D02*
X25100Y7850D01*
X25200Y8550D02*
X25100Y8450D01*
G54D49*
X31600Y8550D02*
X31100Y8550D01*
X30150Y6650D02*
X29800Y6650D01*
X26150Y12000D02*
X26300Y12150D01*
X25600Y9150D02*
X25600Y9650D01*
X26500Y13100D02*
X26300Y12900D01*
X26300Y12900D02*
X26300Y12150D01*
X26600Y13850D02*
X26500Y13750D01*
X28750Y13850D02*
X26600Y13850D01*
X28800Y13900D02*
X28750Y13850D01*
X28800Y14800D02*
X28800Y13900D01*
X28950Y14950D02*
X28800Y14800D01*
X29750Y14950D02*
X28950Y14950D01*
X29900Y14800D02*
X29750Y14950D01*
X29900Y12200D02*
X29900Y14800D01*
X30750Y11350D02*
X29900Y12200D01*
X30750Y8900D02*
X30750Y11350D01*
X31100Y8550D02*
X30750Y8900D01*
X31800Y8350D02*
X31600Y8550D01*
X31800Y7150D02*
X31800Y8350D01*
X31600Y6950D02*
X31800Y7150D01*
X31100Y6950D02*
X31600Y6950D01*
X31050Y6900D02*
X31100Y6950D01*
X30400Y6900D02*
X31050Y6900D01*
X30150Y6650D02*
X30400Y6900D01*
X26500Y13750D02*
X26500Y13100D01*
X25925Y9775D02*
X26150Y10000D01*
X25725Y9775D02*
X25925Y9775D01*
X25600Y9650D02*
X25725Y9775D01*
X26150Y10000D02*
X26150Y12000D01*
G54D50*
X15100Y-2150D02*
X16400Y-2150D01*
X16750Y-2500D02*
X16750Y-3250D01*
X16400Y-2150D02*
X16750Y-2500D01*
G54D45*
X26850Y12350D02*
X26850Y11750D01*
X26900Y8400D02*
X26800Y8500D01*
X26800Y8500D02*
X26650Y8500D01*
X26650Y8500D02*
X26550Y8600D01*
X26550Y8600D02*
X26550Y11450D01*
G54D49*
X26900Y8400D02*
X26900Y7950D01*
G54D45*
X26850Y11750D02*
X26550Y11450D01*
G54D47*
X27450Y13350D02*
X28241Y13350D01*
X27450Y12350D02*
X28241Y12350D01*
G54D45*
X26350Y11700D02*
X26500Y11850D01*
X26700Y8250D02*
X26650Y8300D01*
X26650Y8300D02*
X26550Y8300D01*
X26550Y8300D02*
X26350Y8500D01*
X26350Y8500D02*
X26350Y11700D01*
X26500Y11850D02*
X26500Y12750D01*
X26500Y12750D02*
X26600Y12850D01*
X26600Y12850D02*
X26750Y12850D01*
X26750Y12850D02*
X26850Y12950D01*
X26850Y13350D02*
X26850Y12950D01*
G54D49*
X26700Y8250D02*
X26700Y7950D01*
G54D45*
X12150Y15750D02*
X12200Y15700D01*
X12200Y15700D02*
X12200Y14750D01*
X12200Y14750D02*
X12200Y14000D01*
X7291Y11750D02*
X6250Y11750D01*
X38050Y6550D02*
X37750Y6550D01*
X38050Y5950D02*
X37750Y5950D01*
G54D46*
X37200Y5950D02*
X37750Y5950D01*
G54D47*
X31300Y6550D02*
X31275Y6475D01*
X30827Y6475D02*
X31275Y6475D01*
G54D48*
X31300Y6025D02*
X31700Y6150D01*
G54D50*
X31700Y6150D02*
X31850Y6250D01*
G54D46*
X36650Y6250D02*
X31850Y6250D01*
X36850Y6550D02*
X37750Y6550D01*
X36850Y6550D02*
X36650Y6250D01*
G54D47*
X30827Y6025D02*
X31300Y6025D01*
G54D45*
X36750Y15850D02*
X36750Y15650D01*
X36750Y16050D02*
X36750Y15850D01*
X38450Y16050D02*
X36750Y16050D01*
X36750Y15850D02*
X38250Y15850D01*
X38050Y15650D02*
X36750Y15650D01*
X38450Y16050D02*
X38450Y-3550D01*
X38250Y-3350D02*
X38250Y15850D01*
X36750Y-3550D02*
X38450Y-3550D01*
X36750Y-3350D02*
X38250Y-3350D01*
X36750Y-3350D02*
X36750Y-3550D01*
X36750Y-3150D02*
X36750Y-3350D01*
X36750Y-3150D02*
X38050Y-3150D01*
X38050Y-3150D02*
X38050Y5950D01*
X38050Y6550D02*
X38050Y15650D01*
G54D47*
X27450Y14350D02*
X28241Y14350D01*
G54D45*
X26500Y7950D02*
X26050Y7950D01*
X26050Y7950D02*
X25950Y8050D01*
X25950Y8050D02*
X25600Y8050D01*
X19700Y7750D02*
X19600Y7850D01*
X16650Y7050D02*
X15900Y7050D01*
X16900Y7300D02*
X16650Y7050D01*
X16900Y8550D02*
X16900Y7300D01*
X17200Y8850D02*
X16900Y8550D01*
X19250Y8850D02*
X17200Y8850D01*
X19600Y8500D02*
X19250Y8850D01*
X19600Y7850D02*
X19600Y8500D01*
X19700Y9950D02*
X19550Y9800D01*
X16700Y9800D02*
X15900Y9800D01*
X17200Y9300D02*
X16700Y9800D01*
X19250Y9300D02*
X17200Y9300D01*
X19550Y9600D02*
X19250Y9300D01*
X19550Y9800D02*
X19550Y9600D01*
G54D47*
X27050Y750D02*
X28050Y750D01*
X28350Y450D02*
X28350Y50D01*
X28050Y750D02*
X28350Y450D01*
G54D45*
X12750Y7500D02*
X12041Y7500D01*
X12041Y7500D02*
X11850Y7691D01*
X8650Y7691D02*
X10250Y7691D01*
X10250Y7691D02*
X11850Y7691D01*
X8650Y7691D02*
X7050Y7691D01*
X7050Y7691D02*
X5450Y7691D01*
X5450Y7691D02*
X3850Y7691D01*
X3850Y7691D02*
X2250Y7691D01*
X2250Y7691D02*
X650Y7691D01*
X12750Y9500D02*
X12041Y9500D01*
X12041Y9500D02*
X11850Y9691D01*
X8650Y9691D02*
X10250Y9691D01*
X10250Y9691D02*
X11850Y9691D01*
X650Y9691D02*
X2250Y9691D01*
X2250Y9691D02*
X3850Y9691D01*
X3850Y9691D02*
X5450Y9691D01*
X5450Y9691D02*
X7050Y9691D01*
X7050Y9691D02*
X8650Y9691D01*
X12750Y1500D02*
X12041Y1500D01*
X12041Y1500D02*
X11850Y1691D01*
X650Y1691D02*
X2250Y1691D01*
X2250Y1691D02*
X3850Y1691D01*
X3850Y1691D02*
X5450Y1691D01*
X5450Y1691D02*
X7050Y1691D01*
X7050Y1691D02*
X8650Y1691D01*
X8650Y1691D02*
X10250Y1691D01*
X10250Y1691D02*
X11850Y1691D01*
X11850Y1691D02*
X11891Y1650D01*
X12750Y3500D02*
X12041Y3500D01*
X12041Y3500D02*
X11850Y3691D01*
X11991Y3550D02*
X11850Y3691D01*
X7050Y3691D02*
X5450Y3691D01*
X5450Y3691D02*
X3850Y3691D01*
X3850Y3691D02*
X2250Y3691D01*
X2250Y3691D02*
X650Y3691D01*
X11850Y3691D02*
X10250Y3691D01*
X10250Y3691D02*
X8650Y3691D01*
X8650Y3691D02*
X7050Y3691D01*
X12750Y5500D02*
X12041Y5500D01*
X12041Y5500D02*
X11850Y5691D01*
X10250Y5691D02*
X11850Y5691D01*
X8650Y5691D02*
X10250Y5691D01*
X7050Y5691D02*
X8650Y5691D01*
X5450Y5691D02*
X7050Y5691D01*
X3850Y5691D02*
X5450Y5691D01*
X650Y5691D02*
X2250Y5691D01*
X2250Y5691D02*
X3850Y5691D01*
X11891Y5650D02*
X11850Y5691D01*
X20450Y7900D02*
X20450Y8700D01*
X20450Y8700D02*
X20050Y9100D01*
X20450Y7900D02*
X20300Y7750D01*
X30600Y7350D02*
X30790Y7540D01*
X30790Y7540D02*
X30940Y7540D01*
X30940Y7540D02*
X31350Y7950D01*
X29800Y7250D02*
X30050Y7250D01*
X30050Y7250D02*
X30150Y7350D01*
X30150Y7350D02*
X30600Y7350D01*
X19800Y9500D02*
X19600Y9300D01*
X19600Y9300D02*
X19600Y8900D01*
X20050Y8450D02*
X19600Y8900D01*
X29950Y7450D02*
X30100Y7600D01*
X30100Y7600D02*
X30100Y7850D01*
X30100Y7850D02*
X30200Y7950D01*
X30200Y7950D02*
X30750Y7950D01*
X29800Y7450D02*
X29950Y7450D01*
X20300Y9550D02*
X20250Y9500D01*
X20250Y9500D02*
X19800Y9500D01*
X20300Y9550D02*
X20300Y9950D01*
X28400Y11100D02*
X28400Y10800D01*
X28070Y9620D02*
X28070Y9020D01*
X28100Y9650D02*
X28070Y9620D01*
X28400Y9650D02*
X28100Y9650D01*
X28550Y9800D02*
X28400Y9650D01*
X28550Y10650D02*
X28550Y9800D01*
X28400Y10800D02*
X28550Y10650D01*
X29150Y9250D02*
X28300Y9250D01*
X29300Y9100D02*
X29150Y9250D01*
G54D49*
X29300Y7950D02*
X29300Y9100D01*
G54D45*
X28300Y9250D02*
X28070Y9020D01*
G54D49*
X29500Y7950D02*
X29500Y9100D01*
X29500Y9100D02*
X29700Y9300D01*
X29700Y9300D02*
X29700Y10000D01*
X29700Y10000D02*
X29880Y10180D01*
X29880Y10180D02*
X30230Y10180D01*
X30230Y10280D02*
X30230Y11070D01*
X30230Y11070D02*
X30200Y11100D01*
G54D45*
X29500Y950D02*
X29812Y950D01*
X29812Y950D02*
X30178Y1316D01*
X28100Y4350D02*
X28100Y1400D01*
X28100Y1400D02*
X28250Y1250D01*
X28250Y1250D02*
X29200Y1250D01*
X29200Y1250D02*
X29500Y950D01*
G54D48*
X0Y15450D02*
X-550Y15450D01*
X-3050Y15850D02*
X-3150Y15750D01*
X-950Y15850D02*
X-3050Y15850D01*
X-550Y15450D02*
X-950Y15850D01*
G54D45*
X16900Y4500D02*
X16900Y5950D01*
X16900Y5950D02*
X16600Y6250D01*
X16600Y6250D02*
X15750Y6250D01*
X16900Y4500D02*
X16700Y4300D01*
X15900Y4300D02*
X16700Y4300D01*
X15750Y12300D02*
X15750Y11400D01*
X15750Y11400D02*
X15050Y11400D01*
G54D49*
X29800Y6850D02*
X30050Y6850D01*
G54D45*
X31150Y7150D02*
X31350Y7350D01*
X30350Y7150D02*
X31150Y7150D01*
G54D49*
X30050Y6850D02*
X30350Y7150D01*
G54D45*
X17000Y12500D02*
X16350Y12500D01*
X16150Y12300D02*
X15750Y12300D01*
X16350Y12500D02*
X16150Y12300D01*
X17000Y3400D02*
X17750Y2650D01*
X17750Y650D02*
X18000Y400D01*
X11750Y-3250D02*
X11750Y-2350D01*
X11750Y-2350D02*
X12850Y-1250D01*
X12850Y-1250D02*
X17950Y-1250D01*
X17950Y-1250D02*
X18350Y-850D01*
X18350Y-850D02*
X18350Y250D01*
X18350Y250D02*
X18200Y400D01*
X18200Y400D02*
X18000Y400D01*
X17750Y650D02*
X17750Y2650D01*
X16700Y4300D02*
X17000Y4000D01*
X17000Y4000D02*
X17000Y3400D01*
G54D10*
G36*
X7340Y15854D02*
X7295Y15810D01*
X6445Y15810D01*
X6390Y15754D01*
X6390Y15304D01*
X6345Y15260D01*
X5245Y15260D01*
X5190Y15204D01*
X5190Y15104D01*
X5145Y15060D01*
X4695Y15060D01*
X4640Y15004D01*
X4640Y14390D01*
X4940Y14390D01*
X4940Y13858D01*
X4640Y13815D01*
X4640Y13810D01*
X4160Y13810D01*
X4160Y13860D01*
X3810Y13860D01*
X3810Y14390D01*
X4160Y14390D01*
X4160Y15695D01*
X4204Y15740D01*
X4595Y15740D01*
X4640Y15695D01*
X4640Y15495D01*
X4695Y15440D01*
X5154Y15440D01*
X5210Y15495D01*
X5210Y15940D01*
X5490Y15940D01*
X5490Y15495D01*
X5545Y15440D01*
X5954Y15440D01*
X6010Y15495D01*
X6010Y16145D01*
X6054Y16190D01*
X7295Y16190D01*
X7340Y16145D01*
X7340Y15854D01*
X7340Y15854D01*
G37*
G54D51*
X7340Y15854D02*
X7295Y15810D01*
X6445Y15810D01*
X6390Y15754D01*
X6390Y15304D01*
X6345Y15260D01*
X5245Y15260D01*
X5190Y15204D01*
X5190Y15104D01*
X5145Y15060D01*
X4695Y15060D01*
X4640Y15004D01*
X4640Y14390D01*
X4940Y14390D01*
X4940Y13858D01*
X4640Y13815D01*
X4640Y13810D01*
X4160Y13810D01*
X4160Y13860D01*
X3810Y13860D01*
X3810Y14390D01*
X4160Y14390D01*
X4160Y15695D01*
X4204Y15740D01*
X4595Y15740D01*
X4640Y15695D01*
X4640Y15495D01*
X4695Y15440D01*
X5154Y15440D01*
X5210Y15495D01*
X5210Y15940D01*
X5490Y15940D01*
X5490Y15495D01*
X5545Y15440D01*
X5954Y15440D01*
X6010Y15495D01*
X6010Y16145D01*
X6054Y16190D01*
X7295Y16190D01*
X7340Y16145D01*
X7340Y15854D01*
G54D10*
G36*
X28890Y4860D02*
X28260Y4860D01*
X28260Y5540D01*
X28890Y5540D01*
X28890Y4860D01*
X28890Y4860D01*
G37*
G54D51*
X28890Y4860D02*
X28260Y4860D01*
X28260Y5540D01*
X28890Y5540D01*
X28890Y4860D01*
G54D10*
G36*
X29340Y5810D02*
X28610Y5810D01*
X28610Y6490D01*
X29340Y6490D01*
X29340Y5810D01*
X29340Y5810D01*
G37*
G54D51*
X29340Y5810D02*
X28610Y5810D01*
X28610Y6490D01*
X29340Y6490D01*
X29340Y5810D01*
M02*
