G04 (created by PCBNEW (2012-11-15 BZR 3804)-stable) date Fri 01 Mar 2013 04:47:19 CST*
%MOIN*%
G04 Gerber Fmt 3.4, Leading zero omitted, Abs format*
%FSLAX34Y34*%
G01*
G70*
G90*
G04 APERTURE LIST*
%ADD10C,0.006*%
%ADD11C,0.005*%
%ADD12C,0.012*%
%ADD13C,0.007*%
%ADD14C,0.00787402*%
%ADD15C,0.00590551*%
%ADD16C,0.01*%
%ADD17C,0.0079*%
%ADD18C,0.015*%
%ADD19C,0.011811*%
%ADD20C,0.0047*%
%ADD21C,0.008*%
%ADD22C,0.0001*%
%ADD23C,0.0026*%
%ADD24C,0.0045*%
%ADD25C,0.003*%
G04 APERTURE END LIST*
G54D10*
X-38750Y36250D02*
X63250Y36250D01*
X63250Y-40750D01*
X-38750Y-40750D01*
X-38750Y36250D01*
X-38050Y35550D02*
X62550Y35550D01*
X62550Y-40050D01*
X-38050Y-40050D01*
X-38050Y35550D01*
X-18350Y36250D02*
X-18350Y35550D01*
X-28407Y35697D02*
X-28692Y35697D01*
X-28550Y35697D02*
X-28550Y36197D01*
X-28597Y36126D01*
X-28645Y36078D01*
X-28692Y36054D01*
X-18350Y-40750D02*
X-18350Y-40050D01*
X-28407Y-40602D02*
X-28692Y-40602D01*
X-28550Y-40602D02*
X-28550Y-40102D01*
X-28597Y-40173D01*
X-28645Y-40221D01*
X-28692Y-40245D01*
X2050Y36250D02*
X2050Y35550D01*
X-8292Y36150D02*
X-8269Y36173D01*
X-8221Y36197D01*
X-8102Y36197D01*
X-8054Y36173D01*
X-8030Y36150D01*
X-8007Y36102D01*
X-8007Y36054D01*
X-8030Y35983D01*
X-8316Y35697D01*
X-8007Y35697D01*
X2050Y-40750D02*
X2050Y-40050D01*
X-8292Y-40150D02*
X-8269Y-40126D01*
X-8221Y-40102D01*
X-8102Y-40102D01*
X-8054Y-40126D01*
X-8030Y-40150D01*
X-8007Y-40197D01*
X-8007Y-40245D01*
X-8030Y-40316D01*
X-8316Y-40602D01*
X-8007Y-40602D01*
X22450Y36250D02*
X22450Y35550D01*
X12083Y36197D02*
X12392Y36197D01*
X12226Y36007D01*
X12297Y36007D01*
X12345Y35983D01*
X12369Y35959D01*
X12392Y35911D01*
X12392Y35792D01*
X12369Y35745D01*
X12345Y35721D01*
X12297Y35697D01*
X12154Y35697D01*
X12107Y35721D01*
X12083Y35745D01*
X22450Y-40750D02*
X22450Y-40050D01*
X12083Y-40102D02*
X12392Y-40102D01*
X12226Y-40292D01*
X12297Y-40292D01*
X12345Y-40316D01*
X12369Y-40340D01*
X12392Y-40388D01*
X12392Y-40507D01*
X12369Y-40554D01*
X12345Y-40578D01*
X12297Y-40602D01*
X12154Y-40602D01*
X12107Y-40578D01*
X12083Y-40554D01*
X42850Y36250D02*
X42850Y35550D01*
X32745Y36030D02*
X32745Y35697D01*
X32626Y36221D02*
X32507Y35864D01*
X32816Y35864D01*
X42850Y-40750D02*
X42850Y-40050D01*
X32745Y-40269D02*
X32745Y-40602D01*
X32626Y-40078D02*
X32507Y-40435D01*
X32816Y-40435D01*
X53169Y36197D02*
X52930Y36197D01*
X52907Y35959D01*
X52930Y35983D01*
X52978Y36007D01*
X53097Y36007D01*
X53145Y35983D01*
X53169Y35959D01*
X53192Y35911D01*
X53192Y35792D01*
X53169Y35745D01*
X53145Y35721D01*
X53097Y35697D01*
X52978Y35697D01*
X52930Y35721D01*
X52907Y35745D01*
X53169Y-40102D02*
X52930Y-40102D01*
X52907Y-40340D01*
X52930Y-40316D01*
X52978Y-40292D01*
X53097Y-40292D01*
X53145Y-40316D01*
X53169Y-40340D01*
X53192Y-40388D01*
X53192Y-40507D01*
X53169Y-40554D01*
X53145Y-40578D01*
X53097Y-40602D01*
X52978Y-40602D01*
X52930Y-40578D01*
X52907Y-40554D01*
X-38750Y10590D02*
X-38050Y10590D01*
X-38519Y23360D02*
X-38280Y23360D01*
X-38566Y23217D02*
X-38399Y23717D01*
X-38233Y23217D01*
X63250Y10590D02*
X62550Y10590D01*
X62780Y23360D02*
X63019Y23360D01*
X62733Y23217D02*
X62900Y23717D01*
X63066Y23217D01*
X-38750Y-15070D02*
X-38050Y-15070D01*
X-38364Y-2180D02*
X-38292Y-2204D01*
X-38269Y-2228D01*
X-38245Y-2275D01*
X-38245Y-2347D01*
X-38269Y-2394D01*
X-38292Y-2418D01*
X-38340Y-2442D01*
X-38530Y-2442D01*
X-38530Y-1942D01*
X-38364Y-1942D01*
X-38316Y-1966D01*
X-38292Y-1990D01*
X-38269Y-2037D01*
X-38269Y-2085D01*
X-38292Y-2132D01*
X-38316Y-2156D01*
X-38364Y-2180D01*
X-38530Y-2180D01*
X63250Y-15070D02*
X62550Y-15070D01*
X62935Y-2180D02*
X63007Y-2204D01*
X63030Y-2228D01*
X63054Y-2275D01*
X63054Y-2347D01*
X63030Y-2394D01*
X63007Y-2418D01*
X62959Y-2442D01*
X62769Y-2442D01*
X62769Y-1942D01*
X62935Y-1942D01*
X62983Y-1966D01*
X63007Y-1990D01*
X63030Y-2037D01*
X63030Y-2085D01*
X63007Y-2132D01*
X62983Y-2156D01*
X62935Y-2180D01*
X62769Y-2180D01*
X-38245Y-28054D02*
X-38269Y-28078D01*
X-38340Y-28102D01*
X-38388Y-28102D01*
X-38459Y-28078D01*
X-38507Y-28030D01*
X-38530Y-27983D01*
X-38554Y-27888D01*
X-38554Y-27816D01*
X-38530Y-27721D01*
X-38507Y-27673D01*
X-38459Y-27626D01*
X-38388Y-27602D01*
X-38340Y-27602D01*
X-38269Y-27626D01*
X-38245Y-27650D01*
X63054Y-28054D02*
X63030Y-28078D01*
X62959Y-28102D01*
X62911Y-28102D01*
X62840Y-28078D01*
X62792Y-28030D01*
X62769Y-27983D01*
X62745Y-27888D01*
X62745Y-27816D01*
X62769Y-27721D01*
X62792Y-27673D01*
X62840Y-27626D01*
X62911Y-27602D01*
X62959Y-27602D01*
X63030Y-27626D01*
X63054Y-27650D01*
X29700Y-38492D02*
X29775Y-37892D01*
X29917Y-37892D01*
X30000Y-37921D01*
X30050Y-37978D01*
X30071Y-38035D01*
X30085Y-38150D01*
X30075Y-38235D01*
X30032Y-38350D01*
X29996Y-38407D01*
X29932Y-38464D01*
X29842Y-38492D01*
X29700Y-38492D01*
X30557Y-38492D02*
X30596Y-38178D01*
X30575Y-38121D01*
X30521Y-38092D01*
X30407Y-38092D01*
X30346Y-38121D01*
X30560Y-38464D02*
X30500Y-38492D01*
X30357Y-38492D01*
X30303Y-38464D01*
X30282Y-38407D01*
X30289Y-38350D01*
X30325Y-38292D01*
X30385Y-38264D01*
X30528Y-38264D01*
X30589Y-38235D01*
X30807Y-38092D02*
X31035Y-38092D01*
X30917Y-37892D02*
X30853Y-38407D01*
X30875Y-38464D01*
X30928Y-38492D01*
X30985Y-38492D01*
X31417Y-38464D02*
X31357Y-38492D01*
X31242Y-38492D01*
X31189Y-38464D01*
X31167Y-38407D01*
X31196Y-38178D01*
X31232Y-38121D01*
X31292Y-38092D01*
X31407Y-38092D01*
X31460Y-38121D01*
X31482Y-38178D01*
X31475Y-38235D01*
X31182Y-38292D01*
X31707Y-38435D02*
X31732Y-38464D01*
X31700Y-38492D01*
X31675Y-38464D01*
X31707Y-38435D01*
X31700Y-38492D01*
X31746Y-38121D02*
X31771Y-38150D01*
X31739Y-38178D01*
X31714Y-38150D01*
X31746Y-38121D01*
X31739Y-38178D01*
X32757Y-38492D02*
X32414Y-38492D01*
X32585Y-38492D02*
X32660Y-37892D01*
X32592Y-37978D01*
X32528Y-38035D01*
X32467Y-38064D01*
X33471Y-38492D02*
X33521Y-38092D01*
X33514Y-38150D02*
X33546Y-38121D01*
X33607Y-38092D01*
X33692Y-38092D01*
X33746Y-38121D01*
X33767Y-38178D01*
X33728Y-38492D01*
X33767Y-38178D02*
X33803Y-38121D01*
X33864Y-38092D01*
X33950Y-38092D01*
X34003Y-38121D01*
X34025Y-38178D01*
X33985Y-38492D01*
X34528Y-38492D02*
X34567Y-38178D01*
X34546Y-38121D01*
X34492Y-38092D01*
X34378Y-38092D01*
X34317Y-38121D01*
X34532Y-38464D02*
X34471Y-38492D01*
X34328Y-38492D01*
X34275Y-38464D01*
X34253Y-38407D01*
X34260Y-38350D01*
X34296Y-38292D01*
X34357Y-38264D01*
X34500Y-38264D01*
X34560Y-38235D01*
X34814Y-38492D02*
X34864Y-38092D01*
X34850Y-38207D02*
X34885Y-38150D01*
X34917Y-38121D01*
X34978Y-38092D01*
X35035Y-38092D01*
X35682Y-37950D02*
X35714Y-37921D01*
X35775Y-37892D01*
X35917Y-37892D01*
X35971Y-37921D01*
X35996Y-37950D01*
X36017Y-38007D01*
X36010Y-38064D01*
X35971Y-38150D01*
X35585Y-38492D01*
X35957Y-38492D01*
X36403Y-37892D02*
X36460Y-37892D01*
X36514Y-37921D01*
X36539Y-37950D01*
X36560Y-38007D01*
X36575Y-38121D01*
X36557Y-38264D01*
X36514Y-38378D01*
X36478Y-38435D01*
X36446Y-38464D01*
X36385Y-38492D01*
X36328Y-38492D01*
X36275Y-38464D01*
X36250Y-38435D01*
X36228Y-38378D01*
X36214Y-38264D01*
X36232Y-38121D01*
X36275Y-38007D01*
X36310Y-37950D01*
X36342Y-37921D01*
X36403Y-37892D01*
X37100Y-38492D02*
X36757Y-38492D01*
X36928Y-38492D02*
X37003Y-37892D01*
X36935Y-37978D01*
X36871Y-38035D01*
X36810Y-38064D01*
X37375Y-37892D02*
X37746Y-37892D01*
X37517Y-38121D01*
X37603Y-38121D01*
X37657Y-38150D01*
X37682Y-38178D01*
X37703Y-38235D01*
X37685Y-38378D01*
X37650Y-38435D01*
X37617Y-38464D01*
X37557Y-38492D01*
X37385Y-38492D01*
X37332Y-38464D01*
X37307Y-38435D01*
X21292Y-39692D02*
X21292Y-39092D01*
X21635Y-39692D02*
X21378Y-39350D01*
X21635Y-39092D02*
X21292Y-39435D01*
X21892Y-39692D02*
X21892Y-39292D01*
X21892Y-39092D02*
X21864Y-39121D01*
X21892Y-39150D01*
X21921Y-39121D01*
X21892Y-39092D01*
X21892Y-39150D01*
X22521Y-39635D02*
X22492Y-39664D01*
X22407Y-39692D01*
X22350Y-39692D01*
X22264Y-39664D01*
X22207Y-39607D01*
X22178Y-39550D01*
X22150Y-39435D01*
X22150Y-39350D01*
X22178Y-39235D01*
X22207Y-39178D01*
X22264Y-39121D01*
X22350Y-39092D01*
X22407Y-39092D01*
X22492Y-39121D01*
X22521Y-39150D01*
X23035Y-39692D02*
X23035Y-39378D01*
X23007Y-39321D01*
X22950Y-39292D01*
X22835Y-39292D01*
X22778Y-39321D01*
X23035Y-39664D02*
X22978Y-39692D01*
X22835Y-39692D01*
X22778Y-39664D01*
X22750Y-39607D01*
X22750Y-39550D01*
X22778Y-39492D01*
X22835Y-39464D01*
X22978Y-39464D01*
X23035Y-39435D01*
X23578Y-39692D02*
X23578Y-39092D01*
X23578Y-39664D02*
X23521Y-39692D01*
X23407Y-39692D01*
X23350Y-39664D01*
X23321Y-39635D01*
X23292Y-39578D01*
X23292Y-39407D01*
X23321Y-39350D01*
X23350Y-39321D01*
X23407Y-39292D01*
X23521Y-39292D01*
X23578Y-39321D01*
X24321Y-39378D02*
X24521Y-39378D01*
X24607Y-39692D02*
X24321Y-39692D01*
X24321Y-39092D01*
X24607Y-39092D01*
X24864Y-39635D02*
X24892Y-39664D01*
X24864Y-39692D01*
X24835Y-39664D01*
X24864Y-39635D01*
X24864Y-39692D01*
X25149Y-39692D02*
X25149Y-39092D01*
X25292Y-39092D01*
X25378Y-39121D01*
X25435Y-39178D01*
X25464Y-39235D01*
X25492Y-39350D01*
X25492Y-39435D01*
X25464Y-39550D01*
X25435Y-39607D01*
X25378Y-39664D01*
X25292Y-39692D01*
X25149Y-39692D01*
X25749Y-39635D02*
X25778Y-39664D01*
X25749Y-39692D01*
X25721Y-39664D01*
X25749Y-39635D01*
X25749Y-39692D01*
X26007Y-39521D02*
X26292Y-39521D01*
X25949Y-39692D02*
X26149Y-39092D01*
X26349Y-39692D01*
X26549Y-39635D02*
X26578Y-39664D01*
X26549Y-39692D01*
X26521Y-39664D01*
X26549Y-39635D01*
X26549Y-39692D01*
X54842Y-38492D02*
X54678Y-38207D01*
X54500Y-38492D02*
X54575Y-37892D01*
X54803Y-37892D01*
X54857Y-37921D01*
X54882Y-37950D01*
X54903Y-38007D01*
X54892Y-38092D01*
X54857Y-38150D01*
X54825Y-38178D01*
X54764Y-38207D01*
X54535Y-38207D01*
X55332Y-38464D02*
X55271Y-38492D01*
X55157Y-38492D01*
X55103Y-38464D01*
X55082Y-38407D01*
X55110Y-38178D01*
X55146Y-38121D01*
X55207Y-38092D01*
X55321Y-38092D01*
X55375Y-38121D01*
X55396Y-38178D01*
X55389Y-38235D01*
X55096Y-38292D01*
X55607Y-38092D02*
X55700Y-38492D01*
X55892Y-38092D01*
X56078Y-38435D02*
X56103Y-38464D01*
X56071Y-38492D01*
X56046Y-38464D01*
X56078Y-38435D01*
X56071Y-38492D01*
X56117Y-38121D02*
X56142Y-38150D01*
X56110Y-38178D01*
X56085Y-38150D01*
X56117Y-38121D01*
X56110Y-38178D01*
X56814Y-38492D02*
X56889Y-37892D01*
X57117Y-37892D01*
X57171Y-37921D01*
X57196Y-37950D01*
X57217Y-38007D01*
X57207Y-38092D01*
X57171Y-38150D01*
X57139Y-38178D01*
X57078Y-38207D01*
X56850Y-38207D01*
X57453Y-37950D02*
X57485Y-37921D01*
X57546Y-37892D01*
X57689Y-37892D01*
X57742Y-37921D01*
X57767Y-37950D01*
X57789Y-38007D01*
X57782Y-38064D01*
X57742Y-38150D01*
X57357Y-38492D01*
X57728Y-38492D01*
X21264Y-38464D02*
X21350Y-38492D01*
X21492Y-38492D01*
X21550Y-38464D01*
X21578Y-38435D01*
X21607Y-38378D01*
X21607Y-38321D01*
X21578Y-38264D01*
X21550Y-38235D01*
X21492Y-38207D01*
X21378Y-38178D01*
X21321Y-38150D01*
X21292Y-38121D01*
X21264Y-38064D01*
X21264Y-38007D01*
X21292Y-37950D01*
X21321Y-37921D01*
X21378Y-37892D01*
X21521Y-37892D01*
X21607Y-37921D01*
X21864Y-38492D02*
X21864Y-38092D01*
X21864Y-37892D02*
X21835Y-37921D01*
X21864Y-37950D01*
X21892Y-37921D01*
X21864Y-37892D01*
X21864Y-37950D01*
X22092Y-38092D02*
X22407Y-38092D01*
X22092Y-38492D01*
X22407Y-38492D01*
X22864Y-38464D02*
X22807Y-38492D01*
X22692Y-38492D01*
X22635Y-38464D01*
X22607Y-38407D01*
X22607Y-38178D01*
X22635Y-38121D01*
X22692Y-38092D01*
X22807Y-38092D01*
X22864Y-38121D01*
X22892Y-38178D01*
X22892Y-38235D01*
X22607Y-38292D01*
X23150Y-38435D02*
X23178Y-38464D01*
X23150Y-38492D01*
X23121Y-38464D01*
X23150Y-38435D01*
X23150Y-38492D01*
X23150Y-38121D02*
X23178Y-38150D01*
X23150Y-38178D01*
X23121Y-38150D01*
X23150Y-38121D01*
X23150Y-38178D01*
X23864Y-38321D02*
X24150Y-38321D01*
X23807Y-38492D02*
X24007Y-37892D01*
X24207Y-38492D01*
X54492Y-39692D02*
X54492Y-39092D01*
X55035Y-39692D02*
X55035Y-39092D01*
X55035Y-39664D02*
X54978Y-39692D01*
X54864Y-39692D01*
X54807Y-39664D01*
X54778Y-39635D01*
X54750Y-39578D01*
X54750Y-39407D01*
X54778Y-39350D01*
X54807Y-39321D01*
X54864Y-39292D01*
X54978Y-39292D01*
X55035Y-39321D01*
X55321Y-39635D02*
X55350Y-39664D01*
X55321Y-39692D01*
X55292Y-39664D01*
X55321Y-39635D01*
X55321Y-39692D01*
X55321Y-39321D02*
X55350Y-39350D01*
X55321Y-39378D01*
X55292Y-39350D01*
X55321Y-39321D01*
X55321Y-39378D01*
X56378Y-39692D02*
X56035Y-39692D01*
X56207Y-39692D02*
X56207Y-39092D01*
X56149Y-39178D01*
X56092Y-39235D01*
X56035Y-39264D01*
X57064Y-39064D02*
X56550Y-39835D01*
X57578Y-39692D02*
X57235Y-39692D01*
X57407Y-39692D02*
X57407Y-39092D01*
X57349Y-39178D01*
X57292Y-39235D01*
X57235Y-39264D01*
X21289Y-36692D02*
X21632Y-36692D01*
X21385Y-37292D02*
X21460Y-36692D01*
X21757Y-37292D02*
X21807Y-36892D01*
X21832Y-36692D02*
X21800Y-36721D01*
X21825Y-36750D01*
X21857Y-36721D01*
X21832Y-36692D01*
X21825Y-36750D01*
X22007Y-36892D02*
X22235Y-36892D01*
X22117Y-36692D02*
X22053Y-37207D01*
X22075Y-37264D01*
X22128Y-37292D01*
X22185Y-37292D01*
X22471Y-37292D02*
X22417Y-37264D01*
X22396Y-37207D01*
X22460Y-36692D01*
X22932Y-37264D02*
X22871Y-37292D01*
X22757Y-37292D01*
X22703Y-37264D01*
X22682Y-37207D01*
X22710Y-36978D01*
X22746Y-36921D01*
X22807Y-36892D01*
X22921Y-36892D01*
X22975Y-36921D01*
X22996Y-36978D01*
X22989Y-37035D01*
X22696Y-37092D01*
X23221Y-37235D02*
X23246Y-37264D01*
X23214Y-37292D01*
X23189Y-37264D01*
X23221Y-37235D01*
X23214Y-37292D01*
X23260Y-36921D02*
X23285Y-36950D01*
X23253Y-36978D01*
X23228Y-36950D01*
X23260Y-36921D01*
X23253Y-36978D01*
X24196Y-36978D02*
X24278Y-37007D01*
X24303Y-37035D01*
X24325Y-37092D01*
X24314Y-37178D01*
X24278Y-37235D01*
X24246Y-37264D01*
X24185Y-37292D01*
X23957Y-37292D01*
X24032Y-36692D01*
X24232Y-36692D01*
X24285Y-36721D01*
X24310Y-36750D01*
X24332Y-36807D01*
X24325Y-36864D01*
X24289Y-36921D01*
X24257Y-36950D01*
X24196Y-36978D01*
X23996Y-36978D01*
X24746Y-36692D02*
X24860Y-36692D01*
X24914Y-36721D01*
X24964Y-36778D01*
X24978Y-36892D01*
X24953Y-37092D01*
X24910Y-37207D01*
X24846Y-37264D01*
X24785Y-37292D01*
X24671Y-37292D01*
X24617Y-37264D01*
X24567Y-37207D01*
X24553Y-37092D01*
X24578Y-36892D01*
X24621Y-36778D01*
X24685Y-36721D01*
X24746Y-36692D01*
X25178Y-37121D02*
X25464Y-37121D01*
X25100Y-37292D02*
X25375Y-36692D01*
X25500Y-37292D01*
X26042Y-37292D02*
X25878Y-37007D01*
X25700Y-37292D02*
X25775Y-36692D01*
X26003Y-36692D01*
X26057Y-36721D01*
X26082Y-36750D01*
X26103Y-36807D01*
X26092Y-36892D01*
X26057Y-36950D01*
X26025Y-36978D01*
X25964Y-37007D01*
X25735Y-37007D01*
X26300Y-37292D02*
X26375Y-36692D01*
X26517Y-36692D01*
X26600Y-36721D01*
X26650Y-36778D01*
X26671Y-36835D01*
X26685Y-36950D01*
X26675Y-37035D01*
X26632Y-37150D01*
X26596Y-37207D01*
X26532Y-37264D01*
X26442Y-37292D01*
X26300Y-37292D01*
X26932Y-37264D02*
X26928Y-37292D01*
X26892Y-37350D01*
X26860Y-37378D01*
X27642Y-37292D02*
X27717Y-36692D01*
X27946Y-36692D01*
X27999Y-36721D01*
X28025Y-36750D01*
X28046Y-36807D01*
X28035Y-36892D01*
X28000Y-36950D01*
X27967Y-36978D01*
X27907Y-37007D01*
X27678Y-37007D01*
X28592Y-37235D02*
X28560Y-37264D01*
X28471Y-37292D01*
X28414Y-37292D01*
X28332Y-37264D01*
X28282Y-37207D01*
X28260Y-37150D01*
X28246Y-37035D01*
X28257Y-36950D01*
X28300Y-36835D01*
X28335Y-36778D01*
X28399Y-36721D01*
X28489Y-36692D01*
X28546Y-36692D01*
X28628Y-36721D01*
X28653Y-36750D01*
X28875Y-37264D02*
X28871Y-37292D01*
X28835Y-37350D01*
X28803Y-37378D01*
X29575Y-36692D02*
X29917Y-36692D01*
X29671Y-37292D02*
X29746Y-36692D01*
X30042Y-37292D02*
X30117Y-36692D01*
X30082Y-36978D02*
X30425Y-36978D01*
X30385Y-37292D02*
X30460Y-36692D01*
X30860Y-36692D02*
X30975Y-36692D01*
X31028Y-36721D01*
X31078Y-36778D01*
X31092Y-36892D01*
X31067Y-37092D01*
X31024Y-37207D01*
X30960Y-37264D01*
X30900Y-37292D01*
X30785Y-37292D01*
X30732Y-37264D01*
X30682Y-37207D01*
X30667Y-37092D01*
X30692Y-36892D01*
X30735Y-36778D01*
X30799Y-36721D01*
X30860Y-36692D01*
X31289Y-36692D02*
X31632Y-36692D01*
X31385Y-37292D02*
X31460Y-36692D01*
X31757Y-37292D02*
X31832Y-36692D01*
X32099Y-37292D02*
X31885Y-36950D01*
X32174Y-36692D02*
X31789Y-37035D01*
X32546Y-36692D02*
X32660Y-36692D01*
X32714Y-36721D01*
X32764Y-36778D01*
X32778Y-36892D01*
X32753Y-37092D01*
X32710Y-37207D01*
X32646Y-37264D01*
X32585Y-37292D01*
X32471Y-37292D01*
X32417Y-37264D01*
X32367Y-37207D01*
X32353Y-37092D01*
X32378Y-36892D01*
X32421Y-36778D01*
X32485Y-36721D01*
X32546Y-36692D01*
X32985Y-37292D02*
X33060Y-36692D01*
X33328Y-37292D01*
X33403Y-36692D01*
X34260Y-36692D02*
X34374Y-36692D01*
X34428Y-36721D01*
X34478Y-36778D01*
X34492Y-36892D01*
X34467Y-37092D01*
X34424Y-37207D01*
X34360Y-37264D01*
X34299Y-37292D01*
X34185Y-37292D01*
X34132Y-37264D01*
X34082Y-37207D01*
X34067Y-37092D01*
X34092Y-36892D01*
X34135Y-36778D01*
X34199Y-36721D01*
X34260Y-36692D01*
X34717Y-36692D02*
X35042Y-37292D01*
X35117Y-36692D02*
X34642Y-37292D01*
X35578Y-36892D02*
X35528Y-37292D01*
X35464Y-36664D02*
X35267Y-37092D01*
X35639Y-37092D01*
X21492Y-34578D02*
X21292Y-34578D01*
X21292Y-34892D02*
X21292Y-34292D01*
X21578Y-34292D01*
X21807Y-34892D02*
X21807Y-34492D01*
X21807Y-34292D02*
X21778Y-34321D01*
X21807Y-34350D01*
X21835Y-34321D01*
X21807Y-34292D01*
X21807Y-34350D01*
X22178Y-34892D02*
X22121Y-34864D01*
X22092Y-34807D01*
X22092Y-34292D01*
X22635Y-34864D02*
X22578Y-34892D01*
X22464Y-34892D01*
X22407Y-34864D01*
X22378Y-34807D01*
X22378Y-34578D01*
X22407Y-34521D01*
X22464Y-34492D01*
X22578Y-34492D01*
X22635Y-34521D01*
X22664Y-34578D01*
X22664Y-34635D01*
X22378Y-34692D01*
X22921Y-34835D02*
X22950Y-34864D01*
X22921Y-34892D01*
X22892Y-34864D01*
X22921Y-34835D01*
X22921Y-34892D01*
X22921Y-34521D02*
X22950Y-34550D01*
X22921Y-34578D01*
X22892Y-34550D01*
X22921Y-34521D01*
X22921Y-34578D01*
X23578Y-34492D02*
X23807Y-34492D01*
X23664Y-34292D02*
X23664Y-34807D01*
X23692Y-34864D01*
X23750Y-34892D01*
X23807Y-34892D01*
X24007Y-34892D02*
X24007Y-34292D01*
X24264Y-34892D02*
X24264Y-34578D01*
X24235Y-34521D01*
X24178Y-34492D01*
X24092Y-34492D01*
X24035Y-34521D01*
X24007Y-34550D01*
X24635Y-34892D02*
X24578Y-34864D01*
X24550Y-34835D01*
X24521Y-34778D01*
X24521Y-34607D01*
X24550Y-34550D01*
X24578Y-34521D01*
X24635Y-34492D01*
X24721Y-34492D01*
X24778Y-34521D01*
X24807Y-34550D01*
X24835Y-34607D01*
X24835Y-34778D01*
X24807Y-34835D01*
X24778Y-34864D01*
X24721Y-34892D01*
X24635Y-34892D01*
X25007Y-34492D02*
X25235Y-34492D01*
X25092Y-34292D02*
X25092Y-34807D01*
X25121Y-34864D01*
X25178Y-34892D01*
X25235Y-34892D01*
X25692Y-34864D02*
X25635Y-34892D01*
X25521Y-34892D01*
X25464Y-34864D01*
X25435Y-34835D01*
X25407Y-34778D01*
X25407Y-34607D01*
X25435Y-34550D01*
X25464Y-34521D01*
X25521Y-34492D01*
X25635Y-34492D01*
X25692Y-34521D01*
X26035Y-34892D02*
X25978Y-34864D01*
X25950Y-34835D01*
X25921Y-34778D01*
X25921Y-34607D01*
X25950Y-34550D01*
X25978Y-34521D01*
X26035Y-34492D01*
X26121Y-34492D01*
X26178Y-34521D01*
X26207Y-34550D01*
X26235Y-34607D01*
X26235Y-34778D01*
X26207Y-34835D01*
X26178Y-34864D01*
X26121Y-34892D01*
X26035Y-34892D01*
X26492Y-34492D02*
X26492Y-34892D01*
X26492Y-34550D02*
X26521Y-34521D01*
X26578Y-34492D01*
X26664Y-34492D01*
X26721Y-34521D01*
X26750Y-34578D01*
X26750Y-34892D01*
X26892Y-34950D02*
X27350Y-34950D01*
X27492Y-34892D02*
X27492Y-34292D01*
X27492Y-34521D02*
X27550Y-34492D01*
X27664Y-34492D01*
X27721Y-34521D01*
X27750Y-34550D01*
X27778Y-34607D01*
X27778Y-34778D01*
X27750Y-34835D01*
X27721Y-34864D01*
X27664Y-34892D01*
X27550Y-34892D01*
X27492Y-34864D01*
X28292Y-34892D02*
X28292Y-34578D01*
X28264Y-34521D01*
X28207Y-34492D01*
X28092Y-34492D01*
X28035Y-34521D01*
X28292Y-34864D02*
X28235Y-34892D01*
X28092Y-34892D01*
X28035Y-34864D01*
X28007Y-34807D01*
X28007Y-34750D01*
X28035Y-34692D01*
X28092Y-34664D01*
X28235Y-34664D01*
X28292Y-34635D01*
X28835Y-34892D02*
X28835Y-34292D01*
X28835Y-34864D02*
X28778Y-34892D01*
X28664Y-34892D01*
X28607Y-34864D01*
X28578Y-34835D01*
X28550Y-34778D01*
X28550Y-34607D01*
X28578Y-34550D01*
X28607Y-34521D01*
X28664Y-34492D01*
X28778Y-34492D01*
X28835Y-34521D01*
X29378Y-34492D02*
X29378Y-34978D01*
X29350Y-35035D01*
X29321Y-35064D01*
X29264Y-35092D01*
X29178Y-35092D01*
X29121Y-35064D01*
X29378Y-34864D02*
X29321Y-34892D01*
X29207Y-34892D01*
X29150Y-34864D01*
X29121Y-34835D01*
X29092Y-34778D01*
X29092Y-34607D01*
X29121Y-34550D01*
X29150Y-34521D01*
X29207Y-34492D01*
X29321Y-34492D01*
X29378Y-34521D01*
X29892Y-34864D02*
X29835Y-34892D01*
X29721Y-34892D01*
X29664Y-34864D01*
X29635Y-34807D01*
X29635Y-34578D01*
X29664Y-34521D01*
X29721Y-34492D01*
X29835Y-34492D01*
X29892Y-34521D01*
X29921Y-34578D01*
X29921Y-34635D01*
X29635Y-34692D01*
X30035Y-34950D02*
X30492Y-34950D01*
X30578Y-34492D02*
X30892Y-34492D01*
X30578Y-34892D01*
X30892Y-34892D01*
X31121Y-34892D02*
X31121Y-34492D01*
X31121Y-34292D02*
X31092Y-34321D01*
X31121Y-34350D01*
X31150Y-34321D01*
X31121Y-34292D01*
X31121Y-34350D01*
X31664Y-34492D02*
X31664Y-34978D01*
X31635Y-35035D01*
X31607Y-35064D01*
X31549Y-35092D01*
X31464Y-35092D01*
X31407Y-35064D01*
X31664Y-34864D02*
X31607Y-34892D01*
X31492Y-34892D01*
X31435Y-34864D01*
X31407Y-34835D01*
X31378Y-34778D01*
X31378Y-34607D01*
X31407Y-34550D01*
X31435Y-34521D01*
X31492Y-34492D01*
X31607Y-34492D01*
X31664Y-34521D01*
X31949Y-34835D02*
X31978Y-34864D01*
X31949Y-34892D01*
X31921Y-34864D01*
X31949Y-34835D01*
X31949Y-34892D01*
X32235Y-34892D02*
X32235Y-34292D01*
X32235Y-34521D02*
X32292Y-34492D01*
X32407Y-34492D01*
X32464Y-34521D01*
X32492Y-34550D01*
X32521Y-34607D01*
X32521Y-34778D01*
X32492Y-34835D01*
X32464Y-34864D01*
X32407Y-34892D01*
X32292Y-34892D01*
X32235Y-34864D01*
X32778Y-34892D02*
X32778Y-34492D01*
X32778Y-34607D02*
X32807Y-34550D01*
X32835Y-34521D01*
X32892Y-34492D01*
X32949Y-34492D01*
X33407Y-34892D02*
X33407Y-34292D01*
X33407Y-34864D02*
X33349Y-34892D01*
X33235Y-34892D01*
X33178Y-34864D01*
X33149Y-34835D01*
X33121Y-34778D01*
X33121Y-34607D01*
X33149Y-34550D01*
X33178Y-34521D01*
X33235Y-34492D01*
X33349Y-34492D01*
X33407Y-34521D01*
X21264Y-36064D02*
X21350Y-36092D01*
X21492Y-36092D01*
X21550Y-36064D01*
X21578Y-36035D01*
X21607Y-35978D01*
X21607Y-35921D01*
X21578Y-35864D01*
X21550Y-35835D01*
X21492Y-35807D01*
X21378Y-35778D01*
X21321Y-35750D01*
X21292Y-35721D01*
X21264Y-35664D01*
X21264Y-35607D01*
X21292Y-35550D01*
X21321Y-35521D01*
X21378Y-35492D01*
X21521Y-35492D01*
X21607Y-35521D01*
X21864Y-36092D02*
X21864Y-35492D01*
X22121Y-36092D02*
X22121Y-35778D01*
X22092Y-35721D01*
X22035Y-35692D01*
X21950Y-35692D01*
X21892Y-35721D01*
X21864Y-35750D01*
X22635Y-36064D02*
X22578Y-36092D01*
X22464Y-36092D01*
X22407Y-36064D01*
X22378Y-36007D01*
X22378Y-35778D01*
X22407Y-35721D01*
X22464Y-35692D01*
X22578Y-35692D01*
X22635Y-35721D01*
X22664Y-35778D01*
X22664Y-35835D01*
X22378Y-35892D01*
X23150Y-36064D02*
X23092Y-36092D01*
X22978Y-36092D01*
X22921Y-36064D01*
X22892Y-36007D01*
X22892Y-35778D01*
X22921Y-35721D01*
X22978Y-35692D01*
X23092Y-35692D01*
X23150Y-35721D01*
X23178Y-35778D01*
X23178Y-35835D01*
X22892Y-35892D01*
X23350Y-35692D02*
X23578Y-35692D01*
X23435Y-35492D02*
X23435Y-36007D01*
X23464Y-36064D01*
X23521Y-36092D01*
X23578Y-36092D01*
X23778Y-36035D02*
X23807Y-36064D01*
X23778Y-36092D01*
X23750Y-36064D01*
X23778Y-36035D01*
X23778Y-36092D01*
X23778Y-35721D02*
X23807Y-35750D01*
X23778Y-35778D01*
X23750Y-35750D01*
X23778Y-35721D01*
X23778Y-35778D01*
X21317Y-33092D02*
X21385Y-33692D01*
X21553Y-33264D01*
X21614Y-33692D01*
X21832Y-33092D01*
X22071Y-33692D02*
X22017Y-33664D01*
X21992Y-33635D01*
X21971Y-33578D01*
X21992Y-33407D01*
X22028Y-33350D01*
X22060Y-33321D01*
X22121Y-33292D01*
X22207Y-33292D01*
X22260Y-33321D01*
X22285Y-33350D01*
X22307Y-33407D01*
X22285Y-33578D01*
X22250Y-33635D01*
X22217Y-33664D01*
X22157Y-33692D01*
X22071Y-33692D01*
X22528Y-33692D02*
X22578Y-33292D01*
X22564Y-33407D02*
X22600Y-33350D01*
X22632Y-33321D01*
X22692Y-33292D01*
X22750Y-33292D01*
X22900Y-33692D02*
X22975Y-33092D01*
X22985Y-33464D02*
X23128Y-33692D01*
X23178Y-33292D02*
X22921Y-33521D01*
X23360Y-33664D02*
X23414Y-33692D01*
X23528Y-33692D01*
X23589Y-33664D01*
X23625Y-33607D01*
X23628Y-33578D01*
X23607Y-33521D01*
X23553Y-33492D01*
X23467Y-33492D01*
X23414Y-33464D01*
X23392Y-33407D01*
X23396Y-33378D01*
X23432Y-33321D01*
X23492Y-33292D01*
X23578Y-33292D01*
X23632Y-33321D01*
X23871Y-33692D02*
X23946Y-33092D01*
X24128Y-33692D02*
X24167Y-33378D01*
X24146Y-33321D01*
X24092Y-33292D01*
X24007Y-33292D01*
X23946Y-33321D01*
X23914Y-33350D01*
X24499Y-33692D02*
X24446Y-33664D01*
X24421Y-33635D01*
X24400Y-33578D01*
X24421Y-33407D01*
X24457Y-33350D01*
X24489Y-33321D01*
X24549Y-33292D01*
X24635Y-33292D01*
X24689Y-33321D01*
X24714Y-33350D01*
X24735Y-33407D01*
X24714Y-33578D01*
X24678Y-33635D01*
X24646Y-33664D01*
X24585Y-33692D01*
X24499Y-33692D01*
X25007Y-33292D02*
X24932Y-33892D01*
X25003Y-33321D02*
X25064Y-33292D01*
X25178Y-33292D01*
X25232Y-33321D01*
X25257Y-33350D01*
X25278Y-33407D01*
X25257Y-33578D01*
X25221Y-33635D01*
X25189Y-33664D01*
X25128Y-33692D01*
X25014Y-33692D01*
X24960Y-33664D01*
X26085Y-33350D02*
X26032Y-33321D01*
X26007Y-33292D01*
X25985Y-33235D01*
X25989Y-33207D01*
X26024Y-33150D01*
X26057Y-33121D01*
X26117Y-33092D01*
X26232Y-33092D01*
X26285Y-33121D01*
X26310Y-33150D01*
X26332Y-33207D01*
X26328Y-33235D01*
X26292Y-33292D01*
X26260Y-33321D01*
X26199Y-33350D01*
X26085Y-33350D01*
X26025Y-33378D01*
X25992Y-33407D01*
X25957Y-33464D01*
X25942Y-33578D01*
X25964Y-33635D01*
X25989Y-33664D01*
X26042Y-33692D01*
X26157Y-33692D01*
X26217Y-33664D01*
X26249Y-33635D01*
X26285Y-33578D01*
X26299Y-33464D01*
X26278Y-33407D01*
X26253Y-33378D01*
X26199Y-33350D01*
X26657Y-33350D02*
X26603Y-33321D01*
X26578Y-33292D01*
X26557Y-33235D01*
X26560Y-33207D01*
X26596Y-33150D01*
X26628Y-33121D01*
X26689Y-33092D01*
X26803Y-33092D01*
X26857Y-33121D01*
X26882Y-33150D01*
X26903Y-33207D01*
X26900Y-33235D01*
X26864Y-33292D01*
X26832Y-33321D01*
X26771Y-33350D01*
X26657Y-33350D01*
X26596Y-33378D01*
X26564Y-33407D01*
X26528Y-33464D01*
X26514Y-33578D01*
X26535Y-33635D01*
X26560Y-33664D01*
X26614Y-33692D01*
X26728Y-33692D01*
X26789Y-33664D01*
X26821Y-33635D01*
X26857Y-33578D01*
X26871Y-33464D01*
X26849Y-33407D01*
X26825Y-33378D01*
X26771Y-33350D01*
X21292Y-32492D02*
X21292Y-31892D01*
X21435Y-31892D01*
X21521Y-31921D01*
X21578Y-31978D01*
X21607Y-32035D01*
X21635Y-32150D01*
X21635Y-32235D01*
X21607Y-32350D01*
X21578Y-32407D01*
X21521Y-32464D01*
X21435Y-32492D01*
X21292Y-32492D01*
X21892Y-32492D02*
X21892Y-32092D01*
X21892Y-32207D02*
X21921Y-32150D01*
X21950Y-32121D01*
X22007Y-32092D01*
X22064Y-32092D01*
X22521Y-32492D02*
X22521Y-32178D01*
X22492Y-32121D01*
X22435Y-32092D01*
X22321Y-32092D01*
X22264Y-32121D01*
X22521Y-32464D02*
X22464Y-32492D01*
X22321Y-32492D01*
X22264Y-32464D01*
X22235Y-32407D01*
X22235Y-32350D01*
X22264Y-32292D01*
X22321Y-32264D01*
X22464Y-32264D01*
X22521Y-32235D01*
X22750Y-32092D02*
X22864Y-32492D01*
X22978Y-32207D01*
X23092Y-32492D01*
X23207Y-32092D01*
X23435Y-32092D02*
X23435Y-32492D01*
X23435Y-32150D02*
X23464Y-32121D01*
X23521Y-32092D01*
X23607Y-32092D01*
X23664Y-32121D01*
X23692Y-32178D01*
X23692Y-32492D01*
X23978Y-32435D02*
X24007Y-32464D01*
X23978Y-32492D01*
X23950Y-32464D01*
X23978Y-32435D01*
X23978Y-32492D01*
X23978Y-32121D02*
X24007Y-32150D01*
X23978Y-32178D01*
X23950Y-32150D01*
X23978Y-32121D01*
X23978Y-32178D01*
X24721Y-32492D02*
X24721Y-31892D01*
X24950Y-31892D01*
X25007Y-31921D01*
X25035Y-31950D01*
X25064Y-32007D01*
X25064Y-32092D01*
X25035Y-32150D01*
X25007Y-32178D01*
X24950Y-32207D01*
X24721Y-32207D01*
X25578Y-32492D02*
X25578Y-32178D01*
X25550Y-32121D01*
X25492Y-32092D01*
X25378Y-32092D01*
X25321Y-32121D01*
X25578Y-32464D02*
X25521Y-32492D01*
X25378Y-32492D01*
X25321Y-32464D01*
X25292Y-32407D01*
X25292Y-32350D01*
X25321Y-32292D01*
X25378Y-32264D01*
X25521Y-32264D01*
X25578Y-32235D01*
X26121Y-32092D02*
X26121Y-32492D01*
X25864Y-32092D02*
X25864Y-32407D01*
X25892Y-32464D01*
X25949Y-32492D01*
X26035Y-32492D01*
X26092Y-32464D01*
X26121Y-32435D01*
X26492Y-32492D02*
X26435Y-32464D01*
X26407Y-32407D01*
X26407Y-31892D01*
X27521Y-32492D02*
X27321Y-32207D01*
X27178Y-32492D02*
X27178Y-31892D01*
X27407Y-31892D01*
X27464Y-31921D01*
X27492Y-31950D01*
X27521Y-32007D01*
X27521Y-32092D01*
X27492Y-32150D01*
X27464Y-32178D01*
X27407Y-32207D01*
X27178Y-32207D01*
X28007Y-32464D02*
X27950Y-32492D01*
X27835Y-32492D01*
X27778Y-32464D01*
X27750Y-32407D01*
X27750Y-32178D01*
X27778Y-32121D01*
X27835Y-32092D01*
X27950Y-32092D01*
X28007Y-32121D01*
X28035Y-32178D01*
X28035Y-32235D01*
X27750Y-32292D01*
X28292Y-32492D02*
X28292Y-32092D01*
X28292Y-31892D02*
X28264Y-31921D01*
X28292Y-31950D01*
X28321Y-31921D01*
X28292Y-31892D01*
X28292Y-31950D01*
X28835Y-32464D02*
X28778Y-32492D01*
X28664Y-32492D01*
X28607Y-32464D01*
X28578Y-32435D01*
X28550Y-32378D01*
X28550Y-32207D01*
X28578Y-32150D01*
X28607Y-32121D01*
X28664Y-32092D01*
X28778Y-32092D01*
X28835Y-32121D01*
X29092Y-32492D02*
X29092Y-31892D01*
X29350Y-32492D02*
X29350Y-32178D01*
X29321Y-32121D01*
X29264Y-32092D01*
X29178Y-32092D01*
X29121Y-32121D01*
X29092Y-32150D01*
X21292Y-31292D02*
X21292Y-30692D01*
X21435Y-30692D01*
X21521Y-30721D01*
X21578Y-30778D01*
X21607Y-30835D01*
X21635Y-30950D01*
X21635Y-31035D01*
X21607Y-31150D01*
X21578Y-31207D01*
X21521Y-31264D01*
X21435Y-31292D01*
X21292Y-31292D01*
X22121Y-31264D02*
X22064Y-31292D01*
X21950Y-31292D01*
X21892Y-31264D01*
X21864Y-31207D01*
X21864Y-30978D01*
X21892Y-30921D01*
X21950Y-30892D01*
X22064Y-30892D01*
X22121Y-30921D01*
X22150Y-30978D01*
X22150Y-31035D01*
X21864Y-31092D01*
X22378Y-31264D02*
X22435Y-31292D01*
X22550Y-31292D01*
X22607Y-31264D01*
X22635Y-31207D01*
X22635Y-31178D01*
X22607Y-31121D01*
X22550Y-31092D01*
X22464Y-31092D01*
X22407Y-31064D01*
X22378Y-31007D01*
X22378Y-30978D01*
X22407Y-30921D01*
X22464Y-30892D01*
X22550Y-30892D01*
X22607Y-30921D01*
X22892Y-31292D02*
X22892Y-30892D01*
X22892Y-30692D02*
X22864Y-30721D01*
X22892Y-30750D01*
X22921Y-30721D01*
X22892Y-30692D01*
X22892Y-30750D01*
X23435Y-30892D02*
X23435Y-31378D01*
X23407Y-31435D01*
X23378Y-31464D01*
X23321Y-31492D01*
X23235Y-31492D01*
X23178Y-31464D01*
X23435Y-31264D02*
X23378Y-31292D01*
X23264Y-31292D01*
X23207Y-31264D01*
X23178Y-31235D01*
X23150Y-31178D01*
X23150Y-31007D01*
X23178Y-30950D01*
X23207Y-30921D01*
X23264Y-30892D01*
X23378Y-30892D01*
X23435Y-30921D01*
X23721Y-30892D02*
X23721Y-31292D01*
X23721Y-30950D02*
X23750Y-30921D01*
X23807Y-30892D01*
X23892Y-30892D01*
X23950Y-30921D01*
X23978Y-30978D01*
X23978Y-31292D01*
X24492Y-31264D02*
X24435Y-31292D01*
X24321Y-31292D01*
X24264Y-31264D01*
X24235Y-31207D01*
X24235Y-30978D01*
X24264Y-30921D01*
X24321Y-30892D01*
X24435Y-30892D01*
X24492Y-30921D01*
X24521Y-30978D01*
X24521Y-31035D01*
X24235Y-31092D01*
X25035Y-31292D02*
X25035Y-30692D01*
X25035Y-31264D02*
X24978Y-31292D01*
X24864Y-31292D01*
X24807Y-31264D01*
X24778Y-31235D01*
X24750Y-31178D01*
X24750Y-31007D01*
X24778Y-30950D01*
X24807Y-30921D01*
X24864Y-30892D01*
X24978Y-30892D01*
X25035Y-30921D01*
X25321Y-31235D02*
X25350Y-31264D01*
X25321Y-31292D01*
X25292Y-31264D01*
X25321Y-31235D01*
X25321Y-31292D01*
X25321Y-30921D02*
X25350Y-30950D01*
X25321Y-30978D01*
X25292Y-30950D01*
X25321Y-30921D01*
X25321Y-30978D01*
X26064Y-31292D02*
X26064Y-30692D01*
X26292Y-30692D01*
X26349Y-30721D01*
X26378Y-30750D01*
X26407Y-30807D01*
X26407Y-30892D01*
X26378Y-30950D01*
X26349Y-30978D01*
X26292Y-31007D01*
X26064Y-31007D01*
X26921Y-31292D02*
X26921Y-30978D01*
X26892Y-30921D01*
X26835Y-30892D01*
X26721Y-30892D01*
X26664Y-30921D01*
X26921Y-31264D02*
X26864Y-31292D01*
X26721Y-31292D01*
X26664Y-31264D01*
X26635Y-31207D01*
X26635Y-31150D01*
X26664Y-31092D01*
X26721Y-31064D01*
X26864Y-31064D01*
X26921Y-31035D01*
X27464Y-30892D02*
X27464Y-31292D01*
X27207Y-30892D02*
X27207Y-31207D01*
X27235Y-31264D01*
X27292Y-31292D01*
X27378Y-31292D01*
X27435Y-31264D01*
X27464Y-31235D01*
X27835Y-31292D02*
X27778Y-31264D01*
X27749Y-31207D01*
X27749Y-30692D01*
X28864Y-31292D02*
X28664Y-31007D01*
X28521Y-31292D02*
X28521Y-30692D01*
X28750Y-30692D01*
X28807Y-30721D01*
X28835Y-30750D01*
X28864Y-30807D01*
X28864Y-30892D01*
X28835Y-30950D01*
X28807Y-30978D01*
X28750Y-31007D01*
X28521Y-31007D01*
X29350Y-31264D02*
X29292Y-31292D01*
X29178Y-31292D01*
X29121Y-31264D01*
X29092Y-31207D01*
X29092Y-30978D01*
X29121Y-30921D01*
X29178Y-30892D01*
X29292Y-30892D01*
X29350Y-30921D01*
X29378Y-30978D01*
X29378Y-31035D01*
X29092Y-31092D01*
X29635Y-31292D02*
X29635Y-30892D01*
X29635Y-30692D02*
X29607Y-30721D01*
X29635Y-30750D01*
X29664Y-30721D01*
X29635Y-30692D01*
X29635Y-30750D01*
X30178Y-31264D02*
X30121Y-31292D01*
X30007Y-31292D01*
X29950Y-31264D01*
X29921Y-31235D01*
X29892Y-31178D01*
X29892Y-31007D01*
X29921Y-30950D01*
X29950Y-30921D01*
X30007Y-30892D01*
X30121Y-30892D01*
X30178Y-30921D01*
X30435Y-31292D02*
X30435Y-30692D01*
X30692Y-31292D02*
X30692Y-30978D01*
X30664Y-30921D01*
X30607Y-30892D01*
X30521Y-30892D01*
X30464Y-30921D01*
X30435Y-30950D01*
X21292Y-30092D02*
X21292Y-29492D01*
X21521Y-29492D01*
X21578Y-29521D01*
X21607Y-29550D01*
X21635Y-29607D01*
X21635Y-29692D01*
X21607Y-29750D01*
X21578Y-29778D01*
X21521Y-29807D01*
X21292Y-29807D01*
X21892Y-30092D02*
X21892Y-29692D01*
X21892Y-29807D02*
X21921Y-29750D01*
X21950Y-29721D01*
X22007Y-29692D01*
X22064Y-29692D01*
X22350Y-30092D02*
X22292Y-30064D01*
X22264Y-30035D01*
X22235Y-29978D01*
X22235Y-29807D01*
X22264Y-29750D01*
X22292Y-29721D01*
X22350Y-29692D01*
X22435Y-29692D01*
X22492Y-29721D01*
X22521Y-29750D01*
X22550Y-29807D01*
X22550Y-29978D01*
X22521Y-30035D01*
X22492Y-30064D01*
X22435Y-30092D01*
X22350Y-30092D01*
X22807Y-29692D02*
X22807Y-30207D01*
X22778Y-30264D01*
X22721Y-30292D01*
X22692Y-30292D01*
X22807Y-29492D02*
X22778Y-29521D01*
X22807Y-29550D01*
X22835Y-29521D01*
X22807Y-29492D01*
X22807Y-29550D01*
X23321Y-30064D02*
X23264Y-30092D01*
X23150Y-30092D01*
X23092Y-30064D01*
X23064Y-30007D01*
X23064Y-29778D01*
X23092Y-29721D01*
X23150Y-29692D01*
X23264Y-29692D01*
X23321Y-29721D01*
X23350Y-29778D01*
X23350Y-29835D01*
X23064Y-29892D01*
X23864Y-30064D02*
X23807Y-30092D01*
X23692Y-30092D01*
X23635Y-30064D01*
X23607Y-30035D01*
X23578Y-29978D01*
X23578Y-29807D01*
X23607Y-29750D01*
X23635Y-29721D01*
X23692Y-29692D01*
X23807Y-29692D01*
X23864Y-29721D01*
X24035Y-29692D02*
X24264Y-29692D01*
X24121Y-29492D02*
X24121Y-30007D01*
X24150Y-30064D01*
X24207Y-30092D01*
X24264Y-30092D01*
X24921Y-30092D02*
X24921Y-29492D01*
X25121Y-29921D01*
X25321Y-29492D01*
X25321Y-30092D01*
X25864Y-29692D02*
X25864Y-30178D01*
X25835Y-30235D01*
X25807Y-30264D01*
X25750Y-30292D01*
X25664Y-30292D01*
X25607Y-30264D01*
X25864Y-30064D02*
X25807Y-30092D01*
X25692Y-30092D01*
X25635Y-30064D01*
X25607Y-30035D01*
X25578Y-29978D01*
X25578Y-29807D01*
X25607Y-29750D01*
X25635Y-29721D01*
X25692Y-29692D01*
X25807Y-29692D01*
X25864Y-29721D01*
X26150Y-30092D02*
X26150Y-29692D01*
X26150Y-29807D02*
X26178Y-29750D01*
X26207Y-29721D01*
X26264Y-29692D01*
X26321Y-29692D01*
X26521Y-30035D02*
X26550Y-30064D01*
X26521Y-30092D01*
X26492Y-30064D01*
X26521Y-30035D01*
X26521Y-30092D01*
X26521Y-29721D02*
X26550Y-29750D01*
X26521Y-29778D01*
X26492Y-29750D01*
X26521Y-29721D01*
X26521Y-29778D01*
X27607Y-30092D02*
X27407Y-29807D01*
X27264Y-30092D02*
X27264Y-29492D01*
X27492Y-29492D01*
X27550Y-29521D01*
X27578Y-29550D01*
X27607Y-29607D01*
X27607Y-29692D01*
X27578Y-29750D01*
X27550Y-29778D01*
X27492Y-29807D01*
X27264Y-29807D01*
X27864Y-30035D02*
X27892Y-30064D01*
X27864Y-30092D01*
X27835Y-30064D01*
X27864Y-30035D01*
X27864Y-30092D01*
X28950Y-30092D02*
X28750Y-29807D01*
X28607Y-30092D02*
X28607Y-29492D01*
X28835Y-29492D01*
X28892Y-29521D01*
X28921Y-29550D01*
X28950Y-29607D01*
X28950Y-29692D01*
X28921Y-29750D01*
X28892Y-29778D01*
X28835Y-29807D01*
X28607Y-29807D01*
X29207Y-30092D02*
X29207Y-29692D01*
X29207Y-29492D02*
X29178Y-29521D01*
X29207Y-29550D01*
X29235Y-29521D01*
X29207Y-29492D01*
X29207Y-29550D01*
X29464Y-30064D02*
X29521Y-30092D01*
X29635Y-30092D01*
X29692Y-30064D01*
X29721Y-30007D01*
X29721Y-29978D01*
X29692Y-29921D01*
X29635Y-29892D01*
X29550Y-29892D01*
X29492Y-29864D01*
X29464Y-29807D01*
X29464Y-29778D01*
X29492Y-29721D01*
X29550Y-29692D01*
X29635Y-29692D01*
X29692Y-29721D01*
X29892Y-29692D02*
X30121Y-29692D01*
X29978Y-29492D02*
X29978Y-30007D01*
X30007Y-30064D01*
X30064Y-30092D01*
X30121Y-30092D01*
X30321Y-30092D02*
X30321Y-29692D01*
X30321Y-29492D02*
X30292Y-29521D01*
X30321Y-29550D01*
X30350Y-29521D01*
X30321Y-29492D01*
X30321Y-29550D01*
X30864Y-30064D02*
X30807Y-30092D01*
X30692Y-30092D01*
X30635Y-30064D01*
X30607Y-30035D01*
X30578Y-29978D01*
X30578Y-29807D01*
X30607Y-29750D01*
X30635Y-29721D01*
X30692Y-29692D01*
X30807Y-29692D01*
X30864Y-29721D01*
X31121Y-30092D02*
X31121Y-29492D01*
X31378Y-30092D02*
X31378Y-29778D01*
X31350Y-29721D01*
X31292Y-29692D01*
X31207Y-29692D01*
X31150Y-29721D01*
X31121Y-29750D01*
X21578Y-28892D02*
X21292Y-28892D01*
X21292Y-28292D01*
X21778Y-28892D02*
X21778Y-28292D01*
X22407Y-28835D02*
X22378Y-28864D01*
X22292Y-28892D01*
X22235Y-28892D01*
X22149Y-28864D01*
X22092Y-28807D01*
X22064Y-28750D01*
X22035Y-28635D01*
X22035Y-28550D01*
X22064Y-28435D01*
X22092Y-28378D01*
X22149Y-28321D01*
X22235Y-28292D01*
X22292Y-28292D01*
X22378Y-28321D01*
X22407Y-28350D01*
X22664Y-28578D02*
X22864Y-28578D01*
X22949Y-28892D02*
X22664Y-28892D01*
X22664Y-28292D01*
X22949Y-28292D01*
X23207Y-28892D02*
X23207Y-28292D01*
X23549Y-28892D01*
X23549Y-28292D01*
X23807Y-28864D02*
X23892Y-28892D01*
X24035Y-28892D01*
X24092Y-28864D01*
X24121Y-28835D01*
X24149Y-28778D01*
X24149Y-28721D01*
X24121Y-28664D01*
X24092Y-28635D01*
X24035Y-28607D01*
X23921Y-28578D01*
X23864Y-28550D01*
X23835Y-28521D01*
X23807Y-28464D01*
X23807Y-28407D01*
X23835Y-28350D01*
X23864Y-28321D01*
X23921Y-28292D01*
X24064Y-28292D01*
X24149Y-28321D01*
X24407Y-28578D02*
X24607Y-28578D01*
X24692Y-28892D02*
X24407Y-28892D01*
X24407Y-28292D01*
X24692Y-28292D01*
X24949Y-28835D02*
X24978Y-28864D01*
X24949Y-28892D01*
X24921Y-28864D01*
X24949Y-28835D01*
X24949Y-28892D01*
X24949Y-28521D02*
X24978Y-28550D01*
X24949Y-28578D01*
X24921Y-28550D01*
X24949Y-28521D01*
X24949Y-28578D01*
X26035Y-28835D02*
X26007Y-28864D01*
X25921Y-28892D01*
X25864Y-28892D01*
X25778Y-28864D01*
X25721Y-28807D01*
X25692Y-28750D01*
X25664Y-28635D01*
X25664Y-28550D01*
X25692Y-28435D01*
X25721Y-28378D01*
X25778Y-28321D01*
X25864Y-28292D01*
X25921Y-28292D01*
X26007Y-28321D01*
X26035Y-28350D01*
X26635Y-28835D02*
X26607Y-28864D01*
X26521Y-28892D01*
X26464Y-28892D01*
X26378Y-28864D01*
X26321Y-28807D01*
X26292Y-28750D01*
X26264Y-28635D01*
X26264Y-28550D01*
X26292Y-28435D01*
X26321Y-28378D01*
X26378Y-28321D01*
X26464Y-28292D01*
X26521Y-28292D01*
X26607Y-28321D01*
X26635Y-28350D01*
X26892Y-28664D02*
X27349Y-28664D01*
X27835Y-28578D02*
X27921Y-28607D01*
X27949Y-28635D01*
X27978Y-28692D01*
X27978Y-28778D01*
X27949Y-28835D01*
X27921Y-28864D01*
X27864Y-28892D01*
X27635Y-28892D01*
X27635Y-28292D01*
X27835Y-28292D01*
X27892Y-28321D01*
X27921Y-28350D01*
X27949Y-28407D01*
X27949Y-28464D01*
X27921Y-28521D01*
X27892Y-28550D01*
X27835Y-28578D01*
X27635Y-28578D01*
X28349Y-28607D02*
X28349Y-28892D01*
X28149Y-28292D02*
X28349Y-28607D01*
X28549Y-28292D01*
X28749Y-28664D02*
X29207Y-28664D01*
X29464Y-28864D02*
X29549Y-28892D01*
X29692Y-28892D01*
X29749Y-28864D01*
X29778Y-28835D01*
X29807Y-28778D01*
X29807Y-28721D01*
X29778Y-28664D01*
X29749Y-28635D01*
X29692Y-28607D01*
X29578Y-28578D01*
X29521Y-28550D01*
X29492Y-28521D01*
X29464Y-28464D01*
X29464Y-28407D01*
X29492Y-28350D01*
X29521Y-28321D01*
X29578Y-28292D01*
X29721Y-28292D01*
X29807Y-28321D01*
X30035Y-28721D02*
X30321Y-28721D01*
X29978Y-28892D02*
X30178Y-28292D01*
X30378Y-28892D01*
X30578Y-28664D02*
X31035Y-28664D01*
X31264Y-28292D02*
X31635Y-28292D01*
X31435Y-28521D01*
X31521Y-28521D01*
X31578Y-28550D01*
X31607Y-28578D01*
X31635Y-28635D01*
X31635Y-28778D01*
X31607Y-28835D01*
X31578Y-28864D01*
X31521Y-28892D01*
X31350Y-28892D01*
X31292Y-28864D01*
X31264Y-28835D01*
X31892Y-28835D02*
X31921Y-28864D01*
X31892Y-28892D01*
X31864Y-28864D01*
X31892Y-28835D01*
X31892Y-28892D01*
X32292Y-28292D02*
X32350Y-28292D01*
X32407Y-28321D01*
X32435Y-28350D01*
X32464Y-28407D01*
X32492Y-28521D01*
X32492Y-28664D01*
X32464Y-28778D01*
X32435Y-28835D01*
X32407Y-28864D01*
X32350Y-28892D01*
X32292Y-28892D01*
X32235Y-28864D01*
X32207Y-28835D01*
X32178Y-28778D01*
X32150Y-28664D01*
X32150Y-28521D01*
X32178Y-28407D01*
X32207Y-28350D01*
X32235Y-28321D01*
X32292Y-28292D01*
X20550Y-28050D02*
X20550Y-40050D01*
X20550Y-34050D02*
X62550Y-34050D01*
X20550Y-28050D02*
X62550Y-28050D01*
X20550Y-36450D02*
X62550Y-36450D01*
X53750Y-37650D02*
X53750Y-40050D01*
X20550Y-38850D02*
X62550Y-38850D01*
X20550Y-37650D02*
X62550Y-37650D01*
X27150Y-37650D02*
X27150Y-38850D01*
G54D11*
X9064Y11921D02*
X9064Y12021D01*
X9221Y12064D02*
X9221Y11921D01*
X8921Y11921D01*
X8921Y12064D01*
X8921Y12164D02*
X9221Y12364D01*
X8921Y12364D02*
X9221Y12164D01*
X8921Y12435D02*
X8921Y12607D01*
X9221Y12521D02*
X8921Y12521D01*
X13700Y13750D02*
X16050Y13750D01*
X13700Y14900D02*
X16050Y14900D01*
X16050Y13750D02*
X16050Y14900D01*
X25950Y250D02*
X25950Y200D01*
X27450Y250D02*
X25950Y250D01*
X27450Y-1800D02*
X27450Y250D01*
X25950Y-1800D02*
X27450Y-1800D01*
X25950Y250D02*
X25950Y-1800D01*
X14050Y-900D02*
X14050Y-950D01*
X15600Y-900D02*
X14050Y-900D01*
X15600Y-1850D02*
X15600Y-900D01*
X14050Y-1850D02*
X15600Y-1850D01*
X14050Y-900D02*
X14050Y-1850D01*
G54D10*
X4500Y18000D02*
G75*
G03X4500Y18000I-1000J0D01*
G74*
G01*
X2000Y18000D02*
X5000Y18000D01*
X3500Y19500D02*
X3500Y16500D01*
X40000Y-5750D02*
G75*
G03X40000Y-5750I-1000J0D01*
G74*
G01*
X37500Y-5750D02*
X40500Y-5750D01*
X39000Y-4250D02*
X39000Y-7250D01*
G54D11*
X14950Y13200D02*
X15000Y13250D01*
X21750Y12950D02*
X21750Y12850D01*
G54D10*
X22650Y13050D02*
X21750Y13050D01*
G54D11*
X22650Y6250D02*
X22650Y13050D01*
G54D10*
X21750Y6250D02*
X22650Y6250D01*
X21750Y13050D02*
X21750Y6250D01*
G54D11*
X-1569Y7983D02*
X-1664Y7916D01*
X-1569Y7869D02*
X-1769Y7869D01*
X-1769Y7945D01*
X-1759Y7964D01*
X-1750Y7973D01*
X-1730Y7983D01*
X-1702Y7983D01*
X-1683Y7973D01*
X-1673Y7964D01*
X-1664Y7945D01*
X-1664Y7869D01*
X-1673Y8069D02*
X-1673Y8135D01*
X-1569Y8164D02*
X-1569Y8069D01*
X-1769Y8069D01*
X-1769Y8164D01*
X-1569Y8250D02*
X-1769Y8250D01*
X-1626Y8316D01*
X-1769Y8383D01*
X-1569Y8383D01*
X-1769Y8516D02*
X-1769Y8554D01*
X-1759Y8573D01*
X-1740Y8592D01*
X-1702Y8602D01*
X-1635Y8602D01*
X-1597Y8592D01*
X-1578Y8573D01*
X-1569Y8554D01*
X-1569Y8516D01*
X-1578Y8497D01*
X-1597Y8478D01*
X-1635Y8469D01*
X-1702Y8469D01*
X-1740Y8478D01*
X-1759Y8497D01*
X-1769Y8516D01*
X-1769Y8659D02*
X-1569Y8726D01*
X-1769Y8792D01*
X-1673Y8859D02*
X-1673Y8926D01*
X-1569Y8954D02*
X-1569Y8859D01*
X-1769Y8859D01*
X-1769Y8954D01*
X-1673Y9259D02*
X-1673Y9192D01*
X-1569Y9192D02*
X-1769Y9192D01*
X-1769Y9288D01*
X-1769Y9402D02*
X-1769Y9440D01*
X-1759Y9459D01*
X-1740Y9478D01*
X-1702Y9488D01*
X-1635Y9488D01*
X-1597Y9478D01*
X-1578Y9459D01*
X-1569Y9440D01*
X-1569Y9402D01*
X-1578Y9383D01*
X-1597Y9364D01*
X-1635Y9354D01*
X-1702Y9354D01*
X-1740Y9364D01*
X-1759Y9383D01*
X-1769Y9402D01*
X-1569Y9688D02*
X-1664Y9621D01*
X-1569Y9573D02*
X-1769Y9573D01*
X-1769Y9650D01*
X-1759Y9669D01*
X-1750Y9678D01*
X-1730Y9688D01*
X-1702Y9688D01*
X-1683Y9678D01*
X-1673Y9669D01*
X-1664Y9650D01*
X-1664Y9573D01*
X-1769Y9926D02*
X-1607Y9926D01*
X-1588Y9935D01*
X-1578Y9945D01*
X-1569Y9964D01*
X-1569Y10002D01*
X-1578Y10021D01*
X-1588Y10030D01*
X-1607Y10040D01*
X-1769Y10040D01*
X-1578Y10126D02*
X-1569Y10154D01*
X-1569Y10202D01*
X-1578Y10221D01*
X-1588Y10230D01*
X-1607Y10240D01*
X-1626Y10240D01*
X-1645Y10230D01*
X-1654Y10221D01*
X-1664Y10202D01*
X-1673Y10164D01*
X-1683Y10145D01*
X-1692Y10135D01*
X-1711Y10126D01*
X-1730Y10126D01*
X-1750Y10135D01*
X-1759Y10145D01*
X-1769Y10164D01*
X-1769Y10211D01*
X-1759Y10240D01*
X-1673Y10392D02*
X-1664Y10421D01*
X-1654Y10430D01*
X-1635Y10440D01*
X-1607Y10440D01*
X-1588Y10430D01*
X-1578Y10421D01*
X-1569Y10402D01*
X-1569Y10326D01*
X-1769Y10326D01*
X-1769Y10392D01*
X-1759Y10411D01*
X-1750Y10421D01*
X-1730Y10430D01*
X-1711Y10430D01*
X-1692Y10421D01*
X-1683Y10411D01*
X-1673Y10392D01*
X-1673Y10326D01*
X-1569Y-3316D02*
X-1664Y-3383D01*
X-1569Y-3430D02*
X-1769Y-3430D01*
X-1769Y-3354D01*
X-1759Y-3335D01*
X-1750Y-3326D01*
X-1730Y-3316D01*
X-1702Y-3316D01*
X-1683Y-3326D01*
X-1673Y-3335D01*
X-1664Y-3354D01*
X-1664Y-3430D01*
X-1673Y-3230D02*
X-1673Y-3164D01*
X-1569Y-3135D02*
X-1569Y-3230D01*
X-1769Y-3230D01*
X-1769Y-3135D01*
X-1569Y-3050D02*
X-1769Y-3050D01*
X-1626Y-2983D01*
X-1769Y-2916D01*
X-1569Y-2916D01*
X-1769Y-2783D02*
X-1769Y-2745D01*
X-1759Y-2726D01*
X-1740Y-2707D01*
X-1702Y-2697D01*
X-1635Y-2697D01*
X-1597Y-2707D01*
X-1578Y-2726D01*
X-1569Y-2745D01*
X-1569Y-2783D01*
X-1578Y-2802D01*
X-1597Y-2821D01*
X-1635Y-2830D01*
X-1702Y-2830D01*
X-1740Y-2821D01*
X-1759Y-2802D01*
X-1769Y-2783D01*
X-1769Y-2640D02*
X-1569Y-2573D01*
X-1769Y-2507D01*
X-1673Y-2440D02*
X-1673Y-2373D01*
X-1569Y-2345D02*
X-1569Y-2440D01*
X-1769Y-2440D01*
X-1769Y-2345D01*
X-1673Y-2040D02*
X-1673Y-2107D01*
X-1569Y-2107D02*
X-1769Y-2107D01*
X-1769Y-2011D01*
X-1769Y-1897D02*
X-1769Y-1859D01*
X-1759Y-1840D01*
X-1740Y-1821D01*
X-1702Y-1811D01*
X-1635Y-1811D01*
X-1597Y-1821D01*
X-1578Y-1840D01*
X-1569Y-1859D01*
X-1569Y-1897D01*
X-1578Y-1916D01*
X-1597Y-1935D01*
X-1635Y-1945D01*
X-1702Y-1945D01*
X-1740Y-1935D01*
X-1759Y-1916D01*
X-1769Y-1897D01*
X-1569Y-1611D02*
X-1664Y-1678D01*
X-1569Y-1726D02*
X-1769Y-1726D01*
X-1769Y-1650D01*
X-1759Y-1630D01*
X-1750Y-1621D01*
X-1730Y-1611D01*
X-1702Y-1611D01*
X-1683Y-1621D01*
X-1673Y-1630D01*
X-1664Y-1650D01*
X-1664Y-1726D01*
X-1769Y-1373D02*
X-1607Y-1373D01*
X-1588Y-1364D01*
X-1578Y-1354D01*
X-1569Y-1335D01*
X-1569Y-1297D01*
X-1578Y-1278D01*
X-1588Y-1269D01*
X-1607Y-1259D01*
X-1769Y-1259D01*
X-1578Y-1173D02*
X-1569Y-1145D01*
X-1569Y-1097D01*
X-1578Y-1078D01*
X-1588Y-1069D01*
X-1607Y-1059D01*
X-1626Y-1059D01*
X-1645Y-1069D01*
X-1654Y-1078D01*
X-1664Y-1097D01*
X-1673Y-1135D01*
X-1683Y-1154D01*
X-1692Y-1164D01*
X-1711Y-1173D01*
X-1730Y-1173D01*
X-1750Y-1164D01*
X-1759Y-1154D01*
X-1769Y-1135D01*
X-1769Y-1088D01*
X-1759Y-1059D01*
X-1673Y-907D02*
X-1664Y-878D01*
X-1654Y-869D01*
X-1635Y-859D01*
X-1607Y-859D01*
X-1588Y-869D01*
X-1578Y-878D01*
X-1569Y-897D01*
X-1569Y-973D01*
X-1769Y-973D01*
X-1769Y-907D01*
X-1759Y-888D01*
X-1750Y-878D01*
X-1730Y-869D01*
X-1711Y-869D01*
X-1692Y-878D01*
X-1683Y-888D01*
X-1673Y-907D01*
X-1673Y-973D01*
G54D12*
X21952Y6421D02*
X21952Y6730D01*
X22142Y6564D01*
X22142Y6635D01*
X22166Y6683D01*
X22190Y6707D01*
X22238Y6730D01*
X22357Y6730D01*
X22404Y6707D01*
X22428Y6683D01*
X22452Y6635D01*
X22452Y6492D01*
X22428Y6445D01*
X22404Y6421D01*
X21952Y6873D02*
X22452Y7040D01*
X21952Y7207D01*
X22428Y7730D02*
X22452Y7802D01*
X22452Y7921D01*
X22428Y7969D01*
X22404Y7992D01*
X22357Y8016D01*
X22309Y8016D01*
X22261Y7992D01*
X22238Y7969D01*
X22214Y7921D01*
X22190Y7826D01*
X22166Y7778D01*
X22142Y7754D01*
X22095Y7730D01*
X22047Y7730D01*
X22000Y7754D01*
X21976Y7778D01*
X21952Y7826D01*
X21952Y7945D01*
X21976Y8016D01*
X22452Y8230D02*
X21952Y8230D01*
X22190Y8230D02*
X22190Y8516D01*
X22452Y8516D02*
X21952Y8516D01*
X22452Y8754D02*
X21952Y8754D01*
X22190Y8992D02*
X22190Y9159D01*
X22452Y9230D02*
X22452Y8992D01*
X21952Y8992D01*
X21952Y9230D01*
X22452Y9683D02*
X22452Y9445D01*
X21952Y9445D01*
X22452Y9850D02*
X21952Y9850D01*
X21952Y9969D01*
X21976Y10040D01*
X22023Y10088D01*
X22071Y10111D01*
X22166Y10135D01*
X22238Y10135D01*
X22333Y10111D01*
X22380Y10088D01*
X22428Y10040D01*
X22452Y9969D01*
X22452Y9850D01*
X22428Y10326D02*
X22452Y10397D01*
X22452Y10516D01*
X22428Y10564D01*
X22404Y10588D01*
X22357Y10611D01*
X22309Y10611D01*
X22261Y10588D01*
X22238Y10564D01*
X22214Y10516D01*
X22190Y10421D01*
X22166Y10373D01*
X22142Y10350D01*
X22095Y10326D01*
X22047Y10326D01*
X22000Y10350D01*
X21976Y10373D01*
X21952Y10421D01*
X21952Y10540D01*
X21976Y10611D01*
X21952Y11302D02*
X21952Y11397D01*
X21976Y11445D01*
X22023Y11492D01*
X22119Y11516D01*
X22285Y11516D01*
X22380Y11492D01*
X22428Y11445D01*
X22452Y11397D01*
X22452Y11302D01*
X22428Y11254D01*
X22380Y11207D01*
X22285Y11183D01*
X22119Y11183D01*
X22023Y11207D01*
X21976Y11254D01*
X21952Y11302D01*
X22452Y11730D02*
X21952Y11730D01*
X22452Y12016D01*
X21952Y12016D01*
X22452Y12492D02*
X22452Y12254D01*
X21952Y12254D01*
X22214Y12754D02*
X22452Y12754D01*
X21952Y12588D02*
X22214Y12754D01*
X21952Y12921D01*
G54D11*
X13700Y14900D02*
X13700Y13750D01*
X13992Y13928D02*
X13892Y14071D01*
X13821Y13928D02*
X13821Y14228D01*
X13935Y14228D01*
X13964Y14214D01*
X13978Y14200D01*
X13992Y14171D01*
X13992Y14128D01*
X13978Y14100D01*
X13964Y14085D01*
X13935Y14071D01*
X13821Y14071D01*
X14278Y13928D02*
X14107Y13928D01*
X14192Y13928D02*
X14192Y14228D01*
X14164Y14185D01*
X14135Y14157D01*
X14107Y14142D01*
X14564Y13928D02*
X14392Y13928D01*
X14478Y13928D02*
X14478Y14228D01*
X14450Y14185D01*
X14421Y14157D01*
X14392Y14142D01*
X14692Y14085D02*
X14921Y14085D01*
X14921Y14000D02*
X14692Y14000D01*
X15050Y13942D02*
X15092Y13928D01*
X15164Y13928D01*
X15192Y13942D01*
X15207Y13957D01*
X15221Y13985D01*
X15221Y14014D01*
X15207Y14042D01*
X15192Y14057D01*
X15164Y14071D01*
X15107Y14085D01*
X15078Y14100D01*
X15064Y14114D01*
X15050Y14142D01*
X15050Y14171D01*
X15064Y14200D01*
X15078Y14214D01*
X15107Y14228D01*
X15178Y14228D01*
X15221Y14214D01*
X15350Y13928D02*
X15350Y14228D01*
X15464Y14228D01*
X15492Y14214D01*
X15507Y14200D01*
X15521Y14171D01*
X15521Y14128D01*
X15507Y14100D01*
X15492Y14085D01*
X15464Y14071D01*
X15350Y14071D01*
X15650Y13928D02*
X15650Y14228D01*
X13992Y14428D02*
X13892Y14571D01*
X13821Y14428D02*
X13821Y14728D01*
X13935Y14728D01*
X13964Y14714D01*
X13978Y14700D01*
X13992Y14671D01*
X13992Y14628D01*
X13978Y14600D01*
X13964Y14585D01*
X13935Y14571D01*
X13821Y14571D01*
X14278Y14428D02*
X14107Y14428D01*
X14192Y14428D02*
X14192Y14728D01*
X14164Y14685D01*
X14135Y14657D01*
X14107Y14642D01*
X14464Y14728D02*
X14492Y14728D01*
X14521Y14714D01*
X14535Y14700D01*
X14550Y14671D01*
X14564Y14614D01*
X14564Y14542D01*
X14550Y14485D01*
X14535Y14457D01*
X14521Y14442D01*
X14492Y14428D01*
X14464Y14428D01*
X14435Y14442D01*
X14421Y14457D01*
X14407Y14485D01*
X14392Y14542D01*
X14392Y14614D01*
X14407Y14671D01*
X14421Y14700D01*
X14435Y14714D01*
X14464Y14728D01*
X14692Y14585D02*
X14921Y14585D01*
X14921Y14500D02*
X14692Y14500D01*
X15064Y14428D02*
X15064Y14728D01*
X15178Y14728D01*
X15207Y14714D01*
X15221Y14700D01*
X15235Y14671D01*
X15235Y14628D01*
X15221Y14600D01*
X15207Y14585D01*
X15178Y14571D01*
X15064Y14571D01*
X15335Y14728D02*
X15407Y14428D01*
X15464Y14642D01*
X15521Y14428D01*
X15592Y14728D01*
X15707Y14428D02*
X15707Y14728D01*
X15807Y14514D01*
X15907Y14728D01*
X15907Y14428D01*
X19630Y13402D02*
X19630Y13288D01*
X19630Y13345D02*
X19430Y13345D01*
X19459Y13326D01*
X19478Y13307D01*
X19488Y13288D01*
X20871Y14571D02*
X20571Y14571D01*
X20571Y14642D01*
X20585Y14685D01*
X20614Y14714D01*
X20642Y14728D01*
X20700Y14742D01*
X20742Y14742D01*
X20800Y14728D01*
X20828Y14714D01*
X20857Y14685D01*
X20871Y14642D01*
X20871Y14571D01*
X20571Y14842D02*
X20571Y15028D01*
X20685Y14928D01*
X20685Y14971D01*
X20700Y15000D01*
X20714Y15014D01*
X20742Y15028D01*
X20814Y15028D01*
X20842Y15014D01*
X20857Y15000D01*
X20871Y14971D01*
X20871Y14885D01*
X20857Y14857D01*
X20842Y14842D01*
X19871Y14571D02*
X19571Y14571D01*
X19571Y14642D01*
X19585Y14685D01*
X19614Y14714D01*
X19642Y14728D01*
X19700Y14742D01*
X19742Y14742D01*
X19800Y14728D01*
X19828Y14714D01*
X19857Y14685D01*
X19871Y14642D01*
X19871Y14571D01*
X19671Y15000D02*
X19871Y15000D01*
X19557Y14928D02*
X19771Y14857D01*
X19771Y15042D01*
X18871Y14571D02*
X18571Y14571D01*
X18571Y14642D01*
X18585Y14685D01*
X18614Y14714D01*
X18642Y14728D01*
X18700Y14742D01*
X18742Y14742D01*
X18800Y14728D01*
X18828Y14714D01*
X18857Y14685D01*
X18871Y14642D01*
X18871Y14571D01*
X18571Y15014D02*
X18571Y14871D01*
X18714Y14857D01*
X18700Y14871D01*
X18685Y14900D01*
X18685Y14971D01*
X18700Y15000D01*
X18714Y15014D01*
X18742Y15028D01*
X18814Y15028D01*
X18842Y15014D01*
X18857Y15000D01*
X18871Y14971D01*
X18871Y14900D01*
X18857Y14871D01*
X18842Y14857D01*
X9040Y14652D02*
X9030Y14633D01*
X9030Y14604D01*
X9040Y14576D01*
X9059Y14557D01*
X9078Y14547D01*
X9116Y14538D01*
X9145Y14538D01*
X9183Y14547D01*
X9202Y14557D01*
X9221Y14576D01*
X9230Y14604D01*
X9230Y14623D01*
X9221Y14652D01*
X9211Y14661D01*
X9145Y14661D01*
X9145Y14623D01*
X9230Y14747D02*
X9030Y14747D01*
X9230Y14861D01*
X9030Y14861D01*
X9230Y14957D02*
X9030Y14957D01*
X9030Y15004D01*
X9040Y15033D01*
X9059Y15052D01*
X9078Y15061D01*
X9116Y15071D01*
X9145Y15071D01*
X9183Y15061D01*
X9202Y15052D01*
X9221Y15033D01*
X9230Y15004D01*
X9230Y14957D01*
X8173Y14438D02*
X8173Y14533D01*
X8230Y14419D02*
X8030Y14485D01*
X8230Y14552D01*
X8230Y14733D02*
X8135Y14666D01*
X8230Y14619D02*
X8030Y14619D01*
X8030Y14695D01*
X8040Y14714D01*
X8050Y14723D01*
X8069Y14733D01*
X8097Y14733D01*
X8116Y14723D01*
X8126Y14714D01*
X8135Y14695D01*
X8135Y14619D01*
X8126Y14819D02*
X8126Y14885D01*
X8230Y14914D02*
X8230Y14819D01*
X8030Y14819D01*
X8030Y14914D01*
X8126Y15066D02*
X8126Y15000D01*
X8230Y15000D02*
X8030Y15000D01*
X8030Y15095D01*
G54D13*
X19240Y13420D02*
X19010Y13190D01*
X18780Y13420D02*
X19240Y13420D01*
X19010Y13190D02*
X18780Y13420D01*
X15230Y12990D02*
X15230Y13470D01*
X15230Y13470D02*
X14940Y13180D01*
X14940Y13180D02*
X15210Y12910D01*
X15230Y12890D02*
X15230Y12990D01*
X14900Y12890D02*
X14900Y13460D01*
X14880Y13180D02*
X14700Y13180D01*
X15230Y13180D02*
X15500Y13180D01*
G54D11*
X23873Y-2511D02*
X23873Y-2416D01*
X23930Y-2530D02*
X23730Y-2464D01*
X23930Y-2397D01*
X23730Y-2235D02*
X23730Y-2330D01*
X23826Y-2340D01*
X23816Y-2330D01*
X23807Y-2311D01*
X23807Y-2264D01*
X23816Y-2245D01*
X23826Y-2235D01*
X23845Y-2226D01*
X23892Y-2226D01*
X23911Y-2235D01*
X23921Y-2245D01*
X23930Y-2264D01*
X23930Y-2311D01*
X23921Y-2330D01*
X23911Y-2340D01*
X22773Y-2511D02*
X22773Y-2416D01*
X22830Y-2530D02*
X22630Y-2464D01*
X22830Y-2397D01*
X22697Y-2245D02*
X22830Y-2245D01*
X22621Y-2292D02*
X22764Y-2340D01*
X22764Y-2216D01*
X21773Y-2511D02*
X21773Y-2416D01*
X21830Y-2530D02*
X21630Y-2464D01*
X21830Y-2397D01*
X21630Y-2350D02*
X21630Y-2226D01*
X21707Y-2292D01*
X21707Y-2264D01*
X21716Y-2245D01*
X21726Y-2235D01*
X21745Y-2226D01*
X21792Y-2226D01*
X21811Y-2235D01*
X21821Y-2245D01*
X21830Y-2264D01*
X21830Y-2321D01*
X21821Y-2340D01*
X21811Y-2350D01*
X20773Y-2511D02*
X20773Y-2416D01*
X20830Y-2530D02*
X20630Y-2464D01*
X20830Y-2397D01*
X20650Y-2340D02*
X20640Y-2330D01*
X20630Y-2311D01*
X20630Y-2264D01*
X20640Y-2245D01*
X20650Y-2235D01*
X20669Y-2226D01*
X20688Y-2226D01*
X20716Y-2235D01*
X20830Y-2350D01*
X20830Y-2226D01*
X19773Y-2511D02*
X19773Y-2416D01*
X19830Y-2530D02*
X19630Y-2464D01*
X19830Y-2397D01*
X19830Y-2226D02*
X19830Y-2340D01*
X19830Y-2283D02*
X19630Y-2283D01*
X19659Y-2302D01*
X19678Y-2321D01*
X19688Y-2340D01*
X18773Y-2511D02*
X18773Y-2416D01*
X18830Y-2530D02*
X18630Y-2464D01*
X18830Y-2397D01*
X18630Y-2292D02*
X18630Y-2273D01*
X18640Y-2254D01*
X18650Y-2245D01*
X18669Y-2235D01*
X18707Y-2226D01*
X18754Y-2226D01*
X18792Y-2235D01*
X18811Y-2245D01*
X18821Y-2254D01*
X18830Y-2273D01*
X18830Y-2292D01*
X18821Y-2311D01*
X18811Y-2321D01*
X18792Y-2330D01*
X18754Y-2340D01*
X18707Y-2340D01*
X18669Y-2330D01*
X18650Y-2321D01*
X18640Y-2311D01*
X18630Y-2292D01*
X15471Y-1690D02*
X15171Y-1690D01*
X15171Y-1595D01*
X15185Y-1571D01*
X15200Y-1559D01*
X15228Y-1547D01*
X15271Y-1547D01*
X15300Y-1559D01*
X15314Y-1571D01*
X15328Y-1595D01*
X15328Y-1690D01*
X15171Y-1464D02*
X15471Y-1404D01*
X15257Y-1357D01*
X15471Y-1309D01*
X15171Y-1250D01*
X15471Y-1011D02*
X15328Y-1095D01*
X15471Y-1154D02*
X15171Y-1154D01*
X15171Y-1059D01*
X15185Y-1035D01*
X15200Y-1023D01*
X15228Y-1011D01*
X15271Y-1011D01*
X15300Y-1023D01*
X15314Y-1035D01*
X15328Y-1059D01*
X15328Y-1154D01*
X14814Y-1678D02*
X14814Y-1578D01*
X14971Y-1535D02*
X14971Y-1678D01*
X14671Y-1678D01*
X14671Y-1535D01*
X14671Y-1435D02*
X14971Y-1235D01*
X14671Y-1235D02*
X14971Y-1435D01*
X14671Y-1164D02*
X14671Y-992D01*
X14971Y-1078D02*
X14671Y-1078D01*
X15740Y-2397D02*
X15730Y-2416D01*
X15730Y-2445D01*
X15740Y-2473D01*
X15759Y-2492D01*
X15778Y-2502D01*
X15816Y-2511D01*
X15845Y-2511D01*
X15883Y-2502D01*
X15902Y-2492D01*
X15921Y-2473D01*
X15930Y-2445D01*
X15930Y-2426D01*
X15921Y-2397D01*
X15911Y-2388D01*
X15845Y-2388D01*
X15845Y-2426D01*
X15930Y-2302D02*
X15730Y-2302D01*
X15930Y-2188D01*
X15730Y-2188D01*
X15930Y-2092D02*
X15730Y-2092D01*
X15730Y-2045D01*
X15740Y-2016D01*
X15759Y-1997D01*
X15778Y-1988D01*
X15816Y-1978D01*
X15845Y-1978D01*
X15883Y-1988D01*
X15902Y-1997D01*
X15921Y-2016D01*
X15930Y-2045D01*
X15930Y-2092D01*
G54D10*
X20711Y11459D02*
X20311Y11459D01*
X20673Y11878D02*
X20692Y11859D01*
X20711Y11802D01*
X20711Y11764D01*
X20692Y11707D01*
X20654Y11669D01*
X20616Y11650D01*
X20540Y11630D01*
X20483Y11630D01*
X20407Y11650D01*
X20369Y11669D01*
X20330Y11707D01*
X20311Y11764D01*
X20311Y11802D01*
X20330Y11859D01*
X20350Y11878D01*
X20692Y12030D02*
X20711Y12088D01*
X20711Y12183D01*
X20692Y12221D01*
X20673Y12240D01*
X20635Y12259D01*
X20597Y12259D01*
X20559Y12240D01*
X20540Y12221D01*
X20521Y12183D01*
X20502Y12107D01*
X20483Y12069D01*
X20464Y12050D01*
X20426Y12030D01*
X20388Y12030D01*
X20350Y12050D01*
X20330Y12069D01*
X20311Y12107D01*
X20311Y12202D01*
X20330Y12259D01*
X20711Y12430D02*
X20311Y12430D01*
X20311Y12583D01*
X20330Y12621D01*
X20350Y12640D01*
X20388Y12659D01*
X20445Y12659D01*
X20483Y12640D01*
X20502Y12621D01*
X20521Y12583D01*
X20521Y12430D01*
X39000Y16500D02*
X38750Y16750D01*
X38750Y-4250D02*
X39000Y-4000D01*
X-5000Y-4250D02*
X-5250Y-4000D01*
X-5250Y16500D02*
X-5000Y16750D01*
X-5250Y11100D02*
X-5250Y-4000D01*
X-5250Y16500D02*
X-5250Y12050D01*
X-1000Y11100D02*
X-5250Y11100D01*
X-1000Y12050D02*
X-1000Y11100D01*
X-5250Y12050D02*
X-1000Y12050D01*
G54D11*
X13730Y-2407D02*
X13730Y-2502D01*
X13826Y-2511D01*
X13816Y-2502D01*
X13807Y-2483D01*
X13807Y-2435D01*
X13816Y-2416D01*
X13826Y-2407D01*
X13845Y-2397D01*
X13892Y-2397D01*
X13911Y-2407D01*
X13921Y-2416D01*
X13930Y-2435D01*
X13930Y-2483D01*
X13921Y-2502D01*
X13911Y-2511D01*
X13730Y-2340D02*
X13930Y-2273D01*
X13730Y-2207D01*
X11930Y-2388D02*
X11835Y-2454D01*
X11930Y-2502D02*
X11730Y-2502D01*
X11730Y-2426D01*
X11740Y-2407D01*
X11750Y-2397D01*
X11769Y-2388D01*
X11797Y-2388D01*
X11816Y-2397D01*
X11826Y-2407D01*
X11835Y-2426D01*
X11835Y-2502D01*
X11921Y-2311D02*
X11930Y-2283D01*
X11930Y-2235D01*
X11921Y-2216D01*
X11911Y-2207D01*
X11892Y-2197D01*
X11873Y-2197D01*
X11854Y-2207D01*
X11845Y-2216D01*
X11835Y-2235D01*
X11826Y-2273D01*
X11816Y-2292D01*
X11807Y-2302D01*
X11788Y-2311D01*
X11769Y-2311D01*
X11750Y-2302D01*
X11740Y-2292D01*
X11730Y-2273D01*
X11730Y-2226D01*
X11740Y-2197D01*
X11730Y-2140D02*
X11730Y-2026D01*
X11930Y-2083D02*
X11730Y-2083D01*
X12730Y-2521D02*
X12730Y-2397D01*
X12807Y-2464D01*
X12807Y-2435D01*
X12816Y-2416D01*
X12826Y-2407D01*
X12845Y-2397D01*
X12892Y-2397D01*
X12911Y-2407D01*
X12921Y-2416D01*
X12930Y-2435D01*
X12930Y-2492D01*
X12921Y-2511D01*
X12911Y-2521D01*
X12911Y-2311D02*
X12921Y-2302D01*
X12930Y-2311D01*
X12921Y-2321D01*
X12911Y-2311D01*
X12930Y-2311D01*
X12730Y-2235D02*
X12730Y-2111D01*
X12807Y-2178D01*
X12807Y-2149D01*
X12816Y-2130D01*
X12826Y-2121D01*
X12845Y-2111D01*
X12892Y-2111D01*
X12911Y-2121D01*
X12921Y-2130D01*
X12930Y-2149D01*
X12930Y-2207D01*
X12921Y-2226D01*
X12911Y-2235D01*
X12730Y-2054D02*
X12930Y-1988D01*
X12730Y-1921D01*
X16826Y-2502D02*
X16826Y-2435D01*
X16930Y-2407D02*
X16930Y-2502D01*
X16730Y-2502D01*
X16730Y-2407D01*
X16730Y-2340D02*
X16930Y-2207D01*
X16730Y-2207D02*
X16930Y-2340D01*
X16730Y-2159D02*
X16730Y-2045D01*
X16930Y-2102D02*
X16730Y-2102D01*
X16950Y-2026D02*
X16950Y-1873D01*
X16930Y-1826D02*
X16730Y-1826D01*
X16730Y-1749D01*
X16740Y-1730D01*
X16750Y-1721D01*
X16769Y-1711D01*
X16797Y-1711D01*
X16816Y-1721D01*
X16826Y-1730D01*
X16835Y-1749D01*
X16835Y-1826D01*
X16730Y-1645D02*
X16930Y-1597D01*
X16788Y-1559D01*
X16930Y-1521D01*
X16730Y-1473D01*
X16930Y-1283D02*
X16835Y-1349D01*
X16930Y-1397D02*
X16730Y-1397D01*
X16730Y-1321D01*
X16740Y-1302D01*
X16750Y-1292D01*
X16769Y-1283D01*
X16797Y-1283D01*
X16816Y-1292D01*
X16826Y-1302D01*
X16835Y-1321D01*
X16835Y-1397D01*
X27102Y-1502D02*
X27121Y-1445D01*
X27140Y-1426D01*
X27178Y-1407D01*
X27235Y-1407D01*
X27273Y-1426D01*
X27292Y-1445D01*
X27311Y-1483D01*
X27311Y-1635D01*
X26911Y-1635D01*
X26911Y-1502D01*
X26930Y-1464D01*
X26950Y-1445D01*
X26988Y-1426D01*
X27026Y-1426D01*
X27064Y-1445D01*
X27083Y-1464D01*
X27102Y-1502D01*
X27102Y-1635D01*
X27197Y-1254D02*
X27197Y-1064D01*
X27311Y-1292D02*
X26911Y-1159D01*
X27311Y-1026D01*
X26911Y-950D02*
X26911Y-721D01*
X27311Y-835D02*
X26911Y-835D01*
X27350Y-683D02*
X27350Y-378D01*
X27311Y-283D02*
X26911Y-283D01*
X27311Y-92D02*
X26911Y-92D01*
X27311Y135D01*
X26911Y135D01*
G54D14*
X-950Y11950D02*
X-950Y-4250D01*
G54D10*
X38750Y16750D02*
X-5000Y16750D01*
X39000Y-4000D02*
X39000Y16500D01*
G54D15*
X-5000Y-4250D02*
X38750Y-4250D01*
G54D11*
X16125Y12750D02*
X15350Y12750D01*
X16125Y11850D02*
X15350Y11850D01*
X16125Y11850D02*
X16125Y12750D01*
G54D16*
X14175Y11900D02*
X14175Y12700D01*
G54D11*
X14700Y12750D02*
X14050Y12750D01*
X14050Y11850D02*
X14050Y12750D01*
X14050Y11850D02*
X14700Y11850D01*
X-2200Y6200D02*
G75*
G03X-2200Y6200I-1050J0D01*
G74*
G01*
X29968Y4575D02*
X29574Y4181D01*
X29968Y4575D02*
X29968Y8118D01*
X26031Y8118D02*
X29968Y8118D01*
X26031Y4181D02*
X26031Y8118D01*
X26031Y4181D02*
X29574Y4181D01*
G54D17*
X30040Y4197D02*
G75*
G03X30040Y4197I-87J0D01*
G74*
G01*
G54D11*
X29823Y1749D02*
X31476Y1749D01*
X29823Y-849D02*
X31476Y-849D01*
G54D18*
X31650Y-1006D02*
G75*
G03X31650Y-1006I-55J0D01*
G74*
G01*
G54D11*
X31476Y1749D02*
X31476Y-849D01*
X29823Y-849D02*
X29823Y1749D01*
G54D19*
X28772Y11731D02*
X28772Y9668D01*
G54D15*
X28614Y11762D02*
X31685Y11762D01*
G54D19*
X28614Y11731D02*
X28614Y9668D01*
G54D15*
X31685Y9637D02*
X31685Y11762D01*
X28614Y9637D02*
X31685Y9637D01*
G54D11*
X2950Y16050D02*
X2950Y15750D01*
X2950Y13550D02*
X2950Y13250D01*
X2800Y15900D02*
X3100Y15900D01*
X4450Y15250D02*
X4450Y13750D01*
X2950Y15550D02*
X4150Y15550D01*
X4450Y15250D02*
X4150Y15550D01*
X2650Y15250D02*
X2650Y13750D01*
X2650Y15250D02*
X2950Y15550D01*
X3600Y13850D02*
X3500Y13850D01*
X2650Y13750D02*
X4450Y13750D01*
G54D12*
X15650Y15250D02*
X7650Y15250D01*
X7650Y15250D02*
X7650Y16250D01*
X7650Y16250D02*
X15650Y16250D01*
X15650Y16250D02*
X15650Y15250D01*
X14650Y16250D02*
X14650Y15250D01*
G54D15*
X15850Y3850D02*
X15850Y3050D01*
X18650Y4550D02*
X18650Y4650D01*
X18650Y4650D02*
X15850Y4650D01*
X15850Y4650D02*
X15850Y4550D01*
X18650Y3050D02*
X18650Y3850D01*
X18650Y2250D02*
X18650Y2350D01*
X18650Y2250D02*
X15850Y2250D01*
X15850Y2250D02*
X15850Y2350D01*
X15850Y6650D02*
X15850Y5850D01*
X18650Y7350D02*
X18650Y7450D01*
X18650Y7450D02*
X15850Y7450D01*
X15850Y7450D02*
X15850Y7350D01*
X18650Y5850D02*
X18650Y6650D01*
X18650Y5050D02*
X18650Y5150D01*
X18650Y5050D02*
X15850Y5050D01*
X15850Y5050D02*
X15850Y5150D01*
X15850Y9450D02*
X15850Y8650D01*
X18650Y10150D02*
X18650Y10250D01*
X18650Y10250D02*
X15850Y10250D01*
X15850Y10250D02*
X15850Y10150D01*
X18650Y8650D02*
X18650Y9450D01*
X18650Y7850D02*
X18650Y7950D01*
X18650Y7850D02*
X15850Y7850D01*
X15850Y7850D02*
X15850Y7950D01*
G54D12*
X24250Y15250D02*
X16250Y15250D01*
X16250Y15250D02*
X16250Y16250D01*
X16250Y16250D02*
X24250Y16250D01*
X24250Y16250D02*
X24250Y15250D01*
X23250Y16250D02*
X23250Y15250D01*
G54D11*
X4750Y14900D02*
X4750Y15600D01*
X4750Y15600D02*
X5950Y15600D01*
X5950Y15600D02*
X5950Y14900D01*
X5950Y14900D02*
X4750Y14900D01*
X-350Y15900D02*
X-350Y15000D01*
X-350Y15000D02*
X300Y15000D01*
X1000Y15900D02*
X1650Y15900D01*
X1650Y15900D02*
X1650Y15000D01*
X1650Y15000D02*
X1000Y15000D01*
X300Y15900D02*
X-350Y15900D01*
X25550Y2200D02*
X25550Y1300D01*
X25550Y1300D02*
X26200Y1300D01*
X26900Y2200D02*
X27550Y2200D01*
X27550Y2200D02*
X27550Y1300D01*
X27550Y1300D02*
X26900Y1300D01*
X26200Y2200D02*
X25550Y2200D01*
X28300Y9300D02*
X28300Y10200D01*
X28300Y10200D02*
X27650Y10200D01*
X26950Y9300D02*
X26300Y9300D01*
X26300Y9300D02*
X26300Y10200D01*
X26300Y10200D02*
X26950Y10200D01*
X27650Y9300D02*
X28300Y9300D01*
X7150Y13400D02*
X7150Y14300D01*
X7150Y14300D02*
X6500Y14300D01*
X5800Y13400D02*
X5150Y13400D01*
X5150Y13400D02*
X5150Y14300D01*
X5150Y14300D02*
X5800Y14300D01*
X6500Y13400D02*
X7150Y13400D01*
X500Y14350D02*
X-400Y14350D01*
X-400Y14350D02*
X-400Y13700D01*
X500Y13000D02*
X500Y12350D01*
X500Y12350D02*
X-400Y12350D01*
X-400Y12350D02*
X-400Y13000D01*
X500Y13700D02*
X500Y14350D01*
X1800Y14350D02*
X900Y14350D01*
X900Y14350D02*
X900Y13700D01*
X1800Y13000D02*
X1800Y12350D01*
X1800Y12350D02*
X900Y12350D01*
X900Y12350D02*
X900Y13000D01*
X1800Y13700D02*
X1800Y14350D01*
G54D20*
X29756Y1597D02*
X29756Y1872D01*
X29756Y1203D02*
X29756Y928D01*
X29244Y1597D02*
X29244Y1872D01*
X29244Y928D02*
X29244Y1203D01*
X29250Y1872D02*
X29750Y1872D01*
X29750Y928D02*
X29250Y928D01*
X29897Y3194D02*
X30172Y3194D01*
X29503Y3194D02*
X29228Y3194D01*
X29897Y3706D02*
X30172Y3706D01*
X29228Y3706D02*
X29503Y3706D01*
X30172Y3700D02*
X30172Y3200D01*
X29228Y3200D02*
X29228Y3700D01*
X7006Y15447D02*
X7006Y15722D01*
X7006Y15053D02*
X7006Y14778D01*
X6494Y15447D02*
X6494Y15722D01*
X6494Y14778D02*
X6494Y15053D01*
X6500Y15722D02*
X7000Y15722D01*
X7000Y14778D02*
X6500Y14778D01*
X29103Y9406D02*
X28828Y9406D01*
X29497Y9406D02*
X29772Y9406D01*
X29103Y8894D02*
X28828Y8894D01*
X29772Y8894D02*
X29497Y8894D01*
X28828Y8900D02*
X28828Y9400D01*
X29772Y9400D02*
X29772Y8900D01*
X29056Y1597D02*
X29056Y1872D01*
X29056Y1203D02*
X29056Y928D01*
X28544Y1597D02*
X28544Y1872D01*
X28544Y928D02*
X28544Y1203D01*
X28550Y1872D02*
X29050Y1872D01*
X29050Y928D02*
X28550Y928D01*
X29103Y8756D02*
X28828Y8756D01*
X29497Y8756D02*
X29772Y8756D01*
X29103Y8244D02*
X28828Y8244D01*
X29772Y8244D02*
X29497Y8244D01*
X28828Y8250D02*
X28828Y8750D01*
X29772Y8750D02*
X29772Y8250D01*
G54D11*
X25250Y7300D02*
X25250Y8200D01*
X25250Y8200D02*
X25750Y8200D01*
X25750Y8200D02*
X25750Y7300D01*
X25750Y7300D02*
X25250Y7300D01*
X25950Y14650D02*
X26850Y14650D01*
X26850Y14650D02*
X26850Y14150D01*
X26850Y14150D02*
X25950Y14150D01*
X25950Y14150D02*
X25950Y14650D01*
X27200Y500D02*
X26300Y500D01*
X26300Y500D02*
X26300Y1000D01*
X26300Y1000D02*
X27200Y1000D01*
X27200Y1000D02*
X27200Y500D01*
X19500Y10100D02*
X20400Y10100D01*
X20400Y10100D02*
X20400Y9600D01*
X20400Y9600D02*
X19500Y9600D01*
X19500Y9600D02*
X19500Y10100D01*
X5850Y12500D02*
X6750Y12500D01*
X6750Y12500D02*
X6750Y12000D01*
X6750Y12000D02*
X5850Y12000D01*
X5850Y12000D02*
X5850Y12500D01*
X13000Y2250D02*
X13000Y1350D01*
X13000Y1350D02*
X12500Y1350D01*
X12500Y1350D02*
X12500Y2250D01*
X12500Y2250D02*
X13000Y2250D01*
X7600Y14300D02*
X8500Y14300D01*
X8500Y14300D02*
X8500Y13800D01*
X8500Y13800D02*
X7600Y13800D01*
X7600Y13800D02*
X7600Y14300D01*
X19500Y8250D02*
X20400Y8250D01*
X20400Y8250D02*
X20400Y7750D01*
X20400Y7750D02*
X19500Y7750D01*
X19500Y7750D02*
X19500Y8250D01*
X14300Y11650D02*
X15200Y11650D01*
X15200Y11650D02*
X15200Y11150D01*
X15200Y11150D02*
X14300Y11150D01*
X14300Y11150D02*
X14300Y11650D01*
X25250Y8400D02*
X25250Y9300D01*
X25250Y9300D02*
X25750Y9300D01*
X25750Y9300D02*
X25750Y8400D01*
X25750Y8400D02*
X25250Y8400D01*
X13000Y8250D02*
X13000Y7350D01*
X13000Y7350D02*
X12500Y7350D01*
X12500Y7350D02*
X12500Y8250D01*
X12500Y8250D02*
X13000Y8250D01*
X12950Y14500D02*
X12050Y14500D01*
X12050Y14500D02*
X12050Y15000D01*
X12050Y15000D02*
X12950Y15000D01*
X12950Y15000D02*
X12950Y14500D01*
X12950Y13750D02*
X12050Y13750D01*
X12050Y13750D02*
X12050Y14250D01*
X12050Y14250D02*
X12950Y14250D01*
X12950Y14250D02*
X12950Y13750D01*
X13000Y4250D02*
X13000Y3350D01*
X13000Y3350D02*
X12500Y3350D01*
X12500Y3350D02*
X12500Y4250D01*
X12500Y4250D02*
X13000Y4250D01*
X15200Y-2400D02*
X14300Y-2400D01*
X14300Y-2400D02*
X14300Y-1900D01*
X14300Y-1900D02*
X15200Y-1900D01*
X15200Y-1900D02*
X15200Y-2400D01*
X13000Y6250D02*
X13000Y5350D01*
X13000Y5350D02*
X12500Y5350D01*
X12500Y5350D02*
X12500Y6250D01*
X12500Y6250D02*
X13000Y6250D01*
X25950Y12650D02*
X26850Y12650D01*
X26850Y12650D02*
X26850Y12150D01*
X26850Y12150D02*
X25950Y12150D01*
X25950Y12150D02*
X25950Y12650D01*
X25950Y13650D02*
X26850Y13650D01*
X26850Y13650D02*
X26850Y13150D01*
X26850Y13150D02*
X25950Y13150D01*
X25950Y13150D02*
X25950Y13650D01*
X13000Y10250D02*
X13000Y9350D01*
X13000Y9350D02*
X12500Y9350D01*
X12500Y9350D02*
X12500Y10250D01*
X12500Y10250D02*
X13000Y10250D01*
X30550Y6625D02*
X30350Y6625D01*
X30350Y6625D02*
X30350Y6325D01*
X30350Y6325D02*
X30550Y6325D01*
X30750Y6625D02*
X30950Y6625D01*
X30950Y6625D02*
X30950Y6325D01*
X30950Y6325D02*
X30750Y6325D01*
X28900Y3400D02*
X29100Y3400D01*
X29100Y3400D02*
X29100Y3700D01*
X29100Y3700D02*
X28900Y3700D01*
X28700Y3400D02*
X28500Y3400D01*
X28500Y3400D02*
X28500Y3700D01*
X28500Y3700D02*
X28700Y3700D01*
X30550Y6175D02*
X30350Y6175D01*
X30350Y6175D02*
X30350Y5875D01*
X30350Y5875D02*
X30550Y5875D01*
X30750Y6175D02*
X30950Y6175D01*
X30950Y6175D02*
X30950Y5875D01*
X30950Y5875D02*
X30750Y5875D01*
G54D12*
X11250Y-3750D02*
X11250Y-2750D01*
X11250Y-2750D02*
X17250Y-2750D01*
X17250Y-2750D02*
X17250Y-3750D01*
X17250Y-3750D02*
X11250Y-3750D01*
X12250Y-3750D02*
X12250Y-2750D01*
X18250Y-3750D02*
X18250Y-2750D01*
X18250Y-2750D02*
X24250Y-2750D01*
X24250Y-2750D02*
X24250Y-3750D01*
X24250Y-3750D02*
X18250Y-3750D01*
X19250Y-3750D02*
X19250Y-2750D01*
G54D21*
X16500Y13000D02*
X19500Y13000D01*
X19500Y11000D02*
X16500Y11000D01*
X16500Y11000D02*
X16500Y13000D01*
X19500Y13000D02*
X19500Y11000D01*
G54D11*
X31100Y2000D02*
X31100Y2900D01*
X31100Y2900D02*
X30450Y2900D01*
X29750Y2000D02*
X29100Y2000D01*
X29100Y2000D02*
X29100Y2900D01*
X29100Y2900D02*
X29750Y2900D01*
X30450Y2000D02*
X31100Y2000D01*
G54D15*
X-950Y12050D02*
X-5150Y12050D01*
X-950Y12050D02*
X-950Y16750D01*
X-5150Y16750D02*
X-950Y16750D01*
G54D22*
G36*
X21970Y1798D02*
X22393Y1784D01*
X22806Y1749D01*
X23041Y1700D01*
X22118Y1700D01*
X22054Y1686D01*
X21994Y1640D01*
X21931Y1551D01*
X21857Y1410D01*
X21836Y1368D01*
X21710Y1026D01*
X21647Y672D01*
X21646Y314D01*
X21706Y-39D01*
X21828Y-377D01*
X21905Y-525D01*
X21967Y-626D01*
X22018Y-680D01*
X22072Y-699D01*
X22099Y-700D01*
X22139Y-698D01*
X22169Y-685D01*
X22194Y-649D01*
X22219Y-582D01*
X22250Y-471D01*
X22290Y-307D01*
X22294Y-292D01*
X22332Y-136D01*
X22364Y-5D01*
X22386Y89D01*
X22396Y132D01*
X22396Y133D01*
X22382Y169D01*
X22345Y243D01*
X22316Y295D01*
X22260Y399D01*
X22239Y478D01*
X22251Y556D01*
X22297Y660D01*
X22313Y693D01*
X22393Y852D01*
X22293Y1276D01*
X22252Y1449D01*
X22220Y1568D01*
X22194Y1642D01*
X22169Y1682D01*
X22141Y1697D01*
X22118Y1700D01*
X23041Y1700D01*
X23055Y1697D01*
X22374Y1697D01*
X22311Y1693D01*
X22300Y1686D01*
X22307Y1646D01*
X22327Y1555D01*
X22357Y1425D01*
X22394Y1269D01*
X22399Y1246D01*
X22499Y829D01*
X22411Y657D01*
X22324Y485D01*
X22413Y327D01*
X22501Y170D01*
X22400Y-240D01*
X22362Y-398D01*
X22331Y-533D01*
X22309Y-630D01*
X22300Y-678D01*
X22300Y-680D01*
X22330Y-694D01*
X22412Y-697D01*
X22531Y-691D01*
X22673Y-677D01*
X22824Y-656D01*
X22970Y-630D01*
X23097Y-601D01*
X23116Y-596D01*
X23445Y-470D01*
X23736Y-297D01*
X23983Y-81D01*
X24179Y173D01*
X24224Y251D01*
X24287Y379D01*
X24313Y481D01*
X24299Y579D01*
X24247Y696D01*
X24208Y766D01*
X24034Y1005D01*
X23809Y1221D01*
X23547Y1403D01*
X23263Y1541D01*
X23029Y1614D01*
X22901Y1639D01*
X22758Y1662D01*
X22612Y1679D01*
X22479Y1692D01*
X22374Y1697D01*
X23055Y1697D01*
X23171Y1673D01*
X23490Y1555D01*
X23770Y1392D01*
X24015Y1183D01*
X24016Y1182D01*
X24119Y1065D01*
X24220Y926D01*
X24312Y782D01*
X24383Y648D01*
X24425Y540D01*
X24433Y493D01*
X24419Y440D01*
X24382Y347D01*
X24329Y235D01*
X24327Y230D01*
X24184Y3D01*
X23991Y-213D01*
X23767Y-400D01*
X23533Y-540D01*
X23328Y-630D01*
X23124Y-695D01*
X22904Y-741D01*
X22651Y-772D01*
X22398Y-788D01*
X21950Y-808D01*
X21843Y-627D01*
X21689Y-304D01*
X21589Y44D01*
X21544Y403D01*
X21558Y758D01*
X21581Y898D01*
X21640Y1128D01*
X21722Y1358D01*
X21817Y1563D01*
X21899Y1699D01*
X21970Y1798D01*
X21970Y1798D01*
X21970Y1798D01*
G37*
G36*
X23390Y362D02*
X23507Y354D01*
X23607Y296D01*
X23630Y262D01*
X23463Y262D01*
X23379Y257D01*
X23333Y229D01*
X23007Y229D01*
X22930Y209D01*
X22869Y154D01*
X22838Y80D01*
X22853Y2D01*
X22867Y-18D01*
X22939Y-60D01*
X23029Y-61D01*
X23093Y-27D01*
X23129Y49D01*
X23122Y139D01*
X23083Y199D01*
X23007Y229D01*
X23333Y229D01*
X23306Y212D01*
X23260Y138D01*
X23254Y48D01*
X23283Y-22D01*
X23355Y-81D01*
X23450Y-101D01*
X23538Y-78D01*
X23560Y-60D01*
X23594Y14D01*
X23594Y111D01*
X23561Y198D01*
X23547Y214D01*
X23463Y262D01*
X23630Y262D01*
X23676Y197D01*
X23700Y73D01*
X23680Y-47D01*
X23622Y-128D01*
X23524Y-184D01*
X23407Y-199D01*
X23299Y-173D01*
X23263Y-148D01*
X23200Y-114D01*
X23138Y-131D01*
X23012Y-168D01*
X22893Y-149D01*
X22802Y-79D01*
X22742Y38D01*
X22748Y151D01*
X22815Y251D01*
X22913Y319D01*
X23020Y326D01*
X23112Y296D01*
X23189Y276D01*
X23261Y306D01*
X23271Y312D01*
X23390Y362D01*
X23390Y362D01*
X23390Y362D01*
G37*
G36*
X23423Y1153D02*
X23536Y1134D01*
X23627Y1072D01*
X23634Y1060D01*
X23441Y1060D01*
X23361Y1039D01*
X23349Y1029D01*
X23016Y1029D01*
X22926Y1022D01*
X22867Y983D01*
X22842Y912D01*
X22846Y850D01*
X22893Y778D01*
X22972Y741D01*
X23056Y749D01*
X23083Y767D01*
X23126Y839D01*
X23126Y929D01*
X23093Y993D01*
X23016Y1029D01*
X23349Y1029D01*
X23293Y982D01*
X23254Y904D01*
X23258Y818D01*
X23266Y800D01*
X23334Y732D01*
X23425Y707D01*
X23516Y725D01*
X23585Y785D01*
X23598Y811D01*
X23604Y912D01*
X23544Y1008D01*
X23518Y1031D01*
X23441Y1060D01*
X23634Y1060D01*
X23686Y982D01*
X23706Y874D01*
X23677Y761D01*
X23618Y681D01*
X23507Y613D01*
X23383Y606D01*
X23269Y655D01*
X23198Y690D01*
X23139Y677D01*
X23129Y671D01*
X23013Y635D01*
X22894Y659D01*
X22815Y715D01*
X22746Y821D01*
X22743Y934D01*
X22802Y1045D01*
X22896Y1115D01*
X23015Y1134D01*
X23131Y1100D01*
X23207Y1088D01*
X23296Y1120D01*
X23423Y1153D01*
X23423Y1153D01*
X23423Y1153D01*
G37*
G54D16*
X18100Y600D02*
G75*
G03X18100Y600I-50J0D01*
G74*
G01*
X18650Y600D02*
G75*
G03X18650Y600I-600J0D01*
G74*
G01*
X50Y0D02*
G75*
G03X50Y0I-50J0D01*
G74*
G01*
X600Y0D02*
G75*
G03X600Y0I-600J0D01*
G74*
G01*
G54D11*
X28080Y14400D02*
X27830Y14600D01*
X27830Y14600D02*
X27830Y14200D01*
X27830Y14200D02*
X28080Y14400D01*
X28080Y14650D02*
X28080Y14150D01*
X28200Y14950D02*
X28200Y14850D01*
X28200Y14850D02*
X28350Y14850D01*
X28350Y14850D02*
X28350Y14950D01*
X28350Y14950D02*
X28200Y14950D01*
G54D23*
X27911Y14361D02*
X27989Y14361D01*
X27989Y14361D02*
X27989Y14439D01*
X27911Y14439D02*
X27989Y14439D01*
X27911Y14361D02*
X27911Y14439D01*
G54D11*
X28080Y13400D02*
X27830Y13600D01*
X27830Y13600D02*
X27830Y13200D01*
X27830Y13200D02*
X28080Y13400D01*
X28080Y13650D02*
X28080Y13150D01*
X28200Y13950D02*
X28200Y13850D01*
X28200Y13850D02*
X28350Y13850D01*
X28350Y13850D02*
X28350Y13950D01*
X28350Y13950D02*
X28200Y13950D01*
G54D23*
X27911Y13361D02*
X27989Y13361D01*
X27989Y13361D02*
X27989Y13439D01*
X27911Y13439D02*
X27989Y13439D01*
X27911Y13361D02*
X27911Y13439D01*
G54D11*
X11850Y10380D02*
X11650Y10130D01*
X11650Y10130D02*
X12050Y10130D01*
X12050Y10130D02*
X11850Y10380D01*
X11600Y10380D02*
X12100Y10380D01*
X11300Y10500D02*
X11400Y10500D01*
X11400Y10500D02*
X11400Y10650D01*
X11400Y10650D02*
X11300Y10650D01*
X11300Y10650D02*
X11300Y10500D01*
G54D23*
X11889Y10211D02*
X11889Y10289D01*
X11889Y10289D02*
X11811Y10289D01*
X11811Y10211D02*
X11811Y10289D01*
X11889Y10211D02*
X11811Y10211D01*
G54D11*
X7980Y12250D02*
X7730Y12450D01*
X7730Y12450D02*
X7730Y12050D01*
X7730Y12050D02*
X7980Y12250D01*
X7980Y12500D02*
X7980Y12000D01*
X8100Y12800D02*
X8100Y12700D01*
X8100Y12700D02*
X8250Y12700D01*
X8250Y12700D02*
X8250Y12800D01*
X8250Y12800D02*
X8100Y12800D01*
G54D23*
X7811Y12211D02*
X7889Y12211D01*
X7889Y12211D02*
X7889Y12289D01*
X7811Y12289D02*
X7889Y12289D01*
X7811Y12211D02*
X7811Y12289D01*
G54D11*
X3850Y2380D02*
X3650Y2130D01*
X3650Y2130D02*
X4050Y2130D01*
X4050Y2130D02*
X3850Y2380D01*
X3600Y2380D02*
X4100Y2380D01*
X3300Y2500D02*
X3400Y2500D01*
X3400Y2500D02*
X3400Y2650D01*
X3400Y2650D02*
X3300Y2650D01*
X3300Y2650D02*
X3300Y2500D01*
G54D23*
X3889Y2211D02*
X3889Y2289D01*
X3889Y2289D02*
X3811Y2289D01*
X3811Y2211D02*
X3811Y2289D01*
X3889Y2211D02*
X3811Y2211D01*
G54D11*
X7050Y4380D02*
X6850Y4130D01*
X6850Y4130D02*
X7250Y4130D01*
X7250Y4130D02*
X7050Y4380D01*
X6800Y4380D02*
X7300Y4380D01*
X6500Y4500D02*
X6600Y4500D01*
X6600Y4500D02*
X6600Y4650D01*
X6600Y4650D02*
X6500Y4650D01*
X6500Y4650D02*
X6500Y4500D01*
G54D23*
X7089Y4211D02*
X7089Y4289D01*
X7089Y4289D02*
X7011Y4289D01*
X7011Y4211D02*
X7011Y4289D01*
X7089Y4211D02*
X7011Y4211D01*
G54D11*
X7050Y2380D02*
X6850Y2130D01*
X6850Y2130D02*
X7250Y2130D01*
X7250Y2130D02*
X7050Y2380D01*
X6800Y2380D02*
X7300Y2380D01*
X6500Y2500D02*
X6600Y2500D01*
X6600Y2500D02*
X6600Y2650D01*
X6600Y2650D02*
X6500Y2650D01*
X6500Y2650D02*
X6500Y2500D01*
G54D23*
X7089Y2211D02*
X7089Y2289D01*
X7089Y2289D02*
X7011Y2289D01*
X7011Y2211D02*
X7011Y2289D01*
X7089Y2211D02*
X7011Y2211D01*
G54D11*
X5450Y10380D02*
X5250Y10130D01*
X5250Y10130D02*
X5650Y10130D01*
X5650Y10130D02*
X5450Y10380D01*
X5200Y10380D02*
X5700Y10380D01*
X4900Y10500D02*
X5000Y10500D01*
X5000Y10500D02*
X5000Y10650D01*
X5000Y10650D02*
X4900Y10650D01*
X4900Y10650D02*
X4900Y10500D01*
G54D23*
X5489Y10211D02*
X5489Y10289D01*
X5489Y10289D02*
X5411Y10289D01*
X5411Y10211D02*
X5411Y10289D01*
X5489Y10211D02*
X5411Y10211D01*
G54D11*
X5450Y8380D02*
X5250Y8130D01*
X5250Y8130D02*
X5650Y8130D01*
X5650Y8130D02*
X5450Y8380D01*
X5200Y8380D02*
X5700Y8380D01*
X4900Y8500D02*
X5000Y8500D01*
X5000Y8500D02*
X5000Y8650D01*
X5000Y8650D02*
X4900Y8650D01*
X4900Y8650D02*
X4900Y8500D01*
G54D23*
X5489Y8211D02*
X5489Y8289D01*
X5489Y8289D02*
X5411Y8289D01*
X5411Y8211D02*
X5411Y8289D01*
X5489Y8211D02*
X5411Y8211D01*
G54D11*
X5450Y6380D02*
X5250Y6130D01*
X5250Y6130D02*
X5650Y6130D01*
X5650Y6130D02*
X5450Y6380D01*
X5200Y6380D02*
X5700Y6380D01*
X4900Y6500D02*
X5000Y6500D01*
X5000Y6500D02*
X5000Y6650D01*
X5000Y6650D02*
X4900Y6650D01*
X4900Y6650D02*
X4900Y6500D01*
G54D23*
X5489Y6211D02*
X5489Y6289D01*
X5489Y6289D02*
X5411Y6289D01*
X5411Y6211D02*
X5411Y6289D01*
X5489Y6211D02*
X5411Y6211D01*
G54D11*
X5450Y2380D02*
X5250Y2130D01*
X5250Y2130D02*
X5650Y2130D01*
X5650Y2130D02*
X5450Y2380D01*
X5200Y2380D02*
X5700Y2380D01*
X4900Y2500D02*
X5000Y2500D01*
X5000Y2500D02*
X5000Y2650D01*
X5000Y2650D02*
X4900Y2650D01*
X4900Y2650D02*
X4900Y2500D01*
G54D23*
X5489Y2211D02*
X5489Y2289D01*
X5489Y2289D02*
X5411Y2289D01*
X5411Y2211D02*
X5411Y2289D01*
X5489Y2211D02*
X5411Y2211D01*
G54D11*
X3850Y10380D02*
X3650Y10130D01*
X3650Y10130D02*
X4050Y10130D01*
X4050Y10130D02*
X3850Y10380D01*
X3600Y10380D02*
X4100Y10380D01*
X3300Y10500D02*
X3400Y10500D01*
X3400Y10500D02*
X3400Y10650D01*
X3400Y10650D02*
X3300Y10650D01*
X3300Y10650D02*
X3300Y10500D01*
G54D23*
X3889Y10211D02*
X3889Y10289D01*
X3889Y10289D02*
X3811Y10289D01*
X3811Y10211D02*
X3811Y10289D01*
X3889Y10211D02*
X3811Y10211D01*
G54D11*
X3850Y8380D02*
X3650Y8130D01*
X3650Y8130D02*
X4050Y8130D01*
X4050Y8130D02*
X3850Y8380D01*
X3600Y8380D02*
X4100Y8380D01*
X3300Y8500D02*
X3400Y8500D01*
X3400Y8500D02*
X3400Y8650D01*
X3400Y8650D02*
X3300Y8650D01*
X3300Y8650D02*
X3300Y8500D01*
G54D23*
X3889Y8211D02*
X3889Y8289D01*
X3889Y8289D02*
X3811Y8289D01*
X3811Y8211D02*
X3811Y8289D01*
X3889Y8211D02*
X3811Y8211D01*
G54D11*
X3850Y6380D02*
X3650Y6130D01*
X3650Y6130D02*
X4050Y6130D01*
X4050Y6130D02*
X3850Y6380D01*
X3600Y6380D02*
X4100Y6380D01*
X3300Y6500D02*
X3400Y6500D01*
X3400Y6500D02*
X3400Y6650D01*
X3400Y6650D02*
X3300Y6650D01*
X3300Y6650D02*
X3300Y6500D01*
G54D23*
X3889Y6211D02*
X3889Y6289D01*
X3889Y6289D02*
X3811Y6289D01*
X3811Y6211D02*
X3811Y6289D01*
X3889Y6211D02*
X3811Y6211D01*
G54D11*
X3850Y4380D02*
X3650Y4130D01*
X3650Y4130D02*
X4050Y4130D01*
X4050Y4130D02*
X3850Y4380D01*
X3600Y4380D02*
X4100Y4380D01*
X3300Y4500D02*
X3400Y4500D01*
X3400Y4500D02*
X3400Y4650D01*
X3400Y4650D02*
X3300Y4650D01*
X3300Y4650D02*
X3300Y4500D01*
G54D23*
X3889Y4211D02*
X3889Y4289D01*
X3889Y4289D02*
X3811Y4289D01*
X3811Y4211D02*
X3811Y4289D01*
X3889Y4211D02*
X3811Y4211D01*
G54D11*
X7050Y6380D02*
X6850Y6130D01*
X6850Y6130D02*
X7250Y6130D01*
X7250Y6130D02*
X7050Y6380D01*
X6800Y6380D02*
X7300Y6380D01*
X6500Y6500D02*
X6600Y6500D01*
X6600Y6500D02*
X6600Y6650D01*
X6600Y6650D02*
X6500Y6650D01*
X6500Y6650D02*
X6500Y6500D01*
G54D23*
X7089Y6211D02*
X7089Y6289D01*
X7089Y6289D02*
X7011Y6289D01*
X7011Y6211D02*
X7011Y6289D01*
X7089Y6211D02*
X7011Y6211D01*
G54D11*
X2250Y10380D02*
X2050Y10130D01*
X2050Y10130D02*
X2450Y10130D01*
X2450Y10130D02*
X2250Y10380D01*
X2000Y10380D02*
X2500Y10380D01*
X1700Y10500D02*
X1800Y10500D01*
X1800Y10500D02*
X1800Y10650D01*
X1800Y10650D02*
X1700Y10650D01*
X1700Y10650D02*
X1700Y10500D01*
G54D23*
X2289Y10211D02*
X2289Y10289D01*
X2289Y10289D02*
X2211Y10289D01*
X2211Y10211D02*
X2211Y10289D01*
X2289Y10211D02*
X2211Y10211D01*
G54D11*
X2250Y8380D02*
X2050Y8130D01*
X2050Y8130D02*
X2450Y8130D01*
X2450Y8130D02*
X2250Y8380D01*
X2000Y8380D02*
X2500Y8380D01*
X1700Y8500D02*
X1800Y8500D01*
X1800Y8500D02*
X1800Y8650D01*
X1800Y8650D02*
X1700Y8650D01*
X1700Y8650D02*
X1700Y8500D01*
G54D23*
X2289Y8211D02*
X2289Y8289D01*
X2289Y8289D02*
X2211Y8289D01*
X2211Y8211D02*
X2211Y8289D01*
X2289Y8211D02*
X2211Y8211D01*
G54D11*
X2250Y6380D02*
X2050Y6130D01*
X2050Y6130D02*
X2450Y6130D01*
X2450Y6130D02*
X2250Y6380D01*
X2000Y6380D02*
X2500Y6380D01*
X1700Y6500D02*
X1800Y6500D01*
X1800Y6500D02*
X1800Y6650D01*
X1800Y6650D02*
X1700Y6650D01*
X1700Y6650D02*
X1700Y6500D01*
G54D23*
X2289Y6211D02*
X2289Y6289D01*
X2289Y6289D02*
X2211Y6289D01*
X2211Y6211D02*
X2211Y6289D01*
X2289Y6211D02*
X2211Y6211D01*
G54D11*
X2250Y4380D02*
X2050Y4130D01*
X2050Y4130D02*
X2450Y4130D01*
X2450Y4130D02*
X2250Y4380D01*
X2000Y4380D02*
X2500Y4380D01*
X1700Y4500D02*
X1800Y4500D01*
X1800Y4500D02*
X1800Y4650D01*
X1800Y4650D02*
X1700Y4650D01*
X1700Y4650D02*
X1700Y4500D01*
G54D23*
X2289Y4211D02*
X2289Y4289D01*
X2289Y4289D02*
X2211Y4289D01*
X2211Y4211D02*
X2211Y4289D01*
X2289Y4211D02*
X2211Y4211D01*
G54D11*
X2250Y2380D02*
X2050Y2130D01*
X2050Y2130D02*
X2450Y2130D01*
X2450Y2130D02*
X2250Y2380D01*
X2000Y2380D02*
X2500Y2380D01*
X1700Y2500D02*
X1800Y2500D01*
X1800Y2500D02*
X1800Y2650D01*
X1800Y2650D02*
X1700Y2650D01*
X1700Y2650D02*
X1700Y2500D01*
G54D23*
X2289Y2211D02*
X2289Y2289D01*
X2289Y2289D02*
X2211Y2289D01*
X2211Y2211D02*
X2211Y2289D01*
X2289Y2211D02*
X2211Y2211D01*
G54D11*
X650Y10380D02*
X450Y10130D01*
X450Y10130D02*
X850Y10130D01*
X850Y10130D02*
X650Y10380D01*
X400Y10380D02*
X900Y10380D01*
X100Y10500D02*
X200Y10500D01*
X200Y10500D02*
X200Y10650D01*
X200Y10650D02*
X100Y10650D01*
X100Y10650D02*
X100Y10500D01*
G54D23*
X689Y10211D02*
X689Y10289D01*
X689Y10289D02*
X611Y10289D01*
X611Y10211D02*
X611Y10289D01*
X689Y10211D02*
X611Y10211D01*
G54D11*
X650Y8380D02*
X450Y8130D01*
X450Y8130D02*
X850Y8130D01*
X850Y8130D02*
X650Y8380D01*
X400Y8380D02*
X900Y8380D01*
X100Y8500D02*
X200Y8500D01*
X200Y8500D02*
X200Y8650D01*
X200Y8650D02*
X100Y8650D01*
X100Y8650D02*
X100Y8500D01*
G54D23*
X689Y8211D02*
X689Y8289D01*
X689Y8289D02*
X611Y8289D01*
X611Y8211D02*
X611Y8289D01*
X689Y8211D02*
X611Y8211D01*
G54D11*
X650Y6380D02*
X450Y6130D01*
X450Y6130D02*
X850Y6130D01*
X850Y6130D02*
X650Y6380D01*
X400Y6380D02*
X900Y6380D01*
X100Y6500D02*
X200Y6500D01*
X200Y6500D02*
X200Y6650D01*
X200Y6650D02*
X100Y6650D01*
X100Y6650D02*
X100Y6500D01*
G54D23*
X689Y6211D02*
X689Y6289D01*
X689Y6289D02*
X611Y6289D01*
X611Y6211D02*
X611Y6289D01*
X689Y6211D02*
X611Y6211D01*
G54D11*
X650Y4380D02*
X450Y4130D01*
X450Y4130D02*
X850Y4130D01*
X850Y4130D02*
X650Y4380D01*
X400Y4380D02*
X900Y4380D01*
X100Y4500D02*
X200Y4500D01*
X200Y4500D02*
X200Y4650D01*
X200Y4650D02*
X100Y4650D01*
X100Y4650D02*
X100Y4500D01*
G54D23*
X689Y4211D02*
X689Y4289D01*
X689Y4289D02*
X611Y4289D01*
X611Y4211D02*
X611Y4289D01*
X689Y4211D02*
X611Y4211D01*
G54D11*
X650Y2380D02*
X450Y2130D01*
X450Y2130D02*
X850Y2130D01*
X850Y2130D02*
X650Y2380D01*
X400Y2380D02*
X900Y2380D01*
X100Y2500D02*
X200Y2500D01*
X200Y2500D02*
X200Y2650D01*
X200Y2650D02*
X100Y2650D01*
X100Y2650D02*
X100Y2500D01*
G54D23*
X689Y2211D02*
X689Y2289D01*
X689Y2289D02*
X611Y2289D01*
X611Y2211D02*
X611Y2289D01*
X689Y2211D02*
X611Y2211D01*
G54D11*
X10250Y6380D02*
X10050Y6130D01*
X10050Y6130D02*
X10450Y6130D01*
X10450Y6130D02*
X10250Y6380D01*
X10000Y6380D02*
X10500Y6380D01*
X9700Y6500D02*
X9800Y6500D01*
X9800Y6500D02*
X9800Y6650D01*
X9800Y6650D02*
X9700Y6650D01*
X9700Y6650D02*
X9700Y6500D01*
G54D23*
X10289Y6211D02*
X10289Y6289D01*
X10289Y6289D02*
X10211Y6289D01*
X10211Y6211D02*
X10211Y6289D01*
X10289Y6211D02*
X10211Y6211D01*
G54D11*
X10250Y4380D02*
X10050Y4130D01*
X10050Y4130D02*
X10450Y4130D01*
X10450Y4130D02*
X10250Y4380D01*
X10000Y4380D02*
X10500Y4380D01*
X9700Y4500D02*
X9800Y4500D01*
X9800Y4500D02*
X9800Y4650D01*
X9800Y4650D02*
X9700Y4650D01*
X9700Y4650D02*
X9700Y4500D01*
G54D23*
X10289Y4211D02*
X10289Y4289D01*
X10289Y4289D02*
X10211Y4289D01*
X10211Y4211D02*
X10211Y4289D01*
X10289Y4211D02*
X10211Y4211D01*
G54D11*
X5450Y4380D02*
X5250Y4130D01*
X5250Y4130D02*
X5650Y4130D01*
X5650Y4130D02*
X5450Y4380D01*
X5200Y4380D02*
X5700Y4380D01*
X4900Y4500D02*
X5000Y4500D01*
X5000Y4500D02*
X5000Y4650D01*
X5000Y4650D02*
X4900Y4650D01*
X4900Y4650D02*
X4900Y4500D01*
G54D23*
X5489Y4211D02*
X5489Y4289D01*
X5489Y4289D02*
X5411Y4289D01*
X5411Y4211D02*
X5411Y4289D01*
X5489Y4211D02*
X5411Y4211D01*
G54D11*
X11850Y8380D02*
X11650Y8130D01*
X11650Y8130D02*
X12050Y8130D01*
X12050Y8130D02*
X11850Y8380D01*
X11600Y8380D02*
X12100Y8380D01*
X11300Y8500D02*
X11400Y8500D01*
X11400Y8500D02*
X11400Y8650D01*
X11400Y8650D02*
X11300Y8650D01*
X11300Y8650D02*
X11300Y8500D01*
G54D23*
X11889Y8211D02*
X11889Y8289D01*
X11889Y8289D02*
X11811Y8289D01*
X11811Y8211D02*
X11811Y8289D01*
X11889Y8211D02*
X11811Y8211D01*
G54D11*
X11850Y6380D02*
X11650Y6130D01*
X11650Y6130D02*
X12050Y6130D01*
X12050Y6130D02*
X11850Y6380D01*
X11600Y6380D02*
X12100Y6380D01*
X11300Y6500D02*
X11400Y6500D01*
X11400Y6500D02*
X11400Y6650D01*
X11400Y6650D02*
X11300Y6650D01*
X11300Y6650D02*
X11300Y6500D01*
G54D23*
X11889Y6211D02*
X11889Y6289D01*
X11889Y6289D02*
X11811Y6289D01*
X11811Y6211D02*
X11811Y6289D01*
X11889Y6211D02*
X11811Y6211D01*
G54D11*
X11850Y4380D02*
X11650Y4130D01*
X11650Y4130D02*
X12050Y4130D01*
X12050Y4130D02*
X11850Y4380D01*
X11600Y4380D02*
X12100Y4380D01*
X11300Y4500D02*
X11400Y4500D01*
X11400Y4500D02*
X11400Y4650D01*
X11400Y4650D02*
X11300Y4650D01*
X11300Y4650D02*
X11300Y4500D01*
G54D23*
X11889Y4211D02*
X11889Y4289D01*
X11889Y4289D02*
X11811Y4289D01*
X11811Y4211D02*
X11811Y4289D01*
X11889Y4211D02*
X11811Y4211D01*
G54D11*
X11850Y2380D02*
X11650Y2130D01*
X11650Y2130D02*
X12050Y2130D01*
X12050Y2130D02*
X11850Y2380D01*
X11600Y2380D02*
X12100Y2380D01*
X11300Y2500D02*
X11400Y2500D01*
X11400Y2500D02*
X11400Y2650D01*
X11400Y2650D02*
X11300Y2650D01*
X11300Y2650D02*
X11300Y2500D01*
G54D23*
X11889Y2211D02*
X11889Y2289D01*
X11889Y2289D02*
X11811Y2289D01*
X11811Y2211D02*
X11811Y2289D01*
X11889Y2211D02*
X11811Y2211D01*
G54D11*
X10250Y10380D02*
X10050Y10130D01*
X10050Y10130D02*
X10450Y10130D01*
X10450Y10130D02*
X10250Y10380D01*
X10000Y10380D02*
X10500Y10380D01*
X9700Y10500D02*
X9800Y10500D01*
X9800Y10500D02*
X9800Y10650D01*
X9800Y10650D02*
X9700Y10650D01*
X9700Y10650D02*
X9700Y10500D01*
G54D23*
X10289Y10211D02*
X10289Y10289D01*
X10289Y10289D02*
X10211Y10289D01*
X10211Y10211D02*
X10211Y10289D01*
X10289Y10211D02*
X10211Y10211D01*
G54D11*
X10250Y8380D02*
X10050Y8130D01*
X10050Y8130D02*
X10450Y8130D01*
X10450Y8130D02*
X10250Y8380D01*
X10000Y8380D02*
X10500Y8380D01*
X9700Y8500D02*
X9800Y8500D01*
X9800Y8500D02*
X9800Y8650D01*
X9800Y8650D02*
X9700Y8650D01*
X9700Y8650D02*
X9700Y8500D01*
G54D23*
X10289Y8211D02*
X10289Y8289D01*
X10289Y8289D02*
X10211Y8289D01*
X10211Y8211D02*
X10211Y8289D01*
X10289Y8211D02*
X10211Y8211D01*
G54D11*
X10250Y2380D02*
X10050Y2130D01*
X10050Y2130D02*
X10450Y2130D01*
X10450Y2130D02*
X10250Y2380D01*
X10000Y2380D02*
X10500Y2380D01*
X9700Y2500D02*
X9800Y2500D01*
X9800Y2500D02*
X9800Y2650D01*
X9800Y2650D02*
X9700Y2650D01*
X9700Y2650D02*
X9700Y2500D01*
G54D23*
X10289Y2211D02*
X10289Y2289D01*
X10289Y2289D02*
X10211Y2289D01*
X10211Y2211D02*
X10211Y2289D01*
X10289Y2211D02*
X10211Y2211D01*
G54D11*
X8650Y10380D02*
X8450Y10130D01*
X8450Y10130D02*
X8850Y10130D01*
X8850Y10130D02*
X8650Y10380D01*
X8400Y10380D02*
X8900Y10380D01*
X8100Y10500D02*
X8200Y10500D01*
X8200Y10500D02*
X8200Y10650D01*
X8200Y10650D02*
X8100Y10650D01*
X8100Y10650D02*
X8100Y10500D01*
G54D23*
X8689Y10211D02*
X8689Y10289D01*
X8689Y10289D02*
X8611Y10289D01*
X8611Y10211D02*
X8611Y10289D01*
X8689Y10211D02*
X8611Y10211D01*
G54D11*
X8650Y6380D02*
X8450Y6130D01*
X8450Y6130D02*
X8850Y6130D01*
X8850Y6130D02*
X8650Y6380D01*
X8400Y6380D02*
X8900Y6380D01*
X8100Y6500D02*
X8200Y6500D01*
X8200Y6500D02*
X8200Y6650D01*
X8200Y6650D02*
X8100Y6650D01*
X8100Y6650D02*
X8100Y6500D01*
G54D23*
X8689Y6211D02*
X8689Y6289D01*
X8689Y6289D02*
X8611Y6289D01*
X8611Y6211D02*
X8611Y6289D01*
X8689Y6211D02*
X8611Y6211D01*
G54D11*
X8650Y4380D02*
X8450Y4130D01*
X8450Y4130D02*
X8850Y4130D01*
X8850Y4130D02*
X8650Y4380D01*
X8400Y4380D02*
X8900Y4380D01*
X8100Y4500D02*
X8200Y4500D01*
X8200Y4500D02*
X8200Y4650D01*
X8200Y4650D02*
X8100Y4650D01*
X8100Y4650D02*
X8100Y4500D01*
G54D23*
X8689Y4211D02*
X8689Y4289D01*
X8689Y4289D02*
X8611Y4289D01*
X8611Y4211D02*
X8611Y4289D01*
X8689Y4211D02*
X8611Y4211D01*
G54D11*
X8650Y2380D02*
X8450Y2130D01*
X8450Y2130D02*
X8850Y2130D01*
X8850Y2130D02*
X8650Y2380D01*
X8400Y2380D02*
X8900Y2380D01*
X8100Y2500D02*
X8200Y2500D01*
X8200Y2500D02*
X8200Y2650D01*
X8200Y2650D02*
X8100Y2650D01*
X8100Y2650D02*
X8100Y2500D01*
G54D23*
X8689Y2211D02*
X8689Y2289D01*
X8689Y2289D02*
X8611Y2289D01*
X8611Y2211D02*
X8611Y2289D01*
X8689Y2211D02*
X8611Y2211D01*
G54D11*
X7050Y10380D02*
X6850Y10130D01*
X6850Y10130D02*
X7250Y10130D01*
X7250Y10130D02*
X7050Y10380D01*
X6800Y10380D02*
X7300Y10380D01*
X6500Y10500D02*
X6600Y10500D01*
X6600Y10500D02*
X6600Y10650D01*
X6600Y10650D02*
X6500Y10650D01*
X6500Y10650D02*
X6500Y10500D01*
G54D23*
X7089Y10211D02*
X7089Y10289D01*
X7089Y10289D02*
X7011Y10289D01*
X7011Y10211D02*
X7011Y10289D01*
X7089Y10211D02*
X7011Y10211D01*
G54D11*
X7050Y8380D02*
X6850Y8130D01*
X6850Y8130D02*
X7250Y8130D01*
X7250Y8130D02*
X7050Y8380D01*
X6800Y8380D02*
X7300Y8380D01*
X6500Y8500D02*
X6600Y8500D01*
X6600Y8500D02*
X6600Y8650D01*
X6600Y8650D02*
X6500Y8650D01*
X6500Y8650D02*
X6500Y8500D01*
G54D23*
X7089Y8211D02*
X7089Y8289D01*
X7089Y8289D02*
X7011Y8289D01*
X7011Y8211D02*
X7011Y8289D01*
X7089Y8211D02*
X7011Y8211D01*
G54D11*
X28080Y12400D02*
X27830Y12600D01*
X27830Y12600D02*
X27830Y12200D01*
X27830Y12200D02*
X28080Y12400D01*
X28080Y12650D02*
X28080Y12150D01*
X28200Y12950D02*
X28200Y12850D01*
X28200Y12850D02*
X28350Y12850D01*
X28350Y12850D02*
X28350Y12950D01*
X28350Y12950D02*
X28200Y12950D01*
G54D23*
X27911Y12361D02*
X27989Y12361D01*
X27989Y12361D02*
X27989Y12439D01*
X27911Y12439D02*
X27989Y12439D01*
X27911Y12361D02*
X27911Y12439D01*
G54D11*
X8650Y8380D02*
X8450Y8130D01*
X8450Y8130D02*
X8850Y8130D01*
X8850Y8130D02*
X8650Y8380D01*
X8400Y8380D02*
X8900Y8380D01*
X8100Y8500D02*
X8200Y8500D01*
X8200Y8500D02*
X8200Y8650D01*
X8200Y8650D02*
X8100Y8650D01*
X8100Y8650D02*
X8100Y8500D01*
G54D23*
X8689Y8211D02*
X8689Y8289D01*
X8689Y8289D02*
X8611Y8289D01*
X8611Y8211D02*
X8611Y8289D01*
X8689Y8211D02*
X8611Y8211D01*
G54D22*
G36*
X36050Y-1934D02*
X36050Y-2400D01*
X34717Y-2400D01*
X34717Y-1934D01*
X36050Y-1934D01*
X36050Y-1934D01*
X36050Y-1934D01*
G37*
G36*
X36050Y-767D02*
X36050Y-1200D01*
X34117Y-1200D01*
X34117Y-767D01*
X36050Y-767D01*
X36050Y-767D01*
X36050Y-767D01*
G37*
G36*
X36050Y333D02*
X36050Y-100D01*
X35084Y-100D01*
X35084Y-600D01*
X34684Y-600D01*
X34684Y-100D01*
X34117Y-100D01*
X34117Y333D01*
X36050Y333D01*
X36050Y333D01*
X36050Y333D01*
G37*
G36*
X36050Y1333D02*
X36050Y600D01*
X34117Y600D01*
X34117Y1333D01*
X34550Y1333D01*
X34550Y1033D01*
X35617Y1033D01*
X35617Y1333D01*
X36050Y1333D01*
X36050Y1333D01*
X36050Y1333D01*
G37*
G36*
X36050Y2233D02*
X36050Y1500D01*
X35617Y1500D01*
X35617Y1800D01*
X34550Y1800D01*
X34550Y1500D01*
X34117Y1500D01*
X34117Y2233D01*
X36050Y2233D01*
X36050Y2233D01*
X36050Y2233D01*
G37*
G36*
X36050Y3466D02*
X36050Y3000D01*
X34717Y3000D01*
X34717Y3466D01*
X36050Y3466D01*
X36050Y3466D01*
X36050Y3466D01*
G37*
G36*
X36050Y4933D02*
X36050Y4200D01*
X34117Y4200D01*
X34117Y4933D01*
X34550Y4933D01*
X34550Y4633D01*
X35617Y4633D01*
X35617Y4933D01*
X36050Y4933D01*
X36050Y4933D01*
X36050Y4933D01*
G37*
G36*
X36050Y5766D02*
X36050Y5100D01*
X35617Y5100D01*
X35617Y5766D01*
X36050Y5766D01*
X36050Y5766D01*
X36050Y5766D01*
G37*
G36*
X36050Y6733D02*
X36050Y5966D01*
X34117Y5966D01*
X34117Y6733D01*
X34550Y6733D01*
X34550Y6400D01*
X35617Y6400D01*
X35617Y6733D01*
X36050Y6733D01*
X36050Y6733D01*
X36050Y6733D01*
G37*
G36*
X36050Y7600D02*
X36050Y6866D01*
X35617Y6866D01*
X35617Y7166D01*
X34550Y7166D01*
X34550Y6866D01*
X34117Y6866D01*
X34117Y7600D01*
X36050Y7600D01*
X36050Y7600D01*
X36050Y7600D01*
G37*
G36*
X36050Y8266D02*
X36050Y8050D01*
X36050Y7833D01*
X35430Y7833D01*
X34811Y7833D01*
X34879Y7941D01*
X34942Y8048D01*
X35001Y8156D01*
X35002Y8158D01*
X35058Y8266D01*
X35554Y8266D01*
X36050Y8266D01*
X36050Y8266D01*
X36050Y8266D01*
G37*
G36*
X36050Y9333D02*
X36050Y9116D01*
X36050Y8900D01*
X35634Y8900D01*
X35448Y8898D01*
X35321Y8891D01*
X35246Y8880D01*
X35216Y8863D01*
X35214Y8858D01*
X35197Y8817D01*
X35151Y8729D01*
X35081Y8605D01*
X34994Y8455D01*
X34922Y8333D01*
X34632Y7850D01*
X34374Y7840D01*
X34117Y7830D01*
X34117Y8046D01*
X34117Y8262D01*
X34241Y8272D01*
X34299Y8280D01*
X34345Y8300D01*
X34389Y8343D01*
X34442Y8419D01*
X34515Y8539D01*
X34540Y8583D01*
X34715Y8883D01*
X34416Y8892D01*
X34117Y8902D01*
X34117Y9117D01*
X34117Y9333D01*
X35084Y9333D01*
X36050Y9333D01*
X36050Y9333D01*
X36050Y9333D01*
G37*
G36*
X36050Y11133D02*
X36050Y10500D01*
X34117Y10500D01*
X34117Y11133D01*
X34550Y11133D01*
X34550Y10933D01*
X35617Y10933D01*
X35617Y11133D01*
X36050Y11133D01*
X36050Y11133D01*
X36050Y11133D01*
G37*
G36*
X36050Y11933D02*
X36050Y11300D01*
X35617Y11300D01*
X35617Y11500D01*
X34550Y11500D01*
X34550Y11300D01*
X34117Y11300D01*
X34117Y11933D01*
X36050Y11933D01*
X36050Y11933D01*
X36050Y11933D01*
G37*
G36*
X34132Y13800D02*
X34167Y13789D01*
X34253Y13760D01*
X34380Y13717D01*
X34535Y13664D01*
X34608Y13638D01*
X34829Y13565D01*
X34990Y13518D01*
X35094Y13499D01*
X35135Y13503D01*
X35203Y13525D01*
X35246Y13523D01*
X35270Y13486D01*
X35281Y13404D01*
X35283Y13267D01*
X35284Y13234D01*
X35284Y12935D01*
X35667Y12813D01*
X36050Y12690D01*
X36050Y12441D01*
X36049Y12315D01*
X36042Y12243D01*
X36027Y12213D01*
X36001Y12214D01*
X35992Y12217D01*
X35913Y12249D01*
X35798Y12293D01*
X35660Y12345D01*
X35511Y12399D01*
X35366Y12452D01*
X35238Y12497D01*
X35139Y12531D01*
X35084Y12549D01*
X35076Y12550D01*
X35041Y12537D01*
X34975Y12520D01*
X34883Y12498D01*
X34883Y12794D01*
X34883Y13090D01*
X34500Y13203D01*
X34117Y13316D01*
X34117Y13558D01*
X34119Y13675D01*
X34124Y13761D01*
X34131Y13799D01*
X34132Y13800D01*
X34132Y13800D01*
X34132Y13800D01*
G37*
G36*
X36009Y13800D02*
X36033Y13774D01*
X36046Y13694D01*
X36050Y13571D01*
X36050Y13343D01*
X35792Y13263D01*
X35666Y13224D01*
X35562Y13193D01*
X35499Y13174D01*
X35492Y13172D01*
X35468Y13187D01*
X35455Y13251D01*
X35450Y13372D01*
X35450Y13389D01*
X35450Y13617D01*
X35709Y13709D01*
X35834Y13751D01*
X35937Y13783D01*
X36000Y13799D01*
X36009Y13800D01*
X36009Y13800D01*
X36009Y13800D01*
G37*
G36*
X36050Y15500D02*
X36050Y15283D01*
X36050Y15066D01*
X35750Y15066D01*
X35450Y15066D01*
X35450Y14833D01*
X35449Y14708D01*
X35436Y14635D01*
X35399Y14605D01*
X35323Y14608D01*
X35196Y14633D01*
X35185Y14636D01*
X35017Y14672D01*
X35017Y14869D01*
X35017Y15066D01*
X34567Y15066D01*
X34117Y15066D01*
X34117Y15283D01*
X34117Y15500D01*
X35084Y15500D01*
X36050Y15500D01*
X36050Y15500D01*
X36050Y15500D01*
G37*
G36*
X34162Y14666D02*
X34209Y14660D01*
X34308Y14642D01*
X34448Y14616D01*
X34615Y14583D01*
X34703Y14565D01*
X34919Y14521D01*
X35080Y14489D01*
X35193Y14466D01*
X35270Y14451D01*
X35319Y14442D01*
X35349Y14438D01*
X35371Y14436D01*
X35392Y14435D01*
X35423Y14425D01*
X35440Y14388D01*
X35448Y14310D01*
X35450Y14196D01*
X35448Y14072D01*
X35441Y14002D01*
X35424Y13973D01*
X35394Y13972D01*
X35392Y13973D01*
X35342Y13984D01*
X35238Y14007D01*
X35092Y14039D01*
X34915Y14077D01*
X34725Y14118D01*
X34117Y14248D01*
X34117Y14457D01*
X34121Y14580D01*
X34136Y14647D01*
X34162Y14666D01*
X34162Y14666D01*
X34162Y14666D01*
G37*
G36*
X34917Y5766D02*
X34917Y5333D01*
X34550Y5333D01*
X34550Y5100D01*
X34117Y5100D01*
X34117Y5766D01*
X34917Y5766D01*
X34917Y5766D01*
X34917Y5766D01*
G37*
G36*
X34717Y12896D02*
X34717Y12669D01*
X34717Y12441D01*
X34415Y12339D01*
X34114Y12238D01*
X34124Y12474D01*
X34134Y12711D01*
X34284Y12756D01*
X34414Y12796D01*
X34549Y12840D01*
X34575Y12849D01*
X34717Y12896D01*
X34717Y12896D01*
X34717Y12896D01*
G37*
G36*
X34550Y-1400D02*
X34550Y-2934D01*
X34117Y-2934D01*
X34117Y-1400D01*
X34550Y-1400D01*
X34550Y-1400D01*
X34550Y-1400D01*
G37*
G36*
X34550Y4000D02*
X34550Y2466D01*
X34117Y2466D01*
X34117Y4000D01*
X34550Y4000D01*
X34550Y4000D01*
X34550Y4000D01*
G37*
G54D11*
X13846Y11935D02*
X13546Y11935D01*
X13546Y12007D01*
X13560Y12050D01*
X13589Y12078D01*
X13617Y12092D01*
X13675Y12107D01*
X13717Y12107D01*
X13775Y12092D01*
X13803Y12078D01*
X13832Y12050D01*
X13846Y12007D01*
X13846Y11935D01*
X13646Y12364D02*
X13846Y12364D01*
X13532Y12292D02*
X13746Y12221D01*
X13746Y12407D01*
X13546Y12664D02*
X13546Y12521D01*
X13689Y12507D01*
X13675Y12521D01*
X13660Y12550D01*
X13660Y12621D01*
X13675Y12650D01*
X13689Y12664D01*
X13717Y12678D01*
X13789Y12678D01*
X13817Y12664D01*
X13832Y12650D01*
X13846Y12621D01*
X13846Y12550D01*
X13832Y12521D01*
X13817Y12507D01*
G54D10*
X24892Y3742D02*
X25378Y3742D01*
X25435Y3771D01*
X25464Y3800D01*
X25492Y3857D01*
X25492Y3971D01*
X25464Y4028D01*
X25435Y4057D01*
X25378Y4085D01*
X24892Y4085D01*
X25492Y4685D02*
X25492Y4342D01*
X25492Y4514D02*
X24892Y4514D01*
X24978Y4457D01*
X25035Y4400D01*
X25064Y4342D01*
G54D11*
X30971Y-1590D02*
X31161Y-1590D01*
X30761Y-1723D02*
X30971Y-1590D01*
X30761Y-1457D01*
X31161Y-1114D02*
X31161Y-1342D01*
X31161Y-1228D02*
X30761Y-1228D01*
X30819Y-1266D01*
X30857Y-1304D01*
X30876Y-1342D01*
X30921Y12209D02*
X31111Y12209D01*
X30711Y12076D02*
X30921Y12209D01*
X30711Y12342D01*
X30750Y12457D02*
X30730Y12476D01*
X30711Y12514D01*
X30711Y12609D01*
X30730Y12647D01*
X30750Y12666D01*
X30788Y12685D01*
X30826Y12685D01*
X30883Y12666D01*
X31111Y12438D01*
X31111Y12685D01*
X2442Y14357D02*
X2457Y14342D01*
X2471Y14300D01*
X2471Y14271D01*
X2457Y14228D01*
X2428Y14200D01*
X2400Y14185D01*
X2342Y14171D01*
X2300Y14171D01*
X2242Y14185D01*
X2214Y14200D01*
X2185Y14228D01*
X2171Y14271D01*
X2171Y14300D01*
X2185Y14342D01*
X2200Y14357D01*
X2471Y14642D02*
X2471Y14471D01*
X2471Y14557D02*
X2171Y14557D01*
X2214Y14528D01*
X2242Y14500D01*
X2257Y14471D01*
X2171Y14914D02*
X2171Y14771D01*
X2314Y14757D01*
X2300Y14771D01*
X2285Y14800D01*
X2285Y14871D01*
X2300Y14900D01*
X2314Y14914D01*
X2342Y14928D01*
X2414Y14928D01*
X2442Y14914D01*
X2457Y14900D01*
X2471Y14871D01*
X2471Y14800D01*
X2457Y14771D01*
X2442Y14757D01*
X24521Y14300D02*
X24378Y14200D01*
X24521Y14128D02*
X24221Y14128D01*
X24221Y14242D01*
X24235Y14271D01*
X24250Y14285D01*
X24278Y14300D01*
X24321Y14300D01*
X24350Y14285D01*
X24364Y14271D01*
X24378Y14242D01*
X24378Y14128D01*
X24221Y14400D02*
X24521Y14600D01*
X24221Y14600D02*
X24521Y14400D01*
X24521Y14714D02*
X24221Y14714D01*
X24221Y14785D01*
X24235Y14828D01*
X24264Y14857D01*
X24292Y14871D01*
X24350Y14885D01*
X24392Y14885D01*
X24450Y14871D01*
X24478Y14857D01*
X24507Y14828D01*
X24521Y14785D01*
X24521Y14714D01*
X21921Y14121D02*
X21921Y14292D01*
X22221Y14207D02*
X21921Y14207D01*
X21921Y14364D02*
X22221Y14564D01*
X21921Y14564D02*
X22221Y14364D01*
X22221Y14678D02*
X21921Y14678D01*
X21921Y14750D01*
X21935Y14792D01*
X21964Y14821D01*
X21992Y14835D01*
X22050Y14850D01*
X22092Y14850D01*
X22150Y14835D01*
X22178Y14821D01*
X22207Y14792D01*
X22221Y14750D01*
X22221Y14678D01*
X4430Y11747D02*
X4592Y11747D01*
X4611Y11757D01*
X4621Y11766D01*
X4630Y11785D01*
X4630Y11823D01*
X4621Y11842D01*
X4611Y11852D01*
X4592Y11861D01*
X4430Y11861D01*
X4621Y11947D02*
X4630Y11976D01*
X4630Y12023D01*
X4621Y12042D01*
X4611Y12052D01*
X4592Y12061D01*
X4573Y12061D01*
X4554Y12052D01*
X4545Y12042D01*
X4535Y12023D01*
X4526Y11985D01*
X4516Y11966D01*
X4507Y11957D01*
X4488Y11947D01*
X4469Y11947D01*
X4450Y11957D01*
X4440Y11966D01*
X4430Y11985D01*
X4430Y12033D01*
X4440Y12061D01*
X4526Y12214D02*
X4535Y12242D01*
X4545Y12252D01*
X4564Y12261D01*
X4592Y12261D01*
X4611Y12252D01*
X4621Y12242D01*
X4630Y12223D01*
X4630Y12147D01*
X4430Y12147D01*
X4430Y12214D01*
X4440Y12233D01*
X4450Y12242D01*
X4469Y12252D01*
X4488Y12252D01*
X4507Y12242D01*
X4516Y12233D01*
X4526Y12214D01*
X4526Y12147D01*
X4650Y12300D02*
X4650Y12452D01*
X4630Y12500D02*
X4430Y12500D01*
X4430Y12547D01*
X4440Y12576D01*
X4459Y12595D01*
X4478Y12604D01*
X4516Y12614D01*
X4545Y12614D01*
X4583Y12604D01*
X4602Y12595D01*
X4621Y12576D01*
X4630Y12547D01*
X4630Y12500D01*
X4554Y12700D02*
X4554Y12852D01*
X4630Y12776D02*
X4478Y12776D01*
X3380Y11747D02*
X3542Y11747D01*
X3561Y11757D01*
X3571Y11766D01*
X3580Y11785D01*
X3580Y11823D01*
X3571Y11842D01*
X3561Y11852D01*
X3542Y11861D01*
X3380Y11861D01*
X3571Y11947D02*
X3580Y11976D01*
X3580Y12023D01*
X3571Y12042D01*
X3561Y12052D01*
X3542Y12061D01*
X3523Y12061D01*
X3504Y12052D01*
X3495Y12042D01*
X3485Y12023D01*
X3476Y11985D01*
X3466Y11966D01*
X3457Y11957D01*
X3438Y11947D01*
X3419Y11947D01*
X3400Y11957D01*
X3390Y11966D01*
X3380Y11985D01*
X3380Y12033D01*
X3390Y12061D01*
X3476Y12214D02*
X3485Y12242D01*
X3495Y12252D01*
X3514Y12261D01*
X3542Y12261D01*
X3561Y12252D01*
X3571Y12242D01*
X3580Y12223D01*
X3580Y12147D01*
X3380Y12147D01*
X3380Y12214D01*
X3390Y12233D01*
X3400Y12242D01*
X3419Y12252D01*
X3438Y12252D01*
X3457Y12242D01*
X3466Y12233D01*
X3476Y12214D01*
X3476Y12147D01*
X3600Y12300D02*
X3600Y12452D01*
X3580Y12500D02*
X3380Y12500D01*
X3380Y12547D01*
X3390Y12576D01*
X3409Y12595D01*
X3428Y12604D01*
X3466Y12614D01*
X3495Y12614D01*
X3533Y12604D01*
X3552Y12595D01*
X3571Y12576D01*
X3580Y12547D01*
X3580Y12500D01*
X3504Y12700D02*
X3504Y12852D01*
G54D21*
X9892Y14250D02*
X10321Y14250D01*
X10407Y14221D01*
X10464Y14164D01*
X10492Y14078D01*
X10492Y14021D01*
X10092Y14792D02*
X10492Y14792D01*
X9864Y14650D02*
X10292Y14507D01*
X10292Y14878D01*
G54D10*
X11091Y12925D02*
X10741Y12925D01*
X10741Y13008D01*
X10758Y13058D01*
X10791Y13091D01*
X10825Y13108D01*
X10891Y13125D01*
X10941Y13125D01*
X11008Y13108D01*
X11041Y13091D01*
X11075Y13058D01*
X11091Y13008D01*
X11091Y12925D01*
X11091Y13275D02*
X10741Y13275D01*
X10758Y13625D02*
X10741Y13591D01*
X10741Y13541D01*
X10758Y13491D01*
X10791Y13458D01*
X10825Y13441D01*
X10891Y13425D01*
X10941Y13425D01*
X11008Y13441D01*
X11041Y13458D01*
X11075Y13491D01*
X11091Y13541D01*
X11091Y13575D01*
X11075Y13625D01*
X11058Y13641D01*
X10941Y13641D01*
X10941Y13575D01*
X11091Y13791D02*
X10741Y13791D01*
X10741Y13908D02*
X10741Y14108D01*
X11091Y14008D02*
X10741Y14008D01*
X10991Y14208D02*
X10991Y14375D01*
X11091Y14175D02*
X10741Y14291D01*
X11091Y14408D01*
X11091Y14691D02*
X11091Y14525D01*
X10741Y14525D01*
X11091Y14991D02*
X11091Y14791D01*
X11091Y14891D02*
X10741Y14891D01*
X10791Y14858D01*
X10825Y14825D01*
X10841Y14791D01*
G54D11*
X19657Y3221D02*
X19671Y3264D01*
X19671Y3335D01*
X19657Y3364D01*
X19642Y3378D01*
X19614Y3392D01*
X19585Y3392D01*
X19557Y3378D01*
X19542Y3364D01*
X19528Y3335D01*
X19514Y3278D01*
X19500Y3250D01*
X19485Y3235D01*
X19457Y3221D01*
X19428Y3221D01*
X19400Y3235D01*
X19385Y3250D01*
X19371Y3278D01*
X19371Y3350D01*
X19385Y3392D01*
X19671Y3678D02*
X19671Y3507D01*
X19671Y3592D02*
X19371Y3592D01*
X19414Y3564D01*
X19442Y3535D01*
X19457Y3507D01*
G54D10*
X14682Y2723D02*
X14467Y2557D01*
X14682Y2438D02*
X14232Y2438D01*
X14232Y2628D01*
X14253Y2676D01*
X14275Y2700D01*
X14317Y2723D01*
X14382Y2723D01*
X14425Y2700D01*
X14446Y2676D01*
X14467Y2628D01*
X14467Y2438D01*
X14446Y2938D02*
X14446Y3104D01*
X14682Y3176D02*
X14682Y2938D01*
X14232Y2938D01*
X14232Y3176D01*
X14660Y3366D02*
X14682Y3438D01*
X14682Y3557D01*
X14660Y3604D01*
X14639Y3628D01*
X14596Y3652D01*
X14553Y3652D01*
X14510Y3628D01*
X14489Y3604D01*
X14467Y3557D01*
X14446Y3461D01*
X14425Y3414D01*
X14403Y3390D01*
X14360Y3366D01*
X14317Y3366D01*
X14275Y3390D01*
X14253Y3414D01*
X14232Y3461D01*
X14232Y3580D01*
X14253Y3652D01*
X14446Y3866D02*
X14446Y4033D01*
X14682Y4104D02*
X14682Y3866D01*
X14232Y3866D01*
X14232Y4104D01*
X14232Y4247D02*
X14232Y4533D01*
X14682Y4390D02*
X14232Y4390D01*
G54D11*
X19657Y6021D02*
X19671Y6064D01*
X19671Y6135D01*
X19657Y6164D01*
X19642Y6178D01*
X19614Y6192D01*
X19585Y6192D01*
X19557Y6178D01*
X19542Y6164D01*
X19528Y6135D01*
X19514Y6078D01*
X19500Y6050D01*
X19485Y6035D01*
X19457Y6021D01*
X19428Y6021D01*
X19400Y6035D01*
X19385Y6050D01*
X19371Y6078D01*
X19371Y6150D01*
X19385Y6192D01*
X19371Y6292D02*
X19371Y6478D01*
X19485Y6378D01*
X19485Y6421D01*
X19500Y6450D01*
X19514Y6464D01*
X19542Y6478D01*
X19614Y6478D01*
X19642Y6464D01*
X19657Y6450D01*
X19671Y6421D01*
X19671Y6335D01*
X19657Y6307D01*
X19642Y6292D01*
G54D10*
X14682Y5666D02*
X14232Y5666D01*
X14232Y5857D01*
X14253Y5904D01*
X14275Y5928D01*
X14317Y5952D01*
X14382Y5952D01*
X14425Y5928D01*
X14446Y5904D01*
X14467Y5857D01*
X14467Y5666D01*
X14446Y6333D02*
X14446Y6166D01*
X14682Y6166D02*
X14232Y6166D01*
X14232Y6404D01*
X14275Y6571D02*
X14253Y6595D01*
X14232Y6642D01*
X14232Y6761D01*
X14253Y6809D01*
X14275Y6833D01*
X14317Y6857D01*
X14360Y6857D01*
X14425Y6833D01*
X14682Y6547D01*
X14682Y6857D01*
G54D11*
X19657Y8821D02*
X19671Y8864D01*
X19671Y8935D01*
X19657Y8964D01*
X19642Y8978D01*
X19614Y8992D01*
X19585Y8992D01*
X19557Y8978D01*
X19542Y8964D01*
X19528Y8935D01*
X19514Y8878D01*
X19500Y8850D01*
X19485Y8835D01*
X19457Y8821D01*
X19428Y8821D01*
X19400Y8835D01*
X19385Y8850D01*
X19371Y8878D01*
X19371Y8950D01*
X19385Y8992D01*
X19400Y9107D02*
X19385Y9121D01*
X19371Y9150D01*
X19371Y9221D01*
X19385Y9250D01*
X19400Y9264D01*
X19428Y9278D01*
X19457Y9278D01*
X19500Y9264D01*
X19671Y9092D01*
X19671Y9278D01*
G54D10*
X14682Y8466D02*
X14232Y8466D01*
X14232Y8657D01*
X14253Y8704D01*
X14275Y8728D01*
X14317Y8752D01*
X14382Y8752D01*
X14425Y8728D01*
X14446Y8704D01*
X14467Y8657D01*
X14467Y8466D01*
X14446Y9133D02*
X14446Y8966D01*
X14682Y8966D02*
X14232Y8966D01*
X14232Y9204D01*
X14682Y9657D02*
X14682Y9371D01*
X14682Y9514D02*
X14232Y9514D01*
X14296Y9466D01*
X14339Y9419D01*
X14360Y9371D01*
G54D21*
X16892Y14250D02*
X17321Y14250D01*
X17407Y14221D01*
X17464Y14164D01*
X17492Y14078D01*
X17492Y14021D01*
X16892Y14478D02*
X16892Y14850D01*
X17121Y14650D01*
X17121Y14735D01*
X17150Y14792D01*
X17178Y14821D01*
X17235Y14850D01*
X17378Y14850D01*
X17435Y14821D01*
X17464Y14792D01*
X17492Y14735D01*
X17492Y14564D01*
X17464Y14507D01*
X17435Y14478D01*
G54D11*
X18071Y13221D02*
X17771Y13221D01*
X17771Y13292D01*
X17785Y13335D01*
X17814Y13364D01*
X17842Y13378D01*
X17900Y13392D01*
X17942Y13392D01*
X18000Y13378D01*
X18028Y13364D01*
X18057Y13335D01*
X18071Y13292D01*
X18071Y13221D01*
X18071Y13521D02*
X17771Y13521D01*
X17785Y13821D02*
X17771Y13792D01*
X17771Y13750D01*
X17785Y13707D01*
X17814Y13678D01*
X17842Y13664D01*
X17900Y13650D01*
X17942Y13650D01*
X18000Y13664D01*
X18028Y13678D01*
X18057Y13707D01*
X18071Y13750D01*
X18071Y13778D01*
X18057Y13821D01*
X18042Y13835D01*
X17942Y13835D01*
X17942Y13778D01*
X18071Y13964D02*
X17771Y13964D01*
X17771Y14064D02*
X17771Y14235D01*
X18071Y14150D02*
X17771Y14150D01*
X17985Y14321D02*
X17985Y14464D01*
X18071Y14292D02*
X17771Y14392D01*
X18071Y14492D01*
X18071Y14735D02*
X18071Y14592D01*
X17771Y14592D01*
X17771Y14892D02*
X17771Y14921D01*
X17785Y14950D01*
X17800Y14964D01*
X17828Y14978D01*
X17885Y14992D01*
X17957Y14992D01*
X18014Y14978D01*
X18042Y14964D01*
X18057Y14950D01*
X18071Y14921D01*
X18071Y14892D01*
X18057Y14864D01*
X18042Y14850D01*
X18014Y14835D01*
X17957Y14821D01*
X17885Y14821D01*
X17828Y14835D01*
X17800Y14850D01*
X17785Y14864D01*
X17771Y14892D01*
X6071Y15621D02*
X6314Y15621D01*
X6342Y15635D01*
X6357Y15650D01*
X6371Y15678D01*
X6371Y15735D01*
X6357Y15764D01*
X6342Y15778D01*
X6314Y15792D01*
X6071Y15792D01*
X6100Y15921D02*
X6085Y15935D01*
X6071Y15964D01*
X6071Y16035D01*
X6085Y16064D01*
X6100Y16078D01*
X6128Y16092D01*
X6157Y16092D01*
X6200Y16078D01*
X6371Y15907D01*
X6371Y16092D01*
X2014Y15950D02*
X2014Y15850D01*
X2171Y15850D02*
X1871Y15850D01*
X1871Y15992D01*
X2171Y16264D02*
X2171Y16092D01*
X2171Y16178D02*
X1871Y16178D01*
X1914Y16150D01*
X1942Y16121D01*
X1957Y16092D01*
X25342Y1407D02*
X25357Y1392D01*
X25371Y1350D01*
X25371Y1321D01*
X25357Y1278D01*
X25328Y1250D01*
X25300Y1235D01*
X25242Y1221D01*
X25200Y1221D01*
X25142Y1235D01*
X25114Y1250D01*
X25085Y1278D01*
X25071Y1321D01*
X25071Y1350D01*
X25085Y1392D01*
X25100Y1407D01*
X25371Y1692D02*
X25371Y1521D01*
X25371Y1607D02*
X25071Y1607D01*
X25114Y1578D01*
X25142Y1550D01*
X25157Y1521D01*
X25071Y1878D02*
X25071Y1907D01*
X25085Y1935D01*
X25100Y1950D01*
X25128Y1964D01*
X25185Y1978D01*
X25257Y1978D01*
X25314Y1964D01*
X25342Y1950D01*
X25357Y1935D01*
X25371Y1907D01*
X25371Y1878D01*
X25357Y1850D01*
X25342Y1835D01*
X25314Y1821D01*
X25257Y1807D01*
X25185Y1807D01*
X25128Y1821D01*
X25100Y1835D01*
X25085Y1850D01*
X25071Y1878D01*
X27392Y10650D02*
X27407Y10635D01*
X27421Y10592D01*
X27421Y10564D01*
X27407Y10521D01*
X27378Y10492D01*
X27350Y10478D01*
X27292Y10464D01*
X27250Y10464D01*
X27192Y10478D01*
X27164Y10492D01*
X27135Y10521D01*
X27121Y10564D01*
X27121Y10592D01*
X27135Y10635D01*
X27150Y10650D01*
X27421Y10792D02*
X27421Y10850D01*
X27407Y10878D01*
X27392Y10892D01*
X27350Y10921D01*
X27292Y10935D01*
X27178Y10935D01*
X27150Y10921D01*
X27135Y10907D01*
X27121Y10878D01*
X27121Y10821D01*
X27135Y10792D01*
X27150Y10778D01*
X27178Y10764D01*
X27250Y10764D01*
X27278Y10778D01*
X27292Y10792D01*
X27307Y10821D01*
X27307Y10878D01*
X27292Y10907D01*
X27278Y10921D01*
X27250Y10935D01*
X7477Y13139D02*
X7489Y13127D01*
X7501Y13091D01*
X7501Y13067D01*
X7489Y13032D01*
X7465Y13008D01*
X7441Y12996D01*
X7394Y12984D01*
X7358Y12984D01*
X7310Y12996D01*
X7286Y13008D01*
X7263Y13032D01*
X7251Y13067D01*
X7251Y13091D01*
X7263Y13127D01*
X7275Y13139D01*
X7501Y13377D02*
X7501Y13234D01*
X7501Y13305D02*
X7251Y13305D01*
X7286Y13282D01*
X7310Y13258D01*
X7322Y13234D01*
X7251Y13460D02*
X7251Y13615D01*
X7346Y13532D01*
X7346Y13567D01*
X7358Y13591D01*
X7370Y13603D01*
X7394Y13615D01*
X7453Y13615D01*
X7477Y13603D01*
X7489Y13591D01*
X7501Y13567D01*
X7501Y13496D01*
X7489Y13472D01*
X7477Y13460D01*
X-528Y12657D02*
X-671Y12557D01*
X-528Y12485D02*
X-828Y12485D01*
X-828Y12600D01*
X-814Y12628D01*
X-800Y12642D01*
X-771Y12657D01*
X-728Y12657D01*
X-700Y12642D01*
X-685Y12628D01*
X-671Y12600D01*
X-671Y12485D01*
X-528Y12942D02*
X-528Y12771D01*
X-528Y12857D02*
X-828Y12857D01*
X-785Y12828D01*
X-757Y12800D01*
X-742Y12771D01*
X-828Y13042D02*
X-828Y13242D01*
X-528Y13114D01*
X2271Y12657D02*
X2128Y12557D01*
X2271Y12485D02*
X1971Y12485D01*
X1971Y12600D01*
X1985Y12628D01*
X2000Y12642D01*
X2028Y12657D01*
X2071Y12657D01*
X2100Y12642D01*
X2114Y12628D01*
X2128Y12600D01*
X2128Y12485D01*
X2271Y12942D02*
X2271Y12771D01*
X2271Y12857D02*
X1971Y12857D01*
X2014Y12828D01*
X2042Y12800D01*
X2057Y12771D01*
X2100Y13114D02*
X2085Y13085D01*
X2071Y13071D01*
X2042Y13057D01*
X2028Y13057D01*
X2000Y13071D01*
X1985Y13085D01*
X1971Y13114D01*
X1971Y13171D01*
X1985Y13200D01*
X2000Y13214D01*
X2028Y13228D01*
X2042Y13228D01*
X2071Y13214D01*
X2085Y13200D01*
X2100Y13171D01*
X2100Y13114D01*
X2114Y13085D01*
X2128Y13071D01*
X2157Y13057D01*
X2214Y13057D01*
X2242Y13071D01*
X2257Y13085D01*
X2271Y13114D01*
X2271Y13171D01*
X2257Y13200D01*
X2242Y13214D01*
X2214Y13228D01*
X2157Y13228D01*
X2128Y13214D01*
X2114Y13200D01*
X2100Y13171D01*
X29592Y450D02*
X29607Y435D01*
X29621Y392D01*
X29621Y364D01*
X29607Y321D01*
X29578Y292D01*
X29550Y278D01*
X29492Y264D01*
X29450Y264D01*
X29392Y278D01*
X29364Y292D01*
X29335Y321D01*
X29321Y364D01*
X29321Y392D01*
X29335Y435D01*
X29350Y450D01*
X29321Y550D02*
X29321Y735D01*
X29435Y635D01*
X29435Y678D01*
X29450Y707D01*
X29464Y721D01*
X29492Y735D01*
X29564Y735D01*
X29592Y721D01*
X29607Y707D01*
X29621Y678D01*
X29621Y592D01*
X29607Y564D01*
X29592Y550D01*
X30492Y4100D02*
X30507Y4085D01*
X30521Y4042D01*
X30521Y4014D01*
X30507Y3971D01*
X30478Y3942D01*
X30450Y3928D01*
X30392Y3914D01*
X30350Y3914D01*
X30292Y3928D01*
X30264Y3942D01*
X30235Y3971D01*
X30221Y4014D01*
X30221Y4042D01*
X30235Y4085D01*
X30250Y4100D01*
X30350Y4271D02*
X30335Y4242D01*
X30321Y4228D01*
X30292Y4214D01*
X30278Y4214D01*
X30250Y4228D01*
X30235Y4242D01*
X30221Y4271D01*
X30221Y4328D01*
X30235Y4357D01*
X30250Y4371D01*
X30278Y4385D01*
X30292Y4385D01*
X30321Y4371D01*
X30335Y4357D01*
X30350Y4328D01*
X30350Y4271D01*
X30364Y4242D01*
X30378Y4228D01*
X30407Y4214D01*
X30464Y4214D01*
X30492Y4228D01*
X30507Y4242D01*
X30521Y4271D01*
X30521Y4328D01*
X30507Y4357D01*
X30492Y4371D01*
X30464Y4385D01*
X30407Y4385D01*
X30378Y4371D01*
X30364Y4357D01*
X30350Y4328D01*
X7427Y15089D02*
X7439Y15077D01*
X7451Y15041D01*
X7451Y15017D01*
X7439Y14982D01*
X7415Y14958D01*
X7391Y14946D01*
X7344Y14934D01*
X7308Y14934D01*
X7260Y14946D01*
X7236Y14958D01*
X7213Y14982D01*
X7201Y15017D01*
X7201Y15041D01*
X7213Y15077D01*
X7225Y15089D01*
X7451Y15327D02*
X7451Y15184D01*
X7451Y15255D02*
X7201Y15255D01*
X7236Y15232D01*
X7260Y15208D01*
X7272Y15184D01*
X7284Y15541D02*
X7451Y15541D01*
X7189Y15482D02*
X7367Y15422D01*
X7367Y15577D01*
X30177Y8458D02*
X30189Y8446D01*
X30201Y8410D01*
X30201Y8386D01*
X30189Y8351D01*
X30165Y8327D01*
X30141Y8315D01*
X30094Y8303D01*
X30058Y8303D01*
X30010Y8315D01*
X29986Y8327D01*
X29963Y8351D01*
X29951Y8386D01*
X29951Y8410D01*
X29963Y8446D01*
X29975Y8458D01*
X29951Y8684D02*
X29951Y8565D01*
X30070Y8553D01*
X30058Y8565D01*
X30046Y8589D01*
X30046Y8648D01*
X30058Y8672D01*
X30070Y8684D01*
X30094Y8696D01*
X30153Y8696D01*
X30177Y8684D01*
X30189Y8672D01*
X30201Y8648D01*
X30201Y8589D01*
X30189Y8565D01*
X30177Y8553D01*
X28892Y450D02*
X28907Y435D01*
X28921Y392D01*
X28921Y364D01*
X28907Y321D01*
X28878Y292D01*
X28850Y278D01*
X28792Y264D01*
X28750Y264D01*
X28692Y278D01*
X28664Y292D01*
X28635Y321D01*
X28621Y364D01*
X28621Y392D01*
X28635Y435D01*
X28650Y450D01*
X28721Y707D02*
X28921Y707D01*
X28607Y635D02*
X28821Y564D01*
X28821Y750D01*
X30177Y9108D02*
X30189Y9096D01*
X30201Y9060D01*
X30201Y9036D01*
X30189Y9001D01*
X30165Y8977D01*
X30141Y8965D01*
X30094Y8953D01*
X30058Y8953D01*
X30010Y8965D01*
X29986Y8977D01*
X29963Y9001D01*
X29951Y9036D01*
X29951Y9060D01*
X29963Y9096D01*
X29975Y9108D01*
X29951Y9322D02*
X29951Y9275D01*
X29963Y9251D01*
X29975Y9239D01*
X30010Y9215D01*
X30058Y9203D01*
X30153Y9203D01*
X30177Y9215D01*
X30189Y9227D01*
X30201Y9251D01*
X30201Y9298D01*
X30189Y9322D01*
X30177Y9334D01*
X30153Y9346D01*
X30094Y9346D01*
X30070Y9334D01*
X30058Y9322D01*
X30046Y9298D01*
X30046Y9251D01*
X30058Y9227D01*
X30070Y9215D01*
X30094Y9203D01*
X25621Y6750D02*
X25478Y6650D01*
X25621Y6578D02*
X25321Y6578D01*
X25321Y6692D01*
X25335Y6721D01*
X25350Y6735D01*
X25378Y6750D01*
X25421Y6750D01*
X25450Y6735D01*
X25464Y6721D01*
X25478Y6692D01*
X25478Y6578D01*
X25321Y7007D02*
X25321Y6950D01*
X25335Y6921D01*
X25350Y6907D01*
X25392Y6878D01*
X25450Y6864D01*
X25564Y6864D01*
X25592Y6878D01*
X25607Y6892D01*
X25621Y6921D01*
X25621Y6978D01*
X25607Y7007D01*
X25592Y7021D01*
X25564Y7035D01*
X25492Y7035D01*
X25464Y7021D01*
X25450Y7007D01*
X25435Y6978D01*
X25435Y6921D01*
X25450Y6892D01*
X25464Y6878D01*
X25492Y6864D01*
X25751Y14358D02*
X25632Y14275D01*
X25751Y14215D02*
X25501Y14215D01*
X25501Y14310D01*
X25513Y14334D01*
X25525Y14346D01*
X25548Y14358D01*
X25584Y14358D01*
X25608Y14346D01*
X25620Y14334D01*
X25632Y14310D01*
X25632Y14215D01*
X25751Y14477D02*
X25751Y14525D01*
X25739Y14548D01*
X25727Y14560D01*
X25691Y14584D01*
X25644Y14596D01*
X25548Y14596D01*
X25525Y14584D01*
X25513Y14572D01*
X25501Y14548D01*
X25501Y14501D01*
X25513Y14477D01*
X25525Y14465D01*
X25548Y14453D01*
X25608Y14453D01*
X25632Y14465D01*
X25644Y14477D01*
X25655Y14501D01*
X25655Y14548D01*
X25644Y14572D01*
X25632Y14584D01*
X25608Y14596D01*
X26511Y-1007D02*
X26321Y-1140D01*
X26511Y-1235D02*
X26111Y-1235D01*
X26111Y-1083D01*
X26130Y-1045D01*
X26150Y-1026D01*
X26188Y-1007D01*
X26245Y-1007D01*
X26283Y-1026D01*
X26302Y-1045D01*
X26321Y-1083D01*
X26321Y-1235D01*
X26511Y-626D02*
X26511Y-854D01*
X26511Y-740D02*
X26111Y-740D01*
X26169Y-778D01*
X26207Y-816D01*
X26226Y-854D01*
X26245Y-283D02*
X26511Y-283D01*
X26092Y-378D02*
X26378Y-473D01*
X26378Y-226D01*
X20880Y9721D02*
X20785Y9654D01*
X20880Y9607D02*
X20680Y9607D01*
X20680Y9683D01*
X20690Y9702D01*
X20700Y9711D01*
X20719Y9721D01*
X20747Y9721D01*
X20766Y9711D01*
X20776Y9702D01*
X20785Y9683D01*
X20785Y9607D01*
X20880Y9911D02*
X20880Y9797D01*
X20880Y9854D02*
X20680Y9854D01*
X20709Y9835D01*
X20728Y9816D01*
X20738Y9797D01*
X20880Y10007D02*
X20880Y10045D01*
X20871Y10064D01*
X20861Y10073D01*
X20833Y10092D01*
X20795Y10102D01*
X20719Y10102D01*
X20700Y10092D01*
X20690Y10083D01*
X20680Y10064D01*
X20680Y10026D01*
X20690Y10007D01*
X20700Y9997D01*
X20719Y9988D01*
X20766Y9988D01*
X20785Y9997D01*
X20795Y10007D01*
X20804Y10026D01*
X20804Y10064D01*
X20795Y10083D01*
X20785Y10092D01*
X20766Y10102D01*
X5630Y12121D02*
X5535Y12054D01*
X5630Y12007D02*
X5430Y12007D01*
X5430Y12083D01*
X5440Y12102D01*
X5450Y12111D01*
X5469Y12121D01*
X5497Y12121D01*
X5516Y12111D01*
X5526Y12102D01*
X5535Y12083D01*
X5535Y12007D01*
X5630Y12311D02*
X5630Y12197D01*
X5630Y12254D02*
X5430Y12254D01*
X5459Y12235D01*
X5478Y12216D01*
X5488Y12197D01*
X5430Y12483D02*
X5430Y12445D01*
X5440Y12426D01*
X5450Y12416D01*
X5478Y12397D01*
X5516Y12388D01*
X5592Y12388D01*
X5611Y12397D01*
X5621Y12407D01*
X5630Y12426D01*
X5630Y12464D01*
X5621Y12483D01*
X5611Y12492D01*
X5592Y12502D01*
X5545Y12502D01*
X5526Y12492D01*
X5516Y12483D01*
X5507Y12464D01*
X5507Y12426D01*
X5516Y12407D01*
X5526Y12397D01*
X5545Y12388D01*
X13521Y1800D02*
X13378Y1700D01*
X13521Y1628D02*
X13221Y1628D01*
X13221Y1742D01*
X13235Y1771D01*
X13250Y1785D01*
X13278Y1800D01*
X13321Y1800D01*
X13350Y1785D01*
X13364Y1771D01*
X13378Y1742D01*
X13378Y1628D01*
X13521Y2085D02*
X13521Y1914D01*
X13521Y2000D02*
X13221Y2000D01*
X13264Y1971D01*
X13292Y1942D01*
X13307Y1914D01*
X8951Y13889D02*
X8832Y13805D01*
X8951Y13746D02*
X8701Y13746D01*
X8701Y13841D01*
X8713Y13865D01*
X8725Y13877D01*
X8748Y13889D01*
X8784Y13889D01*
X8808Y13877D01*
X8820Y13865D01*
X8832Y13841D01*
X8832Y13746D01*
X8951Y14127D02*
X8951Y13984D01*
X8951Y14055D02*
X8701Y14055D01*
X8736Y14032D01*
X8760Y14008D01*
X8772Y13984D01*
X8701Y14353D02*
X8701Y14234D01*
X8820Y14222D01*
X8808Y14234D01*
X8796Y14258D01*
X8796Y14317D01*
X8808Y14341D01*
X8820Y14353D01*
X8844Y14365D01*
X8903Y14365D01*
X8927Y14353D01*
X8939Y14341D01*
X8951Y14317D01*
X8951Y14258D01*
X8939Y14234D01*
X8927Y14222D01*
X20880Y7871D02*
X20785Y7804D01*
X20880Y7757D02*
X20680Y7757D01*
X20680Y7833D01*
X20690Y7852D01*
X20700Y7861D01*
X20719Y7871D01*
X20747Y7871D01*
X20766Y7861D01*
X20776Y7852D01*
X20785Y7833D01*
X20785Y7757D01*
X20700Y7947D02*
X20690Y7957D01*
X20680Y7976D01*
X20680Y8023D01*
X20690Y8042D01*
X20700Y8052D01*
X20719Y8061D01*
X20738Y8061D01*
X20766Y8052D01*
X20880Y7938D01*
X20880Y8061D01*
X20680Y8185D02*
X20680Y8204D01*
X20690Y8223D01*
X20700Y8233D01*
X20719Y8242D01*
X20757Y8252D01*
X20804Y8252D01*
X20842Y8242D01*
X20861Y8233D01*
X20871Y8223D01*
X20880Y8204D01*
X20880Y8185D01*
X20871Y8166D01*
X20861Y8157D01*
X20842Y8147D01*
X20804Y8138D01*
X20757Y8138D01*
X20719Y8147D01*
X20700Y8157D01*
X20690Y8166D01*
X20680Y8185D01*
X14871Y10407D02*
X14728Y10307D01*
X14871Y10235D02*
X14571Y10235D01*
X14571Y10350D01*
X14585Y10378D01*
X14600Y10392D01*
X14628Y10407D01*
X14671Y10407D01*
X14700Y10392D01*
X14714Y10378D01*
X14728Y10350D01*
X14728Y10235D01*
X14871Y10692D02*
X14871Y10521D01*
X14871Y10607D02*
X14571Y10607D01*
X14614Y10578D01*
X14642Y10550D01*
X14657Y10521D01*
X14571Y10792D02*
X14571Y10978D01*
X14685Y10878D01*
X14685Y10921D01*
X14700Y10950D01*
X14714Y10964D01*
X14742Y10978D01*
X14814Y10978D01*
X14842Y10964D01*
X14857Y10950D01*
X14871Y10921D01*
X14871Y10835D01*
X14857Y10807D01*
X14842Y10792D01*
X25621Y9757D02*
X25478Y9657D01*
X25621Y9585D02*
X25321Y9585D01*
X25321Y9700D01*
X25335Y9728D01*
X25350Y9742D01*
X25378Y9757D01*
X25421Y9757D01*
X25450Y9742D01*
X25464Y9728D01*
X25478Y9700D01*
X25478Y9585D01*
X25621Y10042D02*
X25621Y9871D01*
X25621Y9957D02*
X25321Y9957D01*
X25364Y9928D01*
X25392Y9900D01*
X25407Y9871D01*
X25350Y10157D02*
X25335Y10171D01*
X25321Y10200D01*
X25321Y10271D01*
X25335Y10300D01*
X25350Y10314D01*
X25378Y10328D01*
X25407Y10328D01*
X25450Y10314D01*
X25621Y10142D01*
X25621Y10328D01*
X13521Y7450D02*
X13378Y7350D01*
X13521Y7278D02*
X13221Y7278D01*
X13221Y7392D01*
X13235Y7421D01*
X13250Y7435D01*
X13278Y7450D01*
X13321Y7450D01*
X13350Y7435D01*
X13364Y7421D01*
X13378Y7392D01*
X13378Y7278D01*
X13321Y7707D02*
X13521Y7707D01*
X13207Y7635D02*
X13421Y7564D01*
X13421Y7750D01*
X11830Y14621D02*
X11735Y14554D01*
X11830Y14507D02*
X11630Y14507D01*
X11630Y14583D01*
X11640Y14602D01*
X11650Y14611D01*
X11669Y14621D01*
X11697Y14621D01*
X11716Y14611D01*
X11726Y14602D01*
X11735Y14583D01*
X11735Y14507D01*
X11830Y14811D02*
X11830Y14697D01*
X11830Y14754D02*
X11630Y14754D01*
X11659Y14735D01*
X11678Y14716D01*
X11688Y14697D01*
X11630Y14935D02*
X11630Y14954D01*
X11640Y14973D01*
X11650Y14983D01*
X11669Y14992D01*
X11707Y15002D01*
X11754Y15002D01*
X11792Y14992D01*
X11811Y14983D01*
X11821Y14973D01*
X11830Y14954D01*
X11830Y14935D01*
X11821Y14916D01*
X11811Y14907D01*
X11792Y14897D01*
X11754Y14888D01*
X11707Y14888D01*
X11669Y14897D01*
X11650Y14907D01*
X11640Y14916D01*
X11630Y14935D01*
X11830Y13871D02*
X11735Y13804D01*
X11830Y13757D02*
X11630Y13757D01*
X11630Y13833D01*
X11640Y13852D01*
X11650Y13861D01*
X11669Y13871D01*
X11697Y13871D01*
X11716Y13861D01*
X11726Y13852D01*
X11735Y13833D01*
X11735Y13757D01*
X11830Y14061D02*
X11830Y13947D01*
X11830Y14004D02*
X11630Y14004D01*
X11659Y13985D01*
X11678Y13966D01*
X11688Y13947D01*
X11830Y14252D02*
X11830Y14138D01*
X11830Y14195D02*
X11630Y14195D01*
X11659Y14176D01*
X11678Y14157D01*
X11688Y14138D01*
G54D24*
X13521Y4600D02*
X13378Y4500D01*
X13521Y4428D02*
X13221Y4428D01*
X13221Y4542D01*
X13235Y4571D01*
X13250Y4585D01*
X13278Y4600D01*
X13321Y4600D01*
X13350Y4585D01*
X13364Y4571D01*
X13378Y4542D01*
X13378Y4428D01*
X13250Y4714D02*
X13235Y4728D01*
X13221Y4757D01*
X13221Y4828D01*
X13235Y4857D01*
X13250Y4871D01*
X13278Y4885D01*
X13307Y4885D01*
X13350Y4871D01*
X13521Y4700D01*
X13521Y4885D01*
G54D11*
X14471Y-1542D02*
X14328Y-1642D01*
X14471Y-1714D02*
X14171Y-1714D01*
X14171Y-1600D01*
X14185Y-1571D01*
X14200Y-1557D01*
X14228Y-1542D01*
X14271Y-1542D01*
X14300Y-1557D01*
X14314Y-1571D01*
X14328Y-1600D01*
X14328Y-1714D01*
X14200Y-1428D02*
X14185Y-1414D01*
X14171Y-1385D01*
X14171Y-1314D01*
X14185Y-1285D01*
X14200Y-1271D01*
X14228Y-1257D01*
X14257Y-1257D01*
X14300Y-1271D01*
X14471Y-1442D01*
X14471Y-1257D01*
X14471Y-971D02*
X14471Y-1142D01*
X14471Y-1057D02*
X14171Y-1057D01*
X14214Y-1085D01*
X14242Y-1114D01*
X14257Y-1142D01*
X13521Y5500D02*
X13378Y5400D01*
X13521Y5328D02*
X13221Y5328D01*
X13221Y5442D01*
X13235Y5471D01*
X13250Y5485D01*
X13278Y5500D01*
X13321Y5500D01*
X13350Y5485D01*
X13364Y5471D01*
X13378Y5442D01*
X13378Y5328D01*
X13221Y5600D02*
X13221Y5785D01*
X13335Y5685D01*
X13335Y5728D01*
X13350Y5757D01*
X13364Y5771D01*
X13392Y5785D01*
X13464Y5785D01*
X13492Y5771D01*
X13507Y5757D01*
X13521Y5728D01*
X13521Y5642D01*
X13507Y5614D01*
X13492Y5600D01*
X25751Y12358D02*
X25632Y12275D01*
X25751Y12215D02*
X25501Y12215D01*
X25501Y12310D01*
X25513Y12334D01*
X25525Y12346D01*
X25548Y12358D01*
X25584Y12358D01*
X25608Y12346D01*
X25620Y12334D01*
X25632Y12310D01*
X25632Y12215D01*
X25608Y12501D02*
X25596Y12477D01*
X25584Y12465D01*
X25560Y12453D01*
X25548Y12453D01*
X25525Y12465D01*
X25513Y12477D01*
X25501Y12501D01*
X25501Y12548D01*
X25513Y12572D01*
X25525Y12584D01*
X25548Y12596D01*
X25560Y12596D01*
X25584Y12584D01*
X25596Y12572D01*
X25608Y12548D01*
X25608Y12501D01*
X25620Y12477D01*
X25632Y12465D01*
X25655Y12453D01*
X25703Y12453D01*
X25727Y12465D01*
X25739Y12477D01*
X25751Y12501D01*
X25751Y12548D01*
X25739Y12572D01*
X25727Y12584D01*
X25703Y12596D01*
X25655Y12596D01*
X25632Y12584D01*
X25620Y12572D01*
X25608Y12548D01*
X25751Y13358D02*
X25632Y13275D01*
X25751Y13215D02*
X25501Y13215D01*
X25501Y13310D01*
X25513Y13334D01*
X25525Y13346D01*
X25548Y13358D01*
X25584Y13358D01*
X25608Y13346D01*
X25620Y13334D01*
X25632Y13310D01*
X25632Y13215D01*
X25501Y13441D02*
X25501Y13608D01*
X25751Y13501D01*
X13521Y9500D02*
X13378Y9400D01*
X13521Y9328D02*
X13221Y9328D01*
X13221Y9442D01*
X13235Y9471D01*
X13250Y9485D01*
X13278Y9500D01*
X13321Y9500D01*
X13350Y9485D01*
X13364Y9471D01*
X13378Y9442D01*
X13378Y9328D01*
X13221Y9771D02*
X13221Y9628D01*
X13364Y9614D01*
X13350Y9628D01*
X13335Y9657D01*
X13335Y9728D01*
X13350Y9757D01*
X13364Y9771D01*
X13392Y9785D01*
X13464Y9785D01*
X13492Y9771D01*
X13507Y9757D01*
X13521Y9728D01*
X13521Y9657D01*
X13507Y9628D01*
X13492Y9614D01*
X30727Y7008D02*
X30739Y6996D01*
X30751Y6960D01*
X30751Y6936D01*
X30739Y6901D01*
X30715Y6877D01*
X30691Y6865D01*
X30644Y6853D01*
X30608Y6853D01*
X30560Y6865D01*
X30536Y6877D01*
X30513Y6901D01*
X30501Y6936D01*
X30501Y6960D01*
X30513Y6996D01*
X30525Y7008D01*
X30751Y7246D02*
X30751Y7103D01*
X30751Y7175D02*
X30501Y7175D01*
X30536Y7151D01*
X30560Y7127D01*
X30572Y7103D01*
X28242Y3357D02*
X28257Y3342D01*
X28271Y3300D01*
X28271Y3271D01*
X28257Y3228D01*
X28228Y3200D01*
X28200Y3185D01*
X28142Y3171D01*
X28100Y3171D01*
X28042Y3185D01*
X28014Y3200D01*
X27985Y3228D01*
X27971Y3271D01*
X27971Y3300D01*
X27985Y3342D01*
X28000Y3357D01*
X28271Y3642D02*
X28271Y3471D01*
X28271Y3557D02*
X27971Y3557D01*
X28014Y3528D01*
X28042Y3500D01*
X28057Y3471D01*
X28271Y3928D02*
X28271Y3757D01*
X28271Y3842D02*
X27971Y3842D01*
X28014Y3814D01*
X28042Y3785D01*
X28057Y3757D01*
X30727Y5408D02*
X30739Y5396D01*
X30751Y5360D01*
X30751Y5336D01*
X30739Y5301D01*
X30715Y5277D01*
X30691Y5265D01*
X30644Y5253D01*
X30608Y5253D01*
X30560Y5265D01*
X30536Y5277D01*
X30513Y5301D01*
X30501Y5336D01*
X30501Y5360D01*
X30513Y5396D01*
X30525Y5408D01*
X30525Y5503D02*
X30513Y5515D01*
X30501Y5539D01*
X30501Y5598D01*
X30513Y5622D01*
X30525Y5634D01*
X30548Y5646D01*
X30572Y5646D01*
X30608Y5634D01*
X30751Y5491D01*
X30751Y5646D01*
G54D21*
X12892Y-1700D02*
X13321Y-1700D01*
X13407Y-1728D01*
X13464Y-1785D01*
X13492Y-1871D01*
X13492Y-1928D01*
X13492Y-1100D02*
X13492Y-1442D01*
X13492Y-1271D02*
X12892Y-1271D01*
X12978Y-1328D01*
X13035Y-1385D01*
X13064Y-1442D01*
X18442Y-1700D02*
X18871Y-1700D01*
X18957Y-1728D01*
X19014Y-1785D01*
X19042Y-1871D01*
X19042Y-1928D01*
X18500Y-1442D02*
X18471Y-1414D01*
X18442Y-1357D01*
X18442Y-1214D01*
X18471Y-1157D01*
X18500Y-1128D01*
X18557Y-1100D01*
X18614Y-1100D01*
X18700Y-1128D01*
X19042Y-1471D01*
X19042Y-1100D01*
G54D10*
X20352Y-1997D02*
X20542Y-1997D01*
X20314Y-2111D02*
X20447Y-1711D01*
X20580Y-2111D01*
X20714Y-2111D02*
X20714Y-1711D01*
X20942Y-2111D01*
X20942Y-1711D01*
X21114Y-1997D02*
X21304Y-1997D01*
X21076Y-2111D02*
X21209Y-1711D01*
X21342Y-2111D01*
X21666Y-2111D02*
X21476Y-2111D01*
X21476Y-1711D01*
X21876Y-1711D02*
X21952Y-1711D01*
X21990Y-1730D01*
X22028Y-1769D01*
X22047Y-1845D01*
X22047Y-1978D01*
X22028Y-2054D01*
X21990Y-2092D01*
X21952Y-2111D01*
X21876Y-2111D01*
X21838Y-2092D01*
X21800Y-2054D01*
X21780Y-1978D01*
X21780Y-1845D01*
X21800Y-1769D01*
X21838Y-1730D01*
X21876Y-1711D01*
X22428Y-1730D02*
X22390Y-1711D01*
X22333Y-1711D01*
X22276Y-1730D01*
X22238Y-1769D01*
X22219Y-1807D01*
X22200Y-1883D01*
X22200Y-1940D01*
X22219Y-2016D01*
X22238Y-2054D01*
X22276Y-2092D01*
X22333Y-2111D01*
X22371Y-2111D01*
X22428Y-2092D01*
X22447Y-2073D01*
X22447Y-1940D01*
X22371Y-1940D01*
G54D21*
X20061Y11704D02*
X19661Y11704D01*
X19661Y11857D01*
X19680Y11895D01*
X19700Y11914D01*
X19738Y11933D01*
X19795Y11933D01*
X19833Y11914D01*
X19852Y11895D01*
X19871Y11857D01*
X19871Y11704D01*
X19700Y12085D02*
X19680Y12104D01*
X19661Y12142D01*
X19661Y12238D01*
X19680Y12276D01*
X19700Y12295D01*
X19738Y12314D01*
X19776Y12314D01*
X19833Y12295D01*
X20061Y12066D01*
X20061Y12314D01*
G54D11*
X31542Y2257D02*
X31557Y2242D01*
X31571Y2200D01*
X31571Y2171D01*
X31557Y2128D01*
X31528Y2100D01*
X31500Y2085D01*
X31442Y2071D01*
X31400Y2071D01*
X31342Y2085D01*
X31314Y2100D01*
X31285Y2128D01*
X31271Y2171D01*
X31271Y2200D01*
X31285Y2242D01*
X31300Y2257D01*
X31571Y2542D02*
X31571Y2371D01*
X31571Y2457D02*
X31271Y2457D01*
X31314Y2428D01*
X31342Y2400D01*
X31357Y2371D01*
X31300Y2657D02*
X31285Y2671D01*
X31271Y2700D01*
X31271Y2771D01*
X31285Y2800D01*
X31300Y2814D01*
X31328Y2828D01*
X31357Y2828D01*
X31400Y2814D01*
X31571Y2642D01*
X31571Y2828D01*
G54D10*
X-508Y15791D02*
X-858Y15791D01*
X-858Y15925D01*
X-841Y15958D01*
X-825Y15975D01*
X-791Y15991D01*
X-741Y15991D01*
X-708Y15975D01*
X-691Y15958D01*
X-675Y15925D01*
X-675Y15791D01*
X-508Y16325D02*
X-508Y16125D01*
X-508Y16225D02*
X-858Y16225D01*
X-808Y16191D01*
X-775Y16158D01*
X-758Y16125D01*
G54D25*
X24860Y-89D02*
X24710Y-89D01*
X24710Y-32D01*
X24717Y-17D01*
X24725Y-10D01*
X24739Y-3D01*
X24760Y-3D01*
X24775Y-10D01*
X24782Y-17D01*
X24789Y-32D01*
X24789Y-89D01*
X24817Y53D02*
X24817Y125D01*
X24860Y39D02*
X24710Y89D01*
X24860Y139D01*
X24860Y189D02*
X24710Y189D01*
X24860Y332D02*
X24860Y260D01*
X24710Y260D01*
X24860Y582D02*
X24789Y532D01*
X24860Y496D02*
X24710Y496D01*
X24710Y553D01*
X24717Y567D01*
X24725Y575D01*
X24739Y582D01*
X24760Y582D01*
X24775Y575D01*
X24782Y567D01*
X24789Y553D01*
X24789Y496D01*
X24782Y646D02*
X24782Y696D01*
X24860Y717D02*
X24860Y646D01*
X24710Y646D01*
X24710Y717D01*
X24860Y782D02*
X24710Y782D01*
X24846Y939D02*
X24853Y932D01*
X24860Y910D01*
X24860Y896D01*
X24853Y875D01*
X24839Y860D01*
X24825Y853D01*
X24796Y846D01*
X24775Y846D01*
X24746Y853D01*
X24732Y860D01*
X24717Y875D01*
X24710Y896D01*
X24710Y910D01*
X24717Y932D01*
X24725Y939D01*
X24860Y1003D02*
X24710Y1003D01*
X24782Y1003D02*
X24782Y1089D01*
X24860Y1089D02*
X24710Y1089D01*
G54D11*
X17271Y1071D02*
X17271Y1242D01*
X17571Y1157D02*
X17271Y1157D01*
X17571Y1342D02*
X17271Y1342D01*
X17271Y1457D01*
X17285Y1485D01*
X17300Y1500D01*
X17328Y1514D01*
X17371Y1514D01*
X17400Y1500D01*
X17414Y1485D01*
X17428Y1457D01*
X17428Y1342D01*
X17271Y1785D02*
X17271Y1642D01*
X17414Y1628D01*
X17400Y1642D01*
X17385Y1671D01*
X17385Y1742D01*
X17400Y1771D01*
X17414Y1785D01*
X17442Y1800D01*
X17514Y1800D01*
X17542Y1785D01*
X17557Y1771D01*
X17571Y1742D01*
X17571Y1671D01*
X17557Y1642D01*
X17542Y1628D01*
G54D10*
X18876Y269D02*
X18852Y221D01*
X18852Y150D01*
X18876Y78D01*
X18923Y30D01*
X18971Y7D01*
X19066Y-16D01*
X19138Y-16D01*
X19233Y7D01*
X19280Y30D01*
X19328Y78D01*
X19352Y150D01*
X19352Y197D01*
X19328Y269D01*
X19304Y292D01*
X19138Y292D01*
X19138Y197D01*
X19352Y507D02*
X18852Y507D01*
X19352Y792D01*
X18852Y792D01*
X19352Y1030D02*
X18852Y1030D01*
X18852Y1150D01*
X18876Y1221D01*
X18923Y1269D01*
X18971Y1292D01*
X19066Y1316D01*
X19138Y1316D01*
X19233Y1292D01*
X19280Y1269D01*
X19328Y1221D01*
X19352Y1150D01*
X19352Y1030D01*
G54D11*
X-628Y-1428D02*
X-628Y-1257D01*
X-328Y-1342D02*
X-628Y-1342D01*
X-328Y-1157D02*
X-628Y-1157D01*
X-628Y-1042D01*
X-614Y-1014D01*
X-600Y-1000D01*
X-571Y-985D01*
X-528Y-985D01*
X-500Y-1000D01*
X-485Y-1014D01*
X-471Y-1042D01*
X-471Y-1157D01*
X-628Y-728D02*
X-628Y-785D01*
X-614Y-814D01*
X-600Y-828D01*
X-557Y-857D01*
X-500Y-871D01*
X-385Y-871D01*
X-357Y-857D01*
X-342Y-842D01*
X-328Y-814D01*
X-328Y-757D01*
X-342Y-728D01*
X-357Y-714D01*
X-385Y-700D01*
X-457Y-700D01*
X-485Y-714D01*
X-500Y-728D01*
X-514Y-757D01*
X-514Y-814D01*
X-500Y-842D01*
X-485Y-857D01*
X-457Y-871D01*
G54D10*
X561Y-1578D02*
X561Y-1197D01*
X752Y-1388D02*
X371Y-1388D01*
X252Y-721D02*
X252Y-959D01*
X490Y-983D01*
X466Y-959D01*
X442Y-911D01*
X442Y-792D01*
X466Y-745D01*
X490Y-721D01*
X538Y-697D01*
X657Y-697D01*
X704Y-721D01*
X728Y-745D01*
X752Y-792D01*
X752Y-911D01*
X728Y-959D01*
X704Y-983D01*
G54D11*
X37511Y4876D02*
X37511Y5142D01*
X37911Y4876D01*
X37911Y5142D01*
X37511Y5257D02*
X37511Y5504D01*
X37664Y5371D01*
X37664Y5428D01*
X37683Y5466D01*
X37702Y5485D01*
X37740Y5504D01*
X37835Y5504D01*
X37873Y5485D01*
X37892Y5466D01*
X37911Y5428D01*
X37911Y5314D01*
X37892Y5276D01*
X37873Y5257D01*
X37600Y-2985D02*
X37585Y-2971D01*
X37571Y-2942D01*
X37571Y-2871D01*
X37585Y-2842D01*
X37600Y-2828D01*
X37628Y-2814D01*
X37657Y-2814D01*
X37700Y-2828D01*
X37871Y-2999D01*
X37871Y-2814D01*
X37842Y-2685D02*
X37857Y-2671D01*
X37871Y-2685D01*
X37857Y-2699D01*
X37842Y-2685D01*
X37871Y-2685D01*
X37671Y-2414D02*
X37871Y-2414D01*
X37557Y-2485D02*
X37771Y-2557D01*
X37771Y-2371D01*
X37571Y-2114D02*
X37571Y-2257D01*
X37714Y-2271D01*
X37700Y-2257D01*
X37685Y-2228D01*
X37685Y-2157D01*
X37700Y-2128D01*
X37714Y-2114D01*
X37742Y-2100D01*
X37814Y-2100D01*
X37842Y-2114D01*
X37857Y-2128D01*
X37871Y-2157D01*
X37871Y-2228D01*
X37857Y-2257D01*
X37842Y-2271D01*
X37585Y-1585D02*
X37571Y-1614D01*
X37571Y-1657D01*
X37585Y-1700D01*
X37614Y-1728D01*
X37642Y-1742D01*
X37700Y-1757D01*
X37742Y-1757D01*
X37800Y-1742D01*
X37828Y-1728D01*
X37857Y-1700D01*
X37871Y-1657D01*
X37871Y-1628D01*
X37857Y-1585D01*
X37842Y-1571D01*
X37742Y-1571D01*
X37742Y-1628D01*
X37871Y-1442D02*
X37571Y-1442D01*
X37714Y-1442D02*
X37714Y-1271D01*
X37871Y-1271D02*
X37571Y-1271D01*
X37671Y-1157D02*
X37671Y-1000D01*
X37871Y-1157D01*
X37871Y-1000D01*
X29830Y14157D02*
X29630Y14157D01*
X29630Y14204D01*
X29640Y14233D01*
X29659Y14252D01*
X29678Y14261D01*
X29716Y14271D01*
X29745Y14271D01*
X29783Y14261D01*
X29802Y14252D01*
X29821Y14233D01*
X29830Y14204D01*
X29830Y14157D01*
X29697Y14442D02*
X29830Y14442D01*
X29621Y14395D02*
X29764Y14347D01*
X29764Y14471D01*
X29630Y14528D02*
X29630Y14652D01*
X29707Y14585D01*
X29707Y14614D01*
X29716Y14633D01*
X29726Y14642D01*
X29745Y14652D01*
X29792Y14652D01*
X29811Y14642D01*
X29821Y14633D01*
X29830Y14614D01*
X29830Y14557D01*
X29821Y14538D01*
X29811Y14528D01*
G54D10*
X29407Y14014D02*
X29421Y14057D01*
X29421Y14128D01*
X29407Y14157D01*
X29392Y14171D01*
X29364Y14185D01*
X29335Y14185D01*
X29307Y14171D01*
X29292Y14157D01*
X29278Y14128D01*
X29264Y14071D01*
X29250Y14042D01*
X29235Y14028D01*
X29207Y14014D01*
X29178Y14014D01*
X29150Y14028D01*
X29135Y14042D01*
X29121Y14071D01*
X29121Y14142D01*
X29135Y14185D01*
X29392Y14485D02*
X29407Y14471D01*
X29421Y14428D01*
X29421Y14400D01*
X29407Y14357D01*
X29378Y14328D01*
X29350Y14314D01*
X29292Y14300D01*
X29250Y14300D01*
X29192Y14314D01*
X29164Y14328D01*
X29135Y14357D01*
X29121Y14400D01*
X29121Y14428D01*
X29135Y14471D01*
X29150Y14485D01*
X29421Y14614D02*
X29121Y14614D01*
X29421Y14785D02*
X29250Y14657D01*
X29121Y14785D02*
X29292Y14614D01*
G54D11*
X29830Y13157D02*
X29630Y13157D01*
X29630Y13204D01*
X29640Y13233D01*
X29659Y13252D01*
X29678Y13261D01*
X29716Y13271D01*
X29745Y13271D01*
X29783Y13261D01*
X29802Y13252D01*
X29821Y13233D01*
X29830Y13204D01*
X29830Y13157D01*
X29697Y13442D02*
X29830Y13442D01*
X29621Y13395D02*
X29764Y13347D01*
X29764Y13471D01*
X29650Y13538D02*
X29640Y13547D01*
X29630Y13566D01*
X29630Y13614D01*
X29640Y13633D01*
X29650Y13642D01*
X29669Y13652D01*
X29688Y13652D01*
X29716Y13642D01*
X29830Y13528D01*
X29830Y13652D01*
G54D10*
X29121Y13021D02*
X29121Y13192D01*
X29421Y13107D02*
X29121Y13107D01*
X29121Y13264D02*
X29421Y13464D01*
X29121Y13464D02*
X29421Y13264D01*
X29421Y13578D02*
X29121Y13578D01*
X29121Y13650D01*
X29135Y13692D01*
X29164Y13721D01*
X29192Y13735D01*
X29250Y13750D01*
X29292Y13750D01*
X29350Y13735D01*
X29378Y13721D01*
X29407Y13692D01*
X29421Y13650D01*
X29421Y13578D01*
G54D11*
X11330Y11107D02*
X11130Y11107D01*
X11130Y11154D01*
X11140Y11183D01*
X11159Y11202D01*
X11178Y11211D01*
X11216Y11221D01*
X11245Y11221D01*
X11283Y11211D01*
X11302Y11202D01*
X11321Y11183D01*
X11330Y11154D01*
X11330Y11107D01*
X11197Y11392D02*
X11330Y11392D01*
X11121Y11345D02*
X11264Y11297D01*
X11264Y11421D01*
X11130Y11535D02*
X11130Y11554D01*
X11140Y11573D01*
X11150Y11583D01*
X11169Y11592D01*
X11207Y11602D01*
X11254Y11602D01*
X11292Y11592D01*
X11311Y11583D01*
X11321Y11573D01*
X11330Y11554D01*
X11330Y11535D01*
X11321Y11516D01*
X11311Y11507D01*
X11292Y11497D01*
X11254Y11488D01*
X11207Y11488D01*
X11169Y11497D01*
X11150Y11507D01*
X11140Y11516D01*
X11130Y11535D01*
X8680Y12807D02*
X8480Y12807D01*
X8480Y12854D01*
X8490Y12883D01*
X8509Y12902D01*
X8528Y12911D01*
X8566Y12921D01*
X8595Y12921D01*
X8633Y12911D01*
X8652Y12902D01*
X8671Y12883D01*
X8680Y12854D01*
X8680Y12807D01*
X8547Y13092D02*
X8680Y13092D01*
X8471Y13045D02*
X8614Y12997D01*
X8614Y13121D01*
X8547Y13283D02*
X8680Y13283D01*
X8471Y13235D02*
X8614Y13188D01*
X8614Y13311D01*
X9671Y11850D02*
X9371Y11850D01*
X9371Y11964D01*
X9385Y11992D01*
X9400Y12007D01*
X9428Y12021D01*
X9471Y12021D01*
X9500Y12007D01*
X9514Y11992D01*
X9528Y11964D01*
X9528Y11850D01*
X9371Y12121D02*
X9671Y12192D01*
X9457Y12250D01*
X9671Y12307D01*
X9371Y12378D01*
X9671Y12664D02*
X9528Y12564D01*
X9671Y12492D02*
X9371Y12492D01*
X9371Y12607D01*
X9385Y12635D01*
X9400Y12650D01*
X9428Y12664D01*
X9471Y12664D01*
X9500Y12650D01*
X9514Y12635D01*
X9528Y12607D01*
X9528Y12492D01*
X3330Y1007D02*
X3130Y1007D01*
X3130Y1054D01*
X3140Y1083D01*
X3159Y1102D01*
X3178Y1111D01*
X3216Y1121D01*
X3245Y1121D01*
X3283Y1111D01*
X3302Y1102D01*
X3321Y1083D01*
X3330Y1054D01*
X3330Y1007D01*
X3330Y1311D02*
X3330Y1197D01*
X3330Y1254D02*
X3130Y1254D01*
X3159Y1235D01*
X3178Y1216D01*
X3188Y1197D01*
X3330Y1502D02*
X3330Y1388D01*
X3330Y1445D02*
X3130Y1445D01*
X3159Y1426D01*
X3178Y1407D01*
X3188Y1388D01*
X6530Y1007D02*
X6330Y1007D01*
X6330Y1054D01*
X6340Y1083D01*
X6359Y1102D01*
X6378Y1111D01*
X6416Y1121D01*
X6445Y1121D01*
X6483Y1111D01*
X6502Y1102D01*
X6521Y1083D01*
X6530Y1054D01*
X6530Y1007D01*
X6350Y1197D02*
X6340Y1207D01*
X6330Y1226D01*
X6330Y1273D01*
X6340Y1292D01*
X6350Y1302D01*
X6369Y1311D01*
X6388Y1311D01*
X6416Y1302D01*
X6530Y1188D01*
X6530Y1311D01*
X6530Y1502D02*
X6530Y1388D01*
X6530Y1445D02*
X6330Y1445D01*
X6359Y1426D01*
X6378Y1407D01*
X6388Y1388D01*
X4930Y11107D02*
X4730Y11107D01*
X4730Y11154D01*
X4740Y11183D01*
X4759Y11202D01*
X4778Y11211D01*
X4816Y11221D01*
X4845Y11221D01*
X4883Y11211D01*
X4902Y11202D01*
X4921Y11183D01*
X4930Y11154D01*
X4930Y11107D01*
X4750Y11297D02*
X4740Y11307D01*
X4730Y11326D01*
X4730Y11373D01*
X4740Y11392D01*
X4750Y11402D01*
X4769Y11411D01*
X4788Y11411D01*
X4816Y11402D01*
X4930Y11288D01*
X4930Y11411D01*
X4730Y11535D02*
X4730Y11554D01*
X4740Y11573D01*
X4750Y11583D01*
X4769Y11592D01*
X4807Y11602D01*
X4854Y11602D01*
X4892Y11592D01*
X4911Y11583D01*
X4921Y11573D01*
X4930Y11554D01*
X4930Y11535D01*
X4921Y11516D01*
X4911Y11507D01*
X4892Y11497D01*
X4854Y11488D01*
X4807Y11488D01*
X4769Y11497D01*
X4750Y11507D01*
X4740Y11516D01*
X4730Y11535D01*
X4930Y1007D02*
X4730Y1007D01*
X4730Y1054D01*
X4740Y1083D01*
X4759Y1102D01*
X4778Y1111D01*
X4816Y1121D01*
X4845Y1121D01*
X4883Y1111D01*
X4902Y1102D01*
X4921Y1083D01*
X4930Y1054D01*
X4930Y1007D01*
X4930Y1311D02*
X4930Y1197D01*
X4930Y1254D02*
X4730Y1254D01*
X4759Y1235D01*
X4778Y1216D01*
X4788Y1197D01*
X4730Y1483D02*
X4730Y1445D01*
X4740Y1426D01*
X4750Y1416D01*
X4778Y1397D01*
X4816Y1388D01*
X4892Y1388D01*
X4911Y1397D01*
X4921Y1407D01*
X4930Y1426D01*
X4930Y1464D01*
X4921Y1483D01*
X4911Y1492D01*
X4892Y1502D01*
X4845Y1502D01*
X4826Y1492D01*
X4816Y1483D01*
X4807Y1464D01*
X4807Y1426D01*
X4816Y1407D01*
X4826Y1397D01*
X4845Y1388D01*
X3330Y11107D02*
X3130Y11107D01*
X3130Y11154D01*
X3140Y11183D01*
X3159Y11202D01*
X3178Y11211D01*
X3216Y11221D01*
X3245Y11221D01*
X3283Y11211D01*
X3302Y11202D01*
X3321Y11183D01*
X3330Y11154D01*
X3330Y11107D01*
X3330Y11411D02*
X3330Y11297D01*
X3330Y11354D02*
X3130Y11354D01*
X3159Y11335D01*
X3178Y11316D01*
X3188Y11297D01*
X3130Y11592D02*
X3130Y11497D01*
X3226Y11488D01*
X3216Y11497D01*
X3207Y11516D01*
X3207Y11564D01*
X3216Y11583D01*
X3226Y11592D01*
X3245Y11602D01*
X3292Y11602D01*
X3311Y11592D01*
X3321Y11583D01*
X3330Y11564D01*
X3330Y11516D01*
X3321Y11497D01*
X3311Y11488D01*
X1730Y11107D02*
X1530Y11107D01*
X1530Y11154D01*
X1540Y11183D01*
X1559Y11202D01*
X1578Y11211D01*
X1616Y11221D01*
X1645Y11221D01*
X1683Y11211D01*
X1702Y11202D01*
X1721Y11183D01*
X1730Y11154D01*
X1730Y11107D01*
X1730Y11411D02*
X1730Y11297D01*
X1730Y11354D02*
X1530Y11354D01*
X1559Y11335D01*
X1578Y11316D01*
X1588Y11297D01*
X1530Y11535D02*
X1530Y11554D01*
X1540Y11573D01*
X1550Y11583D01*
X1569Y11592D01*
X1607Y11602D01*
X1654Y11602D01*
X1692Y11592D01*
X1711Y11583D01*
X1721Y11573D01*
X1730Y11554D01*
X1730Y11535D01*
X1721Y11516D01*
X1711Y11507D01*
X1692Y11497D01*
X1654Y11488D01*
X1607Y11488D01*
X1569Y11497D01*
X1550Y11507D01*
X1540Y11516D01*
X1530Y11535D01*
X1730Y1102D02*
X1530Y1102D01*
X1530Y1150D01*
X1540Y1178D01*
X1559Y1197D01*
X1578Y1207D01*
X1616Y1216D01*
X1645Y1216D01*
X1683Y1207D01*
X1702Y1197D01*
X1721Y1178D01*
X1730Y1150D01*
X1730Y1102D01*
X1530Y1388D02*
X1530Y1350D01*
X1540Y1330D01*
X1550Y1321D01*
X1578Y1302D01*
X1616Y1292D01*
X1692Y1292D01*
X1711Y1302D01*
X1721Y1311D01*
X1730Y1330D01*
X1730Y1369D01*
X1721Y1388D01*
X1711Y1397D01*
X1692Y1407D01*
X1645Y1407D01*
X1626Y1397D01*
X1616Y1388D01*
X1607Y1369D01*
X1607Y1330D01*
X1616Y1311D01*
X1626Y1302D01*
X1645Y1292D01*
X130Y11102D02*
X-69Y11102D01*
X-69Y11150D01*
X-59Y11178D01*
X-40Y11197D01*
X-21Y11207D01*
X16Y11216D01*
X45Y11216D01*
X83Y11207D01*
X102Y11197D01*
X121Y11178D01*
X130Y11150D01*
X130Y11102D01*
X-69Y11397D02*
X-69Y11302D01*
X26Y11292D01*
X16Y11302D01*
X7Y11321D01*
X7Y11369D01*
X16Y11388D01*
X26Y11397D01*
X45Y11407D01*
X92Y11407D01*
X111Y11397D01*
X121Y11388D01*
X130Y11369D01*
X130Y11321D01*
X121Y11302D01*
X111Y11292D01*
X130Y1102D02*
X-69Y1102D01*
X-69Y1150D01*
X-59Y1178D01*
X-40Y1197D01*
X-21Y1207D01*
X16Y1216D01*
X45Y1216D01*
X83Y1207D01*
X102Y1197D01*
X121Y1178D01*
X130Y1150D01*
X130Y1102D01*
X130Y1407D02*
X130Y1292D01*
X130Y1350D02*
X-69Y1350D01*
X-40Y1330D01*
X-21Y1311D01*
X-11Y1292D01*
X11330Y1007D02*
X11130Y1007D01*
X11130Y1054D01*
X11140Y1083D01*
X11159Y1102D01*
X11178Y1111D01*
X11216Y1121D01*
X11245Y1121D01*
X11283Y1111D01*
X11302Y1102D01*
X11321Y1083D01*
X11330Y1054D01*
X11330Y1007D01*
X11130Y1188D02*
X11130Y1311D01*
X11207Y1245D01*
X11207Y1273D01*
X11216Y1292D01*
X11226Y1302D01*
X11245Y1311D01*
X11292Y1311D01*
X11311Y1302D01*
X11321Y1292D01*
X11330Y1273D01*
X11330Y1216D01*
X11321Y1197D01*
X11311Y1188D01*
X11130Y1483D02*
X11130Y1445D01*
X11140Y1426D01*
X11150Y1416D01*
X11178Y1397D01*
X11216Y1388D01*
X11292Y1388D01*
X11311Y1397D01*
X11321Y1407D01*
X11330Y1426D01*
X11330Y1464D01*
X11321Y1483D01*
X11311Y1492D01*
X11292Y1502D01*
X11245Y1502D01*
X11226Y1492D01*
X11216Y1483D01*
X11207Y1464D01*
X11207Y1426D01*
X11216Y1407D01*
X11226Y1397D01*
X11245Y1388D01*
X9730Y1007D02*
X9530Y1007D01*
X9530Y1054D01*
X9540Y1083D01*
X9559Y1102D01*
X9578Y1111D01*
X9616Y1121D01*
X9645Y1121D01*
X9683Y1111D01*
X9702Y1102D01*
X9721Y1083D01*
X9730Y1054D01*
X9730Y1007D01*
X9530Y1188D02*
X9530Y1311D01*
X9607Y1245D01*
X9607Y1273D01*
X9616Y1292D01*
X9626Y1302D01*
X9645Y1311D01*
X9692Y1311D01*
X9711Y1302D01*
X9721Y1292D01*
X9730Y1273D01*
X9730Y1216D01*
X9721Y1197D01*
X9711Y1188D01*
X9730Y1502D02*
X9730Y1388D01*
X9730Y1445D02*
X9530Y1445D01*
X9559Y1426D01*
X9578Y1407D01*
X9588Y1388D01*
X8080Y11107D02*
X7880Y11107D01*
X7880Y11154D01*
X7890Y11183D01*
X7909Y11202D01*
X7928Y11211D01*
X7966Y11221D01*
X7995Y11221D01*
X8033Y11211D01*
X8052Y11202D01*
X8071Y11183D01*
X8080Y11154D01*
X8080Y11107D01*
X7880Y11288D02*
X7880Y11411D01*
X7957Y11345D01*
X7957Y11373D01*
X7966Y11392D01*
X7976Y11402D01*
X7995Y11411D01*
X8042Y11411D01*
X8061Y11402D01*
X8071Y11392D01*
X8080Y11373D01*
X8080Y11316D01*
X8071Y11297D01*
X8061Y11288D01*
X7880Y11535D02*
X7880Y11554D01*
X7890Y11573D01*
X7900Y11583D01*
X7919Y11592D01*
X7957Y11602D01*
X8004Y11602D01*
X8042Y11592D01*
X8061Y11583D01*
X8071Y11573D01*
X8080Y11554D01*
X8080Y11535D01*
X8071Y11516D01*
X8061Y11507D01*
X8042Y11497D01*
X8004Y11488D01*
X7957Y11488D01*
X7919Y11497D01*
X7900Y11507D01*
X7890Y11516D01*
X7880Y11535D01*
X8130Y1007D02*
X7930Y1007D01*
X7930Y1054D01*
X7940Y1083D01*
X7959Y1102D01*
X7978Y1111D01*
X8016Y1121D01*
X8045Y1121D01*
X8083Y1111D01*
X8102Y1102D01*
X8121Y1083D01*
X8130Y1054D01*
X8130Y1007D01*
X7950Y1197D02*
X7940Y1207D01*
X7930Y1226D01*
X7930Y1273D01*
X7940Y1292D01*
X7950Y1302D01*
X7969Y1311D01*
X7988Y1311D01*
X8016Y1302D01*
X8130Y1188D01*
X8130Y1311D01*
X7930Y1483D02*
X7930Y1445D01*
X7940Y1426D01*
X7950Y1416D01*
X7978Y1397D01*
X8016Y1388D01*
X8092Y1388D01*
X8111Y1397D01*
X8121Y1407D01*
X8130Y1426D01*
X8130Y1464D01*
X8121Y1483D01*
X8111Y1492D01*
X8092Y1502D01*
X8045Y1502D01*
X8026Y1492D01*
X8016Y1483D01*
X8007Y1464D01*
X8007Y1426D01*
X8016Y1407D01*
X8026Y1397D01*
X8045Y1388D01*
X6530Y11107D02*
X6330Y11107D01*
X6330Y11154D01*
X6340Y11183D01*
X6359Y11202D01*
X6378Y11211D01*
X6416Y11221D01*
X6445Y11221D01*
X6483Y11211D01*
X6502Y11202D01*
X6521Y11183D01*
X6530Y11154D01*
X6530Y11107D01*
X6350Y11297D02*
X6340Y11307D01*
X6330Y11326D01*
X6330Y11373D01*
X6340Y11392D01*
X6350Y11402D01*
X6369Y11411D01*
X6388Y11411D01*
X6416Y11402D01*
X6530Y11288D01*
X6530Y11411D01*
X6330Y11592D02*
X6330Y11497D01*
X6426Y11488D01*
X6416Y11497D01*
X6407Y11516D01*
X6407Y11564D01*
X6416Y11583D01*
X6426Y11592D01*
X6445Y11602D01*
X6492Y11602D01*
X6511Y11592D01*
X6521Y11583D01*
X6530Y11564D01*
X6530Y11516D01*
X6521Y11497D01*
X6511Y11488D01*
X29830Y12157D02*
X29630Y12157D01*
X29630Y12204D01*
X29640Y12233D01*
X29659Y12252D01*
X29678Y12261D01*
X29716Y12271D01*
X29745Y12271D01*
X29783Y12261D01*
X29802Y12252D01*
X29821Y12233D01*
X29830Y12204D01*
X29830Y12157D01*
X29697Y12442D02*
X29830Y12442D01*
X29621Y12395D02*
X29764Y12347D01*
X29764Y12471D01*
X29830Y12652D02*
X29830Y12538D01*
X29830Y12595D02*
X29630Y12595D01*
X29659Y12576D01*
X29678Y12557D01*
X29688Y12538D01*
G54D10*
X29421Y12200D02*
X29278Y12100D01*
X29421Y12028D02*
X29121Y12028D01*
X29121Y12142D01*
X29135Y12171D01*
X29150Y12185D01*
X29178Y12200D01*
X29221Y12200D01*
X29250Y12185D01*
X29264Y12171D01*
X29278Y12142D01*
X29278Y12028D01*
X29121Y12300D02*
X29421Y12500D01*
X29121Y12500D02*
X29421Y12300D01*
X29421Y12614D02*
X29121Y12614D01*
X29121Y12685D01*
X29135Y12728D01*
X29164Y12757D01*
X29192Y12771D01*
X29250Y12785D01*
X29292Y12785D01*
X29350Y12771D01*
X29378Y12757D01*
X29407Y12728D01*
X29421Y12685D01*
X29421Y12614D01*
M02*
