G04 (created by PCBNEW (2012-11-15 BZR 3804)-stable) date Thu 14 Feb 2013 01:13:19 CST*
%MOIN*%
G04 Gerber Fmt 3.4, Leading zero omitted, Abs format*
%FSLAX34Y34*%
G01*
G70*
G90*
G04 APERTURE LIST*
%ADD10C,0.006*%
%ADD11C,0.007*%
%ADD12C,0.01*%
%ADD13C,0.00590551*%
%ADD14C,0.008*%
G04 APERTURE END LIST*
G54D10*
X-38750Y36250D02*
X63250Y36250D01*
X63250Y-40750D01*
X-38750Y-40750D01*
X-38750Y36250D01*
X-38050Y35550D02*
X62550Y35550D01*
X62550Y-40050D01*
X-38050Y-40050D01*
X-38050Y35550D01*
X-18350Y36250D02*
X-18350Y35550D01*
X-28407Y35697D02*
X-28692Y35697D01*
X-28550Y35697D02*
X-28550Y36197D01*
X-28597Y36126D01*
X-28645Y36078D01*
X-28692Y36054D01*
X-18350Y-40750D02*
X-18350Y-40050D01*
X-28407Y-40602D02*
X-28692Y-40602D01*
X-28550Y-40602D02*
X-28550Y-40102D01*
X-28597Y-40173D01*
X-28645Y-40221D01*
X-28692Y-40245D01*
X2050Y36250D02*
X2050Y35550D01*
X-8292Y36150D02*
X-8269Y36173D01*
X-8221Y36197D01*
X-8102Y36197D01*
X-8054Y36173D01*
X-8030Y36150D01*
X-8007Y36102D01*
X-8007Y36054D01*
X-8030Y35983D01*
X-8316Y35697D01*
X-8007Y35697D01*
X2050Y-40750D02*
X2050Y-40050D01*
X-8292Y-40150D02*
X-8269Y-40126D01*
X-8221Y-40102D01*
X-8102Y-40102D01*
X-8054Y-40126D01*
X-8030Y-40150D01*
X-8007Y-40197D01*
X-8007Y-40245D01*
X-8030Y-40316D01*
X-8316Y-40602D01*
X-8007Y-40602D01*
X22450Y36250D02*
X22450Y35550D01*
X12083Y36197D02*
X12392Y36197D01*
X12226Y36007D01*
X12297Y36007D01*
X12345Y35983D01*
X12369Y35959D01*
X12392Y35911D01*
X12392Y35792D01*
X12369Y35745D01*
X12345Y35721D01*
X12297Y35697D01*
X12154Y35697D01*
X12107Y35721D01*
X12083Y35745D01*
X22450Y-40750D02*
X22450Y-40050D01*
X12083Y-40102D02*
X12392Y-40102D01*
X12226Y-40292D01*
X12297Y-40292D01*
X12345Y-40316D01*
X12369Y-40340D01*
X12392Y-40388D01*
X12392Y-40507D01*
X12369Y-40554D01*
X12345Y-40578D01*
X12297Y-40602D01*
X12154Y-40602D01*
X12107Y-40578D01*
X12083Y-40554D01*
X42850Y36250D02*
X42850Y35550D01*
X32745Y36030D02*
X32745Y35697D01*
X32626Y36221D02*
X32507Y35864D01*
X32816Y35864D01*
X42850Y-40750D02*
X42850Y-40050D01*
X32745Y-40269D02*
X32745Y-40602D01*
X32626Y-40078D02*
X32507Y-40435D01*
X32816Y-40435D01*
X53169Y36197D02*
X52930Y36197D01*
X52907Y35959D01*
X52930Y35983D01*
X52978Y36007D01*
X53097Y36007D01*
X53145Y35983D01*
X53169Y35959D01*
X53192Y35911D01*
X53192Y35792D01*
X53169Y35745D01*
X53145Y35721D01*
X53097Y35697D01*
X52978Y35697D01*
X52930Y35721D01*
X52907Y35745D01*
X53169Y-40102D02*
X52930Y-40102D01*
X52907Y-40340D01*
X52930Y-40316D01*
X52978Y-40292D01*
X53097Y-40292D01*
X53145Y-40316D01*
X53169Y-40340D01*
X53192Y-40388D01*
X53192Y-40507D01*
X53169Y-40554D01*
X53145Y-40578D01*
X53097Y-40602D01*
X52978Y-40602D01*
X52930Y-40578D01*
X52907Y-40554D01*
X-38750Y10590D02*
X-38050Y10590D01*
X-38519Y23360D02*
X-38280Y23360D01*
X-38566Y23217D02*
X-38399Y23717D01*
X-38233Y23217D01*
X63250Y10590D02*
X62550Y10590D01*
X62780Y23360D02*
X63019Y23360D01*
X62733Y23217D02*
X62900Y23717D01*
X63066Y23217D01*
X-38750Y-15070D02*
X-38050Y-15070D01*
X-38364Y-2180D02*
X-38292Y-2204D01*
X-38269Y-2228D01*
X-38245Y-2275D01*
X-38245Y-2347D01*
X-38269Y-2394D01*
X-38292Y-2418D01*
X-38340Y-2442D01*
X-38530Y-2442D01*
X-38530Y-1942D01*
X-38364Y-1942D01*
X-38316Y-1966D01*
X-38292Y-1990D01*
X-38269Y-2037D01*
X-38269Y-2085D01*
X-38292Y-2132D01*
X-38316Y-2156D01*
X-38364Y-2180D01*
X-38530Y-2180D01*
X63250Y-15070D02*
X62550Y-15070D01*
X62935Y-2180D02*
X63007Y-2204D01*
X63030Y-2228D01*
X63054Y-2275D01*
X63054Y-2347D01*
X63030Y-2394D01*
X63007Y-2418D01*
X62959Y-2442D01*
X62769Y-2442D01*
X62769Y-1942D01*
X62935Y-1942D01*
X62983Y-1966D01*
X63007Y-1990D01*
X63030Y-2037D01*
X63030Y-2085D01*
X63007Y-2132D01*
X62983Y-2156D01*
X62935Y-2180D01*
X62769Y-2180D01*
X-38245Y-28054D02*
X-38269Y-28078D01*
X-38340Y-28102D01*
X-38388Y-28102D01*
X-38459Y-28078D01*
X-38507Y-28030D01*
X-38530Y-27983D01*
X-38554Y-27888D01*
X-38554Y-27816D01*
X-38530Y-27721D01*
X-38507Y-27673D01*
X-38459Y-27626D01*
X-38388Y-27602D01*
X-38340Y-27602D01*
X-38269Y-27626D01*
X-38245Y-27650D01*
X63054Y-28054D02*
X63030Y-28078D01*
X62959Y-28102D01*
X62911Y-28102D01*
X62840Y-28078D01*
X62792Y-28030D01*
X62769Y-27983D01*
X62745Y-27888D01*
X62745Y-27816D01*
X62769Y-27721D01*
X62792Y-27673D01*
X62840Y-27626D01*
X62911Y-27602D01*
X62959Y-27602D01*
X63030Y-27626D01*
X63054Y-27650D01*
X29700Y-38492D02*
X29775Y-37892D01*
X29917Y-37892D01*
X30000Y-37921D01*
X30050Y-37978D01*
X30071Y-38035D01*
X30085Y-38150D01*
X30075Y-38235D01*
X30032Y-38350D01*
X29996Y-38407D01*
X29932Y-38464D01*
X29842Y-38492D01*
X29700Y-38492D01*
X30557Y-38492D02*
X30596Y-38178D01*
X30575Y-38121D01*
X30521Y-38092D01*
X30407Y-38092D01*
X30346Y-38121D01*
X30560Y-38464D02*
X30500Y-38492D01*
X30357Y-38492D01*
X30303Y-38464D01*
X30282Y-38407D01*
X30289Y-38350D01*
X30325Y-38292D01*
X30385Y-38264D01*
X30528Y-38264D01*
X30589Y-38235D01*
X30807Y-38092D02*
X31035Y-38092D01*
X30917Y-37892D02*
X30853Y-38407D01*
X30875Y-38464D01*
X30928Y-38492D01*
X30985Y-38492D01*
X31417Y-38464D02*
X31357Y-38492D01*
X31242Y-38492D01*
X31189Y-38464D01*
X31167Y-38407D01*
X31196Y-38178D01*
X31232Y-38121D01*
X31292Y-38092D01*
X31407Y-38092D01*
X31460Y-38121D01*
X31482Y-38178D01*
X31475Y-38235D01*
X31182Y-38292D01*
X31707Y-38435D02*
X31732Y-38464D01*
X31700Y-38492D01*
X31675Y-38464D01*
X31707Y-38435D01*
X31700Y-38492D01*
X31746Y-38121D02*
X31771Y-38150D01*
X31739Y-38178D01*
X31714Y-38150D01*
X31746Y-38121D01*
X31739Y-38178D01*
X32757Y-38492D02*
X32414Y-38492D01*
X32585Y-38492D02*
X32660Y-37892D01*
X32592Y-37978D01*
X32528Y-38035D01*
X32467Y-38064D01*
X33321Y-38092D02*
X33271Y-38492D01*
X33207Y-37864D02*
X33010Y-38292D01*
X33382Y-38292D01*
X34007Y-38092D02*
X34235Y-38092D01*
X34042Y-38492D02*
X34107Y-37978D01*
X34142Y-37921D01*
X34203Y-37892D01*
X34260Y-37892D01*
X34617Y-38464D02*
X34557Y-38492D01*
X34442Y-38492D01*
X34389Y-38464D01*
X34367Y-38407D01*
X34396Y-38178D01*
X34432Y-38121D01*
X34492Y-38092D01*
X34607Y-38092D01*
X34660Y-38121D01*
X34682Y-38178D01*
X34675Y-38235D01*
X34382Y-38292D01*
X34900Y-38492D02*
X34975Y-37892D01*
X34946Y-38121D02*
X35007Y-38092D01*
X35121Y-38092D01*
X35175Y-38121D01*
X35200Y-38150D01*
X35221Y-38207D01*
X35200Y-38378D01*
X35164Y-38435D01*
X35132Y-38464D01*
X35071Y-38492D01*
X34957Y-38492D01*
X34903Y-38464D01*
X35939Y-37950D02*
X35971Y-37921D01*
X36032Y-37892D01*
X36175Y-37892D01*
X36228Y-37921D01*
X36253Y-37950D01*
X36275Y-38007D01*
X36267Y-38064D01*
X36228Y-38150D01*
X35842Y-38492D01*
X36214Y-38492D01*
X36660Y-37892D02*
X36717Y-37892D01*
X36771Y-37921D01*
X36796Y-37950D01*
X36817Y-38007D01*
X36832Y-38121D01*
X36814Y-38264D01*
X36771Y-38378D01*
X36735Y-38435D01*
X36703Y-38464D01*
X36642Y-38492D01*
X36585Y-38492D01*
X36532Y-38464D01*
X36507Y-38435D01*
X36485Y-38378D01*
X36471Y-38264D01*
X36489Y-38121D01*
X36532Y-38007D01*
X36567Y-37950D01*
X36600Y-37921D01*
X36660Y-37892D01*
X37357Y-38492D02*
X37014Y-38492D01*
X37185Y-38492D02*
X37260Y-37892D01*
X37192Y-37978D01*
X37128Y-38035D01*
X37067Y-38064D01*
X37632Y-37892D02*
X38003Y-37892D01*
X37775Y-38121D01*
X37860Y-38121D01*
X37914Y-38150D01*
X37939Y-38178D01*
X37960Y-38235D01*
X37942Y-38378D01*
X37907Y-38435D01*
X37875Y-38464D01*
X37814Y-38492D01*
X37642Y-38492D01*
X37589Y-38464D01*
X37564Y-38435D01*
X21292Y-39692D02*
X21292Y-39092D01*
X21635Y-39692D02*
X21378Y-39350D01*
X21635Y-39092D02*
X21292Y-39435D01*
X21892Y-39692D02*
X21892Y-39292D01*
X21892Y-39092D02*
X21864Y-39121D01*
X21892Y-39150D01*
X21921Y-39121D01*
X21892Y-39092D01*
X21892Y-39150D01*
X22521Y-39635D02*
X22492Y-39664D01*
X22407Y-39692D01*
X22350Y-39692D01*
X22264Y-39664D01*
X22207Y-39607D01*
X22178Y-39550D01*
X22150Y-39435D01*
X22150Y-39350D01*
X22178Y-39235D01*
X22207Y-39178D01*
X22264Y-39121D01*
X22350Y-39092D01*
X22407Y-39092D01*
X22492Y-39121D01*
X22521Y-39150D01*
X23035Y-39692D02*
X23035Y-39378D01*
X23007Y-39321D01*
X22950Y-39292D01*
X22835Y-39292D01*
X22778Y-39321D01*
X23035Y-39664D02*
X22978Y-39692D01*
X22835Y-39692D01*
X22778Y-39664D01*
X22750Y-39607D01*
X22750Y-39550D01*
X22778Y-39492D01*
X22835Y-39464D01*
X22978Y-39464D01*
X23035Y-39435D01*
X23578Y-39692D02*
X23578Y-39092D01*
X23578Y-39664D02*
X23521Y-39692D01*
X23407Y-39692D01*
X23350Y-39664D01*
X23321Y-39635D01*
X23292Y-39578D01*
X23292Y-39407D01*
X23321Y-39350D01*
X23350Y-39321D01*
X23407Y-39292D01*
X23521Y-39292D01*
X23578Y-39321D01*
X24321Y-39378D02*
X24521Y-39378D01*
X24607Y-39692D02*
X24321Y-39692D01*
X24321Y-39092D01*
X24607Y-39092D01*
X24864Y-39635D02*
X24892Y-39664D01*
X24864Y-39692D01*
X24835Y-39664D01*
X24864Y-39635D01*
X24864Y-39692D01*
X25149Y-39692D02*
X25149Y-39092D01*
X25292Y-39092D01*
X25378Y-39121D01*
X25435Y-39178D01*
X25464Y-39235D01*
X25492Y-39350D01*
X25492Y-39435D01*
X25464Y-39550D01*
X25435Y-39607D01*
X25378Y-39664D01*
X25292Y-39692D01*
X25149Y-39692D01*
X25749Y-39635D02*
X25778Y-39664D01*
X25749Y-39692D01*
X25721Y-39664D01*
X25749Y-39635D01*
X25749Y-39692D01*
X26007Y-39521D02*
X26292Y-39521D01*
X25949Y-39692D02*
X26149Y-39092D01*
X26349Y-39692D01*
X26549Y-39635D02*
X26578Y-39664D01*
X26549Y-39692D01*
X26521Y-39664D01*
X26549Y-39635D01*
X26549Y-39692D01*
X54842Y-38492D02*
X54678Y-38207D01*
X54500Y-38492D02*
X54575Y-37892D01*
X54803Y-37892D01*
X54857Y-37921D01*
X54882Y-37950D01*
X54903Y-38007D01*
X54892Y-38092D01*
X54857Y-38150D01*
X54825Y-38178D01*
X54764Y-38207D01*
X54535Y-38207D01*
X55332Y-38464D02*
X55271Y-38492D01*
X55157Y-38492D01*
X55103Y-38464D01*
X55082Y-38407D01*
X55110Y-38178D01*
X55146Y-38121D01*
X55207Y-38092D01*
X55321Y-38092D01*
X55375Y-38121D01*
X55396Y-38178D01*
X55389Y-38235D01*
X55096Y-38292D01*
X55607Y-38092D02*
X55700Y-38492D01*
X55892Y-38092D01*
X56078Y-38435D02*
X56103Y-38464D01*
X56071Y-38492D01*
X56046Y-38464D01*
X56078Y-38435D01*
X56071Y-38492D01*
X56117Y-38121D02*
X56142Y-38150D01*
X56110Y-38178D01*
X56085Y-38150D01*
X56117Y-38121D01*
X56110Y-38178D01*
X56814Y-38492D02*
X56889Y-37892D01*
X57117Y-37892D01*
X57171Y-37921D01*
X57196Y-37950D01*
X57217Y-38007D01*
X57207Y-38092D01*
X57171Y-38150D01*
X57139Y-38178D01*
X57078Y-38207D01*
X56850Y-38207D01*
X57728Y-38492D02*
X57385Y-38492D01*
X57557Y-38492D02*
X57632Y-37892D01*
X57564Y-37978D01*
X57500Y-38035D01*
X57439Y-38064D01*
X21264Y-38464D02*
X21350Y-38492D01*
X21492Y-38492D01*
X21550Y-38464D01*
X21578Y-38435D01*
X21607Y-38378D01*
X21607Y-38321D01*
X21578Y-38264D01*
X21550Y-38235D01*
X21492Y-38207D01*
X21378Y-38178D01*
X21321Y-38150D01*
X21292Y-38121D01*
X21264Y-38064D01*
X21264Y-38007D01*
X21292Y-37950D01*
X21321Y-37921D01*
X21378Y-37892D01*
X21521Y-37892D01*
X21607Y-37921D01*
X21864Y-38492D02*
X21864Y-38092D01*
X21864Y-37892D02*
X21835Y-37921D01*
X21864Y-37950D01*
X21892Y-37921D01*
X21864Y-37892D01*
X21864Y-37950D01*
X22092Y-38092D02*
X22407Y-38092D01*
X22092Y-38492D01*
X22407Y-38492D01*
X22864Y-38464D02*
X22807Y-38492D01*
X22692Y-38492D01*
X22635Y-38464D01*
X22607Y-38407D01*
X22607Y-38178D01*
X22635Y-38121D01*
X22692Y-38092D01*
X22807Y-38092D01*
X22864Y-38121D01*
X22892Y-38178D01*
X22892Y-38235D01*
X22607Y-38292D01*
X23150Y-38435D02*
X23178Y-38464D01*
X23150Y-38492D01*
X23121Y-38464D01*
X23150Y-38435D01*
X23150Y-38492D01*
X23150Y-38121D02*
X23178Y-38150D01*
X23150Y-38178D01*
X23121Y-38150D01*
X23150Y-38121D01*
X23150Y-38178D01*
X23864Y-38321D02*
X24150Y-38321D01*
X23807Y-38492D02*
X24007Y-37892D01*
X24207Y-38492D01*
X54492Y-39692D02*
X54492Y-39092D01*
X55035Y-39692D02*
X55035Y-39092D01*
X55035Y-39664D02*
X54978Y-39692D01*
X54864Y-39692D01*
X54807Y-39664D01*
X54778Y-39635D01*
X54750Y-39578D01*
X54750Y-39407D01*
X54778Y-39350D01*
X54807Y-39321D01*
X54864Y-39292D01*
X54978Y-39292D01*
X55035Y-39321D01*
X55321Y-39635D02*
X55350Y-39664D01*
X55321Y-39692D01*
X55292Y-39664D01*
X55321Y-39635D01*
X55321Y-39692D01*
X55321Y-39321D02*
X55350Y-39350D01*
X55321Y-39378D01*
X55292Y-39350D01*
X55321Y-39321D01*
X55321Y-39378D01*
X56378Y-39692D02*
X56035Y-39692D01*
X56207Y-39692D02*
X56207Y-39092D01*
X56149Y-39178D01*
X56092Y-39235D01*
X56035Y-39264D01*
X57064Y-39064D02*
X56550Y-39835D01*
X57578Y-39692D02*
X57235Y-39692D01*
X57407Y-39692D02*
X57407Y-39092D01*
X57349Y-39178D01*
X57292Y-39235D01*
X57235Y-39264D01*
X21289Y-36692D02*
X21632Y-36692D01*
X21385Y-37292D02*
X21460Y-36692D01*
X21757Y-37292D02*
X21807Y-36892D01*
X21832Y-36692D02*
X21800Y-36721D01*
X21825Y-36750D01*
X21857Y-36721D01*
X21832Y-36692D01*
X21825Y-36750D01*
X22007Y-36892D02*
X22235Y-36892D01*
X22117Y-36692D02*
X22053Y-37207D01*
X22075Y-37264D01*
X22128Y-37292D01*
X22185Y-37292D01*
X22471Y-37292D02*
X22417Y-37264D01*
X22396Y-37207D01*
X22460Y-36692D01*
X22932Y-37264D02*
X22871Y-37292D01*
X22757Y-37292D01*
X22703Y-37264D01*
X22682Y-37207D01*
X22710Y-36978D01*
X22746Y-36921D01*
X22807Y-36892D01*
X22921Y-36892D01*
X22975Y-36921D01*
X22996Y-36978D01*
X22989Y-37035D01*
X22696Y-37092D01*
X23221Y-37235D02*
X23246Y-37264D01*
X23214Y-37292D01*
X23189Y-37264D01*
X23221Y-37235D01*
X23214Y-37292D01*
X23260Y-36921D02*
X23285Y-36950D01*
X23253Y-36978D01*
X23228Y-36950D01*
X23260Y-36921D01*
X23253Y-36978D01*
X24196Y-36978D02*
X24278Y-37007D01*
X24303Y-37035D01*
X24325Y-37092D01*
X24314Y-37178D01*
X24278Y-37235D01*
X24246Y-37264D01*
X24185Y-37292D01*
X23957Y-37292D01*
X24032Y-36692D01*
X24232Y-36692D01*
X24285Y-36721D01*
X24310Y-36750D01*
X24332Y-36807D01*
X24325Y-36864D01*
X24289Y-36921D01*
X24257Y-36950D01*
X24196Y-36978D01*
X23996Y-36978D01*
X24746Y-36692D02*
X24860Y-36692D01*
X24914Y-36721D01*
X24964Y-36778D01*
X24978Y-36892D01*
X24953Y-37092D01*
X24910Y-37207D01*
X24846Y-37264D01*
X24785Y-37292D01*
X24671Y-37292D01*
X24617Y-37264D01*
X24567Y-37207D01*
X24553Y-37092D01*
X24578Y-36892D01*
X24621Y-36778D01*
X24685Y-36721D01*
X24746Y-36692D01*
X25178Y-37121D02*
X25464Y-37121D01*
X25100Y-37292D02*
X25375Y-36692D01*
X25500Y-37292D01*
X26042Y-37292D02*
X25878Y-37007D01*
X25700Y-37292D02*
X25775Y-36692D01*
X26003Y-36692D01*
X26057Y-36721D01*
X26082Y-36750D01*
X26103Y-36807D01*
X26092Y-36892D01*
X26057Y-36950D01*
X26025Y-36978D01*
X25964Y-37007D01*
X25735Y-37007D01*
X26300Y-37292D02*
X26375Y-36692D01*
X26517Y-36692D01*
X26600Y-36721D01*
X26650Y-36778D01*
X26671Y-36835D01*
X26685Y-36950D01*
X26675Y-37035D01*
X26632Y-37150D01*
X26596Y-37207D01*
X26532Y-37264D01*
X26442Y-37292D01*
X26300Y-37292D01*
X26932Y-37264D02*
X26928Y-37292D01*
X26892Y-37350D01*
X26860Y-37378D01*
X27642Y-37292D02*
X27717Y-36692D01*
X27946Y-36692D01*
X27999Y-36721D01*
X28025Y-36750D01*
X28046Y-36807D01*
X28035Y-36892D01*
X28000Y-36950D01*
X27967Y-36978D01*
X27907Y-37007D01*
X27678Y-37007D01*
X28592Y-37235D02*
X28560Y-37264D01*
X28471Y-37292D01*
X28414Y-37292D01*
X28332Y-37264D01*
X28282Y-37207D01*
X28260Y-37150D01*
X28246Y-37035D01*
X28257Y-36950D01*
X28300Y-36835D01*
X28335Y-36778D01*
X28399Y-36721D01*
X28489Y-36692D01*
X28546Y-36692D01*
X28628Y-36721D01*
X28653Y-36750D01*
X28875Y-37264D02*
X28871Y-37292D01*
X28835Y-37350D01*
X28803Y-37378D01*
X29575Y-36692D02*
X29917Y-36692D01*
X29671Y-37292D02*
X29746Y-36692D01*
X30042Y-37292D02*
X30117Y-36692D01*
X30082Y-36978D02*
X30425Y-36978D01*
X30385Y-37292D02*
X30460Y-36692D01*
X30860Y-36692D02*
X30975Y-36692D01*
X31028Y-36721D01*
X31078Y-36778D01*
X31092Y-36892D01*
X31067Y-37092D01*
X31024Y-37207D01*
X30960Y-37264D01*
X30900Y-37292D01*
X30785Y-37292D01*
X30732Y-37264D01*
X30682Y-37207D01*
X30667Y-37092D01*
X30692Y-36892D01*
X30735Y-36778D01*
X30799Y-36721D01*
X30860Y-36692D01*
X31289Y-36692D02*
X31632Y-36692D01*
X31385Y-37292D02*
X31460Y-36692D01*
X31757Y-37292D02*
X31832Y-36692D01*
X32099Y-37292D02*
X31885Y-36950D01*
X32174Y-36692D02*
X31789Y-37035D01*
X32546Y-36692D02*
X32660Y-36692D01*
X32714Y-36721D01*
X32764Y-36778D01*
X32778Y-36892D01*
X32753Y-37092D01*
X32710Y-37207D01*
X32646Y-37264D01*
X32585Y-37292D01*
X32471Y-37292D01*
X32417Y-37264D01*
X32367Y-37207D01*
X32353Y-37092D01*
X32378Y-36892D01*
X32421Y-36778D01*
X32485Y-36721D01*
X32546Y-36692D01*
X32985Y-37292D02*
X33060Y-36692D01*
X33328Y-37292D01*
X33403Y-36692D01*
X34260Y-36692D02*
X34374Y-36692D01*
X34428Y-36721D01*
X34478Y-36778D01*
X34492Y-36892D01*
X34467Y-37092D01*
X34424Y-37207D01*
X34360Y-37264D01*
X34299Y-37292D01*
X34185Y-37292D01*
X34132Y-37264D01*
X34082Y-37207D01*
X34067Y-37092D01*
X34092Y-36892D01*
X34135Y-36778D01*
X34199Y-36721D01*
X34260Y-36692D01*
X34717Y-36692D02*
X35042Y-37292D01*
X35117Y-36692D02*
X34642Y-37292D01*
X35578Y-36892D02*
X35528Y-37292D01*
X35464Y-36664D02*
X35267Y-37092D01*
X35639Y-37092D01*
X21492Y-34578D02*
X21292Y-34578D01*
X21292Y-34892D02*
X21292Y-34292D01*
X21578Y-34292D01*
X21807Y-34892D02*
X21807Y-34492D01*
X21807Y-34292D02*
X21778Y-34321D01*
X21807Y-34350D01*
X21835Y-34321D01*
X21807Y-34292D01*
X21807Y-34350D01*
X22178Y-34892D02*
X22121Y-34864D01*
X22092Y-34807D01*
X22092Y-34292D01*
X22635Y-34864D02*
X22578Y-34892D01*
X22464Y-34892D01*
X22407Y-34864D01*
X22378Y-34807D01*
X22378Y-34578D01*
X22407Y-34521D01*
X22464Y-34492D01*
X22578Y-34492D01*
X22635Y-34521D01*
X22664Y-34578D01*
X22664Y-34635D01*
X22378Y-34692D01*
X22921Y-34835D02*
X22950Y-34864D01*
X22921Y-34892D01*
X22892Y-34864D01*
X22921Y-34835D01*
X22921Y-34892D01*
X22921Y-34521D02*
X22950Y-34550D01*
X22921Y-34578D01*
X22892Y-34550D01*
X22921Y-34521D01*
X22921Y-34578D01*
X23578Y-34492D02*
X23807Y-34492D01*
X23664Y-34292D02*
X23664Y-34807D01*
X23692Y-34864D01*
X23750Y-34892D01*
X23807Y-34892D01*
X24007Y-34892D02*
X24007Y-34292D01*
X24264Y-34892D02*
X24264Y-34578D01*
X24235Y-34521D01*
X24178Y-34492D01*
X24092Y-34492D01*
X24035Y-34521D01*
X24007Y-34550D01*
X24635Y-34892D02*
X24578Y-34864D01*
X24550Y-34835D01*
X24521Y-34778D01*
X24521Y-34607D01*
X24550Y-34550D01*
X24578Y-34521D01*
X24635Y-34492D01*
X24721Y-34492D01*
X24778Y-34521D01*
X24807Y-34550D01*
X24835Y-34607D01*
X24835Y-34778D01*
X24807Y-34835D01*
X24778Y-34864D01*
X24721Y-34892D01*
X24635Y-34892D01*
X25007Y-34492D02*
X25235Y-34492D01*
X25092Y-34292D02*
X25092Y-34807D01*
X25121Y-34864D01*
X25178Y-34892D01*
X25235Y-34892D01*
X25692Y-34864D02*
X25635Y-34892D01*
X25521Y-34892D01*
X25464Y-34864D01*
X25435Y-34835D01*
X25407Y-34778D01*
X25407Y-34607D01*
X25435Y-34550D01*
X25464Y-34521D01*
X25521Y-34492D01*
X25635Y-34492D01*
X25692Y-34521D01*
X26035Y-34892D02*
X25978Y-34864D01*
X25950Y-34835D01*
X25921Y-34778D01*
X25921Y-34607D01*
X25950Y-34550D01*
X25978Y-34521D01*
X26035Y-34492D01*
X26121Y-34492D01*
X26178Y-34521D01*
X26207Y-34550D01*
X26235Y-34607D01*
X26235Y-34778D01*
X26207Y-34835D01*
X26178Y-34864D01*
X26121Y-34892D01*
X26035Y-34892D01*
X26492Y-34492D02*
X26492Y-34892D01*
X26492Y-34550D02*
X26521Y-34521D01*
X26578Y-34492D01*
X26664Y-34492D01*
X26721Y-34521D01*
X26750Y-34578D01*
X26750Y-34892D01*
X26892Y-34950D02*
X27350Y-34950D01*
X27492Y-34892D02*
X27492Y-34292D01*
X27492Y-34521D02*
X27550Y-34492D01*
X27664Y-34492D01*
X27721Y-34521D01*
X27750Y-34550D01*
X27778Y-34607D01*
X27778Y-34778D01*
X27750Y-34835D01*
X27721Y-34864D01*
X27664Y-34892D01*
X27550Y-34892D01*
X27492Y-34864D01*
X28292Y-34892D02*
X28292Y-34578D01*
X28264Y-34521D01*
X28207Y-34492D01*
X28092Y-34492D01*
X28035Y-34521D01*
X28292Y-34864D02*
X28235Y-34892D01*
X28092Y-34892D01*
X28035Y-34864D01*
X28007Y-34807D01*
X28007Y-34750D01*
X28035Y-34692D01*
X28092Y-34664D01*
X28235Y-34664D01*
X28292Y-34635D01*
X28835Y-34892D02*
X28835Y-34292D01*
X28835Y-34864D02*
X28778Y-34892D01*
X28664Y-34892D01*
X28607Y-34864D01*
X28578Y-34835D01*
X28550Y-34778D01*
X28550Y-34607D01*
X28578Y-34550D01*
X28607Y-34521D01*
X28664Y-34492D01*
X28778Y-34492D01*
X28835Y-34521D01*
X29378Y-34492D02*
X29378Y-34978D01*
X29350Y-35035D01*
X29321Y-35064D01*
X29264Y-35092D01*
X29178Y-35092D01*
X29121Y-35064D01*
X29378Y-34864D02*
X29321Y-34892D01*
X29207Y-34892D01*
X29150Y-34864D01*
X29121Y-34835D01*
X29092Y-34778D01*
X29092Y-34607D01*
X29121Y-34550D01*
X29150Y-34521D01*
X29207Y-34492D01*
X29321Y-34492D01*
X29378Y-34521D01*
X29892Y-34864D02*
X29835Y-34892D01*
X29721Y-34892D01*
X29664Y-34864D01*
X29635Y-34807D01*
X29635Y-34578D01*
X29664Y-34521D01*
X29721Y-34492D01*
X29835Y-34492D01*
X29892Y-34521D01*
X29921Y-34578D01*
X29921Y-34635D01*
X29635Y-34692D01*
X30035Y-34950D02*
X30492Y-34950D01*
X30578Y-34492D02*
X30892Y-34492D01*
X30578Y-34892D01*
X30892Y-34892D01*
X31121Y-34892D02*
X31121Y-34492D01*
X31121Y-34292D02*
X31092Y-34321D01*
X31121Y-34350D01*
X31150Y-34321D01*
X31121Y-34292D01*
X31121Y-34350D01*
X31664Y-34492D02*
X31664Y-34978D01*
X31635Y-35035D01*
X31607Y-35064D01*
X31549Y-35092D01*
X31464Y-35092D01*
X31407Y-35064D01*
X31664Y-34864D02*
X31607Y-34892D01*
X31492Y-34892D01*
X31435Y-34864D01*
X31407Y-34835D01*
X31378Y-34778D01*
X31378Y-34607D01*
X31407Y-34550D01*
X31435Y-34521D01*
X31492Y-34492D01*
X31607Y-34492D01*
X31664Y-34521D01*
X31949Y-34835D02*
X31978Y-34864D01*
X31949Y-34892D01*
X31921Y-34864D01*
X31949Y-34835D01*
X31949Y-34892D01*
X32235Y-34892D02*
X32235Y-34292D01*
X32235Y-34521D02*
X32292Y-34492D01*
X32407Y-34492D01*
X32464Y-34521D01*
X32492Y-34550D01*
X32521Y-34607D01*
X32521Y-34778D01*
X32492Y-34835D01*
X32464Y-34864D01*
X32407Y-34892D01*
X32292Y-34892D01*
X32235Y-34864D01*
X32778Y-34892D02*
X32778Y-34492D01*
X32778Y-34607D02*
X32807Y-34550D01*
X32835Y-34521D01*
X32892Y-34492D01*
X32949Y-34492D01*
X33407Y-34892D02*
X33407Y-34292D01*
X33407Y-34864D02*
X33349Y-34892D01*
X33235Y-34892D01*
X33178Y-34864D01*
X33149Y-34835D01*
X33121Y-34778D01*
X33121Y-34607D01*
X33149Y-34550D01*
X33178Y-34521D01*
X33235Y-34492D01*
X33349Y-34492D01*
X33407Y-34521D01*
X21264Y-36064D02*
X21350Y-36092D01*
X21492Y-36092D01*
X21550Y-36064D01*
X21578Y-36035D01*
X21607Y-35978D01*
X21607Y-35921D01*
X21578Y-35864D01*
X21550Y-35835D01*
X21492Y-35807D01*
X21378Y-35778D01*
X21321Y-35750D01*
X21292Y-35721D01*
X21264Y-35664D01*
X21264Y-35607D01*
X21292Y-35550D01*
X21321Y-35521D01*
X21378Y-35492D01*
X21521Y-35492D01*
X21607Y-35521D01*
X21864Y-36092D02*
X21864Y-35492D01*
X22121Y-36092D02*
X22121Y-35778D01*
X22092Y-35721D01*
X22035Y-35692D01*
X21950Y-35692D01*
X21892Y-35721D01*
X21864Y-35750D01*
X22635Y-36064D02*
X22578Y-36092D01*
X22464Y-36092D01*
X22407Y-36064D01*
X22378Y-36007D01*
X22378Y-35778D01*
X22407Y-35721D01*
X22464Y-35692D01*
X22578Y-35692D01*
X22635Y-35721D01*
X22664Y-35778D01*
X22664Y-35835D01*
X22378Y-35892D01*
X23150Y-36064D02*
X23092Y-36092D01*
X22978Y-36092D01*
X22921Y-36064D01*
X22892Y-36007D01*
X22892Y-35778D01*
X22921Y-35721D01*
X22978Y-35692D01*
X23092Y-35692D01*
X23150Y-35721D01*
X23178Y-35778D01*
X23178Y-35835D01*
X22892Y-35892D01*
X23350Y-35692D02*
X23578Y-35692D01*
X23435Y-35492D02*
X23435Y-36007D01*
X23464Y-36064D01*
X23521Y-36092D01*
X23578Y-36092D01*
X23778Y-36035D02*
X23807Y-36064D01*
X23778Y-36092D01*
X23750Y-36064D01*
X23778Y-36035D01*
X23778Y-36092D01*
X23778Y-35721D02*
X23807Y-35750D01*
X23778Y-35778D01*
X23750Y-35750D01*
X23778Y-35721D01*
X23778Y-35778D01*
X21317Y-33092D02*
X21385Y-33692D01*
X21553Y-33264D01*
X21614Y-33692D01*
X21832Y-33092D01*
X22071Y-33692D02*
X22017Y-33664D01*
X21992Y-33635D01*
X21971Y-33578D01*
X21992Y-33407D01*
X22028Y-33350D01*
X22060Y-33321D01*
X22121Y-33292D01*
X22207Y-33292D01*
X22260Y-33321D01*
X22285Y-33350D01*
X22307Y-33407D01*
X22285Y-33578D01*
X22250Y-33635D01*
X22217Y-33664D01*
X22157Y-33692D01*
X22071Y-33692D01*
X22528Y-33692D02*
X22578Y-33292D01*
X22564Y-33407D02*
X22600Y-33350D01*
X22632Y-33321D01*
X22692Y-33292D01*
X22750Y-33292D01*
X22900Y-33692D02*
X22975Y-33092D01*
X22985Y-33464D02*
X23128Y-33692D01*
X23178Y-33292D02*
X22921Y-33521D01*
X23360Y-33664D02*
X23414Y-33692D01*
X23528Y-33692D01*
X23589Y-33664D01*
X23625Y-33607D01*
X23628Y-33578D01*
X23607Y-33521D01*
X23553Y-33492D01*
X23467Y-33492D01*
X23414Y-33464D01*
X23392Y-33407D01*
X23396Y-33378D01*
X23432Y-33321D01*
X23492Y-33292D01*
X23578Y-33292D01*
X23632Y-33321D01*
X23871Y-33692D02*
X23946Y-33092D01*
X24128Y-33692D02*
X24167Y-33378D01*
X24146Y-33321D01*
X24092Y-33292D01*
X24007Y-33292D01*
X23946Y-33321D01*
X23914Y-33350D01*
X24499Y-33692D02*
X24446Y-33664D01*
X24421Y-33635D01*
X24400Y-33578D01*
X24421Y-33407D01*
X24457Y-33350D01*
X24489Y-33321D01*
X24549Y-33292D01*
X24635Y-33292D01*
X24689Y-33321D01*
X24714Y-33350D01*
X24735Y-33407D01*
X24714Y-33578D01*
X24678Y-33635D01*
X24646Y-33664D01*
X24585Y-33692D01*
X24499Y-33692D01*
X25007Y-33292D02*
X24932Y-33892D01*
X25003Y-33321D02*
X25064Y-33292D01*
X25178Y-33292D01*
X25232Y-33321D01*
X25257Y-33350D01*
X25278Y-33407D01*
X25257Y-33578D01*
X25221Y-33635D01*
X25189Y-33664D01*
X25128Y-33692D01*
X25014Y-33692D01*
X24960Y-33664D01*
X26085Y-33350D02*
X26032Y-33321D01*
X26007Y-33292D01*
X25985Y-33235D01*
X25989Y-33207D01*
X26024Y-33150D01*
X26057Y-33121D01*
X26117Y-33092D01*
X26232Y-33092D01*
X26285Y-33121D01*
X26310Y-33150D01*
X26332Y-33207D01*
X26328Y-33235D01*
X26292Y-33292D01*
X26260Y-33321D01*
X26199Y-33350D01*
X26085Y-33350D01*
X26025Y-33378D01*
X25992Y-33407D01*
X25957Y-33464D01*
X25942Y-33578D01*
X25964Y-33635D01*
X25989Y-33664D01*
X26042Y-33692D01*
X26157Y-33692D01*
X26217Y-33664D01*
X26249Y-33635D01*
X26285Y-33578D01*
X26299Y-33464D01*
X26278Y-33407D01*
X26253Y-33378D01*
X26199Y-33350D01*
X26657Y-33350D02*
X26603Y-33321D01*
X26578Y-33292D01*
X26557Y-33235D01*
X26560Y-33207D01*
X26596Y-33150D01*
X26628Y-33121D01*
X26689Y-33092D01*
X26803Y-33092D01*
X26857Y-33121D01*
X26882Y-33150D01*
X26903Y-33207D01*
X26900Y-33235D01*
X26864Y-33292D01*
X26832Y-33321D01*
X26771Y-33350D01*
X26657Y-33350D01*
X26596Y-33378D01*
X26564Y-33407D01*
X26528Y-33464D01*
X26514Y-33578D01*
X26535Y-33635D01*
X26560Y-33664D01*
X26614Y-33692D01*
X26728Y-33692D01*
X26789Y-33664D01*
X26821Y-33635D01*
X26857Y-33578D01*
X26871Y-33464D01*
X26849Y-33407D01*
X26825Y-33378D01*
X26771Y-33350D01*
X21292Y-32492D02*
X21292Y-31892D01*
X21435Y-31892D01*
X21521Y-31921D01*
X21578Y-31978D01*
X21607Y-32035D01*
X21635Y-32150D01*
X21635Y-32235D01*
X21607Y-32350D01*
X21578Y-32407D01*
X21521Y-32464D01*
X21435Y-32492D01*
X21292Y-32492D01*
X21892Y-32492D02*
X21892Y-32092D01*
X21892Y-32207D02*
X21921Y-32150D01*
X21950Y-32121D01*
X22007Y-32092D01*
X22064Y-32092D01*
X22521Y-32492D02*
X22521Y-32178D01*
X22492Y-32121D01*
X22435Y-32092D01*
X22321Y-32092D01*
X22264Y-32121D01*
X22521Y-32464D02*
X22464Y-32492D01*
X22321Y-32492D01*
X22264Y-32464D01*
X22235Y-32407D01*
X22235Y-32350D01*
X22264Y-32292D01*
X22321Y-32264D01*
X22464Y-32264D01*
X22521Y-32235D01*
X22750Y-32092D02*
X22864Y-32492D01*
X22978Y-32207D01*
X23092Y-32492D01*
X23207Y-32092D01*
X23435Y-32092D02*
X23435Y-32492D01*
X23435Y-32150D02*
X23464Y-32121D01*
X23521Y-32092D01*
X23607Y-32092D01*
X23664Y-32121D01*
X23692Y-32178D01*
X23692Y-32492D01*
X23978Y-32435D02*
X24007Y-32464D01*
X23978Y-32492D01*
X23950Y-32464D01*
X23978Y-32435D01*
X23978Y-32492D01*
X23978Y-32121D02*
X24007Y-32150D01*
X23978Y-32178D01*
X23950Y-32150D01*
X23978Y-32121D01*
X23978Y-32178D01*
X24721Y-32492D02*
X24721Y-31892D01*
X24950Y-31892D01*
X25007Y-31921D01*
X25035Y-31950D01*
X25064Y-32007D01*
X25064Y-32092D01*
X25035Y-32150D01*
X25007Y-32178D01*
X24950Y-32207D01*
X24721Y-32207D01*
X25578Y-32492D02*
X25578Y-32178D01*
X25550Y-32121D01*
X25492Y-32092D01*
X25378Y-32092D01*
X25321Y-32121D01*
X25578Y-32464D02*
X25521Y-32492D01*
X25378Y-32492D01*
X25321Y-32464D01*
X25292Y-32407D01*
X25292Y-32350D01*
X25321Y-32292D01*
X25378Y-32264D01*
X25521Y-32264D01*
X25578Y-32235D01*
X26121Y-32092D02*
X26121Y-32492D01*
X25864Y-32092D02*
X25864Y-32407D01*
X25892Y-32464D01*
X25949Y-32492D01*
X26035Y-32492D01*
X26092Y-32464D01*
X26121Y-32435D01*
X26492Y-32492D02*
X26435Y-32464D01*
X26407Y-32407D01*
X26407Y-31892D01*
X27521Y-32492D02*
X27321Y-32207D01*
X27178Y-32492D02*
X27178Y-31892D01*
X27407Y-31892D01*
X27464Y-31921D01*
X27492Y-31950D01*
X27521Y-32007D01*
X27521Y-32092D01*
X27492Y-32150D01*
X27464Y-32178D01*
X27407Y-32207D01*
X27178Y-32207D01*
X28007Y-32464D02*
X27950Y-32492D01*
X27835Y-32492D01*
X27778Y-32464D01*
X27750Y-32407D01*
X27750Y-32178D01*
X27778Y-32121D01*
X27835Y-32092D01*
X27950Y-32092D01*
X28007Y-32121D01*
X28035Y-32178D01*
X28035Y-32235D01*
X27750Y-32292D01*
X28292Y-32492D02*
X28292Y-32092D01*
X28292Y-31892D02*
X28264Y-31921D01*
X28292Y-31950D01*
X28321Y-31921D01*
X28292Y-31892D01*
X28292Y-31950D01*
X28835Y-32464D02*
X28778Y-32492D01*
X28664Y-32492D01*
X28607Y-32464D01*
X28578Y-32435D01*
X28550Y-32378D01*
X28550Y-32207D01*
X28578Y-32150D01*
X28607Y-32121D01*
X28664Y-32092D01*
X28778Y-32092D01*
X28835Y-32121D01*
X29092Y-32492D02*
X29092Y-31892D01*
X29350Y-32492D02*
X29350Y-32178D01*
X29321Y-32121D01*
X29264Y-32092D01*
X29178Y-32092D01*
X29121Y-32121D01*
X29092Y-32150D01*
X21292Y-31292D02*
X21292Y-30692D01*
X21435Y-30692D01*
X21521Y-30721D01*
X21578Y-30778D01*
X21607Y-30835D01*
X21635Y-30950D01*
X21635Y-31035D01*
X21607Y-31150D01*
X21578Y-31207D01*
X21521Y-31264D01*
X21435Y-31292D01*
X21292Y-31292D01*
X22121Y-31264D02*
X22064Y-31292D01*
X21950Y-31292D01*
X21892Y-31264D01*
X21864Y-31207D01*
X21864Y-30978D01*
X21892Y-30921D01*
X21950Y-30892D01*
X22064Y-30892D01*
X22121Y-30921D01*
X22150Y-30978D01*
X22150Y-31035D01*
X21864Y-31092D01*
X22378Y-31264D02*
X22435Y-31292D01*
X22550Y-31292D01*
X22607Y-31264D01*
X22635Y-31207D01*
X22635Y-31178D01*
X22607Y-31121D01*
X22550Y-31092D01*
X22464Y-31092D01*
X22407Y-31064D01*
X22378Y-31007D01*
X22378Y-30978D01*
X22407Y-30921D01*
X22464Y-30892D01*
X22550Y-30892D01*
X22607Y-30921D01*
X22892Y-31292D02*
X22892Y-30892D01*
X22892Y-30692D02*
X22864Y-30721D01*
X22892Y-30750D01*
X22921Y-30721D01*
X22892Y-30692D01*
X22892Y-30750D01*
X23435Y-30892D02*
X23435Y-31378D01*
X23407Y-31435D01*
X23378Y-31464D01*
X23321Y-31492D01*
X23235Y-31492D01*
X23178Y-31464D01*
X23435Y-31264D02*
X23378Y-31292D01*
X23264Y-31292D01*
X23207Y-31264D01*
X23178Y-31235D01*
X23150Y-31178D01*
X23150Y-31007D01*
X23178Y-30950D01*
X23207Y-30921D01*
X23264Y-30892D01*
X23378Y-30892D01*
X23435Y-30921D01*
X23721Y-30892D02*
X23721Y-31292D01*
X23721Y-30950D02*
X23750Y-30921D01*
X23807Y-30892D01*
X23892Y-30892D01*
X23950Y-30921D01*
X23978Y-30978D01*
X23978Y-31292D01*
X24492Y-31264D02*
X24435Y-31292D01*
X24321Y-31292D01*
X24264Y-31264D01*
X24235Y-31207D01*
X24235Y-30978D01*
X24264Y-30921D01*
X24321Y-30892D01*
X24435Y-30892D01*
X24492Y-30921D01*
X24521Y-30978D01*
X24521Y-31035D01*
X24235Y-31092D01*
X25035Y-31292D02*
X25035Y-30692D01*
X25035Y-31264D02*
X24978Y-31292D01*
X24864Y-31292D01*
X24807Y-31264D01*
X24778Y-31235D01*
X24750Y-31178D01*
X24750Y-31007D01*
X24778Y-30950D01*
X24807Y-30921D01*
X24864Y-30892D01*
X24978Y-30892D01*
X25035Y-30921D01*
X25321Y-31235D02*
X25350Y-31264D01*
X25321Y-31292D01*
X25292Y-31264D01*
X25321Y-31235D01*
X25321Y-31292D01*
X25321Y-30921D02*
X25350Y-30950D01*
X25321Y-30978D01*
X25292Y-30950D01*
X25321Y-30921D01*
X25321Y-30978D01*
X26064Y-31292D02*
X26064Y-30692D01*
X26292Y-30692D01*
X26349Y-30721D01*
X26378Y-30750D01*
X26407Y-30807D01*
X26407Y-30892D01*
X26378Y-30950D01*
X26349Y-30978D01*
X26292Y-31007D01*
X26064Y-31007D01*
X26921Y-31292D02*
X26921Y-30978D01*
X26892Y-30921D01*
X26835Y-30892D01*
X26721Y-30892D01*
X26664Y-30921D01*
X26921Y-31264D02*
X26864Y-31292D01*
X26721Y-31292D01*
X26664Y-31264D01*
X26635Y-31207D01*
X26635Y-31150D01*
X26664Y-31092D01*
X26721Y-31064D01*
X26864Y-31064D01*
X26921Y-31035D01*
X27464Y-30892D02*
X27464Y-31292D01*
X27207Y-30892D02*
X27207Y-31207D01*
X27235Y-31264D01*
X27292Y-31292D01*
X27378Y-31292D01*
X27435Y-31264D01*
X27464Y-31235D01*
X27835Y-31292D02*
X27778Y-31264D01*
X27749Y-31207D01*
X27749Y-30692D01*
X28864Y-31292D02*
X28664Y-31007D01*
X28521Y-31292D02*
X28521Y-30692D01*
X28750Y-30692D01*
X28807Y-30721D01*
X28835Y-30750D01*
X28864Y-30807D01*
X28864Y-30892D01*
X28835Y-30950D01*
X28807Y-30978D01*
X28750Y-31007D01*
X28521Y-31007D01*
X29350Y-31264D02*
X29292Y-31292D01*
X29178Y-31292D01*
X29121Y-31264D01*
X29092Y-31207D01*
X29092Y-30978D01*
X29121Y-30921D01*
X29178Y-30892D01*
X29292Y-30892D01*
X29350Y-30921D01*
X29378Y-30978D01*
X29378Y-31035D01*
X29092Y-31092D01*
X29635Y-31292D02*
X29635Y-30892D01*
X29635Y-30692D02*
X29607Y-30721D01*
X29635Y-30750D01*
X29664Y-30721D01*
X29635Y-30692D01*
X29635Y-30750D01*
X30178Y-31264D02*
X30121Y-31292D01*
X30007Y-31292D01*
X29950Y-31264D01*
X29921Y-31235D01*
X29892Y-31178D01*
X29892Y-31007D01*
X29921Y-30950D01*
X29950Y-30921D01*
X30007Y-30892D01*
X30121Y-30892D01*
X30178Y-30921D01*
X30435Y-31292D02*
X30435Y-30692D01*
X30692Y-31292D02*
X30692Y-30978D01*
X30664Y-30921D01*
X30607Y-30892D01*
X30521Y-30892D01*
X30464Y-30921D01*
X30435Y-30950D01*
X21292Y-30092D02*
X21292Y-29492D01*
X21521Y-29492D01*
X21578Y-29521D01*
X21607Y-29550D01*
X21635Y-29607D01*
X21635Y-29692D01*
X21607Y-29750D01*
X21578Y-29778D01*
X21521Y-29807D01*
X21292Y-29807D01*
X21892Y-30092D02*
X21892Y-29692D01*
X21892Y-29807D02*
X21921Y-29750D01*
X21950Y-29721D01*
X22007Y-29692D01*
X22064Y-29692D01*
X22350Y-30092D02*
X22292Y-30064D01*
X22264Y-30035D01*
X22235Y-29978D01*
X22235Y-29807D01*
X22264Y-29750D01*
X22292Y-29721D01*
X22350Y-29692D01*
X22435Y-29692D01*
X22492Y-29721D01*
X22521Y-29750D01*
X22550Y-29807D01*
X22550Y-29978D01*
X22521Y-30035D01*
X22492Y-30064D01*
X22435Y-30092D01*
X22350Y-30092D01*
X22807Y-29692D02*
X22807Y-30207D01*
X22778Y-30264D01*
X22721Y-30292D01*
X22692Y-30292D01*
X22807Y-29492D02*
X22778Y-29521D01*
X22807Y-29550D01*
X22835Y-29521D01*
X22807Y-29492D01*
X22807Y-29550D01*
X23321Y-30064D02*
X23264Y-30092D01*
X23150Y-30092D01*
X23092Y-30064D01*
X23064Y-30007D01*
X23064Y-29778D01*
X23092Y-29721D01*
X23150Y-29692D01*
X23264Y-29692D01*
X23321Y-29721D01*
X23350Y-29778D01*
X23350Y-29835D01*
X23064Y-29892D01*
X23864Y-30064D02*
X23807Y-30092D01*
X23692Y-30092D01*
X23635Y-30064D01*
X23607Y-30035D01*
X23578Y-29978D01*
X23578Y-29807D01*
X23607Y-29750D01*
X23635Y-29721D01*
X23692Y-29692D01*
X23807Y-29692D01*
X23864Y-29721D01*
X24035Y-29692D02*
X24264Y-29692D01*
X24121Y-29492D02*
X24121Y-30007D01*
X24150Y-30064D01*
X24207Y-30092D01*
X24264Y-30092D01*
X24921Y-30092D02*
X24921Y-29492D01*
X25121Y-29921D01*
X25321Y-29492D01*
X25321Y-30092D01*
X25864Y-29692D02*
X25864Y-30178D01*
X25835Y-30235D01*
X25807Y-30264D01*
X25750Y-30292D01*
X25664Y-30292D01*
X25607Y-30264D01*
X25864Y-30064D02*
X25807Y-30092D01*
X25692Y-30092D01*
X25635Y-30064D01*
X25607Y-30035D01*
X25578Y-29978D01*
X25578Y-29807D01*
X25607Y-29750D01*
X25635Y-29721D01*
X25692Y-29692D01*
X25807Y-29692D01*
X25864Y-29721D01*
X26150Y-30092D02*
X26150Y-29692D01*
X26150Y-29807D02*
X26178Y-29750D01*
X26207Y-29721D01*
X26264Y-29692D01*
X26321Y-29692D01*
X26521Y-30035D02*
X26550Y-30064D01*
X26521Y-30092D01*
X26492Y-30064D01*
X26521Y-30035D01*
X26521Y-30092D01*
X26521Y-29721D02*
X26550Y-29750D01*
X26521Y-29778D01*
X26492Y-29750D01*
X26521Y-29721D01*
X26521Y-29778D01*
X27607Y-30092D02*
X27407Y-29807D01*
X27264Y-30092D02*
X27264Y-29492D01*
X27492Y-29492D01*
X27550Y-29521D01*
X27578Y-29550D01*
X27607Y-29607D01*
X27607Y-29692D01*
X27578Y-29750D01*
X27550Y-29778D01*
X27492Y-29807D01*
X27264Y-29807D01*
X27864Y-30035D02*
X27892Y-30064D01*
X27864Y-30092D01*
X27835Y-30064D01*
X27864Y-30035D01*
X27864Y-30092D01*
X28950Y-30092D02*
X28750Y-29807D01*
X28607Y-30092D02*
X28607Y-29492D01*
X28835Y-29492D01*
X28892Y-29521D01*
X28921Y-29550D01*
X28950Y-29607D01*
X28950Y-29692D01*
X28921Y-29750D01*
X28892Y-29778D01*
X28835Y-29807D01*
X28607Y-29807D01*
X29207Y-30092D02*
X29207Y-29692D01*
X29207Y-29492D02*
X29178Y-29521D01*
X29207Y-29550D01*
X29235Y-29521D01*
X29207Y-29492D01*
X29207Y-29550D01*
X29464Y-30064D02*
X29521Y-30092D01*
X29635Y-30092D01*
X29692Y-30064D01*
X29721Y-30007D01*
X29721Y-29978D01*
X29692Y-29921D01*
X29635Y-29892D01*
X29550Y-29892D01*
X29492Y-29864D01*
X29464Y-29807D01*
X29464Y-29778D01*
X29492Y-29721D01*
X29550Y-29692D01*
X29635Y-29692D01*
X29692Y-29721D01*
X29892Y-29692D02*
X30121Y-29692D01*
X29978Y-29492D02*
X29978Y-30007D01*
X30007Y-30064D01*
X30064Y-30092D01*
X30121Y-30092D01*
X30321Y-30092D02*
X30321Y-29692D01*
X30321Y-29492D02*
X30292Y-29521D01*
X30321Y-29550D01*
X30350Y-29521D01*
X30321Y-29492D01*
X30321Y-29550D01*
X30864Y-30064D02*
X30807Y-30092D01*
X30692Y-30092D01*
X30635Y-30064D01*
X30607Y-30035D01*
X30578Y-29978D01*
X30578Y-29807D01*
X30607Y-29750D01*
X30635Y-29721D01*
X30692Y-29692D01*
X30807Y-29692D01*
X30864Y-29721D01*
X31121Y-30092D02*
X31121Y-29492D01*
X31378Y-30092D02*
X31378Y-29778D01*
X31350Y-29721D01*
X31292Y-29692D01*
X31207Y-29692D01*
X31150Y-29721D01*
X31121Y-29750D01*
X21635Y-28835D02*
X21607Y-28864D01*
X21521Y-28892D01*
X21464Y-28892D01*
X21378Y-28864D01*
X21321Y-28807D01*
X21292Y-28750D01*
X21264Y-28635D01*
X21264Y-28550D01*
X21292Y-28435D01*
X21321Y-28378D01*
X21378Y-28321D01*
X21464Y-28292D01*
X21521Y-28292D01*
X21607Y-28321D01*
X21635Y-28350D01*
X22235Y-28835D02*
X22207Y-28864D01*
X22121Y-28892D01*
X22064Y-28892D01*
X21978Y-28864D01*
X21921Y-28807D01*
X21892Y-28750D01*
X21864Y-28635D01*
X21864Y-28550D01*
X21892Y-28435D01*
X21921Y-28378D01*
X21978Y-28321D01*
X22064Y-28292D01*
X22121Y-28292D01*
X22207Y-28321D01*
X22235Y-28350D01*
X22492Y-28664D02*
X22950Y-28664D01*
X23435Y-28578D02*
X23521Y-28607D01*
X23550Y-28635D01*
X23578Y-28692D01*
X23578Y-28778D01*
X23550Y-28835D01*
X23521Y-28864D01*
X23464Y-28892D01*
X23235Y-28892D01*
X23235Y-28292D01*
X23435Y-28292D01*
X23492Y-28321D01*
X23521Y-28350D01*
X23550Y-28407D01*
X23550Y-28464D01*
X23521Y-28521D01*
X23492Y-28550D01*
X23435Y-28578D01*
X23235Y-28578D01*
X23950Y-28607D02*
X23950Y-28892D01*
X23750Y-28292D02*
X23950Y-28607D01*
X24150Y-28292D01*
X24350Y-28664D02*
X24807Y-28664D01*
X25064Y-28864D02*
X25150Y-28892D01*
X25292Y-28892D01*
X25350Y-28864D01*
X25378Y-28835D01*
X25407Y-28778D01*
X25407Y-28721D01*
X25378Y-28664D01*
X25350Y-28635D01*
X25292Y-28607D01*
X25178Y-28578D01*
X25121Y-28550D01*
X25092Y-28521D01*
X25064Y-28464D01*
X25064Y-28407D01*
X25092Y-28350D01*
X25121Y-28321D01*
X25178Y-28292D01*
X25321Y-28292D01*
X25407Y-28321D01*
X25635Y-28721D02*
X25921Y-28721D01*
X25578Y-28892D02*
X25778Y-28292D01*
X25978Y-28892D01*
X26178Y-28664D02*
X26635Y-28664D01*
X26864Y-28292D02*
X27235Y-28292D01*
X27035Y-28521D01*
X27121Y-28521D01*
X27178Y-28550D01*
X27207Y-28578D01*
X27235Y-28635D01*
X27235Y-28778D01*
X27207Y-28835D01*
X27178Y-28864D01*
X27121Y-28892D01*
X26950Y-28892D01*
X26892Y-28864D01*
X26864Y-28835D01*
X27492Y-28835D02*
X27521Y-28864D01*
X27492Y-28892D01*
X27464Y-28864D01*
X27492Y-28835D01*
X27492Y-28892D01*
X27892Y-28292D02*
X27950Y-28292D01*
X28007Y-28321D01*
X28035Y-28350D01*
X28064Y-28407D01*
X28092Y-28521D01*
X28092Y-28664D01*
X28064Y-28778D01*
X28035Y-28835D01*
X28007Y-28864D01*
X27950Y-28892D01*
X27892Y-28892D01*
X27835Y-28864D01*
X27807Y-28835D01*
X27778Y-28778D01*
X27750Y-28664D01*
X27750Y-28521D01*
X27778Y-28407D01*
X27807Y-28350D01*
X27835Y-28321D01*
X27892Y-28292D01*
X20550Y-28050D02*
X20550Y-40050D01*
X20550Y-34050D02*
X62550Y-34050D01*
X20550Y-28050D02*
X62550Y-28050D01*
X20550Y-36450D02*
X62550Y-36450D01*
X53750Y-37650D02*
X53750Y-40050D01*
X20550Y-38850D02*
X62550Y-38850D01*
X20550Y-37650D02*
X62550Y-37650D01*
X27150Y-37650D02*
X27150Y-38850D01*
X4500Y18000D02*
G75*
G03X4500Y18000I-1000J0D01*
G74*
G01*
X2000Y18000D02*
X5000Y18000D01*
X3500Y19500D02*
X3500Y16500D01*
X40000Y-5750D02*
G75*
G03X40000Y-5750I-1000J0D01*
G74*
G01*
X37500Y-5750D02*
X40500Y-5750D01*
X39000Y-4250D02*
X39000Y-7250D01*
G54D11*
X30435Y2264D02*
X30464Y2292D01*
X30492Y2378D01*
X30492Y2435D01*
X30464Y2521D01*
X30407Y2578D01*
X30350Y2607D01*
X30235Y2635D01*
X30150Y2635D01*
X30035Y2607D01*
X29978Y2578D01*
X29921Y2521D01*
X29892Y2435D01*
X29892Y2378D01*
X29921Y2292D01*
X29950Y2264D01*
X30492Y1664D02*
X30207Y1864D01*
X30492Y2007D02*
X29892Y2007D01*
X29892Y1778D01*
X29921Y1721D01*
X29950Y1692D01*
X30007Y1664D01*
X30092Y1664D01*
X30150Y1692D01*
X30178Y1721D01*
X30207Y1778D01*
X30207Y2007D01*
X30264Y1407D02*
X30264Y950D01*
X29950Y692D02*
X29921Y664D01*
X29892Y607D01*
X29892Y464D01*
X29921Y407D01*
X29950Y378D01*
X30007Y350D01*
X30064Y350D01*
X30150Y378D01*
X30492Y721D01*
X30492Y350D01*
X29892Y-21D02*
X29892Y-78D01*
X29921Y-135D01*
X29950Y-164D01*
X30007Y-192D01*
X30121Y-221D01*
X30264Y-221D01*
X30378Y-192D01*
X30435Y-164D01*
X30464Y-135D01*
X30492Y-78D01*
X30492Y-21D01*
X30464Y35D01*
X30435Y64D01*
X30378Y92D01*
X30264Y121D01*
X30121Y121D01*
X30007Y92D01*
X29950Y64D01*
X29921Y35D01*
X29892Y-21D01*
X29892Y-421D02*
X29892Y-792D01*
X30121Y-592D01*
X30121Y-678D01*
X30150Y-735D01*
X30178Y-764D01*
X30235Y-792D01*
X30378Y-792D01*
X30435Y-764D01*
X30464Y-735D01*
X30492Y-678D01*
X30492Y-507D01*
X30464Y-450D01*
X30435Y-421D01*
X29950Y-1021D02*
X29921Y-1050D01*
X29892Y-1107D01*
X29892Y-1250D01*
X29921Y-1307D01*
X29950Y-1335D01*
X30007Y-1364D01*
X30064Y-1364D01*
X30150Y-1335D01*
X30492Y-992D01*
X30492Y-1364D01*
G54D12*
X7573Y12554D02*
X7573Y12402D01*
X7611Y12326D01*
X7688Y12249D01*
X7840Y12211D01*
X8107Y12211D01*
X8259Y12249D01*
X8335Y12326D01*
X8373Y12402D01*
X8373Y12554D01*
X8335Y12630D01*
X8259Y12707D01*
X8107Y12745D01*
X7840Y12745D01*
X7688Y12707D01*
X7611Y12630D01*
X7573Y12554D01*
X8373Y11869D02*
X7840Y11869D01*
X7992Y11869D02*
X7916Y11830D01*
X7878Y11792D01*
X7840Y11716D01*
X7840Y11640D01*
X7840Y11030D02*
X8488Y11030D01*
X8564Y11069D01*
X8602Y11107D01*
X8640Y11183D01*
X8640Y11297D01*
X8602Y11373D01*
X8335Y11030D02*
X8373Y11107D01*
X8373Y11259D01*
X8335Y11335D01*
X8297Y11373D01*
X8221Y11411D01*
X7992Y11411D01*
X7916Y11373D01*
X7878Y11335D01*
X7840Y11259D01*
X7840Y11107D01*
X7878Y11030D01*
X8373Y10307D02*
X7954Y10307D01*
X7878Y10345D01*
X7840Y10421D01*
X7840Y10573D01*
X7878Y10649D01*
X8335Y10307D02*
X8373Y10383D01*
X8373Y10573D01*
X8335Y10649D01*
X8259Y10688D01*
X8183Y10688D01*
X8107Y10649D01*
X8069Y10573D01*
X8069Y10383D01*
X8030Y10307D01*
X7840Y9926D02*
X8373Y9926D01*
X7916Y9926D02*
X7878Y9888D01*
X7840Y9811D01*
X7840Y9697D01*
X7878Y9621D01*
X7954Y9583D01*
X8373Y9583D01*
X8373Y9202D02*
X7840Y9202D01*
X7573Y9202D02*
X7611Y9240D01*
X7650Y9202D01*
X7611Y9164D01*
X7573Y9202D01*
X7650Y9202D01*
X7840Y8897D02*
X7840Y8478D01*
X8373Y8897D01*
X8373Y8478D01*
X8373Y8173D02*
X7840Y8173D01*
X7573Y8173D02*
X7611Y8211D01*
X7650Y8173D01*
X7611Y8135D01*
X7573Y8173D01*
X7650Y8173D01*
X7840Y7792D02*
X8373Y7792D01*
X7916Y7792D02*
X7878Y7754D01*
X7840Y7678D01*
X7840Y7564D01*
X7878Y7488D01*
X7954Y7449D01*
X8373Y7449D01*
X7840Y6726D02*
X8488Y6726D01*
X8564Y6764D01*
X8602Y6802D01*
X8640Y6878D01*
X8640Y6992D01*
X8602Y7069D01*
X8335Y6726D02*
X8373Y6802D01*
X8373Y6954D01*
X8335Y7030D01*
X8297Y7069D01*
X8221Y7107D01*
X7992Y7107D01*
X7916Y7069D01*
X7878Y7030D01*
X7840Y6954D01*
X7840Y6802D01*
X7878Y6726D01*
X8297Y5278D02*
X8335Y5316D01*
X8373Y5430D01*
X8373Y5507D01*
X8335Y5621D01*
X8259Y5697D01*
X8183Y5735D01*
X8030Y5773D01*
X7916Y5773D01*
X7764Y5735D01*
X7688Y5697D01*
X7611Y5621D01*
X7573Y5507D01*
X7573Y5430D01*
X7611Y5316D01*
X7650Y5278D01*
X8373Y4821D02*
X8335Y4897D01*
X8297Y4935D01*
X8221Y4973D01*
X7992Y4973D01*
X7916Y4935D01*
X7878Y4897D01*
X7840Y4821D01*
X7840Y4707D01*
X7878Y4630D01*
X7916Y4592D01*
X7992Y4554D01*
X8221Y4554D01*
X8297Y4592D01*
X8335Y4630D01*
X8373Y4707D01*
X8373Y4821D01*
X8373Y4211D02*
X7840Y4211D01*
X7916Y4211D02*
X7878Y4173D01*
X7840Y4097D01*
X7840Y3983D01*
X7878Y3907D01*
X7954Y3869D01*
X8373Y3869D01*
X7954Y3869D02*
X7878Y3830D01*
X7840Y3754D01*
X7840Y3640D01*
X7878Y3564D01*
X7954Y3526D01*
X8373Y3526D01*
X8373Y3145D02*
X7840Y3145D01*
X7916Y3145D02*
X7878Y3107D01*
X7840Y3030D01*
X7840Y2916D01*
X7878Y2840D01*
X7954Y2802D01*
X8373Y2802D01*
X7954Y2802D02*
X7878Y2764D01*
X7840Y2688D01*
X7840Y2573D01*
X7878Y2497D01*
X7954Y2459D01*
X8373Y2459D01*
X8373Y2078D02*
X7840Y2078D01*
X7573Y2078D02*
X7611Y2116D01*
X7650Y2078D01*
X7611Y2040D01*
X7573Y2078D01*
X7650Y2078D01*
X7840Y1811D02*
X7840Y1507D01*
X7573Y1697D02*
X8259Y1697D01*
X8335Y1659D01*
X8373Y1583D01*
X8373Y1507D01*
X7840Y1354D02*
X7840Y1050D01*
X7573Y1240D02*
X8259Y1240D01*
X8335Y1202D01*
X8373Y1126D01*
X8373Y1050D01*
X8335Y478D02*
X8373Y554D01*
X8373Y707D01*
X8335Y783D01*
X8259Y821D01*
X7954Y821D01*
X7878Y783D01*
X7840Y707D01*
X7840Y554D01*
X7878Y478D01*
X7954Y440D01*
X8030Y440D01*
X8107Y821D01*
X8335Y-207D02*
X8373Y-130D01*
X8373Y21D01*
X8335Y97D01*
X8259Y135D01*
X7954Y135D01*
X7878Y97D01*
X7840Y21D01*
X7840Y-130D01*
X7878Y-207D01*
X7954Y-245D01*
X8030Y-245D01*
X8107Y135D01*
X10394Y12954D02*
X10394Y13221D01*
X10813Y13221D02*
X10013Y13221D01*
X10013Y12840D01*
X10813Y12421D02*
X10775Y12497D01*
X10737Y12535D01*
X10661Y12573D01*
X10432Y12573D01*
X10356Y12535D01*
X10318Y12497D01*
X10280Y12421D01*
X10280Y12307D01*
X10318Y12230D01*
X10356Y12192D01*
X10432Y12154D01*
X10661Y12154D01*
X10737Y12192D01*
X10775Y12230D01*
X10813Y12307D01*
X10813Y12421D01*
X10813Y11811D02*
X10280Y11811D01*
X10432Y11811D02*
X10356Y11773D01*
X10318Y11735D01*
X10280Y11659D01*
X10280Y11583D01*
X10813Y10707D02*
X10013Y10707D01*
X10013Y10516D01*
X10051Y10402D01*
X10128Y10326D01*
X10204Y10288D01*
X10356Y10249D01*
X10470Y10249D01*
X10623Y10288D01*
X10699Y10326D01*
X10775Y10402D01*
X10813Y10516D01*
X10813Y10707D01*
X10775Y9602D02*
X10813Y9678D01*
X10813Y9830D01*
X10775Y9907D01*
X10699Y9945D01*
X10394Y9945D01*
X10318Y9907D01*
X10280Y9830D01*
X10280Y9678D01*
X10318Y9602D01*
X10394Y9564D01*
X10470Y9564D01*
X10547Y9945D01*
X10775Y9259D02*
X10813Y9183D01*
X10813Y9030D01*
X10775Y8954D01*
X10699Y8916D01*
X10661Y8916D01*
X10585Y8954D01*
X10547Y9030D01*
X10547Y9145D01*
X10509Y9221D01*
X10432Y9259D01*
X10394Y9259D01*
X10318Y9221D01*
X10280Y9145D01*
X10280Y9030D01*
X10318Y8954D01*
X10813Y8573D02*
X10280Y8573D01*
X10013Y8573D02*
X10051Y8611D01*
X10090Y8573D01*
X10051Y8535D01*
X10013Y8573D01*
X10090Y8573D01*
X10280Y7849D02*
X10928Y7849D01*
X11004Y7888D01*
X11042Y7926D01*
X11080Y8002D01*
X11080Y8116D01*
X11042Y8192D01*
X10775Y7849D02*
X10813Y7926D01*
X10813Y8078D01*
X10775Y8154D01*
X10737Y8192D01*
X10661Y8230D01*
X10432Y8230D01*
X10356Y8192D01*
X10318Y8154D01*
X10280Y8078D01*
X10280Y7926D01*
X10318Y7849D01*
X10280Y7469D02*
X10813Y7469D01*
X10356Y7469D02*
X10318Y7430D01*
X10280Y7354D01*
X10280Y7240D01*
X10318Y7164D01*
X10394Y7126D01*
X10813Y7126D01*
X10813Y5792D02*
X10394Y5792D01*
X10318Y5830D01*
X10280Y5907D01*
X10280Y6059D01*
X10318Y6135D01*
X10775Y5792D02*
X10813Y5869D01*
X10813Y6059D01*
X10775Y6135D01*
X10699Y6173D01*
X10623Y6173D01*
X10547Y6135D01*
X10509Y6059D01*
X10509Y5869D01*
X10470Y5792D01*
X10280Y5411D02*
X10813Y5411D01*
X10356Y5411D02*
X10318Y5373D01*
X10280Y5297D01*
X10280Y5183D01*
X10318Y5107D01*
X10394Y5069D01*
X10813Y5069D01*
X10813Y4345D02*
X10013Y4345D01*
X10775Y4345D02*
X10813Y4421D01*
X10813Y4573D01*
X10775Y4650D01*
X10737Y4688D01*
X10661Y4726D01*
X10432Y4726D01*
X10356Y4688D01*
X10318Y4650D01*
X10280Y4573D01*
X10280Y4421D01*
X10318Y4345D01*
X10813Y2973D02*
X10813Y3354D01*
X10013Y3354D01*
X10813Y2707D02*
X10280Y2707D01*
X10013Y2707D02*
X10051Y2745D01*
X10090Y2707D01*
X10051Y2669D01*
X10013Y2707D01*
X10090Y2707D01*
X10775Y1983D02*
X10813Y2059D01*
X10813Y2211D01*
X10775Y2288D01*
X10737Y2326D01*
X10661Y2364D01*
X10432Y2364D01*
X10356Y2326D01*
X10318Y2288D01*
X10280Y2211D01*
X10280Y2059D01*
X10318Y1983D01*
X10775Y1335D02*
X10813Y1411D01*
X10813Y1564D01*
X10775Y1640D01*
X10699Y1678D01*
X10394Y1678D01*
X10318Y1640D01*
X10280Y1564D01*
X10280Y1411D01*
X10318Y1335D01*
X10394Y1297D01*
X10470Y1297D01*
X10547Y1678D01*
X10280Y954D02*
X10813Y954D01*
X10356Y954D02*
X10318Y916D01*
X10280Y840D01*
X10280Y726D01*
X10318Y650D01*
X10394Y611D01*
X10813Y611D01*
X10775Y269D02*
X10813Y192D01*
X10813Y40D01*
X10775Y-35D01*
X10699Y-73D01*
X10661Y-73D01*
X10585Y-35D01*
X10547Y40D01*
X10547Y154D01*
X10509Y230D01*
X10432Y269D01*
X10394Y269D01*
X10318Y230D01*
X10280Y154D01*
X10280Y40D01*
X10318Y-35D01*
X10775Y-721D02*
X10813Y-645D01*
X10813Y-492D01*
X10775Y-416D01*
X10699Y-378D01*
X10394Y-378D01*
X10318Y-416D01*
X10280Y-492D01*
X10280Y-645D01*
X10318Y-721D01*
X10394Y-759D01*
X10470Y-759D01*
X10547Y-378D01*
X12033Y11030D02*
X11233Y11030D01*
X11500Y10649D02*
X12033Y10649D01*
X11576Y10649D02*
X11538Y10611D01*
X11500Y10535D01*
X11500Y10421D01*
X11538Y10345D01*
X11614Y10307D01*
X12033Y10307D01*
X11500Y10040D02*
X11500Y9735D01*
X12033Y9926D02*
X11348Y9926D01*
X11271Y9888D01*
X11233Y9811D01*
X11233Y9735D01*
X12033Y9354D02*
X11995Y9430D01*
X11957Y9469D01*
X11881Y9507D01*
X11652Y9507D01*
X11576Y9469D01*
X11538Y9430D01*
X11500Y9354D01*
X11500Y9240D01*
X11538Y9164D01*
X11576Y9126D01*
X11652Y9088D01*
X11881Y9088D01*
X11957Y9126D01*
X11995Y9164D01*
X12033Y9240D01*
X12033Y9354D01*
X12033Y8745D02*
X11500Y8745D01*
X11652Y8745D02*
X11576Y8707D01*
X11538Y8669D01*
X11500Y8592D01*
X11500Y8516D01*
X12033Y8249D02*
X11500Y8249D01*
X11576Y8249D02*
X11538Y8211D01*
X11500Y8135D01*
X11500Y8021D01*
X11538Y7945D01*
X11614Y7907D01*
X12033Y7907D01*
X11614Y7907D02*
X11538Y7869D01*
X11500Y7792D01*
X11500Y7678D01*
X11538Y7602D01*
X11614Y7564D01*
X12033Y7564D01*
X12033Y6840D02*
X11614Y6840D01*
X11538Y6878D01*
X11500Y6954D01*
X11500Y7107D01*
X11538Y7183D01*
X11995Y6840D02*
X12033Y6916D01*
X12033Y7107D01*
X11995Y7183D01*
X11919Y7221D01*
X11843Y7221D01*
X11767Y7183D01*
X11729Y7107D01*
X11729Y6916D01*
X11690Y6840D01*
X11500Y6573D02*
X11500Y6269D01*
X11233Y6459D02*
X11919Y6459D01*
X11995Y6421D01*
X12033Y6345D01*
X12033Y6269D01*
X12033Y6002D02*
X11500Y6002D01*
X11233Y6002D02*
X11271Y6040D01*
X11310Y6002D01*
X11271Y5964D01*
X11233Y6002D01*
X11310Y6002D01*
X12033Y5507D02*
X11995Y5583D01*
X11957Y5621D01*
X11881Y5659D01*
X11652Y5659D01*
X11576Y5621D01*
X11538Y5583D01*
X11500Y5507D01*
X11500Y5392D01*
X11538Y5316D01*
X11576Y5278D01*
X11652Y5240D01*
X11881Y5240D01*
X11957Y5278D01*
X11995Y5316D01*
X12033Y5392D01*
X12033Y5507D01*
X11500Y4897D02*
X12033Y4897D01*
X11576Y4897D02*
X11538Y4859D01*
X11500Y4783D01*
X11500Y4669D01*
X11538Y4592D01*
X11614Y4554D01*
X12033Y4554D01*
X11500Y3640D02*
X12033Y3450D01*
X11500Y3259D01*
X12033Y2954D02*
X11500Y2954D01*
X11233Y2954D02*
X11271Y2992D01*
X11310Y2954D01*
X11271Y2916D01*
X11233Y2954D01*
X11310Y2954D01*
X11995Y2611D02*
X12033Y2535D01*
X12033Y2383D01*
X11995Y2307D01*
X11919Y2269D01*
X11881Y2269D01*
X11805Y2307D01*
X11767Y2383D01*
X11767Y2497D01*
X11729Y2573D01*
X11652Y2611D01*
X11614Y2611D01*
X11538Y2573D01*
X11500Y2497D01*
X11500Y2383D01*
X11538Y2307D01*
X12033Y1926D02*
X11500Y1926D01*
X11233Y1926D02*
X11271Y1964D01*
X11310Y1926D01*
X11271Y1888D01*
X11233Y1926D01*
X11310Y1926D01*
X11500Y1659D02*
X11500Y1354D01*
X11233Y1545D02*
X11919Y1545D01*
X11995Y1507D01*
X12033Y1430D01*
X12033Y1354D01*
X13940Y14745D02*
X14473Y14592D01*
X14092Y14440D01*
X14473Y14288D01*
X13940Y14135D01*
X13940Y13907D02*
X14473Y13754D01*
X14092Y13602D01*
X14473Y13449D01*
X13940Y13297D01*
X13940Y13069D02*
X14473Y12916D01*
X14092Y12764D01*
X14473Y12611D01*
X13940Y12459D01*
X14397Y12154D02*
X14435Y12116D01*
X14473Y12154D01*
X14435Y12192D01*
X14397Y12154D01*
X14473Y12154D01*
X13940Y11849D02*
X14473Y11697D01*
X14092Y11545D01*
X14473Y11392D01*
X13940Y11240D01*
X14473Y10821D02*
X14435Y10897D01*
X14397Y10935D01*
X14321Y10973D01*
X14092Y10973D01*
X14016Y10935D01*
X13978Y10897D01*
X13940Y10821D01*
X13940Y10707D01*
X13978Y10630D01*
X14016Y10592D01*
X14092Y10554D01*
X14321Y10554D01*
X14397Y10592D01*
X14435Y10630D01*
X14473Y10707D01*
X14473Y10821D01*
X14473Y10211D02*
X13940Y10211D01*
X14092Y10211D02*
X14016Y10173D01*
X13978Y10135D01*
X13940Y10059D01*
X13940Y9983D01*
X14473Y9716D02*
X13673Y9716D01*
X14169Y9640D02*
X14473Y9411D01*
X13940Y9411D02*
X14245Y9716D01*
X14435Y9107D02*
X14473Y9030D01*
X14473Y8878D01*
X14435Y8802D01*
X14359Y8764D01*
X14321Y8764D01*
X14245Y8802D01*
X14207Y8878D01*
X14207Y8992D01*
X14169Y9069D01*
X14092Y9107D01*
X14054Y9107D01*
X13978Y9069D01*
X13940Y8992D01*
X13940Y8878D01*
X13978Y8802D01*
X14473Y8421D02*
X13673Y8421D01*
X14473Y8078D02*
X14054Y8078D01*
X13978Y8116D01*
X13940Y8192D01*
X13940Y8307D01*
X13978Y8383D01*
X14016Y8421D01*
X14473Y7583D02*
X14435Y7659D01*
X14397Y7697D01*
X14321Y7735D01*
X14092Y7735D01*
X14016Y7697D01*
X13978Y7659D01*
X13940Y7583D01*
X13940Y7469D01*
X13978Y7392D01*
X14016Y7354D01*
X14092Y7316D01*
X14321Y7316D01*
X14397Y7354D01*
X14435Y7392D01*
X14473Y7469D01*
X14473Y7583D01*
X13940Y6973D02*
X14740Y6973D01*
X13978Y6973D02*
X13940Y6897D01*
X13940Y6745D01*
X13978Y6669D01*
X14016Y6630D01*
X14092Y6592D01*
X14321Y6592D01*
X14397Y6630D01*
X14435Y6669D01*
X14473Y6745D01*
X14473Y6897D01*
X14435Y6973D01*
X14016Y6135D02*
X13978Y6211D01*
X13940Y6249D01*
X13864Y6288D01*
X13826Y6288D01*
X13750Y6249D01*
X13711Y6211D01*
X13673Y6135D01*
X13673Y5983D01*
X13711Y5907D01*
X13750Y5869D01*
X13826Y5830D01*
X13864Y5830D01*
X13940Y5869D01*
X13978Y5907D01*
X14016Y5983D01*
X14016Y6135D01*
X14054Y6211D01*
X14092Y6249D01*
X14169Y6288D01*
X14321Y6288D01*
X14397Y6249D01*
X14435Y6211D01*
X14473Y6135D01*
X14473Y5983D01*
X14435Y5907D01*
X14397Y5869D01*
X14321Y5830D01*
X14169Y5830D01*
X14092Y5869D01*
X14054Y5907D01*
X14016Y5983D01*
X14016Y5373D02*
X13978Y5450D01*
X13940Y5488D01*
X13864Y5526D01*
X13826Y5526D01*
X13750Y5488D01*
X13711Y5450D01*
X13673Y5373D01*
X13673Y5221D01*
X13711Y5145D01*
X13750Y5107D01*
X13826Y5069D01*
X13864Y5069D01*
X13940Y5107D01*
X13978Y5145D01*
X14016Y5221D01*
X14016Y5373D01*
X14054Y5450D01*
X14092Y5488D01*
X14169Y5526D01*
X14321Y5526D01*
X14397Y5488D01*
X14435Y5450D01*
X14473Y5373D01*
X14473Y5221D01*
X14435Y5145D01*
X14397Y5107D01*
X14321Y5069D01*
X14169Y5069D01*
X14092Y5107D01*
X14054Y5145D01*
X14016Y5221D01*
X14397Y4726D02*
X14435Y4688D01*
X14473Y4726D01*
X14435Y4764D01*
X14397Y4726D01*
X14473Y4726D01*
X14435Y4002D02*
X14473Y4078D01*
X14473Y4230D01*
X14435Y4307D01*
X14397Y4345D01*
X14321Y4383D01*
X14092Y4383D01*
X14016Y4345D01*
X13978Y4307D01*
X13940Y4230D01*
X13940Y4078D01*
X13978Y4002D01*
X14473Y3545D02*
X14435Y3621D01*
X14397Y3659D01*
X14321Y3697D01*
X14092Y3697D01*
X14016Y3659D01*
X13978Y3621D01*
X13940Y3545D01*
X13940Y3430D01*
X13978Y3354D01*
X14016Y3316D01*
X14092Y3278D01*
X14321Y3278D01*
X14397Y3316D01*
X14435Y3354D01*
X14473Y3430D01*
X14473Y3545D01*
X14473Y2935D02*
X13940Y2935D01*
X14016Y2935D02*
X13978Y2897D01*
X13940Y2821D01*
X13940Y2707D01*
X13978Y2630D01*
X14054Y2592D01*
X14473Y2592D01*
X14054Y2592D02*
X13978Y2554D01*
X13940Y2478D01*
X13940Y2364D01*
X13978Y2288D01*
X14054Y2250D01*
X14473Y2250D01*
X13635Y1297D02*
X14664Y1983D01*
X14473Y1030D02*
X13673Y1030D01*
X13978Y1030D02*
X13940Y954D01*
X13940Y802D01*
X13978Y726D01*
X14016Y688D01*
X14092Y650D01*
X14321Y650D01*
X14397Y688D01*
X14435Y726D01*
X14473Y802D01*
X14473Y954D01*
X14435Y1030D01*
X14473Y-35D02*
X14054Y-35D01*
X13978Y2D01*
X13940Y78D01*
X13940Y230D01*
X13978Y307D01*
X14435Y-35D02*
X14473Y40D01*
X14473Y230D01*
X14435Y307D01*
X14359Y345D01*
X14283Y345D01*
X14207Y307D01*
X14169Y230D01*
X14169Y40D01*
X14130Y-35D01*
X14473Y-759D02*
X13673Y-759D01*
X14435Y-759D02*
X14473Y-683D01*
X14473Y-530D01*
X14435Y-454D01*
X14397Y-416D01*
X14321Y-378D01*
X14092Y-378D01*
X14016Y-416D01*
X13978Y-454D01*
X13940Y-530D01*
X13940Y-683D01*
X13978Y-759D01*
X13940Y-1483D02*
X14588Y-1483D01*
X14664Y-1445D01*
X14702Y-1407D01*
X14740Y-1330D01*
X14740Y-1216D01*
X14702Y-1140D01*
X14435Y-1483D02*
X14473Y-1407D01*
X14473Y-1254D01*
X14435Y-1178D01*
X14397Y-1140D01*
X14321Y-1102D01*
X14092Y-1102D01*
X14016Y-1140D01*
X13978Y-1178D01*
X13940Y-1254D01*
X13940Y-1407D01*
X13978Y-1483D01*
X14435Y-2169D02*
X14473Y-2092D01*
X14473Y-1940D01*
X14435Y-1864D01*
X14359Y-1826D01*
X14054Y-1826D01*
X13978Y-1864D01*
X13940Y-1940D01*
X13940Y-2092D01*
X13978Y-2169D01*
X14054Y-2207D01*
X14130Y-2207D01*
X14207Y-1826D01*
X4607Y12921D02*
X4607Y12064D01*
X6107Y12492D02*
X4607Y12492D01*
X6107Y11564D02*
X4607Y11564D01*
X6107Y10921D02*
X5321Y10921D01*
X5178Y10992D01*
X5107Y11135D01*
X5107Y11349D01*
X5178Y11492D01*
X5250Y11564D01*
X6107Y9992D02*
X6035Y10135D01*
X5964Y10207D01*
X5821Y10278D01*
X5392Y10278D01*
X5250Y10207D01*
X5178Y10135D01*
X5107Y9992D01*
X5107Y9778D01*
X5178Y9635D01*
X5250Y9564D01*
X5392Y9492D01*
X5821Y9492D01*
X5964Y9564D01*
X6035Y9635D01*
X6107Y9778D01*
X6107Y9992D01*
X5107Y9064D02*
X5107Y8492D01*
X4607Y8849D02*
X5892Y8849D01*
X6035Y8778D01*
X6107Y8635D01*
X6107Y8492D01*
X6035Y7349D02*
X6107Y7492D01*
X6107Y7778D01*
X6035Y7921D01*
X5964Y7992D01*
X5821Y8064D01*
X5392Y8064D01*
X5250Y7992D01*
X5178Y7921D01*
X5107Y7778D01*
X5107Y7492D01*
X5178Y7349D01*
X6107Y6492D02*
X6035Y6635D01*
X5964Y6707D01*
X5821Y6778D01*
X5392Y6778D01*
X5250Y6707D01*
X5178Y6635D01*
X5107Y6492D01*
X5107Y6278D01*
X5178Y6135D01*
X5250Y6064D01*
X5392Y5992D01*
X5821Y5992D01*
X5964Y6064D01*
X6035Y6135D01*
X6107Y6278D01*
X6107Y6492D01*
X5107Y5349D02*
X6107Y5349D01*
X5250Y5349D02*
X5178Y5278D01*
X5107Y5135D01*
X5107Y4921D01*
X5178Y4778D01*
X5321Y4707D01*
X6107Y4707D01*
X4607Y2564D02*
X4607Y2421D01*
X4678Y2278D01*
X4750Y2207D01*
X4892Y2135D01*
X5178Y2064D01*
X5535Y2064D01*
X5821Y2135D01*
X5964Y2207D01*
X6035Y2278D01*
X6107Y2421D01*
X6107Y2564D01*
X6035Y2707D01*
X5964Y2778D01*
X5821Y2849D01*
X5535Y2921D01*
X5178Y2921D01*
X4892Y2849D01*
X4750Y2778D01*
X4678Y2707D01*
X4607Y2564D01*
X6107Y1564D02*
X5107Y778D01*
X5107Y1564D02*
X6107Y778D01*
X5107Y-435D02*
X6107Y-435D01*
X4535Y-78D02*
X5607Y278D01*
X5607Y-650D01*
X2283Y14950D02*
X2283Y14616D01*
X2483Y15016D02*
X1783Y14783D01*
X2483Y14550D01*
X2416Y13383D02*
X2450Y13416D01*
X2483Y13516D01*
X2483Y13583D01*
X2450Y13683D01*
X2383Y13750D01*
X2316Y13783D01*
X2183Y13816D01*
X2083Y13816D01*
X1950Y13783D01*
X1883Y13750D01*
X1816Y13683D01*
X1783Y13583D01*
X1783Y13516D01*
X1816Y13416D01*
X1850Y13383D01*
X2483Y12983D02*
X2450Y13050D01*
X2416Y13083D01*
X2350Y13116D01*
X2150Y13116D01*
X2083Y13083D01*
X2050Y13050D01*
X2016Y12983D01*
X2016Y12883D01*
X2050Y12816D01*
X2083Y12783D01*
X2150Y12750D01*
X2350Y12750D01*
X2416Y12783D01*
X2450Y12816D01*
X2483Y12883D01*
X2483Y12983D01*
X2216Y12450D02*
X2216Y11916D01*
X2016Y11583D02*
X2716Y11583D01*
X2050Y11583D02*
X2016Y11516D01*
X2016Y11383D01*
X2050Y11316D01*
X2083Y11283D01*
X2150Y11250D01*
X2350Y11250D01*
X2416Y11283D01*
X2450Y11316D01*
X2483Y11383D01*
X2483Y11516D01*
X2450Y11583D01*
X2483Y10950D02*
X2016Y10950D01*
X2150Y10950D02*
X2083Y10916D01*
X2050Y10883D01*
X2016Y10816D01*
X2016Y10750D01*
X2483Y10416D02*
X2450Y10483D01*
X2416Y10516D01*
X2350Y10550D01*
X2150Y10550D01*
X2083Y10516D01*
X2050Y10483D01*
X2016Y10416D01*
X2016Y10316D01*
X2050Y10250D01*
X2083Y10216D01*
X2150Y10183D01*
X2350Y10183D01*
X2416Y10216D01*
X2450Y10250D01*
X2483Y10316D01*
X2483Y10416D01*
X2483Y9583D02*
X1783Y9583D01*
X2450Y9583D02*
X2483Y9650D01*
X2483Y9783D01*
X2450Y9850D01*
X2416Y9883D01*
X2350Y9916D01*
X2150Y9916D01*
X2083Y9883D01*
X2050Y9850D01*
X2016Y9783D01*
X2016Y9650D01*
X2050Y9583D01*
X2016Y8950D02*
X2483Y8950D01*
X2016Y9250D02*
X2383Y9250D01*
X2450Y9216D01*
X2483Y9150D01*
X2483Y9050D01*
X2450Y8983D01*
X2416Y8950D01*
X2450Y8316D02*
X2483Y8383D01*
X2483Y8516D01*
X2450Y8583D01*
X2416Y8616D01*
X2350Y8650D01*
X2150Y8650D01*
X2083Y8616D01*
X2050Y8583D01*
X2016Y8516D01*
X2016Y8383D01*
X2050Y8316D01*
X2016Y8116D02*
X2016Y7850D01*
X1783Y8016D02*
X2383Y8016D01*
X2450Y7983D01*
X2483Y7916D01*
X2483Y7850D01*
X2483Y7616D02*
X2016Y7616D01*
X1783Y7616D02*
X1816Y7650D01*
X1850Y7616D01*
X1816Y7583D01*
X1783Y7616D01*
X1850Y7616D01*
X2483Y7183D02*
X2450Y7250D01*
X2416Y7283D01*
X2350Y7316D01*
X2150Y7316D01*
X2083Y7283D01*
X2050Y7250D01*
X2016Y7183D01*
X2016Y7083D01*
X2050Y7016D01*
X2083Y6983D01*
X2150Y6950D01*
X2350Y6950D01*
X2416Y6983D01*
X2450Y7016D01*
X2483Y7083D01*
X2483Y7183D01*
X2016Y6650D02*
X2483Y6650D01*
X2083Y6650D02*
X2050Y6616D01*
X2016Y6550D01*
X2016Y6450D01*
X2050Y6383D01*
X2116Y6350D01*
X2483Y6350D01*
X2483Y5383D02*
X2450Y5449D01*
X2416Y5483D01*
X2350Y5516D01*
X2150Y5516D01*
X2083Y5483D01*
X2050Y5449D01*
X2016Y5383D01*
X2016Y5283D01*
X2050Y5216D01*
X2083Y5183D01*
X2150Y5149D01*
X2350Y5149D01*
X2416Y5183D01*
X2450Y5216D01*
X2483Y5283D01*
X2483Y5383D01*
X2016Y4949D02*
X2016Y4683D01*
X2483Y4849D02*
X1883Y4849D01*
X1816Y4816D01*
X1783Y4749D01*
X1783Y4683D01*
X1783Y3983D02*
X2483Y3816D01*
X1983Y3683D01*
X2483Y3549D01*
X1783Y3383D01*
X2483Y3016D02*
X2450Y3083D01*
X2416Y3116D01*
X2350Y3149D01*
X2150Y3149D01*
X2083Y3116D01*
X2050Y3083D01*
X2016Y3016D01*
X2016Y2916D01*
X2050Y2849D01*
X2083Y2816D01*
X2150Y2783D01*
X2350Y2783D01*
X2416Y2816D01*
X2450Y2849D01*
X2483Y2916D01*
X2483Y3016D01*
X2483Y2483D02*
X2016Y2483D01*
X2150Y2483D02*
X2083Y2449D01*
X2050Y2416D01*
X2016Y2349D01*
X2016Y2283D01*
X2483Y2049D02*
X1783Y2049D01*
X2216Y1983D02*
X2483Y1783D01*
X2016Y1783D02*
X2283Y2049D01*
X2450Y1516D02*
X2483Y1449D01*
X2483Y1316D01*
X2450Y1249D01*
X2383Y1216D01*
X2350Y1216D01*
X2283Y1249D01*
X2250Y1316D01*
X2250Y1416D01*
X2216Y1483D01*
X2150Y1516D01*
X2116Y1516D01*
X2050Y1483D01*
X2016Y1416D01*
X2016Y1316D01*
X2050Y1249D01*
X2483Y916D02*
X1783Y916D01*
X2483Y616D02*
X2116Y616D01*
X2050Y649D01*
X2016Y716D01*
X2016Y816D01*
X2050Y883D01*
X2083Y916D01*
X2483Y183D02*
X2450Y249D01*
X2416Y283D01*
X2350Y316D01*
X2150Y316D01*
X2083Y283D01*
X2050Y249D01*
X2016Y183D01*
X2016Y83D01*
X2050Y16D01*
X2083Y-16D01*
X2150Y-50D01*
X2350Y-50D01*
X2416Y-16D01*
X2450Y16D01*
X2483Y83D01*
X2483Y183D01*
X2016Y-350D02*
X2716Y-350D01*
X2050Y-350D02*
X2016Y-416D01*
X2016Y-550D01*
X2050Y-616D01*
X2083Y-650D01*
X2150Y-683D01*
X2350Y-683D01*
X2416Y-650D01*
X2450Y-616D01*
X2483Y-550D01*
X2483Y-416D01*
X2450Y-350D01*
X2083Y-1616D02*
X2050Y-1550D01*
X2016Y-1516D01*
X1950Y-1483D01*
X1916Y-1483D01*
X1850Y-1516D01*
X1816Y-1550D01*
X1783Y-1616D01*
X1783Y-1750D01*
X1816Y-1816D01*
X1850Y-1850D01*
X1916Y-1883D01*
X1950Y-1883D01*
X2016Y-1850D01*
X2050Y-1816D01*
X2083Y-1750D01*
X2083Y-1616D01*
X2116Y-1550D01*
X2150Y-1516D01*
X2216Y-1483D01*
X2350Y-1483D01*
X2416Y-1516D01*
X2450Y-1550D01*
X2483Y-1616D01*
X2483Y-1750D01*
X2450Y-1816D01*
X2416Y-1850D01*
X2350Y-1883D01*
X2216Y-1883D01*
X2150Y-1850D01*
X2116Y-1816D01*
X2083Y-1750D01*
X2083Y-2283D02*
X2050Y-2216D01*
X2016Y-2183D01*
X1950Y-2150D01*
X1916Y-2150D01*
X1850Y-2183D01*
X1816Y-2216D01*
X1783Y-2283D01*
X1783Y-2416D01*
X1816Y-2483D01*
X1850Y-2516D01*
X1916Y-2550D01*
X1950Y-2550D01*
X2016Y-2516D01*
X2050Y-2483D01*
X2083Y-2416D01*
X2083Y-2283D01*
X2116Y-2216D01*
X2150Y-2183D01*
X2216Y-2150D01*
X2350Y-2150D01*
X2416Y-2183D01*
X2450Y-2216D01*
X2483Y-2283D01*
X2483Y-2416D01*
X2450Y-2483D01*
X2416Y-2516D01*
X2350Y-2550D01*
X2216Y-2550D01*
X2150Y-2516D01*
X2116Y-2483D01*
X2083Y-2416D01*
X3563Y7766D02*
X3196Y7766D01*
X3130Y7800D01*
X3096Y7866D01*
X3096Y8000D01*
X3130Y8066D01*
X3530Y7766D02*
X3563Y7833D01*
X3563Y8000D01*
X3530Y8066D01*
X3463Y8100D01*
X3396Y8100D01*
X3330Y8066D01*
X3296Y8000D01*
X3296Y7833D01*
X3263Y7766D01*
X3096Y7433D02*
X3563Y7433D01*
X3163Y7433D02*
X3130Y7400D01*
X3096Y7333D01*
X3096Y7233D01*
X3130Y7166D01*
X3196Y7133D01*
X3563Y7133D01*
X3563Y6500D02*
X2863Y6500D01*
X3530Y6500D02*
X3563Y6566D01*
X3563Y6700D01*
X3530Y6766D01*
X3496Y6800D01*
X3430Y6833D01*
X3230Y6833D01*
X3163Y6800D01*
X3130Y6766D01*
X3096Y6700D01*
X3096Y6566D01*
X3130Y6500D01*
X3096Y5733D02*
X3096Y5466D01*
X2863Y5633D02*
X3463Y5633D01*
X3530Y5599D01*
X3563Y5533D01*
X3563Y5466D01*
X3563Y5233D02*
X2863Y5233D01*
X3563Y4933D02*
X3196Y4933D01*
X3130Y4966D01*
X3096Y5033D01*
X3096Y5133D01*
X3130Y5199D01*
X3163Y5233D01*
X3530Y4333D02*
X3563Y4399D01*
X3563Y4533D01*
X3530Y4599D01*
X3463Y4633D01*
X3196Y4633D01*
X3130Y4599D01*
X3096Y4533D01*
X3096Y4399D01*
X3130Y4333D01*
X3196Y4299D01*
X3263Y4299D01*
X3330Y4633D01*
G54D10*
X39000Y16500D02*
X38750Y16750D01*
X38750Y-4250D02*
X39000Y-4000D01*
X-5000Y-4250D02*
X-5250Y-4000D01*
X-5250Y16500D02*
X-5000Y16750D01*
X-5250Y11100D02*
X-5250Y-4000D01*
X-5250Y16500D02*
X-5250Y12050D01*
X-1000Y11100D02*
X-5250Y11100D01*
X-1000Y12050D02*
X-1000Y11100D01*
X-5250Y12050D02*
X-1000Y12050D01*
G54D13*
X38750Y16750D02*
X-5000Y16750D01*
G54D10*
X39000Y-4000D02*
X39000Y16500D01*
G54D13*
X-5000Y-4250D02*
X38750Y-4250D01*
G54D10*
X30800Y6150D02*
G75*
G03X30800Y6150I-3500J0D01*
G74*
G01*
G54D14*
X24278Y2792D02*
X24307Y2707D01*
X24335Y2678D01*
X24392Y2650D01*
X24478Y2650D01*
X24535Y2678D01*
X24564Y2707D01*
X24592Y2764D01*
X24592Y2992D01*
X23992Y2992D01*
X23992Y2792D01*
X24021Y2735D01*
X24050Y2707D01*
X24107Y2678D01*
X24164Y2678D01*
X24221Y2707D01*
X24250Y2735D01*
X24278Y2792D01*
X24278Y2992D01*
X24592Y2078D02*
X24592Y2421D01*
X24592Y2250D02*
X23992Y2250D01*
X24078Y2307D01*
X24135Y2364D01*
X24164Y2421D01*
M02*
