G04 (created by PCBNEW (2012-11-15 BZR 3804)-stable) date Thu 14 Feb 2013 01:13:30 CST*
%MOIN*%
G04 Gerber Fmt 3.4, Leading zero omitted, Abs format*
%FSLAX34Y34*%
G01*
G70*
G90*
G04 APERTURE LIST*
%ADD10C,0.005*%
%ADD11C,0.006*%
%ADD12C,0.00590551*%
%ADD13C,0.00787402*%
%ADD14C,0.011811*%
G04 APERTURE END LIST*
G54D10*
G54D11*
X39000Y16500D02*
X38750Y16750D01*
X38750Y-4250D02*
X39000Y-4000D01*
X-5000Y-4250D02*
X-5250Y-4000D01*
X-5250Y16500D02*
X-5000Y16750D01*
X-5250Y11100D02*
X-5250Y-4000D01*
X-5250Y16500D02*
X-5250Y12050D01*
X-1000Y11100D02*
X-5250Y11100D01*
X-1000Y12050D02*
X-1000Y11100D01*
X-5250Y12050D02*
X-1000Y12050D01*
G54D12*
X38750Y16750D02*
X-5000Y16750D01*
G54D11*
X39000Y-4000D02*
X39000Y16500D01*
G54D12*
X-5000Y-4250D02*
X38750Y-4250D01*
G54D13*
X-4234Y7234D02*
X-2265Y5265D01*
X-2265Y7234D02*
X-4234Y5265D01*
G54D14*
X-4211Y-6057D02*
X-4211Y-4876D01*
X-3930Y-4876D01*
X-3761Y-4932D01*
X-3648Y-5044D01*
X-3592Y-5157D01*
X-3536Y-5382D01*
X-3536Y-5551D01*
X-3592Y-5776D01*
X-3648Y-5888D01*
X-3761Y-6001D01*
X-3930Y-6057D01*
X-4211Y-6057D01*
X-3030Y-6057D02*
X-3030Y-5269D01*
X-3030Y-5494D02*
X-2974Y-5382D01*
X-2917Y-5326D01*
X-2805Y-5269D01*
X-2692Y-5269D01*
X-2299Y-6057D02*
X-2299Y-5269D01*
X-2299Y-4876D02*
X-2355Y-4932D01*
X-2299Y-4988D01*
X-2242Y-4932D01*
X-2299Y-4876D01*
X-2299Y-4988D01*
X-1567Y-6057D02*
X-1680Y-6001D01*
X-1736Y-5888D01*
X-1736Y-4876D01*
X-949Y-6057D02*
X-1061Y-6001D01*
X-1118Y-5888D01*
X-1118Y-4876D01*
X400Y-6057D02*
X400Y-4876D01*
X794Y-5719D01*
X1187Y-4876D01*
X1187Y-6057D01*
X2256Y-6057D02*
X2256Y-5438D01*
X2200Y-5326D01*
X2087Y-5269D01*
X1862Y-5269D01*
X1750Y-5326D01*
X2256Y-6001D02*
X2144Y-6057D01*
X1862Y-6057D01*
X1750Y-6001D01*
X1694Y-5888D01*
X1694Y-5776D01*
X1750Y-5663D01*
X1862Y-5607D01*
X2144Y-5607D01*
X2256Y-5551D01*
X2818Y-5269D02*
X2818Y-6450D01*
X2818Y-5326D02*
X2931Y-5269D01*
X3156Y-5269D01*
X3268Y-5326D01*
X3325Y-5382D01*
X3381Y-5494D01*
X3381Y-5832D01*
X3325Y-5944D01*
X3268Y-6001D01*
X3156Y-6057D01*
X2931Y-6057D01*
X2818Y-6001D01*
X3887Y-5944D02*
X3943Y-6001D01*
X3887Y-6057D01*
X3831Y-6001D01*
X3887Y-5944D01*
X3887Y-6057D01*
X3887Y-5326D02*
X3943Y-5382D01*
X3887Y-5438D01*
X3831Y-5382D01*
X3887Y-5326D01*
X3887Y-5438D01*
X-7249Y-7075D02*
X-5280Y-9044D01*
X-5280Y-7075D02*
X-7249Y-9044D01*
X-3648Y-7356D02*
X-4211Y-7356D01*
X-4267Y-7918D01*
X-4211Y-7862D01*
X-4098Y-7806D01*
X-3817Y-7806D01*
X-3705Y-7862D01*
X-3648Y-7918D01*
X-3592Y-8031D01*
X-3592Y-8312D01*
X-3648Y-8425D01*
X-3705Y-8481D01*
X-3817Y-8537D01*
X-4098Y-8537D01*
X-4211Y-8481D01*
X-4267Y-8425D01*
X-3086Y-8425D02*
X-3030Y-8481D01*
X-3086Y-8537D01*
X-3142Y-8481D01*
X-3086Y-8425D01*
X-3086Y-8537D01*
X-2299Y-7356D02*
X-2186Y-7356D01*
X-2074Y-7412D01*
X-2017Y-7468D01*
X-1961Y-7581D01*
X-1905Y-7806D01*
X-1905Y-8087D01*
X-1961Y-8312D01*
X-2017Y-8425D01*
X-2074Y-8481D01*
X-2186Y-8537D01*
X-2299Y-8537D01*
X-2411Y-8481D01*
X-2467Y-8425D01*
X-2524Y-8312D01*
X-2580Y-8087D01*
X-2580Y-7806D01*
X-2524Y-7581D01*
X-2467Y-7468D01*
X-2411Y-7412D01*
X-2299Y-7356D01*
X-1174Y-7356D02*
X-1061Y-7356D01*
X-949Y-7412D01*
X-893Y-7468D01*
X-836Y-7581D01*
X-780Y-7806D01*
X-780Y-8087D01*
X-836Y-8312D01*
X-893Y-8425D01*
X-949Y-8481D01*
X-1061Y-8537D01*
X-1174Y-8537D01*
X-1286Y-8481D01*
X-1342Y-8425D01*
X-1399Y-8312D01*
X-1455Y-8087D01*
X-1455Y-7806D01*
X-1399Y-7581D01*
X-1342Y-7468D01*
X-1286Y-7412D01*
X-1174Y-7356D01*
X-274Y-8537D02*
X-274Y-7750D01*
X-274Y-7862D02*
X-218Y-7806D01*
X-105Y-7750D01*
X63Y-7750D01*
X175Y-7806D01*
X231Y-7918D01*
X231Y-8537D01*
X231Y-7918D02*
X288Y-7806D01*
X400Y-7750D01*
X569Y-7750D01*
X681Y-7806D01*
X737Y-7918D01*
X737Y-8537D01*
X1300Y-8537D02*
X1300Y-7750D01*
X1300Y-7862D02*
X1356Y-7806D01*
X1469Y-7750D01*
X1637Y-7750D01*
X1750Y-7806D01*
X1806Y-7918D01*
X1806Y-8537D01*
X1806Y-7918D02*
X1862Y-7806D01*
X1975Y-7750D01*
X2144Y-7750D01*
X2256Y-7806D01*
X2312Y-7918D01*
X2312Y-8537D01*
X4618Y-7300D02*
X3606Y-8818D01*
X6137Y-7356D02*
X6249Y-7356D01*
X6362Y-7412D01*
X6418Y-7468D01*
X6474Y-7581D01*
X6531Y-7806D01*
X6531Y-8087D01*
X6474Y-8312D01*
X6418Y-8425D01*
X6362Y-8481D01*
X6249Y-8537D01*
X6137Y-8537D01*
X6024Y-8481D01*
X5968Y-8425D01*
X5912Y-8312D01*
X5856Y-8087D01*
X5856Y-7806D01*
X5912Y-7581D01*
X5968Y-7468D01*
X6024Y-7412D01*
X6137Y-7356D01*
X7037Y-8425D02*
X7093Y-8481D01*
X7037Y-8537D01*
X6980Y-8481D01*
X7037Y-8425D01*
X7037Y-8537D01*
X8218Y-8537D02*
X7543Y-8537D01*
X7880Y-8537D02*
X7880Y-7356D01*
X7768Y-7525D01*
X7655Y-7637D01*
X7543Y-7693D01*
X8780Y-8537D02*
X9005Y-8537D01*
X9118Y-8481D01*
X9174Y-8425D01*
X9286Y-8256D01*
X9343Y-8031D01*
X9343Y-7581D01*
X9286Y-7468D01*
X9230Y-7412D01*
X9118Y-7356D01*
X8893Y-7356D01*
X8780Y-7412D01*
X8724Y-7468D01*
X8668Y-7581D01*
X8668Y-7862D01*
X8724Y-7975D01*
X8780Y-8031D01*
X8893Y-8087D01*
X9118Y-8087D01*
X9230Y-8031D01*
X9286Y-7975D01*
X9343Y-7862D01*
X9736Y-7356D02*
X10524Y-7356D01*
X10018Y-8537D01*
X10917Y-7356D02*
X10917Y-7581D01*
X11367Y-7356D02*
X11367Y-7581D01*
X13111Y-8987D02*
X13055Y-8931D01*
X12942Y-8762D01*
X12886Y-8650D01*
X12830Y-8481D01*
X12773Y-8200D01*
X12773Y-7975D01*
X12830Y-7693D01*
X12886Y-7525D01*
X12942Y-7412D01*
X13055Y-7244D01*
X13111Y-7187D01*
X14180Y-8537D02*
X13505Y-8537D01*
X13842Y-8537D02*
X13842Y-7356D01*
X13730Y-7525D01*
X13617Y-7637D01*
X13505Y-7693D01*
X15586Y-8537D02*
X15586Y-7356D01*
X16092Y-8537D02*
X16092Y-7918D01*
X16036Y-7806D01*
X15923Y-7750D01*
X15754Y-7750D01*
X15642Y-7806D01*
X15586Y-7862D01*
X16823Y-8537D02*
X16711Y-8481D01*
X16654Y-8425D01*
X16598Y-8312D01*
X16598Y-7975D01*
X16654Y-7862D01*
X16711Y-7806D01*
X16823Y-7750D01*
X16992Y-7750D01*
X17104Y-7806D01*
X17160Y-7862D01*
X17217Y-7975D01*
X17217Y-8312D01*
X17160Y-8425D01*
X17104Y-8481D01*
X16992Y-8537D01*
X16823Y-8537D01*
X17892Y-8537D02*
X17779Y-8481D01*
X17723Y-8368D01*
X17723Y-7356D01*
X18791Y-8481D02*
X18679Y-8537D01*
X18454Y-8537D01*
X18342Y-8481D01*
X18285Y-8368D01*
X18285Y-7918D01*
X18342Y-7806D01*
X18454Y-7750D01*
X18679Y-7750D01*
X18791Y-7806D01*
X18848Y-7918D01*
X18848Y-8031D01*
X18285Y-8143D01*
X19241Y-8987D02*
X19298Y-8931D01*
X19410Y-8762D01*
X19466Y-8650D01*
X19523Y-8481D01*
X19579Y-8200D01*
X19579Y-7975D01*
X19523Y-7693D01*
X19466Y-7525D01*
X19410Y-7412D01*
X19298Y-7244D01*
X19241Y-7187D01*
M02*
