G04 (created by PCBNEW (2012-11-15 BZR 3804)-stable) date Thu 14 Feb 2013 01:13:30 CST*
%MOIN*%
G04 Gerber Fmt 3.4, Leading zero omitted, Abs format*
%FSLAX34Y34*%
G01*
G70*
G90*
G04 APERTURE LIST*
%ADD10C,0.005*%
%ADD11C,0.006*%
%ADD12C,0.00590551*%
%ADD13C,0.00787402*%
%ADD14C,0.011811*%
G04 APERTURE END LIST*
G54D10*
G54D11*
X39000Y16500D02*
X38750Y16750D01*
X38750Y-4250D02*
X39000Y-4000D01*
X-5000Y-4250D02*
X-5250Y-4000D01*
X-5250Y16500D02*
X-5000Y16750D01*
X-5250Y11100D02*
X-5250Y-4000D01*
X-5250Y16500D02*
X-5250Y12050D01*
X-1000Y11100D02*
X-5250Y11100D01*
X-1000Y12050D02*
X-1000Y11100D01*
X-5250Y12050D02*
X-1000Y12050D01*
G54D12*
X38750Y16750D02*
X-5000Y16750D01*
G54D11*
X39000Y-4000D02*
X39000Y16500D01*
G54D12*
X-5000Y-4250D02*
X38750Y-4250D01*
G54D13*
X27200Y6950D02*
X27400Y6750D01*
X27400Y6950D02*
X27200Y6750D01*
X27200Y6250D02*
X27400Y6050D01*
X27400Y6250D02*
X27200Y6050D01*
X27200Y5550D02*
X27400Y5350D01*
X27400Y5550D02*
X27200Y5350D01*
X27900Y6950D02*
X28100Y6750D01*
X28100Y6950D02*
X27900Y6750D01*
X27900Y5550D02*
X28100Y5350D01*
X28100Y5550D02*
X27900Y5350D01*
X28600Y6950D02*
X28800Y6750D01*
X28800Y6950D02*
X28600Y6750D01*
X28600Y6250D02*
X28800Y6050D01*
X28800Y6250D02*
X28600Y6050D01*
X28600Y5550D02*
X28800Y5350D01*
X28800Y5550D02*
X28600Y5350D01*
X850Y11900D02*
G75*
G03X850Y11900I-150J0D01*
G74*
G01*
X1600Y10800D02*
G75*
G03X1600Y10800I-150J0D01*
G74*
G01*
X1600Y8850D02*
G75*
G03X1600Y8850I-150J0D01*
G74*
G01*
X1600Y6850D02*
G75*
G03X1600Y6850I-150J0D01*
G74*
G01*
X1600Y4850D02*
G75*
G03X1600Y4850I-150J0D01*
G74*
G01*
X1600Y2900D02*
G75*
G03X1600Y2900I-150J0D01*
G74*
G01*
X2400Y15500D02*
G75*
G03X2400Y15500I-150J0D01*
G74*
G01*
X3200Y10800D02*
G75*
G03X3200Y10800I-150J0D01*
G74*
G01*
X3200Y8850D02*
G75*
G03X3200Y8850I-150J0D01*
G74*
G01*
X3200Y6850D02*
G75*
G03X3200Y6850I-150J0D01*
G74*
G01*
X3200Y4850D02*
G75*
G03X3200Y4850I-150J0D01*
G74*
G01*
X3200Y2900D02*
G75*
G03X3200Y2900I-150J0D01*
G74*
G01*
X4800Y10800D02*
G75*
G03X4800Y10800I-150J0D01*
G74*
G01*
X4800Y8850D02*
G75*
G03X4800Y8850I-150J0D01*
G74*
G01*
X4800Y6850D02*
G75*
G03X4800Y6850I-150J0D01*
G74*
G01*
X4800Y4850D02*
G75*
G03X4800Y4850I-150J0D01*
G74*
G01*
X4800Y2900D02*
G75*
G03X4800Y2900I-150J0D01*
G74*
G01*
X5650Y12900D02*
G75*
G03X5650Y12900I-150J0D01*
G74*
G01*
X6400Y10800D02*
G75*
G03X6400Y10800I-150J0D01*
G74*
G01*
X6400Y8850D02*
G75*
G03X6400Y8850I-150J0D01*
G74*
G01*
X6400Y6850D02*
G75*
G03X6400Y6850I-150J0D01*
G74*
G01*
X6400Y4850D02*
G75*
G03X6400Y4850I-150J0D01*
G74*
G01*
X6400Y2900D02*
G75*
G03X6400Y2900I-150J0D01*
G74*
G01*
X8000Y10800D02*
G75*
G03X8000Y10800I-150J0D01*
G74*
G01*
X8000Y8850D02*
G75*
G03X8000Y8850I-150J0D01*
G74*
G01*
X8000Y6850D02*
G75*
G03X8000Y6850I-150J0D01*
G74*
G01*
X8000Y4850D02*
G75*
G03X8000Y4850I-150J0D01*
G74*
G01*
X8000Y2900D02*
G75*
G03X8000Y2900I-150J0D01*
G74*
G01*
X9600Y13250D02*
G75*
G03X9600Y13250I-150J0D01*
G74*
G01*
X9600Y10800D02*
G75*
G03X9600Y10800I-150J0D01*
G74*
G01*
X9600Y8850D02*
G75*
G03X9600Y8850I-150J0D01*
G74*
G01*
X9600Y6850D02*
G75*
G03X9600Y6850I-150J0D01*
G74*
G01*
X9600Y4850D02*
G75*
G03X9600Y4850I-150J0D01*
G74*
G01*
X9600Y2900D02*
G75*
G03X9600Y2900I-150J0D01*
G74*
G01*
X11200Y10800D02*
G75*
G03X11200Y10800I-150J0D01*
G74*
G01*
X11200Y8850D02*
G75*
G03X11200Y8850I-150J0D01*
G74*
G01*
X11200Y6850D02*
G75*
G03X11200Y6850I-150J0D01*
G74*
G01*
X11200Y4850D02*
G75*
G03X11200Y4850I-150J0D01*
G74*
G01*
X11200Y2900D02*
G75*
G03X11200Y2900I-150J0D01*
G74*
G01*
X12800Y10800D02*
G75*
G03X12800Y10800I-150J0D01*
G74*
G01*
X12800Y8850D02*
G75*
G03X12800Y8850I-150J0D01*
G74*
G01*
X12800Y6850D02*
G75*
G03X12800Y6850I-150J0D01*
G74*
G01*
X12800Y4850D02*
G75*
G03X12800Y4850I-150J0D01*
G74*
G01*
X12800Y2900D02*
G75*
G03X12800Y2900I-150J0D01*
G74*
G01*
X13400Y14750D02*
G75*
G03X13400Y14750I-150J0D01*
G74*
G01*
X13400Y14000D02*
G75*
G03X13400Y14000I-150J0D01*
G74*
G01*
X13550Y10100D02*
G75*
G03X13550Y10100I-150J0D01*
G74*
G01*
X13550Y8100D02*
G75*
G03X13550Y8100I-150J0D01*
G74*
G01*
X13550Y6100D02*
G75*
G03X13550Y6100I-150J0D01*
G74*
G01*
X13550Y4100D02*
G75*
G03X13550Y4100I-150J0D01*
G74*
G01*
X13550Y3400D02*
G75*
G03X13550Y3400I-150J0D01*
G74*
G01*
X15900Y11400D02*
G75*
G03X15900Y11400I-150J0D01*
G74*
G01*
X15900Y6250D02*
G75*
G03X15900Y6250I-150J0D01*
G74*
G01*
X17600Y5200D02*
G75*
G03X17600Y5200I-150J0D01*
G74*
G01*
X20200Y9100D02*
G75*
G03X20200Y9100I-150J0D01*
G74*
G01*
X20200Y8450D02*
G75*
G03X20200Y8450I-150J0D01*
G74*
G01*
X20700Y13900D02*
G75*
G03X20700Y13900I-150J0D01*
G74*
G01*
X21350Y13900D02*
G75*
G03X21350Y13900I-150J0D01*
G74*
G01*
X22600Y5050D02*
G75*
G03X22600Y5050I-150J0D01*
G74*
G01*
X22600Y4250D02*
G75*
G03X22600Y4250I-150J0D01*
G74*
G01*
X23050Y5450D02*
G75*
G03X23050Y5450I-150J0D01*
G74*
G01*
X23050Y4650D02*
G75*
G03X23050Y4650I-150J0D01*
G74*
G01*
X23050Y3850D02*
G75*
G03X23050Y3850I-150J0D01*
G74*
G01*
X23400Y13650D02*
G75*
G03X23400Y13650I-150J0D01*
G74*
G01*
X23850Y12900D02*
G75*
G03X23850Y12900I-150J0D01*
G74*
G01*
X24200Y13650D02*
G75*
G03X24200Y13650I-150J0D01*
G74*
G01*
X24650Y12900D02*
G75*
G03X24650Y12900I-150J0D01*
G74*
G01*
X24650Y12200D02*
G75*
G03X24650Y12200I-150J0D01*
G74*
G01*
X24650Y11400D02*
G75*
G03X24650Y11400I-150J0D01*
G74*
G01*
X24850Y7450D02*
G75*
G03X24850Y7450I-150J0D01*
G74*
G01*
X24850Y5450D02*
G75*
G03X24850Y5450I-150J0D01*
G74*
G01*
X25000Y13650D02*
G75*
G03X25000Y13650I-150J0D01*
G74*
G01*
X25150Y2650D02*
G75*
G03X25150Y2650I-150J0D01*
G74*
G01*
X26000Y-3350D02*
G75*
G03X26000Y-3350I-150J0D01*
G74*
G01*
X27000Y-3350D02*
G75*
G03X27000Y-3350I-150J0D01*
G74*
G01*
X27350Y8750D02*
G75*
G03X27350Y8750I-150J0D01*
G74*
G01*
X27600Y2900D02*
G75*
G03X27600Y2900I-150J0D01*
G74*
G01*
X28500Y50D02*
G75*
G03X28500Y50I-150J0D01*
G74*
G01*
X28500Y-1350D02*
G75*
G03X28500Y-1350I-150J0D01*
G74*
G01*
X28500Y-1950D02*
G75*
G03X28500Y-1950I-150J0D01*
G74*
G01*
X28850Y2400D02*
G75*
G03X28850Y2400I-150J0D01*
G74*
G01*
X29000Y8750D02*
G75*
G03X29000Y8750I-150J0D01*
G74*
G01*
X29250Y9700D02*
G75*
G03X29250Y9700I-150J0D01*
G74*
G01*
X30700Y3450D02*
G75*
G03X30700Y3450I-150J0D01*
G74*
G01*
X30900Y7950D02*
G75*
G03X30900Y7950I-150J0D01*
G74*
G01*
X31450Y6550D02*
G75*
G03X31450Y6550I-150J0D01*
G74*
G01*
X31500Y7950D02*
G75*
G03X31500Y7950I-150J0D01*
G74*
G01*
X31500Y7350D02*
G75*
G03X31500Y7350I-150J0D01*
G74*
G01*
X31500Y3850D02*
G75*
G03X31500Y3850I-150J0D01*
G74*
G01*
X31500Y3200D02*
G75*
G03X31500Y3200I-150J0D01*
G74*
G01*
X37350Y5950D02*
G75*
G03X37350Y5950I-150J0D01*
G74*
G01*
X0Y200D02*
X0Y-200D01*
X-200Y0D02*
X200Y0D01*
X3000Y12450D02*
X3000Y12050D01*
X2800Y12250D02*
X3200Y12250D01*
X4000Y12450D02*
X4000Y12050D01*
X3800Y12250D02*
X4200Y12250D01*
X8150Y15950D02*
X8150Y15550D01*
X7950Y15750D02*
X8350Y15750D01*
X9150Y15950D02*
X9150Y15550D01*
X8950Y15750D02*
X9350Y15750D01*
X10150Y15950D02*
X10150Y15550D01*
X9950Y15750D02*
X10350Y15750D01*
X11150Y15950D02*
X11150Y15550D01*
X10950Y15750D02*
X11350Y15750D01*
X11750Y-3050D02*
X11750Y-3450D01*
X11550Y-3250D02*
X11950Y-3250D01*
X12150Y15950D02*
X12150Y15550D01*
X11950Y15750D02*
X12350Y15750D01*
X12750Y-3050D02*
X12750Y-3450D01*
X12550Y-3250D02*
X12950Y-3250D01*
X13150Y15950D02*
X13150Y15550D01*
X12950Y15750D02*
X13350Y15750D01*
X13750Y-3050D02*
X13750Y-3450D01*
X13550Y-3250D02*
X13950Y-3250D01*
X14150Y15950D02*
X14150Y15550D01*
X13950Y15750D02*
X14350Y15750D01*
X14750Y-3050D02*
X14750Y-3450D01*
X14550Y-3250D02*
X14950Y-3250D01*
X15150Y15950D02*
X15150Y15550D01*
X14950Y15750D02*
X15350Y15750D01*
X15750Y-3050D02*
X15750Y-3450D01*
X15550Y-3250D02*
X15950Y-3250D01*
X16750Y15950D02*
X16750Y15550D01*
X16550Y15750D02*
X16950Y15750D01*
X16750Y-3050D02*
X16750Y-3450D01*
X16550Y-3250D02*
X16950Y-3250D01*
X17000Y12700D02*
X17000Y12300D01*
X16800Y12500D02*
X17200Y12500D01*
X17000Y11700D02*
X17000Y11300D01*
X16800Y11500D02*
X17200Y11500D01*
X17750Y15950D02*
X17750Y15550D01*
X17550Y15750D02*
X17950Y15750D01*
X18000Y12700D02*
X18000Y12300D01*
X17800Y12500D02*
X18200Y12500D01*
X18000Y11700D02*
X18000Y11300D01*
X17800Y11500D02*
X18200Y11500D01*
X18250Y950D02*
X18250Y550D01*
X18050Y750D02*
X18450Y750D01*
X18750Y15950D02*
X18750Y15550D01*
X18550Y15750D02*
X18950Y15750D01*
X18750Y-3050D02*
X18750Y-3450D01*
X18550Y-3250D02*
X18950Y-3250D01*
X19000Y12700D02*
X19000Y12300D01*
X18800Y12500D02*
X19200Y12500D01*
X19000Y11700D02*
X19000Y11300D01*
X18800Y11500D02*
X19200Y11500D01*
X19750Y15950D02*
X19750Y15550D01*
X19550Y15750D02*
X19950Y15750D01*
X19750Y-3050D02*
X19750Y-3450D01*
X19550Y-3250D02*
X19950Y-3250D01*
X20750Y15950D02*
X20750Y15550D01*
X20550Y15750D02*
X20950Y15750D01*
X20750Y-3050D02*
X20750Y-3450D01*
X20550Y-3250D02*
X20950Y-3250D01*
X21750Y15950D02*
X21750Y15550D01*
X21550Y15750D02*
X21950Y15750D01*
X21750Y-3050D02*
X21750Y-3450D01*
X21550Y-3250D02*
X21950Y-3250D01*
X22750Y15950D02*
X22750Y15550D01*
X22550Y15750D02*
X22950Y15750D01*
X22750Y14700D02*
X22750Y14300D01*
X22550Y14500D02*
X22950Y14500D01*
X22750Y-3050D02*
X22750Y-3450D01*
X22550Y-3250D02*
X22950Y-3250D01*
X23750Y15950D02*
X23750Y15550D01*
X23550Y15750D02*
X23950Y15750D01*
X23750Y14700D02*
X23750Y14300D01*
X23550Y14500D02*
X23950Y14500D01*
X23750Y-3050D02*
X23750Y-3450D01*
X23550Y-3250D02*
X23950Y-3250D01*
X27300Y6350D02*
X27300Y5950D01*
X27100Y6150D02*
X27500Y6150D01*
G54D14*
X-4211Y-6057D02*
X-4211Y-4876D01*
X-3930Y-4876D01*
X-3761Y-4932D01*
X-3648Y-5044D01*
X-3592Y-5157D01*
X-3536Y-5382D01*
X-3536Y-5551D01*
X-3592Y-5776D01*
X-3648Y-5888D01*
X-3761Y-6001D01*
X-3930Y-6057D01*
X-4211Y-6057D01*
X-3030Y-6057D02*
X-3030Y-5269D01*
X-3030Y-5494D02*
X-2974Y-5382D01*
X-2917Y-5326D01*
X-2805Y-5269D01*
X-2692Y-5269D01*
X-2299Y-6057D02*
X-2299Y-5269D01*
X-2299Y-4876D02*
X-2355Y-4932D01*
X-2299Y-4988D01*
X-2242Y-4932D01*
X-2299Y-4876D01*
X-2299Y-4988D01*
X-1567Y-6057D02*
X-1680Y-6001D01*
X-1736Y-5888D01*
X-1736Y-4876D01*
X-949Y-6057D02*
X-1061Y-6001D01*
X-1118Y-5888D01*
X-1118Y-4876D01*
X400Y-6057D02*
X400Y-4876D01*
X794Y-5719D01*
X1187Y-4876D01*
X1187Y-6057D01*
X2256Y-6057D02*
X2256Y-5438D01*
X2200Y-5326D01*
X2087Y-5269D01*
X1862Y-5269D01*
X1750Y-5326D01*
X2256Y-6001D02*
X2144Y-6057D01*
X1862Y-6057D01*
X1750Y-6001D01*
X1694Y-5888D01*
X1694Y-5776D01*
X1750Y-5663D01*
X1862Y-5607D01*
X2144Y-5607D01*
X2256Y-5551D01*
X2818Y-5269D02*
X2818Y-6450D01*
X2818Y-5326D02*
X2931Y-5269D01*
X3156Y-5269D01*
X3268Y-5326D01*
X3325Y-5382D01*
X3381Y-5494D01*
X3381Y-5832D01*
X3325Y-5944D01*
X3268Y-6001D01*
X3156Y-6057D01*
X2931Y-6057D01*
X2818Y-6001D01*
X3887Y-5944D02*
X3943Y-6001D01*
X3887Y-6057D01*
X3831Y-6001D01*
X3887Y-5944D01*
X3887Y-6057D01*
X3887Y-5326D02*
X3943Y-5382D01*
X3887Y-5438D01*
X3831Y-5382D01*
X3887Y-5326D01*
X3887Y-5438D01*
X-5480Y-7959D02*
X-5280Y-8159D01*
X-5280Y-7959D02*
X-5480Y-8159D01*
X-3986Y-7356D02*
X-3873Y-7356D01*
X-3761Y-7412D01*
X-3705Y-7468D01*
X-3648Y-7581D01*
X-3592Y-7806D01*
X-3592Y-8087D01*
X-3648Y-8312D01*
X-3705Y-8425D01*
X-3761Y-8481D01*
X-3873Y-8537D01*
X-3986Y-8537D01*
X-4098Y-8481D01*
X-4155Y-8425D01*
X-4211Y-8312D01*
X-4267Y-8087D01*
X-4267Y-7806D01*
X-4211Y-7581D01*
X-4155Y-7468D01*
X-4098Y-7412D01*
X-3986Y-7356D01*
X-3086Y-8425D02*
X-3030Y-8481D01*
X-3086Y-8537D01*
X-3142Y-8481D01*
X-3086Y-8425D01*
X-3086Y-8537D01*
X-1961Y-7356D02*
X-2524Y-7356D01*
X-2580Y-7918D01*
X-2524Y-7862D01*
X-2411Y-7806D01*
X-2130Y-7806D01*
X-2017Y-7862D01*
X-1961Y-7918D01*
X-1905Y-8031D01*
X-1905Y-8312D01*
X-1961Y-8425D01*
X-2017Y-8481D01*
X-2130Y-8537D01*
X-2411Y-8537D01*
X-2524Y-8481D01*
X-2580Y-8425D01*
X-780Y-8537D02*
X-1455Y-8537D01*
X-1118Y-8537D02*
X-1118Y-7356D01*
X-1230Y-7525D01*
X-1342Y-7637D01*
X-1455Y-7693D01*
X-274Y-8537D02*
X-274Y-7750D01*
X-274Y-7862D02*
X-218Y-7806D01*
X-105Y-7750D01*
X63Y-7750D01*
X175Y-7806D01*
X231Y-7918D01*
X231Y-8537D01*
X231Y-7918D02*
X288Y-7806D01*
X400Y-7750D01*
X569Y-7750D01*
X681Y-7806D01*
X737Y-7918D01*
X737Y-8537D01*
X1300Y-8537D02*
X1300Y-7750D01*
X1300Y-7862D02*
X1356Y-7806D01*
X1469Y-7750D01*
X1637Y-7750D01*
X1750Y-7806D01*
X1806Y-7918D01*
X1806Y-8537D01*
X1806Y-7918D02*
X1862Y-7806D01*
X1975Y-7750D01*
X2144Y-7750D01*
X2256Y-7806D01*
X2312Y-7918D01*
X2312Y-8537D01*
X4618Y-7300D02*
X3606Y-8818D01*
X6137Y-7356D02*
X6249Y-7356D01*
X6362Y-7412D01*
X6418Y-7468D01*
X6474Y-7581D01*
X6531Y-7806D01*
X6531Y-8087D01*
X6474Y-8312D01*
X6418Y-8425D01*
X6362Y-8481D01*
X6249Y-8537D01*
X6137Y-8537D01*
X6024Y-8481D01*
X5968Y-8425D01*
X5912Y-8312D01*
X5856Y-8087D01*
X5856Y-7806D01*
X5912Y-7581D01*
X5968Y-7468D01*
X6024Y-7412D01*
X6137Y-7356D01*
X7037Y-8425D02*
X7093Y-8481D01*
X7037Y-8537D01*
X6980Y-8481D01*
X7037Y-8425D01*
X7037Y-8537D01*
X7824Y-7356D02*
X7937Y-7356D01*
X8049Y-7412D01*
X8105Y-7468D01*
X8162Y-7581D01*
X8218Y-7806D01*
X8218Y-8087D01*
X8162Y-8312D01*
X8105Y-8425D01*
X8049Y-8481D01*
X7937Y-8537D01*
X7824Y-8537D01*
X7712Y-8481D01*
X7655Y-8425D01*
X7599Y-8312D01*
X7543Y-8087D01*
X7543Y-7806D01*
X7599Y-7581D01*
X7655Y-7468D01*
X7712Y-7412D01*
X7824Y-7356D01*
X8668Y-7468D02*
X8724Y-7412D01*
X8836Y-7356D01*
X9118Y-7356D01*
X9230Y-7412D01*
X9286Y-7468D01*
X9343Y-7581D01*
X9343Y-7693D01*
X9286Y-7862D01*
X8612Y-8537D01*
X9343Y-8537D01*
X10074Y-7356D02*
X10186Y-7356D01*
X10299Y-7412D01*
X10355Y-7468D01*
X10411Y-7581D01*
X10468Y-7806D01*
X10468Y-8087D01*
X10411Y-8312D01*
X10355Y-8425D01*
X10299Y-8481D01*
X10186Y-8537D01*
X10074Y-8537D01*
X9961Y-8481D01*
X9905Y-8425D01*
X9849Y-8312D01*
X9793Y-8087D01*
X9793Y-7806D01*
X9849Y-7581D01*
X9905Y-7468D01*
X9961Y-7412D01*
X10074Y-7356D01*
X10917Y-7356D02*
X10917Y-7581D01*
X11367Y-7356D02*
X11367Y-7581D01*
X13111Y-8987D02*
X13055Y-8931D01*
X12942Y-8762D01*
X12886Y-8650D01*
X12830Y-8481D01*
X12773Y-8200D01*
X12773Y-7975D01*
X12830Y-7693D01*
X12886Y-7525D01*
X12942Y-7412D01*
X13055Y-7244D01*
X13111Y-7187D01*
X13730Y-7862D02*
X13617Y-7806D01*
X13561Y-7750D01*
X13505Y-7637D01*
X13505Y-7581D01*
X13561Y-7468D01*
X13617Y-7412D01*
X13730Y-7356D01*
X13955Y-7356D01*
X14067Y-7412D01*
X14123Y-7468D01*
X14180Y-7581D01*
X14180Y-7637D01*
X14123Y-7750D01*
X14067Y-7806D01*
X13955Y-7862D01*
X13730Y-7862D01*
X13617Y-7918D01*
X13561Y-7975D01*
X13505Y-8087D01*
X13505Y-8312D01*
X13561Y-8425D01*
X13617Y-8481D01*
X13730Y-8537D01*
X13955Y-8537D01*
X14067Y-8481D01*
X14123Y-8425D01*
X14180Y-8312D01*
X14180Y-8087D01*
X14123Y-7975D01*
X14067Y-7918D01*
X13955Y-7862D01*
X15586Y-8537D02*
X15586Y-7356D01*
X16092Y-8537D02*
X16092Y-7918D01*
X16036Y-7806D01*
X15923Y-7750D01*
X15754Y-7750D01*
X15642Y-7806D01*
X15586Y-7862D01*
X16823Y-8537D02*
X16711Y-8481D01*
X16654Y-8425D01*
X16598Y-8312D01*
X16598Y-7975D01*
X16654Y-7862D01*
X16711Y-7806D01*
X16823Y-7750D01*
X16992Y-7750D01*
X17104Y-7806D01*
X17160Y-7862D01*
X17217Y-7975D01*
X17217Y-8312D01*
X17160Y-8425D01*
X17104Y-8481D01*
X16992Y-8537D01*
X16823Y-8537D01*
X17892Y-8537D02*
X17779Y-8481D01*
X17723Y-8368D01*
X17723Y-7356D01*
X18791Y-8481D02*
X18679Y-8537D01*
X18454Y-8537D01*
X18342Y-8481D01*
X18285Y-8368D01*
X18285Y-7918D01*
X18342Y-7806D01*
X18454Y-7750D01*
X18679Y-7750D01*
X18791Y-7806D01*
X18848Y-7918D01*
X18848Y-8031D01*
X18285Y-8143D01*
X19298Y-8481D02*
X19410Y-8537D01*
X19635Y-8537D01*
X19748Y-8481D01*
X19804Y-8368D01*
X19804Y-8312D01*
X19748Y-8200D01*
X19635Y-8143D01*
X19466Y-8143D01*
X19354Y-8087D01*
X19298Y-7975D01*
X19298Y-7918D01*
X19354Y-7806D01*
X19466Y-7750D01*
X19635Y-7750D01*
X19748Y-7806D01*
X20198Y-8987D02*
X20254Y-8931D01*
X20366Y-8762D01*
X20423Y-8650D01*
X20479Y-8481D01*
X20535Y-8200D01*
X20535Y-7975D01*
X20479Y-7693D01*
X20423Y-7525D01*
X20366Y-7412D01*
X20254Y-7244D01*
X20198Y-7187D01*
G54D13*
X-5280Y-9618D02*
G75*
G03X-5280Y-9618I-150J0D01*
G74*
G01*
G54D14*
X-3986Y-8915D02*
X-3873Y-8915D01*
X-3761Y-8971D01*
X-3705Y-9028D01*
X-3648Y-9140D01*
X-3592Y-9365D01*
X-3592Y-9646D01*
X-3648Y-9871D01*
X-3705Y-9984D01*
X-3761Y-10040D01*
X-3873Y-10096D01*
X-3986Y-10096D01*
X-4098Y-10040D01*
X-4155Y-9984D01*
X-4211Y-9871D01*
X-4267Y-9646D01*
X-4267Y-9365D01*
X-4211Y-9140D01*
X-4155Y-9028D01*
X-4098Y-8971D01*
X-3986Y-8915D01*
X-3086Y-9984D02*
X-3030Y-10040D01*
X-3086Y-10096D01*
X-3142Y-10040D01*
X-3086Y-9984D01*
X-3086Y-10096D01*
X-2636Y-8915D02*
X-1849Y-8915D01*
X-2355Y-10096D01*
X-893Y-8915D02*
X-1118Y-8915D01*
X-1230Y-8971D01*
X-1286Y-9028D01*
X-1399Y-9196D01*
X-1455Y-9421D01*
X-1455Y-9871D01*
X-1399Y-9984D01*
X-1342Y-10040D01*
X-1230Y-10096D01*
X-1005Y-10096D01*
X-893Y-10040D01*
X-836Y-9984D01*
X-780Y-9871D01*
X-780Y-9590D01*
X-836Y-9477D01*
X-893Y-9421D01*
X-1005Y-9365D01*
X-1230Y-9365D01*
X-1342Y-9421D01*
X-1399Y-9477D01*
X-1455Y-9590D01*
X-274Y-10096D02*
X-274Y-9309D01*
X-274Y-9421D02*
X-218Y-9365D01*
X-105Y-9309D01*
X63Y-9309D01*
X175Y-9365D01*
X231Y-9477D01*
X231Y-10096D01*
X231Y-9477D02*
X288Y-9365D01*
X400Y-9309D01*
X569Y-9309D01*
X681Y-9365D01*
X737Y-9477D01*
X737Y-10096D01*
X1300Y-10096D02*
X1300Y-9309D01*
X1300Y-9421D02*
X1356Y-9365D01*
X1469Y-9309D01*
X1637Y-9309D01*
X1750Y-9365D01*
X1806Y-9477D01*
X1806Y-10096D01*
X1806Y-9477D02*
X1862Y-9365D01*
X1975Y-9309D01*
X2144Y-9309D01*
X2256Y-9365D01*
X2312Y-9477D01*
X2312Y-10096D01*
X4618Y-8859D02*
X3606Y-10377D01*
X6137Y-8915D02*
X6249Y-8915D01*
X6362Y-8971D01*
X6418Y-9028D01*
X6474Y-9140D01*
X6531Y-9365D01*
X6531Y-9646D01*
X6474Y-9871D01*
X6418Y-9984D01*
X6362Y-10040D01*
X6249Y-10096D01*
X6137Y-10096D01*
X6024Y-10040D01*
X5968Y-9984D01*
X5912Y-9871D01*
X5856Y-9646D01*
X5856Y-9365D01*
X5912Y-9140D01*
X5968Y-9028D01*
X6024Y-8971D01*
X6137Y-8915D01*
X7037Y-9984D02*
X7093Y-10040D01*
X7037Y-10096D01*
X6980Y-10040D01*
X7037Y-9984D01*
X7037Y-10096D01*
X7824Y-8915D02*
X7937Y-8915D01*
X8049Y-8971D01*
X8105Y-9028D01*
X8162Y-9140D01*
X8218Y-9365D01*
X8218Y-9646D01*
X8162Y-9871D01*
X8105Y-9984D01*
X8049Y-10040D01*
X7937Y-10096D01*
X7824Y-10096D01*
X7712Y-10040D01*
X7655Y-9984D01*
X7599Y-9871D01*
X7543Y-9646D01*
X7543Y-9365D01*
X7599Y-9140D01*
X7655Y-9028D01*
X7712Y-8971D01*
X7824Y-8915D01*
X8612Y-8915D02*
X9343Y-8915D01*
X8949Y-9365D01*
X9118Y-9365D01*
X9230Y-9421D01*
X9286Y-9477D01*
X9343Y-9590D01*
X9343Y-9871D01*
X9286Y-9984D01*
X9230Y-10040D01*
X9118Y-10096D01*
X8780Y-10096D01*
X8668Y-10040D01*
X8612Y-9984D01*
X10074Y-8915D02*
X10186Y-8915D01*
X10299Y-8971D01*
X10355Y-9028D01*
X10411Y-9140D01*
X10468Y-9365D01*
X10468Y-9646D01*
X10411Y-9871D01*
X10355Y-9984D01*
X10299Y-10040D01*
X10186Y-10096D01*
X10074Y-10096D01*
X9961Y-10040D01*
X9905Y-9984D01*
X9849Y-9871D01*
X9793Y-9646D01*
X9793Y-9365D01*
X9849Y-9140D01*
X9905Y-9028D01*
X9961Y-8971D01*
X10074Y-8915D01*
X10917Y-8915D02*
X10917Y-9140D01*
X11367Y-8915D02*
X11367Y-9140D01*
X13111Y-10546D02*
X13055Y-10490D01*
X12942Y-10321D01*
X12886Y-10209D01*
X12830Y-10040D01*
X12773Y-9759D01*
X12773Y-9534D01*
X12830Y-9253D01*
X12886Y-9084D01*
X12942Y-8971D01*
X13055Y-8803D01*
X13111Y-8746D01*
X13617Y-10096D02*
X13842Y-10096D01*
X13955Y-10040D01*
X14011Y-9984D01*
X14123Y-9815D01*
X14180Y-9590D01*
X14180Y-9140D01*
X14123Y-9028D01*
X14067Y-8971D01*
X13955Y-8915D01*
X13730Y-8915D01*
X13617Y-8971D01*
X13561Y-9028D01*
X13505Y-9140D01*
X13505Y-9421D01*
X13561Y-9534D01*
X13617Y-9590D01*
X13730Y-9646D01*
X13955Y-9646D01*
X14067Y-9590D01*
X14123Y-9534D01*
X14180Y-9421D01*
X15304Y-10096D02*
X14630Y-10096D01*
X14967Y-10096D02*
X14967Y-8915D01*
X14854Y-9084D01*
X14742Y-9196D01*
X14630Y-9253D01*
X16711Y-10096D02*
X16711Y-8915D01*
X17217Y-10096D02*
X17217Y-9477D01*
X17160Y-9365D01*
X17048Y-9309D01*
X16879Y-9309D01*
X16767Y-9365D01*
X16711Y-9421D01*
X17948Y-10096D02*
X17835Y-10040D01*
X17779Y-9984D01*
X17723Y-9871D01*
X17723Y-9534D01*
X17779Y-9421D01*
X17835Y-9365D01*
X17948Y-9309D01*
X18117Y-9309D01*
X18229Y-9365D01*
X18285Y-9421D01*
X18342Y-9534D01*
X18342Y-9871D01*
X18285Y-9984D01*
X18229Y-10040D01*
X18117Y-10096D01*
X17948Y-10096D01*
X19016Y-10096D02*
X18904Y-10040D01*
X18848Y-9927D01*
X18848Y-8915D01*
X19916Y-10040D02*
X19804Y-10096D01*
X19579Y-10096D01*
X19466Y-10040D01*
X19410Y-9927D01*
X19410Y-9477D01*
X19466Y-9365D01*
X19579Y-9309D01*
X19804Y-9309D01*
X19916Y-9365D01*
X19973Y-9477D01*
X19973Y-9590D01*
X19410Y-9702D01*
X20423Y-10040D02*
X20535Y-10096D01*
X20760Y-10096D01*
X20872Y-10040D01*
X20929Y-9927D01*
X20929Y-9871D01*
X20872Y-9759D01*
X20760Y-9702D01*
X20591Y-9702D01*
X20479Y-9646D01*
X20423Y-9534D01*
X20423Y-9477D01*
X20479Y-9365D01*
X20591Y-9309D01*
X20760Y-9309D01*
X20872Y-9365D01*
X21322Y-10546D02*
X21379Y-10490D01*
X21491Y-10321D01*
X21547Y-10209D01*
X21604Y-10040D01*
X21660Y-9759D01*
X21660Y-9534D01*
X21604Y-9253D01*
X21547Y-9084D01*
X21491Y-8971D01*
X21379Y-8803D01*
X21322Y-8746D01*
X-5480Y-10977D02*
X-5480Y-11377D01*
X-5680Y-11177D02*
X-5280Y-11177D01*
X-3592Y-11655D02*
X-4267Y-11655D01*
X-3930Y-11655D02*
X-3930Y-10474D01*
X-4042Y-10643D01*
X-4155Y-10755D01*
X-4267Y-10812D01*
X-3086Y-11543D02*
X-3030Y-11599D01*
X-3086Y-11655D01*
X-3142Y-11599D01*
X-3086Y-11543D01*
X-3086Y-11655D01*
X-2299Y-10474D02*
X-2186Y-10474D01*
X-2074Y-10530D01*
X-2017Y-10587D01*
X-1961Y-10699D01*
X-1905Y-10924D01*
X-1905Y-11205D01*
X-1961Y-11430D01*
X-2017Y-11543D01*
X-2074Y-11599D01*
X-2186Y-11655D01*
X-2299Y-11655D01*
X-2411Y-11599D01*
X-2467Y-11543D01*
X-2524Y-11430D01*
X-2580Y-11205D01*
X-2580Y-10924D01*
X-2524Y-10699D01*
X-2467Y-10587D01*
X-2411Y-10530D01*
X-2299Y-10474D01*
X-1455Y-10587D02*
X-1399Y-10530D01*
X-1286Y-10474D01*
X-1005Y-10474D01*
X-893Y-10530D01*
X-836Y-10587D01*
X-780Y-10699D01*
X-780Y-10812D01*
X-836Y-10980D01*
X-1511Y-11655D01*
X-780Y-11655D01*
X-274Y-11655D02*
X-274Y-10868D01*
X-274Y-10980D02*
X-218Y-10924D01*
X-105Y-10868D01*
X63Y-10868D01*
X175Y-10924D01*
X231Y-11037D01*
X231Y-11655D01*
X231Y-11037D02*
X288Y-10924D01*
X400Y-10868D01*
X569Y-10868D01*
X681Y-10924D01*
X737Y-11037D01*
X737Y-11655D01*
X1300Y-11655D02*
X1300Y-10868D01*
X1300Y-10980D02*
X1356Y-10924D01*
X1469Y-10868D01*
X1637Y-10868D01*
X1750Y-10924D01*
X1806Y-11037D01*
X1806Y-11655D01*
X1806Y-11037D02*
X1862Y-10924D01*
X1975Y-10868D01*
X2144Y-10868D01*
X2256Y-10924D01*
X2312Y-11037D01*
X2312Y-11655D01*
X4618Y-10418D02*
X3606Y-11936D01*
X6137Y-10474D02*
X6249Y-10474D01*
X6362Y-10530D01*
X6418Y-10587D01*
X6474Y-10699D01*
X6531Y-10924D01*
X6531Y-11205D01*
X6474Y-11430D01*
X6418Y-11543D01*
X6362Y-11599D01*
X6249Y-11655D01*
X6137Y-11655D01*
X6024Y-11599D01*
X5968Y-11543D01*
X5912Y-11430D01*
X5856Y-11205D01*
X5856Y-10924D01*
X5912Y-10699D01*
X5968Y-10587D01*
X6024Y-10530D01*
X6137Y-10474D01*
X7037Y-11543D02*
X7093Y-11599D01*
X7037Y-11655D01*
X6980Y-11599D01*
X7037Y-11543D01*
X7037Y-11655D01*
X7824Y-10474D02*
X7937Y-10474D01*
X8049Y-10530D01*
X8105Y-10587D01*
X8162Y-10699D01*
X8218Y-10924D01*
X8218Y-11205D01*
X8162Y-11430D01*
X8105Y-11543D01*
X8049Y-11599D01*
X7937Y-11655D01*
X7824Y-11655D01*
X7712Y-11599D01*
X7655Y-11543D01*
X7599Y-11430D01*
X7543Y-11205D01*
X7543Y-10924D01*
X7599Y-10699D01*
X7655Y-10587D01*
X7712Y-10530D01*
X7824Y-10474D01*
X9230Y-10868D02*
X9230Y-11655D01*
X8949Y-10418D02*
X8668Y-11262D01*
X9399Y-11262D01*
X10074Y-10474D02*
X10186Y-10474D01*
X10299Y-10530D01*
X10355Y-10587D01*
X10411Y-10699D01*
X10468Y-10924D01*
X10468Y-11205D01*
X10411Y-11430D01*
X10355Y-11543D01*
X10299Y-11599D01*
X10186Y-11655D01*
X10074Y-11655D01*
X9961Y-11599D01*
X9905Y-11543D01*
X9849Y-11430D01*
X9793Y-11205D01*
X9793Y-10924D01*
X9849Y-10699D01*
X9905Y-10587D01*
X9961Y-10530D01*
X10074Y-10474D01*
X10917Y-10474D02*
X10917Y-10699D01*
X11367Y-10474D02*
X11367Y-10699D01*
X13111Y-12105D02*
X13055Y-12049D01*
X12942Y-11880D01*
X12886Y-11768D01*
X12830Y-11599D01*
X12773Y-11318D01*
X12773Y-11093D01*
X12830Y-10812D01*
X12886Y-10643D01*
X12942Y-10530D01*
X13055Y-10362D01*
X13111Y-10305D01*
X14067Y-10868D02*
X14067Y-11655D01*
X13786Y-10418D02*
X13505Y-11262D01*
X14236Y-11262D01*
X15304Y-11655D02*
X14630Y-11655D01*
X14967Y-11655D02*
X14967Y-10474D01*
X14854Y-10643D01*
X14742Y-10755D01*
X14630Y-10812D01*
X16711Y-11655D02*
X16711Y-10474D01*
X17217Y-11655D02*
X17217Y-11037D01*
X17160Y-10924D01*
X17048Y-10868D01*
X16879Y-10868D01*
X16767Y-10924D01*
X16711Y-10980D01*
X17948Y-11655D02*
X17835Y-11599D01*
X17779Y-11543D01*
X17723Y-11430D01*
X17723Y-11093D01*
X17779Y-10980D01*
X17835Y-10924D01*
X17948Y-10868D01*
X18117Y-10868D01*
X18229Y-10924D01*
X18285Y-10980D01*
X18342Y-11093D01*
X18342Y-11430D01*
X18285Y-11543D01*
X18229Y-11599D01*
X18117Y-11655D01*
X17948Y-11655D01*
X19016Y-11655D02*
X18904Y-11599D01*
X18848Y-11486D01*
X18848Y-10474D01*
X19916Y-11599D02*
X19804Y-11655D01*
X19579Y-11655D01*
X19466Y-11599D01*
X19410Y-11486D01*
X19410Y-11037D01*
X19466Y-10924D01*
X19579Y-10868D01*
X19804Y-10868D01*
X19916Y-10924D01*
X19973Y-11037D01*
X19973Y-11149D01*
X19410Y-11262D01*
X20423Y-11599D02*
X20535Y-11655D01*
X20760Y-11655D01*
X20872Y-11599D01*
X20929Y-11486D01*
X20929Y-11430D01*
X20872Y-11318D01*
X20760Y-11262D01*
X20591Y-11262D01*
X20479Y-11205D01*
X20423Y-11093D01*
X20423Y-11037D01*
X20479Y-10924D01*
X20591Y-10868D01*
X20760Y-10868D01*
X20872Y-10924D01*
X21322Y-12105D02*
X21379Y-12049D01*
X21491Y-11880D01*
X21547Y-11768D01*
X21604Y-11599D01*
X21660Y-11318D01*
X21660Y-11093D01*
X21604Y-10812D01*
X21547Y-10643D01*
X21491Y-10530D01*
X21379Y-10362D01*
X21322Y-10305D01*
M02*
