M48
INCH,TZ
T1C0.020
T2C0.030
T3C0.040
%
G90
G05
T1
X2.73Y0.685
X2.73Y0.615
X2.73Y0.545
X2.8Y0.685
X2.8Y0.545
X2.87Y0.685
X2.87Y0.615
X2.87Y0.545
T2
X0.07Y1.19
X0.145Y1.08
X0.145Y0.885
X0.145Y0.685
X0.145Y0.485
X0.145Y0.29
X0.225Y1.55
X0.305Y1.08
X0.305Y0.885
X0.305Y0.685
X0.305Y0.485
X0.305Y0.29
X0.465Y1.08
X0.465Y0.885
X0.465Y0.685
X0.465Y0.485
X0.465Y0.29
X0.55Y1.29
X0.625Y1.08
X0.625Y0.885
X0.625Y0.685
X0.625Y0.485
X0.625Y0.29
X0.785Y1.08
X0.785Y0.885
X0.785Y0.685
X0.785Y0.485
X0.785Y0.29
X0.945Y1.346
X0.945Y1.08
X0.945Y0.885
X0.945Y0.685
X0.945Y0.485
X0.945Y0.29
X1.105Y1.08
X1.105Y0.885
X1.105Y0.685
X1.105Y0.485
X1.105Y0.29
X1.265Y1.08
X1.265Y0.885
X1.265Y0.685
X1.265Y0.485
X1.265Y0.29
X1.325Y1.475
X1.325Y1.4
X1.34Y1.01
X1.34Y0.81
X1.34Y0.61
X1.34Y0.41
X1.34Y0.34
X1.575Y1.14
X1.575Y0.625
X1.745Y0.52
X1.83Y0.08
X2.005Y0.91
X2.005Y0.845
X2.055Y1.39
X2.12Y1.39
X2.245Y0.505
X2.245Y0.425
X2.29Y0.545
X2.29Y0.465
X2.29Y0.385
X2.325Y1.365
X2.37Y1.29
X2.405Y1.365
X2.45Y1.29
X2.45Y1.22
X2.45Y1.14
X2.47Y0.745
X2.47Y0.545
X2.485Y1.365
X2.5Y0.265
X2.585Y-0.335
X2.685Y-0.335
X2.715Y0.875
X2.745Y0.29
X2.835Y0.005
X2.87Y0.24
X2.89Y0.875
X2.92Y1.03
X3.075Y0.795
X3.08Y0.335
X3.13Y0.655
X3.135Y0.795
X3.135Y0.735
X3.72Y0.595
T3
X0.3Y1.225
X0.4Y1.225
X0.815Y1.575
X0.915Y1.575
X1.015Y1.575
X1.115Y1.575
X1.175Y-0.325
X1.215Y1.575
X1.275Y-0.325
X1.315Y1.575
X1.375Y-0.325
X1.415Y1.575
X1.475Y-0.325
X1.515Y1.575
X1.575Y-0.325
X1.675Y1.575
X1.675Y-0.325
X1.7Y1.25
X1.7Y1.15
X1.775Y1.575
X1.8Y1.25
X1.8Y1.15
X1.875Y1.575
X1.875Y-0.325
X1.9Y1.25
X1.9Y1.15
X1.975Y1.575
X1.975Y-0.325
X2.075Y1.575
X2.075Y-0.325
X2.175Y1.575
X2.175Y-0.325
X2.275Y1.575
X2.275Y1.45
X2.275Y-0.325
X2.375Y1.575
X2.375Y1.45
X2.375Y-0.325
X2.73Y0.615
T0
M30
