G04 (created by PCBNEW (2012-11-15 BZR 3804)-stable) date Thu 14 Feb 2013 00:34:17 CST*
%MOIN*%
G04 Gerber Fmt 3.4, Leading zero omitted, Abs format*
%FSLAX34Y34*%
G01*
G70*
G90*
G04 APERTURE LIST*
%ADD10C,0.006*%
%ADD11C,0.007*%
%ADD12C,0.012*%
%ADD13C,0.005*%
%ADD14C,0.00787402*%
%ADD15C,0.00590551*%
%ADD16C,0.0026*%
%ADD17C,0.015*%
%ADD18C,0.0047*%
%ADD19C,0.008*%
%ADD20C,0.0001*%
%ADD21C,0.01*%
%ADD22C,0.0079*%
%ADD23C,0.0045*%
G04 APERTURE END LIST*
G54D10*
X-38750Y36250D02*
X63250Y36250D01*
X63250Y-40750D01*
X-38750Y-40750D01*
X-38750Y36250D01*
X-38050Y35550D02*
X62550Y35550D01*
X62550Y-40050D01*
X-38050Y-40050D01*
X-38050Y35550D01*
X-18350Y36250D02*
X-18350Y35550D01*
X-28407Y35697D02*
X-28692Y35697D01*
X-28550Y35697D02*
X-28550Y36197D01*
X-28597Y36126D01*
X-28645Y36078D01*
X-28692Y36054D01*
X-18350Y-40750D02*
X-18350Y-40050D01*
X-28407Y-40602D02*
X-28692Y-40602D01*
X-28550Y-40602D02*
X-28550Y-40102D01*
X-28597Y-40173D01*
X-28645Y-40221D01*
X-28692Y-40245D01*
X2050Y36250D02*
X2050Y35550D01*
X-8292Y36150D02*
X-8269Y36173D01*
X-8221Y36197D01*
X-8102Y36197D01*
X-8054Y36173D01*
X-8030Y36150D01*
X-8007Y36102D01*
X-8007Y36054D01*
X-8030Y35983D01*
X-8316Y35697D01*
X-8007Y35697D01*
X2050Y-40750D02*
X2050Y-40050D01*
X-8292Y-40150D02*
X-8269Y-40126D01*
X-8221Y-40102D01*
X-8102Y-40102D01*
X-8054Y-40126D01*
X-8030Y-40150D01*
X-8007Y-40197D01*
X-8007Y-40245D01*
X-8030Y-40316D01*
X-8316Y-40602D01*
X-8007Y-40602D01*
X22450Y36250D02*
X22450Y35550D01*
X12083Y36197D02*
X12392Y36197D01*
X12226Y36007D01*
X12297Y36007D01*
X12345Y35983D01*
X12369Y35959D01*
X12392Y35911D01*
X12392Y35792D01*
X12369Y35745D01*
X12345Y35721D01*
X12297Y35697D01*
X12154Y35697D01*
X12107Y35721D01*
X12083Y35745D01*
X22450Y-40750D02*
X22450Y-40050D01*
X12083Y-40102D02*
X12392Y-40102D01*
X12226Y-40292D01*
X12297Y-40292D01*
X12345Y-40316D01*
X12369Y-40340D01*
X12392Y-40388D01*
X12392Y-40507D01*
X12369Y-40554D01*
X12345Y-40578D01*
X12297Y-40602D01*
X12154Y-40602D01*
X12107Y-40578D01*
X12083Y-40554D01*
X42850Y36250D02*
X42850Y35550D01*
X32745Y36030D02*
X32745Y35697D01*
X32626Y36221D02*
X32507Y35864D01*
X32816Y35864D01*
X42850Y-40750D02*
X42850Y-40050D01*
X32745Y-40269D02*
X32745Y-40602D01*
X32626Y-40078D02*
X32507Y-40435D01*
X32816Y-40435D01*
X53169Y36197D02*
X52930Y36197D01*
X52907Y35959D01*
X52930Y35983D01*
X52978Y36007D01*
X53097Y36007D01*
X53145Y35983D01*
X53169Y35959D01*
X53192Y35911D01*
X53192Y35792D01*
X53169Y35745D01*
X53145Y35721D01*
X53097Y35697D01*
X52978Y35697D01*
X52930Y35721D01*
X52907Y35745D01*
X53169Y-40102D02*
X52930Y-40102D01*
X52907Y-40340D01*
X52930Y-40316D01*
X52978Y-40292D01*
X53097Y-40292D01*
X53145Y-40316D01*
X53169Y-40340D01*
X53192Y-40388D01*
X53192Y-40507D01*
X53169Y-40554D01*
X53145Y-40578D01*
X53097Y-40602D01*
X52978Y-40602D01*
X52930Y-40578D01*
X52907Y-40554D01*
X-38750Y10590D02*
X-38050Y10590D01*
X-38519Y23360D02*
X-38280Y23360D01*
X-38566Y23217D02*
X-38399Y23717D01*
X-38233Y23217D01*
X63250Y10590D02*
X62550Y10590D01*
X62780Y23360D02*
X63019Y23360D01*
X62733Y23217D02*
X62900Y23717D01*
X63066Y23217D01*
X-38750Y-15070D02*
X-38050Y-15070D01*
X-38364Y-2180D02*
X-38292Y-2204D01*
X-38269Y-2228D01*
X-38245Y-2275D01*
X-38245Y-2347D01*
X-38269Y-2394D01*
X-38292Y-2418D01*
X-38340Y-2442D01*
X-38530Y-2442D01*
X-38530Y-1942D01*
X-38364Y-1942D01*
X-38316Y-1966D01*
X-38292Y-1990D01*
X-38269Y-2037D01*
X-38269Y-2085D01*
X-38292Y-2132D01*
X-38316Y-2156D01*
X-38364Y-2180D01*
X-38530Y-2180D01*
X63250Y-15070D02*
X62550Y-15070D01*
X62935Y-2180D02*
X63007Y-2204D01*
X63030Y-2228D01*
X63054Y-2275D01*
X63054Y-2347D01*
X63030Y-2394D01*
X63007Y-2418D01*
X62959Y-2442D01*
X62769Y-2442D01*
X62769Y-1942D01*
X62935Y-1942D01*
X62983Y-1966D01*
X63007Y-1990D01*
X63030Y-2037D01*
X63030Y-2085D01*
X63007Y-2132D01*
X62983Y-2156D01*
X62935Y-2180D01*
X62769Y-2180D01*
X-38245Y-28054D02*
X-38269Y-28078D01*
X-38340Y-28102D01*
X-38388Y-28102D01*
X-38459Y-28078D01*
X-38507Y-28030D01*
X-38530Y-27983D01*
X-38554Y-27888D01*
X-38554Y-27816D01*
X-38530Y-27721D01*
X-38507Y-27673D01*
X-38459Y-27626D01*
X-38388Y-27602D01*
X-38340Y-27602D01*
X-38269Y-27626D01*
X-38245Y-27650D01*
X63054Y-28054D02*
X63030Y-28078D01*
X62959Y-28102D01*
X62911Y-28102D01*
X62840Y-28078D01*
X62792Y-28030D01*
X62769Y-27983D01*
X62745Y-27888D01*
X62745Y-27816D01*
X62769Y-27721D01*
X62792Y-27673D01*
X62840Y-27626D01*
X62911Y-27602D01*
X62959Y-27602D01*
X63030Y-27626D01*
X63054Y-27650D01*
X29700Y-38492D02*
X29775Y-37892D01*
X29917Y-37892D01*
X30000Y-37921D01*
X30050Y-37978D01*
X30071Y-38035D01*
X30085Y-38150D01*
X30075Y-38235D01*
X30032Y-38350D01*
X29996Y-38407D01*
X29932Y-38464D01*
X29842Y-38492D01*
X29700Y-38492D01*
X30557Y-38492D02*
X30596Y-38178D01*
X30575Y-38121D01*
X30521Y-38092D01*
X30407Y-38092D01*
X30346Y-38121D01*
X30560Y-38464D02*
X30500Y-38492D01*
X30357Y-38492D01*
X30303Y-38464D01*
X30282Y-38407D01*
X30289Y-38350D01*
X30325Y-38292D01*
X30385Y-38264D01*
X30528Y-38264D01*
X30589Y-38235D01*
X30807Y-38092D02*
X31035Y-38092D01*
X30917Y-37892D02*
X30853Y-38407D01*
X30875Y-38464D01*
X30928Y-38492D01*
X30985Y-38492D01*
X31417Y-38464D02*
X31357Y-38492D01*
X31242Y-38492D01*
X31189Y-38464D01*
X31167Y-38407D01*
X31196Y-38178D01*
X31232Y-38121D01*
X31292Y-38092D01*
X31407Y-38092D01*
X31460Y-38121D01*
X31482Y-38178D01*
X31475Y-38235D01*
X31182Y-38292D01*
X31707Y-38435D02*
X31732Y-38464D01*
X31700Y-38492D01*
X31675Y-38464D01*
X31707Y-38435D01*
X31700Y-38492D01*
X31746Y-38121D02*
X31771Y-38150D01*
X31739Y-38178D01*
X31714Y-38150D01*
X31746Y-38121D01*
X31739Y-38178D01*
X32757Y-38492D02*
X32414Y-38492D01*
X32585Y-38492D02*
X32660Y-37892D01*
X32592Y-37978D01*
X32528Y-38035D01*
X32467Y-38064D01*
X33321Y-38092D02*
X33271Y-38492D01*
X33207Y-37864D02*
X33010Y-38292D01*
X33382Y-38292D01*
X34007Y-38092D02*
X34235Y-38092D01*
X34042Y-38492D02*
X34107Y-37978D01*
X34142Y-37921D01*
X34203Y-37892D01*
X34260Y-37892D01*
X34617Y-38464D02*
X34557Y-38492D01*
X34442Y-38492D01*
X34389Y-38464D01*
X34367Y-38407D01*
X34396Y-38178D01*
X34432Y-38121D01*
X34492Y-38092D01*
X34607Y-38092D01*
X34660Y-38121D01*
X34682Y-38178D01*
X34675Y-38235D01*
X34382Y-38292D01*
X34900Y-38492D02*
X34975Y-37892D01*
X34946Y-38121D02*
X35007Y-38092D01*
X35121Y-38092D01*
X35175Y-38121D01*
X35200Y-38150D01*
X35221Y-38207D01*
X35200Y-38378D01*
X35164Y-38435D01*
X35132Y-38464D01*
X35071Y-38492D01*
X34957Y-38492D01*
X34903Y-38464D01*
X35939Y-37950D02*
X35971Y-37921D01*
X36032Y-37892D01*
X36175Y-37892D01*
X36228Y-37921D01*
X36253Y-37950D01*
X36275Y-38007D01*
X36267Y-38064D01*
X36228Y-38150D01*
X35842Y-38492D01*
X36214Y-38492D01*
X36660Y-37892D02*
X36717Y-37892D01*
X36771Y-37921D01*
X36796Y-37950D01*
X36817Y-38007D01*
X36832Y-38121D01*
X36814Y-38264D01*
X36771Y-38378D01*
X36735Y-38435D01*
X36703Y-38464D01*
X36642Y-38492D01*
X36585Y-38492D01*
X36532Y-38464D01*
X36507Y-38435D01*
X36485Y-38378D01*
X36471Y-38264D01*
X36489Y-38121D01*
X36532Y-38007D01*
X36567Y-37950D01*
X36600Y-37921D01*
X36660Y-37892D01*
X37357Y-38492D02*
X37014Y-38492D01*
X37185Y-38492D02*
X37260Y-37892D01*
X37192Y-37978D01*
X37128Y-38035D01*
X37067Y-38064D01*
X37632Y-37892D02*
X38003Y-37892D01*
X37775Y-38121D01*
X37860Y-38121D01*
X37914Y-38150D01*
X37939Y-38178D01*
X37960Y-38235D01*
X37942Y-38378D01*
X37907Y-38435D01*
X37875Y-38464D01*
X37814Y-38492D01*
X37642Y-38492D01*
X37589Y-38464D01*
X37564Y-38435D01*
X21292Y-39692D02*
X21292Y-39092D01*
X21635Y-39692D02*
X21378Y-39350D01*
X21635Y-39092D02*
X21292Y-39435D01*
X21892Y-39692D02*
X21892Y-39292D01*
X21892Y-39092D02*
X21864Y-39121D01*
X21892Y-39150D01*
X21921Y-39121D01*
X21892Y-39092D01*
X21892Y-39150D01*
X22521Y-39635D02*
X22492Y-39664D01*
X22407Y-39692D01*
X22350Y-39692D01*
X22264Y-39664D01*
X22207Y-39607D01*
X22178Y-39550D01*
X22150Y-39435D01*
X22150Y-39350D01*
X22178Y-39235D01*
X22207Y-39178D01*
X22264Y-39121D01*
X22350Y-39092D01*
X22407Y-39092D01*
X22492Y-39121D01*
X22521Y-39150D01*
X23035Y-39692D02*
X23035Y-39378D01*
X23007Y-39321D01*
X22950Y-39292D01*
X22835Y-39292D01*
X22778Y-39321D01*
X23035Y-39664D02*
X22978Y-39692D01*
X22835Y-39692D01*
X22778Y-39664D01*
X22750Y-39607D01*
X22750Y-39550D01*
X22778Y-39492D01*
X22835Y-39464D01*
X22978Y-39464D01*
X23035Y-39435D01*
X23578Y-39692D02*
X23578Y-39092D01*
X23578Y-39664D02*
X23521Y-39692D01*
X23407Y-39692D01*
X23350Y-39664D01*
X23321Y-39635D01*
X23292Y-39578D01*
X23292Y-39407D01*
X23321Y-39350D01*
X23350Y-39321D01*
X23407Y-39292D01*
X23521Y-39292D01*
X23578Y-39321D01*
X24321Y-39378D02*
X24521Y-39378D01*
X24607Y-39692D02*
X24321Y-39692D01*
X24321Y-39092D01*
X24607Y-39092D01*
X24864Y-39635D02*
X24892Y-39664D01*
X24864Y-39692D01*
X24835Y-39664D01*
X24864Y-39635D01*
X24864Y-39692D01*
X25149Y-39692D02*
X25149Y-39092D01*
X25292Y-39092D01*
X25378Y-39121D01*
X25435Y-39178D01*
X25464Y-39235D01*
X25492Y-39350D01*
X25492Y-39435D01*
X25464Y-39550D01*
X25435Y-39607D01*
X25378Y-39664D01*
X25292Y-39692D01*
X25149Y-39692D01*
X25749Y-39635D02*
X25778Y-39664D01*
X25749Y-39692D01*
X25721Y-39664D01*
X25749Y-39635D01*
X25749Y-39692D01*
X26007Y-39521D02*
X26292Y-39521D01*
X25949Y-39692D02*
X26149Y-39092D01*
X26349Y-39692D01*
X26549Y-39635D02*
X26578Y-39664D01*
X26549Y-39692D01*
X26521Y-39664D01*
X26549Y-39635D01*
X26549Y-39692D01*
X54842Y-38492D02*
X54678Y-38207D01*
X54500Y-38492D02*
X54575Y-37892D01*
X54803Y-37892D01*
X54857Y-37921D01*
X54882Y-37950D01*
X54903Y-38007D01*
X54892Y-38092D01*
X54857Y-38150D01*
X54825Y-38178D01*
X54764Y-38207D01*
X54535Y-38207D01*
X55332Y-38464D02*
X55271Y-38492D01*
X55157Y-38492D01*
X55103Y-38464D01*
X55082Y-38407D01*
X55110Y-38178D01*
X55146Y-38121D01*
X55207Y-38092D01*
X55321Y-38092D01*
X55375Y-38121D01*
X55396Y-38178D01*
X55389Y-38235D01*
X55096Y-38292D01*
X55607Y-38092D02*
X55700Y-38492D01*
X55892Y-38092D01*
X56078Y-38435D02*
X56103Y-38464D01*
X56071Y-38492D01*
X56046Y-38464D01*
X56078Y-38435D01*
X56071Y-38492D01*
X56117Y-38121D02*
X56142Y-38150D01*
X56110Y-38178D01*
X56085Y-38150D01*
X56117Y-38121D01*
X56110Y-38178D01*
X56814Y-38492D02*
X56889Y-37892D01*
X57117Y-37892D01*
X57171Y-37921D01*
X57196Y-37950D01*
X57217Y-38007D01*
X57207Y-38092D01*
X57171Y-38150D01*
X57139Y-38178D01*
X57078Y-38207D01*
X56850Y-38207D01*
X57728Y-38492D02*
X57385Y-38492D01*
X57557Y-38492D02*
X57632Y-37892D01*
X57564Y-37978D01*
X57500Y-38035D01*
X57439Y-38064D01*
X21264Y-38464D02*
X21350Y-38492D01*
X21492Y-38492D01*
X21550Y-38464D01*
X21578Y-38435D01*
X21607Y-38378D01*
X21607Y-38321D01*
X21578Y-38264D01*
X21550Y-38235D01*
X21492Y-38207D01*
X21378Y-38178D01*
X21321Y-38150D01*
X21292Y-38121D01*
X21264Y-38064D01*
X21264Y-38007D01*
X21292Y-37950D01*
X21321Y-37921D01*
X21378Y-37892D01*
X21521Y-37892D01*
X21607Y-37921D01*
X21864Y-38492D02*
X21864Y-38092D01*
X21864Y-37892D02*
X21835Y-37921D01*
X21864Y-37950D01*
X21892Y-37921D01*
X21864Y-37892D01*
X21864Y-37950D01*
X22092Y-38092D02*
X22407Y-38092D01*
X22092Y-38492D01*
X22407Y-38492D01*
X22864Y-38464D02*
X22807Y-38492D01*
X22692Y-38492D01*
X22635Y-38464D01*
X22607Y-38407D01*
X22607Y-38178D01*
X22635Y-38121D01*
X22692Y-38092D01*
X22807Y-38092D01*
X22864Y-38121D01*
X22892Y-38178D01*
X22892Y-38235D01*
X22607Y-38292D01*
X23150Y-38435D02*
X23178Y-38464D01*
X23150Y-38492D01*
X23121Y-38464D01*
X23150Y-38435D01*
X23150Y-38492D01*
X23150Y-38121D02*
X23178Y-38150D01*
X23150Y-38178D01*
X23121Y-38150D01*
X23150Y-38121D01*
X23150Y-38178D01*
X23864Y-38321D02*
X24150Y-38321D01*
X23807Y-38492D02*
X24007Y-37892D01*
X24207Y-38492D01*
X54492Y-39692D02*
X54492Y-39092D01*
X55035Y-39692D02*
X55035Y-39092D01*
X55035Y-39664D02*
X54978Y-39692D01*
X54864Y-39692D01*
X54807Y-39664D01*
X54778Y-39635D01*
X54750Y-39578D01*
X54750Y-39407D01*
X54778Y-39350D01*
X54807Y-39321D01*
X54864Y-39292D01*
X54978Y-39292D01*
X55035Y-39321D01*
X55321Y-39635D02*
X55350Y-39664D01*
X55321Y-39692D01*
X55292Y-39664D01*
X55321Y-39635D01*
X55321Y-39692D01*
X55321Y-39321D02*
X55350Y-39350D01*
X55321Y-39378D01*
X55292Y-39350D01*
X55321Y-39321D01*
X55321Y-39378D01*
X56378Y-39692D02*
X56035Y-39692D01*
X56207Y-39692D02*
X56207Y-39092D01*
X56149Y-39178D01*
X56092Y-39235D01*
X56035Y-39264D01*
X57064Y-39064D02*
X56550Y-39835D01*
X57578Y-39692D02*
X57235Y-39692D01*
X57407Y-39692D02*
X57407Y-39092D01*
X57349Y-39178D01*
X57292Y-39235D01*
X57235Y-39264D01*
X21289Y-36692D02*
X21632Y-36692D01*
X21385Y-37292D02*
X21460Y-36692D01*
X21757Y-37292D02*
X21807Y-36892D01*
X21832Y-36692D02*
X21800Y-36721D01*
X21825Y-36750D01*
X21857Y-36721D01*
X21832Y-36692D01*
X21825Y-36750D01*
X22007Y-36892D02*
X22235Y-36892D01*
X22117Y-36692D02*
X22053Y-37207D01*
X22075Y-37264D01*
X22128Y-37292D01*
X22185Y-37292D01*
X22471Y-37292D02*
X22417Y-37264D01*
X22396Y-37207D01*
X22460Y-36692D01*
X22932Y-37264D02*
X22871Y-37292D01*
X22757Y-37292D01*
X22703Y-37264D01*
X22682Y-37207D01*
X22710Y-36978D01*
X22746Y-36921D01*
X22807Y-36892D01*
X22921Y-36892D01*
X22975Y-36921D01*
X22996Y-36978D01*
X22989Y-37035D01*
X22696Y-37092D01*
X23221Y-37235D02*
X23246Y-37264D01*
X23214Y-37292D01*
X23189Y-37264D01*
X23221Y-37235D01*
X23214Y-37292D01*
X23260Y-36921D02*
X23285Y-36950D01*
X23253Y-36978D01*
X23228Y-36950D01*
X23260Y-36921D01*
X23253Y-36978D01*
X24196Y-36978D02*
X24278Y-37007D01*
X24303Y-37035D01*
X24325Y-37092D01*
X24314Y-37178D01*
X24278Y-37235D01*
X24246Y-37264D01*
X24185Y-37292D01*
X23957Y-37292D01*
X24032Y-36692D01*
X24232Y-36692D01*
X24285Y-36721D01*
X24310Y-36750D01*
X24332Y-36807D01*
X24325Y-36864D01*
X24289Y-36921D01*
X24257Y-36950D01*
X24196Y-36978D01*
X23996Y-36978D01*
X24746Y-36692D02*
X24860Y-36692D01*
X24914Y-36721D01*
X24964Y-36778D01*
X24978Y-36892D01*
X24953Y-37092D01*
X24910Y-37207D01*
X24846Y-37264D01*
X24785Y-37292D01*
X24671Y-37292D01*
X24617Y-37264D01*
X24567Y-37207D01*
X24553Y-37092D01*
X24578Y-36892D01*
X24621Y-36778D01*
X24685Y-36721D01*
X24746Y-36692D01*
X25178Y-37121D02*
X25464Y-37121D01*
X25100Y-37292D02*
X25375Y-36692D01*
X25500Y-37292D01*
X26042Y-37292D02*
X25878Y-37007D01*
X25700Y-37292D02*
X25775Y-36692D01*
X26003Y-36692D01*
X26057Y-36721D01*
X26082Y-36750D01*
X26103Y-36807D01*
X26092Y-36892D01*
X26057Y-36950D01*
X26025Y-36978D01*
X25964Y-37007D01*
X25735Y-37007D01*
X26300Y-37292D02*
X26375Y-36692D01*
X26517Y-36692D01*
X26600Y-36721D01*
X26650Y-36778D01*
X26671Y-36835D01*
X26685Y-36950D01*
X26675Y-37035D01*
X26632Y-37150D01*
X26596Y-37207D01*
X26532Y-37264D01*
X26442Y-37292D01*
X26300Y-37292D01*
X26932Y-37264D02*
X26928Y-37292D01*
X26892Y-37350D01*
X26860Y-37378D01*
X27642Y-37292D02*
X27717Y-36692D01*
X27946Y-36692D01*
X27999Y-36721D01*
X28025Y-36750D01*
X28046Y-36807D01*
X28035Y-36892D01*
X28000Y-36950D01*
X27967Y-36978D01*
X27907Y-37007D01*
X27678Y-37007D01*
X28592Y-37235D02*
X28560Y-37264D01*
X28471Y-37292D01*
X28414Y-37292D01*
X28332Y-37264D01*
X28282Y-37207D01*
X28260Y-37150D01*
X28246Y-37035D01*
X28257Y-36950D01*
X28300Y-36835D01*
X28335Y-36778D01*
X28399Y-36721D01*
X28489Y-36692D01*
X28546Y-36692D01*
X28628Y-36721D01*
X28653Y-36750D01*
X28875Y-37264D02*
X28871Y-37292D01*
X28835Y-37350D01*
X28803Y-37378D01*
X29575Y-36692D02*
X29917Y-36692D01*
X29671Y-37292D02*
X29746Y-36692D01*
X30042Y-37292D02*
X30117Y-36692D01*
X30082Y-36978D02*
X30425Y-36978D01*
X30385Y-37292D02*
X30460Y-36692D01*
X30860Y-36692D02*
X30975Y-36692D01*
X31028Y-36721D01*
X31078Y-36778D01*
X31092Y-36892D01*
X31067Y-37092D01*
X31024Y-37207D01*
X30960Y-37264D01*
X30900Y-37292D01*
X30785Y-37292D01*
X30732Y-37264D01*
X30682Y-37207D01*
X30667Y-37092D01*
X30692Y-36892D01*
X30735Y-36778D01*
X30799Y-36721D01*
X30860Y-36692D01*
X31289Y-36692D02*
X31632Y-36692D01*
X31385Y-37292D02*
X31460Y-36692D01*
X31757Y-37292D02*
X31832Y-36692D01*
X32099Y-37292D02*
X31885Y-36950D01*
X32174Y-36692D02*
X31789Y-37035D01*
X32546Y-36692D02*
X32660Y-36692D01*
X32714Y-36721D01*
X32764Y-36778D01*
X32778Y-36892D01*
X32753Y-37092D01*
X32710Y-37207D01*
X32646Y-37264D01*
X32585Y-37292D01*
X32471Y-37292D01*
X32417Y-37264D01*
X32367Y-37207D01*
X32353Y-37092D01*
X32378Y-36892D01*
X32421Y-36778D01*
X32485Y-36721D01*
X32546Y-36692D01*
X32985Y-37292D02*
X33060Y-36692D01*
X33328Y-37292D01*
X33403Y-36692D01*
X34260Y-36692D02*
X34374Y-36692D01*
X34428Y-36721D01*
X34478Y-36778D01*
X34492Y-36892D01*
X34467Y-37092D01*
X34424Y-37207D01*
X34360Y-37264D01*
X34299Y-37292D01*
X34185Y-37292D01*
X34132Y-37264D01*
X34082Y-37207D01*
X34067Y-37092D01*
X34092Y-36892D01*
X34135Y-36778D01*
X34199Y-36721D01*
X34260Y-36692D01*
X34717Y-36692D02*
X35042Y-37292D01*
X35117Y-36692D02*
X34642Y-37292D01*
X35578Y-36892D02*
X35528Y-37292D01*
X35464Y-36664D02*
X35267Y-37092D01*
X35639Y-37092D01*
X21492Y-34578D02*
X21292Y-34578D01*
X21292Y-34892D02*
X21292Y-34292D01*
X21578Y-34292D01*
X21807Y-34892D02*
X21807Y-34492D01*
X21807Y-34292D02*
X21778Y-34321D01*
X21807Y-34350D01*
X21835Y-34321D01*
X21807Y-34292D01*
X21807Y-34350D01*
X22178Y-34892D02*
X22121Y-34864D01*
X22092Y-34807D01*
X22092Y-34292D01*
X22635Y-34864D02*
X22578Y-34892D01*
X22464Y-34892D01*
X22407Y-34864D01*
X22378Y-34807D01*
X22378Y-34578D01*
X22407Y-34521D01*
X22464Y-34492D01*
X22578Y-34492D01*
X22635Y-34521D01*
X22664Y-34578D01*
X22664Y-34635D01*
X22378Y-34692D01*
X22921Y-34835D02*
X22950Y-34864D01*
X22921Y-34892D01*
X22892Y-34864D01*
X22921Y-34835D01*
X22921Y-34892D01*
X22921Y-34521D02*
X22950Y-34550D01*
X22921Y-34578D01*
X22892Y-34550D01*
X22921Y-34521D01*
X22921Y-34578D01*
X23578Y-34492D02*
X23807Y-34492D01*
X23664Y-34292D02*
X23664Y-34807D01*
X23692Y-34864D01*
X23750Y-34892D01*
X23807Y-34892D01*
X24007Y-34892D02*
X24007Y-34292D01*
X24264Y-34892D02*
X24264Y-34578D01*
X24235Y-34521D01*
X24178Y-34492D01*
X24092Y-34492D01*
X24035Y-34521D01*
X24007Y-34550D01*
X24635Y-34892D02*
X24578Y-34864D01*
X24550Y-34835D01*
X24521Y-34778D01*
X24521Y-34607D01*
X24550Y-34550D01*
X24578Y-34521D01*
X24635Y-34492D01*
X24721Y-34492D01*
X24778Y-34521D01*
X24807Y-34550D01*
X24835Y-34607D01*
X24835Y-34778D01*
X24807Y-34835D01*
X24778Y-34864D01*
X24721Y-34892D01*
X24635Y-34892D01*
X25007Y-34492D02*
X25235Y-34492D01*
X25092Y-34292D02*
X25092Y-34807D01*
X25121Y-34864D01*
X25178Y-34892D01*
X25235Y-34892D01*
X25692Y-34864D02*
X25635Y-34892D01*
X25521Y-34892D01*
X25464Y-34864D01*
X25435Y-34835D01*
X25407Y-34778D01*
X25407Y-34607D01*
X25435Y-34550D01*
X25464Y-34521D01*
X25521Y-34492D01*
X25635Y-34492D01*
X25692Y-34521D01*
X26035Y-34892D02*
X25978Y-34864D01*
X25950Y-34835D01*
X25921Y-34778D01*
X25921Y-34607D01*
X25950Y-34550D01*
X25978Y-34521D01*
X26035Y-34492D01*
X26121Y-34492D01*
X26178Y-34521D01*
X26207Y-34550D01*
X26235Y-34607D01*
X26235Y-34778D01*
X26207Y-34835D01*
X26178Y-34864D01*
X26121Y-34892D01*
X26035Y-34892D01*
X26492Y-34492D02*
X26492Y-34892D01*
X26492Y-34550D02*
X26521Y-34521D01*
X26578Y-34492D01*
X26664Y-34492D01*
X26721Y-34521D01*
X26750Y-34578D01*
X26750Y-34892D01*
X26892Y-34950D02*
X27350Y-34950D01*
X27492Y-34892D02*
X27492Y-34292D01*
X27492Y-34521D02*
X27550Y-34492D01*
X27664Y-34492D01*
X27721Y-34521D01*
X27750Y-34550D01*
X27778Y-34607D01*
X27778Y-34778D01*
X27750Y-34835D01*
X27721Y-34864D01*
X27664Y-34892D01*
X27550Y-34892D01*
X27492Y-34864D01*
X28292Y-34892D02*
X28292Y-34578D01*
X28264Y-34521D01*
X28207Y-34492D01*
X28092Y-34492D01*
X28035Y-34521D01*
X28292Y-34864D02*
X28235Y-34892D01*
X28092Y-34892D01*
X28035Y-34864D01*
X28007Y-34807D01*
X28007Y-34750D01*
X28035Y-34692D01*
X28092Y-34664D01*
X28235Y-34664D01*
X28292Y-34635D01*
X28835Y-34892D02*
X28835Y-34292D01*
X28835Y-34864D02*
X28778Y-34892D01*
X28664Y-34892D01*
X28607Y-34864D01*
X28578Y-34835D01*
X28550Y-34778D01*
X28550Y-34607D01*
X28578Y-34550D01*
X28607Y-34521D01*
X28664Y-34492D01*
X28778Y-34492D01*
X28835Y-34521D01*
X29378Y-34492D02*
X29378Y-34978D01*
X29350Y-35035D01*
X29321Y-35064D01*
X29264Y-35092D01*
X29178Y-35092D01*
X29121Y-35064D01*
X29378Y-34864D02*
X29321Y-34892D01*
X29207Y-34892D01*
X29150Y-34864D01*
X29121Y-34835D01*
X29092Y-34778D01*
X29092Y-34607D01*
X29121Y-34550D01*
X29150Y-34521D01*
X29207Y-34492D01*
X29321Y-34492D01*
X29378Y-34521D01*
X29892Y-34864D02*
X29835Y-34892D01*
X29721Y-34892D01*
X29664Y-34864D01*
X29635Y-34807D01*
X29635Y-34578D01*
X29664Y-34521D01*
X29721Y-34492D01*
X29835Y-34492D01*
X29892Y-34521D01*
X29921Y-34578D01*
X29921Y-34635D01*
X29635Y-34692D01*
X30035Y-34950D02*
X30492Y-34950D01*
X30578Y-34492D02*
X30892Y-34492D01*
X30578Y-34892D01*
X30892Y-34892D01*
X31121Y-34892D02*
X31121Y-34492D01*
X31121Y-34292D02*
X31092Y-34321D01*
X31121Y-34350D01*
X31150Y-34321D01*
X31121Y-34292D01*
X31121Y-34350D01*
X31664Y-34492D02*
X31664Y-34978D01*
X31635Y-35035D01*
X31607Y-35064D01*
X31549Y-35092D01*
X31464Y-35092D01*
X31407Y-35064D01*
X31664Y-34864D02*
X31607Y-34892D01*
X31492Y-34892D01*
X31435Y-34864D01*
X31407Y-34835D01*
X31378Y-34778D01*
X31378Y-34607D01*
X31407Y-34550D01*
X31435Y-34521D01*
X31492Y-34492D01*
X31607Y-34492D01*
X31664Y-34521D01*
X31949Y-34835D02*
X31978Y-34864D01*
X31949Y-34892D01*
X31921Y-34864D01*
X31949Y-34835D01*
X31949Y-34892D01*
X32235Y-34892D02*
X32235Y-34292D01*
X32235Y-34521D02*
X32292Y-34492D01*
X32407Y-34492D01*
X32464Y-34521D01*
X32492Y-34550D01*
X32521Y-34607D01*
X32521Y-34778D01*
X32492Y-34835D01*
X32464Y-34864D01*
X32407Y-34892D01*
X32292Y-34892D01*
X32235Y-34864D01*
X32778Y-34892D02*
X32778Y-34492D01*
X32778Y-34607D02*
X32807Y-34550D01*
X32835Y-34521D01*
X32892Y-34492D01*
X32949Y-34492D01*
X33407Y-34892D02*
X33407Y-34292D01*
X33407Y-34864D02*
X33349Y-34892D01*
X33235Y-34892D01*
X33178Y-34864D01*
X33149Y-34835D01*
X33121Y-34778D01*
X33121Y-34607D01*
X33149Y-34550D01*
X33178Y-34521D01*
X33235Y-34492D01*
X33349Y-34492D01*
X33407Y-34521D01*
X21264Y-36064D02*
X21350Y-36092D01*
X21492Y-36092D01*
X21550Y-36064D01*
X21578Y-36035D01*
X21607Y-35978D01*
X21607Y-35921D01*
X21578Y-35864D01*
X21550Y-35835D01*
X21492Y-35807D01*
X21378Y-35778D01*
X21321Y-35750D01*
X21292Y-35721D01*
X21264Y-35664D01*
X21264Y-35607D01*
X21292Y-35550D01*
X21321Y-35521D01*
X21378Y-35492D01*
X21521Y-35492D01*
X21607Y-35521D01*
X21864Y-36092D02*
X21864Y-35492D01*
X22121Y-36092D02*
X22121Y-35778D01*
X22092Y-35721D01*
X22035Y-35692D01*
X21950Y-35692D01*
X21892Y-35721D01*
X21864Y-35750D01*
X22635Y-36064D02*
X22578Y-36092D01*
X22464Y-36092D01*
X22407Y-36064D01*
X22378Y-36007D01*
X22378Y-35778D01*
X22407Y-35721D01*
X22464Y-35692D01*
X22578Y-35692D01*
X22635Y-35721D01*
X22664Y-35778D01*
X22664Y-35835D01*
X22378Y-35892D01*
X23150Y-36064D02*
X23092Y-36092D01*
X22978Y-36092D01*
X22921Y-36064D01*
X22892Y-36007D01*
X22892Y-35778D01*
X22921Y-35721D01*
X22978Y-35692D01*
X23092Y-35692D01*
X23150Y-35721D01*
X23178Y-35778D01*
X23178Y-35835D01*
X22892Y-35892D01*
X23350Y-35692D02*
X23578Y-35692D01*
X23435Y-35492D02*
X23435Y-36007D01*
X23464Y-36064D01*
X23521Y-36092D01*
X23578Y-36092D01*
X23778Y-36035D02*
X23807Y-36064D01*
X23778Y-36092D01*
X23750Y-36064D01*
X23778Y-36035D01*
X23778Y-36092D01*
X23778Y-35721D02*
X23807Y-35750D01*
X23778Y-35778D01*
X23750Y-35750D01*
X23778Y-35721D01*
X23778Y-35778D01*
X21317Y-33092D02*
X21385Y-33692D01*
X21553Y-33264D01*
X21614Y-33692D01*
X21832Y-33092D01*
X22071Y-33692D02*
X22017Y-33664D01*
X21992Y-33635D01*
X21971Y-33578D01*
X21992Y-33407D01*
X22028Y-33350D01*
X22060Y-33321D01*
X22121Y-33292D01*
X22207Y-33292D01*
X22260Y-33321D01*
X22285Y-33350D01*
X22307Y-33407D01*
X22285Y-33578D01*
X22250Y-33635D01*
X22217Y-33664D01*
X22157Y-33692D01*
X22071Y-33692D01*
X22528Y-33692D02*
X22578Y-33292D01*
X22564Y-33407D02*
X22600Y-33350D01*
X22632Y-33321D01*
X22692Y-33292D01*
X22750Y-33292D01*
X22900Y-33692D02*
X22975Y-33092D01*
X22985Y-33464D02*
X23128Y-33692D01*
X23178Y-33292D02*
X22921Y-33521D01*
X23360Y-33664D02*
X23414Y-33692D01*
X23528Y-33692D01*
X23589Y-33664D01*
X23625Y-33607D01*
X23628Y-33578D01*
X23607Y-33521D01*
X23553Y-33492D01*
X23467Y-33492D01*
X23414Y-33464D01*
X23392Y-33407D01*
X23396Y-33378D01*
X23432Y-33321D01*
X23492Y-33292D01*
X23578Y-33292D01*
X23632Y-33321D01*
X23871Y-33692D02*
X23946Y-33092D01*
X24128Y-33692D02*
X24167Y-33378D01*
X24146Y-33321D01*
X24092Y-33292D01*
X24007Y-33292D01*
X23946Y-33321D01*
X23914Y-33350D01*
X24499Y-33692D02*
X24446Y-33664D01*
X24421Y-33635D01*
X24400Y-33578D01*
X24421Y-33407D01*
X24457Y-33350D01*
X24489Y-33321D01*
X24549Y-33292D01*
X24635Y-33292D01*
X24689Y-33321D01*
X24714Y-33350D01*
X24735Y-33407D01*
X24714Y-33578D01*
X24678Y-33635D01*
X24646Y-33664D01*
X24585Y-33692D01*
X24499Y-33692D01*
X25007Y-33292D02*
X24932Y-33892D01*
X25003Y-33321D02*
X25064Y-33292D01*
X25178Y-33292D01*
X25232Y-33321D01*
X25257Y-33350D01*
X25278Y-33407D01*
X25257Y-33578D01*
X25221Y-33635D01*
X25189Y-33664D01*
X25128Y-33692D01*
X25014Y-33692D01*
X24960Y-33664D01*
X26085Y-33350D02*
X26032Y-33321D01*
X26007Y-33292D01*
X25985Y-33235D01*
X25989Y-33207D01*
X26024Y-33150D01*
X26057Y-33121D01*
X26117Y-33092D01*
X26232Y-33092D01*
X26285Y-33121D01*
X26310Y-33150D01*
X26332Y-33207D01*
X26328Y-33235D01*
X26292Y-33292D01*
X26260Y-33321D01*
X26199Y-33350D01*
X26085Y-33350D01*
X26025Y-33378D01*
X25992Y-33407D01*
X25957Y-33464D01*
X25942Y-33578D01*
X25964Y-33635D01*
X25989Y-33664D01*
X26042Y-33692D01*
X26157Y-33692D01*
X26217Y-33664D01*
X26249Y-33635D01*
X26285Y-33578D01*
X26299Y-33464D01*
X26278Y-33407D01*
X26253Y-33378D01*
X26199Y-33350D01*
X26657Y-33350D02*
X26603Y-33321D01*
X26578Y-33292D01*
X26557Y-33235D01*
X26560Y-33207D01*
X26596Y-33150D01*
X26628Y-33121D01*
X26689Y-33092D01*
X26803Y-33092D01*
X26857Y-33121D01*
X26882Y-33150D01*
X26903Y-33207D01*
X26900Y-33235D01*
X26864Y-33292D01*
X26832Y-33321D01*
X26771Y-33350D01*
X26657Y-33350D01*
X26596Y-33378D01*
X26564Y-33407D01*
X26528Y-33464D01*
X26514Y-33578D01*
X26535Y-33635D01*
X26560Y-33664D01*
X26614Y-33692D01*
X26728Y-33692D01*
X26789Y-33664D01*
X26821Y-33635D01*
X26857Y-33578D01*
X26871Y-33464D01*
X26849Y-33407D01*
X26825Y-33378D01*
X26771Y-33350D01*
X21292Y-32492D02*
X21292Y-31892D01*
X21435Y-31892D01*
X21521Y-31921D01*
X21578Y-31978D01*
X21607Y-32035D01*
X21635Y-32150D01*
X21635Y-32235D01*
X21607Y-32350D01*
X21578Y-32407D01*
X21521Y-32464D01*
X21435Y-32492D01*
X21292Y-32492D01*
X21892Y-32492D02*
X21892Y-32092D01*
X21892Y-32207D02*
X21921Y-32150D01*
X21950Y-32121D01*
X22007Y-32092D01*
X22064Y-32092D01*
X22521Y-32492D02*
X22521Y-32178D01*
X22492Y-32121D01*
X22435Y-32092D01*
X22321Y-32092D01*
X22264Y-32121D01*
X22521Y-32464D02*
X22464Y-32492D01*
X22321Y-32492D01*
X22264Y-32464D01*
X22235Y-32407D01*
X22235Y-32350D01*
X22264Y-32292D01*
X22321Y-32264D01*
X22464Y-32264D01*
X22521Y-32235D01*
X22750Y-32092D02*
X22864Y-32492D01*
X22978Y-32207D01*
X23092Y-32492D01*
X23207Y-32092D01*
X23435Y-32092D02*
X23435Y-32492D01*
X23435Y-32150D02*
X23464Y-32121D01*
X23521Y-32092D01*
X23607Y-32092D01*
X23664Y-32121D01*
X23692Y-32178D01*
X23692Y-32492D01*
X23978Y-32435D02*
X24007Y-32464D01*
X23978Y-32492D01*
X23950Y-32464D01*
X23978Y-32435D01*
X23978Y-32492D01*
X23978Y-32121D02*
X24007Y-32150D01*
X23978Y-32178D01*
X23950Y-32150D01*
X23978Y-32121D01*
X23978Y-32178D01*
X24721Y-32492D02*
X24721Y-31892D01*
X24950Y-31892D01*
X25007Y-31921D01*
X25035Y-31950D01*
X25064Y-32007D01*
X25064Y-32092D01*
X25035Y-32150D01*
X25007Y-32178D01*
X24950Y-32207D01*
X24721Y-32207D01*
X25578Y-32492D02*
X25578Y-32178D01*
X25550Y-32121D01*
X25492Y-32092D01*
X25378Y-32092D01*
X25321Y-32121D01*
X25578Y-32464D02*
X25521Y-32492D01*
X25378Y-32492D01*
X25321Y-32464D01*
X25292Y-32407D01*
X25292Y-32350D01*
X25321Y-32292D01*
X25378Y-32264D01*
X25521Y-32264D01*
X25578Y-32235D01*
X26121Y-32092D02*
X26121Y-32492D01*
X25864Y-32092D02*
X25864Y-32407D01*
X25892Y-32464D01*
X25949Y-32492D01*
X26035Y-32492D01*
X26092Y-32464D01*
X26121Y-32435D01*
X26492Y-32492D02*
X26435Y-32464D01*
X26407Y-32407D01*
X26407Y-31892D01*
X27521Y-32492D02*
X27321Y-32207D01*
X27178Y-32492D02*
X27178Y-31892D01*
X27407Y-31892D01*
X27464Y-31921D01*
X27492Y-31950D01*
X27521Y-32007D01*
X27521Y-32092D01*
X27492Y-32150D01*
X27464Y-32178D01*
X27407Y-32207D01*
X27178Y-32207D01*
X28007Y-32464D02*
X27950Y-32492D01*
X27835Y-32492D01*
X27778Y-32464D01*
X27750Y-32407D01*
X27750Y-32178D01*
X27778Y-32121D01*
X27835Y-32092D01*
X27950Y-32092D01*
X28007Y-32121D01*
X28035Y-32178D01*
X28035Y-32235D01*
X27750Y-32292D01*
X28292Y-32492D02*
X28292Y-32092D01*
X28292Y-31892D02*
X28264Y-31921D01*
X28292Y-31950D01*
X28321Y-31921D01*
X28292Y-31892D01*
X28292Y-31950D01*
X28835Y-32464D02*
X28778Y-32492D01*
X28664Y-32492D01*
X28607Y-32464D01*
X28578Y-32435D01*
X28550Y-32378D01*
X28550Y-32207D01*
X28578Y-32150D01*
X28607Y-32121D01*
X28664Y-32092D01*
X28778Y-32092D01*
X28835Y-32121D01*
X29092Y-32492D02*
X29092Y-31892D01*
X29350Y-32492D02*
X29350Y-32178D01*
X29321Y-32121D01*
X29264Y-32092D01*
X29178Y-32092D01*
X29121Y-32121D01*
X29092Y-32150D01*
X21292Y-31292D02*
X21292Y-30692D01*
X21435Y-30692D01*
X21521Y-30721D01*
X21578Y-30778D01*
X21607Y-30835D01*
X21635Y-30950D01*
X21635Y-31035D01*
X21607Y-31150D01*
X21578Y-31207D01*
X21521Y-31264D01*
X21435Y-31292D01*
X21292Y-31292D01*
X22121Y-31264D02*
X22064Y-31292D01*
X21950Y-31292D01*
X21892Y-31264D01*
X21864Y-31207D01*
X21864Y-30978D01*
X21892Y-30921D01*
X21950Y-30892D01*
X22064Y-30892D01*
X22121Y-30921D01*
X22150Y-30978D01*
X22150Y-31035D01*
X21864Y-31092D01*
X22378Y-31264D02*
X22435Y-31292D01*
X22550Y-31292D01*
X22607Y-31264D01*
X22635Y-31207D01*
X22635Y-31178D01*
X22607Y-31121D01*
X22550Y-31092D01*
X22464Y-31092D01*
X22407Y-31064D01*
X22378Y-31007D01*
X22378Y-30978D01*
X22407Y-30921D01*
X22464Y-30892D01*
X22550Y-30892D01*
X22607Y-30921D01*
X22892Y-31292D02*
X22892Y-30892D01*
X22892Y-30692D02*
X22864Y-30721D01*
X22892Y-30750D01*
X22921Y-30721D01*
X22892Y-30692D01*
X22892Y-30750D01*
X23435Y-30892D02*
X23435Y-31378D01*
X23407Y-31435D01*
X23378Y-31464D01*
X23321Y-31492D01*
X23235Y-31492D01*
X23178Y-31464D01*
X23435Y-31264D02*
X23378Y-31292D01*
X23264Y-31292D01*
X23207Y-31264D01*
X23178Y-31235D01*
X23150Y-31178D01*
X23150Y-31007D01*
X23178Y-30950D01*
X23207Y-30921D01*
X23264Y-30892D01*
X23378Y-30892D01*
X23435Y-30921D01*
X23721Y-30892D02*
X23721Y-31292D01*
X23721Y-30950D02*
X23750Y-30921D01*
X23807Y-30892D01*
X23892Y-30892D01*
X23950Y-30921D01*
X23978Y-30978D01*
X23978Y-31292D01*
X24492Y-31264D02*
X24435Y-31292D01*
X24321Y-31292D01*
X24264Y-31264D01*
X24235Y-31207D01*
X24235Y-30978D01*
X24264Y-30921D01*
X24321Y-30892D01*
X24435Y-30892D01*
X24492Y-30921D01*
X24521Y-30978D01*
X24521Y-31035D01*
X24235Y-31092D01*
X25035Y-31292D02*
X25035Y-30692D01*
X25035Y-31264D02*
X24978Y-31292D01*
X24864Y-31292D01*
X24807Y-31264D01*
X24778Y-31235D01*
X24750Y-31178D01*
X24750Y-31007D01*
X24778Y-30950D01*
X24807Y-30921D01*
X24864Y-30892D01*
X24978Y-30892D01*
X25035Y-30921D01*
X25321Y-31235D02*
X25350Y-31264D01*
X25321Y-31292D01*
X25292Y-31264D01*
X25321Y-31235D01*
X25321Y-31292D01*
X25321Y-30921D02*
X25350Y-30950D01*
X25321Y-30978D01*
X25292Y-30950D01*
X25321Y-30921D01*
X25321Y-30978D01*
X26064Y-31292D02*
X26064Y-30692D01*
X26292Y-30692D01*
X26349Y-30721D01*
X26378Y-30750D01*
X26407Y-30807D01*
X26407Y-30892D01*
X26378Y-30950D01*
X26349Y-30978D01*
X26292Y-31007D01*
X26064Y-31007D01*
X26921Y-31292D02*
X26921Y-30978D01*
X26892Y-30921D01*
X26835Y-30892D01*
X26721Y-30892D01*
X26664Y-30921D01*
X26921Y-31264D02*
X26864Y-31292D01*
X26721Y-31292D01*
X26664Y-31264D01*
X26635Y-31207D01*
X26635Y-31150D01*
X26664Y-31092D01*
X26721Y-31064D01*
X26864Y-31064D01*
X26921Y-31035D01*
X27464Y-30892D02*
X27464Y-31292D01*
X27207Y-30892D02*
X27207Y-31207D01*
X27235Y-31264D01*
X27292Y-31292D01*
X27378Y-31292D01*
X27435Y-31264D01*
X27464Y-31235D01*
X27835Y-31292D02*
X27778Y-31264D01*
X27749Y-31207D01*
X27749Y-30692D01*
X28864Y-31292D02*
X28664Y-31007D01*
X28521Y-31292D02*
X28521Y-30692D01*
X28750Y-30692D01*
X28807Y-30721D01*
X28835Y-30750D01*
X28864Y-30807D01*
X28864Y-30892D01*
X28835Y-30950D01*
X28807Y-30978D01*
X28750Y-31007D01*
X28521Y-31007D01*
X29350Y-31264D02*
X29292Y-31292D01*
X29178Y-31292D01*
X29121Y-31264D01*
X29092Y-31207D01*
X29092Y-30978D01*
X29121Y-30921D01*
X29178Y-30892D01*
X29292Y-30892D01*
X29350Y-30921D01*
X29378Y-30978D01*
X29378Y-31035D01*
X29092Y-31092D01*
X29635Y-31292D02*
X29635Y-30892D01*
X29635Y-30692D02*
X29607Y-30721D01*
X29635Y-30750D01*
X29664Y-30721D01*
X29635Y-30692D01*
X29635Y-30750D01*
X30178Y-31264D02*
X30121Y-31292D01*
X30007Y-31292D01*
X29950Y-31264D01*
X29921Y-31235D01*
X29892Y-31178D01*
X29892Y-31007D01*
X29921Y-30950D01*
X29950Y-30921D01*
X30007Y-30892D01*
X30121Y-30892D01*
X30178Y-30921D01*
X30435Y-31292D02*
X30435Y-30692D01*
X30692Y-31292D02*
X30692Y-30978D01*
X30664Y-30921D01*
X30607Y-30892D01*
X30521Y-30892D01*
X30464Y-30921D01*
X30435Y-30950D01*
X21292Y-30092D02*
X21292Y-29492D01*
X21521Y-29492D01*
X21578Y-29521D01*
X21607Y-29550D01*
X21635Y-29607D01*
X21635Y-29692D01*
X21607Y-29750D01*
X21578Y-29778D01*
X21521Y-29807D01*
X21292Y-29807D01*
X21892Y-30092D02*
X21892Y-29692D01*
X21892Y-29807D02*
X21921Y-29750D01*
X21950Y-29721D01*
X22007Y-29692D01*
X22064Y-29692D01*
X22350Y-30092D02*
X22292Y-30064D01*
X22264Y-30035D01*
X22235Y-29978D01*
X22235Y-29807D01*
X22264Y-29750D01*
X22292Y-29721D01*
X22350Y-29692D01*
X22435Y-29692D01*
X22492Y-29721D01*
X22521Y-29750D01*
X22550Y-29807D01*
X22550Y-29978D01*
X22521Y-30035D01*
X22492Y-30064D01*
X22435Y-30092D01*
X22350Y-30092D01*
X22807Y-29692D02*
X22807Y-30207D01*
X22778Y-30264D01*
X22721Y-30292D01*
X22692Y-30292D01*
X22807Y-29492D02*
X22778Y-29521D01*
X22807Y-29550D01*
X22835Y-29521D01*
X22807Y-29492D01*
X22807Y-29550D01*
X23321Y-30064D02*
X23264Y-30092D01*
X23150Y-30092D01*
X23092Y-30064D01*
X23064Y-30007D01*
X23064Y-29778D01*
X23092Y-29721D01*
X23150Y-29692D01*
X23264Y-29692D01*
X23321Y-29721D01*
X23350Y-29778D01*
X23350Y-29835D01*
X23064Y-29892D01*
X23864Y-30064D02*
X23807Y-30092D01*
X23692Y-30092D01*
X23635Y-30064D01*
X23607Y-30035D01*
X23578Y-29978D01*
X23578Y-29807D01*
X23607Y-29750D01*
X23635Y-29721D01*
X23692Y-29692D01*
X23807Y-29692D01*
X23864Y-29721D01*
X24035Y-29692D02*
X24264Y-29692D01*
X24121Y-29492D02*
X24121Y-30007D01*
X24150Y-30064D01*
X24207Y-30092D01*
X24264Y-30092D01*
X24921Y-30092D02*
X24921Y-29492D01*
X25121Y-29921D01*
X25321Y-29492D01*
X25321Y-30092D01*
X25864Y-29692D02*
X25864Y-30178D01*
X25835Y-30235D01*
X25807Y-30264D01*
X25750Y-30292D01*
X25664Y-30292D01*
X25607Y-30264D01*
X25864Y-30064D02*
X25807Y-30092D01*
X25692Y-30092D01*
X25635Y-30064D01*
X25607Y-30035D01*
X25578Y-29978D01*
X25578Y-29807D01*
X25607Y-29750D01*
X25635Y-29721D01*
X25692Y-29692D01*
X25807Y-29692D01*
X25864Y-29721D01*
X26150Y-30092D02*
X26150Y-29692D01*
X26150Y-29807D02*
X26178Y-29750D01*
X26207Y-29721D01*
X26264Y-29692D01*
X26321Y-29692D01*
X26521Y-30035D02*
X26550Y-30064D01*
X26521Y-30092D01*
X26492Y-30064D01*
X26521Y-30035D01*
X26521Y-30092D01*
X26521Y-29721D02*
X26550Y-29750D01*
X26521Y-29778D01*
X26492Y-29750D01*
X26521Y-29721D01*
X26521Y-29778D01*
X27607Y-30092D02*
X27407Y-29807D01*
X27264Y-30092D02*
X27264Y-29492D01*
X27492Y-29492D01*
X27550Y-29521D01*
X27578Y-29550D01*
X27607Y-29607D01*
X27607Y-29692D01*
X27578Y-29750D01*
X27550Y-29778D01*
X27492Y-29807D01*
X27264Y-29807D01*
X27864Y-30035D02*
X27892Y-30064D01*
X27864Y-30092D01*
X27835Y-30064D01*
X27864Y-30035D01*
X27864Y-30092D01*
X28950Y-30092D02*
X28750Y-29807D01*
X28607Y-30092D02*
X28607Y-29492D01*
X28835Y-29492D01*
X28892Y-29521D01*
X28921Y-29550D01*
X28950Y-29607D01*
X28950Y-29692D01*
X28921Y-29750D01*
X28892Y-29778D01*
X28835Y-29807D01*
X28607Y-29807D01*
X29207Y-30092D02*
X29207Y-29692D01*
X29207Y-29492D02*
X29178Y-29521D01*
X29207Y-29550D01*
X29235Y-29521D01*
X29207Y-29492D01*
X29207Y-29550D01*
X29464Y-30064D02*
X29521Y-30092D01*
X29635Y-30092D01*
X29692Y-30064D01*
X29721Y-30007D01*
X29721Y-29978D01*
X29692Y-29921D01*
X29635Y-29892D01*
X29550Y-29892D01*
X29492Y-29864D01*
X29464Y-29807D01*
X29464Y-29778D01*
X29492Y-29721D01*
X29550Y-29692D01*
X29635Y-29692D01*
X29692Y-29721D01*
X29892Y-29692D02*
X30121Y-29692D01*
X29978Y-29492D02*
X29978Y-30007D01*
X30007Y-30064D01*
X30064Y-30092D01*
X30121Y-30092D01*
X30321Y-30092D02*
X30321Y-29692D01*
X30321Y-29492D02*
X30292Y-29521D01*
X30321Y-29550D01*
X30350Y-29521D01*
X30321Y-29492D01*
X30321Y-29550D01*
X30864Y-30064D02*
X30807Y-30092D01*
X30692Y-30092D01*
X30635Y-30064D01*
X30607Y-30035D01*
X30578Y-29978D01*
X30578Y-29807D01*
X30607Y-29750D01*
X30635Y-29721D01*
X30692Y-29692D01*
X30807Y-29692D01*
X30864Y-29721D01*
X31121Y-30092D02*
X31121Y-29492D01*
X31378Y-30092D02*
X31378Y-29778D01*
X31350Y-29721D01*
X31292Y-29692D01*
X31207Y-29692D01*
X31150Y-29721D01*
X31121Y-29750D01*
X21635Y-28835D02*
X21607Y-28864D01*
X21521Y-28892D01*
X21464Y-28892D01*
X21378Y-28864D01*
X21321Y-28807D01*
X21292Y-28750D01*
X21264Y-28635D01*
X21264Y-28550D01*
X21292Y-28435D01*
X21321Y-28378D01*
X21378Y-28321D01*
X21464Y-28292D01*
X21521Y-28292D01*
X21607Y-28321D01*
X21635Y-28350D01*
X22235Y-28835D02*
X22207Y-28864D01*
X22121Y-28892D01*
X22064Y-28892D01*
X21978Y-28864D01*
X21921Y-28807D01*
X21892Y-28750D01*
X21864Y-28635D01*
X21864Y-28550D01*
X21892Y-28435D01*
X21921Y-28378D01*
X21978Y-28321D01*
X22064Y-28292D01*
X22121Y-28292D01*
X22207Y-28321D01*
X22235Y-28350D01*
X22492Y-28664D02*
X22950Y-28664D01*
X23435Y-28578D02*
X23521Y-28607D01*
X23550Y-28635D01*
X23578Y-28692D01*
X23578Y-28778D01*
X23550Y-28835D01*
X23521Y-28864D01*
X23464Y-28892D01*
X23235Y-28892D01*
X23235Y-28292D01*
X23435Y-28292D01*
X23492Y-28321D01*
X23521Y-28350D01*
X23550Y-28407D01*
X23550Y-28464D01*
X23521Y-28521D01*
X23492Y-28550D01*
X23435Y-28578D01*
X23235Y-28578D01*
X23950Y-28607D02*
X23950Y-28892D01*
X23750Y-28292D02*
X23950Y-28607D01*
X24150Y-28292D01*
X24350Y-28664D02*
X24807Y-28664D01*
X25064Y-28864D02*
X25150Y-28892D01*
X25292Y-28892D01*
X25350Y-28864D01*
X25378Y-28835D01*
X25407Y-28778D01*
X25407Y-28721D01*
X25378Y-28664D01*
X25350Y-28635D01*
X25292Y-28607D01*
X25178Y-28578D01*
X25121Y-28550D01*
X25092Y-28521D01*
X25064Y-28464D01*
X25064Y-28407D01*
X25092Y-28350D01*
X25121Y-28321D01*
X25178Y-28292D01*
X25321Y-28292D01*
X25407Y-28321D01*
X25635Y-28721D02*
X25921Y-28721D01*
X25578Y-28892D02*
X25778Y-28292D01*
X25978Y-28892D01*
X26178Y-28664D02*
X26635Y-28664D01*
X26864Y-28292D02*
X27235Y-28292D01*
X27035Y-28521D01*
X27121Y-28521D01*
X27178Y-28550D01*
X27207Y-28578D01*
X27235Y-28635D01*
X27235Y-28778D01*
X27207Y-28835D01*
X27178Y-28864D01*
X27121Y-28892D01*
X26950Y-28892D01*
X26892Y-28864D01*
X26864Y-28835D01*
X27492Y-28835D02*
X27521Y-28864D01*
X27492Y-28892D01*
X27464Y-28864D01*
X27492Y-28835D01*
X27492Y-28892D01*
X27892Y-28292D02*
X27950Y-28292D01*
X28007Y-28321D01*
X28035Y-28350D01*
X28064Y-28407D01*
X28092Y-28521D01*
X28092Y-28664D01*
X28064Y-28778D01*
X28035Y-28835D01*
X28007Y-28864D01*
X27950Y-28892D01*
X27892Y-28892D01*
X27835Y-28864D01*
X27807Y-28835D01*
X27778Y-28778D01*
X27750Y-28664D01*
X27750Y-28521D01*
X27778Y-28407D01*
X27807Y-28350D01*
X27835Y-28321D01*
X27892Y-28292D01*
X20550Y-28050D02*
X20550Y-40050D01*
X20550Y-34050D02*
X62550Y-34050D01*
X20550Y-28050D02*
X62550Y-28050D01*
X20550Y-36450D02*
X62550Y-36450D01*
X53750Y-37650D02*
X53750Y-40050D01*
X20550Y-38850D02*
X62550Y-38850D01*
X20550Y-37650D02*
X62550Y-37650D01*
X27150Y-37650D02*
X27150Y-38850D01*
X4500Y18000D02*
G75*
G03X4500Y18000I-1000J0D01*
G74*
G01*
X2000Y18000D02*
X5000Y18000D01*
X3500Y19500D02*
X3500Y16500D01*
X40000Y-5750D02*
G75*
G03X40000Y-5750I-1000J0D01*
G74*
G01*
X37500Y-5750D02*
X40500Y-5750D01*
X39000Y-4250D02*
X39000Y-7250D01*
X18051Y13309D02*
X17801Y13309D01*
X17801Y13369D01*
X17813Y13404D01*
X17836Y13428D01*
X17860Y13440D01*
X17908Y13452D01*
X17944Y13452D01*
X17991Y13440D01*
X18015Y13428D01*
X18039Y13404D01*
X18051Y13369D01*
X18051Y13309D01*
X18051Y13559D02*
X17801Y13559D01*
X17813Y13809D02*
X17801Y13785D01*
X17801Y13750D01*
X17813Y13714D01*
X17836Y13690D01*
X17860Y13678D01*
X17908Y13666D01*
X17944Y13666D01*
X17991Y13678D01*
X18015Y13690D01*
X18039Y13714D01*
X18051Y13750D01*
X18051Y13773D01*
X18039Y13809D01*
X18027Y13821D01*
X17944Y13821D01*
X17944Y13773D01*
X18051Y13928D02*
X17801Y13928D01*
X17801Y14011D02*
X17801Y14154D01*
X18051Y14083D02*
X17801Y14083D01*
X17979Y14226D02*
X17979Y14345D01*
X18051Y14202D02*
X17801Y14285D01*
X18051Y14369D01*
X18051Y14571D02*
X18051Y14452D01*
X17801Y14452D01*
X18075Y14595D02*
X18075Y14785D01*
X17801Y14892D02*
X17801Y14916D01*
X17813Y14940D01*
X17825Y14952D01*
X17848Y14964D01*
X17896Y14976D01*
X17955Y14976D01*
X18003Y14964D01*
X18027Y14952D01*
X18039Y14940D01*
X18051Y14916D01*
X18051Y14892D01*
X18039Y14869D01*
X18027Y14857D01*
X18003Y14845D01*
X17955Y14833D01*
X17896Y14833D01*
X17848Y14845D01*
X17825Y14857D01*
X17813Y14869D01*
X17801Y14892D01*
G54D11*
X11171Y12821D02*
X10871Y12821D01*
X10871Y12892D01*
X10885Y12935D01*
X10914Y12964D01*
X10942Y12978D01*
X11000Y12992D01*
X11042Y12992D01*
X11100Y12978D01*
X11128Y12964D01*
X11157Y12935D01*
X11171Y12892D01*
X11171Y12821D01*
X11171Y13121D02*
X10871Y13121D01*
X10885Y13421D02*
X10871Y13392D01*
X10871Y13350D01*
X10885Y13307D01*
X10914Y13278D01*
X10942Y13264D01*
X11000Y13250D01*
X11042Y13250D01*
X11100Y13264D01*
X11128Y13278D01*
X11157Y13307D01*
X11171Y13350D01*
X11171Y13378D01*
X11157Y13421D01*
X11142Y13435D01*
X11042Y13435D01*
X11042Y13378D01*
X11171Y13564D02*
X10871Y13564D01*
X10871Y13664D02*
X10871Y13835D01*
X11171Y13750D02*
X10871Y13750D01*
X11085Y13921D02*
X11085Y14064D01*
X11171Y13892D02*
X10871Y13992D01*
X11171Y14092D01*
X11171Y14335D02*
X11171Y14192D01*
X10871Y14192D01*
X11200Y14364D02*
X11200Y14592D01*
X11171Y14821D02*
X11171Y14649D01*
X11171Y14735D02*
X10871Y14735D01*
X10914Y14707D01*
X10942Y14678D01*
X10957Y14649D01*
G54D12*
X21072Y8379D02*
X20572Y8379D01*
X20572Y8569D01*
X20596Y8617D01*
X20620Y8640D01*
X20667Y8664D01*
X20739Y8664D01*
X20786Y8640D01*
X20810Y8617D01*
X20834Y8569D01*
X20834Y8379D01*
X20810Y9045D02*
X20810Y8879D01*
X21072Y8879D02*
X20572Y8879D01*
X20572Y9117D01*
X20620Y9283D02*
X20596Y9307D01*
X20572Y9355D01*
X20572Y9474D01*
X20596Y9521D01*
X20620Y9545D01*
X20667Y9569D01*
X20715Y9569D01*
X20786Y9545D01*
X21072Y9260D01*
X21072Y9569D01*
X20352Y5669D02*
X19852Y5669D01*
X19852Y5859D01*
X19876Y5907D01*
X19900Y5930D01*
X19947Y5954D01*
X20019Y5954D01*
X20066Y5930D01*
X20090Y5907D01*
X20114Y5859D01*
X20114Y5669D01*
X20090Y6335D02*
X20090Y6169D01*
X20352Y6169D02*
X19852Y6169D01*
X19852Y6407D01*
X20352Y6859D02*
X20352Y6573D01*
X20352Y6716D02*
X19852Y6716D01*
X19923Y6669D01*
X19971Y6621D01*
X19995Y6573D01*
X20352Y2854D02*
X20114Y2688D01*
X20352Y2569D02*
X19852Y2569D01*
X19852Y2759D01*
X19876Y2807D01*
X19900Y2830D01*
X19947Y2854D01*
X20019Y2854D01*
X20066Y2830D01*
X20090Y2807D01*
X20114Y2759D01*
X20114Y2569D01*
X20090Y3069D02*
X20090Y3235D01*
X20352Y3307D02*
X20352Y3069D01*
X19852Y3069D01*
X19852Y3307D01*
X20328Y3497D02*
X20352Y3569D01*
X20352Y3688D01*
X20328Y3735D01*
X20304Y3759D01*
X20257Y3783D01*
X20209Y3783D01*
X20161Y3759D01*
X20138Y3735D01*
X20114Y3688D01*
X20090Y3592D01*
X20066Y3545D01*
X20042Y3521D01*
X19995Y3497D01*
X19947Y3497D01*
X19900Y3521D01*
X19876Y3545D01*
X19852Y3592D01*
X19852Y3711D01*
X19876Y3783D01*
X20090Y3997D02*
X20090Y4164D01*
X20352Y4235D02*
X20352Y3997D01*
X19852Y3997D01*
X19852Y4235D01*
X19852Y4378D02*
X19852Y4664D01*
X20352Y4521D02*
X19852Y4521D01*
G54D13*
X3380Y11847D02*
X3542Y11847D01*
X3561Y11857D01*
X3571Y11866D01*
X3580Y11885D01*
X3580Y11923D01*
X3571Y11942D01*
X3561Y11952D01*
X3542Y11961D01*
X3380Y11961D01*
X3571Y12047D02*
X3580Y12076D01*
X3580Y12123D01*
X3571Y12142D01*
X3561Y12152D01*
X3542Y12161D01*
X3523Y12161D01*
X3504Y12152D01*
X3495Y12142D01*
X3485Y12123D01*
X3476Y12085D01*
X3466Y12066D01*
X3457Y12057D01*
X3438Y12047D01*
X3419Y12047D01*
X3400Y12057D01*
X3390Y12066D01*
X3380Y12085D01*
X3380Y12133D01*
X3390Y12161D01*
X3476Y12314D02*
X3485Y12342D01*
X3495Y12352D01*
X3514Y12361D01*
X3542Y12361D01*
X3561Y12352D01*
X3571Y12342D01*
X3580Y12323D01*
X3580Y12247D01*
X3380Y12247D01*
X3380Y12314D01*
X3390Y12333D01*
X3400Y12342D01*
X3419Y12352D01*
X3438Y12352D01*
X3457Y12342D01*
X3466Y12333D01*
X3476Y12314D01*
X3476Y12247D01*
X3600Y12400D02*
X3600Y12552D01*
X3580Y12600D02*
X3380Y12600D01*
X3380Y12647D01*
X3390Y12676D01*
X3409Y12695D01*
X3428Y12704D01*
X3466Y12714D01*
X3495Y12714D01*
X3533Y12704D01*
X3552Y12695D01*
X3571Y12676D01*
X3580Y12647D01*
X3580Y12600D01*
X3504Y12800D02*
X3504Y12952D01*
X4380Y11797D02*
X4542Y11797D01*
X4561Y11807D01*
X4571Y11816D01*
X4580Y11835D01*
X4580Y11873D01*
X4571Y11892D01*
X4561Y11902D01*
X4542Y11911D01*
X4380Y11911D01*
X4571Y11997D02*
X4580Y12026D01*
X4580Y12073D01*
X4571Y12092D01*
X4561Y12102D01*
X4542Y12111D01*
X4523Y12111D01*
X4504Y12102D01*
X4495Y12092D01*
X4485Y12073D01*
X4476Y12035D01*
X4466Y12016D01*
X4457Y12007D01*
X4438Y11997D01*
X4419Y11997D01*
X4400Y12007D01*
X4390Y12016D01*
X4380Y12035D01*
X4380Y12083D01*
X4390Y12111D01*
X4476Y12264D02*
X4485Y12292D01*
X4495Y12302D01*
X4514Y12311D01*
X4542Y12311D01*
X4561Y12302D01*
X4571Y12292D01*
X4580Y12273D01*
X4580Y12197D01*
X4380Y12197D01*
X4380Y12264D01*
X4390Y12283D01*
X4400Y12292D01*
X4419Y12302D01*
X4438Y12302D01*
X4457Y12292D01*
X4466Y12283D01*
X4476Y12264D01*
X4476Y12197D01*
X4600Y12350D02*
X4600Y12502D01*
X4580Y12550D02*
X4380Y12550D01*
X4380Y12597D01*
X4390Y12626D01*
X4409Y12645D01*
X4428Y12654D01*
X4466Y12664D01*
X4495Y12664D01*
X4533Y12654D01*
X4552Y12645D01*
X4571Y12626D01*
X4580Y12597D01*
X4580Y12550D01*
X4504Y12750D02*
X4504Y12902D01*
X4580Y12826D02*
X4428Y12826D01*
G54D11*
X24759Y14292D02*
X24571Y14192D01*
X24759Y14121D02*
X24365Y14121D01*
X24365Y14235D01*
X24384Y14264D01*
X24403Y14278D01*
X24440Y14292D01*
X24496Y14292D01*
X24534Y14278D01*
X24553Y14264D01*
X24571Y14235D01*
X24571Y14121D01*
X24759Y14392D02*
X24496Y14550D01*
X24496Y14392D02*
X24759Y14550D01*
X24759Y14664D02*
X24365Y14664D01*
X24365Y14735D01*
X24384Y14778D01*
X24421Y14807D01*
X24459Y14821D01*
X24534Y14835D01*
X24590Y14835D01*
X24665Y14821D01*
X24703Y14807D01*
X24740Y14778D01*
X24759Y14735D01*
X24759Y14664D01*
X22215Y13328D02*
X22215Y13500D01*
X22609Y13414D02*
X22215Y13414D01*
X22609Y13571D02*
X22346Y13728D01*
X22346Y13571D02*
X22609Y13728D01*
X22609Y13842D02*
X22215Y13842D01*
X22215Y13914D01*
X22234Y13957D01*
X22271Y13985D01*
X22309Y13999D01*
X22384Y14014D01*
X22440Y14014D01*
X22515Y13999D01*
X22553Y13985D01*
X22590Y13957D01*
X22609Y13914D01*
X22609Y13842D01*
X30390Y14007D02*
X30409Y14050D01*
X30409Y14121D01*
X30390Y14150D01*
X30371Y14164D01*
X30334Y14178D01*
X30296Y14178D01*
X30259Y14164D01*
X30240Y14150D01*
X30221Y14121D01*
X30203Y14064D01*
X30184Y14035D01*
X30165Y14021D01*
X30128Y14007D01*
X30090Y14007D01*
X30053Y14021D01*
X30034Y14035D01*
X30015Y14064D01*
X30015Y14135D01*
X30034Y14178D01*
X30371Y14478D02*
X30390Y14464D01*
X30409Y14421D01*
X30409Y14392D01*
X30390Y14350D01*
X30353Y14321D01*
X30315Y14307D01*
X30240Y14292D01*
X30184Y14292D01*
X30109Y14307D01*
X30071Y14321D01*
X30034Y14350D01*
X30015Y14392D01*
X30015Y14421D01*
X30034Y14464D01*
X30053Y14478D01*
X30409Y14607D02*
X30015Y14607D01*
X30409Y14778D02*
X30184Y14650D01*
X30015Y14778D02*
X30240Y14607D01*
X30015Y12978D02*
X30015Y13150D01*
X30409Y13064D02*
X30015Y13064D01*
X30409Y13221D02*
X30146Y13378D01*
X30146Y13221D02*
X30409Y13378D01*
X30409Y13492D02*
X30015Y13492D01*
X30015Y13564D01*
X30034Y13607D01*
X30071Y13635D01*
X30109Y13649D01*
X30184Y13664D01*
X30240Y13664D01*
X30315Y13649D01*
X30353Y13635D01*
X30390Y13607D01*
X30409Y13564D01*
X30409Y13492D01*
X30409Y12142D02*
X30221Y12042D01*
X30409Y11971D02*
X30015Y11971D01*
X30015Y12085D01*
X30034Y12114D01*
X30053Y12128D01*
X30090Y12142D01*
X30146Y12142D01*
X30184Y12128D01*
X30203Y12114D01*
X30221Y12085D01*
X30221Y11971D01*
X30409Y12242D02*
X30146Y12400D01*
X30146Y12242D02*
X30409Y12400D01*
X30409Y12514D02*
X30015Y12514D01*
X30015Y12585D01*
X30034Y12628D01*
X30071Y12657D01*
X30109Y12671D01*
X30184Y12685D01*
X30240Y12685D01*
X30315Y12671D01*
X30353Y12657D01*
X30390Y12628D01*
X30409Y12585D01*
X30409Y12514D01*
X19735Y-1792D02*
X19735Y-1650D01*
X19821Y-1821D02*
X19521Y-1721D01*
X19821Y-1621D01*
X19821Y-1521D02*
X19521Y-1521D01*
X19821Y-1350D01*
X19521Y-1350D01*
X19735Y-1221D02*
X19735Y-1078D01*
X19821Y-1250D02*
X19521Y-1150D01*
X19821Y-1050D01*
X19821Y-807D02*
X19821Y-949D01*
X19521Y-949D01*
X19521Y-650D02*
X19521Y-592D01*
X19535Y-564D01*
X19564Y-535D01*
X19621Y-521D01*
X19721Y-521D01*
X19778Y-535D01*
X19807Y-564D01*
X19821Y-592D01*
X19821Y-650D01*
X19807Y-678D01*
X19778Y-707D01*
X19721Y-721D01*
X19621Y-721D01*
X19564Y-707D01*
X19535Y-678D01*
X19521Y-650D01*
X19535Y-235D02*
X19521Y-264D01*
X19521Y-307D01*
X19535Y-349D01*
X19564Y-378D01*
X19592Y-392D01*
X19650Y-407D01*
X19692Y-407D01*
X19750Y-392D01*
X19778Y-378D01*
X19807Y-349D01*
X19821Y-307D01*
X19821Y-278D01*
X19807Y-235D01*
X19792Y-221D01*
X19692Y-221D01*
X19692Y-278D01*
X19850Y-164D02*
X19850Y64D01*
X19821Y135D02*
X19521Y135D01*
X19821Y278D02*
X19521Y278D01*
X19821Y450D01*
X19521Y450D01*
G54D13*
X14950Y13200D02*
X15000Y13250D01*
X21750Y12850D02*
X21750Y12750D01*
G54D10*
X22650Y12950D02*
X21750Y12950D01*
G54D13*
X22650Y6150D02*
X22650Y12950D01*
G54D10*
X21750Y6150D02*
X22650Y6150D01*
X21750Y12950D02*
X21750Y6150D01*
G54D13*
X9214Y11471D02*
X9214Y11571D01*
X9371Y11614D02*
X9371Y11471D01*
X9071Y11471D01*
X9071Y11614D01*
X9071Y11714D02*
X9371Y11914D01*
X9071Y11914D02*
X9371Y11714D01*
X9071Y11985D02*
X9071Y12157D01*
X9371Y12071D02*
X9071Y12071D01*
X-1569Y7983D02*
X-1664Y7916D01*
X-1569Y7869D02*
X-1769Y7869D01*
X-1769Y7945D01*
X-1759Y7964D01*
X-1750Y7973D01*
X-1730Y7983D01*
X-1702Y7983D01*
X-1683Y7973D01*
X-1673Y7964D01*
X-1664Y7945D01*
X-1664Y7869D01*
X-1673Y8069D02*
X-1673Y8135D01*
X-1569Y8164D02*
X-1569Y8069D01*
X-1769Y8069D01*
X-1769Y8164D01*
X-1569Y8250D02*
X-1769Y8250D01*
X-1626Y8316D01*
X-1769Y8383D01*
X-1569Y8383D01*
X-1769Y8516D02*
X-1769Y8554D01*
X-1759Y8573D01*
X-1740Y8592D01*
X-1702Y8602D01*
X-1635Y8602D01*
X-1597Y8592D01*
X-1578Y8573D01*
X-1569Y8554D01*
X-1569Y8516D01*
X-1578Y8497D01*
X-1597Y8478D01*
X-1635Y8469D01*
X-1702Y8469D01*
X-1740Y8478D01*
X-1759Y8497D01*
X-1769Y8516D01*
X-1769Y8659D02*
X-1569Y8726D01*
X-1769Y8792D01*
X-1673Y8859D02*
X-1673Y8926D01*
X-1569Y8954D02*
X-1569Y8859D01*
X-1769Y8859D01*
X-1769Y8954D01*
X-1673Y9259D02*
X-1673Y9192D01*
X-1569Y9192D02*
X-1769Y9192D01*
X-1769Y9288D01*
X-1769Y9402D02*
X-1769Y9440D01*
X-1759Y9459D01*
X-1740Y9478D01*
X-1702Y9488D01*
X-1635Y9488D01*
X-1597Y9478D01*
X-1578Y9459D01*
X-1569Y9440D01*
X-1569Y9402D01*
X-1578Y9383D01*
X-1597Y9364D01*
X-1635Y9354D01*
X-1702Y9354D01*
X-1740Y9364D01*
X-1759Y9383D01*
X-1769Y9402D01*
X-1569Y9688D02*
X-1664Y9621D01*
X-1569Y9573D02*
X-1769Y9573D01*
X-1769Y9650D01*
X-1759Y9669D01*
X-1750Y9678D01*
X-1730Y9688D01*
X-1702Y9688D01*
X-1683Y9678D01*
X-1673Y9669D01*
X-1664Y9650D01*
X-1664Y9573D01*
X-1769Y9926D02*
X-1607Y9926D01*
X-1588Y9935D01*
X-1578Y9945D01*
X-1569Y9964D01*
X-1569Y10002D01*
X-1578Y10021D01*
X-1588Y10030D01*
X-1607Y10040D01*
X-1769Y10040D01*
X-1578Y10126D02*
X-1569Y10154D01*
X-1569Y10202D01*
X-1578Y10221D01*
X-1588Y10230D01*
X-1607Y10240D01*
X-1626Y10240D01*
X-1645Y10230D01*
X-1654Y10221D01*
X-1664Y10202D01*
X-1673Y10164D01*
X-1683Y10145D01*
X-1692Y10135D01*
X-1711Y10126D01*
X-1730Y10126D01*
X-1750Y10135D01*
X-1759Y10145D01*
X-1769Y10164D01*
X-1769Y10211D01*
X-1759Y10240D01*
X-1673Y10392D02*
X-1664Y10421D01*
X-1654Y10430D01*
X-1635Y10440D01*
X-1607Y10440D01*
X-1588Y10430D01*
X-1578Y10421D01*
X-1569Y10402D01*
X-1569Y10326D01*
X-1769Y10326D01*
X-1769Y10392D01*
X-1759Y10411D01*
X-1750Y10421D01*
X-1730Y10430D01*
X-1711Y10430D01*
X-1692Y10421D01*
X-1683Y10411D01*
X-1673Y10392D01*
X-1673Y10326D01*
X-1569Y-3316D02*
X-1664Y-3383D01*
X-1569Y-3430D02*
X-1769Y-3430D01*
X-1769Y-3354D01*
X-1759Y-3335D01*
X-1750Y-3326D01*
X-1730Y-3316D01*
X-1702Y-3316D01*
X-1683Y-3326D01*
X-1673Y-3335D01*
X-1664Y-3354D01*
X-1664Y-3430D01*
X-1673Y-3230D02*
X-1673Y-3164D01*
X-1569Y-3135D02*
X-1569Y-3230D01*
X-1769Y-3230D01*
X-1769Y-3135D01*
X-1569Y-3050D02*
X-1769Y-3050D01*
X-1626Y-2983D01*
X-1769Y-2916D01*
X-1569Y-2916D01*
X-1769Y-2783D02*
X-1769Y-2745D01*
X-1759Y-2726D01*
X-1740Y-2707D01*
X-1702Y-2697D01*
X-1635Y-2697D01*
X-1597Y-2707D01*
X-1578Y-2726D01*
X-1569Y-2745D01*
X-1569Y-2783D01*
X-1578Y-2802D01*
X-1597Y-2821D01*
X-1635Y-2830D01*
X-1702Y-2830D01*
X-1740Y-2821D01*
X-1759Y-2802D01*
X-1769Y-2783D01*
X-1769Y-2640D02*
X-1569Y-2573D01*
X-1769Y-2507D01*
X-1673Y-2440D02*
X-1673Y-2373D01*
X-1569Y-2345D02*
X-1569Y-2440D01*
X-1769Y-2440D01*
X-1769Y-2345D01*
X-1673Y-2040D02*
X-1673Y-2107D01*
X-1569Y-2107D02*
X-1769Y-2107D01*
X-1769Y-2011D01*
X-1769Y-1897D02*
X-1769Y-1859D01*
X-1759Y-1840D01*
X-1740Y-1821D01*
X-1702Y-1811D01*
X-1635Y-1811D01*
X-1597Y-1821D01*
X-1578Y-1840D01*
X-1569Y-1859D01*
X-1569Y-1897D01*
X-1578Y-1916D01*
X-1597Y-1935D01*
X-1635Y-1945D01*
X-1702Y-1945D01*
X-1740Y-1935D01*
X-1759Y-1916D01*
X-1769Y-1897D01*
X-1569Y-1611D02*
X-1664Y-1678D01*
X-1569Y-1726D02*
X-1769Y-1726D01*
X-1769Y-1650D01*
X-1759Y-1630D01*
X-1750Y-1621D01*
X-1730Y-1611D01*
X-1702Y-1611D01*
X-1683Y-1621D01*
X-1673Y-1630D01*
X-1664Y-1650D01*
X-1664Y-1726D01*
X-1769Y-1373D02*
X-1607Y-1373D01*
X-1588Y-1364D01*
X-1578Y-1354D01*
X-1569Y-1335D01*
X-1569Y-1297D01*
X-1578Y-1278D01*
X-1588Y-1269D01*
X-1607Y-1259D01*
X-1769Y-1259D01*
X-1578Y-1173D02*
X-1569Y-1145D01*
X-1569Y-1097D01*
X-1578Y-1078D01*
X-1588Y-1069D01*
X-1607Y-1059D01*
X-1626Y-1059D01*
X-1645Y-1069D01*
X-1654Y-1078D01*
X-1664Y-1097D01*
X-1673Y-1135D01*
X-1683Y-1154D01*
X-1692Y-1164D01*
X-1711Y-1173D01*
X-1730Y-1173D01*
X-1750Y-1164D01*
X-1759Y-1154D01*
X-1769Y-1135D01*
X-1769Y-1088D01*
X-1759Y-1059D01*
X-1673Y-907D02*
X-1664Y-878D01*
X-1654Y-869D01*
X-1635Y-859D01*
X-1607Y-859D01*
X-1588Y-869D01*
X-1578Y-878D01*
X-1569Y-897D01*
X-1569Y-973D01*
X-1769Y-973D01*
X-1769Y-907D01*
X-1759Y-888D01*
X-1750Y-878D01*
X-1730Y-869D01*
X-1711Y-869D01*
X-1692Y-878D01*
X-1683Y-888D01*
X-1673Y-907D01*
X-1673Y-973D01*
G54D12*
X21952Y6321D02*
X21952Y6630D01*
X22142Y6464D01*
X22142Y6535D01*
X22166Y6583D01*
X22190Y6607D01*
X22238Y6630D01*
X22357Y6630D01*
X22404Y6607D01*
X22428Y6583D01*
X22452Y6535D01*
X22452Y6392D01*
X22428Y6345D01*
X22404Y6321D01*
X21952Y6773D02*
X22452Y6940D01*
X21952Y7107D01*
X22428Y7630D02*
X22452Y7702D01*
X22452Y7821D01*
X22428Y7869D01*
X22404Y7892D01*
X22357Y7916D01*
X22309Y7916D01*
X22261Y7892D01*
X22238Y7869D01*
X22214Y7821D01*
X22190Y7726D01*
X22166Y7678D01*
X22142Y7654D01*
X22095Y7630D01*
X22047Y7630D01*
X22000Y7654D01*
X21976Y7678D01*
X21952Y7726D01*
X21952Y7845D01*
X21976Y7916D01*
X22452Y8130D02*
X21952Y8130D01*
X22190Y8130D02*
X22190Y8416D01*
X22452Y8416D02*
X21952Y8416D01*
X22452Y8654D02*
X21952Y8654D01*
X22190Y8892D02*
X22190Y9059D01*
X22452Y9130D02*
X22452Y8892D01*
X21952Y8892D01*
X21952Y9130D01*
X22452Y9583D02*
X22452Y9345D01*
X21952Y9345D01*
X22452Y9750D02*
X21952Y9750D01*
X21952Y9869D01*
X21976Y9940D01*
X22023Y9988D01*
X22071Y10011D01*
X22166Y10035D01*
X22238Y10035D01*
X22333Y10011D01*
X22380Y9988D01*
X22428Y9940D01*
X22452Y9869D01*
X22452Y9750D01*
X22428Y10226D02*
X22452Y10297D01*
X22452Y10416D01*
X22428Y10464D01*
X22404Y10488D01*
X22357Y10511D01*
X22309Y10511D01*
X22261Y10488D01*
X22238Y10464D01*
X22214Y10416D01*
X22190Y10321D01*
X22166Y10273D01*
X22142Y10250D01*
X22095Y10226D01*
X22047Y10226D01*
X22000Y10250D01*
X21976Y10273D01*
X21952Y10321D01*
X21952Y10440D01*
X21976Y10511D01*
X21952Y11202D02*
X21952Y11297D01*
X21976Y11345D01*
X22023Y11392D01*
X22119Y11416D01*
X22285Y11416D01*
X22380Y11392D01*
X22428Y11345D01*
X22452Y11297D01*
X22452Y11202D01*
X22428Y11154D01*
X22380Y11107D01*
X22285Y11083D01*
X22119Y11083D01*
X22023Y11107D01*
X21976Y11154D01*
X21952Y11202D01*
X22452Y11630D02*
X21952Y11630D01*
X22452Y11916D01*
X21952Y11916D01*
X22452Y12392D02*
X22452Y12154D01*
X21952Y12154D01*
X22214Y12654D02*
X22452Y12654D01*
X21952Y12488D02*
X22214Y12654D01*
X21952Y12821D01*
G54D11*
X21625Y-1166D02*
X21608Y-1183D01*
X21558Y-1216D01*
X21525Y-1233D01*
X21475Y-1250D01*
X21391Y-1266D01*
X21325Y-1266D01*
X21241Y-1250D01*
X21191Y-1233D01*
X21158Y-1216D01*
X21108Y-1183D01*
X21091Y-1166D01*
X21475Y-883D02*
X21491Y-916D01*
X21491Y-983D01*
X21475Y-1016D01*
X21458Y-1033D01*
X21425Y-1050D01*
X21325Y-1050D01*
X21291Y-1033D01*
X21275Y-1016D01*
X21258Y-983D01*
X21258Y-916D01*
X21275Y-883D01*
X21625Y-766D02*
X21608Y-750D01*
X21558Y-716D01*
X21525Y-700D01*
X21475Y-683D01*
X21391Y-666D01*
X21325Y-666D01*
X21241Y-683D01*
X21191Y-700D01*
X21158Y-716D01*
X21108Y-750D01*
X21091Y-766D01*
X21175Y-250D02*
X21158Y-233D01*
X21141Y-200D01*
X21141Y-116D01*
X21158Y-83D01*
X21175Y-66D01*
X21208Y-50D01*
X21241Y-50D01*
X21291Y-66D01*
X21491Y-266D01*
X21491Y-50D01*
X21141Y166D02*
X21141Y200D01*
X21158Y233D01*
X21175Y250D01*
X21208Y266D01*
X21275Y283D01*
X21358Y283D01*
X21425Y266D01*
X21458Y250D01*
X21475Y233D01*
X21491Y200D01*
X21491Y166D01*
X21475Y133D01*
X21458Y116D01*
X21425Y100D01*
X21358Y83D01*
X21275Y83D01*
X21208Y100D01*
X21175Y116D01*
X21158Y133D01*
X21141Y166D01*
X21491Y616D02*
X21491Y416D01*
X21491Y516D02*
X21141Y516D01*
X21191Y483D01*
X21225Y450D01*
X21241Y416D01*
X21141Y733D02*
X21141Y950D01*
X21275Y833D01*
X21275Y883D01*
X21291Y916D01*
X21308Y933D01*
X21341Y950D01*
X21425Y950D01*
X21458Y933D01*
X21475Y916D01*
X21491Y883D01*
X21491Y783D01*
X21475Y750D01*
X21458Y733D01*
X21141Y1333D02*
X21491Y1416D01*
X21241Y1483D01*
X21491Y1550D01*
X21141Y1633D01*
X21475Y1750D02*
X21491Y1800D01*
X21491Y1883D01*
X21475Y1916D01*
X21458Y1933D01*
X21425Y1950D01*
X21391Y1950D01*
X21358Y1933D01*
X21341Y1916D01*
X21325Y1883D01*
X21308Y1816D01*
X21291Y1783D01*
X21275Y1766D01*
X21241Y1750D01*
X21208Y1750D01*
X21175Y1766D01*
X21158Y1783D01*
X21141Y1816D01*
X21141Y1900D01*
X21158Y1950D01*
X21291Y2150D02*
X21275Y2116D01*
X21258Y2100D01*
X21225Y2083D01*
X21208Y2083D01*
X21175Y2100D01*
X21158Y2116D01*
X21141Y2150D01*
X21141Y2216D01*
X21158Y2250D01*
X21175Y2266D01*
X21208Y2283D01*
X21225Y2283D01*
X21258Y2266D01*
X21275Y2250D01*
X21291Y2216D01*
X21291Y2150D01*
X21308Y2116D01*
X21325Y2100D01*
X21358Y2083D01*
X21425Y2083D01*
X21458Y2100D01*
X21475Y2116D01*
X21491Y2150D01*
X21491Y2216D01*
X21475Y2250D01*
X21458Y2266D01*
X21425Y2283D01*
X21358Y2283D01*
X21325Y2266D01*
X21308Y2250D01*
X21291Y2216D01*
X21291Y2483D02*
X21275Y2450D01*
X21258Y2433D01*
X21225Y2416D01*
X21208Y2416D01*
X21175Y2433D01*
X21158Y2450D01*
X21141Y2483D01*
X21141Y2550D01*
X21158Y2583D01*
X21175Y2600D01*
X21208Y2616D01*
X21225Y2616D01*
X21258Y2600D01*
X21275Y2583D01*
X21291Y2550D01*
X21291Y2483D01*
X21308Y2450D01*
X21325Y2433D01*
X21358Y2416D01*
X21425Y2416D01*
X21458Y2433D01*
X21475Y2450D01*
X21491Y2483D01*
X21491Y2550D01*
X21475Y2583D01*
X21458Y2600D01*
X21425Y2616D01*
X21358Y2616D01*
X21325Y2600D01*
X21308Y2583D01*
X21291Y2550D01*
G54D13*
X13550Y15050D02*
X13550Y14950D01*
X16050Y15050D02*
X13550Y15050D01*
X16050Y13550D02*
X16050Y15050D01*
X13550Y13550D02*
X16050Y13550D01*
X13550Y14950D02*
X13550Y13550D01*
X13892Y13728D02*
X13792Y13871D01*
X13721Y13728D02*
X13721Y14028D01*
X13835Y14028D01*
X13864Y14014D01*
X13878Y14000D01*
X13892Y13971D01*
X13892Y13928D01*
X13878Y13900D01*
X13864Y13885D01*
X13835Y13871D01*
X13721Y13871D01*
X14178Y13728D02*
X14007Y13728D01*
X14092Y13728D02*
X14092Y14028D01*
X14064Y13985D01*
X14035Y13957D01*
X14007Y13942D01*
X14464Y13728D02*
X14292Y13728D01*
X14378Y13728D02*
X14378Y14028D01*
X14350Y13985D01*
X14321Y13957D01*
X14292Y13942D01*
X14592Y13885D02*
X14821Y13885D01*
X14821Y13800D02*
X14592Y13800D01*
X14950Y13742D02*
X14992Y13728D01*
X15064Y13728D01*
X15092Y13742D01*
X15107Y13757D01*
X15121Y13785D01*
X15121Y13814D01*
X15107Y13842D01*
X15092Y13857D01*
X15064Y13871D01*
X15007Y13885D01*
X14978Y13900D01*
X14964Y13914D01*
X14950Y13942D01*
X14950Y13971D01*
X14964Y14000D01*
X14978Y14014D01*
X15007Y14028D01*
X15078Y14028D01*
X15121Y14014D01*
X15250Y13728D02*
X15250Y14028D01*
X15364Y14028D01*
X15392Y14014D01*
X15407Y14000D01*
X15421Y13971D01*
X15421Y13928D01*
X15407Y13900D01*
X15392Y13885D01*
X15364Y13871D01*
X15250Y13871D01*
X15550Y13728D02*
X15550Y14028D01*
X13842Y14578D02*
X13742Y14721D01*
X13671Y14578D02*
X13671Y14878D01*
X13785Y14878D01*
X13814Y14864D01*
X13828Y14850D01*
X13842Y14821D01*
X13842Y14778D01*
X13828Y14750D01*
X13814Y14735D01*
X13785Y14721D01*
X13671Y14721D01*
X14128Y14578D02*
X13957Y14578D01*
X14042Y14578D02*
X14042Y14878D01*
X14014Y14835D01*
X13985Y14807D01*
X13957Y14792D01*
X14314Y14878D02*
X14342Y14878D01*
X14371Y14864D01*
X14385Y14850D01*
X14400Y14821D01*
X14414Y14764D01*
X14414Y14692D01*
X14400Y14635D01*
X14385Y14607D01*
X14371Y14592D01*
X14342Y14578D01*
X14314Y14578D01*
X14285Y14592D01*
X14271Y14607D01*
X14257Y14635D01*
X14242Y14692D01*
X14242Y14764D01*
X14257Y14821D01*
X14271Y14850D01*
X14285Y14864D01*
X14314Y14878D01*
X14542Y14735D02*
X14771Y14735D01*
X14771Y14650D02*
X14542Y14650D01*
X14914Y14578D02*
X14914Y14878D01*
X15028Y14878D01*
X15057Y14864D01*
X15071Y14850D01*
X15085Y14821D01*
X15085Y14778D01*
X15071Y14750D01*
X15057Y14735D01*
X15028Y14721D01*
X14914Y14721D01*
X15185Y14878D02*
X15257Y14578D01*
X15314Y14792D01*
X15371Y14578D01*
X15442Y14878D01*
X15557Y14578D02*
X15557Y14878D01*
X15657Y14664D01*
X15757Y14878D01*
X15757Y14578D01*
X-42Y-1578D02*
X-42Y-1350D01*
X71Y-1464D02*
X-157Y-1464D01*
X-228Y-1064D02*
X-228Y-1207D01*
X-85Y-1221D01*
X-100Y-1207D01*
X-114Y-1178D01*
X-114Y-1107D01*
X-100Y-1078D01*
X-85Y-1064D01*
X-57Y-1050D01*
X14Y-1050D01*
X42Y-1064D01*
X57Y-1078D01*
X71Y-1107D01*
X71Y-1178D01*
X57Y-1207D01*
X42Y-1221D01*
X-228Y-964D02*
X71Y-864D01*
X-228Y-764D01*
X19630Y13402D02*
X19630Y13288D01*
X19630Y13345D02*
X19430Y13345D01*
X19459Y13326D01*
X19478Y13307D01*
X19488Y13288D01*
X21871Y14571D02*
X21571Y14571D01*
X21571Y14642D01*
X21585Y14685D01*
X21614Y14714D01*
X21642Y14728D01*
X21700Y14742D01*
X21742Y14742D01*
X21800Y14728D01*
X21828Y14714D01*
X21857Y14685D01*
X21871Y14642D01*
X21871Y14571D01*
X21600Y14857D02*
X21585Y14871D01*
X21571Y14900D01*
X21571Y14971D01*
X21585Y15000D01*
X21600Y15014D01*
X21628Y15028D01*
X21657Y15028D01*
X21700Y15014D01*
X21871Y14842D01*
X21871Y15028D01*
X20871Y14571D02*
X20571Y14571D01*
X20571Y14642D01*
X20585Y14685D01*
X20614Y14714D01*
X20642Y14728D01*
X20700Y14742D01*
X20742Y14742D01*
X20800Y14728D01*
X20828Y14714D01*
X20857Y14685D01*
X20871Y14642D01*
X20871Y14571D01*
X20571Y14842D02*
X20571Y15028D01*
X20685Y14928D01*
X20685Y14971D01*
X20700Y15000D01*
X20714Y15014D01*
X20742Y15028D01*
X20814Y15028D01*
X20842Y15014D01*
X20857Y15000D01*
X20871Y14971D01*
X20871Y14885D01*
X20857Y14857D01*
X20842Y14842D01*
X19871Y14571D02*
X19571Y14571D01*
X19571Y14642D01*
X19585Y14685D01*
X19614Y14714D01*
X19642Y14728D01*
X19700Y14742D01*
X19742Y14742D01*
X19800Y14728D01*
X19828Y14714D01*
X19857Y14685D01*
X19871Y14642D01*
X19871Y14571D01*
X19671Y15000D02*
X19871Y15000D01*
X19557Y14928D02*
X19771Y14857D01*
X19771Y15042D01*
X18871Y14571D02*
X18571Y14571D01*
X18571Y14642D01*
X18585Y14685D01*
X18614Y14714D01*
X18642Y14728D01*
X18700Y14742D01*
X18742Y14742D01*
X18800Y14728D01*
X18828Y14714D01*
X18857Y14685D01*
X18871Y14642D01*
X18871Y14571D01*
X18571Y15014D02*
X18571Y14871D01*
X18714Y14857D01*
X18700Y14871D01*
X18685Y14900D01*
X18685Y14971D01*
X18700Y15000D01*
X18714Y15014D01*
X18742Y15028D01*
X18814Y15028D01*
X18842Y15014D01*
X18857Y15000D01*
X18871Y14971D01*
X18871Y14900D01*
X18857Y14871D01*
X18842Y14857D01*
X9040Y14502D02*
X9030Y14483D01*
X9030Y14454D01*
X9040Y14426D01*
X9059Y14407D01*
X9078Y14397D01*
X9116Y14388D01*
X9145Y14388D01*
X9183Y14397D01*
X9202Y14407D01*
X9221Y14426D01*
X9230Y14454D01*
X9230Y14473D01*
X9221Y14502D01*
X9211Y14511D01*
X9145Y14511D01*
X9145Y14473D01*
X9230Y14597D02*
X9030Y14597D01*
X9230Y14711D01*
X9030Y14711D01*
X9230Y14807D02*
X9030Y14807D01*
X9030Y14854D01*
X9040Y14883D01*
X9059Y14902D01*
X9078Y14911D01*
X9116Y14921D01*
X9145Y14921D01*
X9183Y14911D01*
X9202Y14902D01*
X9221Y14883D01*
X9230Y14854D01*
X9230Y14807D01*
X8173Y14388D02*
X8173Y14483D01*
X8230Y14369D02*
X8030Y14435D01*
X8230Y14502D01*
X8230Y14683D02*
X8135Y14616D01*
X8230Y14569D02*
X8030Y14569D01*
X8030Y14645D01*
X8040Y14664D01*
X8050Y14673D01*
X8069Y14683D01*
X8097Y14683D01*
X8116Y14673D01*
X8126Y14664D01*
X8135Y14645D01*
X8135Y14569D01*
X8126Y14769D02*
X8126Y14835D01*
X8230Y14864D02*
X8230Y14769D01*
X8030Y14769D01*
X8030Y14864D01*
X8126Y15016D02*
X8126Y14950D01*
X8230Y14950D02*
X8030Y14950D01*
X8030Y15045D01*
G54D11*
X19240Y13420D02*
X19010Y13190D01*
X18780Y13420D02*
X19240Y13420D01*
X19010Y13190D02*
X18780Y13420D01*
X15230Y12990D02*
X15230Y13470D01*
X15230Y13470D02*
X14940Y13180D01*
X14940Y13180D02*
X15210Y12910D01*
G54D13*
X15230Y12890D02*
X15230Y12990D01*
G54D11*
X14900Y12890D02*
X14900Y13460D01*
X14880Y13180D02*
X14700Y13180D01*
X15230Y13180D02*
X15500Y13180D01*
G54D13*
X23873Y-2511D02*
X23873Y-2416D01*
X23930Y-2530D02*
X23730Y-2464D01*
X23930Y-2397D01*
X23730Y-2235D02*
X23730Y-2330D01*
X23826Y-2340D01*
X23816Y-2330D01*
X23807Y-2311D01*
X23807Y-2264D01*
X23816Y-2245D01*
X23826Y-2235D01*
X23845Y-2226D01*
X23892Y-2226D01*
X23911Y-2235D01*
X23921Y-2245D01*
X23930Y-2264D01*
X23930Y-2311D01*
X23921Y-2330D01*
X23911Y-2340D01*
X22773Y-2511D02*
X22773Y-2416D01*
X22830Y-2530D02*
X22630Y-2464D01*
X22830Y-2397D01*
X22697Y-2245D02*
X22830Y-2245D01*
X22621Y-2292D02*
X22764Y-2340D01*
X22764Y-2216D01*
X21773Y-2511D02*
X21773Y-2416D01*
X21830Y-2530D02*
X21630Y-2464D01*
X21830Y-2397D01*
X21630Y-2350D02*
X21630Y-2226D01*
X21707Y-2292D01*
X21707Y-2264D01*
X21716Y-2245D01*
X21726Y-2235D01*
X21745Y-2226D01*
X21792Y-2226D01*
X21811Y-2235D01*
X21821Y-2245D01*
X21830Y-2264D01*
X21830Y-2321D01*
X21821Y-2340D01*
X21811Y-2350D01*
X20773Y-2511D02*
X20773Y-2416D01*
X20830Y-2530D02*
X20630Y-2464D01*
X20830Y-2397D01*
X20650Y-2340D02*
X20640Y-2330D01*
X20630Y-2311D01*
X20630Y-2264D01*
X20640Y-2245D01*
X20650Y-2235D01*
X20669Y-2226D01*
X20688Y-2226D01*
X20716Y-2235D01*
X20830Y-2350D01*
X20830Y-2226D01*
X19773Y-2511D02*
X19773Y-2416D01*
X19830Y-2530D02*
X19630Y-2464D01*
X19830Y-2397D01*
X19830Y-2226D02*
X19830Y-2340D01*
X19830Y-2283D02*
X19630Y-2283D01*
X19659Y-2302D01*
X19678Y-2321D01*
X19688Y-2340D01*
X18773Y-2511D02*
X18773Y-2416D01*
X18830Y-2530D02*
X18630Y-2464D01*
X18830Y-2397D01*
X18630Y-2292D02*
X18630Y-2273D01*
X18640Y-2254D01*
X18650Y-2245D01*
X18669Y-2235D01*
X18707Y-2226D01*
X18754Y-2226D01*
X18792Y-2235D01*
X18811Y-2245D01*
X18821Y-2254D01*
X18830Y-2273D01*
X18830Y-2292D01*
X18821Y-2311D01*
X18811Y-2321D01*
X18792Y-2330D01*
X18754Y-2340D01*
X18707Y-2340D01*
X18669Y-2330D01*
X18650Y-2321D01*
X18640Y-2311D01*
X18630Y-2292D01*
X15471Y-1690D02*
X15171Y-1690D01*
X15171Y-1595D01*
X15185Y-1571D01*
X15200Y-1559D01*
X15228Y-1547D01*
X15271Y-1547D01*
X15300Y-1559D01*
X15314Y-1571D01*
X15328Y-1595D01*
X15328Y-1690D01*
X15171Y-1464D02*
X15471Y-1404D01*
X15257Y-1357D01*
X15471Y-1309D01*
X15171Y-1250D01*
X15471Y-1011D02*
X15328Y-1095D01*
X15471Y-1154D02*
X15171Y-1154D01*
X15171Y-1059D01*
X15185Y-1035D01*
X15200Y-1023D01*
X15228Y-1011D01*
X15271Y-1011D01*
X15300Y-1023D01*
X15314Y-1035D01*
X15328Y-1059D01*
X15328Y-1154D01*
X14814Y-1678D02*
X14814Y-1578D01*
X14971Y-1535D02*
X14971Y-1678D01*
X14671Y-1678D01*
X14671Y-1535D01*
X14671Y-1435D02*
X14971Y-1235D01*
X14671Y-1235D02*
X14971Y-1435D01*
X14671Y-1164D02*
X14671Y-992D01*
X14971Y-1078D02*
X14671Y-1078D01*
X15740Y-2397D02*
X15730Y-2416D01*
X15730Y-2445D01*
X15740Y-2473D01*
X15759Y-2492D01*
X15778Y-2502D01*
X15816Y-2511D01*
X15845Y-2511D01*
X15883Y-2502D01*
X15902Y-2492D01*
X15921Y-2473D01*
X15930Y-2445D01*
X15930Y-2426D01*
X15921Y-2397D01*
X15911Y-2388D01*
X15845Y-2388D01*
X15845Y-2426D01*
X15930Y-2302D02*
X15730Y-2302D01*
X15930Y-2188D01*
X15730Y-2188D01*
X15930Y-2092D02*
X15730Y-2092D01*
X15730Y-2045D01*
X15740Y-2016D01*
X15759Y-1997D01*
X15778Y-1988D01*
X15816Y-1978D01*
X15845Y-1978D01*
X15883Y-1988D01*
X15902Y-1997D01*
X15921Y-2016D01*
X15930Y-2045D01*
X15930Y-2092D01*
G54D10*
X20711Y11459D02*
X20311Y11459D01*
X20673Y11878D02*
X20692Y11859D01*
X20711Y11802D01*
X20711Y11764D01*
X20692Y11707D01*
X20654Y11669D01*
X20616Y11650D01*
X20540Y11630D01*
X20483Y11630D01*
X20407Y11650D01*
X20369Y11669D01*
X20330Y11707D01*
X20311Y11764D01*
X20311Y11802D01*
X20330Y11859D01*
X20350Y11878D01*
X20692Y12030D02*
X20711Y12088D01*
X20711Y12183D01*
X20692Y12221D01*
X20673Y12240D01*
X20635Y12259D01*
X20597Y12259D01*
X20559Y12240D01*
X20540Y12221D01*
X20521Y12183D01*
X20502Y12107D01*
X20483Y12069D01*
X20464Y12050D01*
X20426Y12030D01*
X20388Y12030D01*
X20350Y12050D01*
X20330Y12069D01*
X20311Y12107D01*
X20311Y12202D01*
X20330Y12259D01*
X20711Y12430D02*
X20311Y12430D01*
X20311Y12583D01*
X20330Y12621D01*
X20350Y12640D01*
X20388Y12659D01*
X20445Y12659D01*
X20483Y12640D01*
X20502Y12621D01*
X20521Y12583D01*
X20521Y12430D01*
X39000Y16500D02*
X38750Y16750D01*
X38750Y-4250D02*
X39000Y-4000D01*
X-5000Y-4250D02*
X-5250Y-4000D01*
X-5250Y16500D02*
X-5000Y16750D01*
X-5250Y11100D02*
X-5250Y-4000D01*
X-5250Y16500D02*
X-5250Y12050D01*
X-1000Y11100D02*
X-5250Y11100D01*
X-1000Y12050D02*
X-1000Y11100D01*
X-5250Y12050D02*
X-1000Y12050D01*
G54D13*
X13730Y-2407D02*
X13730Y-2502D01*
X13826Y-2511D01*
X13816Y-2502D01*
X13807Y-2483D01*
X13807Y-2435D01*
X13816Y-2416D01*
X13826Y-2407D01*
X13845Y-2397D01*
X13892Y-2397D01*
X13911Y-2407D01*
X13921Y-2416D01*
X13930Y-2435D01*
X13930Y-2483D01*
X13921Y-2502D01*
X13911Y-2511D01*
X13730Y-2340D02*
X13930Y-2273D01*
X13730Y-2207D01*
X11930Y-2388D02*
X11835Y-2454D01*
X11930Y-2502D02*
X11730Y-2502D01*
X11730Y-2426D01*
X11740Y-2407D01*
X11750Y-2397D01*
X11769Y-2388D01*
X11797Y-2388D01*
X11816Y-2397D01*
X11826Y-2407D01*
X11835Y-2426D01*
X11835Y-2502D01*
X11921Y-2311D02*
X11930Y-2283D01*
X11930Y-2235D01*
X11921Y-2216D01*
X11911Y-2207D01*
X11892Y-2197D01*
X11873Y-2197D01*
X11854Y-2207D01*
X11845Y-2216D01*
X11835Y-2235D01*
X11826Y-2273D01*
X11816Y-2292D01*
X11807Y-2302D01*
X11788Y-2311D01*
X11769Y-2311D01*
X11750Y-2302D01*
X11740Y-2292D01*
X11730Y-2273D01*
X11730Y-2226D01*
X11740Y-2197D01*
X11730Y-2140D02*
X11730Y-2026D01*
X11930Y-2083D02*
X11730Y-2083D01*
X12730Y-2521D02*
X12730Y-2397D01*
X12807Y-2464D01*
X12807Y-2435D01*
X12816Y-2416D01*
X12826Y-2407D01*
X12845Y-2397D01*
X12892Y-2397D01*
X12911Y-2407D01*
X12921Y-2416D01*
X12930Y-2435D01*
X12930Y-2492D01*
X12921Y-2511D01*
X12911Y-2521D01*
X12911Y-2311D02*
X12921Y-2302D01*
X12930Y-2311D01*
X12921Y-2321D01*
X12911Y-2311D01*
X12930Y-2311D01*
X12730Y-2235D02*
X12730Y-2111D01*
X12807Y-2178D01*
X12807Y-2149D01*
X12816Y-2130D01*
X12826Y-2121D01*
X12845Y-2111D01*
X12892Y-2111D01*
X12911Y-2121D01*
X12921Y-2130D01*
X12930Y-2149D01*
X12930Y-2207D01*
X12921Y-2226D01*
X12911Y-2235D01*
X12730Y-2054D02*
X12930Y-1988D01*
X12730Y-1921D01*
X16826Y-2502D02*
X16826Y-2435D01*
X16930Y-2407D02*
X16930Y-2502D01*
X16730Y-2502D01*
X16730Y-2407D01*
X16730Y-2340D02*
X16930Y-2207D01*
X16730Y-2207D02*
X16930Y-2340D01*
X16730Y-2159D02*
X16730Y-2045D01*
X16930Y-2102D02*
X16730Y-2102D01*
X16950Y-2026D02*
X16950Y-1873D01*
X16930Y-1826D02*
X16730Y-1826D01*
X16730Y-1749D01*
X16740Y-1730D01*
X16750Y-1721D01*
X16769Y-1711D01*
X16797Y-1711D01*
X16816Y-1721D01*
X16826Y-1730D01*
X16835Y-1749D01*
X16835Y-1826D01*
X16730Y-1645D02*
X16930Y-1597D01*
X16788Y-1559D01*
X16930Y-1521D01*
X16730Y-1473D01*
X16930Y-1283D02*
X16835Y-1349D01*
X16930Y-1397D02*
X16730Y-1397D01*
X16730Y-1321D01*
X16740Y-1302D01*
X16750Y-1292D01*
X16769Y-1283D01*
X16797Y-1283D01*
X16816Y-1292D01*
X16826Y-1302D01*
X16835Y-1321D01*
X16835Y-1397D01*
X9821Y11421D02*
X9521Y11421D01*
X9521Y11535D01*
X9535Y11564D01*
X9550Y11578D01*
X9578Y11592D01*
X9621Y11592D01*
X9650Y11578D01*
X9664Y11564D01*
X9678Y11535D01*
X9678Y11421D01*
X9521Y11692D02*
X9821Y11764D01*
X9607Y11821D01*
X9821Y11878D01*
X9521Y11950D01*
X9821Y12235D02*
X9678Y12135D01*
X9821Y12064D02*
X9521Y12064D01*
X9521Y12178D01*
X9535Y12207D01*
X9550Y12221D01*
X9578Y12235D01*
X9621Y12235D01*
X9650Y12221D01*
X9664Y12207D01*
X9678Y12178D01*
X9678Y12064D01*
X27102Y-1502D02*
X27121Y-1445D01*
X27140Y-1426D01*
X27178Y-1407D01*
X27235Y-1407D01*
X27273Y-1426D01*
X27292Y-1445D01*
X27311Y-1483D01*
X27311Y-1635D01*
X26911Y-1635D01*
X26911Y-1502D01*
X26930Y-1464D01*
X26950Y-1445D01*
X26988Y-1426D01*
X27026Y-1426D01*
X27064Y-1445D01*
X27083Y-1464D01*
X27102Y-1502D01*
X27102Y-1635D01*
X27197Y-1254D02*
X27197Y-1064D01*
X27311Y-1292D02*
X26911Y-1159D01*
X27311Y-1026D01*
X26911Y-950D02*
X26911Y-721D01*
X27311Y-835D02*
X26911Y-835D01*
X27350Y-683D02*
X27350Y-378D01*
X27311Y-283D02*
X26911Y-283D01*
X27311Y-92D02*
X26911Y-92D01*
X27311Y135D01*
X26911Y135D01*
G54D14*
X-950Y11950D02*
X-950Y-4250D01*
G54D15*
X38750Y16750D02*
X-5000Y16750D01*
G54D10*
X39000Y-4000D02*
X39000Y16500D01*
G54D15*
X-5000Y-4250D02*
X38750Y-4250D01*
G54D13*
X2950Y16050D02*
X2950Y15750D01*
X2950Y13550D02*
X2950Y13250D01*
X2800Y15900D02*
X3100Y15900D01*
X4450Y15250D02*
X4450Y13750D01*
X2950Y15550D02*
X4150Y15550D01*
X4450Y15250D02*
X4150Y15550D01*
X2650Y15250D02*
X2650Y13750D01*
X2650Y15250D02*
X2950Y15550D01*
X3600Y13850D02*
X3500Y13850D01*
X2650Y13750D02*
X4450Y13750D01*
X28930Y12350D02*
X28680Y12550D01*
X28680Y12550D02*
X28680Y12150D01*
X28680Y12150D02*
X28930Y12350D01*
X28930Y12600D02*
X28930Y12100D01*
X29000Y11900D02*
X29000Y11800D01*
X29000Y11800D02*
X29200Y11800D01*
X29200Y11800D02*
X29200Y11900D01*
X29200Y11900D02*
X29000Y11900D01*
G54D16*
X28741Y12311D02*
X28819Y12311D01*
X28819Y12311D02*
X28819Y12389D01*
X28741Y12389D02*
X28819Y12389D01*
X28741Y12311D02*
X28741Y12389D01*
G54D12*
X15650Y15250D02*
X7650Y15250D01*
X7650Y15250D02*
X7650Y16250D01*
X7650Y16250D02*
X15650Y16250D01*
X15650Y16250D02*
X15650Y15250D01*
X14650Y16250D02*
X14650Y15250D01*
G54D15*
X15850Y3900D02*
X15850Y3100D01*
X18650Y4600D02*
X18650Y4700D01*
X18650Y4700D02*
X15850Y4700D01*
X15850Y4700D02*
X15850Y4600D01*
X18650Y3100D02*
X18650Y3900D01*
X18650Y2300D02*
X18650Y2400D01*
X18650Y2300D02*
X15850Y2300D01*
X15850Y2300D02*
X15850Y2400D01*
X15850Y9400D02*
X15850Y8600D01*
X18650Y10100D02*
X18650Y10200D01*
X18650Y10200D02*
X15850Y10200D01*
X15850Y10200D02*
X15850Y10100D01*
X18650Y8600D02*
X18650Y9400D01*
X18650Y7800D02*
X18650Y7900D01*
X18650Y7800D02*
X15850Y7800D01*
X15850Y7800D02*
X15850Y7900D01*
X15850Y6650D02*
X15850Y5850D01*
X18650Y7350D02*
X18650Y7450D01*
X18650Y7450D02*
X15850Y7450D01*
X15850Y7450D02*
X15850Y7350D01*
X18650Y5850D02*
X18650Y6650D01*
X18650Y5050D02*
X18650Y5150D01*
X18650Y5050D02*
X15850Y5050D01*
X15850Y5050D02*
X15850Y5150D01*
G54D13*
X29875Y1750D02*
X31475Y1750D01*
X29875Y-850D02*
X31475Y-850D01*
G54D17*
X31679Y-1047D02*
G75*
G03X31679Y-1047I-55J0D01*
G74*
G01*
G54D13*
X31478Y1750D02*
X31478Y-850D01*
X29872Y-850D02*
X29872Y1750D01*
G54D15*
X30650Y8600D02*
X30700Y8600D01*
X30700Y8600D02*
X30700Y10700D01*
X30700Y10700D02*
X30650Y10700D01*
X30550Y10700D02*
X30550Y8600D01*
X27750Y10700D02*
X27750Y8600D01*
X30650Y10700D02*
X27750Y10700D01*
X27750Y8600D02*
X30650Y8600D01*
G54D17*
X30902Y10874D02*
G75*
G03X30902Y10874I-55J0D01*
G74*
G01*
G54D12*
X24250Y15250D02*
X16250Y15250D01*
X16250Y15250D02*
X16250Y16250D01*
X16250Y16250D02*
X24250Y16250D01*
X24250Y16250D02*
X24250Y15250D01*
X23250Y16250D02*
X23250Y15250D01*
G54D13*
X4750Y14900D02*
X4750Y15600D01*
X4750Y15600D02*
X5950Y15600D01*
X5950Y15600D02*
X5950Y14900D01*
X5950Y14900D02*
X4750Y14900D01*
X16100Y11850D02*
X16200Y11850D01*
X16200Y11850D02*
X16200Y12750D01*
X16200Y12750D02*
X16100Y12750D01*
X16100Y11850D02*
X16100Y12750D01*
X16100Y12750D02*
X15450Y12750D01*
X14750Y11850D02*
X14100Y11850D01*
X14100Y11850D02*
X14100Y12750D01*
X14100Y12750D02*
X14750Y12750D01*
X15450Y11850D02*
X16100Y11850D01*
X-350Y15900D02*
X-350Y15000D01*
X-350Y15000D02*
X300Y15000D01*
X1000Y15900D02*
X1650Y15900D01*
X1650Y15900D02*
X1650Y15000D01*
X1650Y15000D02*
X1000Y15000D01*
X300Y15900D02*
X-350Y15900D01*
X25550Y2200D02*
X25550Y1300D01*
X25550Y1300D02*
X26200Y1300D01*
X26900Y2200D02*
X27550Y2200D01*
X27550Y2200D02*
X27550Y1300D01*
X27550Y1300D02*
X26900Y1300D01*
X26200Y2200D02*
X25550Y2200D01*
X26700Y9250D02*
X27600Y9250D01*
X27600Y9250D02*
X27600Y9900D01*
X26700Y10600D02*
X26700Y11250D01*
X26700Y11250D02*
X27600Y11250D01*
X27600Y11250D02*
X27600Y10600D01*
X26700Y9900D02*
X26700Y9250D01*
X7150Y13400D02*
X7150Y14300D01*
X7150Y14300D02*
X6500Y14300D01*
X5800Y13400D02*
X5150Y13400D01*
X5150Y13400D02*
X5150Y14300D01*
X5150Y14300D02*
X5800Y14300D01*
X6500Y13400D02*
X7150Y13400D01*
X500Y14350D02*
X-400Y14350D01*
X-400Y14350D02*
X-400Y13700D01*
X500Y13000D02*
X500Y12350D01*
X500Y12350D02*
X-400Y12350D01*
X-400Y12350D02*
X-400Y13000D01*
X500Y13700D02*
X500Y14350D01*
X1800Y14350D02*
X900Y14350D01*
X900Y14350D02*
X900Y13700D01*
X1800Y13000D02*
X1800Y12350D01*
X1800Y12350D02*
X900Y12350D01*
X900Y12350D02*
X900Y13000D01*
X1800Y13700D02*
X1800Y14350D01*
G54D18*
X29756Y1597D02*
X29756Y1872D01*
X29756Y1203D02*
X29756Y928D01*
X29244Y1597D02*
X29244Y1872D01*
X29244Y928D02*
X29244Y1203D01*
X29250Y1872D02*
X29750Y1872D01*
X29750Y928D02*
X29250Y928D01*
X29897Y3194D02*
X30172Y3194D01*
X29503Y3194D02*
X29228Y3194D01*
X29897Y3706D02*
X30172Y3706D01*
X29228Y3706D02*
X29503Y3706D01*
X30172Y3700D02*
X30172Y3200D01*
X29228Y3200D02*
X29228Y3700D01*
X7006Y15447D02*
X7006Y15722D01*
X7006Y15053D02*
X7006Y14778D01*
X6494Y15447D02*
X6494Y15722D01*
X6494Y14778D02*
X6494Y15053D01*
X6500Y15722D02*
X7000Y15722D01*
X7000Y14778D02*
X6500Y14778D01*
X28897Y10844D02*
X29172Y10844D01*
X28503Y10844D02*
X28228Y10844D01*
X28897Y11356D02*
X29172Y11356D01*
X28228Y11356D02*
X28503Y11356D01*
X29172Y11350D02*
X29172Y10850D01*
X28228Y10850D02*
X28228Y11350D01*
X29056Y1597D02*
X29056Y1872D01*
X29056Y1203D02*
X29056Y928D01*
X28544Y1597D02*
X28544Y1872D01*
X28544Y928D02*
X28544Y1203D01*
X28550Y1872D02*
X29050Y1872D01*
X29050Y928D02*
X28550Y928D01*
X29703Y11356D02*
X29428Y11356D01*
X30097Y11356D02*
X30372Y11356D01*
X29703Y10844D02*
X29428Y10844D01*
X30372Y10844D02*
X30097Y10844D01*
X29428Y10850D02*
X29428Y11350D01*
X30372Y11350D02*
X30372Y10850D01*
G54D13*
X25250Y7300D02*
X25250Y8200D01*
X25250Y8200D02*
X25750Y8200D01*
X25750Y8200D02*
X25750Y7300D01*
X25750Y7300D02*
X25250Y7300D01*
X26700Y14600D02*
X27600Y14600D01*
X27600Y14600D02*
X27600Y14100D01*
X27600Y14100D02*
X26700Y14100D01*
X26700Y14100D02*
X26700Y14600D01*
X27200Y500D02*
X26300Y500D01*
X26300Y500D02*
X26300Y1000D01*
X26300Y1000D02*
X27200Y1000D01*
X27200Y1000D02*
X27200Y500D01*
X19550Y8000D02*
X20450Y8000D01*
X20450Y8000D02*
X20450Y7500D01*
X20450Y7500D02*
X19550Y7500D01*
X19550Y7500D02*
X19550Y8000D01*
X5500Y12000D02*
X6400Y12000D01*
X6400Y12000D02*
X6400Y11500D01*
X6400Y11500D02*
X5500Y11500D01*
X5500Y11500D02*
X5500Y12000D01*
X13000Y2250D02*
X13000Y1350D01*
X13000Y1350D02*
X12500Y1350D01*
X12500Y1350D02*
X12500Y2250D01*
X12500Y2250D02*
X13000Y2250D01*
X7600Y14300D02*
X8500Y14300D01*
X8500Y14300D02*
X8500Y13800D01*
X8500Y13800D02*
X7600Y13800D01*
X7600Y13800D02*
X7600Y14300D01*
X19550Y10200D02*
X20450Y10200D01*
X20450Y10200D02*
X20450Y9700D01*
X20450Y9700D02*
X19550Y9700D01*
X19550Y9700D02*
X19550Y10200D01*
X14300Y11650D02*
X15200Y11650D01*
X15200Y11650D02*
X15200Y11150D01*
X15200Y11150D02*
X14300Y11150D01*
X14300Y11150D02*
X14300Y11650D01*
X25250Y8400D02*
X25250Y9300D01*
X25250Y9300D02*
X25750Y9300D01*
X25750Y9300D02*
X25750Y8400D01*
X25750Y8400D02*
X25250Y8400D01*
X13000Y8250D02*
X13000Y7350D01*
X13000Y7350D02*
X12500Y7350D01*
X12500Y7350D02*
X12500Y8250D01*
X12500Y8250D02*
X13000Y8250D01*
X12950Y14500D02*
X12050Y14500D01*
X12050Y14500D02*
X12050Y15000D01*
X12050Y15000D02*
X12950Y15000D01*
X12950Y15000D02*
X12950Y14500D01*
X12950Y13750D02*
X12050Y13750D01*
X12050Y13750D02*
X12050Y14250D01*
X12050Y14250D02*
X12950Y14250D01*
X12950Y14250D02*
X12950Y13750D01*
X13000Y4250D02*
X13000Y3350D01*
X13000Y3350D02*
X12500Y3350D01*
X12500Y3350D02*
X12500Y4250D01*
X12500Y4250D02*
X13000Y4250D01*
X15200Y-2400D02*
X14300Y-2400D01*
X14300Y-2400D02*
X14300Y-1900D01*
X14300Y-1900D02*
X15200Y-1900D01*
X15200Y-1900D02*
X15200Y-2400D01*
X13000Y6250D02*
X13000Y5350D01*
X13000Y5350D02*
X12500Y5350D01*
X12500Y5350D02*
X12500Y6250D01*
X12500Y6250D02*
X13000Y6250D01*
X26700Y12600D02*
X27600Y12600D01*
X27600Y12600D02*
X27600Y12100D01*
X27600Y12100D02*
X26700Y12100D01*
X26700Y12100D02*
X26700Y12600D01*
X26700Y13600D02*
X27600Y13600D01*
X27600Y13600D02*
X27600Y13100D01*
X27600Y13100D02*
X26700Y13100D01*
X26700Y13100D02*
X26700Y13600D01*
X13000Y10250D02*
X13000Y9350D01*
X13000Y9350D02*
X12500Y9350D01*
X12500Y9350D02*
X12500Y10250D01*
X12500Y10250D02*
X13000Y10250D01*
X30550Y6625D02*
X30350Y6625D01*
X30350Y6625D02*
X30350Y6325D01*
X30350Y6325D02*
X30550Y6325D01*
X30750Y6625D02*
X30950Y6625D01*
X30950Y6625D02*
X30950Y6325D01*
X30950Y6325D02*
X30750Y6325D01*
X28900Y3400D02*
X29100Y3400D01*
X29100Y3400D02*
X29100Y3700D01*
X29100Y3700D02*
X28900Y3700D01*
X28700Y3400D02*
X28500Y3400D01*
X28500Y3400D02*
X28500Y3700D01*
X28500Y3700D02*
X28700Y3700D01*
X30550Y6175D02*
X30350Y6175D01*
X30350Y6175D02*
X30350Y5875D01*
X30350Y5875D02*
X30550Y5875D01*
X30750Y6175D02*
X30950Y6175D01*
X30950Y6175D02*
X30950Y5875D01*
X30950Y5875D02*
X30750Y5875D01*
G54D12*
X11250Y-3750D02*
X11250Y-2750D01*
X11250Y-2750D02*
X17250Y-2750D01*
X17250Y-2750D02*
X17250Y-3750D01*
X17250Y-3750D02*
X11250Y-3750D01*
X12250Y-3750D02*
X12250Y-2750D01*
X18250Y-3750D02*
X18250Y-2750D01*
X18250Y-2750D02*
X24250Y-2750D01*
X24250Y-2750D02*
X24250Y-3750D01*
X24250Y-3750D02*
X18250Y-3750D01*
X19250Y-3750D02*
X19250Y-2750D01*
G54D19*
X16500Y13000D02*
X19500Y13000D01*
X19500Y11000D02*
X16500Y11000D01*
X16500Y11000D02*
X16500Y13000D01*
X19500Y13000D02*
X19500Y11000D01*
G54D13*
X31100Y2000D02*
X31100Y2900D01*
X31100Y2900D02*
X30450Y2900D01*
X29750Y2000D02*
X29100Y2000D01*
X29100Y2000D02*
X29100Y2900D01*
X29100Y2900D02*
X29750Y2900D01*
X30450Y2000D02*
X31100Y2000D01*
X7050Y8380D02*
X6850Y8130D01*
X6850Y8130D02*
X7250Y8130D01*
X7250Y8130D02*
X7050Y8380D01*
X6800Y8380D02*
X7300Y8380D01*
X7500Y8450D02*
X7600Y8450D01*
X7600Y8450D02*
X7600Y8650D01*
X7600Y8650D02*
X7500Y8650D01*
X7500Y8650D02*
X7500Y8450D01*
G54D16*
X7089Y8191D02*
X7089Y8269D01*
X7089Y8269D02*
X7011Y8269D01*
X7011Y8191D02*
X7011Y8269D01*
X7089Y8191D02*
X7011Y8191D01*
G54D13*
X7050Y10380D02*
X6850Y10130D01*
X6850Y10130D02*
X7250Y10130D01*
X7250Y10130D02*
X7050Y10380D01*
X6800Y10380D02*
X7300Y10380D01*
X7500Y10450D02*
X7600Y10450D01*
X7600Y10450D02*
X7600Y10650D01*
X7600Y10650D02*
X7500Y10650D01*
X7500Y10650D02*
X7500Y10450D01*
G54D16*
X7089Y10191D02*
X7089Y10269D01*
X7089Y10269D02*
X7011Y10269D01*
X7011Y10191D02*
X7011Y10269D01*
X7089Y10191D02*
X7011Y10191D01*
G54D13*
X8650Y2380D02*
X8450Y2130D01*
X8450Y2130D02*
X8850Y2130D01*
X8850Y2130D02*
X8650Y2380D01*
X8400Y2380D02*
X8900Y2380D01*
X9100Y2450D02*
X9200Y2450D01*
X9200Y2450D02*
X9200Y2650D01*
X9200Y2650D02*
X9100Y2650D01*
X9100Y2650D02*
X9100Y2450D01*
G54D16*
X8689Y2191D02*
X8689Y2269D01*
X8689Y2269D02*
X8611Y2269D01*
X8611Y2191D02*
X8611Y2269D01*
X8689Y2191D02*
X8611Y2191D01*
G54D13*
X8650Y4380D02*
X8450Y4130D01*
X8450Y4130D02*
X8850Y4130D01*
X8850Y4130D02*
X8650Y4380D01*
X8400Y4380D02*
X8900Y4380D01*
X9100Y4450D02*
X9200Y4450D01*
X9200Y4450D02*
X9200Y4650D01*
X9200Y4650D02*
X9100Y4650D01*
X9100Y4650D02*
X9100Y4450D01*
G54D16*
X8689Y4191D02*
X8689Y4269D01*
X8689Y4269D02*
X8611Y4269D01*
X8611Y4191D02*
X8611Y4269D01*
X8689Y4191D02*
X8611Y4191D01*
G54D13*
X8650Y6380D02*
X8450Y6130D01*
X8450Y6130D02*
X8850Y6130D01*
X8850Y6130D02*
X8650Y6380D01*
X8400Y6380D02*
X8900Y6380D01*
X9100Y6450D02*
X9200Y6450D01*
X9200Y6450D02*
X9200Y6650D01*
X9200Y6650D02*
X9100Y6650D01*
X9100Y6650D02*
X9100Y6450D01*
G54D16*
X8689Y6191D02*
X8689Y6269D01*
X8689Y6269D02*
X8611Y6269D01*
X8611Y6191D02*
X8611Y6269D01*
X8689Y6191D02*
X8611Y6191D01*
G54D13*
X8650Y8380D02*
X8450Y8130D01*
X8450Y8130D02*
X8850Y8130D01*
X8850Y8130D02*
X8650Y8380D01*
X8400Y8380D02*
X8900Y8380D01*
X9100Y8450D02*
X9200Y8450D01*
X9200Y8450D02*
X9200Y8650D01*
X9200Y8650D02*
X9100Y8650D01*
X9100Y8650D02*
X9100Y8450D01*
G54D16*
X8689Y8191D02*
X8689Y8269D01*
X8689Y8269D02*
X8611Y8269D01*
X8611Y8191D02*
X8611Y8269D01*
X8689Y8191D02*
X8611Y8191D01*
G54D13*
X8650Y10380D02*
X8450Y10130D01*
X8450Y10130D02*
X8850Y10130D01*
X8850Y10130D02*
X8650Y10380D01*
X8400Y10380D02*
X8900Y10380D01*
X9100Y10450D02*
X9200Y10450D01*
X9200Y10450D02*
X9200Y10650D01*
X9200Y10650D02*
X9100Y10650D01*
X9100Y10650D02*
X9100Y10450D01*
G54D16*
X8689Y10191D02*
X8689Y10269D01*
X8689Y10269D02*
X8611Y10269D01*
X8611Y10191D02*
X8611Y10269D01*
X8689Y10191D02*
X8611Y10191D01*
G54D13*
X10250Y2380D02*
X10050Y2130D01*
X10050Y2130D02*
X10450Y2130D01*
X10450Y2130D02*
X10250Y2380D01*
X10000Y2380D02*
X10500Y2380D01*
X10700Y2450D02*
X10800Y2450D01*
X10800Y2450D02*
X10800Y2650D01*
X10800Y2650D02*
X10700Y2650D01*
X10700Y2650D02*
X10700Y2450D01*
G54D16*
X10289Y2191D02*
X10289Y2269D01*
X10289Y2269D02*
X10211Y2269D01*
X10211Y2191D02*
X10211Y2269D01*
X10289Y2191D02*
X10211Y2191D01*
G54D13*
X10250Y8380D02*
X10050Y8130D01*
X10050Y8130D02*
X10450Y8130D01*
X10450Y8130D02*
X10250Y8380D01*
X10000Y8380D02*
X10500Y8380D01*
X10700Y8450D02*
X10800Y8450D01*
X10800Y8450D02*
X10800Y8650D01*
X10800Y8650D02*
X10700Y8650D01*
X10700Y8650D02*
X10700Y8450D01*
G54D16*
X10289Y8191D02*
X10289Y8269D01*
X10289Y8269D02*
X10211Y8269D01*
X10211Y8191D02*
X10211Y8269D01*
X10289Y8191D02*
X10211Y8191D01*
G54D13*
X10250Y10380D02*
X10050Y10130D01*
X10050Y10130D02*
X10450Y10130D01*
X10450Y10130D02*
X10250Y10380D01*
X10000Y10380D02*
X10500Y10380D01*
X10700Y10450D02*
X10800Y10450D01*
X10800Y10450D02*
X10800Y10650D01*
X10800Y10650D02*
X10700Y10650D01*
X10700Y10650D02*
X10700Y10450D01*
G54D16*
X10289Y10191D02*
X10289Y10269D01*
X10289Y10269D02*
X10211Y10269D01*
X10211Y10191D02*
X10211Y10269D01*
X10289Y10191D02*
X10211Y10191D01*
G54D13*
X11850Y2380D02*
X11650Y2130D01*
X11650Y2130D02*
X12050Y2130D01*
X12050Y2130D02*
X11850Y2380D01*
X11600Y2380D02*
X12100Y2380D01*
X12300Y2450D02*
X12400Y2450D01*
X12400Y2450D02*
X12400Y2650D01*
X12400Y2650D02*
X12300Y2650D01*
X12300Y2650D02*
X12300Y2450D01*
G54D16*
X11889Y2191D02*
X11889Y2269D01*
X11889Y2269D02*
X11811Y2269D01*
X11811Y2191D02*
X11811Y2269D01*
X11889Y2191D02*
X11811Y2191D01*
G54D13*
X11850Y4380D02*
X11650Y4130D01*
X11650Y4130D02*
X12050Y4130D01*
X12050Y4130D02*
X11850Y4380D01*
X11600Y4380D02*
X12100Y4380D01*
X12300Y4450D02*
X12400Y4450D01*
X12400Y4450D02*
X12400Y4650D01*
X12400Y4650D02*
X12300Y4650D01*
X12300Y4650D02*
X12300Y4450D01*
G54D16*
X11889Y4191D02*
X11889Y4269D01*
X11889Y4269D02*
X11811Y4269D01*
X11811Y4191D02*
X11811Y4269D01*
X11889Y4191D02*
X11811Y4191D01*
G54D13*
X11850Y6380D02*
X11650Y6130D01*
X11650Y6130D02*
X12050Y6130D01*
X12050Y6130D02*
X11850Y6380D01*
X11600Y6380D02*
X12100Y6380D01*
X12300Y6450D02*
X12400Y6450D01*
X12400Y6450D02*
X12400Y6650D01*
X12400Y6650D02*
X12300Y6650D01*
X12300Y6650D02*
X12300Y6450D01*
G54D16*
X11889Y6191D02*
X11889Y6269D01*
X11889Y6269D02*
X11811Y6269D01*
X11811Y6191D02*
X11811Y6269D01*
X11889Y6191D02*
X11811Y6191D01*
G54D13*
X11850Y8380D02*
X11650Y8130D01*
X11650Y8130D02*
X12050Y8130D01*
X12050Y8130D02*
X11850Y8380D01*
X11600Y8380D02*
X12100Y8380D01*
X12300Y8450D02*
X12400Y8450D01*
X12400Y8450D02*
X12400Y8650D01*
X12400Y8650D02*
X12300Y8650D01*
X12300Y8650D02*
X12300Y8450D01*
G54D16*
X11889Y8191D02*
X11889Y8269D01*
X11889Y8269D02*
X11811Y8269D01*
X11811Y8191D02*
X11811Y8269D01*
X11889Y8191D02*
X11811Y8191D01*
G54D13*
X5450Y4380D02*
X5250Y4130D01*
X5250Y4130D02*
X5650Y4130D01*
X5650Y4130D02*
X5450Y4380D01*
X5200Y4380D02*
X5700Y4380D01*
X5900Y4450D02*
X6000Y4450D01*
X6000Y4450D02*
X6000Y4650D01*
X6000Y4650D02*
X5900Y4650D01*
X5900Y4650D02*
X5900Y4450D01*
G54D16*
X5489Y4191D02*
X5489Y4269D01*
X5489Y4269D02*
X5411Y4269D01*
X5411Y4191D02*
X5411Y4269D01*
X5489Y4191D02*
X5411Y4191D01*
G54D13*
X10250Y4380D02*
X10050Y4130D01*
X10050Y4130D02*
X10450Y4130D01*
X10450Y4130D02*
X10250Y4380D01*
X10000Y4380D02*
X10500Y4380D01*
X10700Y4450D02*
X10800Y4450D01*
X10800Y4450D02*
X10800Y4650D01*
X10800Y4650D02*
X10700Y4650D01*
X10700Y4650D02*
X10700Y4450D01*
G54D16*
X10289Y4191D02*
X10289Y4269D01*
X10289Y4269D02*
X10211Y4269D01*
X10211Y4191D02*
X10211Y4269D01*
X10289Y4191D02*
X10211Y4191D01*
G54D13*
X10250Y6380D02*
X10050Y6130D01*
X10050Y6130D02*
X10450Y6130D01*
X10450Y6130D02*
X10250Y6380D01*
X10000Y6380D02*
X10500Y6380D01*
X10700Y6450D02*
X10800Y6450D01*
X10800Y6450D02*
X10800Y6650D01*
X10800Y6650D02*
X10700Y6650D01*
X10700Y6650D02*
X10700Y6450D01*
G54D16*
X10289Y6191D02*
X10289Y6269D01*
X10289Y6269D02*
X10211Y6269D01*
X10211Y6191D02*
X10211Y6269D01*
X10289Y6191D02*
X10211Y6191D01*
G54D13*
X650Y2380D02*
X450Y2130D01*
X450Y2130D02*
X850Y2130D01*
X850Y2130D02*
X650Y2380D01*
X400Y2380D02*
X900Y2380D01*
X1100Y2450D02*
X1200Y2450D01*
X1200Y2450D02*
X1200Y2650D01*
X1200Y2650D02*
X1100Y2650D01*
X1100Y2650D02*
X1100Y2450D01*
G54D16*
X689Y2191D02*
X689Y2269D01*
X689Y2269D02*
X611Y2269D01*
X611Y2191D02*
X611Y2269D01*
X689Y2191D02*
X611Y2191D01*
G54D13*
X650Y4380D02*
X450Y4130D01*
X450Y4130D02*
X850Y4130D01*
X850Y4130D02*
X650Y4380D01*
X400Y4380D02*
X900Y4380D01*
X1100Y4450D02*
X1200Y4450D01*
X1200Y4450D02*
X1200Y4650D01*
X1200Y4650D02*
X1100Y4650D01*
X1100Y4650D02*
X1100Y4450D01*
G54D16*
X689Y4191D02*
X689Y4269D01*
X689Y4269D02*
X611Y4269D01*
X611Y4191D02*
X611Y4269D01*
X689Y4191D02*
X611Y4191D01*
G54D13*
X650Y6380D02*
X450Y6130D01*
X450Y6130D02*
X850Y6130D01*
X850Y6130D02*
X650Y6380D01*
X400Y6380D02*
X900Y6380D01*
X1100Y6450D02*
X1200Y6450D01*
X1200Y6450D02*
X1200Y6650D01*
X1200Y6650D02*
X1100Y6650D01*
X1100Y6650D02*
X1100Y6450D01*
G54D16*
X689Y6191D02*
X689Y6269D01*
X689Y6269D02*
X611Y6269D01*
X611Y6191D02*
X611Y6269D01*
X689Y6191D02*
X611Y6191D01*
G54D13*
X650Y8380D02*
X450Y8130D01*
X450Y8130D02*
X850Y8130D01*
X850Y8130D02*
X650Y8380D01*
X400Y8380D02*
X900Y8380D01*
X1100Y8450D02*
X1200Y8450D01*
X1200Y8450D02*
X1200Y8650D01*
X1200Y8650D02*
X1100Y8650D01*
X1100Y8650D02*
X1100Y8450D01*
G54D16*
X689Y8191D02*
X689Y8269D01*
X689Y8269D02*
X611Y8269D01*
X611Y8191D02*
X611Y8269D01*
X689Y8191D02*
X611Y8191D01*
G54D13*
X650Y10380D02*
X450Y10130D01*
X450Y10130D02*
X850Y10130D01*
X850Y10130D02*
X650Y10380D01*
X400Y10380D02*
X900Y10380D01*
X1100Y10450D02*
X1200Y10450D01*
X1200Y10450D02*
X1200Y10650D01*
X1200Y10650D02*
X1100Y10650D01*
X1100Y10650D02*
X1100Y10450D01*
G54D16*
X689Y10191D02*
X689Y10269D01*
X689Y10269D02*
X611Y10269D01*
X611Y10191D02*
X611Y10269D01*
X689Y10191D02*
X611Y10191D01*
G54D13*
X2250Y2380D02*
X2050Y2130D01*
X2050Y2130D02*
X2450Y2130D01*
X2450Y2130D02*
X2250Y2380D01*
X2000Y2380D02*
X2500Y2380D01*
X2700Y2450D02*
X2800Y2450D01*
X2800Y2450D02*
X2800Y2650D01*
X2800Y2650D02*
X2700Y2650D01*
X2700Y2650D02*
X2700Y2450D01*
G54D16*
X2289Y2191D02*
X2289Y2269D01*
X2289Y2269D02*
X2211Y2269D01*
X2211Y2191D02*
X2211Y2269D01*
X2289Y2191D02*
X2211Y2191D01*
G54D13*
X2250Y4380D02*
X2050Y4130D01*
X2050Y4130D02*
X2450Y4130D01*
X2450Y4130D02*
X2250Y4380D01*
X2000Y4380D02*
X2500Y4380D01*
X2700Y4450D02*
X2800Y4450D01*
X2800Y4450D02*
X2800Y4650D01*
X2800Y4650D02*
X2700Y4650D01*
X2700Y4650D02*
X2700Y4450D01*
G54D16*
X2289Y4191D02*
X2289Y4269D01*
X2289Y4269D02*
X2211Y4269D01*
X2211Y4191D02*
X2211Y4269D01*
X2289Y4191D02*
X2211Y4191D01*
G54D13*
X2250Y6380D02*
X2050Y6130D01*
X2050Y6130D02*
X2450Y6130D01*
X2450Y6130D02*
X2250Y6380D01*
X2000Y6380D02*
X2500Y6380D01*
X2700Y6450D02*
X2800Y6450D01*
X2800Y6450D02*
X2800Y6650D01*
X2800Y6650D02*
X2700Y6650D01*
X2700Y6650D02*
X2700Y6450D01*
G54D16*
X2289Y6191D02*
X2289Y6269D01*
X2289Y6269D02*
X2211Y6269D01*
X2211Y6191D02*
X2211Y6269D01*
X2289Y6191D02*
X2211Y6191D01*
G54D13*
X2250Y8380D02*
X2050Y8130D01*
X2050Y8130D02*
X2450Y8130D01*
X2450Y8130D02*
X2250Y8380D01*
X2000Y8380D02*
X2500Y8380D01*
X2700Y8450D02*
X2800Y8450D01*
X2800Y8450D02*
X2800Y8650D01*
X2800Y8650D02*
X2700Y8650D01*
X2700Y8650D02*
X2700Y8450D01*
G54D16*
X2289Y8191D02*
X2289Y8269D01*
X2289Y8269D02*
X2211Y8269D01*
X2211Y8191D02*
X2211Y8269D01*
X2289Y8191D02*
X2211Y8191D01*
G54D13*
X2250Y10380D02*
X2050Y10130D01*
X2050Y10130D02*
X2450Y10130D01*
X2450Y10130D02*
X2250Y10380D01*
X2000Y10380D02*
X2500Y10380D01*
X2700Y10450D02*
X2800Y10450D01*
X2800Y10450D02*
X2800Y10650D01*
X2800Y10650D02*
X2700Y10650D01*
X2700Y10650D02*
X2700Y10450D01*
G54D16*
X2289Y10191D02*
X2289Y10269D01*
X2289Y10269D02*
X2211Y10269D01*
X2211Y10191D02*
X2211Y10269D01*
X2289Y10191D02*
X2211Y10191D01*
G54D13*
X7050Y6380D02*
X6850Y6130D01*
X6850Y6130D02*
X7250Y6130D01*
X7250Y6130D02*
X7050Y6380D01*
X6800Y6380D02*
X7300Y6380D01*
X7500Y6450D02*
X7600Y6450D01*
X7600Y6450D02*
X7600Y6650D01*
X7600Y6650D02*
X7500Y6650D01*
X7500Y6650D02*
X7500Y6450D01*
G54D16*
X7089Y6191D02*
X7089Y6269D01*
X7089Y6269D02*
X7011Y6269D01*
X7011Y6191D02*
X7011Y6269D01*
X7089Y6191D02*
X7011Y6191D01*
G54D13*
X3850Y4380D02*
X3650Y4130D01*
X3650Y4130D02*
X4050Y4130D01*
X4050Y4130D02*
X3850Y4380D01*
X3600Y4380D02*
X4100Y4380D01*
X4300Y4450D02*
X4400Y4450D01*
X4400Y4450D02*
X4400Y4650D01*
X4400Y4650D02*
X4300Y4650D01*
X4300Y4650D02*
X4300Y4450D01*
G54D16*
X3889Y4191D02*
X3889Y4269D01*
X3889Y4269D02*
X3811Y4269D01*
X3811Y4191D02*
X3811Y4269D01*
X3889Y4191D02*
X3811Y4191D01*
G54D13*
X3850Y6380D02*
X3650Y6130D01*
X3650Y6130D02*
X4050Y6130D01*
X4050Y6130D02*
X3850Y6380D01*
X3600Y6380D02*
X4100Y6380D01*
X4300Y6450D02*
X4400Y6450D01*
X4400Y6450D02*
X4400Y6650D01*
X4400Y6650D02*
X4300Y6650D01*
X4300Y6650D02*
X4300Y6450D01*
G54D16*
X3889Y6191D02*
X3889Y6269D01*
X3889Y6269D02*
X3811Y6269D01*
X3811Y6191D02*
X3811Y6269D01*
X3889Y6191D02*
X3811Y6191D01*
G54D13*
X3850Y8380D02*
X3650Y8130D01*
X3650Y8130D02*
X4050Y8130D01*
X4050Y8130D02*
X3850Y8380D01*
X3600Y8380D02*
X4100Y8380D01*
X4300Y8450D02*
X4400Y8450D01*
X4400Y8450D02*
X4400Y8650D01*
X4400Y8650D02*
X4300Y8650D01*
X4300Y8650D02*
X4300Y8450D01*
G54D16*
X3889Y8191D02*
X3889Y8269D01*
X3889Y8269D02*
X3811Y8269D01*
X3811Y8191D02*
X3811Y8269D01*
X3889Y8191D02*
X3811Y8191D01*
G54D13*
X3850Y10380D02*
X3650Y10130D01*
X3650Y10130D02*
X4050Y10130D01*
X4050Y10130D02*
X3850Y10380D01*
X3600Y10380D02*
X4100Y10380D01*
X4300Y10450D02*
X4400Y10450D01*
X4400Y10450D02*
X4400Y10650D01*
X4400Y10650D02*
X4300Y10650D01*
X4300Y10650D02*
X4300Y10450D01*
G54D16*
X3889Y10191D02*
X3889Y10269D01*
X3889Y10269D02*
X3811Y10269D01*
X3811Y10191D02*
X3811Y10269D01*
X3889Y10191D02*
X3811Y10191D01*
G54D13*
X5450Y2380D02*
X5250Y2130D01*
X5250Y2130D02*
X5650Y2130D01*
X5650Y2130D02*
X5450Y2380D01*
X5200Y2380D02*
X5700Y2380D01*
X5900Y2450D02*
X6000Y2450D01*
X6000Y2450D02*
X6000Y2650D01*
X6000Y2650D02*
X5900Y2650D01*
X5900Y2650D02*
X5900Y2450D01*
G54D16*
X5489Y2191D02*
X5489Y2269D01*
X5489Y2269D02*
X5411Y2269D01*
X5411Y2191D02*
X5411Y2269D01*
X5489Y2191D02*
X5411Y2191D01*
G54D13*
X5450Y6380D02*
X5250Y6130D01*
X5250Y6130D02*
X5650Y6130D01*
X5650Y6130D02*
X5450Y6380D01*
X5200Y6380D02*
X5700Y6380D01*
X5900Y6450D02*
X6000Y6450D01*
X6000Y6450D02*
X6000Y6650D01*
X6000Y6650D02*
X5900Y6650D01*
X5900Y6650D02*
X5900Y6450D01*
G54D16*
X5489Y6191D02*
X5489Y6269D01*
X5489Y6269D02*
X5411Y6269D01*
X5411Y6191D02*
X5411Y6269D01*
X5489Y6191D02*
X5411Y6191D01*
G54D13*
X5450Y8380D02*
X5250Y8130D01*
X5250Y8130D02*
X5650Y8130D01*
X5650Y8130D02*
X5450Y8380D01*
X5200Y8380D02*
X5700Y8380D01*
X5900Y8450D02*
X6000Y8450D01*
X6000Y8450D02*
X6000Y8650D01*
X6000Y8650D02*
X5900Y8650D01*
X5900Y8650D02*
X5900Y8450D01*
G54D16*
X5489Y8191D02*
X5489Y8269D01*
X5489Y8269D02*
X5411Y8269D01*
X5411Y8191D02*
X5411Y8269D01*
X5489Y8191D02*
X5411Y8191D01*
G54D13*
X5450Y10380D02*
X5250Y10130D01*
X5250Y10130D02*
X5650Y10130D01*
X5650Y10130D02*
X5450Y10380D01*
X5200Y10380D02*
X5700Y10380D01*
X5900Y10450D02*
X6000Y10450D01*
X6000Y10450D02*
X6000Y10650D01*
X6000Y10650D02*
X5900Y10650D01*
X5900Y10650D02*
X5900Y10450D01*
G54D16*
X5489Y10191D02*
X5489Y10269D01*
X5489Y10269D02*
X5411Y10269D01*
X5411Y10191D02*
X5411Y10269D01*
X5489Y10191D02*
X5411Y10191D01*
G54D13*
X7050Y2380D02*
X6850Y2130D01*
X6850Y2130D02*
X7250Y2130D01*
X7250Y2130D02*
X7050Y2380D01*
X6800Y2380D02*
X7300Y2380D01*
X7500Y2450D02*
X7600Y2450D01*
X7600Y2450D02*
X7600Y2650D01*
X7600Y2650D02*
X7500Y2650D01*
X7500Y2650D02*
X7500Y2450D01*
G54D16*
X7089Y2191D02*
X7089Y2269D01*
X7089Y2269D02*
X7011Y2269D01*
X7011Y2191D02*
X7011Y2269D01*
X7089Y2191D02*
X7011Y2191D01*
G54D13*
X7050Y4380D02*
X6850Y4130D01*
X6850Y4130D02*
X7250Y4130D01*
X7250Y4130D02*
X7050Y4380D01*
X6800Y4380D02*
X7300Y4380D01*
X7500Y4450D02*
X7600Y4450D01*
X7600Y4450D02*
X7600Y4650D01*
X7600Y4650D02*
X7500Y4650D01*
X7500Y4650D02*
X7500Y4450D01*
G54D16*
X7089Y4191D02*
X7089Y4269D01*
X7089Y4269D02*
X7011Y4269D01*
X7011Y4191D02*
X7011Y4269D01*
X7089Y4191D02*
X7011Y4191D01*
G54D13*
X3850Y2380D02*
X3650Y2130D01*
X3650Y2130D02*
X4050Y2130D01*
X4050Y2130D02*
X3850Y2380D01*
X3600Y2380D02*
X4100Y2380D01*
X4300Y2450D02*
X4400Y2450D01*
X4400Y2450D02*
X4400Y2650D01*
X4400Y2650D02*
X4300Y2650D01*
X4300Y2650D02*
X4300Y2450D01*
G54D16*
X3889Y2191D02*
X3889Y2269D01*
X3889Y2269D02*
X3811Y2269D01*
X3811Y2191D02*
X3811Y2269D01*
X3889Y2191D02*
X3811Y2191D01*
G54D13*
X7980Y11750D02*
X7730Y11950D01*
X7730Y11950D02*
X7730Y11550D01*
X7730Y11550D02*
X7980Y11750D01*
X7980Y12000D02*
X7980Y11500D01*
X8050Y11300D02*
X8050Y11200D01*
X8050Y11200D02*
X8250Y11200D01*
X8250Y11200D02*
X8250Y11300D01*
X8250Y11300D02*
X8050Y11300D01*
G54D16*
X7791Y11711D02*
X7869Y11711D01*
X7869Y11711D02*
X7869Y11789D01*
X7791Y11789D02*
X7869Y11789D01*
X7791Y11711D02*
X7791Y11789D01*
G54D13*
X11850Y10380D02*
X11650Y10130D01*
X11650Y10130D02*
X12050Y10130D01*
X12050Y10130D02*
X11850Y10380D01*
X11600Y10380D02*
X12100Y10380D01*
X12300Y10450D02*
X12400Y10450D01*
X12400Y10450D02*
X12400Y10650D01*
X12400Y10650D02*
X12300Y10650D01*
X12300Y10650D02*
X12300Y10450D01*
G54D16*
X11889Y10191D02*
X11889Y10269D01*
X11889Y10269D02*
X11811Y10269D01*
X11811Y10191D02*
X11811Y10269D01*
X11889Y10191D02*
X11811Y10191D01*
G54D13*
X28930Y13350D02*
X28680Y13550D01*
X28680Y13550D02*
X28680Y13150D01*
X28680Y13150D02*
X28930Y13350D01*
X28930Y13600D02*
X28930Y13100D01*
X29000Y12900D02*
X29000Y12800D01*
X29000Y12800D02*
X29200Y12800D01*
X29200Y12800D02*
X29200Y12900D01*
X29200Y12900D02*
X29000Y12900D01*
G54D16*
X28741Y13311D02*
X28819Y13311D01*
X28819Y13311D02*
X28819Y13389D01*
X28741Y13389D02*
X28819Y13389D01*
X28741Y13311D02*
X28741Y13389D01*
G54D13*
X28930Y14350D02*
X28680Y14550D01*
X28680Y14550D02*
X28680Y14150D01*
X28680Y14150D02*
X28930Y14350D01*
X28930Y14600D02*
X28930Y14100D01*
X29000Y13900D02*
X29000Y13800D01*
X29000Y13800D02*
X29200Y13800D01*
X29200Y13800D02*
X29200Y13900D01*
X29200Y13900D02*
X29000Y13900D01*
G54D16*
X28741Y14311D02*
X28819Y14311D01*
X28819Y14311D02*
X28819Y14389D01*
X28741Y14389D02*
X28819Y14389D01*
X28741Y14311D02*
X28741Y14389D01*
G54D15*
X-950Y12050D02*
X-5150Y12050D01*
X-950Y12050D02*
X-950Y16750D01*
X-5150Y16750D02*
X-950Y16750D01*
G54D20*
G36*
X35900Y-2134D02*
X35900Y-2600D01*
X34567Y-2600D01*
X34567Y-2134D01*
X35900Y-2134D01*
X35900Y-2134D01*
X35900Y-2134D01*
G37*
G36*
X35900Y-967D02*
X35900Y-1400D01*
X33967Y-1400D01*
X33967Y-967D01*
X35900Y-967D01*
X35900Y-967D01*
X35900Y-967D01*
G37*
G36*
X35900Y133D02*
X35900Y-300D01*
X34934Y-300D01*
X34934Y-800D01*
X34534Y-800D01*
X34534Y-300D01*
X33967Y-300D01*
X33967Y133D01*
X35900Y133D01*
X35900Y133D01*
X35900Y133D01*
G37*
G36*
X35900Y1133D02*
X35900Y400D01*
X33967Y400D01*
X33967Y1133D01*
X34400Y1133D01*
X34400Y833D01*
X35467Y833D01*
X35467Y1133D01*
X35900Y1133D01*
X35900Y1133D01*
X35900Y1133D01*
G37*
G36*
X35900Y2033D02*
X35900Y1300D01*
X35467Y1300D01*
X35467Y1600D01*
X34400Y1600D01*
X34400Y1300D01*
X33967Y1300D01*
X33967Y2033D01*
X35900Y2033D01*
X35900Y2033D01*
X35900Y2033D01*
G37*
G36*
X35900Y3266D02*
X35900Y2800D01*
X34567Y2800D01*
X34567Y3266D01*
X35900Y3266D01*
X35900Y3266D01*
X35900Y3266D01*
G37*
G36*
X35900Y4733D02*
X35900Y4000D01*
X33967Y4000D01*
X33967Y4733D01*
X34400Y4733D01*
X34400Y4433D01*
X35467Y4433D01*
X35467Y4733D01*
X35900Y4733D01*
X35900Y4733D01*
X35900Y4733D01*
G37*
G36*
X35900Y5566D02*
X35900Y4900D01*
X35467Y4900D01*
X35467Y5566D01*
X35900Y5566D01*
X35900Y5566D01*
X35900Y5566D01*
G37*
G36*
X35900Y6533D02*
X35900Y5766D01*
X33967Y5766D01*
X33967Y6533D01*
X34400Y6533D01*
X34400Y6200D01*
X35467Y6200D01*
X35467Y6533D01*
X35900Y6533D01*
X35900Y6533D01*
X35900Y6533D01*
G37*
G36*
X35900Y7400D02*
X35900Y6666D01*
X35467Y6666D01*
X35467Y6966D01*
X34400Y6966D01*
X34400Y6666D01*
X33967Y6666D01*
X33967Y7400D01*
X35900Y7400D01*
X35900Y7400D01*
X35900Y7400D01*
G37*
G36*
X35900Y8066D02*
X35900Y7850D01*
X35900Y7633D01*
X35280Y7633D01*
X34661Y7633D01*
X34729Y7741D01*
X34792Y7848D01*
X34851Y7956D01*
X34852Y7958D01*
X34908Y8066D01*
X35404Y8066D01*
X35900Y8066D01*
X35900Y8066D01*
X35900Y8066D01*
G37*
G36*
X35900Y9133D02*
X35900Y8916D01*
X35900Y8700D01*
X35484Y8700D01*
X35298Y8698D01*
X35171Y8691D01*
X35096Y8680D01*
X35066Y8663D01*
X35064Y8658D01*
X35047Y8617D01*
X35001Y8529D01*
X34931Y8405D01*
X34844Y8255D01*
X34772Y8133D01*
X34482Y7650D01*
X34224Y7640D01*
X33967Y7630D01*
X33967Y7846D01*
X33967Y8062D01*
X34091Y8072D01*
X34149Y8080D01*
X34195Y8100D01*
X34239Y8143D01*
X34292Y8219D01*
X34365Y8339D01*
X34390Y8383D01*
X34565Y8683D01*
X34266Y8692D01*
X33967Y8702D01*
X33967Y8917D01*
X33967Y9133D01*
X34934Y9133D01*
X35900Y9133D01*
X35900Y9133D01*
X35900Y9133D01*
G37*
G36*
X35900Y10933D02*
X35900Y10300D01*
X33967Y10300D01*
X33967Y10933D01*
X34400Y10933D01*
X34400Y10733D01*
X35467Y10733D01*
X35467Y10933D01*
X35900Y10933D01*
X35900Y10933D01*
X35900Y10933D01*
G37*
G36*
X35900Y11733D02*
X35900Y11100D01*
X35467Y11100D01*
X35467Y11300D01*
X34400Y11300D01*
X34400Y11100D01*
X33967Y11100D01*
X33967Y11733D01*
X35900Y11733D01*
X35900Y11733D01*
X35900Y11733D01*
G37*
G36*
X33982Y13600D02*
X34017Y13589D01*
X34103Y13560D01*
X34230Y13517D01*
X34385Y13464D01*
X34458Y13438D01*
X34679Y13365D01*
X34840Y13318D01*
X34944Y13299D01*
X34985Y13303D01*
X35053Y13325D01*
X35096Y13323D01*
X35120Y13286D01*
X35131Y13204D01*
X35133Y13067D01*
X35134Y13034D01*
X35134Y12735D01*
X35517Y12613D01*
X35900Y12490D01*
X35900Y12241D01*
X35899Y12115D01*
X35892Y12043D01*
X35877Y12013D01*
X35851Y12014D01*
X35842Y12017D01*
X35763Y12049D01*
X35648Y12093D01*
X35510Y12145D01*
X35361Y12199D01*
X35216Y12252D01*
X35088Y12297D01*
X34989Y12331D01*
X34934Y12349D01*
X34926Y12350D01*
X34891Y12337D01*
X34825Y12320D01*
X34733Y12298D01*
X34733Y12594D01*
X34733Y12890D01*
X34350Y13003D01*
X33967Y13116D01*
X33967Y13358D01*
X33969Y13475D01*
X33974Y13561D01*
X33981Y13599D01*
X33982Y13600D01*
X33982Y13600D01*
X33982Y13600D01*
G37*
G36*
X35859Y13600D02*
X35883Y13574D01*
X35896Y13494D01*
X35900Y13371D01*
X35900Y13143D01*
X35642Y13063D01*
X35516Y13024D01*
X35412Y12993D01*
X35349Y12974D01*
X35342Y12972D01*
X35318Y12987D01*
X35305Y13051D01*
X35300Y13172D01*
X35300Y13189D01*
X35300Y13417D01*
X35559Y13509D01*
X35684Y13551D01*
X35787Y13583D01*
X35850Y13599D01*
X35859Y13600D01*
X35859Y13600D01*
X35859Y13600D01*
G37*
G36*
X35900Y15300D02*
X35900Y15083D01*
X35900Y14866D01*
X35600Y14866D01*
X35300Y14866D01*
X35300Y14633D01*
X35299Y14508D01*
X35286Y14435D01*
X35249Y14405D01*
X35173Y14408D01*
X35046Y14433D01*
X35035Y14436D01*
X34867Y14472D01*
X34867Y14669D01*
X34867Y14866D01*
X34417Y14866D01*
X33967Y14866D01*
X33967Y15083D01*
X33967Y15300D01*
X34934Y15300D01*
X35900Y15300D01*
X35900Y15300D01*
X35900Y15300D01*
G37*
G36*
X34012Y14466D02*
X34059Y14460D01*
X34158Y14442D01*
X34298Y14416D01*
X34465Y14383D01*
X34553Y14365D01*
X34769Y14321D01*
X34930Y14289D01*
X35043Y14266D01*
X35120Y14251D01*
X35169Y14242D01*
X35199Y14238D01*
X35221Y14236D01*
X35242Y14235D01*
X35273Y14225D01*
X35290Y14188D01*
X35298Y14110D01*
X35300Y13996D01*
X35298Y13872D01*
X35291Y13802D01*
X35274Y13773D01*
X35244Y13772D01*
X35242Y13773D01*
X35192Y13784D01*
X35088Y13807D01*
X34942Y13839D01*
X34765Y13877D01*
X34575Y13918D01*
X33967Y14048D01*
X33967Y14257D01*
X33971Y14380D01*
X33986Y14447D01*
X34012Y14466D01*
X34012Y14466D01*
X34012Y14466D01*
G37*
G36*
X34767Y5566D02*
X34767Y5133D01*
X34400Y5133D01*
X34400Y4900D01*
X33967Y4900D01*
X33967Y5566D01*
X34767Y5566D01*
X34767Y5566D01*
X34767Y5566D01*
G37*
G36*
X34567Y12696D02*
X34567Y12469D01*
X34567Y12241D01*
X34265Y12139D01*
X33964Y12038D01*
X33974Y12274D01*
X33984Y12511D01*
X34134Y12556D01*
X34264Y12596D01*
X34399Y12640D01*
X34425Y12649D01*
X34567Y12696D01*
X34567Y12696D01*
X34567Y12696D01*
G37*
G36*
X34400Y-1600D02*
X34400Y-3134D01*
X33967Y-3134D01*
X33967Y-1600D01*
X34400Y-1600D01*
X34400Y-1600D01*
X34400Y-1600D01*
G37*
G36*
X34400Y3800D02*
X34400Y2266D01*
X33967Y2266D01*
X33967Y3800D01*
X34400Y3800D01*
X34400Y3800D01*
X34400Y3800D01*
G37*
G36*
X22420Y1948D02*
X22843Y1934D01*
X23256Y1899D01*
X23491Y1850D01*
X22568Y1850D01*
X22504Y1836D01*
X22444Y1790D01*
X22381Y1701D01*
X22307Y1560D01*
X22286Y1518D01*
X22160Y1176D01*
X22097Y822D01*
X22096Y464D01*
X22156Y111D01*
X22278Y-227D01*
X22355Y-375D01*
X22417Y-476D01*
X22468Y-530D01*
X22522Y-549D01*
X22549Y-550D01*
X22589Y-548D01*
X22619Y-535D01*
X22644Y-499D01*
X22669Y-432D01*
X22700Y-321D01*
X22740Y-157D01*
X22744Y-142D01*
X22782Y14D01*
X22814Y145D01*
X22836Y239D01*
X22846Y282D01*
X22846Y283D01*
X22832Y319D01*
X22795Y393D01*
X22766Y445D01*
X22710Y549D01*
X22689Y628D01*
X22701Y706D01*
X22747Y810D01*
X22763Y843D01*
X22843Y1002D01*
X22743Y1426D01*
X22702Y1599D01*
X22670Y1718D01*
X22644Y1792D01*
X22619Y1832D01*
X22591Y1847D01*
X22568Y1850D01*
X23491Y1850D01*
X23505Y1847D01*
X22824Y1847D01*
X22761Y1843D01*
X22750Y1836D01*
X22757Y1796D01*
X22777Y1705D01*
X22807Y1575D01*
X22844Y1419D01*
X22849Y1396D01*
X22949Y979D01*
X22861Y807D01*
X22774Y635D01*
X22863Y477D01*
X22951Y320D01*
X22850Y-90D01*
X22812Y-248D01*
X22781Y-383D01*
X22759Y-480D01*
X22750Y-528D01*
X22750Y-530D01*
X22780Y-544D01*
X22862Y-547D01*
X22981Y-541D01*
X23123Y-527D01*
X23274Y-506D01*
X23420Y-480D01*
X23547Y-451D01*
X23566Y-446D01*
X23895Y-320D01*
X24186Y-147D01*
X24433Y69D01*
X24629Y323D01*
X24674Y401D01*
X24737Y529D01*
X24763Y631D01*
X24749Y729D01*
X24697Y846D01*
X24658Y916D01*
X24484Y1155D01*
X24259Y1371D01*
X23997Y1553D01*
X23713Y1691D01*
X23479Y1764D01*
X23351Y1789D01*
X23208Y1812D01*
X23062Y1829D01*
X22929Y1842D01*
X22824Y1847D01*
X23505Y1847D01*
X23621Y1823D01*
X23940Y1705D01*
X24220Y1542D01*
X24465Y1333D01*
X24466Y1332D01*
X24569Y1215D01*
X24670Y1076D01*
X24762Y932D01*
X24833Y798D01*
X24875Y690D01*
X24883Y643D01*
X24869Y590D01*
X24832Y497D01*
X24779Y385D01*
X24777Y380D01*
X24634Y153D01*
X24441Y-63D01*
X24217Y-250D01*
X23983Y-390D01*
X23778Y-480D01*
X23574Y-545D01*
X23354Y-591D01*
X23101Y-622D01*
X22848Y-638D01*
X22400Y-658D01*
X22293Y-477D01*
X22139Y-154D01*
X22039Y194D01*
X21994Y553D01*
X22008Y908D01*
X22031Y1048D01*
X22090Y1278D01*
X22172Y1508D01*
X22267Y1713D01*
X22349Y1849D01*
X22420Y1948D01*
X22420Y1948D01*
X22420Y1948D01*
G37*
G36*
X23840Y512D02*
X23957Y504D01*
X24057Y446D01*
X24080Y412D01*
X23913Y412D01*
X23829Y407D01*
X23783Y379D01*
X23457Y379D01*
X23380Y359D01*
X23319Y304D01*
X23288Y230D01*
X23303Y152D01*
X23317Y132D01*
X23389Y90D01*
X23479Y89D01*
X23543Y123D01*
X23579Y199D01*
X23572Y289D01*
X23533Y349D01*
X23457Y379D01*
X23783Y379D01*
X23756Y362D01*
X23710Y288D01*
X23704Y198D01*
X23733Y128D01*
X23805Y69D01*
X23900Y49D01*
X23988Y72D01*
X24010Y90D01*
X24044Y164D01*
X24044Y261D01*
X24011Y348D01*
X23997Y364D01*
X23913Y412D01*
X24080Y412D01*
X24126Y347D01*
X24150Y223D01*
X24130Y103D01*
X24072Y22D01*
X23974Y-34D01*
X23857Y-49D01*
X23749Y-23D01*
X23713Y2D01*
X23650Y36D01*
X23588Y19D01*
X23462Y-18D01*
X23343Y1D01*
X23252Y71D01*
X23192Y188D01*
X23198Y301D01*
X23265Y401D01*
X23363Y469D01*
X23470Y476D01*
X23562Y446D01*
X23639Y426D01*
X23711Y456D01*
X23721Y462D01*
X23840Y512D01*
X23840Y512D01*
X23840Y512D01*
G37*
G36*
X23873Y1303D02*
X23986Y1284D01*
X24077Y1222D01*
X24084Y1210D01*
X23891Y1210D01*
X23811Y1189D01*
X23799Y1179D01*
X23466Y1179D01*
X23376Y1172D01*
X23317Y1133D01*
X23292Y1062D01*
X23296Y1000D01*
X23343Y928D01*
X23422Y891D01*
X23506Y899D01*
X23533Y917D01*
X23576Y989D01*
X23576Y1079D01*
X23543Y1143D01*
X23466Y1179D01*
X23799Y1179D01*
X23743Y1132D01*
X23704Y1054D01*
X23708Y968D01*
X23716Y950D01*
X23784Y882D01*
X23875Y857D01*
X23966Y875D01*
X24035Y935D01*
X24048Y961D01*
X24054Y1062D01*
X23994Y1158D01*
X23968Y1181D01*
X23891Y1210D01*
X24084Y1210D01*
X24136Y1132D01*
X24156Y1024D01*
X24127Y911D01*
X24068Y831D01*
X23957Y763D01*
X23833Y756D01*
X23719Y805D01*
X23648Y840D01*
X23589Y827D01*
X23579Y821D01*
X23463Y785D01*
X23344Y809D01*
X23265Y865D01*
X23196Y971D01*
X23193Y1084D01*
X23252Y1195D01*
X23346Y1265D01*
X23465Y1284D01*
X23581Y1250D01*
X23657Y1238D01*
X23746Y1270D01*
X23873Y1303D01*
X23873Y1303D01*
X23873Y1303D01*
G37*
G54D21*
X50Y0D02*
G75*
G03X50Y0I-50J0D01*
G74*
G01*
X600Y0D02*
G75*
G03X600Y0I-600J0D01*
G74*
G01*
G54D13*
X29968Y4575D02*
X29574Y4181D01*
X29968Y4575D02*
X29968Y8118D01*
X26031Y8118D02*
X29968Y8118D01*
X26031Y4181D02*
X26031Y8118D01*
X26031Y4181D02*
X29574Y4181D01*
G54D22*
X30040Y4197D02*
G75*
G03X30040Y4197I-87J0D01*
G74*
G01*
G54D18*
X4460Y13273D02*
X4470Y13263D01*
X4479Y13235D01*
X4479Y13217D01*
X4470Y13188D01*
X4451Y13170D01*
X4432Y13160D01*
X4395Y13151D01*
X4367Y13151D01*
X4329Y13160D01*
X4310Y13170D01*
X4292Y13188D01*
X4282Y13217D01*
X4282Y13235D01*
X4292Y13263D01*
X4301Y13273D01*
X4479Y13460D02*
X4479Y13348D01*
X4479Y13404D02*
X4282Y13404D01*
X4310Y13385D01*
X4329Y13367D01*
X4339Y13348D01*
X4282Y13639D02*
X4282Y13545D01*
X4376Y13536D01*
X4367Y13545D01*
X4357Y13564D01*
X4357Y13611D01*
X4367Y13629D01*
X4376Y13639D01*
X4395Y13648D01*
X4442Y13648D01*
X4460Y13639D01*
X4470Y13629D01*
X4479Y13611D01*
X4479Y13564D01*
X4470Y13545D01*
X4460Y13536D01*
G54D13*
X27580Y14957D02*
X27380Y14957D01*
X27380Y15004D01*
X27390Y15033D01*
X27409Y15052D01*
X27428Y15061D01*
X27466Y15071D01*
X27495Y15071D01*
X27533Y15061D01*
X27552Y15052D01*
X27571Y15033D01*
X27580Y15004D01*
X27580Y14957D01*
X27447Y15242D02*
X27580Y15242D01*
X27371Y15195D02*
X27514Y15147D01*
X27514Y15271D01*
X27580Y15452D02*
X27580Y15338D01*
X27580Y15395D02*
X27380Y15395D01*
X27409Y15376D01*
X27428Y15357D01*
X27438Y15338D01*
G54D19*
X9892Y14150D02*
X10321Y14150D01*
X10407Y14121D01*
X10464Y14064D01*
X10492Y13978D01*
X10492Y13921D01*
X10092Y14692D02*
X10492Y14692D01*
X9864Y14550D02*
X10292Y14407D01*
X10292Y14778D01*
G54D13*
X31835Y354D02*
X31930Y354D01*
X31730Y288D02*
X31835Y354D01*
X31730Y421D01*
X31930Y592D02*
X31930Y478D01*
X31930Y535D02*
X31730Y535D01*
X31759Y516D01*
X31778Y497D01*
X31788Y478D01*
X31085Y9654D02*
X31180Y9654D01*
X30980Y9588D02*
X31085Y9654D01*
X30980Y9721D01*
X31000Y9778D02*
X30990Y9788D01*
X30980Y9807D01*
X30980Y9854D01*
X30990Y9873D01*
X31000Y9883D01*
X31019Y9892D01*
X31038Y9892D01*
X31066Y9883D01*
X31180Y9769D01*
X31180Y9892D01*
G54D19*
X16842Y14150D02*
X17271Y14150D01*
X17357Y14121D01*
X17414Y14064D01*
X17442Y13978D01*
X17442Y13921D01*
X16842Y14378D02*
X16842Y14750D01*
X17071Y14550D01*
X17071Y14635D01*
X17100Y14692D01*
X17128Y14721D01*
X17185Y14750D01*
X17328Y14750D01*
X17385Y14721D01*
X17414Y14692D01*
X17442Y14635D01*
X17442Y14464D01*
X17414Y14407D01*
X17385Y14378D01*
G54D13*
X4430Y15697D02*
X4592Y15697D01*
X4611Y15707D01*
X4621Y15716D01*
X4630Y15735D01*
X4630Y15773D01*
X4621Y15792D01*
X4611Y15802D01*
X4592Y15811D01*
X4430Y15811D01*
X4450Y15897D02*
X4440Y15907D01*
X4430Y15926D01*
X4430Y15973D01*
X4440Y15992D01*
X4450Y16002D01*
X4469Y16011D01*
X4488Y16011D01*
X4516Y16002D01*
X4630Y15888D01*
X4630Y16011D01*
X13780Y12107D02*
X13580Y12107D01*
X13580Y12154D01*
X13590Y12183D01*
X13609Y12202D01*
X13628Y12211D01*
X13666Y12221D01*
X13695Y12221D01*
X13733Y12211D01*
X13752Y12202D01*
X13771Y12183D01*
X13780Y12154D01*
X13780Y12107D01*
X13647Y12392D02*
X13780Y12392D01*
X13571Y12345D02*
X13714Y12297D01*
X13714Y12421D01*
X13580Y12592D02*
X13580Y12497D01*
X13676Y12488D01*
X13666Y12497D01*
X13657Y12516D01*
X13657Y12564D01*
X13666Y12583D01*
X13676Y12592D01*
X13695Y12602D01*
X13742Y12602D01*
X13761Y12592D01*
X13771Y12583D01*
X13780Y12564D01*
X13780Y12516D01*
X13771Y12497D01*
X13761Y12488D01*
X1914Y15850D02*
X1914Y15750D01*
X2071Y15750D02*
X1771Y15750D01*
X1771Y15892D01*
X2071Y16164D02*
X2071Y15992D01*
X2071Y16078D02*
X1771Y16078D01*
X1814Y16050D01*
X1842Y16021D01*
X1857Y15992D01*
X25311Y1621D02*
X25321Y1611D01*
X25330Y1583D01*
X25330Y1564D01*
X25321Y1535D01*
X25302Y1516D01*
X25283Y1507D01*
X25245Y1497D01*
X25216Y1497D01*
X25178Y1507D01*
X25159Y1516D01*
X25140Y1535D01*
X25130Y1564D01*
X25130Y1583D01*
X25140Y1611D01*
X25150Y1621D01*
X25330Y1811D02*
X25330Y1697D01*
X25330Y1754D02*
X25130Y1754D01*
X25159Y1735D01*
X25178Y1716D01*
X25188Y1697D01*
X25130Y1935D02*
X25130Y1954D01*
X25140Y1973D01*
X25150Y1983D01*
X25169Y1992D01*
X25207Y2002D01*
X25254Y2002D01*
X25292Y1992D01*
X25311Y1983D01*
X25321Y1973D01*
X25330Y1954D01*
X25330Y1935D01*
X25321Y1916D01*
X25311Y1907D01*
X25292Y1897D01*
X25254Y1888D01*
X25207Y1888D01*
X25169Y1897D01*
X25150Y1907D01*
X25140Y1916D01*
X25130Y1935D01*
X26411Y10216D02*
X26421Y10207D01*
X26430Y10178D01*
X26430Y10159D01*
X26421Y10130D01*
X26402Y10111D01*
X26383Y10102D01*
X26345Y10092D01*
X26316Y10092D01*
X26278Y10102D01*
X26259Y10111D01*
X26240Y10130D01*
X26230Y10159D01*
X26230Y10178D01*
X26240Y10207D01*
X26250Y10216D01*
X26430Y10311D02*
X26430Y10350D01*
X26421Y10369D01*
X26411Y10378D01*
X26383Y10397D01*
X26345Y10407D01*
X26269Y10407D01*
X26250Y10397D01*
X26240Y10388D01*
X26230Y10369D01*
X26230Y10330D01*
X26240Y10311D01*
X26250Y10302D01*
X26269Y10292D01*
X26316Y10292D01*
X26335Y10302D01*
X26345Y10311D01*
X26354Y10330D01*
X26354Y10369D01*
X26345Y10388D01*
X26335Y10397D01*
X26316Y10407D01*
X6411Y12821D02*
X6421Y12811D01*
X6430Y12783D01*
X6430Y12764D01*
X6421Y12735D01*
X6402Y12716D01*
X6383Y12707D01*
X6345Y12697D01*
X6316Y12697D01*
X6278Y12707D01*
X6259Y12716D01*
X6240Y12735D01*
X6230Y12764D01*
X6230Y12783D01*
X6240Y12811D01*
X6250Y12821D01*
X6430Y13011D02*
X6430Y12897D01*
X6430Y12954D02*
X6230Y12954D01*
X6259Y12935D01*
X6278Y12916D01*
X6288Y12897D01*
X6230Y13078D02*
X6230Y13202D01*
X6307Y13135D01*
X6307Y13164D01*
X6316Y13183D01*
X6326Y13192D01*
X6345Y13202D01*
X6392Y13202D01*
X6411Y13192D01*
X6421Y13183D01*
X6430Y13164D01*
X6430Y13107D01*
X6421Y13088D01*
X6411Y13078D01*
X230Y11821D02*
X135Y11754D01*
X230Y11707D02*
X30Y11707D01*
X30Y11783D01*
X40Y11802D01*
X50Y11811D01*
X69Y11821D01*
X97Y11821D01*
X116Y11811D01*
X126Y11802D01*
X135Y11783D01*
X135Y11707D01*
X230Y12011D02*
X230Y11897D01*
X230Y11954D02*
X30Y11954D01*
X59Y11935D01*
X78Y11916D01*
X88Y11897D01*
X30Y12078D02*
X30Y12211D01*
X230Y12126D01*
X1430Y11821D02*
X1335Y11754D01*
X1430Y11707D02*
X1230Y11707D01*
X1230Y11783D01*
X1240Y11802D01*
X1250Y11811D01*
X1269Y11821D01*
X1297Y11821D01*
X1316Y11811D01*
X1326Y11802D01*
X1335Y11783D01*
X1335Y11707D01*
X1430Y12011D02*
X1430Y11897D01*
X1430Y11954D02*
X1230Y11954D01*
X1259Y11935D01*
X1278Y11916D01*
X1288Y11897D01*
X1316Y12126D02*
X1307Y12107D01*
X1297Y12097D01*
X1278Y12088D01*
X1269Y12088D01*
X1250Y12097D01*
X1240Y12107D01*
X1230Y12126D01*
X1230Y12164D01*
X1240Y12183D01*
X1250Y12192D01*
X1269Y12202D01*
X1278Y12202D01*
X1297Y12192D01*
X1307Y12183D01*
X1316Y12164D01*
X1316Y12126D01*
X1326Y12107D01*
X1335Y12097D01*
X1354Y12088D01*
X1392Y12088D01*
X1411Y12097D01*
X1421Y12107D01*
X1430Y12126D01*
X1430Y12164D01*
X1421Y12183D01*
X1411Y12192D01*
X1392Y12202D01*
X1354Y12202D01*
X1335Y12192D01*
X1326Y12183D01*
X1316Y12164D01*
X29511Y566D02*
X29521Y557D01*
X29530Y528D01*
X29530Y509D01*
X29521Y480D01*
X29502Y461D01*
X29483Y452D01*
X29445Y442D01*
X29416Y442D01*
X29378Y452D01*
X29359Y461D01*
X29340Y480D01*
X29330Y509D01*
X29330Y528D01*
X29340Y557D01*
X29350Y566D01*
X29330Y633D02*
X29330Y757D01*
X29407Y690D01*
X29407Y719D01*
X29416Y738D01*
X29426Y747D01*
X29445Y757D01*
X29492Y757D01*
X29511Y747D01*
X29521Y738D01*
X29530Y719D01*
X29530Y661D01*
X29521Y642D01*
X29511Y633D01*
X30311Y4016D02*
X30321Y4007D01*
X30330Y3978D01*
X30330Y3959D01*
X30321Y3930D01*
X30302Y3911D01*
X30283Y3902D01*
X30245Y3892D01*
X30216Y3892D01*
X30178Y3902D01*
X30159Y3911D01*
X30140Y3930D01*
X30130Y3959D01*
X30130Y3978D01*
X30140Y4007D01*
X30150Y4016D01*
X30216Y4130D02*
X30207Y4111D01*
X30197Y4102D01*
X30178Y4092D01*
X30169Y4092D01*
X30150Y4102D01*
X30140Y4111D01*
X30130Y4130D01*
X30130Y4169D01*
X30140Y4188D01*
X30150Y4197D01*
X30169Y4207D01*
X30178Y4207D01*
X30197Y4197D01*
X30207Y4188D01*
X30216Y4169D01*
X30216Y4130D01*
X30226Y4111D01*
X30235Y4102D01*
X30254Y4092D01*
X30292Y4092D01*
X30311Y4102D01*
X30321Y4111D01*
X30330Y4130D01*
X30330Y4169D01*
X30321Y4188D01*
X30311Y4197D01*
X30292Y4207D01*
X30254Y4207D01*
X30235Y4197D01*
X30226Y4188D01*
X30216Y4169D01*
X7411Y15121D02*
X7421Y15111D01*
X7430Y15083D01*
X7430Y15064D01*
X7421Y15035D01*
X7402Y15016D01*
X7383Y15007D01*
X7345Y14997D01*
X7316Y14997D01*
X7278Y15007D01*
X7259Y15016D01*
X7240Y15035D01*
X7230Y15064D01*
X7230Y15083D01*
X7240Y15111D01*
X7250Y15121D01*
X7430Y15311D02*
X7430Y15197D01*
X7430Y15254D02*
X7230Y15254D01*
X7259Y15235D01*
X7278Y15216D01*
X7288Y15197D01*
X7297Y15483D02*
X7430Y15483D01*
X7221Y15435D02*
X7364Y15388D01*
X7364Y15511D01*
X28711Y11616D02*
X28721Y11607D01*
X28730Y11578D01*
X28730Y11559D01*
X28721Y11530D01*
X28702Y11511D01*
X28683Y11502D01*
X28645Y11492D01*
X28616Y11492D01*
X28578Y11502D01*
X28559Y11511D01*
X28540Y11530D01*
X28530Y11559D01*
X28530Y11578D01*
X28540Y11607D01*
X28550Y11616D01*
X28530Y11797D02*
X28530Y11702D01*
X28626Y11692D01*
X28616Y11702D01*
X28607Y11721D01*
X28607Y11769D01*
X28616Y11788D01*
X28626Y11797D01*
X28645Y11807D01*
X28692Y11807D01*
X28711Y11797D01*
X28721Y11788D01*
X28730Y11769D01*
X28730Y11721D01*
X28721Y11702D01*
X28711Y11692D01*
X28861Y566D02*
X28871Y557D01*
X28880Y528D01*
X28880Y509D01*
X28871Y480D01*
X28852Y461D01*
X28833Y452D01*
X28795Y442D01*
X28766Y442D01*
X28728Y452D01*
X28709Y461D01*
X28690Y480D01*
X28680Y509D01*
X28680Y528D01*
X28690Y557D01*
X28700Y566D01*
X28747Y738D02*
X28880Y738D01*
X28671Y690D02*
X28814Y642D01*
X28814Y766D01*
G54D23*
X29811Y11620D02*
X29821Y11611D01*
X29830Y11585D01*
X29830Y11568D01*
X29821Y11542D01*
X29802Y11525D01*
X29783Y11517D01*
X29745Y11508D01*
X29716Y11508D01*
X29678Y11517D01*
X29659Y11525D01*
X29640Y11542D01*
X29630Y11568D01*
X29630Y11585D01*
X29640Y11611D01*
X29650Y11620D01*
X29630Y11774D02*
X29630Y11740D01*
X29640Y11722D01*
X29650Y11714D01*
X29678Y11697D01*
X29716Y11688D01*
X29792Y11688D01*
X29811Y11697D01*
X29821Y11705D01*
X29830Y11722D01*
X29830Y11757D01*
X29821Y11774D01*
X29811Y11782D01*
X29792Y11791D01*
X29745Y11791D01*
X29726Y11782D01*
X29716Y11774D01*
X29707Y11757D01*
X29707Y11722D01*
X29716Y11705D01*
X29726Y11697D01*
X29745Y11688D01*
G54D13*
X25030Y7916D02*
X24935Y7850D01*
X25030Y7802D02*
X24830Y7802D01*
X24830Y7878D01*
X24840Y7897D01*
X24850Y7907D01*
X24869Y7916D01*
X24897Y7916D01*
X24916Y7907D01*
X24926Y7897D01*
X24935Y7878D01*
X24935Y7802D01*
X24830Y8088D02*
X24830Y8050D01*
X24840Y8030D01*
X24850Y8021D01*
X24878Y8002D01*
X24916Y7992D01*
X24992Y7992D01*
X25011Y8002D01*
X25021Y8011D01*
X25030Y8030D01*
X25030Y8069D01*
X25021Y8088D01*
X25011Y8097D01*
X24992Y8107D01*
X24945Y8107D01*
X24926Y8097D01*
X24916Y8088D01*
X24907Y8069D01*
X24907Y8030D01*
X24916Y8011D01*
X24926Y8002D01*
X24945Y7992D01*
G54D23*
X26530Y14320D02*
X26435Y14260D01*
X26530Y14217D02*
X26330Y14217D01*
X26330Y14285D01*
X26340Y14302D01*
X26350Y14311D01*
X26369Y14320D01*
X26397Y14320D01*
X26416Y14311D01*
X26426Y14302D01*
X26435Y14285D01*
X26435Y14217D01*
X26530Y14405D02*
X26530Y14440D01*
X26521Y14457D01*
X26511Y14465D01*
X26483Y14482D01*
X26445Y14491D01*
X26369Y14491D01*
X26350Y14482D01*
X26340Y14474D01*
X26330Y14457D01*
X26330Y14422D01*
X26340Y14405D01*
X26350Y14397D01*
X26369Y14388D01*
X26416Y14388D01*
X26435Y14397D01*
X26445Y14405D01*
X26454Y14422D01*
X26454Y14457D01*
X26445Y14474D01*
X26435Y14482D01*
X26416Y14491D01*
G54D13*
X26552Y-871D02*
X26314Y-1038D01*
X26552Y-1157D02*
X26052Y-1157D01*
X26052Y-966D01*
X26076Y-919D01*
X26100Y-895D01*
X26147Y-871D01*
X26219Y-871D01*
X26266Y-895D01*
X26290Y-919D01*
X26314Y-966D01*
X26314Y-1157D01*
X26552Y-395D02*
X26552Y-680D01*
X26552Y-538D02*
X26052Y-538D01*
X26123Y-585D01*
X26171Y-633D01*
X26195Y-680D01*
X26219Y33D02*
X26552Y33D01*
X26028Y-85D02*
X26385Y-204D01*
X26385Y104D01*
X20930Y7621D02*
X20835Y7554D01*
X20930Y7507D02*
X20730Y7507D01*
X20730Y7583D01*
X20740Y7602D01*
X20750Y7611D01*
X20769Y7621D01*
X20797Y7621D01*
X20816Y7611D01*
X20826Y7602D01*
X20835Y7583D01*
X20835Y7507D01*
X20930Y7811D02*
X20930Y7697D01*
X20930Y7754D02*
X20730Y7754D01*
X20759Y7735D01*
X20778Y7716D01*
X20788Y7697D01*
X20930Y7907D02*
X20930Y7945D01*
X20921Y7964D01*
X20911Y7973D01*
X20883Y7992D01*
X20845Y8002D01*
X20769Y8002D01*
X20750Y7992D01*
X20740Y7983D01*
X20730Y7964D01*
X20730Y7926D01*
X20740Y7907D01*
X20750Y7897D01*
X20769Y7888D01*
X20816Y7888D01*
X20835Y7897D01*
X20845Y7907D01*
X20854Y7926D01*
X20854Y7964D01*
X20845Y7983D01*
X20835Y7992D01*
X20816Y8002D01*
G54D23*
X5280Y12084D02*
X5185Y12024D01*
X5280Y11981D02*
X5080Y11981D01*
X5080Y12050D01*
X5090Y12067D01*
X5100Y12075D01*
X5119Y12084D01*
X5147Y12084D01*
X5166Y12075D01*
X5176Y12067D01*
X5185Y12050D01*
X5185Y11981D01*
X5280Y12255D02*
X5280Y12152D01*
X5280Y12204D02*
X5080Y12204D01*
X5109Y12187D01*
X5128Y12170D01*
X5138Y12152D01*
X5080Y12410D02*
X5080Y12375D01*
X5090Y12358D01*
X5100Y12350D01*
X5128Y12332D01*
X5166Y12324D01*
X5242Y12324D01*
X5261Y12332D01*
X5271Y12341D01*
X5280Y12358D01*
X5280Y12392D01*
X5271Y12410D01*
X5261Y12418D01*
X5242Y12427D01*
X5195Y12427D01*
X5176Y12418D01*
X5166Y12410D01*
X5157Y12392D01*
X5157Y12358D01*
X5166Y12341D01*
X5176Y12332D01*
X5195Y12324D01*
G54D13*
X13430Y1816D02*
X13335Y1750D01*
X13430Y1702D02*
X13230Y1702D01*
X13230Y1778D01*
X13240Y1797D01*
X13250Y1807D01*
X13269Y1816D01*
X13297Y1816D01*
X13316Y1807D01*
X13326Y1797D01*
X13335Y1778D01*
X13335Y1702D01*
X13430Y2007D02*
X13430Y1892D01*
X13430Y1950D02*
X13230Y1950D01*
X13259Y1930D01*
X13278Y1911D01*
X13288Y1892D01*
X8130Y13221D02*
X8035Y13154D01*
X8130Y13107D02*
X7930Y13107D01*
X7930Y13183D01*
X7940Y13202D01*
X7950Y13211D01*
X7969Y13221D01*
X7997Y13221D01*
X8016Y13211D01*
X8026Y13202D01*
X8035Y13183D01*
X8035Y13107D01*
X8130Y13411D02*
X8130Y13297D01*
X8130Y13354D02*
X7930Y13354D01*
X7959Y13335D01*
X7978Y13316D01*
X7988Y13297D01*
X7930Y13592D02*
X7930Y13497D01*
X8026Y13488D01*
X8016Y13497D01*
X8007Y13516D01*
X8007Y13564D01*
X8016Y13583D01*
X8026Y13592D01*
X8045Y13602D01*
X8092Y13602D01*
X8111Y13592D01*
X8121Y13583D01*
X8130Y13564D01*
X8130Y13516D01*
X8121Y13497D01*
X8111Y13488D01*
X20130Y10521D02*
X20035Y10454D01*
X20130Y10407D02*
X19930Y10407D01*
X19930Y10483D01*
X19940Y10502D01*
X19950Y10511D01*
X19969Y10521D01*
X19997Y10521D01*
X20016Y10511D01*
X20026Y10502D01*
X20035Y10483D01*
X20035Y10407D01*
X19950Y10597D02*
X19940Y10607D01*
X19930Y10626D01*
X19930Y10673D01*
X19940Y10692D01*
X19950Y10702D01*
X19969Y10711D01*
X19988Y10711D01*
X20016Y10702D01*
X20130Y10588D01*
X20130Y10711D01*
X19930Y10835D02*
X19930Y10854D01*
X19940Y10873D01*
X19950Y10883D01*
X19969Y10892D01*
X20007Y10902D01*
X20054Y10902D01*
X20092Y10892D01*
X20111Y10883D01*
X20121Y10873D01*
X20130Y10854D01*
X20130Y10835D01*
X20121Y10816D01*
X20111Y10807D01*
X20092Y10797D01*
X20054Y10788D01*
X20007Y10788D01*
X19969Y10797D01*
X19950Y10807D01*
X19940Y10816D01*
X19930Y10835D01*
G54D23*
X14930Y10634D02*
X14835Y10574D01*
X14930Y10531D02*
X14730Y10531D01*
X14730Y10600D01*
X14740Y10617D01*
X14750Y10625D01*
X14769Y10634D01*
X14797Y10634D01*
X14816Y10625D01*
X14826Y10617D01*
X14835Y10600D01*
X14835Y10531D01*
X14930Y10805D02*
X14930Y10702D01*
X14930Y10754D02*
X14730Y10754D01*
X14759Y10737D01*
X14778Y10720D01*
X14788Y10702D01*
X14730Y10865D02*
X14730Y10977D01*
X14807Y10917D01*
X14807Y10942D01*
X14816Y10960D01*
X14826Y10968D01*
X14845Y10977D01*
X14892Y10977D01*
X14911Y10968D01*
X14921Y10960D01*
X14930Y10942D01*
X14930Y10891D01*
X14921Y10874D01*
X14911Y10865D01*
G54D13*
X25030Y8821D02*
X24935Y8754D01*
X25030Y8707D02*
X24830Y8707D01*
X24830Y8783D01*
X24840Y8802D01*
X24850Y8811D01*
X24869Y8821D01*
X24897Y8821D01*
X24916Y8811D01*
X24926Y8802D01*
X24935Y8783D01*
X24935Y8707D01*
X25030Y9011D02*
X25030Y8897D01*
X25030Y8954D02*
X24830Y8954D01*
X24859Y8935D01*
X24878Y8916D01*
X24888Y8897D01*
X24850Y9088D02*
X24840Y9097D01*
X24830Y9116D01*
X24830Y9164D01*
X24840Y9183D01*
X24850Y9192D01*
X24869Y9202D01*
X24888Y9202D01*
X24916Y9192D01*
X25030Y9078D01*
X25030Y9202D01*
X13430Y7516D02*
X13335Y7450D01*
X13430Y7402D02*
X13230Y7402D01*
X13230Y7478D01*
X13240Y7497D01*
X13250Y7507D01*
X13269Y7516D01*
X13297Y7516D01*
X13316Y7507D01*
X13326Y7497D01*
X13335Y7478D01*
X13335Y7402D01*
X13297Y7688D02*
X13430Y7688D01*
X13221Y7640D02*
X13364Y7592D01*
X13364Y7716D01*
X11830Y14671D02*
X11735Y14604D01*
X11830Y14557D02*
X11630Y14557D01*
X11630Y14633D01*
X11640Y14652D01*
X11650Y14661D01*
X11669Y14671D01*
X11697Y14671D01*
X11716Y14661D01*
X11726Y14652D01*
X11735Y14633D01*
X11735Y14557D01*
X11830Y14861D02*
X11830Y14747D01*
X11830Y14804D02*
X11630Y14804D01*
X11659Y14785D01*
X11678Y14766D01*
X11688Y14747D01*
X11630Y14985D02*
X11630Y15004D01*
X11640Y15023D01*
X11650Y15033D01*
X11669Y15042D01*
X11707Y15052D01*
X11754Y15052D01*
X11792Y15042D01*
X11811Y15033D01*
X11821Y15023D01*
X11830Y15004D01*
X11830Y14985D01*
X11821Y14966D01*
X11811Y14957D01*
X11792Y14947D01*
X11754Y14938D01*
X11707Y14938D01*
X11669Y14947D01*
X11650Y14957D01*
X11640Y14966D01*
X11630Y14985D01*
X11830Y13871D02*
X11735Y13804D01*
X11830Y13757D02*
X11630Y13757D01*
X11630Y13833D01*
X11640Y13852D01*
X11650Y13861D01*
X11669Y13871D01*
X11697Y13871D01*
X11716Y13861D01*
X11726Y13852D01*
X11735Y13833D01*
X11735Y13757D01*
X11830Y14061D02*
X11830Y13947D01*
X11830Y14004D02*
X11630Y14004D01*
X11659Y13985D01*
X11678Y13966D01*
X11688Y13947D01*
X11830Y14252D02*
X11830Y14138D01*
X11830Y14195D02*
X11630Y14195D01*
X11659Y14176D01*
X11678Y14157D01*
X11688Y14138D01*
G54D23*
X13430Y4620D02*
X13335Y4560D01*
X13430Y4517D02*
X13230Y4517D01*
X13230Y4585D01*
X13240Y4602D01*
X13250Y4611D01*
X13269Y4620D01*
X13297Y4620D01*
X13316Y4611D01*
X13326Y4602D01*
X13335Y4585D01*
X13335Y4517D01*
X13250Y4688D02*
X13240Y4697D01*
X13230Y4714D01*
X13230Y4757D01*
X13240Y4774D01*
X13250Y4782D01*
X13269Y4791D01*
X13288Y4791D01*
X13316Y4782D01*
X13430Y4680D01*
X13430Y4791D01*
G54D13*
X14491Y-1575D02*
X14325Y-1691D01*
X14491Y-1775D02*
X14141Y-1775D01*
X14141Y-1641D01*
X14158Y-1608D01*
X14175Y-1591D01*
X14208Y-1575D01*
X14258Y-1575D01*
X14291Y-1591D01*
X14308Y-1608D01*
X14325Y-1641D01*
X14325Y-1775D01*
X14175Y-1441D02*
X14158Y-1425D01*
X14141Y-1391D01*
X14141Y-1308D01*
X14158Y-1275D01*
X14175Y-1258D01*
X14208Y-1241D01*
X14241Y-1241D01*
X14291Y-1258D01*
X14491Y-1458D01*
X14491Y-1241D01*
X14491Y-908D02*
X14491Y-1108D01*
X14491Y-1008D02*
X14141Y-1008D01*
X14191Y-1041D01*
X14225Y-1075D01*
X14241Y-1108D01*
X13430Y5516D02*
X13335Y5450D01*
X13430Y5402D02*
X13230Y5402D01*
X13230Y5478D01*
X13240Y5497D01*
X13250Y5507D01*
X13269Y5516D01*
X13297Y5516D01*
X13316Y5507D01*
X13326Y5497D01*
X13335Y5478D01*
X13335Y5402D01*
X13230Y5583D02*
X13230Y5707D01*
X13307Y5640D01*
X13307Y5669D01*
X13316Y5688D01*
X13326Y5697D01*
X13345Y5707D01*
X13392Y5707D01*
X13411Y5697D01*
X13421Y5688D01*
X13430Y5669D01*
X13430Y5611D01*
X13421Y5592D01*
X13411Y5583D01*
G54D23*
X26530Y12320D02*
X26435Y12260D01*
X26530Y12217D02*
X26330Y12217D01*
X26330Y12285D01*
X26340Y12302D01*
X26350Y12311D01*
X26369Y12320D01*
X26397Y12320D01*
X26416Y12311D01*
X26426Y12302D01*
X26435Y12285D01*
X26435Y12217D01*
X26416Y12422D02*
X26407Y12405D01*
X26397Y12397D01*
X26378Y12388D01*
X26369Y12388D01*
X26350Y12397D01*
X26340Y12405D01*
X26330Y12422D01*
X26330Y12457D01*
X26340Y12474D01*
X26350Y12482D01*
X26369Y12491D01*
X26378Y12491D01*
X26397Y12482D01*
X26407Y12474D01*
X26416Y12457D01*
X26416Y12422D01*
X26426Y12405D01*
X26435Y12397D01*
X26454Y12388D01*
X26492Y12388D01*
X26511Y12397D01*
X26521Y12405D01*
X26530Y12422D01*
X26530Y12457D01*
X26521Y12474D01*
X26511Y12482D01*
X26492Y12491D01*
X26454Y12491D01*
X26435Y12482D01*
X26426Y12474D01*
X26416Y12457D01*
X26530Y13320D02*
X26435Y13260D01*
X26530Y13217D02*
X26330Y13217D01*
X26330Y13285D01*
X26340Y13302D01*
X26350Y13311D01*
X26369Y13320D01*
X26397Y13320D01*
X26416Y13311D01*
X26426Y13302D01*
X26435Y13285D01*
X26435Y13217D01*
X26330Y13380D02*
X26330Y13500D01*
X26530Y13422D01*
G54D13*
X13430Y9516D02*
X13335Y9450D01*
X13430Y9402D02*
X13230Y9402D01*
X13230Y9478D01*
X13240Y9497D01*
X13250Y9507D01*
X13269Y9516D01*
X13297Y9516D01*
X13316Y9507D01*
X13326Y9497D01*
X13335Y9478D01*
X13335Y9402D01*
X13230Y9697D02*
X13230Y9602D01*
X13326Y9592D01*
X13316Y9602D01*
X13307Y9621D01*
X13307Y9669D01*
X13316Y9688D01*
X13326Y9697D01*
X13345Y9707D01*
X13392Y9707D01*
X13411Y9697D01*
X13421Y9688D01*
X13430Y9669D01*
X13430Y9621D01*
X13421Y9602D01*
X13411Y9592D01*
X30711Y6916D02*
X30721Y6907D01*
X30730Y6878D01*
X30730Y6859D01*
X30721Y6830D01*
X30702Y6811D01*
X30683Y6802D01*
X30645Y6792D01*
X30616Y6792D01*
X30578Y6802D01*
X30559Y6811D01*
X30540Y6830D01*
X30530Y6859D01*
X30530Y6878D01*
X30540Y6907D01*
X30550Y6916D01*
X30730Y7107D02*
X30730Y6992D01*
X30730Y7050D02*
X30530Y7050D01*
X30559Y7030D01*
X30578Y7011D01*
X30588Y6992D01*
X28261Y3421D02*
X28271Y3411D01*
X28280Y3383D01*
X28280Y3364D01*
X28271Y3335D01*
X28252Y3316D01*
X28233Y3307D01*
X28195Y3297D01*
X28166Y3297D01*
X28128Y3307D01*
X28109Y3316D01*
X28090Y3335D01*
X28080Y3364D01*
X28080Y3383D01*
X28090Y3411D01*
X28100Y3421D01*
X28280Y3611D02*
X28280Y3497D01*
X28280Y3554D02*
X28080Y3554D01*
X28109Y3535D01*
X28128Y3516D01*
X28138Y3497D01*
X28280Y3802D02*
X28280Y3688D01*
X28280Y3745D02*
X28080Y3745D01*
X28109Y3726D01*
X28128Y3707D01*
X28138Y3688D01*
X30711Y5516D02*
X30721Y5507D01*
X30730Y5478D01*
X30730Y5459D01*
X30721Y5430D01*
X30702Y5411D01*
X30683Y5402D01*
X30645Y5392D01*
X30616Y5392D01*
X30578Y5402D01*
X30559Y5411D01*
X30540Y5430D01*
X30530Y5459D01*
X30530Y5478D01*
X30540Y5507D01*
X30550Y5516D01*
X30550Y5592D02*
X30540Y5602D01*
X30530Y5621D01*
X30530Y5669D01*
X30540Y5688D01*
X30550Y5697D01*
X30569Y5707D01*
X30588Y5707D01*
X30616Y5697D01*
X30730Y5583D01*
X30730Y5707D01*
G54D19*
X13042Y-1700D02*
X13471Y-1700D01*
X13557Y-1728D01*
X13614Y-1785D01*
X13642Y-1871D01*
X13642Y-1928D01*
X13642Y-1100D02*
X13642Y-1442D01*
X13642Y-1271D02*
X13042Y-1271D01*
X13128Y-1328D01*
X13185Y-1385D01*
X13214Y-1442D01*
X18442Y-1750D02*
X18871Y-1750D01*
X18957Y-1778D01*
X19014Y-1835D01*
X19042Y-1921D01*
X19042Y-1978D01*
X18500Y-1492D02*
X18471Y-1464D01*
X18442Y-1407D01*
X18442Y-1264D01*
X18471Y-1207D01*
X18500Y-1178D01*
X18557Y-1150D01*
X18614Y-1150D01*
X18700Y-1178D01*
X19042Y-1521D01*
X19042Y-1150D01*
X20111Y11754D02*
X19711Y11754D01*
X19711Y11907D01*
X19730Y11945D01*
X19750Y11964D01*
X19788Y11983D01*
X19845Y11983D01*
X19883Y11964D01*
X19902Y11945D01*
X19921Y11907D01*
X19921Y11754D01*
X19750Y12135D02*
X19730Y12154D01*
X19711Y12192D01*
X19711Y12288D01*
X19730Y12326D01*
X19750Y12345D01*
X19788Y12364D01*
X19826Y12364D01*
X19883Y12345D01*
X20111Y12116D01*
X20111Y12364D01*
G54D13*
X31511Y2321D02*
X31521Y2311D01*
X31530Y2283D01*
X31530Y2264D01*
X31521Y2235D01*
X31502Y2216D01*
X31483Y2207D01*
X31445Y2197D01*
X31416Y2197D01*
X31378Y2207D01*
X31359Y2216D01*
X31340Y2235D01*
X31330Y2264D01*
X31330Y2283D01*
X31340Y2311D01*
X31350Y2321D01*
X31530Y2511D02*
X31530Y2397D01*
X31530Y2454D02*
X31330Y2454D01*
X31359Y2435D01*
X31378Y2416D01*
X31388Y2397D01*
X31350Y2588D02*
X31340Y2597D01*
X31330Y2616D01*
X31330Y2664D01*
X31340Y2683D01*
X31350Y2692D01*
X31369Y2702D01*
X31388Y2702D01*
X31416Y2692D01*
X31530Y2578D01*
X31530Y2702D01*
X8730Y807D02*
X8530Y807D01*
X8530Y854D01*
X8540Y883D01*
X8559Y902D01*
X8578Y911D01*
X8616Y921D01*
X8645Y921D01*
X8683Y911D01*
X8702Y902D01*
X8721Y883D01*
X8730Y854D01*
X8730Y807D01*
X8550Y997D02*
X8540Y1007D01*
X8530Y1026D01*
X8530Y1073D01*
X8540Y1092D01*
X8550Y1102D01*
X8569Y1111D01*
X8588Y1111D01*
X8616Y1102D01*
X8730Y988D01*
X8730Y1111D01*
X8530Y1283D02*
X8530Y1245D01*
X8540Y1226D01*
X8550Y1216D01*
X8578Y1197D01*
X8616Y1188D01*
X8692Y1188D01*
X8711Y1197D01*
X8721Y1207D01*
X8730Y1226D01*
X8730Y1264D01*
X8721Y1283D01*
X8711Y1292D01*
X8692Y1302D01*
X8645Y1302D01*
X8626Y1292D01*
X8616Y1283D01*
X8607Y1264D01*
X8607Y1226D01*
X8616Y1207D01*
X8626Y1197D01*
X8645Y1188D01*
X10330Y807D02*
X10130Y807D01*
X10130Y854D01*
X10140Y883D01*
X10159Y902D01*
X10178Y911D01*
X10216Y921D01*
X10245Y921D01*
X10283Y911D01*
X10302Y902D01*
X10321Y883D01*
X10330Y854D01*
X10330Y807D01*
X10130Y988D02*
X10130Y1111D01*
X10207Y1045D01*
X10207Y1073D01*
X10216Y1092D01*
X10226Y1102D01*
X10245Y1111D01*
X10292Y1111D01*
X10311Y1102D01*
X10321Y1092D01*
X10330Y1073D01*
X10330Y1016D01*
X10321Y997D01*
X10311Y988D01*
X10330Y1302D02*
X10330Y1188D01*
X10330Y1245D02*
X10130Y1245D01*
X10159Y1226D01*
X10178Y1207D01*
X10188Y1188D01*
X10330Y11307D02*
X10130Y11307D01*
X10130Y11354D01*
X10140Y11383D01*
X10159Y11402D01*
X10178Y11411D01*
X10216Y11421D01*
X10245Y11421D01*
X10283Y11411D01*
X10302Y11402D01*
X10321Y11383D01*
X10330Y11354D01*
X10330Y11307D01*
X10130Y11488D02*
X10130Y11611D01*
X10207Y11545D01*
X10207Y11573D01*
X10216Y11592D01*
X10226Y11602D01*
X10245Y11611D01*
X10292Y11611D01*
X10311Y11602D01*
X10321Y11592D01*
X10330Y11573D01*
X10330Y11516D01*
X10321Y11497D01*
X10311Y11488D01*
X10130Y11792D02*
X10130Y11697D01*
X10226Y11688D01*
X10216Y11697D01*
X10207Y11716D01*
X10207Y11764D01*
X10216Y11783D01*
X10226Y11792D01*
X10245Y11802D01*
X10292Y11802D01*
X10311Y11792D01*
X10321Y11783D01*
X10330Y11764D01*
X10330Y11716D01*
X10321Y11697D01*
X10311Y11688D01*
X11930Y807D02*
X11730Y807D01*
X11730Y854D01*
X11740Y883D01*
X11759Y902D01*
X11778Y911D01*
X11816Y921D01*
X11845Y921D01*
X11883Y911D01*
X11902Y902D01*
X11921Y883D01*
X11930Y854D01*
X11930Y807D01*
X11730Y988D02*
X11730Y1111D01*
X11807Y1045D01*
X11807Y1073D01*
X11816Y1092D01*
X11826Y1102D01*
X11845Y1111D01*
X11892Y1111D01*
X11911Y1102D01*
X11921Y1092D01*
X11930Y1073D01*
X11930Y1016D01*
X11921Y997D01*
X11911Y988D01*
X11730Y1283D02*
X11730Y1245D01*
X11740Y1226D01*
X11750Y1216D01*
X11778Y1197D01*
X11816Y1188D01*
X11892Y1188D01*
X11911Y1197D01*
X11921Y1207D01*
X11930Y1226D01*
X11930Y1264D01*
X11921Y1283D01*
X11911Y1292D01*
X11892Y1302D01*
X11845Y1302D01*
X11826Y1292D01*
X11816Y1283D01*
X11807Y1264D01*
X11807Y1226D01*
X11816Y1207D01*
X11826Y1197D01*
X11845Y1188D01*
X730Y802D02*
X530Y802D01*
X530Y850D01*
X540Y878D01*
X559Y897D01*
X578Y907D01*
X616Y916D01*
X645Y916D01*
X683Y907D01*
X702Y897D01*
X721Y878D01*
X730Y850D01*
X730Y802D01*
X730Y1107D02*
X730Y992D01*
X730Y1050D02*
X530Y1050D01*
X559Y1030D01*
X578Y1011D01*
X588Y992D01*
X780Y11302D02*
X580Y11302D01*
X580Y11350D01*
X590Y11378D01*
X609Y11397D01*
X628Y11407D01*
X666Y11416D01*
X695Y11416D01*
X733Y11407D01*
X752Y11397D01*
X771Y11378D01*
X780Y11350D01*
X780Y11302D01*
X580Y11597D02*
X580Y11502D01*
X676Y11492D01*
X666Y11502D01*
X657Y11521D01*
X657Y11569D01*
X666Y11588D01*
X676Y11597D01*
X695Y11607D01*
X742Y11607D01*
X761Y11597D01*
X771Y11588D01*
X780Y11569D01*
X780Y11521D01*
X771Y11502D01*
X761Y11492D01*
X2330Y802D02*
X2130Y802D01*
X2130Y850D01*
X2140Y878D01*
X2159Y897D01*
X2178Y907D01*
X2216Y916D01*
X2245Y916D01*
X2283Y907D01*
X2302Y897D01*
X2321Y878D01*
X2330Y850D01*
X2330Y802D01*
X2130Y1088D02*
X2130Y1050D01*
X2140Y1030D01*
X2150Y1021D01*
X2178Y1002D01*
X2216Y992D01*
X2292Y992D01*
X2311Y1002D01*
X2321Y1011D01*
X2330Y1030D01*
X2330Y1069D01*
X2321Y1088D01*
X2311Y1097D01*
X2292Y1107D01*
X2245Y1107D01*
X2226Y1097D01*
X2216Y1088D01*
X2207Y1069D01*
X2207Y1030D01*
X2216Y1011D01*
X2226Y1002D01*
X2245Y992D01*
X2330Y11307D02*
X2130Y11307D01*
X2130Y11354D01*
X2140Y11383D01*
X2159Y11402D01*
X2178Y11411D01*
X2216Y11421D01*
X2245Y11421D01*
X2283Y11411D01*
X2302Y11402D01*
X2321Y11383D01*
X2330Y11354D01*
X2330Y11307D01*
X2330Y11611D02*
X2330Y11497D01*
X2330Y11554D02*
X2130Y11554D01*
X2159Y11535D01*
X2178Y11516D01*
X2188Y11497D01*
X2130Y11735D02*
X2130Y11754D01*
X2140Y11773D01*
X2150Y11783D01*
X2169Y11792D01*
X2207Y11802D01*
X2254Y11802D01*
X2292Y11792D01*
X2311Y11783D01*
X2321Y11773D01*
X2330Y11754D01*
X2330Y11735D01*
X2321Y11716D01*
X2311Y11707D01*
X2292Y11697D01*
X2254Y11688D01*
X2207Y11688D01*
X2169Y11697D01*
X2150Y11707D01*
X2140Y11716D01*
X2130Y11735D01*
X5530Y807D02*
X5330Y807D01*
X5330Y854D01*
X5340Y883D01*
X5359Y902D01*
X5378Y911D01*
X5416Y921D01*
X5445Y921D01*
X5483Y911D01*
X5502Y902D01*
X5521Y883D01*
X5530Y854D01*
X5530Y807D01*
X5530Y1111D02*
X5530Y997D01*
X5530Y1054D02*
X5330Y1054D01*
X5359Y1035D01*
X5378Y1016D01*
X5388Y997D01*
X5330Y1283D02*
X5330Y1245D01*
X5340Y1226D01*
X5350Y1216D01*
X5378Y1197D01*
X5416Y1188D01*
X5492Y1188D01*
X5511Y1197D01*
X5521Y1207D01*
X5530Y1226D01*
X5530Y1264D01*
X5521Y1283D01*
X5511Y1292D01*
X5492Y1302D01*
X5445Y1302D01*
X5426Y1292D01*
X5416Y1283D01*
X5407Y1264D01*
X5407Y1226D01*
X5416Y1207D01*
X5426Y1197D01*
X5445Y1188D01*
X7130Y807D02*
X6930Y807D01*
X6930Y854D01*
X6940Y883D01*
X6959Y902D01*
X6978Y911D01*
X7016Y921D01*
X7045Y921D01*
X7083Y911D01*
X7102Y902D01*
X7121Y883D01*
X7130Y854D01*
X7130Y807D01*
X6950Y997D02*
X6940Y1007D01*
X6930Y1026D01*
X6930Y1073D01*
X6940Y1092D01*
X6950Y1102D01*
X6969Y1111D01*
X6988Y1111D01*
X7016Y1102D01*
X7130Y988D01*
X7130Y1111D01*
X7130Y1302D02*
X7130Y1188D01*
X7130Y1245D02*
X6930Y1245D01*
X6959Y1226D01*
X6978Y1207D01*
X6988Y1188D01*
X3930Y807D02*
X3730Y807D01*
X3730Y854D01*
X3740Y883D01*
X3759Y902D01*
X3778Y911D01*
X3816Y921D01*
X3845Y921D01*
X3883Y911D01*
X3902Y902D01*
X3921Y883D01*
X3930Y854D01*
X3930Y807D01*
X3930Y1111D02*
X3930Y997D01*
X3930Y1054D02*
X3730Y1054D01*
X3759Y1035D01*
X3778Y1016D01*
X3788Y997D01*
X3930Y1302D02*
X3930Y1188D01*
X3930Y1245D02*
X3730Y1245D01*
X3759Y1226D01*
X3778Y1207D01*
X3788Y1188D01*
X6830Y11957D02*
X6630Y11957D01*
X6630Y12004D01*
X6640Y12033D01*
X6659Y12052D01*
X6678Y12061D01*
X6716Y12071D01*
X6745Y12071D01*
X6783Y12061D01*
X6802Y12052D01*
X6821Y12033D01*
X6830Y12004D01*
X6830Y11957D01*
X6697Y12242D02*
X6830Y12242D01*
X6621Y12195D02*
X6764Y12147D01*
X6764Y12271D01*
X6697Y12433D02*
X6830Y12433D01*
X6621Y12385D02*
X6764Y12338D01*
X6764Y12461D01*
X11930Y11307D02*
X11730Y11307D01*
X11730Y11354D01*
X11740Y11383D01*
X11759Y11402D01*
X11778Y11411D01*
X11816Y11421D01*
X11845Y11421D01*
X11883Y11411D01*
X11902Y11402D01*
X11921Y11383D01*
X11930Y11354D01*
X11930Y11307D01*
X11797Y11592D02*
X11930Y11592D01*
X11721Y11545D02*
X11864Y11497D01*
X11864Y11621D01*
X11730Y11735D02*
X11730Y11754D01*
X11740Y11773D01*
X11750Y11783D01*
X11769Y11792D01*
X11807Y11802D01*
X11854Y11802D01*
X11892Y11792D01*
X11911Y11783D01*
X11921Y11773D01*
X11930Y11754D01*
X11930Y11735D01*
X11921Y11716D01*
X11911Y11707D01*
X11892Y11697D01*
X11854Y11688D01*
X11807Y11688D01*
X11769Y11697D01*
X11750Y11707D01*
X11740Y11716D01*
X11730Y11735D01*
X28080Y14957D02*
X27880Y14957D01*
X27880Y15004D01*
X27890Y15033D01*
X27909Y15052D01*
X27928Y15061D01*
X27966Y15071D01*
X27995Y15071D01*
X28033Y15061D01*
X28052Y15052D01*
X28071Y15033D01*
X28080Y15004D01*
X28080Y14957D01*
X27947Y15242D02*
X28080Y15242D01*
X27871Y15195D02*
X28014Y15147D01*
X28014Y15271D01*
X27900Y15338D02*
X27890Y15347D01*
X27880Y15366D01*
X27880Y15414D01*
X27890Y15433D01*
X27900Y15442D01*
X27919Y15452D01*
X27938Y15452D01*
X27966Y15442D01*
X28080Y15328D01*
X28080Y15452D01*
X28530Y14957D02*
X28330Y14957D01*
X28330Y15004D01*
X28340Y15033D01*
X28359Y15052D01*
X28378Y15061D01*
X28416Y15071D01*
X28445Y15071D01*
X28483Y15061D01*
X28502Y15052D01*
X28521Y15033D01*
X28530Y15004D01*
X28530Y14957D01*
X28397Y15242D02*
X28530Y15242D01*
X28321Y15195D02*
X28464Y15147D01*
X28464Y15271D01*
X28330Y15328D02*
X28330Y15452D01*
X28407Y15385D01*
X28407Y15414D01*
X28416Y15433D01*
X28426Y15442D01*
X28445Y15452D01*
X28492Y15452D01*
X28511Y15442D01*
X28521Y15433D01*
X28530Y15414D01*
X28530Y15357D01*
X28521Y15338D01*
X28511Y15328D01*
G54D11*
X-438Y15904D02*
X-838Y15904D01*
X-838Y16057D01*
X-819Y16095D01*
X-800Y16114D01*
X-761Y16133D01*
X-704Y16133D01*
X-666Y16114D01*
X-647Y16095D01*
X-628Y16057D01*
X-628Y15904D01*
X-438Y16514D02*
X-438Y16285D01*
X-438Y16400D02*
X-838Y16400D01*
X-780Y16361D01*
X-742Y16323D01*
X-723Y16285D01*
G54D19*
X25102Y5769D02*
X25507Y5769D01*
X25554Y5792D01*
X25578Y5816D01*
X25602Y5864D01*
X25602Y5959D01*
X25578Y6007D01*
X25554Y6030D01*
X25507Y6054D01*
X25102Y6054D01*
X25602Y6554D02*
X25602Y6269D01*
X25602Y6411D02*
X25102Y6411D01*
X25173Y6364D01*
X25221Y6316D01*
X25245Y6269D01*
M02*
